<svg fill="none" height="20" viewBox="0 0 21 20" width="21" xmlns="http://www.w3.org/2000/svg"><path d="m10.4043.00760966c2.1504 0 4.3008-.02130086 6.4504.00737334 1.4952.0196624 2.58.758638 3.232 2.140737.216.45715.3064.94953.3064 1.45911-.0008 4.25198.0024 8.50397-.0016 12.75597-.0024 2.0014-1.5424 3.6105-3.5024 3.6178-4.3264.0156-8.65283.0148-12.97923 0-1.96561-.0065-3.508011-1.6147-3.511211-3.6326-.0064-4.2389-.0072-8.47772 0-12.71578.004-2.03177 1.574401-3.628514 3.555211-3.63179108 2.1504-.00327705 4.3-.00081926 6.45043-.00081926z" fill="#eb1000"/><path d="m7.8647 15.398c-1.12669 0-2.25338 0-3.38007 0-.42676 0-.54982-.1939-.38313-.6006 1.45222-3.5437 2.90444-7.08644 4.35666-10.62923.17367-.42363.32989-.52909.7837-.52909.76974 0 1.54034.00536 2.31014-.00268.3665-.00358.596.1564.7392.50496 1.4618 3.5553 2.9297 7.10704 4.3959 10.66054.1667.404.0419.5961-.3884.597-.7845.0009-1.5691-.0071-2.3528.0036-.3448.0045-.5551-.1421-.6904-.4665-.8989-2.1683-1.8056-4.332-2.7141-6.49575-.0332-.07865-.1048-.14121-.158-.21092-.0559.06614-.1335.12423-.165.20109-.55239 1.33614-1.09872 2.67498-1.64592 4.01378-.1152.2806-.07942.337.21469.3378.56379.0009 1.12669.0063 1.68963-.0026.2059-.0027.3325.0741.4154.2681.2505.5881.514 1.1708.7671 1.7571.1545.3575.0079.5934-.3709.5943-1.1406.0027-2.28217.0009-3.42283.0009z" fill="#fff"/></svg>