<svg xmlns="http://www.w3.org/2000/svg" width="926" height="200" fill="none"><path fill="#fff" d="M0 0h926v200H0z"/><rect width="145" height="150" x="617" y="23.367" fill="#F6F6F6" rx="8"/><path fill="#000" d="M645.888 46.112h-1.864v3.386h-1.763v-8.636h4.236q.908.017 1.394.222.493.205.832.604.281.328.446.727t.164.908q0 .615-.311 1.213-.31.591-1.025.837.597.241.844.686.252.44.252 1.348v.58q0 .591.046.803a.72.72 0 0 0 .329.492v.217h-1.987a7 7 0 0 1-.117-.463 4.3 4.3 0 0 1-.076-.745l-.012-.802q-.012-.826-.304-1.102-.288-.275-1.084-.275m1.095-1.57q.54-.247.539-.973 0-.786-.521-1.055-.293-.152-.879-.152h-2.098v2.32h2.045q.61 0 .914-.14m9 3.081q-.064.57-.591 1.155-.82.93-2.297.931-1.22 0-2.151-.785t-.931-2.554q0-1.658.838-2.543.844-.885 2.185-.885.797 0 1.436.299.639.298 1.054.943.376.568.487 1.318.064.44.052 1.266h-4.371q.036.96.604 1.348.346.24.832.24.516 0 .838-.293.176-.158.31-.44zm-1.652-1.956q-.04-.663-.404-1.002a1.23 1.23 0 0 0-.891-.346q-.58 0-.902.363-.317.363-.399.984zm4.43 4.95q.27.23.908.23.903 0 1.207-.604.2-.387.199-1.301v-.41q-.24.41-.515.615-.498.38-1.295.38-1.23 0-1.969-.86-.732-.868-.732-2.344 0-1.424.709-2.39.708-.974 2.01-.974.48 0 .837.147.61.252.985.926v-.92h1.623v6.058q0 1.237-.416 1.864-.715 1.077-2.742 1.078-1.226 0-1.998-.48-.774-.482-.856-1.436h1.817q.07.293.228.422m-.281-3.298q.34.808 1.219.808.585 0 .99-.439.404-.446.404-1.412 0-.909-.387-1.383-.38-.474-1.025-.474-.879 0-1.213.826-.176.44-.176 1.084 0 .555.188.99m7.289-4.207v6.386h-1.693v-6.386zm0-2.303v1.541h-1.693v-1.54zm5.784 2.596q.75.48.861 1.652h-1.67q-.035-.322-.182-.51-.275-.34-.937-.34-.545 0-.78.17-.228.17-.228.399 0 .287.246.416.246.135 1.74.463.996.234 1.494.709.493.48.493 1.2 0 .95-.709 1.554-.704.597-2.18.597-1.506 0-2.227-.633-.714-.637-.714-1.623h1.693q.053.446.228.633.31.334 1.149.334.492 0 .779-.146.293-.146.293-.44a.47.47 0 0 0-.234-.427q-.235-.147-1.74-.504-1.084-.27-1.53-.674-.445-.399-.445-1.149 0-.885.691-1.517.698-.639 1.957-.639 1.196 0 1.952.475m4.963 4.904v1.248l-.791.03q-1.183.04-1.618-.41-.28-.288-.281-.886V44.36h-.89v-1.19h.89v-1.78h1.653v1.78h1.037v1.19h-1.037v3.375q0 .393.099.492.1.094.61.094h.158zm6.299-.685q-.065.567-.592 1.154-.82.93-2.297.931a3.24 3.24 0 0 1-2.15-.785q-.932-.785-.932-2.554 0-1.658.838-2.543.844-.885 2.185-.885.798 0 1.436.299.639.298 1.055.943.375.568.486 1.318.065.44.053 1.266h-4.371q.035.96.603 1.348.346.24.832.24.516 0 .838-.293.176-.158.311-.44zm-1.653-1.958q-.04-.661-.404-1.001a1.23 1.23 0 0 0-.891-.346q-.58 0-.902.363-.317.363-.398.984zm5.837-1.013q-1.009 0-1.354.656-.193.369-.193 1.137V49.5h-1.682v-6.387h1.594v1.113q.386-.639.674-.873.468-.393 1.218-.392a.4.4 0 0 1 .077.005l.146.006v1.711a5 5 0 0 0-.48-.03m4.564-.85q.663-.843 2.274-.843 1.048 0 1.863.416.815.415.815 1.57v2.93q0 .304.011.738.018.328.1.445a.6.6 0 0 0 .246.193v.246h-1.816a2 2 0 0 1-.106-.363 5 5 0 0 1-.047-.386q-.345.375-.797.638-.538.31-1.218.31-.867 0-1.436-.491-.562-.499-.562-1.407 0-1.177.908-1.705.498-.287 1.465-.41l.568-.07q.463-.06.662-.147.357-.152.358-.474 0-.393-.276-.54-.27-.151-.797-.152-.591 0-.838.293-.176.217-.234.586h-1.611q.053-.837.468-1.377m1.243 4.489a.87.87 0 0 0 .574.193q.538 0 .99-.316.457-.316.475-1.155v-.62a2 2 0 0 1-.323.163q-.158.06-.439.111l-.375.07q-.528.095-.756.23-.387.228-.387.708 0 .427.241.615m7.963-3.944q-.85 0-1.166.72-.164.382-.164.974v3.456h-1.664v-6.374h1.611v.931q.322-.492.609-.709.516-.387 1.307-.386.99 0 1.617.521.633.516.633 1.717v4.3h-1.711v-3.884q0-.504-.135-.774-.246-.492-.937-.492m9.902-3.474v8.624h-1.623v-.884q-.357.568-.814.826t-1.137.258q-1.119 0-1.887-.903-.76-.907-.761-2.326 0-1.635.75-2.572.755-.937 2.015-.937.58 0 1.032.257.45.253.732.703v-3.047zm-4.5 5.472q0 .884.352 1.412.345.533 1.055.533.708 0 1.078-.527.369-.526.369-1.365 0-1.172-.592-1.676a1.27 1.27 0 0 0-.844-.304q-.732 0-1.078.556-.34.55-.34 1.371m8.919-5.484h1.67v8.636h-1.67zm8.391 3.058q.808 1.014.808 2.397 0 1.406-.808 2.408-.809.996-2.455.996t-2.456-.996q-.808-1.001-.808-2.408 0-1.382.808-2.397.81-1.013 2.456-1.013t2.455 1.013m-2.461.399q-.734 0-1.131.521-.393.516-.393 1.477 0 .96.393 1.482.398.522 1.131.522.732 0 1.125-.522.392-.52.392-1.482 0-.96-.392-1.477-.393-.52-1.125-.521m4.471-.516q.662-.843 2.273-.843 1.049 0 1.863.416.815.415.815 1.57v2.93q0 .304.012.738.016.328.099.445a.6.6 0 0 0 .246.193v.246h-1.816a2 2 0 0 1-.106-.363 5 5 0 0 1-.047-.386q-.345.375-.796.638a2.4 2.4 0 0 1-1.219.31q-.867 0-1.436-.491-.562-.499-.562-1.407 0-1.177.908-1.705.498-.287 1.465-.41l.568-.07q.464-.06.662-.147.358-.152.358-.474 0-.393-.276-.54-.269-.151-.797-.152-.591 0-.837.293-.177.217-.235.586h-1.611q.052-.837.469-1.377m1.242 4.489a.87.87 0 0 0 .574.193q.54 0 .99-.316.457-.316.475-1.155v-.62a2 2 0 0 1-.322.163q-.159.06-.44.111l-.375.07q-.526.095-.756.23-.386.228-.386.708 0 .427.24.615m10.77-7.419V49.5h-1.623v-.885q-.358.568-.815.826t-1.137.258q-1.12 0-1.886-.903-.762-.907-.762-2.326 0-1.635.75-2.572.756-.937 2.016-.937.58 0 1.031.257.452.253.732.703v-3.047zm-4.5 5.473q0 .884.351 1.412.346.533 1.055.533.71 0 1.078-.527.369-.526.369-1.365 0-1.172-.592-1.676a1.27 1.27 0 0 0-.843-.304q-.733 0-1.079.556-.339.55-.339 1.371"/><path fill="#1A1C20" d="M690 98a3 3 0 0 1-3-3V83a3 3 0 0 1 6 0v12a3 3 0 0 1-3 3"/><path fill="#ECECEC" d="m700.098 98.51 6-10.393a3 3 0 1 0-5.196-3l-6 10.392a3.001 3.001 0 0 0 5.196 3"/><path fill="#D9D9DA" d="m704.491 105.098 10.392-6a3.001 3.001 0 0 0-3-5.196l-10.392 6a3 3 0 1 0 3 5.196"/><path fill="#C6C6C7" d="M705 113h12a3 3 0 1 0 0-6h-12a3 3 0 1 0 0 6"/><path fill="#B3B3B5" d="m701.491 120.098 10.392 6a3 3 0 1 0 3-5.196l-10.392-6a3 3 0 1 0-3 5.196"/><path fill="#A0A0A2" d="m694.902 124.491 6 10.392a3 3 0 1 0 5.196-3l-6-10.392a3 3 0 1 0-5.196 3"/><path fill="#8C8D8F" d="M687 125v12a3 3 0 1 0 6 0v-12a3 3 0 1 0-6 0"/><path fill="#797B7D" d="m679.902 121.491-6 10.392a3 3 0 1 0 5.196 3l6-10.392a3 3 0 1 0-5.196-3"/><path fill="#66686A" d="m675.509 114.902-10.392 6a3.001 3.001 0 0 0 3 5.196l10.392-6a3 3 0 1 0-3-5.196"/><path fill="#535558" d="M675 107h-12a3 3 0 1 0 0 6h12a3 3 0 1 0 0-6"/><path fill="#404245" d="m678.509 99.902-10.392-6a3 3 0 0 0-3 5.196l10.392 6a3 3 0 1 0 3-5.196"/><path fill="#2D2F33" d="m685.098 95.51-6-10.393a3 3 0 0 0-5.196 3l6 10.392a3 3 0 1 0 5.196-3"/><circle cx="689.31" cy="23.31" r="8.31" fill="#000"/><path fill="#fff" d="M689.182 23.133q-.28 0-.484.07a.96.96 0 0 0-.542.478l-1.375-.065.548-4.302h4.291v1.3h-3.185l-.279 1.702q.354-.231.553-.306a2.3 2.3 0 0 1 .811-.123q.967 0 1.686.65.72.65.72 1.89 0 1.08-.693 1.928-.693.85-2.073.85-1.112 0-1.826-.597t-.795-1.692h1.525q.092.499.349.773.258.27.752.269.57 0 .865-.397.301-.404.301-1.01 0-.596-.279-1.005-.28-.413-.87-.413"/><rect width="145" height="150" x="465" y="23.367" fill="#F6F6F6" rx="8"/><path fill="#000" d="M492.329 48.854q-.967.885-2.473.885-1.863 0-2.929-1.195-1.067-1.202-1.067-3.293 0-2.262 1.213-3.487 1.055-1.065 2.684-1.066 2.18 0 3.187 1.43.556.803.598 1.61h-1.805q-.175-.62-.451-.937-.492-.562-1.459-.562-.984 0-1.553.797-.568.79-.568 2.244 0 1.452.598 2.18.603.72 1.529.72.95 0 1.447-.62.276-.336.457-1.003h1.787q-.234 1.412-1.195 2.297m7.529-4.934q.81 1.014.809 2.397 0 1.406-.809 2.408-.808.996-2.455.996-1.646 0-2.455-.996-.808-1.001-.808-2.408 0-1.382.808-2.397.809-1.013 2.455-1.013 1.647 0 2.455 1.013m-2.46.399q-.734 0-1.131.521-.393.516-.393 1.477 0 .96.393 1.482.397.522 1.131.522.732 0 1.125-.522.392-.52.392-1.482 0-.96-.392-1.477-.393-.52-1.125-.521m7.236.03q-.85 0-1.166.72-.164.381-.164.972V49.5h-1.664v-6.376h1.611v.932q.322-.492.61-.709.515-.387 1.306-.386.99 0 1.617.521.633.516.633 1.717v4.3h-1.711v-3.884q0-.504-.134-.774-.246-.492-.938-.492m7.096 0q-.85 0-1.166.72-.164.381-.164.972V49.5h-1.664v-6.376h1.611v.932q.322-.492.61-.709.515-.387 1.306-.386.99 0 1.617.521.633.516.633 1.717v4.3h-1.711v-3.884q0-.504-.134-.774-.247-.492-.938-.492m9.557 3.275q-.064.567-.592 1.154-.82.93-2.297.931a3.24 3.24 0 0 1-2.15-.785q-.932-.785-.932-2.554 0-1.658.838-2.543.844-.885 2.186-.885.796 0 1.435.299.64.298 1.055.943.375.568.486 1.318.065.44.053 1.266h-4.371q.034.96.603 1.348.346.24.832.24.516 0 .838-.293.176-.158.311-.44zm-1.652-1.958q-.042-.661-.405-1.001a1.23 1.23 0 0 0-.89-.346q-.58 0-.903.363-.316.363-.398.984zm8.15-.263h-1.711a1.5 1.5 0 0 0-.24-.645q-.281-.386-.873-.386-.844 0-1.154.837-.165.446-.164 1.184 0 .704.164 1.13.298.798 1.125.798.585 0 .832-.317.245-.316.299-.82h1.705a2.8 2.8 0 0 1-.551 1.442q-.786 1.095-2.326 1.095-1.542 0-2.268-.914t-.726-2.373q0-1.647.802-2.56.803-.915 2.215-.915 1.201 0 1.963.54.767.539.908 1.904m3.838 2.906v1.248l-.791.03q-1.183.04-1.617-.41-.28-.288-.281-.886V44.36h-.891v-1.19h.891v-1.78h1.652v1.78h1.037v1.19h-1.037v3.375q0 .393.1.492.099.094.609.094h.158zm9.399-.685q-.064.567-.592 1.154-.82.93-2.296.931-1.22 0-2.151-.785t-.931-2.554q0-1.658.837-2.543.844-.885 2.186-.885.797 0 1.435.299.64.298 1.055.943.375.568.487 1.318.063.44.052 1.266h-4.371q.036.96.604 1.348.345.24.832.24.515 0 .838-.293.175-.158.31-.44zm-1.652-1.958q-.04-.661-.404-1.001a1.23 1.23 0 0 0-.891-.346q-.58 0-.902.363-.317.363-.399.984zm5.631-1.318q-.85 0-1.166.72-.164.382-.164.974v3.456h-1.664v-6.374h1.611v.931q.322-.492.61-.709.515-.387 1.306-.386.99 0 1.617.521.633.516.633 1.717v4.3h-1.711v-3.884q0-.504-.135-.774-.246-.492-.937-.492m9.903-3.474v8.624h-1.624v-.884q-.357.568-.814.826t-1.137.258q-1.12 0-1.886-.903-.762-.907-.762-2.326 0-1.635.75-2.572.756-.937 2.016-.937.58 0 1.031.257.452.253.732.703v-3.047zm-4.5 5.472q0 .884.351 1.412.346.533 1.055.533.708 0 1.078-.527.369-.526.369-1.365 0-1.172-.592-1.676a1.27 1.27 0 0 0-.843-.304q-.733 0-1.079.556-.339.55-.339 1.371m11.133-2.549q.773.827.773 2.426 0 1.688-.762 2.572-.756.885-1.951.885-.762 0-1.265-.38a2.5 2.5 0 0 1-.54-.616v3.328h-1.652v-8.9h1.6v.943q.269-.416.574-.656.556-.428 1.324-.428 1.119 0 1.899.826m-.95 2.508q0-.739-.339-1.306-.334-.57-1.09-.569-.909 0-1.248.861-.177.458-.176 1.16 0 1.114.592 1.565.35.264.832.264.697 0 1.06-.54.369-.538.369-1.435m8.022-2.385q.809 1.014.809 2.397 0 1.406-.809 2.408-.808.996-2.455.996t-2.455-.996q-.809-1.001-.809-2.408 0-1.382.809-2.397.808-1.013 2.455-1.013t2.455 1.013m-2.461.399q-.732 0-1.131.521-.392.516-.392 1.477 0 .96.392 1.482.399.522 1.131.522t1.125-.522.393-1.482-.393-1.477q-.393-.52-1.125-.521m5.948-1.207v6.386h-1.694v-6.386zm0-2.303v1.541h-1.694v-1.54zm4.389 3.54q-.85 0-1.166.72-.165.381-.165.972V49.5h-1.664v-6.376h1.612v.932q.323-.492.609-.709.515-.387 1.307-.386.99 0 1.617.521.633.516.633 1.717v4.3h-1.711v-3.884q0-.504-.135-.774-.246-.492-.937-.492m7.013 3.96v1.248l-.791.03q-1.183.04-1.617-.41-.28-.288-.281-.886V44.36h-.891v-1.19h.891v-1.78h1.652v1.78h1.037v1.19h-1.037v3.375q0 .393.1.492.099.094.609.094h.159zm5.233-4.904q.75.48.861 1.652h-1.669q-.035-.322-.182-.51-.275-.34-.938-.34-.545 0-.779.17-.228.17-.228.399 0 .287.246.416.246.135 1.74.463.996.234 1.494.709.492.48.492 1.2 0 .95-.709 1.554-.703.597-2.179.597-1.506 0-2.227-.633-.715-.637-.715-1.623h1.694q.052.446.228.633.31.334 1.148.334.493 0 .78-.146.293-.146.293-.44a.47.47 0 0 0-.235-.427q-.234-.147-1.74-.504-1.084-.27-1.529-.674-.445-.399-.445-1.149 0-.885.691-1.517.697-.639 1.957-.639 1.195 0 1.951.475"/><path fill="#E535AB" fill-rule="evenodd" d="m543.107 88.876 12.338 7.123a5.4 5.4 0 0 1 1.213-.96A5.36 5.36 0 0 1 563.967 97a5.358 5.358 0 0 1-3.386 7.876v14.252c.483.117.957.304 1.409.564a5.33 5.33 0 0 1 1.961 7.308c-1.471 2.559-4.749 3.432-7.308 1.961a5.3 5.3 0 0 1-1.323-1.073l-12.262 7.079a5.352 5.352 0 0 1-5.077 7.033 5.34 5.34 0 0 1-5.347-5.347c0-.526.075-1.034.216-1.513l-12.334-7.122c-.344.361-.744.68-1.197.943-2.574 1.471-5.838.598-7.308-1.961a5.36 5.36 0 0 1 1.961-7.308 5.3 5.3 0 0 1 1.409-.564v-14.252a5.4 5.4 0 0 1-1.425-.568c-2.558-1.47-3.432-4.75-1.961-7.308 1.471-2.559 4.75-3.432 7.309-1.961.458.266.861.589 1.208.954l12.34-7.125a5.4 5.4 0 0 1-.218-1.52A5.34 5.34 0 0 1 537.981 82a5.34 5.34 0 0 1 5.347 5.347c0 .532-.077 1.045-.221 1.529m-1.285 2.195 12.367 7.14a5.34 5.34 0 0 0 .508 4.136 5.32 5.32 0 0 0 3.34 2.516v14.27a5 5 0 0 0-.207.055l-16.152-27.975q.073-.07.144-.142m-7.535.145-16.152 27.975-.21-.057v-14.271a5.32 5.32 0 0 0 3.34-2.516c.752-1.308.891-2.8.506-4.144l12.363-7.138q.075.077.153.151m5.188 1.268 16.148 27.968c-.361.345-.68.746-.941 1.201-.26.452-.447.926-.564 1.409h-32.274a5.4 5.4 0 0 0-.564-1.409 5.4 5.4 0 0 0-.94-1.194l16.151-27.974a5.37 5.37 0 0 0 2.984-.001m2.46 40.566 12.287-7.094a5 5 0 0 1-.099-.35h-32.286a5 5 0 0 1-.055.207l12.347 7.128a5.33 5.33 0 0 1 3.852-1.636c1.568 0 2.977.673 3.954 1.745" clip-rule="evenodd"/><circle cx="537.31" cy="23.31" r="8.31" fill="#000"/><path fill="#fff" d="M540.001 24.127v1.197h-.88V27h-1.499v-1.676h-3.083v-1.337l2.863-4.727h1.719v4.866zm-4.329 0h1.95v-3.363z"/><rect width="145" height="150" x="313" y="23.367" fill="#F6F6F6" rx="8"/><path fill="#000" d="M355.382 40.862h1.793v8.636h-1.793zm6.692 4.008q-.211-.463-.826-.463-.715 0-.961.463-.135.263-.135.785v3.843h-1.693v-6.374h1.623v.931q.31-.498.586-.709.486-.375 1.26-.375.732 0 1.183.323.363.299.551.767.328-.562.814-.826a2.5 2.5 0 0 1 1.149-.264q.421 0 .832.164.41.165.744.575.27.334.363.82.059.323.059.943l-.012 4.026H365.9v-4.067q0-.363-.117-.598-.222-.444-.82-.445-.692 0-.955.574a1.8 1.8 0 0 0-.135.733v3.803h-1.682v-3.803q0-.569-.117-.826m12.199-1.073q.774.827.774 2.426 0 1.688-.762 2.572-.756.885-1.951.885-.762 0-1.266-.38a2.5 2.5 0 0 1-.539-.616v3.328h-1.652v-8.9h1.6v.943q.269-.416.574-.656.556-.428 1.324-.428 1.12 0 1.898.826m-.949 2.508q0-.739-.34-1.306-.334-.57-1.089-.569-.909 0-1.248.861-.176.458-.176 1.16 0 1.114.592 1.565.35.264.832.264.697 0 1.06-.54.369-.538.369-1.435m8.022-2.385q.809 1.014.809 2.397 0 1.406-.809 2.408-.808.996-2.455.996t-2.455-.996q-.809-1.001-.809-2.408 0-1.382.809-2.397.808-1.013 2.455-1.013t2.455 1.013m-2.461.399q-.732 0-1.131.521-.393.516-.392 1.477 0 .96.392 1.482.399.522 1.131.522t1.125-.522.393-1.482-.393-1.477q-.393-.52-1.125-.521m7.442.334q-1.008 0-1.354.656-.193.369-.193 1.137v3.053h-1.682v-6.387h1.594v1.113q.387-.639.674-.873.468-.393 1.218-.392a.4.4 0 0 1 .077.005l.146.006v1.711a5 5 0 0 0-.48-.03m4.148 3.656v1.248l-.791.03q-1.183.04-1.617-.41-.28-.288-.281-.886v-3.93h-.891v-1.19h.891v-1.78h1.652v1.78h1.037v1.19h-1.037v3.375q0 .393.1.492.099.094.609.094h.158zm5.913 1.19h-1.664v-5.15h-.932V43.17h.914v-.41q0-1.02.451-1.517.405-.47 1.647-.47.153 0 .31.013l.329.023v1.36a5 5 0 0 0-.229-.006 5 5 0 0 0-.269-.006q-.393 0-.481.217-.087.215-.076.68v.116h1.096v1.178h-1.096zm3.75-6.358v6.36h-1.664v-6.36zm-1.664-.808v-1.524h1.635v1.524zm3.065-1.471h1.669v8.636h-1.669zm8.531 6.761q-.064.57-.592 1.155-.82.93-2.297.931a3.24 3.24 0 0 1-2.15-.785q-.932-.785-.932-2.554 0-1.658.838-2.543.844-.885 2.186-.885.797 0 1.435.299.64.298 1.055.943.375.568.486 1.318.065.44.053 1.266h-4.371q.035.96.603 1.348.346.24.833.24.515 0 .837-.293.176-.158.311-.44zm-1.652-1.956q-.041-.663-.405-1.002a1.23 1.23 0 0 0-.89-.346q-.58 0-.903.363-.316.363-.398.984zm7.025-2.262q.75.48.862 1.652h-1.67q-.035-.322-.182-.51-.276-.34-.937-.34-.545 0-.78.17-.228.17-.228.399 0 .287.246.416.246.135 1.74.463.996.234 1.494.709.492.48.492 1.2 0 .95-.709 1.554-.702.597-2.179.597-1.506 0-2.227-.633-.715-.637-.715-1.623h1.694q.053.446.228.633.31.334 1.149.334.492 0 .779-.146.293-.146.293-.44a.47.47 0 0 0-.234-.427q-.235-.147-1.741-.504-1.083-.27-1.529-.674-.445-.399-.445-1.149 0-.885.691-1.517.697-.639 1.957-.639 1.195 0 1.951.475"/><g fill="#000" clip-path="url(#a)"><path d="M365.868 100.567h30.294a.888.888 0 0 0 0-1.777h-30.294a.887.887 0 0 0-.886.888c0 .491.396.889.886.889m30.294 4.686h-3.217a.888.888 0 0 0 0 1.777h3.217a.888.888 0 0 0 0-1.777m-30.294 1.777h23.488a.888.888 0 0 0 0-1.777h-23.488a.886.886 0 0 0-.886.888c0 .491.396.889.886.889m0 6.462h30.294a.888.888 0 0 0 0-1.777h-30.294a.887.887 0 0 0-.886.889c0 .491.396.888.886.888m23.193 4.686h-11.114a.888.888 0 0 0 0 1.777h11.114c.49 0 .886-.397.886-.888a.887.887 0 0 0-.886-.889m-17.238 0h-5.955a.887.887 0 0 0-.886.889c0 .491.396.888.886.888h5.955a.888.888 0 0 0 0-1.777"/><path d="M408.481 122.287V82.888a.89.89 0 0 0-.887-.888h-42.018a.89.89 0 0 0-.887.888v4.709h-4.803a.887.887 0 0 0-.886.888v46.572c0 .491.397.889.886.889h32.531c1.778 3.584 5.47 6.054 9.727 6.054 5.986 0 10.856-4.882 10.856-10.882 0-3.632-1.784-6.853-4.519-8.831m-42.019-38.51h40.246v37.468a10.7 10.7 0 0 0-3.677-.973V88.485a.89.89 0 0 0-.887-.888h-35.682zm-5.689 50.391V89.374h40.485v30.898c-5.573.453-9.97 5.144-9.97 10.846 0 1.059.153 2.082.435 3.05zm41.371 6.055c-5.008 0-9.083-4.085-9.083-9.105s4.075-9.106 9.083-9.106c5.009 0 9.084 4.085 9.084 9.106s-4.075 9.105-9.084 9.105"/><path d="m407.071 130.876-4.04 2.963v-9.309a.887.887 0 1 0-1.773 0v9.309l-4.041-2.963a.884.884 0 0 0-1.238.192.89.89 0 0 0 .192 1.242l5.45 3.997a.89.89 0 0 0 1.047 0l5.45-3.997a.89.89 0 0 0 .192-1.242.886.886 0 0 0-1.239-.192"/></g><circle cx="385.31" cy="23.31" r="8.31" fill="#000"/><path fill="#fff" d="M384.354 20.764q-.257.344-.247.919h-1.428q.021-.58.198-1.102.189-.456.591-.843.301-.273.715-.419.413-.145 1.015-.145 1.116 0 1.799.58.687.575.687 1.547 0 .688-.408 1.16a1.4 1.4 0 0 1-.537.403q.21 0 .602.36.585.543.585 1.482 0 .99-.687 1.74-.683.747-2.025.747-1.654 0-2.299-1.08-.339-.574-.376-1.503h1.504q0 .467.15.773.28.564 1.015.564.452 0 .785-.306.338-.312.338-.891 0-.769-.623-1.026-.354-.145-1.117-.145v-1.096q.746-.011 1.042-.145.51-.226.51-.913 0-.446-.263-.725-.258-.28-.731-.28-.542 0-.795.344"/><rect width="145" height="150" x="161" y="23.367" fill="#F6F6F6" rx="8"/><path fill="#000" d="M196.336 49.367h-1.682v-8.636h2.625l1.57 6.79 1.559-6.79h2.596v8.636h-1.682v-5.842q0-.252.006-.703.006-.457.006-.703l-1.635 7.248h-1.752l-1.623-7.248q0 .246.006.703.006.451.006.703zm8.209-5.695q.662-.844 2.273-.844 1.049 0 1.864.416.814.416.814 1.57v2.93q0 .305.012.738.017.33.099.446a.6.6 0 0 0 .246.193v.246h-1.816a2 2 0 0 1-.105-.363 4 4 0 0 1-.047-.387q-.346.375-.797.639a2.4 2.4 0 0 1-1.219.31q-.867 0-1.435-.492-.563-.497-.563-1.406 0-1.177.908-1.705.498-.287 1.465-.41l.568-.07q.464-.06.663-.147.357-.153.357-.475 0-.392-.275-.539-.27-.152-.797-.152-.592 0-.838.293-.176.217-.235.586h-1.611q.052-.838.469-1.377m1.242 4.488a.87.87 0 0 0 .574.194q.54 0 .99-.317.457-.316.475-1.154v-.621a2 2 0 0 1-.322.164 3 3 0 0 1-.44.111l-.375.07q-.527.095-.755.229-.387.229-.387.709 0 .427.24.615m10.307-4.494q.774.826.773 2.426 0 1.687-.761 2.572-.756.885-1.952.885-.76 0-1.265-.381a2.5 2.5 0 0 1-.539-.615v3.328h-1.653v-8.9h1.6v.943q.27-.416.574-.656.557-.429 1.324-.428 1.12 0 1.899.826m-.949 2.508q0-.738-.34-1.307-.334-.568-1.09-.568-.907 0-1.248.861-.176.458-.176 1.16 0 1.113.592 1.565.352.263.832.263.697 0 1.061-.539.369-.538.369-1.435m11.145-2.508q.773.826.773 2.426 0 1.687-.762 2.572-.755.885-1.951.885-.762 0-1.265-.381a2.4 2.4 0 0 1-.539-.615v3.328h-1.653v-8.9h1.6v.943q.27-.416.574-.656.557-.429 1.324-.428 1.119 0 1.899.826m-.95 2.508q0-.738-.339-1.307-.334-.568-1.09-.568-.909 0-1.248.861-.176.458-.176 1.16 0 1.113.592 1.565.35.263.832.263.697 0 1.06-.539.369-.538.369-1.435m2.936-2.502q.662-.844 2.274-.844 1.048 0 1.863.416.814.416.814 1.57v2.93q0 .305.012.738.018.33.1.446a.6.6 0 0 0 .246.193v.246h-1.817a2 2 0 0 1-.105-.363 4 4 0 0 1-.047-.387q-.345.375-.797.639-.538.31-1.219.31-.867 0-1.435-.492-.563-.497-.563-1.406 0-1.177.909-1.705.498-.287 1.464-.41l.569-.07q.462-.06.662-.147.357-.153.357-.475 0-.392-.275-.539-.27-.152-.797-.152-.591 0-.838.293-.175.217-.234.586h-1.612q.054-.838.469-1.377m1.242 4.488a.88.88 0 0 0 .575.194q.539 0 .99-.317.457-.316.474-1.154v-.621a2 2 0 0 1-.322.164 3 3 0 0 1-.439.111l-.375.07q-.528.095-.756.229-.387.229-.387.709 0 .427.24.615m10.483-2.888h-1.711a1.5 1.5 0 0 0-.24-.645q-.282-.387-.873-.387-.844 0-1.154.838-.165.445-.164 1.184 0 .702.164 1.13.299.797 1.125.797.585 0 .832-.316.246-.316.298-.82h1.706q-.06.762-.551 1.441-.786 1.096-2.326 1.096-1.542 0-2.268-.914t-.727-2.373q0-1.647.803-2.56.803-.915 2.215-.915 1.201 0 1.963.54.768.538.908 1.904m6.774 4.095h-2.016l-1.529-2.73-.692.72v2.01h-1.64V40.76h1.64v4.652l2.081-2.402h2.068l-2.233 2.443zm.82-5.695q.663-.844 2.274-.844 1.049 0 1.863.416t.814 1.57v2.93q0 .305.012.738.018.33.1.446a.6.6 0 0 0 .246.193v.246h-1.816a2 2 0 0 1-.106-.363 5 5 0 0 1-.047-.387q-.345.375-.797.639-.539.31-1.218.31-.868 0-1.436-.492-.563-.497-.563-1.406 0-1.177.909-1.705.498-.287 1.465-.41l.568-.07q.462-.06.662-.147.357-.153.357-.475 0-.392-.275-.539-.27-.152-.797-.152-.591 0-.838.293-.175.217-.234.586h-1.611q.053-.838.468-1.377m1.243 4.488a.87.87 0 0 0 .574.194q.538 0 .99-.317.457-.316.475-1.154v-.621a2 2 0 0 1-.323.164 3 3 0 0 1-.439.111l-.375.07q-.528.095-.756.229-.387.229-.387.709 0 .427.241.615m6.761 2.326q.27.23.909.229.902 0 1.207-.604.199-.387.199-1.3v-.41q-.24.41-.516.615-.497.38-1.295.38-1.23 0-1.968-.86-.733-.868-.733-2.345 0-1.424.709-2.39.71-.973 2.01-.973.48 0 .838.147.609.252.984.925v-.92h1.623v6.06q0 1.235-.416 1.862-.714 1.079-2.742 1.078-1.224 0-1.998-.48t-.855-1.435h1.816q.07.292.228.421m-.281-3.298q.34.808 1.219.808.587 0 .99-.44.404-.445.404-1.411 0-.909-.386-1.383-.381-.475-1.026-.475-.879 0-1.213.826-.175.44-.175 1.084 0 .556.187.99m11.039.304q-.064.57-.591 1.155-.82.93-2.297.931a3.24 3.24 0 0 1-2.151-.785q-.931-.785-.931-2.555 0-1.658.838-2.543.843-.885 2.185-.885.797 0 1.436.3.639.298 1.054.943.375.568.487 1.318.064.44.053 1.266h-4.372q.036.96.604 1.347.346.24.832.24.516 0 .838-.292a1.4 1.4 0 0 0 .31-.44zm-1.652-1.957q-.04-.661-.404-1.002a1.23 1.23 0 0 0-.891-.346q-.58 0-.902.364-.317.363-.399.984zm7.026-2.262q.75.48.861 1.653h-1.67a1 1 0 0 0-.181-.51q-.276-.34-.938-.34-.545 0-.779.17-.23.17-.229.398 0 .288.246.416.246.136 1.741.463.996.235 1.494.71.492.48.492 1.2 0 .95-.709 1.553-.703.598-2.18.598-1.506 0-2.226-.633-.715-.639-.715-1.623h1.693q.053.446.229.633.31.334 1.148.334.492 0 .779-.147.294-.146.293-.439a.47.47 0 0 0-.234-.428q-.234-.145-1.74-.504-1.085-.27-1.53-.674-.445-.398-.445-1.148 0-.885.692-1.517.697-.64 1.957-.64 1.194 0 1.951.475"/><g clip-path="url(#b)"><path fill="#8BC34A" d="M223.693 132.201 204 140v-37.958l19.693-7.57zm36.557 0L240.544 140v-37.958l19.706-7.57z"/><path fill="#77A646" d="M223.693 132.201 240.544 140v-37.958l-16.851-7.57z"/><path fill="#E1E1E1" d="m223.624 96.8 15.956 7.167.964.416.844-.361 16.616-6.385v33.144l-17.384 6.884-15.937-7.377-.914-.421-.939.373-16.584 6.565V103.48zm36.626-2.328-19.706 7.57-16.851-7.57-19.693 7.57V140l19.693-7.799L240.544 140l19.706-7.799z"/><path fill="#FFEB3B" d="M246.089 118.825v-16.609l-2.778 1.072v16.608l-2.773 1.065-16.832-7.558-17.46 6.703v3.731l17.447-6.703 16.851 7.558 17.46-6.638v-3.821z"/><path fill="#F2C732" d="M240.544 120.961h-.006l-16.832-7.558-.013.006v3.725l4.181 1.871v12.757l2.786 1.288v-12.799l9.884 4.441z"/><path fill="#03A9F4" d="m240.544 137.665-9.884-4.615v-12.799l9.884 4.441z"/><path fill="#35BAF6" d="m240.544 137.665 17.46-6.884v-12.727l-17.46 6.638z"/><path fill="#3F5356" d="M244.338 112.278h-.114l.026-2.407h.082c1.174 0 2.462-.199 3.851-.59l.723 2.305c-1.643.463-3.134.686-4.561.686zm-2.886-.343c-1.809-.446-3.249-1.288-4.302-1.968l1.428-1.986c.939.608 2.087 1.276 3.514 1.625zm-19.884-2.901c-.964 0-2.049-.114-3.306-.355l.495-2.359c1.631.307 2.862.385 3.902.235l.381 2.377c-.47.066-.952.102-1.472.102m13.539-.445c-1.174-.77-2.195-1.312-3.388-1.462l.33-2.389c1.802.222 3.229 1.029 4.511 1.865l-1.447 1.98zm-9.377-.463-1.028-2.203.171-.072c1.092-.463 2.329-.987 4.423-1.137l.196 2.401c-1.656.12-2.588.517-3.578.938l-.178.073zm-11.579.625c1.402 0 2.538-1.077 2.538-2.407 0-1.329-1.136-2.407-2.538-2.407s-2.538 1.078-2.538 2.407c0 1.33 1.137 2.407 2.538 2.407m38.797 2.407c1.401 0 2.538-1.077 2.538-2.407 0-1.329-1.137-2.407-2.538-2.407-1.402 0-2.538 1.078-2.538 2.407 0 1.33 1.136 2.407 2.538 2.407"/><path fill="#F44336" d="M252.98 108.276s7.156-6.872 9.929-13.299A10 10 0 0 0 264 90.464q.001-.061-.006-.132c0-.47.019-.5-.013-.217-.197-5.614-5.038-10.109-10.995-10.109-5.958 0-11.02 4.682-11.02 10.458v.055c0 .252.019.517.044.776a10 10 0 0 0 1.015 3.616c2.76 6.433 9.948 13.359 9.948 13.359z"/><path fill="#D03D32" d="M256.228 90.458c0 1.697-1.453 3.075-3.242 3.075s-3.242-1.378-3.242-3.075 1.453-3.075 3.242-3.075 3.242 1.378 3.242 3.075"/><path fill="#2196F3" d="M221.244 95.465a5 5 0 0 0 .026-.458v-.078c0-.3.012-.325-.007-.144-.126-3.587-3.216-6.457-7.023-6.457s-7.036 2.99-7.036 6.68v.036c0 .162.013.33.025.499.07.824.299 1.6.647 2.31 1.764 4.111 6.351 8.527 6.351 8.527s4.575-4.386 6.345-8.496c.374-.74.609-1.547.672-2.407v-.018z"/><path fill="#207FDC" d="M216.302 95.008c0 1.083-.926 1.961-2.068 1.961s-2.069-.878-2.069-1.962c0-1.083.927-1.961 2.069-1.961s2.068.878 2.068 1.961"/></g><circle cx="233.31" cy="23.31" r="8.31" fill="#000"/><path fill="#fff" d="M234.073 20.796q-.273-.327-.784-.327-.698 0-.951.52-.144.302-.172.957h-1.487q.038-.994.359-1.606.613-1.166 2.176-1.166 1.235 0 1.966.688.73.682.73 1.81 0 .864-.516 1.536-.338.445-1.111.994l-.613.435q-.575.408-.789.59-.21.183-.355.425h3.4V27h-5.333a3.65 3.65 0 0 1 .36-1.53q.327-.78 1.546-1.65 1.058-.757 1.37-1.085.478-.51.478-1.117 0-.494-.274-.822"/><rect width="145" height="150" x="9" y="23.367" fill="#F6F6F6" rx="8"/><path fill="#000" d="M38.173 40.73h1.793v8.637h-1.793zm6.112 3.487q-.85 0-1.166.72-.165.382-.164.973v3.457H41.29v-6.375h1.61v.932q.324-.492.61-.71.516-.386 1.307-.386.99 0 1.617.522.633.515.633 1.716v4.301h-1.711v-3.885q0-.503-.135-.773-.246-.492-.937-.492m8.49-.944q.75.48.861 1.653h-1.67a1 1 0 0 0-.181-.51q-.275-.34-.938-.34-.545 0-.779.17-.228.17-.228.398 0 .288.246.416.246.136 1.74.463.996.235 1.494.71.492.48.492 1.2 0 .95-.709 1.553-.702.598-2.18.598-1.505 0-2.226-.633-.715-.639-.715-1.623h1.694q.052.446.228.633.31.334 1.148.334.492 0 .78-.147.293-.146.293-.439a.47.47 0 0 0-.235-.428q-.234-.145-1.74-.504-1.084-.27-1.53-.674-.444-.398-.444-1.148 0-.885.69-1.517.699-.64 1.958-.64 1.195 0 1.951.475m4.963 4.905v1.248l-.79.03q-1.185.04-1.618-.411-.28-.287-.281-.885v-3.93h-.89v-1.19h.89v-1.781H56.7v1.781h1.037v1.19H56.7v3.374q0 .393.1.493.1.093.61.094h.157zm1.073-4.506q.662-.844 2.273-.844 1.05 0 1.863.416.815.416.815 1.57v2.93q0 .305.012.738.016.33.1.446a.6.6 0 0 0 .245.193v.246h-1.816a2 2 0 0 1-.106-.363 4 4 0 0 1-.047-.387 3.4 3.4 0 0 1-.796.639q-.54.31-1.22.31-.866 0-1.435-.492-.562-.497-.562-1.406 0-1.177.908-1.705.498-.287 1.465-.41l.568-.07q.464-.06.662-.147.358-.153.358-.475 0-.392-.276-.539-.27-.152-.797-.152-.591 0-.837.293-.176.217-.235.586h-1.611q.052-.838.469-1.377m1.242 4.488a.87.87 0 0 0 .574.194q.54 0 .99-.317.457-.316.475-1.154v-.621a2 2 0 0 1-.322.164 3 3 0 0 1-.44.111l-.375.07q-.526.095-.756.229-.386.229-.386.709 0 .427.24.615m4.992-7.43h1.67v8.637h-1.67zm3.1 0h1.67v8.637h-1.67zm11.514 2.936q.774.826.774 2.426 0 1.687-.762 2.572-.756.885-1.951.885-.762 0-1.266-.381a2.5 2.5 0 0 1-.539-.615v3.328h-1.652v-8.9h1.6v.943q.269-.416.574-.656.555-.429 1.324-.428 1.12 0 1.898.826m-.949 2.508q0-.738-.34-1.307-.333-.568-1.09-.568-.908 0-1.248.861-.175.458-.175 1.16 0 1.113.591 1.565.352.263.832.263.698 0 1.06-.539.37-.538.37-1.435m2.936-2.502q.663-.844 2.273-.844 1.049 0 1.864.416.814.416.814 1.57v2.93q0 .305.012.738.018.33.1.446a.6.6 0 0 0 .245.193v.246h-1.816a2 2 0 0 1-.105-.363 4 4 0 0 1-.047-.387q-.345.375-.797.639-.54.31-1.219.31-.867 0-1.436-.492-.562-.497-.562-1.406 0-1.177.908-1.705.498-.287 1.465-.41l.568-.07q.464-.06.663-.147.357-.153.357-.475 0-.392-.275-.539-.27-.152-.797-.152-.592 0-.838.293-.175.217-.235.586h-1.61q.051-.838.468-1.377m1.242 4.488a.87.87 0 0 0 .574.194q.54 0 .99-.317.457-.316.475-1.154v-.621a2 2 0 0 1-.322.164 3 3 0 0 1-.44.111l-.375.07q-.526.095-.756.229-.386.229-.386.709 0 .427.24.615m10.483-2.888h-1.71a1.5 1.5 0 0 0-.24-.645q-.282-.387-.874-.387-.843 0-1.154.838-.165.445-.164 1.184 0 .702.164 1.13.3.797 1.125.797.586 0 .832-.316t.299-.82h1.705a2.8 2.8 0 0 1-.55 1.441q-.786 1.096-2.327 1.096t-2.267-.914-.727-2.373q0-1.647.803-2.56.802-.915 2.215-.915 1.2 0 1.963.54.767.538.908 1.904m6.773 4.095h-2.015l-1.53-2.73-.691.72v2.01h-1.64V40.76h1.64v4.652l2.08-2.402h2.068l-2.232 2.443zm.821-5.695q.662-.844 2.273-.844 1.05 0 1.864.416t.814 1.57v2.93q0 .305.012.738.018.33.099.446a.6.6 0 0 0 .247.193v.246h-1.817a2 2 0 0 1-.105-.363 4 4 0 0 1-.047-.387q-.346.375-.797.639-.539.31-1.219.31-.867 0-1.435-.492-.563-.497-.563-1.406 0-1.177.908-1.705.498-.287 1.465-.41l.568-.07q.464-.06.663-.147.357-.153.357-.475 0-.392-.275-.539-.27-.152-.797-.152-.592 0-.838.293-.175.217-.235.586h-1.611q.053-.838.469-1.377m1.242 4.488a.87.87 0 0 0 .574.194q.54 0 .991-.317.456-.316.474-1.154v-.621a2 2 0 0 1-.322.164 3 3 0 0 1-.44.111l-.375.07q-.527.095-.755.229-.387.229-.387.709 0 .427.24.615m6.762 2.326q.27.23.908.229.903 0 1.207-.604.2-.387.2-1.3v-.41q-.241.41-.516.615-.498.38-1.295.38-1.23 0-1.969-.86-.732-.868-.732-2.345 0-1.424.709-2.39.708-.973 2.01-.973.48 0 .837.147.61.252.985.925v-.92h1.623v6.06q0 1.235-.416 1.862-.716 1.079-2.742 1.078-1.225 0-1.998-.48-.774-.48-.856-1.435h1.817q.07.292.228.421m-.281-3.298q.34.808 1.219.808.585 0 .99-.44.404-.445.404-1.411 0-.909-.387-1.383-.38-.475-1.025-.475-.879 0-1.213.826-.176.44-.176 1.084 0 .556.188.99m11.039.304q-.064.57-.592 1.155-.82.93-2.297.931a3.24 3.24 0 0 1-2.15-.785q-.932-.785-.932-2.555 0-1.658.838-2.543.844-.885 2.186-.885.797 0 1.435.3.64.298 1.055.943.375.568.486 1.318.065.44.053 1.266h-4.371q.035.96.604 1.347.345.24.832.24.515 0 .837-.292a1.4 1.4 0 0 0 .311-.44zm-1.652-1.957q-.041-.661-.405-1.002a1.23 1.23 0 0 0-.89-.346q-.58 0-.902.364-.316.363-.399.984zm7.025-2.262q.75.48.862 1.653h-1.67q-.036-.322-.182-.51-.275-.34-.937-.34-.545 0-.78.17-.228.17-.228.398 0 .288.246.416.246.136 1.74.463.996.235 1.494.71.492.48.492 1.2 0 .95-.708 1.553-.704.598-2.18.598-1.506 0-2.227-.633-.715-.639-.715-1.623h1.694q.053.446.228.633.31.334 1.149.334.492 0 .779-.147.293-.146.293-.439a.47.47 0 0 0-.234-.428q-.235-.145-1.741-.504-1.083-.27-1.529-.674-.445-.398-.445-1.148 0-.885.691-1.517.697-.64 1.957-.64 1.195 0 1.951.475"/><g clip-path="url(#c)"><path fill="#C12127" d="M51 140V80h60v60z"/><path fill="#fff" d="M62.25 91.25h37.5v37.5h-7.5v-30H81v30H62.25z"/></g><circle cx="81.31" cy="23.31" r="8.31" fill="#000"/><path fill="#fff" d="M82.412 27h-1.569v-5.371h-1.831v-1.042q.724-.033 1.015-.097.462-.102.752-.408.199-.21.3-.559.06-.21.06-.311h1.273z"/><rect width="145" height="150" x="769" y="23.367" fill="#F6F6F6" rx="8"/><path fill="#000" d="M826.269 46.112h-1.864v3.386h-1.763v-8.636h4.236q.908.017 1.395.222.492.205.832.604.281.328.445.727t.164.908q0 .615-.311 1.213-.31.591-1.025.837.598.241.844.686.252.44.252 1.348v.58q0 .591.047.803a.72.72 0 0 0 .328.492v.217h-1.987a7 7 0 0 1-.117-.463 4.3 4.3 0 0 1-.076-.745l-.012-.802q-.011-.826-.304-1.102-.288-.275-1.084-.275m1.095-1.57q.54-.247.539-.973 0-.786-.521-1.055-.293-.152-.879-.152h-2.098v2.32h2.045q.61 0 .914-.14m9.001 3.081q-.065.57-.592 1.155-.82.93-2.297.931a3.24 3.24 0 0 1-2.15-.785q-.933-.785-.932-2.554 0-1.658.838-2.543.844-.885 2.185-.885.798 0 1.436.299.639.298 1.055.943.375.568.486 1.318.064.44.053 1.266h-4.371q.034.96.603 1.348.346.24.832.24.516 0 .838-.293.176-.158.311-.44zm-1.653-1.956q-.04-.663-.404-1.002a1.23 1.23 0 0 0-.891-.346q-.58 0-.902.363-.317.363-.398.984zm5.631-1.319q-.85 0-1.166.72-.164.382-.164.974v3.456h-1.664v-6.374h1.612v.931q.322-.492.609-.709.515-.387 1.307-.386.99 0 1.617.521.633.516.633 1.717v4.3h-1.711v-3.884q0-.504-.135-.774-.246-.492-.938-.492m9.903-3.474v8.624h-1.623v-.884q-.357.568-.815.826-.456.258-1.136.258-1.119 0-1.887-.903-.762-.907-.762-2.326 0-1.635.75-2.572.756-.937 2.016-.937.58 0 1.031.257.451.253.733.703v-3.047zm-4.5 5.472q0 .884.352 1.412.346.533 1.054.533.71 0 1.078-.527.369-.526.369-1.365 0-1.172-.591-1.676a1.28 1.28 0 0 0-.844-.304q-.732 0-1.078.556-.34.55-.34 1.371m11.25 1.278q-.064.567-.592 1.154-.82.93-2.296.931-1.22 0-2.151-.785-.932-.785-.932-2.554 0-1.658.838-2.543.844-.885 2.186-.885.797 0 1.435.299.64.298 1.055.943.375.568.486 1.318.065.44.053 1.266h-4.371q.036.96.604 1.348.345.24.832.24.515 0 .838-.293.175-.158.31-.44zm-1.652-1.958q-.04-.661-.404-1.001a1.23 1.23 0 0 0-.891-.346q-.58 0-.902.363-.317.363-.399.984zm5.836-1.013q-1.008 0-1.353.656-.194.369-.194 1.137v3.053h-1.681v-6.387h1.593v1.113q.387-.639.674-.873.47-.393 1.219-.392.046 0 .076.005l.146.006v1.711a5 5 0 0 0-.48-.03"/><rect width="62" height="62" x="811" y="80.985" fill="#fff" rx="2"/><rect width="62" height="62" x="811" y="80.985" stroke="#000" stroke-linejoin="round" stroke-width="2" rx="2"/><path fill="#000" d="M816.987 85.985c-.579.11-.996.621-.987 1.215v12.146c0 .669.546 1.215 1.214 1.215h48.572c.669 0 1.214-.546 1.214-1.215V87.2c0-.67-.545-1.215-1.214-1.215zm1.442 2.43h46.143v9.716h-46.143zm-1.442 14.575a1.215 1.215 0 0 0-.987 1.215v31.58c0 .669.546 1.215 1.214 1.215h29.143c.669 0 1.215-.546 1.215-1.215v-31.58c0-.669-.546-1.215-1.215-1.215zm34 0a1.215 1.215 0 0 0-.987 1.215v7.287c0 .669.546 1.215 1.215 1.215h14.571c.669 0 1.214-.546 1.214-1.215v-7.287c0-.669-.545-1.215-1.214-1.215zm-32.558 2.429h26.714v29.152h-26.714zm34 0h12.143v4.859h-12.143zm-1.442 9.717c-.579.11-.996.622-.987 1.215v7.288c0 .669.546 1.215 1.215 1.215h14.571c.669 0 1.214-.546 1.214-1.215v-7.288c0-.669-.545-1.215-1.214-1.215zm1.442 2.43h12.143v4.858h-12.143zm-1.442 9.717a1.214 1.214 0 0 0-.987 1.214v7.288c0 .669.546 1.215 1.215 1.215h14.571c.669 0 1.214-.546 1.214-1.215v-7.288c0-.669-.545-1.214-1.214-1.214zm1.442 2.429h12.143v4.859h-12.143z"/><circle cx="841.31" cy="23.31" r="8.31" fill="#000"/><path fill="#fff" d="M841.611 21.946q1.037 0 1.697.703.667.705.667 1.8 0 1.09-.65 1.923-.65.832-2.02.832-1.471 0-2.17-1.23-.542-.96-.542-2.481 0-.892.075-1.45.134-.994.521-1.655.333-.564.87-.908.543-.343 1.294-.343 1.085 0 1.73.558.644.554.725 1.477h-1.525a.8.8 0 0 0-.145-.413q-.247-.365-.747-.365-.747 0-1.063.837-.172.462-.237 1.365.285-.338.661-.494t.859-.156m-1.031 1.46q-.451.35-.451 1.129 0 .628.338 1.026.338.397.86.397.51 0 .8-.381.295-.387.295-1 0-.681-.333-1.041a1.06 1.06 0 0 0-.816-.366q-.393 0-.693.237"/><defs><clipPath id="a"><path fill="#fff" d="M359 82h54v60h-54z"/></clipPath><clipPath id="b"><path fill="#fff" d="M204 80h60v60h-60z"/></clipPath><clipPath id="c"><path fill="#fff" d="M51 80h60v60H51z"/></clipPath></defs></svg>