<svg xmlns="http://www.w3.org/2000/svg" width="1127" height="578" fill="none" viewBox="0 0 1127 578"><path fill="#fff" d="M0 0h1127v578H0z"/><rect width="210" height="521" x="888.5" y="23.5" fill="#fff" stroke="#aaa" rx="9.5"/><rect width="655" height="519.682" x="27.5" y="25.821" fill="#fff" stroke="#aaa" rx="10.5"/><path fill="#545454" d="M28 36c0-5.523 4.477-10 10-10h81.044v20c0 5.523-4.477 10-10 10H28z"/><path fill="#f9f9f9" d="M47.647 45.672q.789 0 1.297-.164.906-.305 1.484-1.172.462-.696.664-1.781.117-.65.117-1.203 0-2.133-.851-3.313-.844-1.18-2.727-1.18h-2.758v8.813zM43.31 35.523h4.648q2.367 0 3.672 1.68 1.164 1.515 1.164 3.883 0 1.828-.687 3.305Q50.898 47 47.944 47H43.31zm16.828 5.258q1.094 0 1.727-.437.64-.438.64-1.578 0-1.227-.89-1.672-.476-.235-1.274-.235h-3.797v3.922zm-5.148-5.258h5.312q1.313 0 2.164.383 1.617.735 1.617 2.711 0 1.032-.43 1.688-.42.656-1.187 1.054.672.274 1.008.72.345.444.383 1.444l.055 1.54q.023.655.109.976.14.547.5.703V47h-1.906a1.4 1.4 0 0 1-.125-.383q-.048-.234-.078-.906l-.094-1.914q-.055-1.125-.836-1.508-.445-.21-1.399-.21h-3.539V47H54.99zm16.328-.312q3.039 0 4.5 1.953 1.14 1.524 1.14 3.898 0 2.571-1.304 4.274-1.532 2-4.368 2-2.648 0-4.163-1.75-1.352-1.688-1.352-4.266 0-2.328 1.156-3.984 1.485-2.125 4.39-2.125m.156 10.734q2.055 0 2.969-1.468.922-1.477.922-3.391 0-2.023-1.063-3.258-1.054-1.234-2.89-1.234-1.782 0-2.907 1.226-1.125 1.219-1.125 3.602 0 1.906.961 3.219.969 1.304 3.133 1.304m7.492-10.422h5.164q1.531 0 2.469.868.938.86.938 2.422-.001 1.343-.836 2.343-.837.992-2.57.992h-3.61V47h-1.555zm7 3.297q0-1.265-.937-1.718-.516-.243-1.414-.243H80.52v3.977h3.094q1.047 0 1.695-.445.657-.445.656-1.57m3.875-3.297h1.57V47h-1.57zm4.102 0h1.836l5.797 9.297v-9.297h1.476V47h-1.742l-5.883-9.29V47h-1.484z"/><rect width="605" height="428" x="52" y="82" fill="#e4f1ff" rx="10"/><path fill="#0085ff" d="M52 92c0-5.523 4.477-10 10-10h117.49v31.038H52z"/><path fill="#f9f9f9" d="M74.8 91.73q2.179 0 3.383 1.149 1.203 1.148 1.336 2.609h-1.516q-.258-1.11-1.031-1.758-.766-.648-2.156-.648-1.696 0-2.743 1.195-1.038 1.188-1.039 3.648 0 2.016.938 3.274.945 1.25 2.812 1.25 1.719 0 2.617-1.32.477-.696.711-1.829h1.516q-.203 1.813-1.344 3.04-1.367 1.476-3.687 1.476-2 0-3.36-1.211-1.788-1.602-1.789-4.945 0-2.539 1.344-4.164 1.454-1.766 4.008-1.766m11.68 0q3.039 0 4.5 1.953 1.14 1.524 1.14 3.899 0 2.57-1.304 4.273-1.532 2-4.368 2-2.647 0-4.164-1.75-1.35-1.687-1.351-4.266 0-2.328 1.156-3.984 1.485-2.124 4.39-2.125m.156 10.735q2.055 0 2.969-1.469.921-1.477.921-3.39 0-2.025-1.062-3.259-1.055-1.234-2.89-1.234-1.782 0-2.907 1.227-1.125 1.219-1.125 3.601 0 1.906.961 3.219.969 1.305 3.133 1.305m7.344-10.422h1.836l5.796 9.297v-9.297h1.477v11.476h-1.742l-5.883-9.289v9.289H93.98zm19.914 0v1.367h-3.868v10.109h-1.578v-10.11h-3.867v-1.366zm6.132 6.773-1.742-5.07-1.851 5.07zm-2.554-6.773h1.758l4.164 11.476h-1.703l-1.165-3.437h-4.539l-1.242 3.437h-1.594zm7.687 0h1.571v11.476h-1.571zm4.102 0h1.836l5.797 9.297v-9.297h1.476v11.476h-1.742l-5.883-9.289v9.289h-1.484zm11.711 0h8.367v1.406h-6.852v3.484h6.336v1.328h-6.336v3.891h6.969v1.367h-8.484zM156.83 97.3q1.094 0 1.727-.437.64-.438.64-1.578 0-1.227-.89-1.672-.477-.234-1.274-.234h-3.797V97.3zm-5.148-5.257h5.312q1.313 0 2.164.382 1.617.735 1.617 2.711 0 1.032-.429 1.688-.422.656-1.188 1.055.672.273 1.008.718.344.445.383 1.446l.055 1.539q.023.656.109.976.14.547.5.703v.258h-1.906a1.4 1.4 0 0 1-.125-.383q-.048-.234-.078-.906l-.094-1.914q-.055-1.125-.836-1.508-.445-.21-1.399-.21h-3.539v4.921h-1.554z"/><path fill="#fff" stroke="#0085ff" stroke-dasharray="4 4" stroke-linejoin="round" stroke-width="2" d="M127 214.938v-3.959h1V210h.983v-1h3.967v1h3.968v-1h3.967v1h3.967v-1h3.967v1h3.967v-1h3.968v1h3.967v-1h3.967v1h3.967v-1h3.968v1h3.967v-1h3.967v1h3.967v-1h3.967v1h3.968v-1h3.967v1h3.967v-1h3.967v1h3.968v-1h3.967v1h3.967v-1h3.967v1h3.967v-1h3.968v1h3.967v-1h3.967v1h3.967v-1h3.968v1H248v-1h3.967v1h3.967v-1h3.967v1h3.968v-1h3.967v1h3.967v-1h3.967v1h3.968v-1h3.967v1h3.967v-1h3.967v1h3.967v-1h3.968v1h3.967v-1h3.967v1h3.967v-1h3.968v1h3.967v-1h3.967v1h3.967v-1h3.967v1h3.968v-1h3.967v1h3.967v-1h3.967v1h3.968v-1h3.967v1h3.967v-1h3.967v1h3.967v-1h3.968v1h3.967v-1h3.967v1h3.967v-1h3.968v1h3.967v-1h3.967v1h3.967v-1h3.967v1h3.968v-1h3.967v1h3.967v-1h3.967v1h3.967v-1h3.968v1h3.967v-1h3.967v1h3.967v-1h3.967v1h3.968v-1h3.967v1h3.967v-1h3.967v1h3.967v-1h3.968v1h3.967v-1h3.967v1h3.967v-1h3.968v1h3.967v-1H490v1h3.967v-1h3.967v1h3.968v-1h3.967v1h3.967v-1h3.967v1h3.967v-1h3.968v1h3.967v-1h3.967v1h3.967v-1h3.968v1h3.967v-1h3.967v1h3.967v-1h3.967v1h3.968v-1h3.967v1h3.967v-1h3.967v1h3.967v-1h3.968v1h3.967v-1h3.967v1h3.967v-1h3.968v1h3.967v-1h3.967v1h3.967v-1h3.967v1H611q.905.002 1.758.171l.194-.981a10 10 0 0 1 3.604 1.494l-.556.831a9.1 9.1 0 0 1 2.485 2.485l.831-.556a10 10 0 0 1 1.494 3.604l-.981.194q.17.854.171 1.758v1.957h1v3.913h-1v3.913h1v3.913h-1v3.913h1v3.913h-1v3.913h1v3.913h-1v3.913h1v3.913h-1v3.913h1V264h-1v3.913h1v3.913h-1v3.913h1v3.913h-1v3.913h1v3.913h-1v3.913h1v3.913h-1v3.913h1v3.913h-1v3.914h1v3.913h-1v3.913h1v3.913h-1v3.913h1v3.913h-1v3.913h1v3.913h-1v3.913h1v3.913h-1v3.913h1v3.913h-1V354h1v3.913h-1v3.913h1v3.913h-1v3.913h1v3.913h-1v3.913h1v3.913h-1v3.913h1v3.913h-1v3.913h1v3.913h-1V399q-.001.904-.171 1.758l.981.194a10 10 0 0 1-1.494 3.604l-.831-.556a9.1 9.1 0 0 1-2.485 2.485l.556.831a10 10 0 0 1-3.604 1.494l-.194-.981A9 9 0 0 1 611 408h-2.009v1h-4.017v-1h-4.017v1h-4.017v-1h-4.017v1h-4.017v-1h-4.017v1h-4.017v-1h-4.016v1h-4.017v-1h-4.017v1h-4.017v-1h-4.017v1h-4.017v-1h-4.017v1h-4.017v-1h-4.017v1h-4.017v-1h-4.017v1h-4.017v-1h-4.017v1h-4.017v-1h-4.017v1h-4.017v-1h-4.016v1h-4.017v-1h-4.017v1h-4.017v-1h-4.017v1H492.5v-1h-4.017v1h-4.017v-1h-4.017v1h-4.017v-1h-4.017v1h-4.017v-1h-4.017v1h-4.017v-1h-4.017v1h-4.017v-1h-4.016v1h-4.017v-1h-4.017v1h-4.017v-1h-4.017v1h-4.017v-1h-4.017v1h-4.017v-1h-4.017v1h-4.017v-1h-4.017v1h-4.017v-1h-4.017v1h-4.017v-1h-4.017v1h-4.017v-1h-4.016v1h-4.017v-1h-4.017v1h-4.017v-1h-4.017v1h-4.017v-1h-4.017v1h-4.017v-1h-4.017v1h-4.017v-1h-4.017v1h-4.017v-1h-4.017v1h-4.017v-1h-4.017v1h-4.017v-1h-4.017v1h-4.017v-1h-4.017v1h-4.017v-1h-4.017v1h-4.016v-1h-4.017v1h-4.017v-1h-4.017v1h-4.017v-1h-4.017v1h-4.017v-1h-4.017v1h-4.017v-1h-4.017v1h-4.017v-1H255.5v1h-4.017v-1h-4.017v1h-4.017v-1h-4.017v1h-4.017v-1h-4.017v1h-4.017v-1h-4.017v1h-4.017v-1h-4.016v1h-4.017v-1h-4.017v1h-4.017v-1h-4.017v1h-4.017v-1h-4.017v1h-4.017v-1h-4.017v1h-4.017v-1h-4.017v1h-4.017v-1h-4.017v1h-4.017v-1h-4.017v1h-4.017v-1h-4.017v1h-4.017v-1h-4.017v1h-4.017v-1H137q-.905-.002-1.758-.171l-.194.981a10 10 0 0 1-3.604-1.494l.556-.831a9.1 9.1 0 0 1-2.485-2.485l-.831.556a10 10 0 0 1-1.494-3.604l.981-.194A9 9 0 0 1 128 399v-1.979h-1v-3.959h1v-3.958h-1v-3.958h1v-3.959h-1v-3.958h1v-3.958h-1v-3.959h1v-3.958h-1v-3.958h1v-3.958h-1v-3.959h1v-3.958h-1v-3.958h1v-3.959h-1v-3.958h1v-3.958h-1v-3.959h1v-3.958h-1v-3.958h1v-3.959h-1v-3.958h1v-3.958h-1v-3.959h1v-3.958h-1v-3.958h1v-3.959h-1v-3.958h1v-3.958h-1v-3.959h1v-3.958h-1v-3.959h1v-3.958h-1v-3.958h1v-3.959h-1v-3.958h1v-3.958h-1v-3.959h1v-3.958h-1v-3.958h1v-3.958h-1v-3.959h1v-3.958h-1v-3.959h1v-3.958h-1v-3.958h1v-3.958z"/><path fill="#0085ff" d="M69.475 219c0-5.523 4.477-10 10-10h49.619v30h-49.62c-5.522 0-10-4.477-10-10z"/><path fill="#f9f9f9" d="M80.519 226.297q.055.977.46 1.586.774 1.14 2.727 1.14.876 0 1.594-.25 1.39-.484 1.39-1.734 0-.937-.585-1.336-.594-.39-1.86-.68l-1.554-.351q-1.524-.344-2.157-.758-1.093-.719-1.093-2.148 0-1.548 1.07-2.539 1.07-.993 3.031-.993 1.805 0 3.063.875 1.265.868 1.265 2.782h-1.46q-.118-.922-.5-1.414-.712-.899-2.415-.899-1.374 0-1.976.578-.602.579-.602 1.344 0 .844.703 1.234.462.25 2.086.625l1.61.368q1.164.266 1.796.726 1.094.805 1.094 2.336 0 1.906-1.39 2.727-1.383.82-3.22.82-2.14 0-3.35-1.094-1.212-1.086-1.188-2.945zm9.656-7.774h1.555v10.11h5.812V230h-7.367zm13.859-.312q3.039 0 4.5 1.953 1.141 1.524 1.141 3.898 0 2.571-1.305 4.274-1.53 2-4.367 2-2.648 0-4.164-1.75-1.351-1.687-1.352-4.266 0-2.328 1.157-3.984 1.484-2.125 4.39-2.125m.157 10.734q2.054 0 2.968-1.468.922-1.477.922-3.391 0-2.024-1.062-3.258-1.055-1.234-2.891-1.234-1.78 0-2.906 1.226-1.125 1.219-1.125 3.602 0 1.906.961 3.219.969 1.304 3.133 1.304m15.695-10.422v1.368h-3.867V230h-1.578v-10.109h-3.868v-1.368z"/><rect width="492.5" height="48.5" x="127.75" y="139.75" stroke="#0085ff" stroke-dasharray="2 2" stroke-linejoin="round" stroke-width="1.5" rx="4.25"/><rect width="492.5" height="48.5" x="127.75" y="429.75" stroke="#0085ff" stroke-dasharray="2 2" stroke-linejoin="round" stroke-width="1.5" rx="4.25"/><rect width="430.228" height="38.5" x="156.57" y="230.75" stroke="#0085ff" stroke-dasharray="2 2" stroke-width="1.5" rx="4.25"/><rect width="430.228" height="38.5" x="156.57" y="350.75" stroke="#0085ff" stroke-dasharray="2 2" stroke-width="1.5" rx="4.25"/><rect width="432.756" height="50" x="154.792" y="285" fill="#0085ff" rx="6"/><path fill="#fff" d="M243.553 303.523v7.094q0 1.25.469 2.078.695 1.25 2.344 1.25 1.976 0 2.687-1.351.383-.735.383-1.977v-7.094h1.578v6.446q0 2.117-.57 3.258-1.047 2.078-3.953 2.078-2.907 0-3.946-2.078-.57-1.141-.57-3.258v-6.446zm10.227 0h1.57V315h-1.57zm13.39-.312q2.18 0 3.383 1.148 1.203 1.149 1.336 2.61h-1.516q-.257-1.11-1.031-1.758-.765-.649-2.156-.649-1.695 0-2.742 1.196-1.04 1.187-1.039 3.648 0 2.016.937 3.274.945 1.25 2.813 1.25 1.718 0 2.617-1.321.476-.695.711-1.828h1.515q-.203 1.814-1.343 3.039-1.368 1.477-3.688 1.477-2 0-3.359-1.211-1.79-1.602-1.789-4.945 0-2.54 1.343-4.164 1.454-1.767 4.008-1.766m9.86 10.883q1.398 0 1.914-1.055.523-1.062.523-2.359 0-1.172-.375-1.907-.594-1.155-2.047-1.156-1.288 0-1.875.985-.586.983-.586 2.375 0 1.335.586 2.226.587.891 1.86.891m.054-7.703q1.617 0 2.735 1.078t1.117 3.172q0 2.023-.985 3.343-.984 1.321-3.054 1.321-1.727 0-2.742-1.164-1.016-1.173-1.016-3.141 0-2.11 1.07-3.359t2.875-1.25m5.532.242h1.39v1.187q.5-.617.906-.898.696-.477 1.579-.477 1 0 1.609.493.343.28.625.828.469-.672 1.101-.993a3.05 3.05 0 0 1 1.422-.328q1.688 0 2.297 1.219.328.656.328 1.766V315h-1.461v-5.812q0-.837-.421-1.149-.415-.312-1.016-.312-.828 0-1.43.554-.594.555-.594 1.852V315h-1.429v-5.461q0-.852-.203-1.242-.32-.586-1.196-.586-.796 0-1.453.617-.648.618-.648 2.234V315h-1.406zm16.859 7.422q.984 0 1.633-.821.656-.828.656-2.468 0-1-.289-1.719-.547-1.383-2-1.383-1.461 0-2 1.461-.29.781-.289 1.984 0 .97.289 1.649.546 1.296 2 1.297m-3.641-7.383h1.367v1.109q.423-.57.922-.883.711-.468 1.672-.468 1.422 0 2.414 1.093.993 1.086.992 3.11 0 2.734-1.429 3.906a3.23 3.23 0 0 1-2.11.742q-.945 0-1.586-.414-.375-.234-.835-.805v4.274h-1.407zm12.336 7.422q1.399 0 1.914-1.055.524-1.062.524-2.359 0-1.172-.375-1.907-.594-1.155-2.047-1.156-1.29 0-1.875.985-.586.983-.586 2.375 0 1.335.586 2.226.585.891 1.859.891m.055-7.703q1.617 0 2.734 1.078t1.117 3.172q0 2.023-.984 3.343-.984 1.321-3.055 1.321-1.727 0-2.742-1.164-1.015-1.173-1.015-3.141 0-2.11 1.07-3.359t2.875-1.25m5.531.242h1.336v1.187q.594-.734 1.258-1.054a3.35 3.35 0 0 1 1.476-.321q1.782 0 2.407 1.243.343.68.343 1.945V315h-1.429v-5.273q0-.766-.227-1.235-.375-.781-1.359-.781-.5 0-.82.101a2.1 2.1 0 0 0-1.016.688 2.1 2.1 0 0 0-.461.859q-.102.438-.102 1.258V315h-1.406zm12.391-.188q.89 0 1.726.422.837.415 1.274 1.078.422.633.562 1.477.125.578.125 1.844h-6.133q.04 1.273.602 2.046.563.766 1.742.766 1.103 0 1.758-.726.375-.423.531-.977h1.383q-.054.46-.367 1.031a3.6 3.6 0 0 1-.688.922q-.64.625-1.586.844a4.8 4.8 0 0 1-1.148.125q-1.562 0-2.648-1.133-1.086-1.14-1.086-3.187 0-2.016 1.093-3.274 1.095-1.257 2.86-1.258m2.242 3.703q-.086-.914-.398-1.46-.579-1.017-1.93-1.016-.97 0-1.625.703-.656.696-.695 1.773zm3.18-3.515h1.336v1.187q.593-.734 1.257-1.054a3.35 3.35 0 0 1 1.477-.321q1.781 0 2.406 1.243.344.68.344 1.945V315h-1.43v-5.273q0-.766-.226-1.235-.375-.781-1.36-.781-.5 0-.82.101a2.1 2.1 0 0 0-1.016.688 2.1 2.1 0 0 0-.461.859q-.1.438-.101 1.258V315h-1.406zm9.187-2.336h1.422v2.336h1.336v1.148h-1.336v5.461q0 .438.297.586.164.086.547.086h.219a9 9 0 0 0 .273-.023V315a3 3 0 0 1-.508.102q-.258.03-.562.031-.985 0-1.336-.5-.352-.508-.352-1.313v-5.539h-1.133v-1.148h1.133zm5.008 8.078q.063.703.352 1.078.53.68 1.843.68.781 0 1.375-.336.594-.344.594-1.055 0-.539-.477-.82-.304-.173-1.203-.399l-1.117-.281q-1.07-.266-1.578-.594-.906-.57-.906-1.578 0-1.187.851-1.922.86-.734 2.305-.734 1.89 0 2.727 1.109.523.703.507 1.516h-1.328a1.6 1.6 0 0 0-.336-.867q-.484-.555-1.679-.555-.797 0-1.211.305a.96.96 0 0 0-.407.805q0 .546.54.875.312.195.921.343l.93.227q1.516.368 2.031.711.82.538.821 1.695 0 1.117-.852 1.93-.844.812-2.578.812-1.868 0-2.648-.843-.774-.852-.829-2.102zm12.695.398q0 .61.446.961.445.352 1.054.352.742 0 1.438-.344 1.172-.57 1.172-1.867v-1.133a2.4 2.4 0 0 1-.664.274 6 6 0 0 1-.797.156l-.852.109q-.765.102-1.148.321-.65.366-.649 1.171m3.407-2.843q.484-.062.648-.407.094-.187.094-.539 0-.718-.516-1.039-.507-.327-1.461-.328-1.101 0-1.562.594-.258.328-.336.977h-1.313q.04-1.548 1-2.149.969-.609 2.242-.609 1.477 0 2.399.562.914.563.914 1.75v4.82q0 .22.086.352.093.133.383.133.093 0 .211-.008.117-.015.25-.039v1.039a4 4 0 0 1-.5.117 4 4 0 0 1-.469.024q-.727 0-1.055-.516-.171-.273-.242-.773-.43.562-1.234.976a3.8 3.8 0 0 1-1.774.414q-1.164 0-1.906-.703-.735-.711-.734-1.773 0-1.164.726-1.805.726-.64 1.906-.789zm4.421-3.297h1.336v1.187q.594-.734 1.258-1.054a3.35 3.35 0 0 1 1.477-.321q1.78 0 2.406 1.243.344.68.344 1.945V315h-1.43v-5.273q0-.766-.227-1.235-.375-.781-1.359-.781a2.8 2.8 0 0 0-.82.101 2.1 2.1 0 0 0-1.016.688 2.1 2.1 0 0 0-.461.859q-.101.438-.101 1.258V315h-1.407zm9.797 4.281q0 1.344.571 2.25.57.906 1.828.906.977 0 1.601-.836.633-.843.633-2.414 0-1.585-.648-2.343-.65-.766-1.602-.766-1.062 0-1.726.812-.657.813-.657 2.391m2.117-4.43q.962 0 1.61.407.375.234.851.82v-4.227h1.352V315h-1.266v-1.164q-.492.774-1.164 1.117-.672.344-1.539.344-1.398 0-2.422-1.172-1.023-1.18-1.023-3.133 0-1.828.93-3.164.937-1.344 2.671-1.344m10.579-2.961h1.57v4.743h5.969v-4.743h1.57V315h-1.57v-5.367h-5.969V315h-1.57zm19.875 0v1.368h-3.868V315h-1.578v-10.109h-3.867v-1.368zm1.39 0h2.227l3.297 9.704 3.273-9.704h2.203V315h-1.476v-6.773q0-.352.015-1.165a86 86 0 0 0 .016-1.742l-3.274 9.68h-1.539l-3.296-9.68v.352q0 .422.015 1.289.024.86.024 1.266V315h-1.485zm13.367 0h1.555v10.11h5.813V315h-7.368zm12.914 0h8.368v1.407h-6.852v3.484h6.336v1.328h-6.336v3.891h6.969V315h-8.485zm10.375 0h1.407V315h-1.407zm7.008 2.922q.891 0 1.727.422.836.415 1.273 1.078.423.633.563 1.477.125.578.125 1.844h-6.133q.04 1.273.602 2.046.562.766 1.742.766 1.101 0 1.758-.726.375-.423.531-.977h1.383q-.055.46-.368 1.031a3.6 3.6 0 0 1-.687.922q-.64.625-1.586.844a4.8 4.8 0 0 1-1.148.125q-1.563 0-2.649-1.133-1.086-1.14-1.086-3.187 0-2.016 1.094-3.274 1.093-1.257 2.859-1.258m2.242 3.703q-.086-.914-.398-1.46-.578-1.017-1.93-1.016-.969 0-1.625.703-.656.696-.695 1.773zm3.18-3.515h1.391v1.187q.5-.617.906-.898.696-.477 1.578-.477 1 0 1.61.493.343.28.625.828.468-.672 1.101-.993a3.05 3.05 0 0 1 1.422-.328q1.688 0 2.297 1.219.328.656.328 1.766V315h-1.461v-5.812q0-.837-.422-1.149-.414-.312-1.015-.312-.829 0-1.43.554-.594.555-.594 1.852V315h-1.43v-5.461q0-.852-.203-1.242-.32-.586-1.195-.586-.797 0-1.453.617-.649.618-.649 2.234V315h-1.406zm16.813-.188a3.8 3.8 0 0 1 1.726.422q.836.415 1.274 1.078.421.633.562 1.477.125.578.125 1.844h-6.133q.04 1.273.602 2.046.563.766 1.742.766 1.101 0 1.758-.726.375-.423.531-.977h1.383q-.055.46-.367 1.031a3.6 3.6 0 0 1-.688.922q-.64.625-1.586.844a4.8 4.8 0 0 1-1.148.125q-1.563 0-2.649-1.133-1.085-1.14-1.085-3.187 0-2.016 1.093-3.274 1.094-1.257 2.86-1.258m2.242 3.703q-.086-.914-.399-1.46-.578-1.017-1.929-1.016-.97 0-1.625.703-.657.696-.696 1.773zm3.18-3.515h1.335v1.187q.594-.734 1.258-1.054a3.35 3.35 0 0 1 1.477-.321q1.78 0 2.406 1.243.344.68.344 1.945V315h-1.43v-5.273q0-.766-.226-1.235-.375-.781-1.36-.781a2.8 2.8 0 0 0-.82.101 2.1 2.1 0 0 0-1.016.688 2.1 2.1 0 0 0-.461.859q-.1.438-.101 1.258V315h-1.406zm9.187-2.336h1.422v2.336h1.336v1.148h-1.336v5.461q0 .438.297.586.163.086.547.086h.218q.118-.008.274-.023V315a3 3 0 0 1-.508.102q-.258.03-.562.031-.985 0-1.336-.5-.352-.508-.352-1.313v-5.539h-1.133v-1.148h1.133zm5.008 8.078q.062.703.351 1.078.532.68 1.844.68.781 0 1.375-.336.594-.344.594-1.055 0-.539-.477-.82-.305-.173-1.203-.399l-1.117-.281q-1.071-.266-1.578-.594-.906-.57-.906-1.578 0-1.187.851-1.922.86-.734 2.305-.734 1.89 0 2.726 1.109.524.703.508 1.516h-1.328a1.6 1.6 0 0 0-.336-.867q-.485-.555-1.679-.555-.798 0-1.211.305a.96.96 0 0 0-.407.805q0 .546.539.875.313.195.922.343l.93.227q1.515.368 2.031.711.82.538.821 1.695 0 1.117-.852 1.93-.844.812-2.578.812-1.868 0-2.649-.843-.773-.852-.828-2.102z"/><path fill="#545454" d="M321.283 169.055q.984 0 1.633-.821.656-.828.656-2.468 0-1-.289-1.719-.547-1.383-2-1.383-1.461 0-2 1.461-.29.781-.289 1.984 0 .97.289 1.649.546 1.297 2 1.297m-3.641-7.383h1.367v1.109q.423-.57.922-.883.711-.468 1.672-.468 1.422 0 2.414 1.093.993 1.086.992 3.11 0 2.734-1.429 3.906a3.23 3.23 0 0 1-2.11.742q-.945 0-1.586-.414-.375-.234-.836-.805v4.274h-1.406zm9.055-.039h1.336v1.445q.163-.422.805-1.023.64-.61 1.476-.61.039 0 .133.008.093.008.32.031v1.485a2.6 2.6 0 0 0-.461-.039q-1.062 0-1.633.687-.57.68-.57 1.571V170h-1.406zm8.773-.188q.891 0 1.727.422.836.415 1.273 1.078.423.633.563 1.477.125.578.125 1.844h-6.133q.04 1.273.602 2.046.562.766 1.742.766 1.101 0 1.758-.726.375-.423.531-.977h1.383q-.055.46-.368 1.031a3.6 3.6 0 0 1-.687.922q-.64.625-1.586.844a4.8 4.8 0 0 1-1.148.125q-1.563 0-2.649-1.133-1.086-1.14-1.086-3.187 0-2.016 1.094-3.274 1.094-1.257 2.859-1.258m2.243 3.703q-.087-.914-.399-1.46-.578-1.017-1.93-1.016-.968 0-1.625.703-.656.696-.695 1.773zm6.71 3.907q.985 0 1.633-.821.657-.828.657-2.468 0-1-.29-1.719-.546-1.383-2-1.383-1.46 0-2 1.461-.288.781-.289 1.984 0 .97.289 1.649.548 1.297 2 1.297m-3.64-7.383h1.367v1.109a3.4 3.4 0 0 1 .922-.883q.71-.468 1.672-.468 1.421 0 2.414 1.093.992 1.086.992 3.11 0 2.734-1.43 3.906a3.23 3.23 0 0 1-2.109.742q-.945 0-1.586-.414-.375-.234-.836-.805v4.274h-1.406zm12.5-.227q.89 0 1.726.422.837.415 1.274 1.078.422.633.562 1.477.125.578.125 1.844h-6.132q.039 1.273.601 2.046.563.766 1.742.766 1.103 0 1.758-.726.375-.423.531-.977h1.383q-.055.46-.367 1.031a3.6 3.6 0 0 1-.688.922 3.27 3.27 0 0 1-1.585.844 4.8 4.8 0 0 1-1.149.125q-1.562 0-2.648-1.133-1.086-1.14-1.086-3.187 0-2.016 1.093-3.274 1.095-1.257 2.86-1.258m2.242 3.703q-.086-.914-.398-1.46-.579-1.017-1.93-1.016-.97 0-1.625.703-.656.696-.695 1.773zm3.18-3.515h1.336v1.187q.593-.734 1.257-1.054a3.35 3.35 0 0 1 1.477-.321q1.782 0 2.406 1.243.344.68.344 1.945V170h-1.43v-5.273q0-.766-.226-1.235-.375-.781-1.36-.781-.5 0-.82.101a2.1 2.1 0 0 0-1.016.688 2.1 2.1 0 0 0-.46.859q-.102.438-.102 1.258V170h-1.406zm9.797 4.281q0 1.344.57 2.25t1.828.906q.976 0 1.602-.836.632-.843.632-2.414 0-1.585-.648-2.343-.648-.766-1.602-.766-1.062 0-1.726.812-.656.813-.656 2.391m2.117-4.43q.96 0 1.609.407.375.234.852.82v-4.227h1.351V170h-1.265v-1.164q-.493.774-1.164 1.117-.672.344-1.539.344-1.4 0-2.422-1.172-1.024-1.18-1.024-3.133 0-1.828.93-3.164.938-1.344 2.672-1.344m7.101 4.813q.055.977.461 1.586.774 1.14 2.727 1.14.874 0 1.594-.25 1.39-.484 1.39-1.734 0-.937-.586-1.336-.594-.39-1.859-.68l-1.555-.351q-1.523-.344-2.156-.758-1.094-.719-1.094-2.148 0-1.548 1.071-2.539 1.07-.993 3.031-.993 1.805 0 3.062.875 1.266.868 1.266 2.782h-1.461q-.117-.922-.5-1.414-.711-.899-2.414-.899-1.375 0-1.977.578-.601.579-.601 1.344 0 .844.703 1.234.46.25 2.086.625l1.609.368q1.164.266 1.797.726 1.094.805 1.094 2.336 0 1.906-1.391 2.727-1.383.82-3.219.82-2.14 0-3.351-1.094-1.21-1.086-1.188-2.945zm9.469-4.625h1.43V170h-1.43zm0-3.149h1.43v1.594h-1.43zm3.453-.039h1.367v4.164a3.1 3.1 0 0 1 2.493-1.234q1.562 0 2.531 1.078.976 1.07.976 3.164 0 1.985-.961 3.297-.96 1.313-2.664 1.313-.952 0-1.609-.461-.39-.274-.836-.875V170h-1.297zm3.656 10.539q1.142 0 1.704-.906.57-.906.57-2.39 0-1.321-.57-2.188-.563-.867-1.664-.867-.962 0-1.688.711-.719.71-.719 2.344 0 1.179.297 1.914.555 1.382 2.07 1.382m5.399-10.5h1.406V170h-1.406zm3.523 3.149h1.43V170h-1.43zm0-3.149h1.43v1.594h-1.43zm3.563 3.11h1.336v1.187q.594-.734 1.258-1.054a3.34 3.34 0 0 1 1.476-.321q1.782 0 2.406 1.243.344.68.344 1.945V170h-1.43v-5.273q0-.766-.226-1.235-.375-.781-1.359-.781-.5 0-.821.101a2.1 2.1 0 0 0-1.015.688 2.1 2.1 0 0 0-.461.859q-.102.438-.102 1.258V170h-1.406zm11.859-.149q.984 0 1.719.485.399.273.812.797v-1.055h1.297v7.609q0 1.594-.468 2.516-.876 1.703-3.305 1.703-1.351 0-2.274-.609-.921-.602-1.031-1.891h1.43q.102.563.406.867.477.47 1.5.469 1.617 0 2.117-1.141.297-.672.274-2.398-.422.64-1.016.953t-1.57.313q-1.36 0-2.383-.961-1.016-.969-1.016-3.196 0-2.101 1.024-3.281 1.03-1.18 2.484-1.18m2.531 4.297q0-1.554-.64-2.304-.641-.75-1.633-.75-1.485 0-2.031 1.39-.29.742-.289 1.945 0 1.415.57 2.157.578.734 1.547.734 1.515 0 2.133-1.367.343-.774.343-1.805m-94.615 88.274q.984 0 1.633-.821.656-.828.656-2.468 0-1-.289-1.719-.547-1.383-2-1.383-1.461 0-2 1.461-.29.781-.289 1.984 0 .97.289 1.649.547 1.296 2 1.297m-3.641-7.383h1.368v1.109q.421-.57.921-.883.711-.468 1.672-.468 1.422 0 2.414 1.093.993 1.086.993 3.11 0 2.734-1.43 3.906a3.23 3.23 0 0 1-2.11.742q-.945 0-1.585-.414-.375-.234-.836-.805v4.274h-1.407zm9.055-.039h1.336v1.445q.164-.422.805-1.023.64-.61 1.476-.61.04 0 .133.008.094.008.32.031v1.485a2.6 2.6 0 0 0-.461-.039q-1.062 0-1.632.687a2.37 2.37 0 0 0-.571 1.571V255h-1.406zm8.773-.188q.891 0 1.727.422.836.415 1.273 1.078.423.633.563 1.477.125.578.125 1.844H338.3q.04 1.273.602 2.046.562.766 1.742.766 1.101 0 1.758-.726.375-.422.531-.977h1.383q-.055.46-.367 1.031a3.6 3.6 0 0 1-.688.922q-.64.625-1.586.844a4.8 4.8 0 0 1-1.148.125q-1.563 0-2.649-1.133-1.086-1.14-1.086-3.187 0-2.016 1.094-3.274 1.094-1.257 2.859-1.258m2.243 3.703q-.086-.914-.399-1.46-.577-1.017-1.929-1.016-.97 0-1.625.703-.657.696-.696 1.773zm6.711 3.907q.984 0 1.632-.821.657-.828.657-2.468 0-1-.289-1.719-.548-1.383-2-1.383-1.461 0-2 1.461-.29.781-.289 1.984 0 .97.289 1.649.546 1.296 2 1.297m-3.641-7.383h1.367v1.109a3.4 3.4 0 0 1 .922-.883q.71-.468 1.672-.468 1.422 0 2.414 1.093.992 1.086.992 3.11 0 2.734-1.43 3.906a3.23 3.23 0 0 1-2.109.742q-.945 0-1.586-.414-.374-.234-.836-.805v4.274h-1.406zm12.5-.227q.89 0 1.727.422.835.415 1.273 1.078.422.633.562 1.477.126.578.125 1.844h-6.132q.039 1.273.601 2.046.563.766 1.742.766 1.103 0 1.758-.726.375-.422.531-.977h1.383q-.055.46-.367 1.031a3.6 3.6 0 0 1-.687.922q-.64.625-1.586.844a4.8 4.8 0 0 1-1.149.125q-1.562 0-2.648-1.133-1.086-1.14-1.086-3.187 0-2.016 1.094-3.274 1.094-1.257 2.859-1.258m2.242 3.703q-.086-.914-.398-1.46-.579-1.017-1.93-1.016-.969 0-1.625.703-.656.696-.695 1.773zm3.18-3.515h1.336v1.187q.594-.734 1.258-1.054a3.34 3.34 0 0 1 1.476-.321q1.782 0 2.406 1.243.345.68.344 1.945V255h-1.43v-5.273q0-.766-.226-1.235-.375-.781-1.359-.781-.5 0-.821.101a2.1 2.1 0 0 0-1.015.688 2.1 2.1 0 0 0-.461.859q-.102.438-.102 1.258V255h-1.406zm9.797 4.281q0 1.344.57 2.25t1.828.906q.976 0 1.602-.836.633-.843.633-2.414 0-1.585-.649-2.343-.648-.766-1.601-.766-1.063 0-1.727.812-.656.813-.656 2.391m2.117-4.43q.961 0 1.609.407.375.234.852.82v-4.227h1.351V255h-1.265v-1.164q-.492.774-1.164 1.117-.672.344-1.539.344-1.4 0-2.422-1.172-1.024-1.18-1.024-3.133 0-1.828.93-3.164.938-1.344 2.672-1.344m10.922-3.273q2.18 0 3.383 1.148 1.203 1.149 1.336 2.61h-1.516q-.258-1.11-1.031-1.758-.767-.648-2.157-.649-1.695 0-2.742 1.196-1.038 1.187-1.039 3.648 0 2.016.938 3.274.945 1.25 2.812 1.25 1.719 0 2.617-1.321.477-.695.711-1.828h1.516q-.203 1.814-1.344 3.039-1.367 1.477-3.687 1.477-2 0-3.36-1.211-1.788-1.602-1.789-4.945 0-2.54 1.344-4.164 1.453-1.766 4.008-1.766m6.539.273h1.406v4.282q.5-.633.899-.891.68-.445 1.695-.445 1.82 0 2.469 1.273.351.696.351 1.93V255h-1.445v-5.273q0-.923-.235-1.352-.382-.687-1.437-.687-.875 0-1.586.601-.711.602-.711 2.273V255h-1.406zm8.906 3.188h1.43V255h-1.43zm0-3.149h1.43v1.594h-1.43zm3.602 0h1.406V255h-1.406zm4.414 7.391q0 1.344.57 2.25t1.828.906q.976 0 1.602-.836.633-.843.633-2.414 0-1.585-.649-2.343-.648-.766-1.601-.766-1.063 0-1.727.812-.656.813-.656 2.391m2.117-4.43q.961 0 1.609.407.375.234.852.82v-4.227h1.351V255h-1.265v-1.164q-.492.774-1.164 1.117-.672.344-1.539.344-1.4 0-2.422-1.172-1.024-1.18-1.024-3.133 0-1.828.93-3.164.938-1.344 2.672-1.344m-85.625 126.289q0 .61.445.961a1.65 1.65 0 0 0 1.055.352q.743 0 1.437-.344 1.173-.57 1.172-1.867v-1.133q-.258.165-.664.274a6 6 0 0 1-.797.156l-.851.109q-.766.102-1.149.321-.648.366-.648 1.171m3.406-2.843q.484-.062.649-.407.093-.187.093-.539 0-.718-.515-1.039-.509-.327-1.461-.328-1.102 0-1.563.594-.258.328-.336.977h-1.312q.039-1.548 1-2.149.969-.609 2.242-.609 1.476 0 2.398.562.915.563.915 1.75v4.82q0 .22.085.352.095.133.383.133.094 0 .211-.008a5 5 0 0 0 .25-.039v1.039a4 4 0 0 1-.5.117 4 4 0 0 1-.469.024q-.726 0-1.054-.516-.173-.273-.242-.773-.43.562-1.235.976a3.8 3.8 0 0 1-1.773.414q-1.165 0-1.906-.703-.735-.711-.735-1.773 0-1.164.727-1.805.726-.64 1.906-.789zm7.953 4.125q.985 0 1.633-.821.656-.828.656-2.468 0-1-.289-1.719-.546-1.383-2-1.383-1.46 0-2 1.461-.288.781-.289 1.984 0 .97.289 1.649.548 1.296 2 1.297m-3.64-7.383h1.367v1.109q.421-.57.922-.883.71-.468 1.672-.468 1.42 0 2.414 1.093.992 1.086.992 3.11 0 2.734-1.43 3.906a3.23 3.23 0 0 1-2.109.742q-.945 0-1.586-.414-.375-.234-.836-.805v4.274h-1.406zm12.547 7.383q.984 0 1.632-.821.657-.828.657-2.468 0-1-.289-1.719-.548-1.383-2-1.383-1.461 0-2 1.461-.29.781-.29 1.984 0 .97.29 1.649.546 1.296 2 1.297m-3.641-7.383h1.367v1.109a3.4 3.4 0 0 1 .922-.883q.71-.468 1.672-.468 1.422 0 2.414 1.093.992 1.086.992 3.11 0 2.734-1.43 3.906a3.23 3.23 0 0 1-2.109.742q-.945 0-1.586-.414-.375-.234-.836-.805v4.274h-1.406zm12.5-.227q.89 0 1.726.422.837.415 1.274 1.078.422.633.562 1.477.125.578.125 1.844h-6.132q.039 1.273.601 2.046.563.766 1.742.766 1.103 0 1.758-.726.375-.423.531-.977h1.383q-.054.46-.367 1.031a3.6 3.6 0 0 1-.687.922 3.3 3.3 0 0 1-1.586.844 4.8 4.8 0 0 1-1.149.125q-1.562 0-2.648-1.133-1.086-1.14-1.086-3.187 0-2.016 1.094-3.274 1.093-1.257 2.859-1.258m2.242 3.703q-.086-.914-.398-1.46-.579-1.017-1.93-1.016-.97 0-1.625.703-.656.696-.695 1.773zm3.18-3.515h1.336v1.187q.594-.734 1.258-1.054a3.34 3.34 0 0 1 1.476-.321q1.782 0 2.406 1.243.344.68.344 1.945V375h-1.43v-5.273q0-.766-.226-1.235-.375-.781-1.36-.781-.5 0-.82.101a2.1 2.1 0 0 0-1.015.688 2.1 2.1 0 0 0-.461.859q-.102.438-.102 1.258V375h-1.406zm9.797 4.281q0 1.344.57 2.25t1.828.906q.977 0 1.602-.836.632-.843.632-2.414 0-1.585-.648-2.343-.648-.766-1.602-.766-1.062 0-1.726.812-.657.813-.656 2.391m2.117-4.43q.96 0 1.609.407.375.234.852.82v-4.227h1.351V375h-1.265v-1.164q-.492.774-1.164 1.117-.672.344-1.539.344-1.4 0-2.422-1.172-1.024-1.18-1.024-3.133 0-1.828.93-3.164.938-1.344 2.672-1.344m10.922-3.273q2.179 0 3.383 1.148 1.203 1.149 1.335 2.61h-1.515q-.258-1.11-1.031-1.758-.767-.649-2.157-.649-1.695 0-2.742 1.196-1.04 1.187-1.039 3.648 0 2.016.938 3.274.945 1.25 2.812 1.25 1.719 0 2.617-1.321.477-.695.711-1.828h1.516q-.204 1.814-1.344 3.039-1.367 1.477-3.687 1.477-2.001 0-3.36-1.211-1.79-1.602-1.789-4.945 0-2.54 1.344-4.164 1.453-1.767 4.008-1.766m6.539.273h1.406v4.282q.5-.633.898-.891.68-.445 1.696-.445 1.82 0 2.469 1.273.351.696.351 1.93V375h-1.445v-5.273q0-.923-.235-1.352-.382-.687-1.437-.687-.875 0-1.586.601-.711.602-.711 2.273V375h-1.406zm8.906 3.188h1.43V375h-1.43zm0-3.149h1.43v1.594h-1.43zm3.602 0h1.406V375h-1.406zm4.414 7.391q0 1.344.57 2.25t1.828.906q.977 0 1.602-.836.632-.843.632-2.414 0-1.585-.648-2.343-.648-.766-1.602-.766-1.062 0-1.726.812-.657.813-.656 2.391m2.117-4.43q.96 0 1.609.407.375.234.852.82v-4.227h1.351V375h-1.265v-1.164q-.492.774-1.164 1.117-.672.344-1.539.344-1.4 0-2.422-1.172-1.024-1.18-1.024-3.133 0-1.828.93-3.164.938-1.344 2.672-1.344m-88.75 91.289q0 .61.445.961a1.65 1.65 0 0 0 1.055.352q.743 0 1.437-.344 1.173-.57 1.172-1.867v-1.133q-.258.165-.664.274a6 6 0 0 1-.797.156l-.851.109q-.766.102-1.149.321-.648.366-.648 1.171m3.406-2.843q.484-.062.649-.407.093-.187.093-.539 0-.718-.515-1.039-.509-.327-1.461-.328-1.102 0-1.563.594-.258.328-.336.977h-1.312q.039-1.548 1-2.149.969-.609 2.242-.609 1.476 0 2.398.562.914.563.914 1.75v4.82q0 .22.086.352.095.133.383.133.094 0 .211-.008a5 5 0 0 0 .25-.039v1.039a4 4 0 0 1-.5.117 4 4 0 0 1-.469.024q-.726 0-1.054-.516-.173-.273-.242-.773-.43.562-1.235.976a3.8 3.8 0 0 1-1.773.414q-1.164 0-1.907-.703-.734-.711-.734-1.773 0-1.164.727-1.805.726-.64 1.906-.789zm7.953 4.125q.985 0 1.633-.821.657-.828.656-2.468 0-1-.289-1.719-.546-1.383-2-1.383-1.46 0-2 1.461-.288.781-.289 1.984 0 .97.289 1.649.547 1.296 2 1.297m-3.64-7.383h1.367v1.109q.421-.57.922-.883.71-.468 1.672-.468 1.42 0 2.414 1.093.992 1.086.992 3.11 0 2.734-1.43 3.906a3.23 3.23 0 0 1-2.109.742q-.945 0-1.586-.414-.375-.234-.836-.805v4.274h-1.406zm12.546 7.383q.985 0 1.633-.821.657-.828.657-2.468 0-1-.29-1.719-.546-1.383-2-1.383-1.46 0-2 1.461-.288.781-.289 1.984 0 .97.289 1.649.548 1.296 2 1.297m-3.64-7.383h1.367v1.109a3.4 3.4 0 0 1 .922-.883q.71-.468 1.672-.468 1.421 0 2.414 1.093.992 1.086.992 3.11 0 2.734-1.43 3.906a3.23 3.23 0 0 1-2.109.742q-.945 0-1.586-.414-.375-.234-.836-.805v4.274h-1.406zm12.5-.227q.89 0 1.726.422.837.415 1.274 1.078.422.633.562 1.477.126.578.125 1.844h-6.132q.039 1.273.601 2.046.563.766 1.742.766 1.103 0 1.758-.726.375-.423.531-.977h1.383q-.055.46-.367 1.031a3.6 3.6 0 0 1-.688.922 3.27 3.27 0 0 1-1.585.844 4.8 4.8 0 0 1-1.149.125q-1.562 0-2.648-1.133-1.086-1.14-1.086-3.187 0-2.016 1.093-3.274 1.095-1.257 2.86-1.258m2.242 3.703q-.086-.914-.398-1.46-.579-1.017-1.93-1.016-.97 0-1.625.703-.656.696-.695 1.773zm3.18-3.515h1.336v1.187q.594-.734 1.257-1.054a3.35 3.35 0 0 1 1.477-.321q1.782 0 2.406 1.243.344.68.344 1.945V460h-1.43v-5.273q0-.766-.226-1.235-.375-.781-1.36-.781-.5 0-.82.101a2.1 2.1 0 0 0-1.016.688 2.1 2.1 0 0 0-.46.859q-.102.438-.102 1.258V460h-1.406zm9.797 4.281q0 1.344.57 2.25t1.828.906q.976 0 1.602-.836.632-.843.632-2.414 0-1.585-.648-2.343-.648-.766-1.602-.766-1.062 0-1.726.812-.656.813-.656 2.391m2.117-4.43q.96 0 1.609.407.375.234.852.82v-4.227h1.351V460h-1.265v-1.164q-.492.774-1.164 1.117-.672.344-1.539.344-1.4 0-2.422-1.172-1.024-1.18-1.024-3.133 0-1.828.93-3.164.938-1.344 2.672-1.344m7.101 4.813q.055.977.461 1.586.774 1.14 2.727 1.14.874 0 1.594-.25 1.39-.484 1.39-1.734 0-.937-.586-1.336-.594-.39-1.859-.68l-1.555-.351q-1.523-.344-2.156-.758-1.094-.718-1.094-2.148 0-1.548 1.071-2.539 1.07-.993 3.031-.993 1.805 0 3.062.875 1.266.868 1.266 2.782h-1.461q-.117-.922-.5-1.414-.711-.899-2.414-.899-1.375 0-1.977.578-.601.579-.601 1.344 0 .844.703 1.234.461.25 2.086.625l1.609.368q1.164.265 1.797.726 1.094.805 1.094 2.336 0 1.907-1.391 2.727-1.383.82-3.219.82-2.14 0-3.351-1.094-1.21-1.086-1.188-2.945zm9.469-4.625h1.43V460h-1.43zm0-3.149h1.43v1.594h-1.43zm3.453-.039h1.367v4.164a3.1 3.1 0 0 1 2.493-1.234q1.562 0 2.531 1.078.976 1.07.976 3.164 0 1.985-.961 3.297-.96 1.313-2.664 1.313-.952 0-1.609-.461-.39-.274-.836-.875V460h-1.297zm3.656 10.539q1.141 0 1.704-.906.57-.906.57-2.39 0-1.321-.57-2.188-.563-.867-1.664-.867-.962 0-1.688.711-.719.71-.719 2.344 0 1.179.297 1.914.555 1.382 2.07 1.382m5.399-10.5h1.406V460h-1.406zm3.523 3.149h1.43V460h-1.43zm0-3.149h1.43v1.594h-1.43zm3.563 3.11h1.336v1.187q.594-.734 1.258-1.054a3.35 3.35 0 0 1 1.476-.321q1.782 0 2.406 1.243.345.68.344 1.945V460h-1.43v-5.273q0-.766-.226-1.235-.375-.781-1.359-.781-.5 0-.821.101a2.1 2.1 0 0 0-1.015.688 2.1 2.1 0 0 0-.461.859q-.102.438-.102 1.258V460h-1.406zm11.859-.149q.984 0 1.719.485.399.273.812.797v-1.055h1.297v7.609q0 1.594-.468 2.516-.876 1.703-3.305 1.703-1.351 0-2.274-.609-.921-.602-1.031-1.891h1.43q.102.563.406.867.477.47 1.5.469 1.617 0 2.117-1.141.297-.672.274-2.398-.422.64-1.016.953t-1.57.313q-1.36 0-2.383-.961-1.016-.969-1.016-3.196 0-2.101 1.024-3.281 1.03-1.18 2.484-1.18m2.531 4.297q0-1.554-.64-2.304t-1.633-.75q-1.485 0-2.031 1.39-.29.742-.289 1.945 0 1.414.57 2.157.578.734 1.547.734 1.515 0 2.133-1.367.343-.774.343-1.805"/><rect width="160" height="50" x="916" y="139" fill="#9c3afd" rx="5"/><path fill="#fff" d="M978.508 158.523h2.226l3.297 9.704 3.274-9.704h2.203V170h-1.477v-6.773q0-.352.016-1.165.015-.812.015-1.742l-3.273 9.68h-1.539l-3.297-9.68v.352q0 .422.016 1.289.023.86.023 1.266V170h-1.484zm18.406 3.11h1.555q-.297.804-1.321 3.672-.765 2.156-1.281 3.515-1.218 3.204-1.719 3.907-.5.703-1.718.703a3.4 3.4 0 0 1-.461-.024 4 4 0 0 1-.391-.086v-1.281q.368.102.531.125.165.024.289.024.391 0 .571-.133a1.1 1.1 0 0 0 .312-.313q.04-.062.281-.64.243-.578.352-.86l-3.094-8.609h1.594l2.242 6.812zm4.646-3.11v7.094c0 .834.16 1.526.47 2.078.46.834 1.25 1.25 2.35 1.25 1.31 0 2.21-.45 2.68-1.351q.39-.735.39-1.977v-7.094h1.57v6.446q0 2.117-.57 3.258c-.69 1.385-2.01 2.078-3.95 2.078s-3.25-.693-3.95-2.078q-.568-1.141-.566-3.258v-6.446zm10.23 0h1.57V170h-1.57z"/><path fill="#9c3afd" d="M709.842 157.75h1.64q.26 0 .39.123t.13.369q0 .267-.13.376-.123.11-.445.11h-3.014q-.273 0-.417-.124-.137-.123-.137-.362 0-.273.171-.383.178-.11.649-.109h.13v-7.096h-.13q-.47 0-.649-.109-.171-.11-.171-.383 0-.239.137-.355.144-.123.417-.123h1.039q.206 0 .294.068.096.069.096.212v.663a3.15 3.15 0 0 1 1.025-.718 3.1 3.1 0 0 1 1.217-.239q1.374 0 2.297.93.922.929.922 2.331 0 1.346-.875 2.215-.875.867-2.235.868-.724 0-1.333-.253a2.7 2.7 0 0 1-1.018-.739zm2.119-2.741q.95 0 1.558-.595.609-.601.609-1.552 0-.929-.616-1.531-.608-.608-1.551-.608-.944 0-1.545.601-.602.602-.602 1.538 0 .944.595 1.545.601.602 1.552.602m6.963.027h2.269q.267 0 .39.116.13.11.13.356 0 .28-.123.389-.117.103-.438.103h-4.471q-.266 0-.403-.123t-.137-.369q0-.24.137-.356.144-.116.438-.116h1.189v-4.382h-.465q-.663 0-.827-.102-.164-.11-.164-.39 0-.239.13-.355.137-.123.41-.123h1.559q.184 0 .28.075.096.068.096.205v1.162q.649-.814 1.353-1.21a3.04 3.04 0 0 1 1.518-.396q.607 0 .984.246.376.246.376.635a.64.64 0 0 1-.191.452.56.56 0 0 1-.411.191q-.156 0-.533-.205-.369-.212-.663-.212-.533 0-1.128.383-.588.375-1.305 1.196zm6.347-1.893q.056.984.663 1.524.615.533 1.675.533.8 0 1.743-.424.944-.43 1.142-.43.204 0 .342.13a.42.42 0 0 1 .136.321.54.54 0 0 1-.143.362q-.144.165-.458.321a7 7 0 0 1-1.415.513 6 6 0 0 1-1.443.178q-1.558 0-2.495-.896-.936-.901-.936-2.385 0-1.511.991-2.448.991-.936 2.584-.936 1.442 0 2.392.875.951.875.951 2.119 0 .382-.164.513-.158.13-.869.13zm.034-.896h4.45q-.102-.813-.683-1.306-.575-.499-1.415-.499-.91 0-1.531.479-.623.478-.821 1.326m8.501 5.503h1.641q.26 0 .389.123.13.123.13.369 0 .267-.13.376-.123.11-.444.11h-3.015q-.273 0-.417-.124-.136-.123-.136-.362 0-.273.171-.383.178-.11.649-.109h.13v-7.096h-.13q-.471 0-.649-.109-.171-.11-.171-.383 0-.239.136-.355.144-.123.417-.123h1.04q.204 0 .293.068.096.069.096.212v.663a3.2 3.2 0 0 1 1.026-.718 3.1 3.1 0 0 1 1.216-.239q1.374 0 2.297.93.923.929.923 2.331 0 1.346-.875 2.215-.874.867-2.235.868-.725 0-1.333-.253a2.7 2.7 0 0 1-1.019-.739zm2.119-2.741q.95 0 1.559-.595.608-.601.608-1.552 0-.929-.615-1.531-.609-.608-1.552-.608t-1.545.601q-.601.602-.601 1.538 0 .944.595 1.545.601.602 1.551.602m5.322-1.866q.055.984.664 1.524.615.533 1.674.533.8 0 1.744-.424.943-.43 1.141-.43.206 0 .342.13a.42.42 0 0 1 .137.321.54.54 0 0 1-.144.362q-.144.165-.458.321a7 7 0 0 1-1.415.513 6 6 0 0 1-1.442.178q-1.559 0-2.495-.896-.937-.901-.937-2.385 0-1.511.991-2.448.991-.936 2.584-.936 1.442 0 2.393.875t.95 2.119q0 .382-.164.513-.157.13-.868.13zm.035-.896h4.45q-.102-.813-.684-1.306-.574-.499-1.415-.499-.909 0-1.531.479-.622.478-.82 1.326m7.721 2.789v-4.382h-.13q-.464 0-.642-.109-.171-.11-.171-.383 0-.253.143-.362.144-.116.465-.116h.978q.185 0 .287.075t.103.205v.465q.498-.465.984-.684.492-.225 1.018-.225 1.033 0 1.621.642.594.642.594 1.777v3.097h.322q.34 0 .492.116.15.11.15.356 0 .266-.164.383-.157.11-.567.109h-1.511q-.438 0-.561-.103-.123-.102-.123-.389 0-.267.144-.369.144-.103.54-.103h.239v-2.844q0-.8-.362-1.216-.363-.424-1.053-.424-.697 0-1.23.471a1.5 1.5 0 0 0-.533 1.169v2.844h.239q.41 0 .553.103.144.102.144.369 0 .287-.123.389t-.602.103h-1.613q-.28 0-.424-.116-.136-.124-.136-.376 0-.274.157-.369.164-.103.629-.103zm12.589.964q-.144 0-.205-.068-.054-.075-.055-.281v-.56a2.8 2.8 0 0 1-1.025.8q-.616.28-1.333.28-1.292 0-2.167-.916-.868-.923-.868-2.29 0-1.415.929-2.352.93-.943 2.318-.943.704 0 1.264.253.56.246.964.731v-2.618h-.362q-.595 0-.772-.102-.171-.11-.171-.39 0-.246.136-.369.144-.123.411-.123h1.401q.206 0 .294.068.096.069.096.212v7.704h.307q.335 0 .486.116.15.11.15.356a.5.5 0 0 1-.13.362.47.47 0 0 1-.349.13zm-4.477-3.069q0 .944.608 1.545.609.601 1.545.601.943 0 1.552-.622.608-.629.608-1.593 0-.95-.608-1.565-.602-.615-1.552-.615-.964 0-1.559.622-.594.621-.594 1.627m8.412 2.83q-.035.307-.158.424-.123.123-.389.123-.288 0-.431-.171-.137-.165-.157-.54l-.089-1.586v-.123q0-.328.123-.465.13-.137.424-.137.41 0 .588.588.081.294.157.444.239.478.752.739.52.26 1.237.259.882 0 1.429-.417.554-.417.554-1.066 0-.54-.342-.868-.336-.328-.985-.424l-1.011-.137q-1.416-.198-2.065-.745-.65-.546-.649-1.538 0-1.046.861-1.757.868-.711 2.16-.711.376 0 .793.103.417.096.944.307.013-.198.109-.273t.328-.075q.302 0 .417.089.116.088.144.424l.095 1.428v.069a.5.5 0 0 1-.136.376q-.137.129-.383.129-.363 0-.561-.505a1.8 1.8 0 0 0-.191-.431 1.44 1.44 0 0 0-.649-.526 2.4 2.4 0 0 0-.964-.185q-.828 0-1.347.41a1.31 1.31 0 0 0-.513 1.073q0 .52.383.821.39.3 1.183.41l1.093.137q1.19.156 1.791.731.602.567.602 1.538 0 1.149-.854 1.846-.855.69-2.284.69-.492 0-.977-.116a6 6 0 0 1-1.032-.362m9.355-8.046q0-.738.13-.93.136-.19.574-.191.424 0 .561.164.136.157.136.759 0 .587-.13.731-.123.137-.567.137-.438 0-.574-.13-.13-.13-.13-.54m1.265 7.321h2.194q.267 0 .39.116.129.11.129.356 0 .28-.123.389-.116.103-.437.103h-5.305q-.273 0-.41-.123t-.137-.369q0-.24.144-.356.143-.116.431-.116h2.085v-4.382h-1.333q-.28 0-.431-.123-.144-.129-.144-.369 0-.239.137-.355.137-.123.41-.123h2.003q.185 0 .287.075.11.075.11.205zm7.721.014q.965 0 1.566-.609.601-.608.601-1.579 0-.95-.615-1.565-.609-.615-1.552-.615-.95 0-1.558.615-.602.608-.602 1.565t.602 1.573q.608.615 1.558.615m-2.133-4.382q.384-.479.957-.731a3.2 3.2 0 0 1 1.299-.253q1.375 0 2.29.929.916.924.916 2.29 0 1.347-.943 2.284-.937.936-2.29.936-.719 0-1.251-.253a2.14 2.14 0 0 1-.875-.766v.547q0 .184-.068.267-.062.082-.212.082h-1.251q-.267 0-.397-.123t-.13-.369q0-.274.158-.369.157-.103.622-.103h.143v-7h-.13q-.465 0-.635-.109-.171-.11-.171-.383 0-.246.136-.369.138-.123.404-.123h1.039q.204 0 .294.068.095.069.095.212zm9.294-2.632h-1.162q-.663 0-.834-.102-.164-.11-.164-.39 0-.246.137-.369.144-.123.41-.123h2.256q.185 0 .287.075a.24.24 0 0 1 .102.205v7.704h2.147q.26 0 .376.116.123.11.123.356 0 .28-.116.389-.117.103-.438.103h-5.045q-.266 0-.41-.123-.137-.123-.137-.369 0-.24.144-.356t.431-.116h1.893zm7.818-.321q0-.738.129-.93.137-.19.575-.191.423 0 .56.164.137.157.137.759 0 .587-.13.731-.123.137-.567.137-.437 0-.575-.13-.129-.13-.129-.54m1.264 7.321h2.195q.266 0 .389.116.13.11.13.356 0 .28-.123.389-.116.103-.437.103h-5.305q-.273 0-.41-.123t-.137-.369q0-.24.144-.356.143-.116.43-.116h2.085v-4.382h-1.333q-.28 0-.431-.123-.143-.129-.143-.369 0-.239.137-.355.137-.123.41-.123h2.003a.5.5 0 0 1 .287.075q.11.075.109.205zm4.81 0v-4.382h-.13q-.465 0-.643-.109-.171-.11-.171-.383 0-.253.144-.362.144-.116.465-.116h.977q.185 0 .287.075.103.075.103.205v.465q.5-.465.984-.684.492-.225 1.019-.225 1.032 0 1.62.642.594.642.595 1.777v3.097h.321q.342 0 .492.116.15.11.151.356 0 .266-.164.383-.157.11-.568.109h-1.511q-.437 0-.56-.103-.123-.102-.123-.389 0-.267.143-.369.144-.103.54-.103h.24v-2.844q0-.8-.363-1.216-.362-.424-1.052-.424-.697 0-1.231.471a1.5 1.5 0 0 0-.533 1.169v2.844h.239q.41 0 .554.103.143.102.143.369 0 .287-.123.389t-.601.103h-1.613q-.281 0-.424-.116-.137-.124-.137-.376 0-.274.157-.369.164-.103.629-.103zm10.339-4.341q-.895 0-1.462.554-.568.554-.568 1.436 0 .868.568 1.428.567.554 1.462.554.889 0 1.457-.554.573-.56.574-1.428 0-.868-.574-1.429-.568-.561-1.457-.561m2.967 4.943q0 .957-.095 1.353a1.8 1.8 0 0 1-.329.704q-.383.507-1.073.766-.69.267-1.627.267-.779 0-1.141-.151-.356-.15-.356-.478 0-.213.171-.376a.6.6 0 0 1 .417-.158q.185 0 .567.048a4 4 0 0 0 .581.055q1.012 0 1.436-.465t.424-1.593v-.827a2.6 2.6 0 0 1-.923.711 2.8 2.8 0 0 1-1.162.226q-1.278 0-2.119-.848-.834-.855-.834-2.16 0-1.313.861-2.174.861-.868 2.133-.868.527 0 1.025.198.506.192 1.019.588v-.492q0-.144.089-.212.096-.068.294-.068h1.032q.273 0 .41.123.137.116.137.355 0 .273-.171.383-.17.11-.643.109h-.123zm6.601-7.677q0 .144-.233.622-.225.471-.341.752-.465 1.088-.664 1.989a9 9 0 0 0-.191 1.873q0 .895.164 1.737.165.834.499 1.668.171.45.465 1.059.301.615.301.759a.35.35 0 0 1-.069.232.2.2 0 0 1-.17.089q-.213 0-.472-.225-.26-.219-.602-.711a8 8 0 0 1-1.093-2.195 8 8 0 0 1-.363-2.413q0-1.155.294-2.201a8 8 0 0 1 .909-2.037q.397-.65.732-.978t.595-.328q.108 0 .17.089a.33.33 0 0 1 .069.219m6.614 4.539 1.306-3.876q.123-.383.341-.554.22-.177.581-.177h1.067q.465 0 .663.177.205.178.205.581 0 .369-.198.561-.192.191-.561.191h-.109l.191 5.1h.116q.37 0 .554.191.185.185.185.547 0 .404-.198.581-.192.178-.657.178h-1.538q-.465 0-.663-.171-.19-.177-.191-.588 0-.362.184-.547.192-.19.561-.191h.109l-.096-4.17-.998 3.104q-.108.349-.314.505-.198.151-.554.151-.355 0-.567-.151-.205-.156-.315-.505l-.991-3.104-.095 4.17h.109q.37 0 .554.191.19.185.191.547 0 .404-.198.581-.198.178-.656.178h-1.545q-.458 0-.657-.178-.198-.177-.198-.581 0-.362.185-.547.19-.19.56-.191h.11l.198-5.1h-.11q-.369 0-.567-.191-.192-.192-.191-.561 0-.403.198-.581.205-.177.67-.177h1.066q.355 0 .568.17.218.171.355.561zm6.771-1.319 1.231 2.912 1.292-2.912h-.11q-.369 0-.567-.192-.192-.19-.191-.56 0-.404.191-.575.198-.17.677-.17h1.606q.479 0 .67.177.198.17.198.568 0 .37-.191.56-.191.192-.561.192h-.116l-2.809 6.036h.307q.465 0 .663.178.205.177.205.581 0 .396-.205.574-.198.178-.663.178h-2.994q-.471 0-.67-.178-.198-.172-.198-.574 0-.404.198-.581.198-.178.67-.178h1.06l.642-1.374-2.071-4.662h-.109q-.37 0-.568-.192-.19-.19-.191-.56 0-.404.198-.575t.67-.17h1.736q.472 0 .67.177.198.17.199.568 0 .37-.199.56-.191.192-.553.192zm7.783-1.778v3.576q0 .95.329 1.353.335.397 1.107.397.773 0 1.107-.404.336-.404.335-1.346v-3.576h-.109q-.362 0-.554-.191-.184-.192-.184-.561 0-.403.191-.581.198-.177.656-.177h1.709q.465 0 .657.177.198.178.198.581 0 .369-.192.561-.184.191-.546.191h-.117v3.548q0 1.723-.745 2.495-.738.766-2.385.766-1.724 0-2.475-.752-.745-.759-.745-2.509v-3.548h-.116q-.369 0-.561-.191-.191-.192-.191-.561 0-.403.198-.581.205-.177.67-.177h1.763q.459 0 .664.177.205.178.205.581 0 .369-.199.561-.19.191-.56.191zm10.279 0v5.1h1.148q.465 0 .663.178.205.17.205.56 0 .397-.205.581-.205.178-.663.178h-4.06q-.466 0-.67-.178-.198-.177-.199-.581 0-.396.199-.567.198-.171.67-.171h1.148v-5.1h-1.148q-.466 0-.67-.177-.198-.178-.199-.575 0-.403.199-.574.198-.171.67-.171h4.06q.486 0 .677.171.192.17.191.574 0 .397-.198.575t-.67.177zm5.712 9.017q0-.137.232-.608.232-.465.355-.746a11.7 11.7 0 0 0 .657-1.996q.198-.909.198-1.873 0-.875-.171-1.716a9 9 0 0 0-.506-1.695 16 16 0 0 0-.471-1.059q-.294-.616-.294-.766a.33.33 0 0 1 .068-.219.22.22 0 0 1 .178-.089q.226 0 .478.226.26.218.602.704a7.9 7.9 0 0 1 1.093 2.194 8 8 0 0 1 .363 2.42q0 1.155-.308 2.208a8 8 0 0 1-.909 2.037q-.424.67-.745.985-.315.314-.574.314a.21.21 0 0 1-.178-.089.37.37 0 0 1-.068-.232m-230.517 5.05a.75.75 0 0 0 0 1.06l4.773 4.773a.749.749 0 1 0 1.06-1.06L633.061 164l4.242-4.243a.749.749 0 1 0-1.06-1.06zm279.53-.22H632v1.5h279z"/><rect width="160" height="40" x="916" y="230" fill="#9c3afd" rx="5"/><path fill="#fff" d="M978.508 244.523h2.226l3.297 9.704 3.274-9.704h2.203V256h-1.477v-6.773q0-.352.016-1.165.015-.812.015-1.742l-3.273 9.68h-1.539l-3.297-9.68v.352q0 .422.016 1.289.023.86.023 1.266V256h-1.484zm18.406 3.11h1.555q-.297.804-1.321 3.672-.765 2.156-1.281 3.515-1.218 3.204-1.719 3.907-.5.702-1.718.703a3.4 3.4 0 0 1-.461-.024 4 4 0 0 1-.391-.086v-1.281q.368.101.531.125.165.024.289.024.391 0 .571-.133a1.1 1.1 0 0 0 .312-.313q.04-.062.281-.64.243-.579.352-.86l-3.094-8.609h1.594l2.242 6.812zm4.646-3.11v7.094c0 .834.16 1.526.47 2.078.46.834 1.25 1.25 2.35 1.25 1.31 0 2.21-.45 2.68-1.351q.39-.735.39-1.977v-7.094h1.57v6.446q0 2.117-.57 3.258c-.69 1.385-2.01 2.078-3.95 2.078s-3.25-.693-3.95-2.078q-.568-1.141-.566-3.258v-6.446zm10.23 0h1.57V256h-1.57z"/><path fill="#9c3afd" d="M709.83 244.75h1.64q.26 0 .39.123t.13.369q0 .267-.13.376-.123.11-.444.11h-3.015q-.273 0-.417-.124-.137-.123-.137-.362 0-.273.171-.383.178-.11.65-.109h.13v-7.096h-.13q-.472 0-.65-.109-.171-.11-.171-.383 0-.239.137-.355.144-.123.417-.123h1.039q.205 0 .294.068.096.069.096.212v.663q.465-.478 1.025-.718a3.1 3.1 0 0 1 1.217-.239q1.374 0 2.297.93.923.928.923 2.331 0 1.346-.875 2.215-.876.868-2.236.868-.724 0-1.333-.253a2.7 2.7 0 0 1-1.018-.739zm2.119-2.741q.95 0 1.558-.595.609-.601.609-1.552 0-.929-.615-1.531-.609-.608-1.552-.608t-1.545.601q-.602.602-.602 1.538 0 .944.595 1.545.601.602 1.552.602m6.963.027h2.269q.267 0 .39.116.13.11.13.356 0 .28-.123.389-.117.103-.438.103h-4.47q-.267 0-.404-.123t-.137-.369q0-.24.137-.356.144-.116.438-.116h1.189v-4.382h-.465q-.663 0-.827-.102-.164-.11-.164-.39 0-.239.13-.355.137-.123.41-.123h1.559q.184 0 .28.075.096.068.096.205v1.162q.65-.814 1.353-1.21.704-.396 1.518-.396.608 0 .984.246t.376.635a.64.64 0 0 1-.191.452.56.56 0 0 1-.41.191q-.157 0-.534-.205-.369-.212-.663-.212-.533 0-1.128.383-.588.375-1.305 1.196zm6.347-1.893q.056.984.663 1.524.616.533 1.675.533.8 0 1.743-.424.944-.43 1.142-.43.205 0 .342.13a.42.42 0 0 1 .136.321.54.54 0 0 1-.143.362q-.144.165-.458.321a7 7 0 0 1-1.415.513 6 6 0 0 1-1.443.178q-1.558 0-2.495-.896-.936-.901-.936-2.385 0-1.511.991-2.448.991-.936 2.584-.936 1.442 0 2.393.875t.95 2.119q0 .382-.164.513-.157.13-.868.13zm.034-.896h4.451q-.104-.813-.684-1.306-.574-.499-1.415-.499-.909 0-1.531.479-.622.478-.821 1.326m8.501 5.503h1.641q.26 0 .39.123t.13.369q0 .267-.13.376-.123.11-.445.11h-3.014q-.274 0-.417-.124-.137-.123-.137-.362 0-.273.171-.383.178-.11.649-.109h.13v-7.096h-.13q-.471 0-.649-.109-.171-.11-.171-.383 0-.239.137-.355.143-.123.417-.123h1.039q.204 0 .294.068.095.069.095.212v.663a3.2 3.2 0 0 1 1.026-.718 3.1 3.1 0 0 1 1.217-.239q1.374 0 2.296.93.923.928.923 2.331 0 1.346-.875 2.215-.874.868-2.235.868-.724 0-1.333-.253a2.7 2.7 0 0 1-1.019-.739zm2.12-2.741q.95 0 1.558-.595.609-.601.609-1.552 0-.929-.616-1.531-.608-.608-1.551-.608-.944 0-1.545.601-.602.602-.602 1.538 0 .944.595 1.545.601.602 1.552.602m5.322-1.866q.054.984.663 1.524.615.533 1.675.533.8 0 1.743-.424.943-.43 1.141-.43.205 0 .342.13a.42.42 0 0 1 .137.321.54.54 0 0 1-.144.362q-.143.165-.458.321a6.8 6.8 0 0 1-1.415.513 6 6 0 0 1-1.442.178q-1.559 0-2.495-.896-.937-.901-.937-2.385 0-1.511.991-2.448.992-.936 2.584-.936 1.443 0 2.393.875t.95 2.119q0 .382-.164.513-.157.13-.868.13zm.034-.896h4.45q-.102-.813-.684-1.306-.573-.499-1.415-.499-.909 0-1.531.479-.622.478-.82 1.326m7.721 2.789v-4.382h-.129q-.465 0-.643-.109-.171-.11-.171-.383 0-.253.144-.362.142-.116.465-.116h.977q.185 0 .287.075.103.075.103.205v.465q.499-.465.984-.684.492-.225 1.019-.225 1.032 0 1.62.642.594.642.594 1.777v3.097h.322q.342 0 .492.116.15.11.15.356 0 .266-.164.383-.158.11-.567.109h-1.511q-.437 0-.56-.103-.123-.102-.123-.389 0-.267.143-.369.144-.103.54-.103h.239v-2.844q0-.8-.362-1.216-.362-.424-1.053-.424-.697 0-1.23.471a1.5 1.5 0 0 0-.533 1.169v2.844h.239q.41 0 .554.103.143.102.143.369 0 .287-.123.389t-.601.103h-1.614q-.28 0-.423-.116-.137-.124-.137-.376 0-.274.157-.369.164-.103.629-.103zm12.589.964q-.143 0-.205-.068-.054-.075-.054-.281v-.56a2.8 2.8 0 0 1-1.026.8q-.615.28-1.333.28-1.292 0-2.167-.916-.868-.923-.868-2.29 0-1.415.93-2.352.929-.943 2.317-.943.704 0 1.265.253.56.246.964.731v-2.618h-.363q-.595 0-.772-.102-.171-.11-.171-.39 0-.246.137-.369.143-.123.41-.123h1.401q.206 0 .294.068.096.069.096.212v7.704h.307q.335 0 .486.116.15.11.15.356a.5.5 0 0 1-.13.362.47.47 0 0 1-.348.13zm-4.477-3.069q0 .944.608 1.545.609.601 1.545.601.943 0 1.552-.622.608-.629.608-1.593 0-.95-.608-1.565-.601-.615-1.552-.615-.964 0-1.559.622-.594.621-.594 1.627m12.568-4.813a.5.5 0 0 1 .191-.26.7.7 0 0 1 .356-.075q.253 0 .355.123.103.123.103.506a49 49 0 0 0 .027 1.75q0 .321-.109.438-.11.11-.39.109-.451 0-.588-.643l-.075-.294q-.13-.512-.622-.834a2.04 2.04 0 0 0-1.155-.328q-1.21 0-1.942.889-.73.882-.731 2.372 0 1.491.738 2.379.745.882 1.962.882.396 0 .807-.11.41-.116.806-.341.185-.096.506-.322.321-.232.458-.232.212 0 .356.144.15.137.15.341a.6.6 0 0 1-.164.397q-.157.185-.595.458-.574.375-1.155.554a4.2 4.2 0 0 1-1.224.177q-1.688 0-2.789-1.189-1.1-1.197-1.1-3.056 0-1.838 1.114-3.056 1.114-1.216 2.803-1.216.451 0 .916.109.472.11.991.328m3.258 6.918v-7h-.13q-.465 0-.643-.109-.171-.11-.171-.383 0-.246.137-.369.144-.123.41-.123h1.039q.185 0 .287.075.103.075.103.205v3.097q.5-.465.984-.684.492-.225 1.019-.225 1.032 0 1.62.642.595.642.595 1.777v3.097h.321q.342 0 .492.116.15.11.151.356 0 .246-.137.369t-.41.123h-1.819q-.321 0-.437-.103-.11-.108-.109-.389 0-.274.136-.369.144-.103.533-.103h.24v-2.844q0-.8-.363-1.216-.362-.424-1.052-.424-.704 0-1.238.471a1.5 1.5 0 0 0-.526 1.169v2.844h.239q.41 0 .554.103.144.102.143.369 0 .28-.116.389-.11.103-.43.103h-1.819q-.266 0-.403-.123-.13-.123-.13-.369 0-.274.157-.369.164-.103.629-.103zm9.929-7.321q0-.738.13-.93.137-.19.574-.191.424 0 .561.164.137.157.137.759 0 .587-.13.731-.123.137-.568.137-.437 0-.574-.13-.13-.13-.13-.54m1.265 7.321h2.194q.267 0 .39.116.13.11.13.356 0 .28-.123.389-.116.103-.438.103h-5.304q-.274 0-.411-.123t-.136-.369q0-.24.143-.356.144-.116.431-.116h2.085v-4.382h-1.333q-.28 0-.431-.123-.143-.129-.143-.369 0-.239.136-.355.137-.123.411-.123h2.003a.5.5 0 0 1 .287.075q.11.075.109.205zm6.894-7h-1.162q-.663 0-.834-.102-.164-.11-.164-.39 0-.246.137-.369.143-.123.41-.123h2.256q.185 0 .287.075.103.075.103.205v7.704h2.146q.26 0 .376.116.123.11.123.356 0 .28-.116.389-.115.103-.438.103h-5.044q-.267 0-.411-.123-.136-.123-.136-.369 0-.24.143-.356.144-.116.431-.116h1.893zM801.521 243q-.143 0-.205-.068-.054-.075-.054-.281v-.56a2.8 2.8 0 0 1-1.026.8q-.615.28-1.333.28-1.292 0-2.167-.916-.868-.923-.868-2.29 0-1.415.93-2.352.929-.943 2.317-.943.704 0 1.265.253.56.246.964.731v-2.618h-.363q-.594 0-.772-.102-.171-.11-.171-.39 0-.246.137-.369.143-.123.41-.123h1.401q.205 0 .294.068.096.069.096.212v7.704h.307q.335 0 .486.116.15.11.15.356a.5.5 0 0 1-.13.362.47.47 0 0 1-.348.13zm-4.477-3.069q0 .944.608 1.545.609.601 1.545.601.943 0 1.552-.622.608-.629.608-1.593 0-.95-.608-1.565-.601-.615-1.552-.615-.964 0-1.559.622-.594.621-.594 1.627m11.796-4.97q0 .144-.233.622-.225.471-.342.752-.465 1.088-.663 1.989a9 9 0 0 0-.191 1.873q0 .895.164 1.737a9.3 9.3 0 0 0 .499 1.668q.171.45.465 1.059.3.615.301.759a.35.35 0 0 1-.069.232.2.2 0 0 1-.171.089q-.211 0-.471-.225-.26-.219-.602-.711a8 8 0 0 1-1.094-2.195 8 8 0 0 1-.362-2.413q0-1.155.294-2.201a8 8 0 0 1 .909-2.037q.396-.65.732-.978t.594-.328q.11 0 .171.089a.33.33 0 0 1 .069.219m6.614 4.539 1.305-3.876q.123-.383.342-.554.22-.177.581-.177h1.067q.465 0 .663.177.205.178.205.581 0 .369-.198.561-.192.191-.561.191h-.109l.191 5.1h.116q.37 0 .554.191.185.185.185.547 0 .404-.199.581-.19.178-.656.178h-1.538q-.465 0-.663-.171-.191-.177-.191-.588 0-.362.184-.547.192-.19.561-.191h.109l-.096-4.17-.998 3.104q-.109.349-.314.505-.198.151-.554.151t-.567-.151q-.205-.156-.315-.505l-.991-3.104-.096 4.17h.11q.369 0 .553.191.192.185.192.547 0 .404-.198.581-.199.178-.657.178h-1.545q-.458 0-.656-.178-.198-.177-.198-.581 0-.362.184-.547.192-.19.561-.191h.109l.199-5.1h-.11q-.369 0-.567-.191-.192-.192-.192-.561 0-.403.199-.581.205-.177.67-.177h1.066q.356 0 .567.17.22.171.356.561zm6.771-1.319 1.231 2.912 1.292-2.912h-.11q-.369 0-.567-.192-.192-.19-.192-.56 0-.404.192-.575.198-.17.677-.17h1.606q.478 0 .67.177.198.17.198.568 0 .37-.191.56-.192.192-.561.192h-.116l-2.81 6.036h.308q.465 0 .663.178.205.177.205.581 0 .396-.205.574-.198.177-.663.178h-2.994q-.471 0-.67-.178-.198-.172-.198-.574 0-.404.198-.581.199-.178.67-.178h1.06l.642-1.374-2.071-4.662h-.11q-.369 0-.567-.192-.192-.19-.191-.56 0-.404.198-.575t.67-.17h1.736q.472 0 .67.177.198.17.198.568 0 .37-.198.56-.192.192-.554.192zm7.783-1.778v3.576q0 .95.328 1.353.336.397 1.108.397.773 0 1.107-.404.336-.404.335-1.346v-3.576h-.109q-.362 0-.554-.191-.184-.192-.184-.561 0-.403.191-.581.198-.177.656-.177h1.709q.465 0 .656.177.2.178.199.581 0 .369-.192.561-.184.191-.547.191h-.116v3.548q0 1.723-.745 2.495-.738.766-2.386.766-1.722 0-2.474-.752-.745-.759-.745-2.509v-3.548h-.117q-.37 0-.56-.191-.192-.192-.192-.561 0-.403.199-.581.205-.177.67-.177h1.763q.459 0 .663.177.205.178.205.581 0 .369-.198.561-.19.191-.56.191zm10.279 0v5.1h1.148q.465 0 .663.178.205.17.205.56 0 .397-.205.581-.205.178-.663.178h-4.061q-.464 0-.67-.178-.198-.177-.198-.581 0-.396.198-.567.2-.171.67-.171h1.149v-5.1h-1.149q-.464 0-.67-.177-.198-.178-.198-.575 0-.403.198-.574.2-.171.67-.171h4.061q.485 0 .677.171.19.17.191.574 0 .397-.198.575t-.67.177zm5.711 9.017q0-.137.233-.608.232-.465.355-.746.459-1.093.656-1.996a8.7 8.7 0 0 0 .199-1.873q0-.875-.171-1.716a9 9 0 0 0-.506-1.695 16 16 0 0 0-.472-1.059q-.294-.616-.294-.766a.33.33 0 0 1 .069-.219.21.21 0 0 1 .177-.089q.226 0 .479.226.26.218.602.704a7.9 7.9 0 0 1 1.093 2.194 8 8 0 0 1 .363 2.42q0 1.155-.308 2.208a8 8 0 0 1-.909 2.037q-.424.67-.745.985-.314.314-.575.314a.21.21 0 0 1-.177-.089.37.37 0 0 1-.069-.232m-249.528 5.05a.75.75 0 0 0 0 1.06l4.773 4.773a.749.749 0 1 0 1.06-1.06L598.061 251l4.242-4.243a.749.749 0 1 0-1.06-1.06zm314.53-.22H597v1.5h314z"/><rect width="160" height="50" x="916" y="285" fill="#9c3afd" rx="5"/><path fill="#fff" d="M978.508 304.523h2.226l3.297 9.704 3.274-9.704h2.203V316h-1.477v-6.773q0-.352.016-1.165.015-.812.015-1.742l-3.273 9.68h-1.539l-3.297-9.68v.352q0 .422.016 1.289.023.86.023 1.266V316h-1.484zm18.406 3.11h1.555q-.297.804-1.321 3.672-.765 2.156-1.281 3.515-1.218 3.204-1.719 3.907-.5.702-1.718.703a3.4 3.4 0 0 1-.461-.024 4 4 0 0 1-.391-.086v-1.281q.368.101.531.125.165.024.289.024.391 0 .571-.133a1.1 1.1 0 0 0 .312-.313q.04-.062.281-.64.243-.579.352-.86l-3.094-8.609h1.594l2.242 6.812zm4.646-3.11v7.094c0 .834.16 1.526.47 2.078.46.834 1.25 1.25 2.35 1.25 1.31 0 2.21-.45 2.68-1.351q.39-.735.39-1.977v-7.094h1.57v6.446q0 2.117-.57 3.258c-.69 1.385-2.01 2.078-3.95 2.078s-3.25-.693-3.95-2.078q-.568-1.142-.566-3.258v-6.446zm10.23 0h1.57V316h-1.57z"/><path fill="#9c3afd" d="M710.918 302.036h2.269q.267 0 .39.116.13.11.13.356 0 .28-.123.389-.117.103-.438.103h-4.471q-.266 0-.403-.123t-.137-.369q0-.24.137-.356.144-.116.438-.116h1.189v-4.382h-.465q-.663 0-.827-.102-.164-.11-.164-.39 0-.239.13-.355.137-.123.41-.123h1.559q.184 0 .28.075.096.068.096.205v1.162q.65-.814 1.353-1.21.704-.396 1.518-.396.607 0 .984.246.376.246.376.635a.64.64 0 0 1-.191.452.56.56 0 0 1-.41.191q-.158 0-.534-.205-.369-.212-.663-.212-.533 0-1.128.383-.588.375-1.305 1.196zm6.347-1.893q.056.984.663 1.524.616.533 1.675.533.8 0 1.743-.424.944-.43 1.142-.43.206 0 .342.13a.42.42 0 0 1 .136.321.54.54 0 0 1-.143.362q-.144.165-.458.321a7 7 0 0 1-1.415.513 6 6 0 0 1-1.443.178q-1.558 0-2.495-.896-.936-.901-.936-2.385 0-1.511.991-2.448.991-.936 2.584-.936 1.443 0 2.393.875t.95 2.119q0 .383-.164.513-.158.13-.869.13zm.034-.896h4.451q-.103-.813-.684-1.306-.575-.499-1.415-.499-.91 0-1.531.479-.622.478-.821 1.326m8.501 5.503h1.641q.26 0 .39.123.129.123.129.369 0 .267-.129.376-.123.11-.445.11h-3.014q-.274 0-.417-.124-.138-.123-.137-.362 0-.273.171-.383.178-.11.649-.109h.13v-7.096h-.13q-.471 0-.649-.109-.171-.11-.171-.383 0-.239.137-.355.143-.123.417-.123h1.039q.204 0 .294.068.095.069.095.212v.663a3.2 3.2 0 0 1 1.026-.718 3.1 3.1 0 0 1 1.216-.239q1.374 0 2.297.93.923.928.923 2.331 0 1.346-.875 2.215t-2.235.868q-.725 0-1.333-.253a2.7 2.7 0 0 1-1.019-.739zm2.119-2.741q.95 0 1.559-.595.608-.601.608-1.552 0-.929-.615-1.531-.608-.608-1.552-.608-.942 0-1.545.601-.601.602-.601 1.538 0 .944.595 1.545.601.602 1.551.602m7.175-6.973h-1.162q-.663 0-.834-.102-.164-.11-.164-.39 0-.246.137-.369.143-.123.41-.123h2.256a.5.5 0 0 1 .287.075.24.24 0 0 1 .102.205v7.704h2.147q.26 0 .376.116.123.11.123.356 0 .28-.116.389-.117.103-.438.103h-5.045q-.266 0-.41-.123-.137-.123-.137-.369 0-.24.144-.356t.431-.116h1.893zm9.964 4.943a4.5 4.5 0 0 0-.732-.178 4 4 0 0 0-.697-.062q-1.052 0-1.661.356-.608.356-.608.957 0 .465.376.765.382.301.97.301.869 0 1.607-.451.745-.458.745-.95zm.055 2.153a4.1 4.1 0 0 1-1.224.772 3.6 3.6 0 0 1-1.354.267q-1.018 0-1.647-.567-.622-.568-.622-1.477 0-1.08.827-1.675.834-.595 2.338-.595.396 0 .8.055.403.048.827.157v-.048q0-.786-.376-1.162t-1.169-.376q-.533 0-1.189.288-.656.287-.869.287a.41.41 0 0 1-.328-.158.65.65 0 0 1-.13-.417q0-.402.752-.683.759-.28 1.935-.28 1.203 0 1.818.615.615.608.616 1.804v3.097h.334q.486 0 .65.103.164.102.164.369 0 .246-.137.369t-.41.123h-1.073a.44.44 0 0 1-.315-.116.6.6 0 0 1-.164-.335zm8.473-5.038v-.028q0-.225.13-.328.13-.11.403-.109.28 0 .383.164.11.164.11.677v1.271q0 .253-.13.383-.13.123-.39.123a.52.52 0 0 1-.321-.102q-.13-.11-.322-.445a2.3 2.3 0 0 0-.799-.834 2 2 0 0 0-1.074-.287q-1.066 0-1.736.629-.663.629-.663 1.627 0 1.019.636 1.668.642.642 1.647.643a3 3 0 0 0 .868-.124q.417-.13.786-.382a5 5 0 0 0 .349-.253q.445-.363.697-.363.213 0 .342.137a.45.45 0 0 1 .137.342q0 .54-1.025 1.107a4.4 4.4 0 0 1-2.167.561q-1.483 0-2.475-.95-.984-.95-.984-2.372t.984-2.372q.984-.957 2.461-.957.52 0 1.039.143.526.137 1.114.431m3.62 3.049q.056.984.663 1.524.615.533 1.675.533.8 0 1.743-.424.944-.43 1.142-.43.205 0 .342.13a.42.42 0 0 1 .136.321.54.54 0 0 1-.143.362q-.144.165-.458.321a7 7 0 0 1-1.415.513 6 6 0 0 1-1.443.178q-1.558 0-2.495-.896-.936-.901-.936-2.385 0-1.511.991-2.448.991-.936 2.584-.936 1.442 0 2.393.875t.95 2.119q0 .383-.164.513-.158.13-.868.13zm.034-.896h4.451q-.104-.813-.684-1.306-.574-.499-1.415-.499-.91 0-1.531.479-.622.478-.821 1.326m8.501 2.003 1.176-4.088q.062-.219.137-.273.081-.062.287-.062h.308q.198 0 .28.062.088.062.15.246l1.333 4.115.67-5.435h-1.073q-.315 0-.465-.109-.144-.11-.144-.349 0-.26.137-.362.144-.102.527-.102h2.208q.15 0 .266.136a.47.47 0 0 1 .116.328q0 .233-.13.349-.13.11-.389.109h-.082l-.971 6.836q-.02.213-.082.281-.054.068-.184.068h-.486a.4.4 0 0 1-.239-.062.5.5 0 0 1-.144-.232l-1.483-4.703-1.313 4.717q-.046.171-.123.225-.075.055-.246.055h-.512q-.138 0-.205-.062-.062-.067-.089-.3l-1.039-6.823h-.082q-.267 0-.404-.116-.13-.115-.13-.342 0-.204.11-.335a.34.34 0 0 1 .266-.129h2.215q.377 0 .513.102.144.102.143.362 0 .24-.15.349-.144.11-.451.109h-.964zm9.123-6.535q0-.738.13-.93.137-.19.574-.191.425 0 .561.164.137.157.137.759 0 .587-.13.731-.123.137-.568.137-.437 0-.574-.13-.13-.13-.13-.54m1.265 7.321h2.194q.267 0 .39.116.13.11.13.356 0 .28-.123.389-.117.103-.438.103h-5.304q-.274 0-.411-.123t-.136-.369q0-.24.143-.356t.431-.116h2.085v-4.382h-1.333q-.28 0-.431-.123-.144-.129-.143-.369 0-.239.136-.355.137-.123.41-.123h2.003q.185 0 .288.075.109.075.109.205zm9.219-4.97q.335 0 .485.117.157.115.157.369 0 .239-.143.362-.144.116-.431.116h-2.769v2.283q0 1.122.287 1.477.294.356.999.356.621 0 1.49-.363.868-.362 1.073-.362a.42.42 0 0 1 .321.137.46.46 0 0 1 .137.335q0 .225-.171.396-.163.164-.567.321-.67.267-1.21.39a4.5 4.5 0 0 1-1.005.123q-.8 0-1.347-.253a1.72 1.72 0 0 1-.806-.766 1.8 1.8 0 0 1-.199-.567q-.054-.328-.054-1.012v-2.495h-1.162q-.288 0-.417-.109-.13-.117-.13-.369 0-.28.177-.383.178-.103.759-.103h.773v-1.763q0-.294.123-.431.129-.144.396-.143.302 0 .417.17.116.171.116.78v1.387zm3.551 4.97v-7h-.13q-.465 0-.642-.109-.171-.11-.171-.383 0-.246.137-.369.143-.123.41-.123h1.039q.185 0 .287.075a.24.24 0 0 1 .102.205v3.097a3.7 3.7 0 0 1 .985-.684q.492-.225 1.018-.225 1.033 0 1.621.642.594.642.594 1.777v3.097h.322q.34 0 .492.116.15.11.15.356t-.137.369-.41.123h-1.818q-.321 0-.438-.103-.11-.108-.109-.389 0-.274.137-.369.143-.103.533-.103h.239v-2.844q0-.8-.362-1.216-.363-.424-1.053-.424-.704 0-1.237.471a1.51 1.51 0 0 0-.527 1.169v2.844h.24q.41 0 .553.103.144.102.144.369 0 .28-.116.389-.11.103-.431.103h-1.818q-.266 0-.404-.123-.129-.123-.129-.369 0-.274.157-.369.164-.103.629-.103zm11.946-7.075q0 .144-.232.622-.225.471-.342.752-.465 1.088-.663 1.989a9 9 0 0 0-.191 1.873q0 .895.164 1.737a9.3 9.3 0 0 0 .499 1.668q.171.45.465 1.059.3.615.3.759 0 .15-.068.232a.2.2 0 0 1-.171.089q-.212 0-.471-.225-.26-.219-.602-.711a8 8 0 0 1-1.094-2.195 8 8 0 0 1-.362-2.413q0-1.155.294-2.201.3-1.053.909-2.037.396-.65.731-.978.336-.327.595-.328.11 0 .171.089a.33.33 0 0 1 .068.219m6.615 4.539 1.305-3.876q.123-.383.342-.554.22-.177.581-.177h1.067q.463 0 .663.177.204.178.205.581 0 .369-.199.561-.19.191-.56.191h-.109l.191 5.1h.116q.37 0 .554.191.184.185.184.547 0 .404-.198.581-.19.178-.656.178h-1.538q-.465 0-.663-.171-.192-.177-.192-.588 0-.362.185-.547.191-.19.561-.191h.109l-.096-4.17-.998 3.104q-.11.349-.314.505-.198.151-.554.151-.355 0-.567-.151-.205-.156-.315-.505l-.991-3.104-.096 4.17h.11q.369 0 .553.191.192.185.192.547 0 .404-.199.581-.197.178-.656.178h-1.545q-.458 0-.656-.178-.198-.177-.198-.581 0-.362.184-.547.192-.19.561-.191h.109l.199-5.1h-.11q-.369 0-.567-.191-.192-.192-.192-.561 0-.403.199-.581.205-.177.67-.177h1.066q.355 0 .567.17.22.171.356.561zm6.771-1.319 1.231 2.912 1.292-2.912h-.11q-.369 0-.567-.192-.192-.19-.192-.56 0-.404.192-.575.198-.17.677-.17h1.606q.478 0 .67.177.198.17.198.568 0 .37-.191.56-.192.192-.561.192h-.116l-2.81 6.036h.308q.465 0 .663.178.205.177.205.581 0 .396-.205.574-.198.177-.663.178h-2.994q-.472 0-.67-.178-.198-.171-.198-.574 0-.404.198-.581.198-.178.67-.178h1.059l.643-1.374-2.071-4.662h-.11q-.369 0-.567-.192-.192-.19-.191-.56 0-.404.198-.575t.67-.17h1.736q.472 0 .67.177.198.17.198.568 0 .37-.198.56-.192.192-.554.192zm7.783-1.778v3.576q0 .95.328 1.353.336.396 1.108.397.773 0 1.107-.404.335-.404.335-1.346v-3.576h-.109q-.363 0-.554-.191-.185-.192-.185-.561 0-.403.192-.581.198-.177.656-.177h1.709q.465 0 .656.177.2.178.199.581 0 .369-.192.561-.184.191-.547.191h-.116v3.548q0 1.723-.745 2.495-.738.766-2.386.766-1.722 0-2.474-.752-.745-.759-.745-2.509v-3.548h-.117q-.37 0-.56-.191-.192-.192-.192-.561 0-.403.199-.581.204-.177.67-.177h1.763q.459 0 .663.177.205.178.205.581 0 .369-.198.561-.19.191-.56.191zm10.278 0v5.1h1.149q.465 0 .663.178.205.17.205.56 0 .397-.205.581-.205.178-.663.178h-4.061q-.465 0-.67-.178-.198-.177-.198-.581 0-.396.198-.567.2-.171.67-.171h1.149v-5.1h-1.149q-.465 0-.67-.177-.198-.178-.198-.575 0-.403.198-.574.2-.171.67-.171h4.061q.485 0 .677.171.19.17.191.574 0 .397-.198.575-.199.177-.67.177zm5.712 9.017q0-.137.233-.608.232-.465.355-.746.458-1.093.656-1.996a8.7 8.7 0 0 0 .199-1.873q0-.875-.171-1.716a9 9 0 0 0-.506-1.695 16 16 0 0 0-.472-1.059q-.294-.616-.294-.766a.33.33 0 0 1 .069-.219.21.21 0 0 1 .177-.089q.226 0 .479.226.26.218.601.704a7.9 7.9 0 0 1 1.094 2.194 8 8 0 0 1 .362 2.42q0 1.155-.307 2.208a8 8 0 0 1-.909 2.037q-.424.67-.745.985-.314.314-.575.314a.21.21 0 0 1-.177-.089.37.37 0 0 1-.069-.232m-241.534 5.05a.75.75 0 0 0 0 1.06l4.773 4.773a.749.749 0 1 0 1.06-1.06L598.061 311l4.242-4.243a.749.749 0 1 0-1.06-1.06zm314.53-.22H597v1.5h314z"/><rect width="160" height="40" x="916" y="350" fill="#9c3afd" rx="5"/><path fill="#fff" d="M978.508 364.523h2.226l3.297 9.704 3.274-9.704h2.203V376h-1.477v-6.773q0-.352.016-1.165.015-.812.015-1.742l-3.273 9.68h-1.539l-3.297-9.68v.352q0 .422.016 1.289.023.86.023 1.266V376h-1.484zm18.406 3.11h1.555q-.297.804-1.321 3.672-.765 2.156-1.281 3.515-1.218 3.204-1.719 3.907-.5.703-1.718.703a3.4 3.4 0 0 1-.461-.024 4 4 0 0 1-.391-.086v-1.281q.368.101.531.125.165.024.289.024.391 0 .571-.133a1.1 1.1 0 0 0 .312-.313q.04-.062.281-.64.243-.578.352-.86l-3.094-8.609h1.594l2.242 6.812zm4.646-3.11v7.094c0 .834.16 1.526.47 2.078.46.834 1.25 1.25 2.35 1.25 1.31 0 2.21-.45 2.68-1.351q.39-.735.39-1.977v-7.094h1.57v6.446q0 2.117-.57 3.258c-.69 1.385-2.01 2.078-3.95 2.078s-3.25-.693-3.95-2.078q-.568-1.142-.566-3.258v-6.446zm10.23 0h1.57V376h-1.57z"/><path fill="#9c3afd" d="M713.105 359.979a4.5 4.5 0 0 0-.731-.178 4 4 0 0 0-.698-.062q-1.052 0-1.661.356-.608.356-.608.957 0 .465.376.765.383.301.971.301.868 0 1.606-.451.745-.458.745-.95zm.055 2.153a4.1 4.1 0 0 1-1.224.772 3.6 3.6 0 0 1-1.353.267q-1.019 0-1.648-.567-.622-.568-.622-1.477 0-1.08.827-1.675.835-.595 2.338-.595.396 0 .8.055.404.048.827.157v-.048q0-.786-.376-1.162t-1.169-.376q-.533 0-1.189.288-.657.287-.868.287a.41.41 0 0 1-.329-.158.65.65 0 0 1-.129-.417q0-.402.752-.683.758-.28 1.934-.28 1.203 0 1.818.615.616.608.616 1.804v3.097h.335q.485 0 .649.103.164.102.164.369 0 .246-.137.369-.136.123-.41.123h-1.073a.44.44 0 0 1-.314-.116.6.6 0 0 1-.165-.335zm4.652 2.618h1.641q.26 0 .389.123.13.123.13.369 0 .267-.13.376-.123.11-.444.11h-3.015q-.273 0-.417-.124-.136-.123-.136-.362 0-.273.171-.383.178-.11.649-.109h.13v-7.096h-.13q-.471 0-.649-.109-.171-.11-.171-.383 0-.239.136-.355.144-.123.417-.123h1.039q.205 0 .294.068.096.069.096.212v.663q.465-.478 1.025-.718a3.1 3.1 0 0 1 1.217-.239q1.374 0 2.297.93.923.928.923 2.331 0 1.346-.875 2.215-.874.868-2.235.868-.725 0-1.333-.253a2.7 2.7 0 0 1-1.019-.739zm2.119-2.741q.95 0 1.559-.595.608-.601.608-1.552 0-.929-.615-1.531-.609-.608-1.552-.608t-1.545.601-.601 1.538q0 .944.594 1.545.602.602 1.552.602m5.869 2.741h1.641q.26 0 .39.123.129.123.129.369 0 .267-.129.376-.123.11-.445.11h-3.014q-.274 0-.417-.124-.138-.123-.137-.362 0-.273.171-.383.178-.11.649-.109h.13v-7.096h-.13q-.471 0-.649-.109-.171-.11-.171-.383 0-.239.137-.355.143-.123.417-.123h1.039q.204 0 .294.068.095.069.095.212v.663a3.2 3.2 0 0 1 1.026-.718 3.1 3.1 0 0 1 1.216-.239q1.374 0 2.297.93.923.928.923 2.331 0 1.346-.875 2.215t-2.235.868q-.725 0-1.333-.253a2.7 2.7 0 0 1-1.019-.739zm2.119-2.741q.95 0 1.559-.595.608-.601.608-1.552 0-.929-.615-1.531-.608-.608-1.552-.608-.942 0-1.545.601-.601.602-.601 1.538 0 .944.595 1.545.601.602 1.551.602m5.323-1.866q.054.984.663 1.524.615.533 1.674.533.8 0 1.744-.424.943-.43 1.141-.43.205 0 .342.13a.42.42 0 0 1 .137.321.54.54 0 0 1-.144.362q-.143.165-.458.321a7 7 0 0 1-1.415.513 6 6 0 0 1-1.442.178q-1.559 0-2.495-.896-.937-.901-.937-2.385 0-1.511.991-2.448.991-.936 2.584-.936 1.442 0 2.393.875t.95 2.119q0 .382-.164.513-.157.13-.868.13zm.034-.896h4.45q-.102-.813-.684-1.306-.573-.499-1.415-.499-.909 0-1.531.479-.622.478-.82 1.326m7.721 2.789v-4.382h-.129q-.465 0-.643-.109-.171-.11-.171-.383 0-.253.144-.362.143-.116.464-.116h.978q.185 0 .287.075.103.075.103.205v.465q.498-.465.984-.684.492-.225 1.019-.225 1.032 0 1.62.642.594.642.594 1.777v3.097h.322q.342 0 .492.116.15.11.15.356 0 .267-.164.383-.158.11-.567.109h-1.511q-.437 0-.56-.103-.124-.102-.124-.389 0-.267.144-.369.144-.103.54-.103h.239v-2.844q0-.8-.362-1.216-.362-.424-1.053-.424-.698 0-1.23.471a1.5 1.5 0 0 0-.533 1.169v2.844h.239q.41 0 .554.103.143.102.143.369 0 .287-.123.389t-.601.103h-1.614q-.28 0-.424-.116-.136-.124-.136-.376 0-.274.157-.369.164-.103.629-.103zm12.589.964q-.144 0-.205-.068-.054-.075-.055-.281v-.56a2.8 2.8 0 0 1-1.025.8q-.615.28-1.333.28-1.292 0-2.167-.916-.868-.923-.868-2.29 0-1.415.93-2.352.929-.943 2.317-.943.704 0 1.265.253.56.246.963.731v-2.618h-.362q-.594 0-.772-.102-.171-.11-.171-.39 0-.246.136-.369.144-.123.411-.123h1.401q.205 0 .294.068.096.069.096.212v7.704h.307q.335 0 .486.116.15.11.15.356a.5.5 0 0 1-.13.362.47.47 0 0 1-.348.13zm-4.477-3.069q0 .944.608 1.545.609.601 1.545.601.943 0 1.552-.622.608-.628.608-1.593 0-.95-.608-1.565-.602-.615-1.552-.615-.964 0-1.559.622-.594.621-.594 1.627m12.568-4.813a.5.5 0 0 1 .191-.26.7.7 0 0 1 .356-.075q.253 0 .355.123.103.123.103.506 0 .67.013 1.251.015.574.014.499 0 .321-.109.438-.11.11-.39.109-.452 0-.588-.643l-.075-.294q-.13-.512-.622-.834a2.04 2.04 0 0 0-1.155-.328q-1.21 0-1.942.889-.73.882-.731 2.372 0 1.491.738 2.379.745.882 1.962.882.396 0 .807-.11.41-.116.806-.341.185-.096.506-.322.321-.232.458-.232.212 0 .356.144.15.137.15.341a.6.6 0 0 1-.164.397q-.157.185-.595.458-.575.375-1.155.554a4.2 4.2 0 0 1-1.224.177q-1.688 0-2.789-1.189-1.1-1.196-1.1-3.056 0-1.838 1.114-3.056 1.114-1.216 2.803-1.216.45 0 .916.109.471.11.991.328m3.258 6.918v-7h-.13q-.465 0-.643-.109-.171-.11-.171-.383 0-.246.137-.369.143-.123.41-.123h1.039q.185 0 .287.075.103.075.103.205v3.097q.5-.465.984-.684.492-.225 1.019-.225 1.032 0 1.62.642.595.642.595 1.777v3.097h.321q.342 0 .492.116.15.11.151.356 0 .246-.137.369t-.41.123h-1.819q-.321 0-.437-.103-.11-.108-.11-.389 0-.274.137-.369.144-.103.533-.103h.24v-2.844q0-.8-.363-1.216-.362-.424-1.052-.424-.705 0-1.238.471a1.5 1.5 0 0 0-.526 1.169v2.844h.239q.41 0 .554.103.144.102.143.369 0 .28-.116.389-.11.103-.43.103h-1.819q-.267 0-.403-.123-.13-.123-.13-.369 0-.274.157-.369.165-.103.629-.103zm9.929-7.321q0-.738.13-.93.137-.19.574-.191.425 0 .561.164.137.157.137.759 0 .587-.13.731-.123.137-.568.137-.437 0-.574-.13-.13-.13-.13-.54m1.265 7.321h2.194q.267 0 .39.116.13.11.13.356 0 .28-.123.389-.117.103-.438.103h-5.304q-.274 0-.411-.123t-.136-.369q0-.24.143-.356t.431-.116h2.085v-4.382h-1.333q-.28 0-.431-.123-.144-.129-.143-.369 0-.239.136-.355.137-.123.41-.123h2.003q.185 0 .288.075.109.075.109.205zm6.894-7h-1.162q-.663 0-.834-.102-.164-.11-.164-.39 0-.246.137-.369.144-.123.41-.123h2.256q.185 0 .287.075t.103.205v7.704h2.146q.26 0 .376.116.123.11.123.356 0 .28-.116.389-.116.103-.438.103h-5.045q-.266 0-.41-.123-.136-.123-.136-.369 0-.24.143-.356t.431-.116h1.893zM793.527 363q-.144 0-.205-.068-.054-.075-.055-.281v-.56a2.8 2.8 0 0 1-1.025.8q-.615.28-1.333.28-1.292 0-2.167-.916-.868-.923-.868-2.29 0-1.415.93-2.352.929-.943 2.317-.943.704 0 1.265.253.56.246.963.731v-2.618h-.362q-.595 0-.772-.102-.171-.11-.171-.39 0-.246.137-.369.143-.123.41-.123h1.401q.206 0 .294.068.096.069.096.212v7.704h.307q.335 0 .486.116.15.11.15.356a.5.5 0 0 1-.13.362.47.47 0 0 1-.348.13zm-4.477-3.069q0 .944.608 1.545.609.601 1.545.601.943 0 1.552-.622.608-.628.608-1.593 0-.95-.608-1.565-.602-.615-1.552-.615-.964 0-1.559.622-.594.621-.594 1.627m11.795-4.97q0 .144-.232.622-.225.471-.342.752-.465 1.088-.663 1.989a9 9 0 0 0-.191 1.873q0 .895.164 1.737a9.3 9.3 0 0 0 .499 1.668q.171.45.465 1.059.3.615.3.759 0 .15-.068.232a.2.2 0 0 1-.171.089q-.212 0-.471-.225-.26-.219-.602-.711a8 8 0 0 1-1.094-2.195 8 8 0 0 1-.362-2.413q0-1.155.294-2.201.3-1.053.909-2.037.396-.65.731-.978.336-.327.595-.328.11 0 .171.089a.33.33 0 0 1 .068.219m6.615 4.539 1.305-3.876q.123-.383.342-.554.22-.177.581-.177h1.067q.463 0 .663.177.204.178.205.581 0 .369-.199.561-.19.191-.56.191h-.109l.191 5.1h.116q.37 0 .554.191.184.185.184.547 0 .404-.198.581-.19.178-.656.178h-1.538q-.465 0-.663-.171-.192-.177-.192-.588 0-.362.185-.547.191-.19.561-.191h.109l-.096-4.17-.998 3.104q-.11.349-.314.505-.198.151-.554.151-.355 0-.567-.151-.205-.156-.315-.505l-.991-3.104-.096 4.17h.11q.369 0 .553.191.192.185.192.547 0 .404-.199.581-.197.178-.656.178h-1.545q-.458 0-.656-.178-.198-.177-.198-.581 0-.362.184-.547.192-.19.561-.191h.109l.199-5.1h-.11q-.369 0-.567-.191-.192-.192-.192-.561 0-.403.199-.581.205-.177.67-.177h1.066q.355 0 .567.17.22.171.356.561zm6.771-1.319 1.231 2.912 1.292-2.912h-.11q-.369 0-.567-.192-.192-.19-.192-.56 0-.404.192-.575.198-.17.677-.17h1.606q.478 0 .67.177.198.17.198.568 0 .37-.191.56-.192.192-.561.192h-.116l-2.81 6.036h.308q.465 0 .663.178.205.177.205.581 0 .396-.205.574-.198.177-.663.178h-2.994q-.472 0-.67-.178-.198-.171-.198-.574 0-.404.198-.581.198-.178.67-.178h1.059l.643-1.374-2.071-4.662h-.11q-.369 0-.567-.192-.192-.19-.191-.56 0-.404.198-.575t.67-.17h1.736q.472 0 .67.177.198.17.198.568 0 .37-.198.56-.192.192-.554.192zm7.783-1.778v3.576q0 .95.328 1.353.336.396 1.108.397.773 0 1.107-.404.335-.404.335-1.346v-3.576h-.109q-.363 0-.554-.191-.185-.192-.185-.561 0-.403.192-.581.198-.177.656-.177h1.709q.465 0 .656.177.2.178.199.581 0 .369-.192.561-.184.191-.547.191h-.116v3.548q0 1.723-.745 2.495-.738.766-2.386.766-1.722 0-2.474-.752-.745-.759-.745-2.509v-3.548h-.117q-.37 0-.56-.191-.192-.192-.192-.561 0-.403.199-.581.204-.177.67-.177h1.763q.459 0 .663.177.205.178.205.581 0 .369-.198.561-.19.191-.56.191zm10.278 0v5.1h1.149q.465 0 .663.178.205.17.205.56 0 .397-.205.581-.205.178-.663.178h-4.061q-.465 0-.67-.178-.198-.177-.198-.581 0-.396.198-.567.2-.171.67-.171h1.149v-5.1h-1.149q-.465 0-.67-.177-.198-.178-.198-.575 0-.403.198-.574.2-.171.67-.171h4.061q.485 0 .677.171.19.17.191.574 0 .397-.198.575-.199.177-.67.177zm5.712 9.017q0-.137.233-.608.232-.465.355-.746.458-1.093.656-1.996a8.7 8.7 0 0 0 .199-1.873q0-.875-.171-1.716a9 9 0 0 0-.506-1.695 16 16 0 0 0-.472-1.059q-.294-.616-.294-.766a.33.33 0 0 1 .069-.219.21.21 0 0 1 .177-.089q.226 0 .479.226.26.218.601.704a7.9 7.9 0 0 1 1.094 2.194 8 8 0 0 1 .362 2.42q0 1.155-.307 2.208a8 8 0 0 1-.909 2.037q-.424.67-.745.985-.314.314-.575.314a.21.21 0 0 1-.177-.089.37.37 0 0 1-.069-.232m-241.534 5.05a.75.75 0 0 0 0 1.06l4.773 4.773a.749.749 0 1 0 1.06-1.06L598.061 371l4.242-4.243a.749.749 0 1 0-1.06-1.06zm314.53-.22H597v1.5h314z"/><rect width="160" height="50" x="916" y="429" fill="#9c3afd" rx="5"/><path fill="#fff" d="M978.508 448.523h2.226l3.297 9.704 3.274-9.704h2.203V460h-1.477v-6.773q0-.352.016-1.165.015-.812.015-1.742l-3.273 9.68h-1.539l-3.297-9.68v.352q0 .422.016 1.289.023.86.023 1.266V460h-1.484zm18.406 3.11h1.555q-.297.804-1.321 3.672-.765 2.156-1.281 3.515-1.218 3.204-1.719 3.907-.5.703-1.718.703a3.4 3.4 0 0 1-.461-.024 4 4 0 0 1-.391-.086v-1.281q.368.101.531.125.165.024.289.024.391 0 .571-.133a1.1 1.1 0 0 0 .312-.313q.04-.062.281-.64.243-.578.352-.86l-3.094-8.609h1.594l2.242 6.812zm4.646-3.11v7.094c0 .834.16 1.526.47 2.078.46.834 1.25 1.25 2.35 1.25 1.31 0 2.21-.45 2.68-1.351q.39-.735.39-1.977v-7.094h1.57v6.446q0 2.117-.57 3.258c-.69 1.385-2.01 2.078-3.95 2.078s-3.25-.693-3.95-2.078q-.568-1.142-.566-3.258v-6.446zm10.23 0h1.57V460h-1.57z"/><path fill="#9c3afd" d="M713.117 443.979a4.5 4.5 0 0 0-.732-.178 4 4 0 0 0-.697-.062q-1.053 0-1.661.356t-.608.957q0 .465.376.765.382.301.97.301.869 0 1.607-.451.745-.458.745-.95zm.055 2.153a4.1 4.1 0 0 1-1.224.772 3.6 3.6 0 0 1-1.354.267q-1.018 0-1.647-.567-.622-.568-.622-1.477 0-1.08.827-1.675.834-.595 2.338-.595.396 0 .8.055.403.048.827.157v-.048q0-.786-.376-1.162t-1.169-.376q-.533 0-1.189.288-.657.287-.869.287a.41.41 0 0 1-.328-.158.65.65 0 0 1-.13-.417q0-.402.752-.683.759-.28 1.935-.28 1.203 0 1.818.615.615.608.615 1.804v3.097h.335q.485 0 .65.103.164.102.164.369 0 .246-.137.369t-.41.123h-1.073a.44.44 0 0 1-.315-.116.6.6 0 0 1-.164-.335zm4.652 2.618h1.64q.261 0 .39.123.13.123.13.369 0 .267-.13.376-.123.11-.444.11h-3.015q-.273 0-.417-.124-.137-.123-.137-.362 0-.273.171-.383.178-.11.65-.109h.13v-7.096h-.13q-.472 0-.65-.109-.171-.11-.171-.383 0-.239.137-.355.144-.123.417-.123h1.039q.206 0 .294.068.096.069.096.212v.663q.465-.478 1.025-.718a3.1 3.1 0 0 1 1.217-.239q1.374 0 2.297.93.923.928.923 2.331 0 1.346-.875 2.215-.876.868-2.236.868-.724 0-1.333-.253a2.7 2.7 0 0 1-1.018-.739zm2.119-2.741q.95 0 1.559-.595.608-.601.608-1.552 0-.929-.615-1.531-.609-.608-1.552-.608t-1.545.601-.601 1.538q0 .944.594 1.545.602.602 1.552.602m5.869 2.741h1.641q.26 0 .389.123.13.123.13.369 0 .267-.13.376-.123.11-.444.11h-3.015q-.273 0-.417-.124-.136-.123-.136-.362 0-.273.171-.383.178-.11.649-.109h.13v-7.096h-.13q-.471 0-.649-.109-.171-.11-.171-.383 0-.239.136-.355.144-.123.417-.123h1.039q.205 0 .294.068.096.069.096.212v.663q.465-.478 1.025-.718a3.1 3.1 0 0 1 1.217-.239q1.374 0 2.297.93.923.928.923 2.331 0 1.346-.875 2.215-.874.868-2.235.868-.725 0-1.333-.253a2.7 2.7 0 0 1-1.019-.739zm2.119-2.741q.95 0 1.559-.595.608-.601.608-1.552 0-.929-.615-1.531-.609-.608-1.552-.608t-1.545.601-.601 1.538q0 .944.594 1.545.602.602 1.552.602m5.322-1.866q.056.984.663 1.524.616.533 1.675.533.8 0 1.743-.424.944-.43 1.142-.43.205 0 .342.13a.42.42 0 0 1 .137.321.54.54 0 0 1-.144.362q-.144.165-.458.321a7 7 0 0 1-1.415.513 6 6 0 0 1-1.442.178q-1.558 0-2.496-.896-.936-.901-.936-2.385 0-1.511.991-2.448.991-.936 2.584-.936 1.442 0 2.393.875t.95 2.119q0 .382-.164.513-.157.13-.868.13zm.035-.896h4.45q-.103-.813-.684-1.306-.574-.499-1.415-.499-.909 0-1.531.479-.622.478-.82 1.326m7.721 2.789v-4.382h-.13q-.465 0-.642-.109-.171-.11-.171-.383 0-.253.143-.362.144-.116.465-.116h.978q.185 0 .287.075a.24.24 0 0 1 .102.205v.465a3.7 3.7 0 0 1 .985-.684 2.4 2.4 0 0 1 1.018-.225q1.033 0 1.62.642.595.642.595 1.777v3.097h.321q.342 0 .493.116.15.11.15.356 0 .267-.164.383-.157.11-.567.109h-1.511q-.438 0-.561-.103-.123-.102-.123-.389 0-.267.144-.369.144-.103.54-.103h.239v-2.844q0-.8-.362-1.216-.363-.424-1.053-.424-.697 0-1.23.471a1.5 1.5 0 0 0-.534 1.169v2.844h.24q.41 0 .553.103.144.102.144.369 0 .287-.123.389t-.602.103h-1.613q-.28 0-.424-.116-.137-.124-.137-.376 0-.274.158-.369.164-.103.629-.103zm12.589.964q-.144 0-.205-.068-.055-.075-.055-.281v-.56a2.8 2.8 0 0 1-1.025.8q-.616.28-1.333.28-1.293 0-2.167-.916-.868-.923-.868-2.29 0-1.415.929-2.352.93-.943 2.318-.943.704 0 1.264.253.56.246.964.731v-2.618h-.362q-.595 0-.773-.102-.17-.11-.17-.39 0-.246.136-.369.144-.123.41-.123h1.402q.206 0 .294.068.095.069.095.212v7.704h.308q.335 0 .485.116.151.11.151.356a.5.5 0 0 1-.13.362.47.47 0 0 1-.349.13zm-4.478-3.069q0 .944.609 1.545.608.601 1.545.601.943 0 1.552-.622.608-.628.608-1.593 0-.95-.608-1.565-.603-.615-1.552-.615-.964 0-1.559.622-.594.621-.595 1.627m8.412 2.83q-.034.307-.157.424-.123.123-.389.123-.287 0-.431-.171-.137-.165-.157-.54l-.089-1.586v-.123q0-.328.123-.465.13-.137.424-.137.41 0 .588.588.081.294.157.444.239.478.752.739.52.26 1.237.259.882 0 1.429-.417.553-.417.553-1.066 0-.54-.341-.868-.336-.328-.985-.424l-1.011-.137q-1.416-.198-2.065-.745-.65-.546-.649-1.538 0-1.046.861-1.757.868-.711 2.16-.711.376 0 .793.103.417.096.944.307.013-.198.109-.273t.328-.075q.302 0 .417.089.116.088.144.424l.095 1.428v.069a.5.5 0 0 1-.136.376.54.54 0 0 1-.383.129q-.363 0-.561-.505a2 2 0 0 0-.191-.431 1.45 1.45 0 0 0-.65-.526 2.4 2.4 0 0 0-.963-.185q-.828 0-1.347.41a1.31 1.31 0 0 0-.513 1.073q0 .52.383.821.39.3 1.183.41l1.093.137q1.19.156 1.791.731.602.567.602 1.538 0 1.149-.855 1.846-.853.69-2.283.69-.492 0-.977-.116a6 6 0 0 1-1.033-.362m9.356-8.046q0-.738.13-.93.136-.19.574-.191.424 0 .561.164.136.157.136.759 0 .587-.13.731-.123.137-.567.137-.438 0-.574-.13-.13-.13-.13-.54m1.265 7.321h2.194q.266 0 .389.116.13.11.13.356 0 .28-.123.389-.116.103-.437.103h-5.305q-.273 0-.41-.123t-.137-.369q0-.24.144-.356t.43-.116h2.085v-4.382h-1.333q-.28 0-.43-.123-.144-.129-.144-.369 0-.239.137-.355.137-.123.41-.123h2.003q.185 0 .287.075.11.075.11.205zm7.721.014q.964 0 1.566-.609.601-.608.601-1.579 0-.95-.615-1.565-.609-.615-1.552-.615-.95 0-1.558.615-.602.608-.602 1.565t.602 1.573q.608.615 1.558.615m-2.133-4.382a2.5 2.5 0 0 1 .957-.731 3.2 3.2 0 0 1 1.299-.253q1.375 0 2.29.929.916.924.916 2.29 0 1.347-.943 2.284-.937.936-2.29.936-.718 0-1.251-.253a2.14 2.14 0 0 1-.875-.766v.547q0 .185-.069.267-.061.082-.211.082h-1.251q-.267 0-.397-.123t-.13-.369q0-.274.157-.369.158-.103.623-.103h.143v-7h-.13q-.465 0-.636-.109-.17-.11-.17-.383 0-.246.136-.369.137-.123.404-.123h1.039q.204 0 .294.068.095.069.095.212zm9.294-2.632h-1.162q-.663 0-.834-.102-.164-.11-.164-.39 0-.246.137-.369.143-.123.41-.123h2.256a.5.5 0 0 1 .287.075.24.24 0 0 1 .102.205v7.704h2.147q.26 0 .376.116.123.11.123.356 0 .28-.116.389-.117.103-.438.103h-5.045q-.266 0-.41-.123-.137-.123-.137-.369 0-.24.144-.356t.431-.116h1.893zm7.817-.321q0-.738.13-.93.137-.19.575-.191.423 0 .56.164.137.157.137.759 0 .587-.13.731-.123.137-.567.137-.438 0-.575-.13-.13-.13-.13-.54m1.265 7.321h2.194q.267 0 .39.116.13.11.13.356 0 .28-.123.389-.116.103-.438.103h-5.304q-.274 0-.41-.123-.137-.123-.137-.369 0-.24.143-.356.144-.116.431-.116h2.085v-4.382h-1.333q-.28 0-.431-.123-.143-.129-.143-.369 0-.239.137-.355.136-.123.41-.123h2.003a.5.5 0 0 1 .287.075q.11.075.109.205zm4.81 0v-4.382h-.13q-.465 0-.643-.109-.171-.11-.171-.383 0-.253.144-.362.143-.116.465-.116h.977q.185 0 .287.075.103.075.103.205v.465q.5-.465.984-.684.492-.225 1.019-.225 1.032 0 1.62.642.594.642.595 1.777v3.097h.321q.342 0 .492.116.15.11.15.356 0 .267-.164.383-.157.11-.567.109h-1.511q-.437 0-.56-.103-.123-.102-.123-.389 0-.267.143-.369.144-.103.54-.103h.24v-2.844q0-.8-.363-1.216-.362-.424-1.053-.424-.697 0-1.23.471a1.5 1.5 0 0 0-.533 1.169v2.844h.239q.41 0 .554.103.143.102.143.369 0 .287-.123.389t-.601.103h-1.614q-.28 0-.423-.116-.138-.124-.137-.376 0-.274.157-.369.164-.103.629-.103zm10.339-4.341q-.895 0-1.463.554-.567.554-.567 1.436 0 .868.567 1.428.568.554 1.463.554.89 0 1.456-.554.575-.56.575-1.428t-.575-1.429q-.567-.561-1.456-.561m2.967 4.943q0 .957-.096 1.353a1.8 1.8 0 0 1-.328.704q-.383.507-1.073.766-.69.267-1.627.267-.779 0-1.141-.151-.356-.15-.356-.478 0-.213.171-.376a.6.6 0 0 1 .417-.158q.184 0 .567.048a4 4 0 0 0 .581.055q1.012 0 1.436-.465t.424-1.593v-.827a2.6 2.6 0 0 1-.923.711 2.8 2.8 0 0 1-1.162.226q-1.279 0-2.119-.848-.834-.855-.834-2.16 0-1.313.861-2.174.861-.868 2.133-.868.527 0 1.025.198.506.192 1.019.588v-.492q0-.143.089-.212.094-.068.294-.068h1.032q.273 0 .41.123.137.116.137.355 0 .273-.171.383-.17.11-.643.109h-.123zm6.601-7.677q0 .144-.233.622-.225.471-.342.752-.463 1.088-.663 1.989a9 9 0 0 0-.191 1.873q0 .895.164 1.737a9.3 9.3 0 0 0 .499 1.668q.171.45.465 1.059.3.615.301.759a.35.35 0 0 1-.069.232.2.2 0 0 1-.171.089q-.212 0-.471-.225-.26-.219-.602-.711a8 8 0 0 1-1.094-2.195 8 8 0 0 1-.362-2.413q0-1.155.294-2.201a8 8 0 0 1 .909-2.037q.397-.65.732-.978t.594-.328q.11 0 .171.089a.33.33 0 0 1 .069.219m6.614 4.539 1.306-3.876q.123-.383.341-.554.22-.177.581-.177h1.067q.465 0 .663.177.205.178.205.581 0 .369-.198.561-.192.191-.561.191h-.109l.191 5.1h.116q.37 0 .554.191.185.185.185.547 0 .404-.199.581-.19.178-.656.178h-1.538q-.465 0-.663-.171-.192-.177-.191-.588 0-.362.184-.547.192-.19.561-.191h.109l-.096-4.17-.998 3.104q-.109.349-.314.505-.198.151-.554.151t-.567-.151q-.205-.156-.315-.505l-.991-3.104-.096 4.17h.11q.369 0 .554.191.19.185.191.547 0 .404-.198.581-.198.178-.657.178h-1.544q-.459 0-.657-.178-.198-.177-.198-.581 0-.362.185-.547.19-.19.56-.191h.11l.198-5.1h-.11q-.369 0-.567-.191-.192-.192-.191-.561 0-.403.198-.581.205-.177.67-.177h1.066q.355 0 .568.17.218.171.355.561zm6.771-1.319 1.231 2.912 1.292-2.912h-.11q-.369 0-.567-.192-.191-.19-.191-.56 0-.404.191-.575.198-.17.677-.17h1.606q.478 0 .67.177.198.17.198.568 0 .37-.191.56-.192.192-.561.192h-.116l-2.809 6.036h.307q.465 0 .663.178.205.177.205.581 0 .396-.205.574-.198.177-.663.178h-2.994q-.471 0-.67-.178-.198-.171-.198-.574 0-.404.198-.581.198-.178.67-.178h1.06l.642-1.374-2.071-4.662h-.109q-.37 0-.568-.192-.19-.19-.191-.56 0-.404.198-.575t.67-.17h1.736q.472 0 .67.177.198.17.198.568 0 .37-.198.56-.19.192-.554.192zm7.783-1.778v3.576q0 .95.329 1.353.334.396 1.107.397.772 0 1.107-.404t.335-1.346v-3.576h-.109q-.362 0-.554-.191-.184-.192-.184-.561 0-.403.191-.581.198-.177.656-.177h1.709q.465 0 .657.177.198.178.198.581 0 .369-.192.561-.185.191-.546.191h-.117v3.548q0 1.723-.745 2.495-.738.766-2.386.766-1.722 0-2.474-.752-.745-.759-.745-2.509v-3.548h-.117q-.369 0-.56-.191-.192-.192-.191-.561 0-.403.198-.581.205-.177.67-.177h1.763q.459 0 .663.177.206.178.206.581 0 .369-.199.561-.19.191-.56.191zm10.279 0v5.1h1.148q.465 0 .663.178.205.17.205.56 0 .397-.205.581-.205.178-.663.178h-4.06q-.466 0-.67-.178-.2-.177-.199-.581 0-.396.199-.567.198-.171.67-.171h1.148v-5.1h-1.148q-.466 0-.67-.177-.2-.178-.199-.575 0-.403.199-.574.198-.171.67-.171h4.06q.485 0 .677.171.19.17.191.574 0 .397-.198.575t-.67.177zm5.711 9.017q0-.137.233-.608.232-.465.355-.746.458-1.093.657-1.996.198-.909.198-1.873 0-.875-.171-1.716a9 9 0 0 0-.506-1.695 15 15 0 0 0-.472-1.059q-.294-.616-.294-.766a.33.33 0 0 1 .069-.219.21.21 0 0 1 .178-.089q.225 0 .478.226.26.218.602.704a7.9 7.9 0 0 1 1.093 2.194 8 8 0 0 1 .363 2.42q0 1.155-.308 2.208a8 8 0 0 1-.909 2.037q-.424.67-.745.985-.315.314-.574.314a.21.21 0 0 1-.178-.089.37.37 0 0 1-.069-.232m-222.522 5.05a.75.75 0 0 0 0 1.06l4.773 4.773a.749.749 0 1 0 1.06-1.06L633.061 455l4.242-4.243a.749.749 0 1 0-1.06-1.06zm279.53-.22H632v1.5h279z"/><path fill="#005eb5" d="M152 291a6 6 0 0 1 6-6h56v50h-56a6 6 0 0 1-6-6z"/><path fill="#f9f9f9" d="M159.422 311.914q0 1.344.57 2.25t1.828.906q.976 0 1.602-.836.633-.843.633-2.414 0-1.585-.649-2.343-.648-.766-1.601-.766-1.063 0-1.727.812-.656.813-.656 2.391m2.117-4.43q.961 0 1.609.407.375.234.852.82v-4.227h1.352V316h-1.266v-1.164q-.492.774-1.164 1.117-.672.344-1.539.344-1.399 0-2.422-1.172-1.023-1.18-1.023-3.133 0-1.828.929-3.164.938-1.344 2.672-1.344m9.383-.039q.89 0 1.726.422.836.415 1.274 1.078.422.633.562 1.477.125.578.125 1.844h-6.132q.039 1.273.601 2.046.563.766 1.742.766 1.103 0 1.758-.726.375-.423.531-.977h1.383q-.054.46-.367 1.031a3.6 3.6 0 0 1-.687.922 3.3 3.3 0 0 1-1.586.844 4.8 4.8 0 0 1-1.149.125q-1.563 0-2.648-1.133-1.086-1.14-1.086-3.187 0-2.016 1.093-3.274 1.095-1.257 2.86-1.258m2.242 3.703q-.086-.914-.398-1.46-.579-1.017-1.93-1.016-.97 0-1.625.703-.656.696-.695 1.773zm3.531-4.789q.032-.875.305-1.281.492-.719 1.898-.719.133 0 .274.008.14.007.32.024v1.281a5 5 0 0 0-.32-.016 2 2 0 0 0-.18-.008q-.64 0-.765.336-.125.329-.125 1.688h1.39v1.109h-1.406V316h-1.391v-7.219h-1.164v-1.109h1.164zm5.18 7.414q0 .61.445.961a1.65 1.65 0 0 0 1.055.352q.743 0 1.437-.344 1.172-.57 1.172-1.867v-1.133q-.258.165-.664.274a6 6 0 0 1-.797.156l-.851.109q-.766.102-1.149.321-.648.366-.648 1.171m3.406-2.843q.484-.062.649-.407.093-.187.093-.539 0-.718-.515-1.039-.508-.327-1.461-.328-1.102 0-1.563.594-.257.328-.336.977h-1.312q.039-1.548 1-2.149.969-.609 2.242-.609 1.476 0 2.399.562.914.563.914 1.75v4.82q0 .22.086.352.094.133.382.133.094 0 .211-.008a5 5 0 0 0 .25-.039v1.039a4 4 0 0 1-.5.117 4 4 0 0 1-.468.024q-.727 0-1.055-.516-.172-.273-.242-.773-.43.562-1.235.976a3.8 3.8 0 0 1-1.773.414q-1.165 0-1.906-.703-.735-.711-.735-1.773 0-1.164.727-1.805.727-.64 1.906-.789zm5.828-3.297v5.555q0 .64.203 1.046.376.75 1.399.75 1.469 0 2-1.312.29-.703.289-1.93v-4.109h1.406V316h-1.328l.016-1.234a2.8 2.8 0 0 1-.68.804q-.804.657-1.953.657-1.789 0-2.438-1.196-.351-.64-.351-1.711v-5.687zm7.539-3.11h1.407V316h-1.407zm3.805.774h1.422v2.336h1.336v1.148h-1.336v5.461q0 .438.297.586.164.086.547.086h.219a9 9 0 0 0 .273-.023V316a3 3 0 0 1-.508.102q-.258.03-.562.031-.985 0-1.336-.5-.352-.508-.352-1.313v-5.539h-1.133v-1.148h1.133z"/><path fill="#545454" d="M888 33c0-5.523 4.477-10 10-10h191c5.52 0 10 4.477 10 10v49H888z"/><path fill="#f9f9f9" d="M942.562 36.023v7.094q0 1.25.469 2.078.696 1.25 2.344 1.25 1.977 0 2.687-1.351.383-.735.383-1.977v-7.094h1.578v6.446q0 2.117-.57 3.258-1.047 2.078-3.953 2.078-2.907 0-3.945-2.078-.571-1.14-.571-3.258v-6.446zm10.227 0h1.57V47.5h-1.57zm11.594 2.868q1.414 0 2.297.687.89.687 1.07 2.367h-1.367q-.126-.773-.571-1.28-.444-.517-1.429-.517-1.344 0-1.922 1.313-.375.851-.375 2.102 0 1.257.531 2.117.532.86 1.672.86.874 0 1.383-.532.516-.54.711-1.469h1.367q-.234 1.664-1.172 2.438-.937.765-2.398.765-1.64 0-2.618-1.195-.976-1.203-.976-3 0-2.203 1.07-3.43 1.071-1.226 2.727-1.226m8.094 7.703q1.398 0 1.914-1.055.523-1.062.523-2.36 0-1.17-.375-1.906-.594-1.156-2.047-1.156-1.288 0-1.875.985-.585.984-.586 2.375 0 1.335.586 2.226.587.89 1.86.89m.054-7.703q1.617 0 2.735 1.078 1.116 1.078 1.117 3.172 0 2.023-.985 3.343-.984 1.32-3.054 1.32-1.726 0-2.742-1.163-1.017-1.172-1.016-3.141 0-2.109 1.07-3.36t2.875-1.25m5.531.242h1.391v1.187q.5-.616.906-.898.696-.477 1.579-.477 1 0 1.609.492.343.282.625.829.469-.672 1.101-.993a3.04 3.04 0 0 1 1.422-.328q1.688 0 2.297 1.22.328.655.328 1.765v5.57h-1.461v-5.812q0-.836-.421-1.149-.415-.312-1.016-.312-.828 0-1.43.554-.594.555-.594 1.852V47.5h-1.429v-5.46q0-.853-.203-1.243-.32-.586-1.196-.586-.796 0-1.453.617-.648.617-.648 2.234V47.5h-1.407zm16.86 7.422q.984 0 1.633-.82.656-.83.656-2.47 0-1-.289-1.718-.547-1.383-2-1.383-1.461 0-2 1.461-.29.78-.289 1.984 0 .97.289 1.649.546 1.296 2 1.297m-3.641-7.383h1.367v1.11a3.4 3.4 0 0 1 .922-.884q.712-.468 1.672-.468 1.422 0 2.414 1.093.992 1.085.992 3.11 0 2.734-1.429 3.906a3.23 3.23 0 0 1-2.11.742q-.945 0-1.586-.414-.375-.234-.835-.804v4.273h-1.407zm12.339 7.422c.93 0 1.57-.352 1.91-1.055.35-.708.52-1.495.52-2.36 0-.78-.12-1.416-.37-1.906-.4-.77-1.08-1.156-2.05-1.156-.86 0-1.48.328-1.87.985-.39.656-.59 1.448-.59 2.375 0 .89.2 1.632.59 2.226q.585.89 1.86.89m.05-7.703c1.08 0 1.99.359 2.74 1.078q1.11 1.078 1.11 3.172c0 1.349-.32 2.463-.98 3.343q-.99 1.32-3.06 1.32c-1.15 0-2.06-.387-2.74-1.163-.67-.782-1.013-1.828-1.013-3.141 0-1.406.353-2.526 1.073-3.36.71-.833 1.67-1.25 2.87-1.25m5.53.242h1.34v1.187q.585-.734 1.26-1.054.66-.32 1.47-.32c1.19 0 1.99.413 2.41 1.242.23.453.34 1.101.34 1.945V47.5h-1.43v-5.273c0-.51-.07-.922-.22-1.235-.25-.52-.71-.781-1.36-.781-.34 0-.61.034-.82.102q-.585.171-1.02.687c-.23.276-.39.563-.46.86-.07.291-.1.71-.1 1.257V47.5h-1.41zm12.39-.188c.6 0 1.17.14 1.73.422.56.276.98.636 1.27 1.078.29.422.47.914.57 1.477q.12.578.12 1.844h-6.13c.02.849.23 1.53.6 2.047.37.51.96.765 1.74.765.74 0 1.32-.242 1.76-.726.25-.282.43-.607.53-.977h1.38q-.045.46-.36 1.031-.315.563-.69.922-.645.625-1.59.844-.51.125-1.14.125c-1.05 0-1.93-.378-2.65-1.133-.73-.76-1.09-1.823-1.09-3.187 0-1.344.37-2.435 1.09-3.274.73-.838 1.69-1.258 2.86-1.258m2.25 3.703c-.06-.609-.19-1.096-.4-1.46-.39-.678-1.03-1.016-1.93-1.016-.65 0-1.19.234-1.63.703-.43.464-.67 1.055-.69 1.773zm3.18-3.515h1.33v1.187q.6-.734 1.26-1.054c.44-.214.93-.32 1.48-.32 1.18 0 1.99.413 2.4 1.242.23.453.35 1.101.35 1.945V47.5h-1.43v-5.273c0-.51-.08-.922-.23-1.235-.25-.52-.7-.781-1.36-.781-.33 0-.61.034-.82.102-.39.114-.72.343-1.02.687-.23.276-.38.563-.46.86-.06.291-.1.71-.1 1.257V47.5h-1.4zm9.18-2.336h1.42v2.336h1.34v1.148h-1.34v5.461q0 .438.3.586c.11.057.29.086.55.086h.22q.12-.008.27-.023V47.5q-.24.07-.51.102c-.17.02-.36.03-.56.03-.66 0-1.1-.166-1.34-.5-.23-.338-.35-.775-.35-1.312v-5.539h-1.13v-1.148h1.13zm5.01 8.078c.04.469.16.828.35 1.078.36.453.97.68 1.85.68.52 0 .98-.112 1.37-.336q.6-.344.6-1.055 0-.54-.48-.82c-.2-.115-.61-.247-1.2-.399l-1.12-.28c-.72-.178-1.24-.376-1.58-.595-.6-.38-.91-.906-.91-1.578 0-.791.29-1.432.86-1.922s1.34-.734 2.3-.734q1.89 0 2.73 1.11c.35.468.51.973.5 1.515h-1.32a1.65 1.65 0 0 0-.34-.867q-.48-.555-1.68-.555c-.53 0-.93.102-1.21.305a.96.96 0 0 0-.41.805q0 .546.54.875c.21.13.52.244.92.343l.93.227q1.515.368 2.04.71c.54.36.82.925.82 1.696 0 .745-.29 1.388-.86 1.93-.56.541-1.42.812-2.57.812-1.25 0-2.13-.28-2.65-.843-.52-.568-.79-1.269-.83-2.102zM937.672 58.023h1.57v4.743h5.969v-4.743h1.57V69.5h-1.57v-5.367h-5.969V69.5h-1.57zm19.875 0v1.368h-3.867V69.5h-1.578V59.39h-3.868v-1.367zm1.391 0h2.226l3.297 9.704 3.273-9.704h2.204V69.5h-1.477v-6.773q0-.352.016-1.164.015-.813.015-1.743l-3.273 9.68h-1.539l-3.297-9.68v.352q0 .421.015 1.289.024.86.024 1.266V69.5h-1.484zm13.367 0h1.554v10.11h5.813V69.5h-7.367zm12.914 0h8.367v1.407h-6.852v3.484h6.336v1.328h-6.336v3.89h6.969V69.5h-8.484zm10.375 0H997V69.5h-1.406zm7.006 2.922c.6 0 1.17.14 1.73.422.56.276.98.636 1.27 1.078.28.422.47.914.56 1.477.09.385.13 1 .13 1.844h-6.13q.03 1.273.6 2.046.555.766 1.74.766c.73 0 1.32-.242 1.76-.726.25-.282.42-.607.53-.977h1.38c-.03.307-.16.651-.37 1.031-.2.375-.43.682-.68.922q-.645.625-1.59.844a4.8 4.8 0 0 1-1.15.125q-1.558 0-2.646-1.133-1.086-1.14-1.086-3.187 0-2.016 1.094-3.274c.728-.838 1.678-1.258 2.858-1.258m2.24 3.703c-.05-.609-.19-1.096-.39-1.46-.39-.678-1.03-1.016-1.93-1.016-.65 0-1.19.234-1.63.703q-.66.696-.69 1.773zm3.18-3.515h1.39v1.187c.34-.411.64-.71.91-.898a2.7 2.7 0 0 1 1.58-.477c.67 0 1.2.164 1.61.492.23.188.44.464.62.829.32-.448.68-.779 1.1-.993.43-.218.9-.328 1.43-.328 1.12 0 1.89.407 2.29 1.22q.33.655.33 1.765v5.57h-1.46v-5.812q0-.836-.42-1.149-.42-.312-1.02-.312c-.55 0-1.03.184-1.43.554-.39.37-.59.987-.59 1.852V69.5h-1.43v-5.46c0-.569-.07-.983-.2-1.243q-.33-.586-1.2-.586c-.53 0-1.01.206-1.45.617-.43.412-.65 1.156-.65 2.234V69.5h-1.41zm16.82-.188c.59 0 1.17.14 1.72.422.56.276.98.636 1.28 1.078.28.422.46.914.56 1.477q.12.578.12 1.844h-6.13q.045 1.273.6 2.046.57.766 1.74.766c.74 0 1.32-.242 1.76-.726.25-.282.43-.607.53-.977h1.39c-.04.307-.16.651-.37 1.031q-.3.562-.69.922a3.27 3.27 0 0 1-1.58.844 5 5 0 0 1-1.15.125c-1.04 0-1.93-.378-2.65-1.133-.73-.76-1.09-1.823-1.09-3.187 0-1.344.37-2.435 1.1-3.274.73-.838 1.68-1.258 2.86-1.258m2.24 3.703c-.06-.609-.19-1.096-.4-1.46-.39-.678-1.03-1.016-1.93-1.016-.65 0-1.19.234-1.63.703q-.645.696-.69 1.773zm3.18-3.515h1.33v1.187q.6-.734 1.26-1.054c.44-.214.94-.32 1.48-.32q1.785 0 2.4 1.242c.23.453.35 1.101.35 1.945V69.5h-1.43v-5.273c0-.51-.08-.922-.23-1.235-.25-.52-.7-.781-1.36-.781-.33 0-.6.034-.82.102-.38.114-.72.343-1.01.687a2 2 0 0 0-.46.86c-.07.291-.11.71-.11 1.257V69.5h-1.4zm9.19-2.336h1.42v2.336h1.33v1.148h-1.33v5.461c0 .292.1.487.29.586.11.057.3.086.55.086h.22q.12-.008.27-.023V69.5c-.16.047-.33.08-.5.102-.18.02-.36.03-.57.03-.65 0-1.1-.166-1.33-.5-.24-.338-.35-.775-.35-1.312v-5.539h-1.14v-1.148h1.14zm5 8.078c.04.469.16.828.35 1.078.36.453.97.68 1.85.68.52 0 .98-.112 1.37-.336q.6-.344.6-1.055 0-.54-.48-.82-.3-.172-1.2-.399l-1.12-.28c-.71-.178-1.24-.376-1.58-.595q-.9-.57-.9-1.578c0-.791.28-1.432.85-1.922s1.34-.734 2.3-.734q1.89 0 2.73 1.11.525.702.51 1.515h-1.33a1.65 1.65 0 0 0-.34-.867q-.48-.555-1.68-.555c-.53 0-.93.102-1.21.305a.95.95 0 0 0-.4.805c0 .364.18.656.53.875q.315.195.93.343l.93.227c1.01.245 1.68.482 2.03.71.54.36.82.925.82 1.696 0 .745-.29 1.388-.85 1.93q-.855.812-2.58.812c-1.25 0-2.13-.28-2.65-.843-.52-.568-.79-1.269-.83-2.102z"/></svg>