<svg width="768" height="432" viewBox="0 0 768 432" fill="none" xmlns="http://www.w3.org/2000/svg">
<rect width="768" height="432" fill="white"/>
<line x1="281" y1="4.37114e-08" x2="281" y2="432" stroke="#EEEEEE" stroke-width="2"/>
<line x1="549" y1="4.37114e-08" x2="549" y2="432" stroke="#EEEEEE" stroke-width="2"/>
<rect x="58" y="92" width="188" height="38" rx="7" fill="white" stroke="#CB361D" stroke-width="2"/>
<text fill="black" xml:space="preserve" style="white-space: pre" font-family="Helvetica" font-size="13" font-weight="bold" letter-spacing="0em"><tspan x="97.5973" y="115.985">.dropin-design { }</tspan></text>
<text fill="black" xml:space="preserve" style="white-space: pre" font-family="Helvetica" font-size="13" letter-spacing="0em"><tspan x="62.333" y="84.9846">CSS class for all design tokens</tspan></text>
<text fill="black" xml:space="preserve" style="white-space: pre" font-family="Helvetica" font-size="16" font-weight="bold" letter-spacing="0em"><tspan x="77" y="51.5195">Drop-in design tokens</tspan></text>
<rect x="58" y="193" width="188" height="32" rx="16" fill="white" stroke="#CB361D" stroke-width="2"/>
<text fill="black" xml:space="preserve" style="white-space: pre" font-family="Helvetica" font-size="13" font-weight="bold" letter-spacing="0em"><tspan x="76.4629" y="213.985">--shape-border-radius-3:</tspan></text>
<rect x="121" y="280" width="63" height="32" rx="16" fill="white" stroke="#CB361D" stroke-width="2"/>
<text fill="black" xml:space="preserve" style="white-space: pre" font-family="Helvetica" font-size="13" letter-spacing="0em"><tspan x="74.2539" y="185.985">One of many shape tokens</tspan></text>
<text fill="black" xml:space="preserve" style="white-space: pre" font-family="Helvetica" font-size="13" letter-spacing="0em"><tspan x="96.2993" y="271.985">Default token value</tspan></text>
<path d="M53 209V209C35.3269 209 21 223.327 21 241V252.5C21 276.524 40.4756 296 64.5 296H116" stroke="#CB361D" stroke-width="2" stroke-linejoin="bevel" stroke-dasharray="3 3"/>
<path d="M53 110C52.4955 110 51.9929 110.008 51.4922 110.024L51.5566 112.023C52.0358 112.008 52.517 112 53 112V110ZM48.4907 110.218C47.4856 110.316 46.4899 110.446 45.5047 110.608L45.8282 112.581C46.7705 112.427 47.7228 112.302 48.6844 112.209L48.4907 110.218ZM42.5506 111.192C41.569 111.42 40.5993 111.68 39.6428 111.97L40.2227 113.884C41.1373 113.607 42.0645 113.358 43.0032 113.14L42.5506 111.192ZM36.7915 112.937C35.8492 113.292 34.9216 113.677 34.0099 114.091L34.8365 115.912C35.7083 115.516 36.5953 115.148 37.4963 114.809L36.7915 112.937ZM31.3112 115.424C30.4248 115.899 29.5557 116.402 28.7053 116.932L29.763 118.629C30.5765 118.122 31.4077 117.641 32.2555 117.187L31.3112 115.424ZM26.2037 118.607C25.3878 119.192 24.5918 119.804 23.817 120.441L25.0867 121.986C25.8279 121.377 26.5894 120.792 27.37 120.231L26.2037 118.607ZM21.5546 122.426C20.8223 123.112 20.1124 123.822 19.4262 124.555L20.8856 125.922C21.5422 125.221 22.2214 124.542 22.9221 123.886L21.5546 122.426ZM17.4405 126.817C16.804 127.592 16.1922 128.388 15.6065 129.204L17.2312 130.37C17.7916 129.589 18.3768 128.828 18.9859 128.087L17.4405 126.817ZM13.9318 131.705C13.4018 132.556 12.8988 133.425 12.424 134.311L14.1871 135.256C14.6412 134.408 15.1222 133.576 15.6292 132.763L13.9318 131.705ZM11.0907 137.01C10.6769 137.922 10.292 138.849 9.93718 139.792L11.8089 140.496C12.1482 139.595 12.5162 138.708 12.9119 137.836L11.0907 137.01ZM8.96956 142.643C8.67977 143.599 8.42029 144.569 8.19224 145.551L10.1404 146.003C10.3584 145.064 10.6065 144.137 10.8836 143.223L8.96956 142.643ZM7.60775 148.505C7.44627 149.49 7.3161 150.486 7.21829 151.491L9.20888 151.684C9.30246 150.723 9.42698 149.77 9.58142 148.828L7.60775 148.505ZM7.02425 154.492C7.00813 154.993 7 155.495 7 156H9C9 155.517 9.00778 155.036 9.02322 154.557L7.02425 154.492ZM7 156V158H9V156H7ZM7 162V164H9V162H7ZM7 164C7 164.504 7.00813 165.007 7.02425 165.508L9.02322 165.443C9.00778 164.964 9 164.483 9 164H7ZM7.21829 168.509C7.3161 169.514 7.44627 170.51 7.60775 171.495L9.58142 171.172C9.42698 170.23 9.30246 169.277 9.20888 168.316L7.21829 168.509ZM8.19224 174.449C8.42029 175.431 8.67977 176.401 8.96956 177.357L10.8836 176.777C10.6065 175.863 10.3584 174.936 10.1404 173.997L8.19224 174.449ZM9.93718 180.208C10.292 181.151 10.6769 182.078 11.0907 182.99L12.9119 182.164C12.5162 181.292 12.1482 180.405 11.8089 179.504L9.93718 180.208ZM12.424 185.689C12.8988 186.575 13.4018 187.444 13.9318 188.295L15.6292 187.237C15.1222 186.424 14.6412 185.592 14.1871 184.744L12.424 185.689ZM15.6065 190.796C16.1922 191.612 16.804 192.408 17.4405 193.183L18.9859 191.913C18.3768 191.172 17.7916 190.411 17.2312 189.63L15.6065 190.796ZM19.4262 195.445C20.1124 196.178 20.8223 196.888 21.5546 197.574L22.9221 196.114C22.2214 195.458 21.5422 194.779 20.8856 194.078L19.4262 195.445ZM23.817 199.559C24.5918 200.196 25.3878 200.808 26.2037 201.393L27.37 199.769C26.5894 199.208 25.8279 198.623 25.0867 198.014L23.817 199.559ZM28.7053 203.068C29.5557 203.598 30.4248 204.101 31.3112 204.576L32.2555 202.813C31.4077 202.359 30.5765 201.878 29.763 201.371L28.7053 203.068ZM34.0099 205.909C34.9216 206.323 35.8492 206.708 36.7915 207.063L37.4964 205.191C36.5953 204.852 35.7083 204.484 34.8365 204.088L34.0099 205.909ZM39.6428 208.03C40.5993 208.32 41.569 208.58 42.5507 208.808L43.0032 206.86C42.0645 206.642 41.1373 206.393 40.2227 206.116L39.6428 208.03ZM45.5047 209.392C46.4899 209.554 47.4856 209.684 48.4907 209.782L48.6844 207.791C47.7229 207.698 46.7705 207.573 45.8282 207.419L45.5047 209.392ZM51.4922 209.976C51.9929 209.992 52.4955 210 53 210V208C52.517 208 52.0358 207.992 51.5566 207.977L51.4922 209.976Z" fill="#CB361D"/>
<path d="M150.293 348.707C150.683 349.098 151.317 349.098 151.707 348.707L158.071 342.343C158.462 341.953 158.462 341.319 158.071 340.929C157.681 340.538 157.047 340.538 156.657 340.929L151 346.586L145.343 340.929C144.953 340.538 144.319 340.538 143.929 340.929C143.538 341.319 143.538 341.953 143.929 342.343L150.293 348.707ZM150 313L150 314.458L152 314.458L152 313L150 313ZM150 317.375L150 320.292L152 320.292L152 317.375L150 317.375ZM150 323.208L150 326.125L152 326.125L152 323.208L150 323.208ZM150 329.042L150 331.958L152 331.958L152 329.042L150 329.042ZM150 334.875L150 337.792L152 337.792L152 334.875L150 334.875ZM150 340.708L150 343.625L152 343.625L152 340.708L150 340.708ZM150 346.542L150 348L152 348L152 346.542L150 346.542Z" fill="#CB361D"/>
<text fill="black" xml:space="preserve" style="white-space: pre" font-family="Helvetica" font-size="13" font-weight="bold" letter-spacing="0em"><tspan x="137.602" y="299.985">24px</tspan></text>
<rect x="93" y="359" width="116" height="42" rx="21" fill="#454545"/>
<text fill="white" xml:space="preserve" style="white-space: pre" font-family="Helvetica" font-size="18" letter-spacing="0.04em"><tspan x="123" y="386.709">Button</tspan></text>
<rect x="590" y="359" width="116" height="42" rx="4" fill="#454545"/>
<text fill="white" xml:space="preserve" style="white-space: pre" font-family="Helvetica" font-size="18" letter-spacing="0.04em"><tspan x="620" y="386.709">Button</tspan></text>
<text fill="black" xml:space="preserve" style="white-space: pre" font-family="Helvetica" font-size="14" letter-spacing="0em"><tspan x="73" y="421.83">Button library component</tspan></text>
<text fill="black" xml:space="preserve" style="white-space: pre" font-family="Helvetica" font-size="14" letter-spacing="0em"><tspan x="567" y="420.83">Merchant branding applied</tspan></text>
<path d="M570.707 381.707C571.098 381.317 571.098 380.683 570.707 380.293L564.343 373.929C563.953 373.538 563.319 373.538 562.929 373.929C562.538 374.319 562.538 374.953 562.929 375.343L568.586 381L562.929 386.657C562.538 387.047 562.538 387.681 562.929 388.071C563.319 388.462 563.953 388.462 564.343 388.071L570.707 381.707ZM230 382L570 382L570 380L230 380L230 382Z" fill="url(#paint0_linear_83_26)"/>
<rect x="338" y="92" width="151" height="38" rx="7" fill="white" stroke="#3F80DE" stroke-width="2"/>
<text fill="black" xml:space="preserve" style="white-space: pre" font-family="Helvetica" font-size="13" font-weight="bold" letter-spacing="0em"><tspan x="360.14" y="115.985">.dropin-design { }</tspan></text>
<text fill="black" xml:space="preserve" style="white-space: pre" font-family="Helvetica" font-size="16" font-weight="bold" letter-spacing="0em"><tspan x="326" y="53.5195">Branding default values</tspan></text>
<rect x="319" y="195" width="188" height="32" rx="16" fill="white" stroke="#3F80DE" stroke-width="2"/>
<text fill="black" xml:space="preserve" style="white-space: pre" font-family="Helvetica" font-size="13" font-weight="bold" letter-spacing="0em"><tspan x="337.463" y="215.985">--shape-border-radius-3:</tspan></text>
<rect x="384" y="280" width="59" height="32" rx="16" fill="white" stroke="#3F80DE" stroke-width="2"/>
<text fill="black" xml:space="preserve" style="white-space: pre" font-family="Helvetica" font-size="13" font-weight="bold" letter-spacing="0em"><tspan x="402.22" y="299.985">4px</tspan></text>
<text fill="black" xml:space="preserve" style="white-space: pre" font-family="Helvetica" font-size="13" letter-spacing="0em"><tspan x="352.004" y="271.985">Change default value</tspan></text>
<text fill="black" xml:space="preserve" style="white-space: pre" font-family="Helvetica" font-size="13" letter-spacing="0em"><tspan x="345.155" y="187.985">Select token to override</tspan></text>
<text fill="black" xml:space="preserve" style="white-space: pre" font-family="Helvetica" font-size="13" letter-spacing="0em"><tspan x="335.286" y="84.9846">Override tokens CSS class</tspan></text>
<line x1="414" y1="135" x2="414" y2="173" stroke="#3F80DE" stroke-width="2" stroke-linecap="round" stroke-dasharray="3 3"/>
<line x1="414" y1="228" x2="414" y2="256" stroke="#3F80DE" stroke-width="2" stroke-linecap="round" stroke-dasharray="3 3"/>
<path d="M189 295C188.448 295 188 295.448 188 296C188 296.552 188.448 297 189 297V295ZM379.707 296.707C380.098 296.317 380.098 295.683 379.707 295.293L373.343 288.929C372.953 288.538 372.319 288.538 371.929 288.929C371.538 289.319 371.538 289.953 371.929 290.343L377.586 296L371.929 301.657C371.538 302.047 371.538 302.681 371.929 303.071C372.319 303.462 372.953 303.462 373.343 303.071L379.707 296.707ZM189 297H190.484V295H189V297ZM193.453 297H196.422V295H193.453V297ZM199.391 297H202.359V295H199.391V297ZM205.328 297H208.297V295H205.328V297ZM211.266 297H214.234V295H211.266V297ZM217.203 297H220.172V295H217.203V297ZM223.141 297H226.109V295H223.141V297ZM229.078 297H232.047V295H229.078V297ZM235.016 297H237.984V295H235.016V297ZM240.953 297H243.922V295H240.953V297ZM246.891 297H249.859V295H246.891V297ZM252.828 297H255.797V295H252.828V297ZM258.766 297H261.734V295H258.766V297ZM264.703 297H267.672V295H264.703V297ZM270.641 297H273.609V295H270.641V297ZM276.578 297H279.547V295H276.578V297ZM282.516 297H285.484V295H282.516V297ZM288.453 297H291.422V295H288.453V297ZM294.391 297H297.359V295H294.391V297ZM300.328 297H303.297V295H300.328V297ZM306.266 297H309.234V295H306.266V297ZM312.203 297H315.172V295H312.203V297ZM318.141 297H321.109V295H318.141V297ZM324.078 297H327.047V295H324.078V297ZM330.016 297H332.984V295H330.016V297ZM335.953 297H338.922V295H335.953V297ZM341.891 297H344.859V295H341.891V297ZM347.828 297H350.797V295H347.828V297ZM353.766 297H356.734V295H353.766V297ZM359.703 297H362.672V295H359.703V297ZM365.641 297H368.609V295H365.641V297ZM371.578 297H374.547V295H371.578V297ZM377.516 297H379V295H377.516V297Z" fill="#CB361D"/>
<rect x="590" y="94" width="115" height="38" rx="7" fill="white" stroke="#CB361D" stroke-width="2"/>
<text fill="black" xml:space="preserve" style="white-space: pre" font-family="Helvetica" font-size="13" font-weight="bold" letter-spacing="0em"><tspan x="594.383" y="117.985">.dropin-button { }</tspan></text>
<text fill="black" xml:space="preserve" style="white-space: pre" font-family="Helvetica" font-size="16" font-weight="bold" letter-spacing="0em"><tspan x="582" y="51.5195">Branding applied</tspan></text>
<rect x="587" y="194" width="121" height="32" rx="16" fill="white" stroke="#CB361D" stroke-width="2"/>
<text fill="black" xml:space="preserve" style="white-space: pre" font-family="Helvetica" font-size="13" font-weight="bold" letter-spacing="0em"><tspan x="605" y="214.985">border-radius:</tspan></text>
<rect x="542" y="280" width="211" height="32" rx="16" fill="white" stroke="#3F80DE" stroke-width="2"/>
<text fill="black" xml:space="preserve" style="white-space: pre" font-family="Helvetica" font-size="13" font-weight="bold" letter-spacing="0em"><tspan x="560.029" y="300.985">var(--shape-border-radius-3)</tspan></text>
<text fill="black" xml:space="preserve" style="white-space: pre" font-family="Helvetica" font-size="13" letter-spacing="0em"><tspan x="567.24" y="84.9846">Main class for library Button</tspan></text>
<text fill="black" xml:space="preserve" style="white-space: pre" font-family="Helvetica" font-size="13" letter-spacing="0em"><tspan x="605.35" y="186.985">CSS class rule</tspan></text>
<text fill="black" xml:space="preserve" style="white-space: pre" font-family="Helvetica" font-size="13" letter-spacing="0em"><tspan x="580" y="271.985">Embedded dropin token</tspan></text>
<path d="M537.707 296.707C538.098 296.317 538.098 295.683 537.707 295.293L531.343 288.929C530.953 288.538 530.319 288.538 529.929 288.929C529.538 289.319 529.538 289.953 529.929 290.343L535.586 296L529.929 301.657C529.538 302.047 529.538 302.681 529.929 303.071C530.319 303.462 530.953 303.462 531.343 303.071L537.707 296.707ZM448 297H449.483V295H448V297ZM452.45 297H455.417V295H452.45V297ZM458.383 297H461.35V295H458.383V297ZM464.317 297H467.283V295H464.317V297ZM470.25 297H473.217V295H470.25V297ZM476.183 297H479.15V295H476.183V297ZM482.117 297H485.083V295H482.117V297ZM488.05 297H491.017V295H488.05V297ZM493.983 297H496.95V295H493.983V297ZM499.917 297H502.883V295H499.917V297ZM505.85 297H508.817V295H505.85V297ZM511.783 297H514.75V295H511.783V297ZM517.717 297H520.683V295H517.717V297ZM523.65 297H526.617V295H523.65V297ZM529.583 297H532.55V295H529.583V297ZM535.517 297H537V295H535.517V297Z" fill="#3F80DE"/>
<path d="M710 113V113C735.957 113 757 134.043 757 160V166C757 190.301 737.301 210 713 210V210" stroke="#CB361D" stroke-width="2" stroke-linejoin="bevel" stroke-dasharray="3 3"/>
<path d="M709 214C709 214 736.5 213 747 234C757.5 255 741 277 741 277" stroke="#CB361D" stroke-width="2" stroke-linejoin="round" stroke-dasharray="3 3"/>
<path d="M649.293 348.707C649.683 349.098 650.317 349.098 650.707 348.707L657.071 342.343C657.462 341.953 657.462 341.319 657.071 340.929C656.681 340.538 656.047 340.538 655.657 340.929L650 346.586L644.343 340.929C643.953 340.538 643.319 340.538 642.929 340.929C642.538 341.319 642.538 341.953 642.929 342.343L649.293 348.707ZM649 313L649 314.458L651 314.458L651 313L649 313ZM649 317.375L649 320.292L651 320.292L651 317.375L649 317.375ZM649 323.208L649 326.125L651 326.125L651 323.208L649 323.208ZM649 329.042L649 331.958L651 331.958L651 329.042L649 329.042ZM649 334.875L649 337.792L651 337.792L651 334.875L649 334.875ZM649 340.708L649 343.625L651 343.625L651 340.708L649 340.708ZM649 346.542L649 348L651 348L651 346.542L649 346.542Z" fill="#3F80DE"/>
<circle cx="152" cy="20" r="12" fill="#CB361D"/>
<text fill="white" xml:space="preserve" style="white-space: pre" font-family="Helvetica" font-size="14" font-weight="bold" letter-spacing="0em"><tspan x="148.104" y="24.9407">1</tspan></text>
<circle cx="413" cy="20" r="12" fill="#CB361D"/>
<text fill="white" xml:space="preserve" style="white-space: pre" font-family="Helvetica" font-size="14" font-weight="bold" letter-spacing="0em"><tspan x="409.104" y="24.9407">2</tspan></text>
<circle cx="648" cy="20" r="12" fill="#CB361D"/>
<text fill="white" xml:space="preserve" style="white-space: pre" font-family="Helvetica" font-size="14" font-weight="bold" letter-spacing="0em"><tspan x="644.104" y="24.9407">3</tspan></text>
<defs>
<linearGradient id="paint0_linear_83_26" x1="349.096" y1="363.501" x2="448.822" y2="396.05" gradientUnits="userSpaceOnUse">
<stop stop-color="#CB361D"/>
<stop offset="0.964368" stop-color="#3F80DE"/>
</linearGradient>
</defs>
</svg>
