<svg xmlns="http://www.w3.org/2000/svg" xmlns:xlink="http://www.w3.org/1999/xlink" width="768" height="200" fill="none">
  <path fill="#fff" d="M0 0h768v200H0z"/>
  <rect width="145" height="150" x="617" y="23.4" fill="#F6F6F6" rx="8"/>
  <path fill="#000" d="m648 48.3 1-.2c.5-.2.7-.5.7-1 0-.3-.1-.5-.4-.7a4 4 0 0 0-1.1-.4l-1-.2-1.8-.6c-.6-.4-.9-1-.9-1.9 0-.8.3-1.4.8-2 .6-.4 1.4-.7 2.5-.7 1 0 1.7.3 2.4.7.6.5 1 1.2 1 2.1h-1.8c0-.5-.2-.9-.6-1a2 2 0 0 0-1.1-.3 2 2 0 0 0-1.1.3c-.3.2-.4.4-.4.8 0 .3.1.5.4.7l1.1.3 1.5.4c.6.1 1.1.3 1.5.6.5.4.7 1 .7 1.8s-.3 1.4-.9 2c-.6.5-1.4.7-2.5.7s-2-.2-2.7-.7a3 3 0 0 1-1-2.2h1.8c0 .4.1.7.3 1 .3.3.8.5 1.5.5Zm7.3 0v1.3h-.8c-.8 0-1.3-.1-1.6-.4-.2-.2-.3-.5-.3-1v-3.8h-.9v-1.2h1v-1.8h1.6v1.8h1v1.2h-1v3.8l.7.1h.3Zm1.1-4.5c.4-.6 1.2-.8 2.3-.8a4 4 0 0 1 1.8.4c.6.3.9.8.9 1.5v3a27.3 27.3 0 0 0 0 1.2l.3.2v.2H660l-.1-.4v-.4l-.9.7c-.3.2-.7.3-1.2.3-.6 0-1-.2-1.4-.5-.4-.3-.6-.8-.6-1.4 0-.8.3-1.4 1-1.7a4 4 0 0 1 1.4-.4h.6l.6-.2c.3-.1.4-.3.4-.5 0-.3-.1-.4-.3-.5l-.8-.2c-.4 0-.7.1-.8.3l-.3.6H656c0-.6.2-1 .5-1.4Zm1.2 4.5.6.2c.4 0 .7-.1 1-.3.3-.2.5-.6.5-1.2v-.6a2 2 0 0 1-.8.3h-.4l-.7.3c-.3.1-.4.4-.4.7 0 .3 0 .5.2.6Zm8.2-3.6c-.7 0-1.1.2-1.3.6-.2.3-.2.6-.2 1.1v3.1h-1.7v-6.4h1.6v1.1c.2-.4.5-.7.7-.8a1.8 1.8 0 0 1 1.2-.4h.2v1.7a4.6 4.6 0 0 0-.5 0Zm4.2 3.6v1.3h-.8c-.8 0-1.4-.1-1.6-.4-.2-.2-.3-.5-.3-1v-3.8h-1v-1.2h1v-1.8h1.6v1.8h1v1.2h-1v3.3l.1.5.6.1h.4Zm7.7 1.2H674v-8.6h3.7l1.4.1c.6.2 1 .6 1.5 1.1l.6 1.4a6.7 6.7 0 0 1-.6 4.4c-.6 1-1.5 1.6-2.9 1.6Zm1.4-6.4c-.3-.5-.8-.7-1.7-.7h-1.6V48h1.6c.9 0 1.5-.4 1.8-1.3.2-.4.3-1 .3-1.6a4 4 0 0 0-.4-2Zm8.7 4.5c0 .4-.2.8-.6 1.2a3 3 0 0 1-2.3 1c-.8 0-1.5-.4-2.1-.9-.7-.5-1-1.4-1-2.5s.3-2 .9-2.6c.5-.6 1.3-.9 2.1-.9.6 0 1 .1 1.5.3.4.2.8.6 1 1 .3.4.4.8.5 1.3v1.3h-4.3c0 .6.2 1 .6 1.3.2.2.5.3.8.3.4 0 .7-.1.9-.3l.3-.5h1.7Zm-1.7-2c0-.4-.1-.7-.4-1-.2-.2-.5-.3-.9-.3-.3 0-.6.1-.9.4-.2.2-.3.6-.4 1h2.6Zm2-2.5h2l1.2 4.7 1.4-4.7h1.8l-2.3 6.4h-1.8l-2.3-6.4Zm12.6 4.5c0 .4-.3.8-.6 1.2a3.2 3.2 0 0 1-4.4.1c-.7-.5-1-1.4-1-2.5s.3-2 .8-2.6a3 3 0 0 1 2.2-.9c.6 0 1 .1 1.5.3.4.2.7.6 1 1 .3.4.4.8.5 1.3v1.3h-4.3c0 .6.2 1 .6 1.3.2.2.5.3.8.3.4 0 .6-.1.9-.3l.3-.5h1.7Zm-1.7-2c0-.4-.1-.7-.4-1-.2-.2-.5-.3-.9-.3s-.7.1-.9.4c-.2.2-.3.6-.4 1h2.6Zm2.7-4.7h1.6v8.6h-1.6v-8.6Zm8.4 3c.5.7.8 1.5.8 2.4 0 1-.3 1.8-.8 2.4-.6.7-1.4 1-2.5 1-1 0-1.9-.3-2.4-1-.6-.6-.8-1.4-.8-2.4 0-.9.2-1.7.8-2.4.5-.7 1.3-1 2.4-1 1.1 0 2 .3 2.5 1Zm-2.5.4c-.5 0-.9.2-1.1.5-.3.4-.4.9-.4 1.5 0 .7.1 1.2.4 1.5.2.3.6.5 1.1.5.5 0 .9-.2 1.1-.5.3-.3.4-.8.4-1.5 0-.6-.1-1.1-.4-1.5-.2-.3-.6-.5-1-.5Zm9.6-.5c.5.5.8 1.4.8 2.4a4 4 0 0 1-.8 2.6c-.5.6-1.2.9-2 .9a2 2 0 0 1-1.2-.4l-.6-.6V52h-1.6v-8.9h1.6v1l.6-.7c.3-.3.8-.4 1.3-.4.7 0 1.4.2 1.9.8Zm-1 2.5c0-.5 0-1-.3-1.3-.2-.4-.6-.6-1-.6-.7 0-1.1.3-1.3.9-.2.3-.2.7-.2 1.2 0 .7.2 1.2.6 1.5.2.2.5.3.8.3.5 0 .8-.2 1-.6.3-.3.4-.8.4-1.4Zm4.5-3.2v6.4H719v-6.4h1.7Zm0-2.3v1.6H719v-1.6h1.7Zm4.3 3.5c-.5 0-1 .3-1.1.8l-.2 1v3.4H722v-6.4h1.7v1l.6-.8c.3-.2.7-.3 1.3-.3.6 0 1.2.1 1.6.5.4.3.6.9.6 1.7v4.3h-1.7v-3.9l-.1-.8c-.2-.3-.5-.5-1-.5Zm6 6.3c.1.2.4.2.8.2.6 0 1-.2 1.3-.6 0-.2.2-.6.2-1.3v-.4a2 2 0 0 1-.6.6 2 2 0 0 1-1.3.4 3 3 0 0 1-2-.8 4.5 4.5 0 0 1 0-4.8c.5-.6 1.2-1 2-1l.9.2c.4.2.7.5 1 1v-1h1.6v6c0 .9-.1 1.5-.4 2-.5.7-1.4 1-2.8 1-.8 0-1.4-.1-2-.5-.5-.3-.8-.8-.8-1.4h1.8l.2.4Zm-.3-3.3c.2.6.6.8 1.2.8.4 0 .7-.1 1-.4.2-.3.4-.8.4-1.4 0-.6-.2-1-.4-1.4-.3-.3-.6-.5-1-.5-.6 0-1 .3-1.3.8a3 3 0 0 0-.1 1.1c0 .4 0 .7.2 1Z"/>
  <path fill="#2B2B2B" d="M650.9 71.5c0 .4.1.8.3 1 .3.6 1 .8 1.9.8l1-.1c.7-.3 1-.7 1-1.2s-.1-.8-.4-1a4 4 0 0 0-1.3-.4l-1-.3c-.7-.1-1.2-.3-1.5-.5-.5-.3-.8-.8-.8-1.5s.3-1.3.8-1.7a3 3 0 0 1 2-.7c.9 0 1.6.2 2.2.6.5.4.8 1 .8 2h-1a2 2 0 0 0-.3-1c-.3-.5-.9-.7-1.7-.7-.6 0-1 .2-1.3.4-.3.3-.5.6-.5 1 0 .3.2.6.5.8.2.1.7.3 1.5.4l1 .3c.6.1 1 .3 1.3.5.5.4.8.9.8 1.6 0 .9-.4 1.5-1 1.9a5 5 0 0 1-2.2.5c-1 0-1.8-.2-2.3-.7-.6-.5-.8-1.2-.8-2h1Zm8.7-3.4a2.6 2.6 0 0 1 2 1l.4 1v1.3h-4c0 .6.1 1 .4 1.4.2.4.6.6 1.2.6a1.5 1.5 0 0 0 1.6-1.2h1l-.3.7-.5.6c-.3.3-.7.5-1.1.6l-.8.1c-.7 0-1.3-.3-1.8-.8a3 3 0 0 1-.8-2.2c0-.9.3-1.6.8-2.2.5-.6 1.1-.9 2-.9Zm1.5 2.6c0-.5-.1-.8-.3-1-.2-.5-.7-.7-1.3-.7-.4 0-.8.1-1.1.4-.3.4-.5.8-.5 1.3h3.2Zm2.2-4h1v1.5h.9v.8h-1v3.8l.2.4h.8v.8h-.8c-.4 0-.7 0-.9-.3-.2-.2-.2-.5-.2-.9V69h-.8v-.8h.8v-1.6Zm6.4 1.5v3.9c0 .3 0 .5.2.7.1.3.4.5 1 .5s1-.3 1.3-.9l.2-1.3v-2.9h1V74h-1v-.8a2 2 0 0 1-.4.5 2 2 0 0 1-1.4.5c-.8 0-1.3-.3-1.6-.9a2 2 0 0 1-.3-1.1v-4h1Zm7.4 5.2c.4 0 .8-.2 1.1-.6.3-.4.5-1 .5-1.7l-.2-1.2c-.3-.6-.8-1-1.4-1-.7 0-1.1.4-1.4 1a4 4 0 0 0 0 2.6c.3.6.7.9 1.4.9Zm-2.5-5.1h1v.7l.5-.6a2 2 0 0 1 1.2-.3c.7 0 1.2.3 1.7.8.4.5.6 1.2.6 2.1 0 1.3-.3 2.1-1 2.7-.4.3-.8.5-1.4.5a2 2 0 0 1-1-.3l-.7-.5v2.9h-1v-8Zm12.4 0h1a333.2 333.2 0 0 0-1.7 4.9l-1.2 2.7c-.2.3-.6.5-1.2.5a2.4 2.4 0 0 1-.6-.1v-.9a3.3 3.3 0 0 0 .6.1h.4l.2-.3.2-.4.2-.6-2.1-6h1.1l1.5 4.7 1.6-4.7Zm4 5c.6 0 1-.2 1.3-.6.2-.5.3-1 .3-1.7 0-.5 0-1-.2-1.3-.3-.5-.8-.8-1.4-.8-.6 0-1 .2-1.3.7a3 3 0 0 0-.4 1.6c0 .6.1 1.2.4 1.6.2.4.7.6 1.3.6Zm0-5.2c.7 0 1.4.2 1.9.7.5.5.7 1.2.7 2.2a4 4 0 0 1-.6 2.3c-.5.6-1.2 1-2.1 1-.8 0-1.5-.4-2-.9-.4-.5-.6-1.2-.6-2.2 0-1 .2-1.7.7-2.3.5-.5 1.2-.8 2-.8Zm4.5.1v3.9c0 .3 0 .5.2.7.2.3.5.5 1 .5.6 0 1-.3 1.3-.9.2-.3.2-.8.2-1.3v-2.9h1V74h-1v-.8a2 2 0 0 1-.4.5 2 2 0 0 1-1.3.5c-.8 0-1.4-.3-1.7-.9-.2-.3-.2-.7-.2-1.1v-4h1Zm5 0h1v1c0-.2.2-.4.5-.7a1.4 1.4 0 0 1 1-.4h.3v1a1.4 1.4 0 0 0-.3 0c-.5 0-.9.2-1.1.5-.3.3-.4.7-.4 1V74h-1v-5.8Zm6.3-2h1V74h-1v-7.9Zm4.5 7.2c.6 0 1-.3 1.3-.7.2-.5.4-1 .4-1.7 0-.5-.1-1-.3-1.3-.3-.5-.7-.8-1.4-.8-.6 0-1 .2-1.3.7a3 3 0 0 0-.4 1.6c0 .6.1 1.2.4 1.6.3.4.7.6 1.3.6Zm0-5.3c.8 0 1.4.2 1.9.7.5.5.8 1.2.8 2.2a4 4 0 0 1-.7 2.3c-.5.6-1.2 1-2.1 1-.8 0-1.4-.4-1.9-.9s-.7-1.2-.7-2.2c0-1 .2-1.7.7-2.3.5-.5 1.2-.8 2-.8Zm5.8 0c.7 0 1.2.1 1.6.5.4.3.6.8.7 1.6h-1c0-.4-.1-.7-.3-.9-.2-.2-.5-.4-1-.4-.6 0-1 .3-1.3 1-.2.3-.3.8-.3 1.4 0 .6.2 1 .4 1.4.2.4.6.6 1.2.6.4 0 .7 0 .9-.3l.5-1h1c-.2.7-.4 1.3-.9 1.6-.4.4-1 .6-1.6.6a2 2 0 0 1-1.8-.9c-.5-.5-.7-1.2-.7-2 0-1 .3-1.8.7-2.4.5-.5 1.2-.8 2-.8Zm3.8 4.4c0 .2.1.5.3.6.2.2.5.3.8.3l1-.3c.5-.2.7-.7.7-1.2V71l-.4.2h-.6l-.5.1c-.4 0-.7.2-.8.3-.3.1-.5.4-.5.8Zm2.4-2c.2 0 .3-.1.4-.3V70c0-.4 0-.6-.3-.8l-1-.2c-.5 0-.9.2-1 .4a1 1 0 0 0-.3.7h-.9c0-.7.3-1.2.7-1.5.4-.3 1-.4 1.5-.4.7 0 1.3.1 1.7.4.4.3.6.7.6 1.2v3.5h.3a2.2 2.2 0 0 0 .4 0v.7l-.4.1h-.3c-.3 0-.6 0-.7-.3l-.2-.6c-.2.3-.5.5-.9.7-.3.2-.7.3-1.2.3s-1-.2-1.3-.5c-.3-.3-.5-.7-.5-1.2s.2-1 .5-1.3l1.3-.5 1.6-.2Zm2.8-4.4h1V74h-1v-7.9Zm-75.4 19c0 .7.2 1.2.4 1.6.3.5.7.7 1.3.7.4 0 .8-.2 1.1-.6.3-.4.4-1 .4-1.7s-.1-1.2-.4-1.6c-.3-.3-.7-.5-1.1-.5-.5 0-.9.2-1.2.5-.3.4-.5 1-.5 1.7Zm1.5-3c.4 0 .8.1 1.1.3l.6.6v-3h1v8h-1v-.8c-.2.4-.4.6-.7.8l-1.1.2c-.6 0-1.2-.3-1.7-.8-.4-.5-.7-1.3-.7-2.2 0-.8.2-1.5.7-2.1.4-.6 1-1 1.8-1Zm6.2 0a2.6 2.6 0 0 1 2.1 1l.4 1v1.3h-4.1c0 .6.1 1 .4 1.4.2.4.6.6 1.2.6a1.5 1.5 0 0 0 1.5-1.2h1l-.3.7-.4.6c-.3.3-.7.5-1.1.6l-.8.1c-.7 0-1.3-.3-1.8-.8a3 3 0 0 1-.8-2.2c0-.9.3-1.6.8-2.2.5-.6 1.1-.9 2-.9Zm1.6 2.6c0-.5-.2-.8-.3-1-.3-.5-.7-.7-1.3-.7-.5 0-.8.1-1.1.4-.3.4-.5.8-.5 1.3h3.2Zm2.4-2.5L664 87l1.6-4.7h1l-2.2 5.8h-1l-2.1-5.8h1.1Zm10 0a2.6 2.6 0 0 1 2.1 1c.2.2.3.6.4 1l.1 1.2h-4.2c0 .6.1 1 .4 1.4.3.4.6.6 1.2.6a1.5 1.5 0 0 0 1.6-1.2h1l-.3.7-.5.6c-.3.3-.7.5-1.1.6l-.8.1c-.7 0-1.3-.3-1.8-.8a3 3 0 0 1-.8-2.2c0-.9.3-1.6.8-2.2.5-.6 1.2-.9 2-.9Zm1.6 2.5c0-.5-.1-.8-.3-1-.2-.5-.7-.7-1.3-.7-.4 0-.8.1-1.1.4-.3.4-.5.8-.5 1.3h3.2Zm2-2.5h.9v.9c.3-.4.5-.6.9-.8l1-.2c.8 0 1.3.3 1.6.9.2.3.3.7.3 1.3V88h-1v-3.6c0-.4 0-.7-.2-.9-.2-.3-.5-.5-1-.5h-.5l-.7.5-.3.6V88h-1v-5.8Zm6.3 0L684 87l1.6-4.7h1l-2.1 5.8h-1l-2.2-5.8h1.1Zm4.9 0h1V88h-1v-5.7Zm0-2h1v1h-1v-1Zm2.2 2h1v1c0-.2.2-.4.5-.7a1.4 1.4 0 0 1 1-.4h.3v1a1.4 1.4 0 0 0-.3 0c-.5 0-.9.2-1.1.5-.3.3-.4.7-.4 1V88h-1v-5.8Zm5.7 5.2c.6 0 1-.3 1.3-.7.3-.5.4-1 .4-1.7 0-.5-.1-1-.3-1.3-.2-.5-.7-.8-1.4-.8-.6 0-1 .2-1.3.7-.2.5-.4 1-.4 1.6 0 .6.2 1.2.4 1.6.3.4.7.6 1.3.6Zm0-5.3c.8 0 1.4.2 2 .7.4.5.7 1.2.7 2.2 0 1-.2 1.7-.7 2.3-.4.6-1.1 1-2 1-.9 0-1.5-.4-2-.9-.4-.5-.7-1.2-.7-2.2 0-1 .3-1.7.8-2.3.5-.5 1.1-.8 2-.8Zm3.6.1h1v.9c.2-.4.5-.6.8-.8l1-.2c.8 0 1.4.3 1.7.9l.2 1.3V88h-1v-3.6l-.1-.9c-.2-.3-.5-.5-1-.5h-.5l-.7.5-.3.6-.1.9v3h-1v-5.8Zm6 0h.9v.9l.6-.7a2 2 0 0 1 1-.3c.6 0 1 .1 1.2.4.2 0 .3.3.4.5l.8-.7a2 2 0 0 1 1-.2c.7 0 1.3.3 1.5.9.2.3.3.7.3 1.2V88h-1v-4c0-.4-.1-.6-.3-.8l-.7-.2c-.4 0-.7.1-1 .4-.3.2-.4.7-.4 1.3V88h-1v-3.8l-.1-.8c-.2-.3-.5-.4-.9-.4-.3 0-.7.1-1 .4-.3.3-.4.8-.4 1.5V88h-1v-5.8Zm11.3 0a2.6 2.6 0 0 1 2 1c.2.2.4.6.4 1l.1 1.2h-4.2c0 .6.1 1 .4 1.4.3.4.7.6 1.2.6a1.5 1.5 0 0 0 1.6-1.2h1l-.3.7-.5.6c-.3.3-.7.5-1 .6l-.9.1c-.7 0-1.3-.3-1.8-.8a3 3 0 0 1-.8-2.2c0-.9.3-1.6.8-2.2.5-.6 1.2-.9 2-.9Zm1.5 2.5c0-.5-.1-.8-.3-1-.2-.5-.7-.7-1.3-.7-.4 0-.8.1-1.1.4-.3.4-.5.8-.5 1.3h3.2Zm2-2.5h.9v.9l.9-.8 1-.2c.8 0 1.3.3 1.6.9.2.3.3.7.3 1.3V88h-1v-3.6c0-.4 0-.7-.2-.9-.1-.3-.5-.5-1-.5h-.5l-.7.5-.3.6V88h-1v-5.8Zm6-1.6h1v1.6h1v.8h-1v3.8c0 .2.1.3.3.4h.7v.8h-.8c-.4 0-.7 0-.9-.3l-.2-.9V83h-.8v-.8h.8v-1.6Zm3 6.2h1V88h-1v-1.2Z"/>
  <path fill="#0065A9" d="m708.1 120-8-4.4c-1-.5-2.2-.3-2.9.6l-26.7 26.5a2 2 0 0 0 0 2.7l2.2 2.1c.6.6 1.5.6 2.1.1L707 121c1.1-.9 2.6 0 2.6 1.4 0-1-.5-2-1.4-2.5Z"/>
  <path fill="#007ACC" d="m708.1 153.8-8 4.2c-1 .5-2.2.3-2.9-.5L670.5 131a2 2 0 0 1 0-2.7l2.2-2.2c.6-.5 1.5-.6 2.1 0l32.1 26.5c1.1 1 2.6 0 2.6-1.4v.1c0 1-.5 2-1.4 2.5Z"/>
  <path fill="#1F9CF0" d="M700 158c-1 .5-2 .3-2.8-.5.9 1 2.4.3 2.4-1.1v-39.1c0-1.4-1.5-2.1-2.4-1.1.7-.9 1.8-1 2.8-.6l8.1 4.3c.9.5 1.4 1.4 1.4 2.4v29c0 1-.5 2-1.4 2.5L700 158Z"/>
  <circle cx="689.3" cy="23.3" r="8.3" fill="#000"/>
  <path fill="#fff" d="m689.2 23.1-.5.1a1 1 0 0 0-.5.5h-1.4l.5-4.4h4.3v1.3h-3.2l-.2 1.7.5-.3.8-.1c.7 0 1.2.2 1.7.6.5.5.7 1.1.7 2a3 3 0 0 1-.7 1.9c-.4.5-1.1.8-2 .8-.8 0-1.4-.2-1.9-.6a3 3 0 0 1-.8-1.7h1.6c0 .3.1.6.3.8.2.2.4.3.8.3.3 0 .6-.2.8-.4.2-.3.3-.6.3-1s0-.8-.2-1c-.2-.3-.5-.5-1-.5Z"/>
  <rect width="145" height="150" x="465" y="23.4" fill="#F6F6F6" rx="8"/>
  <path fill="#000" d="M480.3 40.9h1.8v7h4.2v1.6h-6v-8.6Zm8.6 2.2v6.4h-1.7v-6.4h1.7Zm0-2.3v1.6h-1.7v-1.6h1.7Zm4.4 3.5c-.5 0-1 .3-1.1.8l-.2 1v3.4h-1.7v-6.4h1.6v1l.7-.8c.3-.2.7-.3 1.3-.3.6 0 1.2.1 1.6.5.4.3.6.9.6 1.7v4.3h-1.7v-3.9l-.1-.8c-.2-.3-.5-.5-1-.5Zm10 5.2h-2l-1.6-2.7-.7.7v2h-1.6v-8.6h1.6v4.6l2.1-2.4h2l-2.1 2.5 2.3 3.9Zm9.9-.6c-.7.5-1.5.8-2.5.8a4 4 0 0 1-3-1.2c-.6-.8-1-1.9-1-3.2 0-1.6.4-2.7 1.2-3.5.7-.7 1.6-1.1 2.7-1.1 1.5 0 2.5.5 3.2 1.4.4.6.6 1.1.6 1.6h-1.8a2 2 0 0 0-.5-.9c-.3-.4-.8-.6-1.4-.6a2 2 0 0 0-1.6.8c-.3.6-.5 1.3-.5 2.3 0 1 .2 1.7.6 2.2.4.4.9.7 1.5.7s1.1-.2 1.4-.6l.5-1h1.8c-.2.9-.6 1.7-1.2 2.3Zm7.5-5c.6.7.8 1.5.8 2.4 0 1-.2 1.8-.8 2.4-.5.7-1.3 1-2.4 1-1.1 0-2-.3-2.5-1-.5-.6-.8-1.4-.8-2.4 0-.9.3-1.7.8-2.4s1.4-1 2.5-1c1 0 1.9.3 2.4 1Zm-2.4.4c-.5 0-1 .2-1.2.5-.2.4-.4.9-.4 1.5 0 .7.2 1.2.4 1.5.3.3.7.5 1.2.5.4 0 .8-.2 1-.5.3-.3.5-.8.5-1.5 0-.6-.2-1.1-.4-1.5-.3-.3-.7-.5-1.1-.5Zm7.2 0c-.6 0-1 .3-1.2.8l-.1 1v3.4h-1.7v-6.4h1.6v1l.6-.8c.4-.2.8-.3 1.3-.3.7 0 1.2.1 1.6.5.5.3.7.9.7 1.7v4.3h-1.7v-3.9c0-.3 0-.6-.2-.8-.1-.3-.4-.5-1-.5Zm7 4v1.3h-.8c-.8 0-1.3-.1-1.6-.4-.2-.2-.3-.5-.3-1v-3.8h-.9v-1.2h1v-1.8h1.6v1.8h1v1.2h-1v3.8l.7.1h.3Zm6.3-.7c0 .4-.2.8-.6 1.2a3 3 0 0 1-2.3 1c-.8 0-1.5-.4-2.1-.9-.7-.5-1-1.4-1-2.5s.3-2 .9-2.6c.5-.6 1.3-.9 2.2-.9.5 0 1 .1 1.4.3.4.2.8.6 1 1 .3.4.5.8.5 1.3v1.3h-4.3c0 .6.2 1 .6 1.3.2.2.5.3.9.3.3 0 .6-.1.8-.3l.3-.5h1.7Zm-1.6-2c0-.4-.2-.7-.5-1-.2-.2-.5-.3-.8-.3-.4 0-.7.1-1 .4-.2.2-.3.6-.3 1h2.6Zm5.6-1.3c-.6 0-1 .3-1.2.8l-.1 1v3.4h-1.7v-6.4h1.6v1l.6-.8c.4-.2.8-.3 1.3-.3.7 0 1.2.1 1.6.5.5.3.7.9.7 1.7v4.3h-1.7v-3.9c0-.3 0-.6-.2-.8-.1-.3-.5-.5-1-.5Zm7 4v1.3h-.8c-.8 0-1.3-.1-1.6-.4-.2-.2-.3-.5-.3-1v-3.8h-.9v-1.2h1v-1.8h1.6v1.8h1v1.2h-1v3.8l.7.1h.3Zm6.9 0v1.3h-.8c-.8 0-1.4-.1-1.7-.4l-.2-1v-3.8h-1v-1.2h1v-1.8h1.6v1.8h1v1.2h-1v3.3l.1.5.6.1h.4Zm6.1-4.4c.6.7.8 1.5.8 2.4 0 1-.3 1.8-.8 2.4-.5.7-1.3 1-2.4 1-1.1 0-2-.3-2.5-1-.5-.6-.8-1.4-.8-2.4 0-.9.3-1.7.8-2.4s1.4-1 2.5-1c1 0 1.9.3 2.4 1Zm-2.4.4c-.5 0-1 .2-1.2.5-.2.4-.4.9-.4 1.5 0 .7.2 1.2.4 1.5.3.3.7.5 1.1.5.5 0 1-.2 1.2-.5.2-.3.4-.8.4-1.5 0-.6-.2-1.1-.4-1.5-.3-.3-.7-.5-1.1-.5Zm13.5 4.6a4 4 0 0 1-2.5.8c-1.2 0-2.2-.4-2.9-1.2-.7-.8-1-1.9-1-3.2 0-1.6.3-2.7 1.2-3.5.7-.7 1.6-1.1 2.6-1.1 1.5 0 2.6.5 3.2 1.4.4.6.6 1.1.6 1.6h-1.8l-.4-.9c-.4-.4-.8-.6-1.5-.6-.6 0-1.2.3-1.5.8a4 4 0 0 0-.6 2.3c0 1 .2 1.7.6 2.2.4.4.9.7 1.5.7s1.1-.2 1.5-.6l.4-1h1.8c-.2.9-.6 1.7-1.2 2.3Zm7.5-5c.6.7.8 1.5.8 2.4 0 1-.2 1.8-.8 2.4-.5.7-1.3 1-2.4 1-1.1 0-2-.3-2.5-1-.5-.6-.8-1.4-.8-2.4 0-.9.3-1.7.8-2.4.6-.7 1.4-1 2.5-1 1 0 1.9.3 2.4 1Zm-2.4.4c-.5 0-.9.2-1.2.5-.2.4-.3.9-.3 1.5 0 .7 0 1.2.3 1.5.3.3.7.5 1.2.5s.8-.2 1.1-.5c.3-.3.4-.8.4-1.5 0-.6-.1-1.1-.4-1.5-.3-.3-.6-.5-1.1-.5Zm10-3.4v8.6h-1.6v-.9c-.2.4-.5.7-.8.8-.3.2-.7.3-1.2.3-.7 0-1.3-.3-1.8-.9-.5-.6-.8-1.4-.8-2.3 0-1.1.2-2 .7-2.6.6-.6 1.2-1 2-1a2 2 0 0 1 1.8 1v-3h1.7Zm-4.5 5.4c0 .6.1 1.1.4 1.5.2.3.6.5 1 .5.5 0 .9-.2 1.1-.5.3-.4.4-.8.4-1.4 0-.8-.2-1.3-.6-1.7-.3-.2-.5-.3-.9-.3s-.8.2-1 .6c-.3.3-.4.8-.4 1.3Zm11.3 1.3c0 .4-.3.8-.6 1.2a3.2 3.2 0 0 1-4.4.1c-.7-.5-1-1.4-1-2.5s.3-2 .8-2.6a3 3 0 0 1 2.2-.9c.6 0 1 .1 1.5.3.4.2.7.6 1 1 .3.4.4.8.5 1.3v1.3h-4.3c0 .6.2 1 .6 1.3.2.2.5.3.8.3.4 0 .6-.1.9-.3l.3-.5h1.7Zm-1.7-2c0-.4-.1-.7-.4-1-.2-.2-.5-.3-.9-.3s-.7.1-.9.4c-.2.2-.3.6-.4 1h2.6Z"/>
  <path fill="#2B2B2B" d="M488.4 65.9c1 0 1.8.3 2.3.8.6.5.9 1.1 1 1.8h-1.1a2 2 0 0 0-.7-1.2c-.4-.3-.9-.5-1.5-.5-.8 0-1.4.3-1.9.8-.5.6-.7 1.4-.7 2.6 0 .9.2 1.6.6 2.2.5.6 1.1.9 2 .9a2 2 0 0 0 1.8-1l.5-1.2h1c0 .8-.4 1.5-1 2-.5.8-1.4 1.1-2.5 1.1-.9 0-1.6-.3-2.3-.8-.8-.8-1.2-1.9-1.2-3.4 0-1.2.3-2.1 1-2.9.6-.8 1.5-1.2 2.7-1.2Zm6.5 7.5c.7 0 1.1-.3 1.4-.7.2-.5.3-1 .3-1.7 0-.5 0-1-.2-1.3-.3-.5-.8-.8-1.4-.8-.6 0-1 .2-1.3.7a3 3 0 0 0-.4 1.6c0 .6 0 1.2.4 1.6.2.4.7.6 1.2.6Zm0-5.3c.8 0 1.4.2 2 .7.5.5.7 1.2.7 2.2 0 1-.2 1.7-.7 2.3-.4.6-1.1 1-2 1-.8 0-1.5-.4-2-.9-.4-.5-.6-1.2-.6-2.2 0-1 .2-1.7.7-2.3.5-.5 1.2-.8 2-.8Zm6 5.3c.5 0 1-.2 1.2-.6.3-.4.5-1 .5-1.7l-.2-1.2c-.3-.6-.7-1-1.4-1s-1.1.4-1.4 1a4 4 0 0 0 0 2.6c.3.6.7.9 1.4.9Zm-2.4-5.1h1v.7l.6-.6a2 2 0 0 1 1.1-.3c.7 0 1.2.3 1.7.8.4.5.7 1.2.7 2.1 0 1.3-.4 2.1-1 2.7-.4.3-1 .5-1.5.5a2 2 0 0 1-1-.3l-.6-.5v2.9h-1v-8Zm9.6 0h1a333.2 333.2 0 0 0-1.8 4.9c-.5 1.5-1 2.4-1.1 2.7-.3.3-.7.5-1.2.5a2.4 2.4 0 0 1-.6-.1v-.9a3.3 3.3 0 0 0 .6.1h.3l.3-.3.2-.4.2-.6-2.1-6h1l1.6 4.7 1.6-4.7Zm8 0h1.1a333.2 333.2 0 0 0-1.7 4.9l-1.2 2.7c-.3.3-.6.5-1.2.5a2.4 2.4 0 0 1-.6-.1v-.9a3.3 3.3 0 0 0 .6.1h.4l.2-.3.2-.4.2-.6-2.1-6h1l1.6 4.7 1.6-4.7Zm4 5c.7 0 1.1-.2 1.4-.6.2-.5.3-1 .3-1.7 0-.5 0-1-.2-1.3-.3-.5-.8-.8-1.4-.8-.6 0-1 .2-1.3.7a3 3 0 0 0-.4 1.6c0 .6.1 1.2.4 1.6.2.4.7.6 1.2.6Zm0-5.2c.8 0 1.5.2 2 .7.5.5.7 1.2.7 2.2a4 4 0 0 1-.6 2.3c-.5.6-1.2 1-2.1 1-.8 0-1.5-.4-2-.9-.4-.5-.6-1.2-.6-2.2 0-1 .2-1.7.7-2.3.5-.5 1.2-.8 2-.8Zm4.6.1v3.9c0 .3 0 .5.2.7.1.3.5.5 1 .5.6 0 1-.3 1.3-.9l.2-1.3v-2.9h1V74h-1v-.8a2 2 0 0 1-.4.5 2 2 0 0 1-1.3.5c-.9 0-1.4-.3-1.7-.9a2 2 0 0 1-.3-1.1v-4h1Zm5 0h1v1c0-.2.2-.4.5-.7a1.4 1.4 0 0 1 1-.4h.3v1a1.5 1.5 0 0 0-.3 0c-.5 0-.9.2-1.1.5-.3.3-.4.7-.4 1V74h-1v-5.8Zm6.3 0h.9v1c0-.2.3-.4.6-.7a1.4 1.4 0 0 1 1-.4h.3v1a1.4 1.4 0 0 0-.3 0c-.5 0-.9.2-1.2.5a2 2 0 0 0-.3 1V74h-1v-5.8Zm5.8 0a2.6 2.6 0 0 1 2 1c.3.2.4.6.4 1l.1 1.2h-4.2c0 .6.2 1 .4 1.4.3.4.7.6 1.2.6a1.5 1.5 0 0 0 1.6-1.2h1l-.3.7a1 1 0 0 1-.5.6 2 2 0 0 1-1 .6l-.9.1c-.7 0-1.3-.3-1.8-.8a3 3 0 0 1-.7-2.2c0-.9.2-1.6.7-2.2.5-.6 1.2-.9 2-.9Zm1.5 2.5c0-.5 0-.8-.2-1-.3-.5-.7-.7-1.4-.7-.4 0-.8.1-1 .4-.4.4-.5.8-.6 1.3h3.2Zm4.4 2.7c.5 0 .9-.2 1.2-.6.3-.4.4-1 .4-1.7 0-.5 0-.9-.2-1.2-.2-.6-.7-1-1.4-1-.6 0-1.1.4-1.3 1a4 4 0 0 0 0 2.6c.2.6.7.9 1.3.9Zm-2.5-5.1h1v.7l.6-.6a2 2 0 0 1 1.2-.3 2 2 0 0 1 1.6.8c.5.5.7 1.2.7 2.1 0 1.3-.3 2.1-1 2.7-.4.3-.9.5-1.4.5a2 2 0 0 1-1.1-.3l-.6-.5v2.9h-1v-8Zm8.3 5c.6 0 1-.2 1.3-.6.2-.5.4-1 .4-1.7 0-.5-.1-1-.3-1.3-.3-.5-.7-.8-1.4-.8-.6 0-1 .2-1.3.7a3 3 0 0 0-.4 1.6c0 .6.1 1.2.4 1.6.3.4.7.6 1.3.6Zm0-5.2c.8 0 1.4.2 2 .7.4.5.7 1.2.7 2.2a4 4 0 0 1-.7 2.3c-.5.6-1.2 1-2.1 1-.8 0-1.4-.4-1.9-.9s-.7-1.2-.7-2.2c0-1 .3-1.7.7-2.3.5-.5 1.2-.8 2-.8Zm7.7-2V71c0 .6.1 1 .4 1.4.3.6.8.9 1.6.9.9 0 1.5-.3 1.8-1 .2-.3.3-.7.3-1.3v-5h1v4.4c0 1 0 1.8-.3 2.3-.5 1-1.4 1.4-2.7 1.4-1.4 0-2.3-.5-2.8-1.4-.2-.5-.3-1.3-.3-2.3V66h1Zm10.3 3.6a2 2 0 0 0 1.2-.3c.3-.2.4-.5.4-1 0-.6-.2-1-.6-1.2a2 2 0 0 0-.9-.2H569v2.7h2.5Zm-3.6-3.6h3.7c.6 0 1 .1 1.5.3.7.3 1 1 1 1.8 0 .5 0 .9-.2 1.2l-.8.7.7.5.2 1v1l.1.7c.1.3.2.5.4.5v.2h-1.3l-.1-.3v-.6l-.1-1.3c0-.5-.2-.9-.6-1l-1-.2H569V74h-1v-7.9Zm7.6 0h1.1v7h4v.9h-5v-7.9Zm8.4.5h1v1.6h1v.8h-1v3.8c0 .2 0 .3.2.4h.7v.8h-.7c-.5 0-.8 0-1-.3l-.2-.9V69h-.7v-.8h.7v-1.6Zm5 6.8c.6 0 1-.3 1.3-.7.2-.5.3-1 .3-1.7 0-.5 0-1-.2-1.3-.3-.5-.8-.8-1.4-.8-.6 0-1 .2-1.3.7a3 3 0 0 0-.4 1.6c0 .6.1 1.2.4 1.6.3.4.7.6 1.3.6Zm0-5.3c.7 0 1.4.2 1.9.7.5.5.8 1.2.8 2.2a4 4 0 0 1-.7 2.3c-.5.6-1.2 1-2.1 1-.8 0-1.4-.4-2-.9-.4-.5-.6-1.2-.6-2.2 0-1 .2-1.7.7-2.3.5-.5 1.2-.8 2-.8Zm-91.5 14.1h1a333.2 333.2 0 0 0-1.7 5l-1.2 2.7c-.2.3-.6.5-1.2.5a2.4 2.4 0 0 1-.6-.1v-.9a3.3 3.3 0 0 0 .6.1h.4l.2-.3.2-.4.2-.6-2.1-6h1l1.6 4.7 1.6-4.7Zm4 5.2c.6 0 1-.3 1.3-.7.2-.5.3-1 .3-1.7 0-.5 0-1-.2-1.3-.3-.5-.8-.8-1.4-.8-.6 0-1 .2-1.3.7a3 3 0 0 0-.4 1.6c0 .6.1 1.2.4 1.6.2.4.7.6 1.3.6Zm0-5.3c.7 0 1.4.2 1.9.7.5.5.7 1.2.7 2.2a4 4 0 0 1-.6 2.3c-.5.6-1.2 1-2.1 1-.8 0-1.5-.4-2-.9-.4-.5-.6-1.2-.6-2.2 0-1 .2-1.7.7-2.3.5-.5 1.2-.8 2-.8Zm4.5.1v3.9c0 .3 0 .5.2.7.2.3.5.5 1 .5.6 0 1-.3 1.3-.9.2-.3.2-.8.2-1.3v-2.9h1V88h-1v-.8a2 2 0 0 1-.4.5 2 2 0 0 1-1.3.5c-.8 0-1.4-.3-1.7-.9-.2-.3-.2-.7-.2-1.1v-4h1Zm5 0h1v1c0-.2.2-.4.5-.7a1.4 1.4 0 0 1 1-.4h.3v1a1.4 1.4 0 0 0-.3 0c-.5 0-.9.2-1.1.5-.3.3-.4.7-.4 1V88h-1v-5.8Zm6.8 4c0 .3.1.6.3.7.2.3.6.5 1.2.5.4 0 .7 0 1-.2.3-.2.4-.4.4-.8 0-.2-.1-.4-.3-.5l-.9-.3-.7-.2c-.5-.1-.9-.2-1.1-.4-.4-.3-.6-.6-.6-1 0-.6.2-1 .6-1.4.4-.3.9-.5 1.5-.5 1 0 1.5.3 2 .8.2.3.3.6.3 1h-1c0-.2 0-.4-.2-.6-.2-.2-.6-.4-1.1-.4-.4 0-.7 0-.9.2-.2.2-.2.4-.2.6 0 .2 0 .4.3.6l.7.2.6.2a5 5 0 0 1 1.4.5c.4.2.6.6.6 1.1 0 .5-.2 1-.6 1.4a3 3 0 0 1-1.8.5c-.9 0-1.5-.2-1.8-.6-.4-.4-.6-.8-.6-1.4h1Zm5-5.6h1v1.6h.8v.8h-.9v3.8c0 .2 0 .3.2.4h.7v.8h-.7c-.5 0-.8 0-1-.3l-.2-.9V83h-.7v-.8h.7v-1.6Zm4.9 6.8c.6 0 1-.3 1.3-.7.2-.5.3-1 .3-1.7 0-.5 0-1-.2-1.3-.3-.5-.8-.8-1.4-.8-.6 0-1 .2-1.3.7a3 3 0 0 0-.4 1.6c0 .6.1 1.2.4 1.6.3.4.7.6 1.3.6Zm0-5.3c.7 0 1.4.2 1.9.7.5.5.8 1.2.8 2.2a4 4 0 0 1-.7 2.3c-.5.6-1.2 1-2.1 1-.8 0-1.4-.4-2-.9-.4-.5-.6-1.2-.6-2.2 0-1 .2-1.7.7-2.3.5-.5 1.2-.8 2-.8Zm3.6.1h1v1c0-.2.2-.4.5-.7a1.4 1.4 0 0 1 1-.4h.3v1a1.4 1.4 0 0 0-.3 0c-.5 0-.9.2-1.1.5-.3.3-.4.7-.4 1V88h-1v-5.8Zm5.8 0a2.6 2.6 0 0 1 2 1c.3.2.4.6.5 1v1.2h-4.2c0 .6.2 1 .5 1.4.2.4.6.6 1.2.6a1.5 1.5 0 0 0 1.5-1.2h1l-.3.7-.4.6c-.3.3-.7.5-1.1.6l-.8.1c-.7 0-1.3-.3-1.8-.8a3 3 0 0 1-.8-2.2c0-.9.3-1.6.8-2.2.5-.6 1.1-.9 2-.9Zm1.6 2.5c0-.5-.2-.8-.3-1-.3-.5-.7-.7-1.3-.7-.5 0-.8.1-1.1.4-.3.4-.5.8-.5 1.3h3.2Zm2.2-3.3c0-.4 0-.7.2-1 .2-.2.6-.4 1.3-.4a3.4 3.4 0 0 1 .4 0v.9a3.5 3.5 0 0 0-.3 0c-.3 0-.5 0-.6.2v1.2h.9v.7h-1v5h-1v-5h-.7v-.7h.8v-1Zm2.6.8h1v1c0-.2.2-.4.5-.7a1.4 1.4 0 0 1 1-.4h.3v1a1.4 1.4 0 0 0-.3 0c-.5 0-.9.2-1.1.5-.3.3-.4.7-.4 1V88h-1v-5.8Zm5.7 5.2c.6 0 1-.3 1.3-.7.3-.5.4-1 .4-1.7 0-.5-.1-1-.3-1.3-.3-.5-.7-.8-1.4-.8-.6 0-1 .2-1.3.7-.2.5-.4 1-.4 1.6 0 .6.2 1.2.4 1.6.3.4.7.6 1.3.6Zm0-5.3c.8 0 1.4.2 2 .7.4.5.7 1.2.7 2.2 0 1-.2 1.7-.7 2.3-.4.6-1.1 1-2 1-.9 0-1.5-.4-2-.9-.4-.5-.7-1.2-.7-2.2 0-1 .3-1.7.8-2.3.5-.5 1.1-.8 2-.8Zm3.6.1h1v.9c.2-.4.5-.6.8-.8l1-.2c.8 0 1.4.3 1.7.9l.2 1.3V88h-1v-3.6l-.1-.9c-.2-.3-.5-.5-1-.5h-.5l-.7.5-.3.6-.1.9v3h-1v-5.8Zm6.1-1.6h1v1.6h1v.8h-1v3.8c0 .2 0 .3.2.4h.7v.8h-.7c-.5 0-.8 0-1-.3l-.2-.9V83h-.8v-.8h.8v-1.6Zm6 5.6.3.7c.3.3.7.5 1.3.5.4 0 .7 0 1-.2.2-.2.3-.4.3-.8 0-.2 0-.4-.3-.5a4 4 0 0 0-.8-.3l-.8-.2c-.5-.1-.8-.2-1-.4-.5-.3-.7-.6-.7-1 0-.6.2-1 .6-1.4.4-.3 1-.5 1.6-.5.9 0 1.5.3 1.9.8.2.3.3.6.3 1h-.9l-.2-.6c-.3-.2-.6-.4-1.2-.4-.4 0-.6 0-.8.2l-.3.6c0 .2.1.4.4.6l.6.2.6.2a5 5 0 0 1 1.4.5c.4.2.6.6.6 1.1 0 .5-.2 1-.6 1.4-.4.3-1 .5-1.8.5s-1.4-.2-1.8-.6c-.3-.4-.5-.8-.5-1.4h.9Zm4.8-4h1V88h-1v-5.7Zm0-2h1v1h-1v-1Zm2.4.4h1v1.6h1v.8h-1v3.8c0 .2 0 .3.2.4h.7v.8h-.7c-.5 0-.8 0-1-.3l-.2-.9V83h-.8v-.8h.8v-1.6Zm5 1.5a2.6 2.6 0 0 1 2.1 1l.4 1v1.3h-4.1c0 .6.1 1 .4 1.4.2.4.6.6 1.2.6a1.5 1.5 0 0 0 1.6-1.2h1l-.3.7-.5.6c-.3.3-.7.5-1.1.6l-.8.1c-.7 0-1.3-.3-1.8-.8a3 3 0 0 1-.8-2.2c0-.9.3-1.6.8-2.2.5-.6 1.1-.9 2-.9Zm1.6 2.6c0-.5-.1-.8-.3-1-.2-.5-.7-.7-1.3-.7-.4 0-.8.1-1.1.4-.3.4-.5.8-.5 1.3h3.2Zm2.2 2.1h1.1V88h-1.1v-1.2Z"/>
  <path fill="#EB1000" d="M538 112.4h14.7c3.5 0 6 1.7 7.4 5 .5 1 .8 2 .8 3.3v29.2c0 4.6-3.6 8.3-8 8.3H523a8 8 0 0 1-8-8.3v-29.2a8 8 0 0 1 8-8.3h15Z"/>
  <path fill="#fff" d="M532.1 147.7h-7.7c-1 0-1.3-.5-.9-1.4l10-24.4c.4-1 .7-1.2 1.8-1.2h5.3c.8 0 1.3.4 1.7 1.2l10 24.4c.4 1 .2 1.4-.8 1.4H546c-.8 0-1.3-.3-1.6-1l-6.2-15-.4-.5-.4.5-3.7 9.2c-.3.6-.2.8.4.8h4c.4 0 .7.1.9.6l1.7 4c.4.8 0 1.4-.8 1.4H532Z"/>
  <circle cx="537.3" cy="23.3" r="8.3" fill="#000"/>
  <path fill="#fff" d="M540 24.1v1.2h-.9V27h-1.5v-1.7h-3V24l2.8-4.7h1.7V24h.9Zm-4.3 0h2v-3.3l-2 3.3Z"/>
  <rect width="145" height="150" x="313" y="23.4" fill="#F6F6F6" rx="8"/>
  <path fill="#000" d="M328.3 40.9h1.8v7h4.2v1.6h-6v-8.6Zm8.6 2.2v6.4h-1.7v-6.4h1.7Zm0-2.3v1.6h-1.7v-1.6h1.7Zm4.4 3.5c-.5 0-1 .3-1.1.8l-.2 1v3.4h-1.7v-6.4h1.6v1l.7-.8c.3-.2.7-.3 1.3-.3.6 0 1.2.1 1.6.5.4.3.6.9.6 1.7v4.3h-1.7v-3.9l-.1-.8c-.2-.3-.5-.5-1-.5Zm10 5.2h-2l-1.6-2.7-.7.7v2h-1.6v-8.6h1.6v4.6l2.1-2.4h2l-2.1 2.5 2.3 3.9Zm9.9-.6c-.7.5-1.5.8-2.5.8a4 4 0 0 1-3-1.2c-.6-.8-1-1.9-1-3.2 0-1.6.4-2.7 1.2-3.5.7-.7 1.6-1.1 2.7-1.1 1.5 0 2.5.5 3.2 1.4.4.6.6 1.1.6 1.6h-1.8a2 2 0 0 0-.5-.9c-.3-.4-.8-.6-1.4-.6a2 2 0 0 0-1.6.8c-.3.6-.5 1.3-.5 2.3 0 1 .2 1.7.6 2.2.4.4.9.7 1.5.7s1.1-.2 1.4-.6l.5-1h1.8c-.2.9-.6 1.7-1.2 2.3Zm7.5-5c.6.7.8 1.5.8 2.4 0 1-.2 1.8-.8 2.4-.5.7-1.3 1-2.4 1-1.1 0-2-.3-2.5-1-.5-.6-.8-1.4-.8-2.4 0-.9.3-1.7.8-2.4s1.4-1 2.5-1c1 0 1.9.3 2.4 1Zm-2.4.4c-.5 0-1 .2-1.2.5-.2.4-.4.9-.4 1.5 0 .7.2 1.2.4 1.5.3.3.7.5 1.2.5.4 0 .8-.2 1-.5.3-.3.5-.8.5-1.5 0-.6-.2-1.1-.4-1.5-.3-.3-.7-.5-1.1-.5Zm10-3.4v8.6h-1.6v-.9c-.3.4-.5.7-.8.8-.3.2-.7.3-1.2.3-.7 0-1.4-.3-1.9-.9-.5-.6-.7-1.4-.7-2.3 0-1.1.2-2 .7-2.6.5-.6 1.2-1 2-1a2 2 0 0 1 1.8 1v-3h1.7Zm-4.5 5.4c0 .6.1 1.1.3 1.5.3.3.6.5 1.1.5.5 0 .8-.2 1-.5.3-.4.5-.8.5-1.4 0-.8-.2-1.3-.6-1.7l-.9-.3c-.5 0-.8.2-1 .6-.3.3-.4.8-.4 1.3Zm11.2 1.3c0 .4-.2.8-.5 1.2a3.2 3.2 0 0 1-4.4.1c-.7-.5-1-1.4-1-2.5s.3-2 .8-2.6a3 3 0 0 1 2.2-.9c.5 0 1 .1 1.4.3.5.2.8.6 1 1 .3.4.5.8.6 1.3v1.3h-4.3c0 .6.2 1 .6 1.3.2.2.5.3.8.3.3 0 .6-.1.8-.3.1-.1.3-.3.3-.5h1.7Zm-1.6-2c0-.4-.2-.7-.4-1-.2-.2-.5-.3-.9-.3s-.7.1-.9.4c-.2.2-.3.6-.4 1h2.6Zm8.6 2.7v1.3h-.7c-.8 0-1.4-.1-1.7-.4-.2-.2-.2-.5-.2-1v-3.8h-1v-1.2h1v-1.8h1.6v1.8h1v1.2h-1v3.3l.1.5.6.1h.3Zm6.2-4.4c.5.7.8 1.5.8 2.4 0 1-.3 1.8-.8 2.4-.5.7-1.4 1-2.5 1-1 0-1.9-.3-2.4-1-.5-.6-.8-1.4-.8-2.4 0-.9.3-1.7.8-2.4s1.3-1 2.4-1c1.1 0 2 .3 2.5 1Zm-2.5.4c-.4 0-.8.2-1 .5-.3.4-.5.9-.5 1.5 0 .7.2 1.2.4 1.5.3.3.7.5 1.1.5.5 0 1-.2 1.2-.5.2-.3.4-.8.4-1.5 0-.6-.2-1.1-.4-1.5-.3-.3-.7-.5-1.2-.5Zm13.6 4.6a4 4 0 0 1-2.5.8c-1.2 0-2.2-.4-2.9-1.2-.7-.8-1-1.9-1-3.2 0-1.6.3-2.7 1.1-3.5.7-.7 1.6-1.1 2.7-1.1 1.5 0 2.5.5 3.2 1.4.4.6.6 1.1.6 1.6h-1.8l-.4-.9a2 2 0 0 0-1.5-.6 2 2 0 0 0-1.6.8c-.3.6-.5 1.3-.5 2.3 0 1 .2 1.7.6 2.2.4.4.9.7 1.5.7s1.1-.2 1.5-.6l.4-1h1.8c-.2.9-.6 1.7-1.2 2.3Zm7.5-5c.6.7.8 1.5.8 2.4 0 1-.2 1.8-.8 2.4-.5.7-1.3 1-2.4 1-1.1 0-2-.3-2.5-1-.5-.6-.8-1.4-.8-2.4 0-.9.3-1.7.8-2.4.6-.7 1.4-1 2.5-1 1 0 1.9.3 2.4 1Zm-2.4.4c-.5 0-.9.2-1.2.5-.2.4-.4.9-.4 1.5 0 .7.2 1.2.4 1.5.3.3.7.5 1.2.5s.8-.2 1.1-.5c.3-.3.4-.8.4-1.5 0-.6-.1-1.1-.4-1.5-.3-.3-.6-.5-1.1-.5Zm7.2 0c-.6 0-1 .3-1.2.8l-.1 1v3.4h-1.7v-6.4h1.6v1l.6-.8c.4-.2.8-.3 1.3-.3.7 0 1.2.1 1.7.5.4.3.6.9.6 1.7v4.3h-1.7v-3.9c0-.3 0-.6-.2-.8-.1-.3-.4-.5-.9-.5Zm7 4v1.3h-.8c-.8 0-1.3-.1-1.6-.4-.2-.2-.3-.5-.3-1v-3.8h-.9v-1.2h1v-1.8h1.6v1.8h1v1.2h-1v3.8l.7.1h.3Zm6.3-.7c0 .4-.2.8-.6 1.2a3 3 0 0 1-2.3 1c-.8 0-1.5-.4-2.1-.9-.6-.5-1-1.4-1-2.5s.3-2 .9-2.6c.5-.6 1.3-.9 2.2-.9.5 0 1 .1 1.4.3.4.2.8.6 1 1 .3.4.5.8.5 1.3l.1 1.3h-4.4c0 .6.3 1 .6 1.3.3.2.5.3.9.3.3 0 .6-.1.8-.3l.3-.5h1.7Zm-1.6-2c0-.4-.2-.7-.4-1-.3-.2-.6-.3-1-.3a1 1 0 0 0-.8.4c-.2.2-.4.6-.4 1h2.6Zm5.6-1.3c-.6 0-1 .3-1.2.8l-.1 1v3.4h-1.7v-6.4h1.6v1l.6-.8c.4-.2.8-.3 1.3-.3.7 0 1.2.1 1.6.5.5.3.7.9.7 1.7v4.3H438v-3.9c0-.3 0-.6-.2-.8-.1-.3-.4-.5-.9-.5Zm7 4v1.3h-.8c-.8 0-1.3-.1-1.6-.4-.2-.2-.3-.5-.3-1v-3.8h-.9v-1.2h1v-1.8h1.6v1.8h1v1.2h-1v3.8l.7.1h.3Z"/>
  <path fill="#2B2B2B" d="M332.8 65.9c1 0 1.8.3 2.4.8.5.5.8 1.1.9 1.8h-1c-.2-.5-.4-1-.8-1.2-.3-.3-.8-.5-1.5-.5s-1.4.3-1.8.8c-.5.6-.8 1.4-.8 2.6 0 .9.3 1.6.7 2.2.4.6 1 .9 2 .9a2 2 0 0 0 1.7-1l.5-1.2h1c0 .8-.4 1.5-.9 2-.6.8-1.4 1.1-2.5 1.1-1 0-1.7-.3-2.3-.8a4.6 4.6 0 0 1-1.3-3.4c0-1.2.4-2.1 1-2.9.6-.8 1.6-1.2 2.7-1.2Zm6.6 7.5c.6 0 1-.3 1.3-.7.2-.5.4-1 .4-1.7 0-.5-.1-1-.3-1.3-.3-.5-.7-.8-1.4-.8-.6 0-1 .2-1.3.7a3 3 0 0 0-.4 1.6c0 .6.1 1.2.4 1.6.3.4.7.6 1.3.6Zm0-5.3c.8 0 1.4.2 2 .7.4.5.7 1.2.7 2.2a4 4 0 0 1-.7 2.3c-.5.6-1.2 1-2.1 1-.8 0-1.4-.4-1.9-.9s-.7-1.2-.7-2.2c0-1 .3-1.7.7-2.3.5-.5 1.2-.8 2-.8Zm6 5.3c.5 0 .9-.2 1.2-.6.3-.4.4-1 .4-1.7 0-.5 0-.9-.2-1.2-.2-.6-.7-1-1.4-1-.6 0-1 .4-1.3 1a4 4 0 0 0 0 2.6c.2.6.7.9 1.3.9Zm-2.5-5.1h1v.7l.6-.6a2 2 0 0 1 1.2-.3 2 2 0 0 1 1.6.8c.5.5.7 1.2.7 2.1 0 1.3-.3 2.1-1 2.7-.4.3-.9.5-1.4.5a2 2 0 0 1-1.1-.3l-.6-.5v2.9h-1v-8Zm9.6 0h1a333.2 333.2 0 0 0-1.7 4.9l-1.2 2.7c-.2.3-.6.5-1.2.5a2.4 2.4 0 0 1-.6-.1v-.9a3.4 3.4 0 0 0 .6.1h.4l.2-.3.2-.4.2-.6-2-6h1L351 73l1.5-4.7Zm8.1 0h1a351.8 351.8 0 0 0-1.7 4.9l-1.2 2.7c-.2.3-.6.5-1.2.5a2.4 2.4 0 0 1-.5-.1v-.9a3.3 3.3 0 0 0 .5.1h.4l.2-.3.2-.4.3-.6-2.2-6h1.1l1.6 4.7 1.5-4.7Zm4 5c.6 0 1-.2 1.3-.6.3-.5.4-1 .4-1.7 0-.5-.1-1-.3-1.3-.3-.5-.7-.8-1.4-.8-.6 0-1 .2-1.3.7a3 3 0 0 0-.4 1.6c0 .6.1 1.2.4 1.6.3.4.7.6 1.3.6Zm0-5.2c.8 0 1.4.2 2 .7.4.5.7 1.2.7 2.2 0 1-.2 1.7-.7 2.3-.4.6-1.1 1-2.1 1-.8 0-1.4-.4-1.9-.9-.4-.5-.7-1.2-.7-2.2 0-1 .3-1.7.8-2.3.4-.5 1.1-.8 2-.8Zm4.6.1v3.9l.1.7c.2.3.5.5 1 .5.7 0 1.1-.3 1.4-.9l.2-1.3v-2.9h1V74h-1v-.8a2 2 0 0 1-.4.5 2 2 0 0 1-1.4.5c-.8 0-1.4-.3-1.7-.9l-.2-1.1v-4h1Zm5 0h.9v1c0-.2.2-.4.5-.7a1.4 1.4 0 0 1 1.1-.4h.2v1a1.4 1.4 0 0 0-.3 0c-.5 0-.8.2-1.1.5-.3.3-.4.7-.4 1V74h-1v-5.8Zm8.4-.1c.7 0 1.2.1 1.6.5.4.3.7.8.7 1.6h-.9c0-.4-.2-.7-.4-.9-.2-.2-.5-.4-1-.4-.6 0-1 .3-1.3 1-.2.3-.3.8-.3 1.4 0 .6.2 1 .4 1.4.3.4.6.6 1.2.6.4 0 .7 0 1-.3l.4-1h1c-.2.7-.4 1.3-.9 1.6-.4.4-1 .6-1.6.6a2 2 0 0 1-1.8-.9c-.5-.5-.7-1.2-.7-2 0-1 .3-1.8.7-2.4.5-.5 1.2-.8 2-.8Zm5.4 5.3c.6 0 1-.3 1.3-.7.2-.5.3-1 .3-1.7 0-.5 0-1-.2-1.3-.3-.5-.8-.8-1.4-.8-.6 0-1 .2-1.3.7a3 3 0 0 0-.4 1.6c0 .6.1 1.2.4 1.6.3.4.7.6 1.3.6Zm0-5.3c.7 0 1.4.2 1.9.7.5.5.8 1.2.8 2.2a4 4 0 0 1-.7 2.3c-.5.6-1.2 1-2.1 1-.8 0-1.4-.4-2-.9-.4-.5-.6-1.2-.6-2.2 0-1 .2-1.7.7-2.3.5-.5 1.2-.8 2-.8Zm3.6.1h.9v.9l.9-.8 1-.2c.8 0 1.4.3 1.6.9.2.3.3.7.3 1.3V74h-1v-3.6c0-.4 0-.7-.2-.9-.1-.3-.4-.5-.9-.5h-.6l-.7.5-.3.6V74h-1v-5.8Zm6-1.6h1v1.6h1v.8h-1v3.8c0 .2.1.3.3.4h.7v.8h-.8c-.4 0-.7 0-.9-.3l-.2-.9V69h-.8v-.8h.8v-1.6Zm5.1 1.5a2.6 2.6 0 0 1 2 1c.3.3.4.7.5 1v1.3H401c0 .6.2 1 .5 1.4.2.4.6.6 1.2.6a1.5 1.5 0 0 0 1.5-1.2h1l-.3.7-.4.6c-.3.3-.7.5-1.1.6l-.8.1c-.7 0-1.3-.3-1.8-.8a3 3 0 0 1-.8-2.2c0-.9.3-1.6.8-2.2.5-.6 1.1-.9 2-.9Zm1.6 2.6c0-.5-.2-.8-.3-1-.3-.5-.7-.7-1.3-.7-.5 0-.8.1-1.1.4-.4.4-.5.8-.5 1.3h3.2Zm2-2.5h.9v.9c.2-.4.5-.6.8-.8l1-.2c.8 0 1.4.3 1.7.9l.2 1.3V74h-1v-3.6l-.1-.9c-.2-.3-.5-.5-1-.5h-.5l-.7.5-.3.6-.1.9v3h-1v-5.8Zm6-1.6h1v1.6h1v.8h-1v3.8c0 .2 0 .3.2.4h.7v.8h-.7c-.5 0-.8 0-1-.3l-.2-.9V69h-.7v-.8h.7v-1.6Zm5.8.8c0-.4 0-.7.2-1 .2-.2.6-.4 1.3-.4a3.5 3.5 0 0 1 .4 0v.9a3.5 3.5 0 0 0-.4 0c-.3 0-.4 0-.5.2v1.2h.9v.7h-1v5h-1v-5h-.7v-.7h.8v-1Zm4.8 6c.7 0 1.1-.3 1.4-.7.2-.5.3-1 .3-1.7 0-.5 0-1-.2-1.3-.3-.5-.8-.8-1.4-.8-.6 0-1 .2-1.3.7a3 3 0 0 0-.4 1.6c0 .6.1 1.2.4 1.6.2.4.7.6 1.2.6Zm0-5.3c.8 0 1.4.2 2 .7.5.5.7 1.2.7 2.2a4 4 0 0 1-.6 2.3c-.5.6-1.2 1-2.1 1-.8 0-1.5-.4-2-.9-.4-.5-.6-1.2-.6-2.2 0-1 .2-1.7.7-2.3.5-.5 1.2-.8 2-.8Zm3.7-2h1V74h-1v-7.9Zm2.8 5c0 .7.1 1.2.4 1.6.3.5.7.7 1.3.7.4 0 .8-.2 1-.6.3-.4.5-1 .5-1.7s-.2-1.2-.5-1.6c-.3-.3-.6-.5-1-.5-.5 0-1 .2-1.2.5-.3.4-.5 1-.5 1.7Zm1.5-3c.4 0 .8.1 1 .3l.7.6v-3h.9v8h-.9v-.8a2 2 0 0 1-.8.8l-1 .2c-.7 0-1.2-.3-1.7-.8s-.7-1.3-.7-2.2c0-.8.2-1.5.6-2.1.5-.6 1-1 1.9-1Zm6.2 0a2.6 2.6 0 0 1 2 1c.2.3.4.7.4 1l.1 1.3h-4.2c0 .6.2 1 .4 1.4.3.4.7.6 1.2.6a1.5 1.5 0 0 0 1.6-1.2h1l-.3.7a1 1 0 0 1-.5.6 2 2 0 0 1-1 .6l-.9.1c-.7 0-1.3-.3-1.8-.8a3 3 0 0 1-.7-2.2c0-.9.2-1.6.7-2.2.5-.6 1.2-.9 2-.9Zm1.5 2.6-.2-1c-.3-.5-.7-.7-1.4-.7-.4 0-.8.1-1 .4-.4.4-.5.8-.6 1.3h3.2Zm2-2.5h1v1c0-.2.2-.4.5-.7a1.4 1.4 0 0 1 1.1-.4h.2v1a1.5 1.5 0 0 0-.3 0c-.5 0-.9.2-1.1.5-.3.3-.4.7-.4 1V74h-1v-5.8Zm-106.2 12V85c0 .6.1 1 .4 1.4.3.6.8.9 1.6.9.9 0 1.5-.3 1.8-1 .2-.3.3-.7.3-1.3v-5h1v4.4c0 1 0 1.8-.3 2.3-.5 1-1.4 1.4-2.7 1.4-1.4 0-2.3-.5-2.8-1.4-.2-.5-.3-1.3-.3-2.3V80h1Zm10.3 3.5a2 2 0 0 0 1.2-.3c.3-.2.4-.5.4-1 0-.6-.2-1-.6-1.2a2 2 0 0 0-.9-.2h-2.6v2.7h2.5Zm-3.6-3.6h3.7c.6 0 1 .1 1.5.3.7.3 1 1 1 1.8 0 .5 0 .9-.2 1.2l-.8.7.7.5.2 1v1l.1.7c.1.3.2.5.4.5v.2h-1.3l-.1-.3v-.6l-.1-1.3c0-.5-.2-.9-.6-1l-1-.2h-2.4V88h-1v-7.9Zm7.6 0h1.1v7h4v.9h-5v-7.9Zm8.4.5h1v1.6h1v.8h-1v3.8c0 .2 0 .3.2.4h.7v.8h-.7c-.5 0-.8 0-1-.3l-.2-.9V83h-.7v-.8h.7v-1.6Zm5 6.8c.6 0 1-.3 1.3-.7.2-.5.3-1 .3-1.7 0-.5 0-1-.2-1.3-.3-.5-.8-.8-1.4-.8-.6 0-1 .2-1.3.7a3 3 0 0 0-.4 1.6c0 .6.1 1.2.4 1.6.3.4.7.6 1.3.6Zm0-5.3c.7 0 1.4.2 1.9.7.5.5.8 1.2.8 2.2a4 4 0 0 1-.7 2.3c-.5.6-1.2 1-2.1 1-.8 0-1.4-.4-2-.9-.4-.5-.6-1.2-.6-2.2 0-1 .2-1.7.7-2.3.5-.5 1.2-.8 2-.8Zm10 .1h1a333.2 333.2 0 0 0-1.7 5l-1.2 2.7c-.2.3-.6.5-1.2.5a2.4 2.4 0 0 1-.5-.1v-.9a3.3 3.3 0 0 0 .5.1h.4l.2-.3.2-.4.3-.6-2.2-6h1.1l1.6 4.7 1.5-4.7Zm4 5.2c.6 0 1-.3 1.3-.7.2-.5.4-1 .4-1.7 0-.5-.1-1-.3-1.3-.3-.5-.7-.8-1.4-.8-.6 0-1 .2-1.3.7a3 3 0 0 0-.4 1.6c0 .6.1 1.2.4 1.6.3.4.7.6 1.3.6Zm0-5.3c.8 0 1.4.2 2 .7.4.5.7 1.2.7 2.2a4 4 0 0 1-.7 2.3c-.5.6-1.2 1-2.1 1-.8 0-1.4-.4-1.9-.9s-.7-1.2-.7-2.2c0-1 .3-1.7.8-2.3.4-.5 1.1-.8 2-.8Zm4.6.1v3.9l.1.7c.2.3.5.5 1 .5.7 0 1.1-.3 1.4-.9l.2-1.3v-2.9h1V88h-1v-.8a2 2 0 0 1-.5.5 2 2 0 0 1-1.3.5c-.8 0-1.4-.3-1.7-.9l-.2-1.1v-4h1Zm5 0h.9v1c0-.2.2-.4.5-.7a1.4 1.4 0 0 1 1.1-.4h.2v1a1.4 1.4 0 0 0-.3 0c-.5 0-.8.2-1.1.5-.3.3-.4.7-.4 1V88h-1v-5.8Zm6.2 0h1v1c0-.2.2-.4.5-.7a1.4 1.4 0 0 1 1.1-.4h.2v1a1.4 1.4 0 0 0-.3 0c-.5 0-.9.2-1.1.5-.3.3-.4.7-.4 1V88h-1v-5.8Zm5.8 0a2.6 2.6 0 0 1 2.1 1c.2.2.3.6.4 1v1.2h-4.1c0 .6.1 1 .4 1.4.2.4.6.6 1.2.6a1.5 1.5 0 0 0 1.5-1.2h1l-.3.7-.4.6c-.3.3-.7.5-1.1.6l-.8.1c-.7 0-1.3-.3-1.8-.8a3 3 0 0 1-.8-2.2c0-.9.3-1.6.8-2.2.5-.6 1.1-.9 2-.9Zm1.6 2.5c0-.5-.2-.8-.3-1-.3-.5-.7-.7-1.3-.7-.5 0-.8.1-1.1.4-.3.4-.5.8-.5 1.3h3.2Zm4.4 2.7c.4 0 .8-.2 1-.6.4-.4.5-1 .5-1.7 0-.5 0-.9-.2-1.2-.2-.6-.7-1-1.3-1-.7 0-1.2.4-1.4 1a4 4 0 0 0 0 2.6c.2.6.7.9 1.4.9Zm-2.5-5.1h1v.7l.5-.6a2 2 0 0 1 1.2-.3c.6 0 1.2.3 1.7.8.4.5.6 1.2.6 2.1 0 1.3-.3 2.1-1 2.7-.4.3-.8.5-1.4.5a2 2 0 0 1-1-.3l-.7-.5v2.9h-1v-8Zm8.2 5c.7 0 1.1-.2 1.3-.6.3-.5.4-1 .4-1.7 0-.5 0-1-.3-1.3-.2-.5-.7-.8-1.4-.8-.6 0-1 .2-1.2.7a3 3 0 0 0-.5 1.6c0 .6.2 1.2.5 1.6.2.4.6.6 1.2.6Zm0-5.2c.8 0 1.4.2 2 .7.5.5.7 1.2.7 2.2 0 1-.2 1.7-.7 2.3-.4.6-1.1 1-2 1-.9 0-1.5-.4-2-.9-.4-.5-.6-1.2-.6-2.2 0-1 .2-1.7.7-2.3.5-.5 1.1-.8 2-.8Zm4.2 4.1c0 .3.1.6.3.7.2.3.6.5 1.2.5.4 0 .7 0 1-.2.3-.2.4-.4.4-.8 0-.2-.1-.4-.3-.5a4 4 0 0 0-.9-.3l-.7-.2c-.5-.1-.9-.2-1.1-.4-.4-.3-.6-.6-.6-1 0-.6.2-1 .5-1.4.4-.3 1-.5 1.6-.5.9 0 1.5.3 1.9.8.2.3.4.6.4 1h-1c0-.2 0-.4-.2-.6-.2-.2-.6-.4-1.1-.4-.4 0-.7 0-.9.2l-.3.6c0 .2.2.4.4.6l.6.2.7.2a5 5 0 0 1 1.4.5c.4.2.5.6.5 1.1 0 .5-.2 1-.5 1.4a3 3 0 0 1-1.8.5c-.9 0-1.5-.2-1.8-.6-.4-.4-.6-.8-.6-1.4h1Zm4.7-4h1V88h-1v-5.7Zm0-2h1v1h-1v-1Zm2.5.4h1v1.6h.8v.8h-.9v3.8l.2.4h.7v.8h-.7c-.4 0-.7 0-1-.3l-.1-.9V83h-.8v-.8h.8v-1.6Zm4.9 6.8c.6 0 1-.3 1.3-.7.2-.5.4-1 .4-1.7 0-.5-.1-1-.3-1.3-.3-.5-.7-.8-1.4-.8-.6 0-1 .2-1.3.7a3 3 0 0 0-.4 1.6c0 .6.1 1.2.4 1.6.3.4.7.6 1.3.6Zm0-5.3c.8 0 1.4.2 1.9.7.5.5.8 1.2.8 2.2a4 4 0 0 1-.7 2.3c-.5.6-1.2 1-2.1 1-.8 0-1.4-.4-1.9-.9s-.7-1.2-.7-2.2c0-1 .3-1.7.7-2.3.5-.5 1.2-.8 2-.8Zm3.6.1h1v1c0-.2.2-.4.5-.7a1.4 1.4 0 0 1 1.1-.4h.2v1a1.4 1.4 0 0 0-.3 0c-.5 0-.8.2-1.1.5-.3.3-.4.7-.4 1V88h-1v-5.8Zm7 0h1.1a333.2 333.2 0 0 0-1.8 5c-.5 1.5-1 2.4-1.2 2.7-.2.3-.6.5-1.1.5a2.4 2.4 0 0 1-.6-.1v-.9a3.3 3.3 0 0 0 .5.1h.4l.2-.3.2-.4.3-.6-2.1-6h1l1.6 4.7 1.5-4.7Zm1.1 4.6h1.2V88h-1.2v-1.2Z"/>
  <path fill="#000" fill-rule="evenodd" d="M375.3 144.6a.6.6 0 0 1-.6-.5v-5.4l-2.6-4.8a.7.7 0 0 1 .2-.9c.2-.2.6 0 .8.2l2.2 4.2 2.3-4.2c.2-.3.6-.4.8-.2.3.2.4.6.2.9l-2.7 4.8v5.3c0 .4-.3.6-.6.6Zm14.9 0c-.3 0-.6-.2-.6-.5v-9l-3.2 3.2c-.2.2-.6.2-.8 0l-3.2-3.3v9c0 .4-.3.6-.6.6a.6.6 0 0 1-.5-.5v-10.5c0-.3 0-.5.3-.6l.6.1 3.9 4 3.8-4c.2-.1.4-.2.7 0 .2 0 .3.2.3.5V144c-.1.4-.4.6-.7.6Zm8.8 0h-4.8a.6.6 0 0 1-.5-.5v-10.5c0-.4.2-.6.5-.6s.6.2.6.6v9.8h4.3c.3 0 .5.3.5.6s-.2.6-.5.6Zm1 13.8h-28.4c-1 0-2-1-2-2.1v-8.6c0-.3.2-.5.6-.5.3 0 .5.2.5.5v8.6c0 .5.4.9.9.9H400c.5 0 .9-.4.9-.9v-8.6c0-.3.2-.5.5-.5s.6.2.6.5v8.6a2 2 0 0 1-2 2Zm1.5-28c-.4 0-.6-.2-.6-.5v-6l-7-7.3h-22.3c-.5 0-.8.3-.8.8V130c0 .3-.3.6-.6.6s-.6-.3-.6-.6v-12.5c0-1 1-2 2-2h22.5l.4.1 7.4 7.8.2.4v6.2c-.1.3-.3.6-.6.6Z" clip-rule="evenodd"/>
  <path fill="#000" fill-rule="evenodd" d="M401.5 124.3h-6.3c-1 0-1.7-.8-1.7-1.8V116c0-.2.2-.4.4-.5l.6.1 7.4 7.8c.1.1.2.4 0 .6 0 .2-.2.4-.4.4Zm-6.8-7v5.2c0 .3.2.5.5.5h4.9l-5.4-5.6Zm7.9 31H369a2 2 0 0 1-2-2v-15c0-1 1-2 2-2h33.6c1.2 0 2 1 2 2v15a2 2 0 0 1-2 2ZM369 130.5c-.5 0-.9.4-.9.8v15c0 .4.4.8.9.8h33.6c.5 0 .9-.4.9-.9v-14.8c0-.5-.4-1-.9-1H369Zm19.8-4.1h-13.4a.6.6 0 0 1-.6-.6v-5c0-.3.3-.6.6-.6h13.4c.4 0 .6.3.6.6v5c0 .3-.2.6-.6.6Zm-12.8-1.2h12.3v-3.8H376v3.8Zm20.8 26h-5c-.4 0-.6-.2-.6-.6 0-.3.2-.6.5-.6h5c.4 0 .7.3.7.6 0 .4-.3.6-.6.6Zm-7.7 0h-3.9c-.3 0-.5-.2-.5-.6 0-.3.2-.6.5-.6h4c.2 0 .5.3.5.6 0 .4-.3.6-.6.6Zm-6.5 0h-7.8c-.3 0-.5-.2-.5-.6 0-.3.2-.6.5-.6h7.8c.3 0 .6.3.6.6 0 .4-.3.6-.6.6Zm14.2 3.5h-3.4c-.3 0-.5-.2-.5-.5 0-.4.2-.6.5-.6h3.4c.3 0 .6.2.6.6 0 .3-.3.5-.6.5Zm-6 0h-6.3c-.3 0-.5-.2-.5-.5 0-.4.2-.6.5-.6h6.3c.4 0 .6.2.6.6 0 .3-.2.5-.6.5Zm-8.9 0h-7c-.4 0-.6-.2-.6-.5 0-.4.2-.6.5-.6h7.1c.3 0 .5.2.5.6 0 .3-.2.5-.5.5Z" clip-rule="evenodd"/>
  <circle cx="385.3" cy="23.3" r="8.3" fill="#000"/>
  <path fill="#fff" d="M384.4 20.8c-.2.2-.3.5-.3.9h-1.4c0-.4 0-.8.2-1.1l.6-.9.7-.4a3 3 0 0 1 1-.1c.7 0 1.3.2 1.8.6.5.3.7.9.7 1.5 0 .5-.2.8-.4 1.2l-.6.4c.2 0 .4 0 .6.3.4.4.6.9.6 1.5 0 .7-.2 1.2-.7 1.7-.4.5-1 .8-2 .8s-1.9-.4-2.3-1l-.4-1.6h1.5c0 .3 0 .6.2.8.2.4.5.5 1 .5.3 0 .6 0 .8-.3.2-.2.3-.5.3-.9 0-.5-.2-.8-.6-1l-1.1-.1v-1.1c.5 0 .8 0 1-.2.4-.1.5-.4.5-.9 0-.3 0-.5-.2-.7a1 1 0 0 0-.8-.3c-.3 0-.6.1-.7.4Z"/>
  <rect width="145" height="150" x="161" y="23.4" fill="#F6F6F6" rx="8"/>
  <path fill="#000" d="M204.7 47.6h-3.2l-.6 1.8h-2l3.2-8.7h2l3 8.7h-1.9l-.5-1.8ZM204 46l-1-3.4-1.1 3.4h2.1Zm9.6-5.4v8.7H212v-1l-.8 1-1.2.2c-.7 0-1.3-.3-1.9-1-.5-.5-.7-1.3-.7-2.3 0-1 .2-2 .7-2.5.5-.7 1.2-1 2-1a2 2 0 0 1 1.8 1v-3h1.7Zm-4.5 5.5c0 .6.1 1 .4 1.4.2.4.5.6 1 .6s.8-.2 1-.6c.3-.3.5-.8.5-1.3 0-.8-.2-1.4-.6-1.7l-.9-.3c-.5 0-.8.2-1 .5-.3.4-.4.9-.4 1.4Zm11.6-5.5v8.7h-1.6v-1l-.8 1-1.2.2c-.7 0-1.3-.3-1.9-1-.5-.5-.7-1.3-.7-2.3 0-1 .2-2 .7-2.5.5-.7 1.2-1 2-1a2 2 0 0 1 1.8 1v-3h1.7Zm-4.5 5.5c0 .6.1 1 .4 1.4.2.4.5.6 1 .6s.8-.2 1-.6c.3-.3.5-.8.5-1.3 0-.8-.2-1.4-.6-1.7l-.9-.3c-.5 0-.8.2-1 .5-.3.4-.4.9-.4 1.4Zm15.1 2.5a3.8 3.8 0 0 1-5.4-.3c-.7-.8-1-1.9-1-3.3 0-1.5.3-2.7 1.2-3.5.7-.7 1.6-1 2.6-1 1.5 0 2.6.4 3.2 1.4.4.5.6 1 .6 1.6h-1.8c0-.4-.2-.7-.4-1-.4-.3-.8-.5-1.5-.5-.6 0-1.2.3-1.5.8-.4.5-.6 1.3-.6 2.2 0 1 .2 1.7.6 2.2.4.5.9.7 1.5.7.7 0 1.1-.2 1.5-.6l.4-1h1.8c-.1 1-.5 1.7-1.2 2.3Zm7.5-5c.6.8.9 1.6.9 2.5 0 1-.3 1.7-.9 2.4-.5.7-1.3 1-2.4 1-1.1 0-2-.3-2.5-1s-.8-1.5-.8-2.4c0-1 .3-1.7.8-2.4.6-.7 1.4-1 2.5-1 1 0 1.9.3 2.4 1Zm-2.4.5c-.5 0-.9.2-1.1.5-.3.4-.4.8-.4 1.5 0 .6 0 1.1.4 1.5.2.3.6.5 1 .5.6 0 1-.2 1.2-.5.3-.4.4-.9.4-1.5 0-.7-.1-1.1-.4-1.5-.3-.3-.6-.5-1.1-.5Zm7.2 0c-.5 0-1 .3-1.1.7-.2.3-.2.6-.2 1v3.5h-1.7V43h1.6v1l.6-.8c.4-.2.8-.4 1.4-.4.6 0 1.2.2 1.6.5.4.4.6 1 .6 1.8v4.3h-1.7v-4l-.1-.7c-.2-.3-.5-.5-1-.5Zm7 4v1.2h-.8c-.7 0-1.3 0-1.6-.4-.2-.1-.3-.4-.3-.8v-4h-.8V43h.8v-1.7h1.7V43h1v1.2h-1v3.9h1.2Zm6.3-.7c0 .4-.2.8-.6 1.1-.5.7-1.3 1-2.3 1-.8 0-1.5-.3-2.1-.8-.6-.5-1-1.4-1-2.6 0-1 .3-2 .9-2.5a3 3 0 0 1 2.2-.9c.5 0 1 .1 1.4.3.4.2.8.5 1 1 .3.3.5.8.6 1.3v1.2h-4.4c0 .7.3 1.1.6 1.4l.9.2c.3 0 .6 0 .8-.3l.3-.4h1.7Zm-1.6-2c0-.4-.2-.7-.4-1-.3-.2-.6-.3-1-.3a1 1 0 0 0-.8.4c-.2.2-.4.5-.4 1h2.6Zm5.6-1.3c-.6 0-1 .3-1.2.7l-.1 1v3.5H258V43h1.6v1l.6-.8c.4-.2.8-.4 1.3-.4.7 0 1.2.2 1.7.5.4.4.6 1 .6 1.8v4.3H262v-4c0-.3 0-.5-.2-.7-.1-.3-.4-.5-.9-.5Zm7 4v1.2h-.8c-.8 0-1.3 0-1.6-.4-.2-.1-.3-.4-.3-.8v-4h-.9V43h1v-1.7h1.6V43h1v1.2h-1v3.9h1.1Z"/>
  <path fill="#2B2B2B" d="m182.5 70.8-1.2-3.5-1.3 3.5h2.5Zm-1.8-4.7h1.2l2.9 7.9h-1.2l-.8-2.4h-3l-1 2.4h-1l3-7.9Zm5.3 5c0 .7.2 1.2.4 1.6.3.5.7.7 1.3.7.4 0 .8-.2 1-.6.4-.4.5-1 .5-1.7s-.1-1.2-.4-1.6c-.3-.3-.7-.5-1.1-.5-.5 0-1 .2-1.2.5-.3.4-.5 1-.5 1.7Zm1.5-3c.4 0 .8.1 1.1.3l.6.6v-3h1v8h-1v-.8a2 2 0 0 1-.8.8l-1 .2c-.7 0-1.2-.3-1.7-.8s-.7-1.3-.7-2.2c0-.8.2-1.5.7-2.1.4-.6 1-1 1.8-1Zm4.4 3c0 .7.2 1.2.4 1.6.3.5.7.7 1.3.7.4 0 .8-.2 1-.6.4-.4.5-1 .5-1.7s-.1-1.2-.4-1.6c-.3-.3-.7-.5-1.1-.5-.5 0-1 .2-1.2.5-.3.4-.5 1-.5 1.7Zm1.5-3c.4 0 .8.1 1.1.3l.6.6v-3h1v8h-1v-.8a2 2 0 0 1-.8.8l-1 .2c-.7 0-1.2-.3-1.7-.8-.4-.5-.7-1.3-.7-2.2 0-.8.2-1.5.7-2.1.4-.6 1-1 1.8-1Zm7.2 4.1c0 .3.2.6.3.7.2.3.7.5 1.3.5.3 0 .6 0 .9-.2.3-.2.4-.4.4-.8 0-.2-.1-.4-.3-.5l-.8-.3-.8-.2c-.5-.1-.9-.2-1.1-.4-.4-.3-.6-.6-.6-1 0-.6.2-1 .6-1.4.4-.3.9-.5 1.5-.5 1 0 1.5.3 2 .8.2.3.3.6.3 1h-1c0-.2 0-.4-.2-.6-.2-.2-.6-.4-1.1-.4-.4 0-.7 0-.9.2l-.2.6c0 .2 0 .4.3.6l.7.2.6.2a5 5 0 0 1 1.4.5c.4.2.6.6.6 1.1 0 .5-.2 1-.6 1.4a3 3 0 0 1-1.8.5c-.9 0-1.5-.2-1.8-.6-.4-.4-.6-.8-.6-1.4h1Zm5-5.6h1v1.6h.8v.8h-.9v3.8c0 .2 0 .3.2.4h.7v.8h-.7c-.4 0-.8 0-1-.3l-.2-.9V69h-.7v-.8h.7v-1.6Zm3.3 5.9c0 .2.1.5.3.6.2.2.5.3.8.3l1-.3c.5-.2.8-.7.8-1.2V71l-.5.2h-.5l-.6.1c-.4 0-.6.2-.8.3-.3.1-.5.4-.5.8Zm2.4-2c.2 0 .3-.1.4-.3V70c0-.4 0-.6-.3-.8l-1-.2c-.5 0-.8.2-1 .4-.2.2-.2.4-.3.7h-.9c0-.7.3-1.2.7-1.5.4-.3 1-.4 1.5-.4.7 0 1.3.1 1.7.4.4.3.6.7.6 1.2v3.5h.3a2.3 2.3 0 0 0 .4 0v.7l-.4.1h-.3c-.3 0-.6 0-.7-.3l-.2-.6-.8.7c-.4.2-.8.3-1.3.3s-1-.2-1.3-.5c-.3-.3-.5-.7-.5-1.2s.2-1 .5-1.3l1.3-.5 1.6-.2Zm2.8-2.3h1v1c0-.2.2-.4.5-.7a1.4 1.4 0 0 1 1.1-.4h.2v1a1.4 1.4 0 0 0-.3 0c-.5 0-.9.2-1.1.5-.3.3-.4.7-.4 1V74h-1v-5.8Zm3.6-1.6h1v1.6h1v.8h-1v3.8c0 .2 0 .3.2.4h.7v.8h-.7c-.5 0-.8 0-1-.3l-.2-.9V69h-.7v-.8h.7v-1.6Zm5 1.5a2.6 2.6 0 0 1 2.1 1c.2.3.4.7.4 1l.1 1.3h-4.2c0 .6.1 1 .4 1.4.3.4.7.6 1.2.6a1.5 1.5 0 0 0 1.6-1.2h1l-.3.7-.5.6c-.3.3-.7.5-1 .6l-.9.1c-.7 0-1.3-.3-1.8-.8a3 3 0 0 1-.7-2.2c0-.9.2-1.6.7-2.2.5-.6 1.2-.9 2-.9Zm1.6 2.6c0-.5-.1-.8-.3-1-.2-.5-.7-.7-1.3-.7-.4 0-.8.1-1.1.4-.3.4-.5.8-.5 1.3h3.2Zm2-2.5h1v1c0-.2.2-.4.5-.7a1.4 1.4 0 0 1 1-.4h.3v1a1.5 1.5 0 0 0-.3 0c-.5 0-.9.2-1.1.5-.3.3-.4.7-.4 1V74h-1v-5.8Zm8.5-.1c.6 0 1.2.1 1.6.5.4.3.6.8.7 1.6h-1c0-.4-.1-.7-.3-.9-.2-.2-.6-.4-1-.4-.6 0-1 .3-1.3 1-.2.3-.3.8-.3 1.4 0 .6.1 1 .4 1.4.2.4.6.6 1.1.6.4 0 .7 0 1-.3l.5-1h.9c-.1.7-.4 1.3-.8 1.6-.4.4-1 .6-1.7.6s-1.3-.3-1.8-.9c-.4-.5-.6-1.2-.6-2 0-1 .2-1.8.7-2.4.5-.5 1.1-.8 1.9-.8Zm5.3 5.3c.7 0 1.1-.3 1.3-.7.3-.5.4-1 .4-1.7 0-.5 0-1-.3-1.3-.2-.5-.7-.8-1.4-.8-.6 0-1 .2-1.3.7-.2.5-.4 1-.4 1.6 0 .6.2 1.2.4 1.6.3.4.7.6 1.3.6Zm0-5.3c.8 0 1.4.2 2 .7.5.5.7 1.2.7 2.2 0 1-.2 1.7-.7 2.3-.4.6-1.1 1-2 1-.9 0-1.5-.4-2-.9-.4-.5-.6-1.2-.6-2.2 0-1 .2-1.7.7-2.3.5-.5 1.1-.8 2-.8Zm3.6.1h1v.9c.2-.4.5-.6.8-.8l1-.2c.9 0 1.4.3 1.7.9.2.3.2.7.2 1.3V74h-1v-3.6l-.1-.9c-.2-.3-.5-.5-1-.5h-.5l-.7.5-.3.6V74h-1v-5.8Zm6.1-1.6h1v1.6h1v.8h-1v3.8c0 .2 0 .3.2.4h.7v.8h-.7c-.4 0-.8 0-1-.3l-.2-.9V69h-.7v-.8h.7v-1.6Zm5 1.5a2.6 2.6 0 0 1 2.2 1l.3 1 .1 1.3h-4.2c0 .6.2 1 .4 1.4.3.4.7.6 1.2.6a1.5 1.5 0 0 0 1.6-1.2h1l-.3.7a1 1 0 0 1-.5.6 2 2 0 0 1-1 .6l-.9.1c-.7 0-1.3-.3-1.8-.8a3 3 0 0 1-.7-2.2c0-.9.2-1.6.7-2.2.5-.6 1.2-.9 2-.9Zm1.6 2.6-.2-1c-.3-.5-.8-.7-1.4-.7-.4 0-.8.1-1 .4-.4.4-.5.8-.6 1.3h3.2Zm2-2.5h1v.9c.2-.4.5-.6.8-.8l1-.2c.8 0 1.4.3 1.6.9.2.3.3.7.3 1.3V74h-1v-3.6c0-.4 0-.7-.2-.9-.1-.3-.4-.5-.9-.5h-.6l-.6.5-.4.6V74h-1v-5.8Zm6-1.6h1v1.6h1v.8h-1v3.8c0 .2.1.3.3.4h.7v.8h-.7c-.5 0-.8 0-1-.3l-.2-.9V69h-.8v-.8h.8v-1.6Zm5.8.8.2-1c.3-.2.7-.4 1.3-.4a3.5 3.5 0 0 1 .4 0v.9a3.5 3.5 0 0 0-.3 0c-.3 0-.5 0-.5.2l-.1 1.2h1v.7h-1v5h-1v-5h-.8v-.7h.8v-1Zm2.7.8h.9v1c0-.2.2-.4.5-.7a1.4 1.4 0 0 1 1.1-.4h.2v1a1.4 1.4 0 0 0-.3 0c-.5 0-.8.2-1 .5-.4.3-.5.7-.5 1V74h-1v-5.8Zm5.7 5.2c.6 0 1-.3 1.3-.7.2-.5.3-1 .3-1.7 0-.5 0-1-.2-1.3-.3-.5-.8-.8-1.4-.8-.6 0-1 .2-1.3.7a3 3 0 0 0-.4 1.6c0 .6.1 1.2.4 1.6.2.4.7.6 1.3.6Zm0-5.3c.7 0 1.4.2 1.9.7.5.5.7 1.2.7 2.2a4 4 0 0 1-.6 2.3c-.5.6-1.2 1-2.1 1-.8 0-1.5-.4-2-.9-.4-.5-.6-1.2-.6-2.2 0-1 .2-1.7.7-2.3.5-.5 1.2-.8 2-.8Zm3.6.1h1v.9l.5-.7c.4-.2.7-.3 1.1-.3.5 0 .9.1 1.1.4.2 0 .3.3.5.5a2 2 0 0 1 1.7-.9c.8 0 1.3.3 1.6.9l.2 1.2V74h-1v-4c0-.4 0-.6-.3-.8l-.7-.2c-.4 0-.7.1-1 .4-.2.2-.4.7-.4 1.3V74h-1v-3.8l-.1-.8c-.1-.3-.4-.4-.8-.4s-.7.1-1 .4c-.3.3-.5.8-.5 1.5V74h-1v-5.8ZM176.4 80.6h1v1.6h.9v.8h-1v3.8l.2.4h.8v.8h-.8c-.4 0-.7 0-.9-.3-.2-.2-.2-.5-.2-.9V83h-.8v-.8h.8v-1.6Zm2.6-.5h1v3c.2-.4.4-.6.6-.7a2 2 0 0 1 1.2-.3c.8 0 1.4.3 1.6.9.2.3.3.7.3 1.3V88h-1v-3.6c0-.4 0-.8-.2-1-.1-.3-.5-.4-1-.4-.4 0-.7.1-1 .4-.4.3-.5.8-.5 1.5V88h-1v-8Zm8.3 2a2.6 2.6 0 0 1 2 1c.3.3.4.7.5 1v1.3h-4.2c0 .6.2 1 .4 1.4.3.4.7.6 1.2.6a1.5 1.5 0 0 0 1.6-1.2h1l-.3.7a1 1 0 0 1-.5.6 2 2 0 0 1-1 .6l-.8.1c-.8 0-1.4-.3-1.9-.8a3 3 0 0 1-.7-2.2c0-.9.2-1.6.7-2.2.5-.6 1.2-.9 2-.9Zm1.5 2.6c0-.5 0-.8-.2-1-.3-.5-.7-.7-1.4-.7-.4 0-.8.1-1 .4-.4.4-.5.8-.6 1.3h3.2Zm4.8-4.6h1v2.8a2.1 2.1 0 0 1 1.6-.8c.7 0 1.3.2 1.8.7.4.5.6 1.3.6 2.2a4 4 0 0 1-.6 2.3c-.5.6-1 .9-1.9.9-.4 0-.8-.1-1-.3l-.6-.6v.7h-1v-8Zm2.5 7.2c.5 0 .9-.2 1.2-.6.2-.4.4-1 .4-1.6 0-.6-.2-1.1-.4-1.5-.3-.4-.7-.6-1.2-.6-.4 0-.8.1-1.1.5-.4.3-.5.8-.5 1.6 0 .5 0 1 .2 1.3.2.6.7 1 1.4 1Zm5.7 0c.7 0 1.1-.2 1.4-.6.2-.5.3-1 .3-1.7 0-.5 0-1-.2-1.3-.3-.5-.8-.8-1.5-.8-.5 0-1 .2-1.2.7a3 3 0 0 0-.4 1.6c0 .6 0 1.2.4 1.6.2.4.7.6 1.2.6Zm0-5.2c.8 0 1.4.2 2 .7.5.5.7 1.2.7 2.2 0 1-.2 1.7-.7 2.3-.4.6-1.1 1-2 1-.8 0-1.5-.4-2-.9-.4-.5-.6-1.2-.6-2.2 0-1 .2-1.7.7-2.3.5-.5 1.1-.8 2-.8Zm3.7.2h1V88h-1v-5.7Zm0-2.2h1v1.1h-1v-1Zm2.2 0h1V88h-1v-7.9Zm4.6 2a2.6 2.6 0 0 1 2 1c.3.3.4.7.5 1v1.3h-4.2c0 .6.2 1 .4 1.4.3.4.7.6 1.2.6a1.5 1.5 0 0 0 1.6-1.2h1l-.3.7a1 1 0 0 1-.5.6 2 2 0 0 1-1 .6l-.8.1c-.8 0-1.4-.3-1.9-.8a3 3 0 0 1-.7-2.2c0-.9.2-1.6.7-2.2.5-.6 1.2-.9 2-.9Zm1.6 2.6c0-.5-.2-.8-.3-1-.3-.5-.7-.7-1.3-.7-.5 0-.9.1-1.2.4a2 2 0 0 0-.4 1.3h3.2Zm2-2.5h.9v1c0-.2.2-.4.5-.7a1.4 1.4 0 0 1 1.1-.4h.2v1a1.4 1.4 0 0 0-.3 0c-.5 0-.8.2-1.1.5-.3.3-.4.7-.4 1V88h-1v-5.8Zm5.8 5.2c.4 0 .8-.2 1.1-.6.3-.4.5-1 .5-1.7l-.2-1.2c-.3-.6-.7-1-1.4-1s-1.1.4-1.4 1a4 4 0 0 0 0 2.6c.3.6.7.9 1.4.9Zm-2.5-5.1h1v.7l.6-.6a2 2 0 0 1 1.1-.3c.7 0 1.2.3 1.7.8.4.5.7 1.2.7 2.1 0 1.3-.4 2.1-1 2.7-.4.3-1 .5-1.5.5a2 2 0 0 1-1-.3l-.6-.5v2.9h-1v-8Zm6-2.2h1V88h-1v-7.9Zm3 6.4c0 .2 0 .5.2.6.2.2.5.3.8.3l1-.3c.5-.2.8-.7.8-1.2V85l-.5.2h-.5l-.6.1c-.4 0-.6.2-.8.3-.3.1-.5.4-.5.8Zm2.3-2c.2 0 .3-.1.4-.3V84c0-.4 0-.6-.3-.8l-1-.2c-.5 0-.8.2-1 .4-.2.2-.2.4-.3.7h-.9c0-.7.3-1.2.7-1.5.5-.3 1-.4 1.5-.4.7 0 1.3.1 1.7.4.4.3.6.7.6 1.2v3.5h.3a2.3 2.3 0 0 0 .4 0v.7l-.4.1h-.3c-.3 0-.6 0-.7-.3l-.2-.6-.8.7c-.4.2-.8.3-1.3.3s-1-.2-1.3-.5c-.3-.3-.5-.7-.5-1.2s.2-1 .5-1.3l1.3-.5 1.6-.2Zm3-3.9h1v1.6h.9v.8h-1v3.8c0 .2.1.3.3.4h.7v.8h-.7c-.5 0-.8 0-1-.3l-.2-.9V83h-.8v-.8h.8v-1.6Zm5 1.5a2.6 2.6 0 0 1 2.1 1l.4 1v1.3h-4c0 .6.1 1 .4 1.4.2.4.6.6 1.2.6a1.5 1.5 0 0 0 1.5-1.2h1l-.3.7-.4.6c-.3.3-.7.5-1.1.6l-.8.1c-.7 0-1.3-.3-1.8-.8a3 3 0 0 1-.8-2.2c0-.9.3-1.6.8-2.2.5-.6 1.1-.9 2-.9Zm1.6 2.6c0-.5-.2-.8-.3-1-.3-.5-.7-.7-1.3-.7-.5 0-.8.1-1.1.4-.3.4-.5.8-.5 1.3h3.2Zm4.8-2.5h1v1c0-.2.2-.4.5-.7a1.4 1.4 0 0 1 1-.4h.3v1a1.5 1.5 0 0 0-.3 0c-.5 0-.9.2-1.1.5-.3.3-.4.7-.4 1V88h-1v-5.8Zm5.8 0a2.6 2.6 0 0 1 2 1c.3.2.4.6.5 1v1.2H249c0 .6.2 1 .5 1.4.2.4.6.6 1.2.6a1.5 1.5 0 0 0 1.5-1.2h1l-.3.7-.4.6c-.3.3-.7.5-1.1.6l-.8.1c-.7 0-1.4-.3-1.8-.8a3 3 0 0 1-.8-2.2c0-.9.3-1.6.8-2.2.5-.6 1.1-.9 2-.9Zm1.6 2.5c0-.5-.2-.8-.3-1-.3-.5-.7-.7-1.3-.7-.5 0-.9.1-1.2.4a2 2 0 0 0-.4 1.3h3.2Zm4.4 2.7c.4 0 .8-.2 1-.6.4-.4.5-1 .5-1.7 0-.5 0-.9-.2-1.2-.2-.6-.7-1-1.3-1-.7 0-1.2.4-1.4 1a4 4 0 0 0 0 2.6c.2.6.7.9 1.4.9Zm-2.5-5.1h.9v.7l.6-.6a2 2 0 0 1 1.2-.3 2 2 0 0 1 1.6.8c.5.5.7 1.2.7 2.1 0 1.3-.3 2.1-1 2.7-.4.3-.9.5-1.4.5a2 2 0 0 1-1.1-.3l-.6-.5v2.9h-1v-8Zm8.2 5c.7 0 1-.2 1.3-.6.3-.5.4-1 .4-1.7 0-.5-.1-1-.3-1.3-.2-.5-.7-.8-1.4-.8-.6 0-1 .2-1.3.7-.2.5-.4 1-.4 1.6 0 .6.2 1.2.4 1.6.3.4.7.6 1.3.6Zm0-5.2c.8 0 1.4.2 2 .7.4.5.7 1.2.7 2.2 0 1-.2 1.7-.7 2.3-.4.6-1.1 1-2 1-.9 0-1.5-.4-2-.9-.4-.5-.7-1.2-.7-2.2 0-1 .3-1.7.8-2.3.5-.5 1.1-.8 2-.8Zm4.2 4.1c0 .3.1.6.3.7.2.3.6.5 1.2.5.4 0 .7 0 1-.2.2-.2.4-.4.4-.8 0-.2-.1-.4-.4-.5a4 4 0 0 0-.8-.3l-.8-.2c-.4-.1-.8-.2-1-.4-.5-.3-.7-.6-.7-1 0-.6.2-1 .6-1.4.4-.3 1-.5 1.6-.5.9 0 1.5.3 1.9.8.2.3.3.6.3 1h-.9c0-.2 0-.4-.2-.6-.2-.2-.6-.4-1.2-.4-.3 0-.6 0-.8.2l-.3.6c0 .2.1.4.4.6l.6.2.7.2a5 5 0 0 1 1.4.5c.3.2.5.6.5 1.1 0 .5-.2 1-.6 1.4-.3.3-1 .5-1.7.5-.9 0-1.5-.2-1.9-.6-.3-.4-.5-.8-.5-1.4h1Zm4.7-4h1V88h-1v-5.7Zm0-2h1v1h-1v-1Zm2.4.4h1v1.6h1v.8h-1v3.8c0 .2 0 .3.2.4h.7v.8h-.7c-.5 0-.8 0-1-.3l-.2-.9V83h-.7v-.8h.7v-1.6Zm5 6.8c.6 0 1-.3 1.3-.7.2-.5.3-1 .3-1.7 0-.5 0-1-.2-1.3-.3-.5-.8-.8-1.4-.8-.6 0-1 .2-1.3.7a3 3 0 0 0-.4 1.6c0 .6.1 1.2.4 1.6.3.4.7.6 1.3.6Zm0-5.3c.7 0 1.4.2 1.9.7.5.5.8 1.2.8 2.2a4 4 0 0 1-.7 2.3c-.5.6-1.2 1-2.1 1-.8 0-1.4-.4-2-.9-.4-.5-.6-1.2-.6-2.2 0-1 .2-1.7.7-2.3.5-.5 1.2-.8 2-.8Zm3.6.1h1v1c0-.2.2-.4.5-.7a1.4 1.4 0 0 1 1-.4h.3v1a1.5 1.5 0 0 0-.3 0c-.5 0-.9.2-1.1.5-.3.3-.4.7-.4 1V88h-1v-5.8Zm7 0h1a333.2 333.2 0 0 0-1.7 5l-1.2 2.7c-.2.3-.6.5-1.2.5a2.4 2.4 0 0 1-.5-.1v-.9a3.3 3.3 0 0 0 .5.1h.4l.2-.3.2-.4.3-.6-2.2-6h1.1l1.6 4.7 1.5-4.7Zm1.1 4.6h1.1V88h-1v-1.2Z"/>
  <g clip-path="url(#a)">
    <path fill="#41A5EE" d="m227.8 111.8-14.5 5.4c-.6.1-.8.7-.6 1.3l7 19.3c.3.6.8.9 1.3.7l14.5-5.3c.6-.2.8-.8.6-1.4l-7-19.3c-.3-.6-.8-.8-1.3-.7Z"/>
    <path fill="#103F91" d="M219.8 137.8c.2.6.7.9 1.2.7l14.6-5.3c.5-.2.7-.8.5-1.4l-1.6-4.3-16.3 6 1.6 4.3Z"/>
    <path fill="#41A5EE" d="M229 112.5c-.2-.6-.7-.8-1.2-.7l-14.5 5.4c-.6.1-.8.7-.6 1.3l1.6 4.3 16.3-6-1.6-4.3Z"/>
    <path fill="#2B7CD3" d="m230.6 116.8-16.3 6 2 5.4 16.3-6-2-5.4Z"/>
    <path fill="#185ABD" d="m232.6 122.2-16.4 6 2 5.3 16.3-6-2-5.3Z"/>
    <path fill="url(#b)" d="M0 0h7.7v14.6H0z" style="mix-blend-mode:multiply" transform="matrix(1 -.3 .3 1 214 122)"/>
    <path fill="url(#c)" d="m219.1 120.4-9 3.4c-.6.2-.8.7-.6 1.3l3.6 9.8c.2.5.7.8 1.2.6l9.1-3.3c.5-.2.8-.8.6-1.3l-3.6-9.8c-.2-.6-.8-.9-1.3-.7Z"/>
    <path fill="#fff" d="m218.2 123.8.6 3.3.4 2.3-3-4.8-1.2.4.8 5.6-1.2-2-1.7-2.8-1.1.4 3.7 5.8 1.3-.5-.6-4-.2-1.4.7 1.2 2.2 3.5 1.4-.5-1-6.9-1.1.4Z"/>
  </g>
  <path fill="#2685FD" fill-rule="evenodd" d="m220.4 114.2 9.4-1 6.2 5 1.5 15.5c.1.8-.5 1.6-1.4 1.7l-13.4 1.3c-.8.1-1.6-.5-1.7-1.4l-2-19.4c0-.9.6-1.7 1.4-1.7Z" clip-rule="evenodd"/>
  <path fill="#0166DA" fill-rule="evenodd" d="m230.4 118.8 5.6-.6-6.2-5 .6 5.6Z" clip-rule="evenodd"/>
  <path fill="#fff" fill-rule="evenodd" d="m223.3 122.6 9.5-1v1.3l-9.4 1-.1-1.3Zm.6 6.3 6.9-.7v1.2l-6.8.7-.1-1.2Zm-.3-3.1 9.5-1 .1 1.2-9.5 1-.1-1.2Z" clip-rule="evenodd"/>
  <g clip-path="url(#d)">
    <path fill="#185C37" d="m252.1 114.8-16.6-1a1 1 0 0 0-1.1 1.1l-1.2 21.7a1 1 0 0 0 1 1.2l16.6.9c.6 0 1-.5 1.1-1l1.2-21.8a1 1 0 0 0-1-1.1Z"/>
    <path fill="#21A366" d="m244 114.3-8.5-.4a1 1 0 0 0-1.1 1l-.3 4.9 9.7.5.3-6Z"/>
    <path fill="#33C481" d="m252.8 120.8.3-4.9a1 1 0 0 0-1-1.1l-8-.5-.3 6 9 .5Z"/>
    <path fill="#107C41" d="m243.8 120.3-9.7-.5-.3 6 9.6.5.4-6Z"/>
    <path fill="#21A366" d="m252.8 120.8-9-.5-.4 6 9.1.5.3-6Z"/>
    <path fill="#107C41" d="m252.5 126.8-9-.5-.4 6 9 .5.4-6Z"/>
    <path fill="url(#e)" d="M0 0h8.3v15.4H0z" style="mix-blend-mode:multiply" transform="translate(234.2 119)"/>
    <path fill="url(#f)" d="m240 119.5-10.5-.6a1 1 0 0 0-1 1l-.7 11a1 1 0 0 0 1 1.2l10.4.6c.6 0 1-.5 1.1-1l.6-11a1 1 0 0 0-1-1.2Z"/>
    <path fill="#fff" d="m234.5 125-1.2-2.9h-1.6l1.8 3.6-2.4 3.5h1.6l1.6-2.7 1.3 3h1.6l-2-3.7 2.3-3.4-1.5-.1-1.5 2.7Z"/>
  </g>
  <path fill="#01AC46" fill-rule="evenodd" d="m243.7 114.5 9 3 3.7 7-4.7 14.7c-.3.9-1.2 1.3-2 1l-12.8-4a1.6 1.6 0 0 1-1-2l5.8-18.7c.3-.8 1.2-1.2 2-1Z" clip-rule="evenodd"/>
  <path fill="#00852C" fill-rule="evenodd" d="m251 122.7 5.4 1.7-3.7-7-1.7 5.3Z" clip-rule="evenodd"/>
  <path fill="#fff" fill-rule="evenodd" d="m242.5 123.3 10 3.2-2.2 7.2-10.1-3.3 2.3-7.1Zm0 4.7 3 1-.5 1.5-3-1 .4-1.5Zm.9-3 3 1-.5 1.5-3-1 .5-1.5Zm3.4 4.4 3 1-.4 1.5-3-1 .4-1.5Zm1-3 3 1-.5 1.5-3-1 .5-1.4Z" clip-rule="evenodd"/>
  <rect width="44.7" height="28.1" x="210.4" y="130.4" fill="url(#g)" stroke="#43B8EA" stroke-width=".5" rx="4"/>
  <path fill="#09F" d="M220.7 142.9h-1.4c0-.2 0-.4-.2-.5-.1-.3-.4-.4-.7-.4-.5 0-.8.3-1 .7l-.1 1 .1 1c.2.4.5.6 1 .6.3 0 .5 0 .7-.2l.2-.7h1.4c0 .4-.2.8-.4 1.2-.5.6-1.1.9-2 .9-.8 0-1.5-.3-1.9-.8a3 3 0 0 1-.6-2c0-.9.3-1.6.7-2 .4-.6 1-.8 1.8-.8.7 0 1.3.1 1.7.4.4.3.7.8.7 1.6Zm5.2-1.2c.5.5.7 1.2.7 2a3 3 0 0 1-.7 2c-.4.5-1 .8-2 .8s-1.6-.3-2-.8a3 3 0 0 1-.7-2c0-.8.2-1.5.6-2 .5-.6 1.2-.9 2-.9 1 0 1.7.3 2.1.9Zm-2 .3c-.4 0-.7.1-1 .4a2 2 0 0 0-.3 1.3c0 .5.1.9.3 1.2.3.3.6.4 1 .4s.7-.1 1-.4c.1-.3.3-.7.3-1.2 0-.6-.2-1-.4-1.3-.2-.3-.5-.4-1-.4Zm6 0c-.5 0-.8.2-1 .6v3.7h-1.5V141h1.4v.8c.1-.3.3-.5.5-.6.3-.2.6-.3 1-.3.6 0 1 .1 1.4.4.4.3.5.8.5 1.4v3.6h-1.4v-3.2l-.1-.7c-.1-.3-.4-.4-.8-.4Zm5.9 3.3v1h-.7c-.7.1-1.1 0-1.3-.3-.2-.1-.3-.4-.3-.7V142h-.7v-1h.7v-1.5h1.4v1.5h.9v1h-.9v3.2l.6.1h.3Zm5.2-.6c0 .4-.2.7-.5 1-.4.5-1 .8-1.9.8-.7 0-1.3-.2-1.8-.7-.5-.4-.8-1.1-.8-2.1s.3-1.6.7-2.1c.5-.5 1.1-.8 1.9-.8l1.2.3c.3.2.6.4.8.8.2.3.4.7.4 1v1.1h-3.6c0 .6.2 1 .5 1.2l.7.2c.3 0 .6-.1.7-.3l.3-.4h1.4Zm-1.4-1.6c0-.4-.1-.6-.3-.8a1 1 0 0 0-.7-.3 1 1 0 0 0-.8.3c-.2.2-.3.5-.3.8h2.1Zm4.7-1c-.4 0-.8.1-1 .5v3.7h-1.5V141h1.4v.8l.5-.6c.3-.2.6-.3 1-.3.6 0 1 .1 1.4.4.4.3.5.8.5 1.4v3.6h-1.4v-3.9c-.2-.3-.5-.4-.9-.4Zm5.9 3.2v1h-.7c-.6.1-1 0-1.3-.3-.2-.1-.3-.4-.3-.7V142h-.7v-1h.7v-1.5h1.4v1.5h.9v1h-.9v3.2l.6.1h.3Z" opacity=".8"/>
  <circle cx="233.3" cy="23.3" r="8.3" fill="#000"/>
  <path fill="#fff" d="M234 20.8c-.1-.2-.4-.3-.7-.3-.5 0-.8.1-1 .5l-.1 1h-1.5c0-.7.1-1.3.3-1.7.4-.7 1.2-1.1 2.2-1.1.8 0 1.5.2 2 .7.5.4.7 1 .7 1.8 0 .5-.2 1-.5 1.5l-1.1 1-.6.4-.8.6-.4.5h3.4V27h-5.3c0-.6.1-1 .4-1.5.2-.6.7-1.1 1.5-1.7l1.4-1c.3-.4.4-.8.4-1.2 0-.3 0-.6-.2-.8Z"/>
  <rect width="145" height="150" x="9" y="23.4" fill="#F6F6F6" rx="8"/>
  <path fill="#000" d="M58.3 48.7c-.7.6-1.5 1-2.5 1-1.2 0-2.2-.5-3-1.3-.6-.8-1-1.9-1-3.3 0-1.5.4-2.7 1.2-3.5.7-.7 1.6-1 2.7-1 1.5 0 2.5.4 3.2 1.4.4.5.6 1 .6 1.6h-1.8l-.5-1a2 2 0 0 0-1.4-.5 2 2 0 0 0-1.6.8c-.4.5-.5 1.3-.5 2.2 0 1 .2 1.7.5 2.2.5.5 1 .7 1.6.7.6 0 1-.2 1.4-.6.2-.2.4-.5.5-1h1.8c-.2 1-.6 1.7-1.2 2.3Zm7.5-5c.5.8.8 1.6.8 2.5 0 1-.3 1.7-.8 2.4s-1.4 1-2.5 1c-1 0-1.9-.3-2.4-1S60 47 60 46.2c0-1 .3-1.7.8-2.4s1.4-1 2.4-1c1.1 0 2 .3 2.5 1Zm-2.5.5c-.4 0-.8.2-1 .5-.3.4-.5.8-.5 1.5 0 .6.2 1.1.4 1.5.3.3.7.5 1.1.5.5 0 1-.2 1.2-.5a3 3 0 0 0 0-3c-.3-.3-.7-.5-1.2-.5Zm9.6-.5c.5.5.8 1.3.8 2.4a4 4 0 0 1-.8 2.6c-.5.6-1.1.8-2 .8a2 2 0 0 1-1.2-.3l-.5-.6v3.3h-1.7v-9h1.6v1l.6-.6c.4-.3.8-.5 1.3-.5.8 0 1.4.3 2 .9Zm-1 2.5c0-.5 0-1-.3-1.3-.2-.4-.6-.6-1-.6-.7 0-1 .3-1.3.9l-.2 1.1c0 .8.2 1.3.6 1.6.2.2.5.2.8.2.5 0 .9-.1 1.1-.5.3-.4.4-.8.4-1.4Zm5.4 1.5 1.3-4.7h1.8l-2.2 6.3-1 2.2c-.3.3-.8.5-1.5.5a8.6 8.6 0 0 1-.8 0v-1.4h.7l.4-.1.3-.5v-.4L74 43h2l1.4 4.7Zm13.1 1c-.6.6-1.4 1-2.4 1-1.3 0-2.3-.5-3-1.3-.7-.8-1-1.9-1-3.3 0-1.5.4-2.7 1.2-3.5.7-.7 1.6-1 2.7-1 1.4 0 2.5.4 3.2 1.4.3.5.5 1 .6 1.6h-1.9c0-.4-.2-.7-.4-1-.3-.3-.8-.5-1.5-.5-.6 0-1.1.3-1.5.8-.4.5-.6 1.3-.6 2.2 0 1 .2 1.7.6 2.2.4.5 1 .7 1.5.7.7 0 1.2-.2 1.5-.6.2-.2.3-.5.4-1h1.8c-.1 1-.5 1.7-1.2 2.3Zm7.6-5c.5.8.8 1.6.8 2.5 0 1-.3 1.7-.8 2.4-.6.7-1.4 1-2.5 1-1 0-1.9-.3-2.4-1-.6-.7-.9-1.5-.9-2.4 0-1 .3-1.7.9-2.4.5-.7 1.3-1 2.4-1 1.1 0 2 .3 2.5 1Zm-2.5.5c-.5 0-.9.2-1.1.5-.3.4-.4.8-.4 1.5 0 .6.1 1.1.4 1.5.2.3.6.5 1.1.5.5 0 .9-.2 1.1-.5.3-.4.4-.9.4-1.5 0-.7-.1-1.1-.4-1.5-.2-.3-.6-.5-1-.5Zm10-3.5v8.7H104v-1c-.2.5-.5.7-.8 1l-1.1.2c-.8 0-1.4-.3-2-1-.4-.5-.7-1.3-.7-2.3 0-1 .3-2 .8-2.5.5-.7 1.2-1 2-1a2 2 0 0 1 1.8 1v-3h1.6Zm-4.5 5.5c0 .6.2 1 .4 1.4.2.4.6.6 1 .6.5 0 .9-.2 1.1-.6.3-.3.4-.8.4-1.3 0-.8-.2-1.4-.6-1.7-.2-.2-.5-.3-.8-.3-.5 0-.9.2-1.1.5-.2.4-.4.9-.4 1.4Zm11.3 1.3c0 .4-.2.8-.6 1.1-.5.7-1.3 1-2.3 1-.8 0-1.5-.3-2.1-.8-.7-.5-1-1.4-1-2.6 0-1 .3-2 .9-2.5.5-.6 1.3-.9 2.2-.9.5 0 1 .1 1.4.3.4.2.8.5 1 1 .3.3.5.8.5 1.3v1.2H108c0 .7.2 1.1.6 1.4l.8.2c.4 0 .7 0 .9-.3l.3-.4h1.7Zm-1.7-2c0-.4-.1-.7-.4-1-.2-.2-.5-.3-.8-.3-.4 0-.7.1-1 .4-.2.2-.3.5-.3 1h2.5Z"/>
  <path fill="#2B2B2B" d="M33.2 65.9c1 0 1.8.3 2.3.8.6.5.9 1.1 1 1.8h-1.1a2 2 0 0 0-.7-1.2c-.4-.3-.9-.5-1.5-.5-.8 0-1.4.3-1.9.8-.4.6-.7 1.4-.7 2.6 0 .9.2 1.6.7 2.2.4.6 1 .9 1.9.9a2 2 0 0 0 1.8-1l.5-1.2h1c0 .8-.4 1.5-.9 2-.6.8-1.5 1.1-2.5 1.1s-1.7-.3-2.3-.8c-.9-.8-1.3-1.9-1.3-3.4 0-1.2.3-2.1 1-2.9.6-.8 1.5-1.2 2.7-1.2Zm4.3 2.3h1v1c0-.2.2-.4.5-.7a1.4 1.4 0 0 1 1-.4h.3v1a1.4 1.4 0 0 0-.3 0c-.5 0-.9.2-1.1.5-.3.3-.4.7-.4 1V74h-1v-5.8Zm5.8 0a2.6 2.6 0 0 1 2 1c.3.2.4.6.5 1v1.2h-4.2c0 .6.2 1 .4 1.4.3.4.7.6 1.2.6a1.5 1.5 0 0 0 1.6-1.2h1l-.3.7a1 1 0 0 1-.5.6c-.2.3-.6.5-1 .6l-.8.1c-.8 0-1.4-.3-1.9-.8a3 3 0 0 1-.7-2.2c0-.9.2-1.6.7-2.2.6-.6 1.2-.9 2-.9Zm1.6 2.5c0-.5-.2-.8-.3-1-.3-.5-.7-.7-1.3-.7-.5 0-.9.1-1.2.4a2 2 0 0 0-.4 1.3h3.2Zm2.7 1.8c0 .2 0 .5.3.6.2.2.4.3.7.3a2 2 0 0 0 1-.3c.5-.2.8-.7.8-1.2V71l-.5.2h-.5l-.6.1c-.4 0-.6.2-.8.3-.3.1-.4.4-.4.8Zm2.3-2c.2 0 .4-.1.5-.3V70c0-.4-.1-.6-.3-.8l-1-.2c-.5 0-1 .2-1.1.4l-.2.7h-1c0-.7.3-1.2.7-1.5a3 3 0 0 1 1.6-.4c.7 0 1.2.1 1.6.4.4.3.7.7.7 1.2v3.5h.3a2.3 2.3 0 0 0 .3 0v.7l-.3.1h-.4c-.3 0-.5 0-.7-.3l-.2-.6c-.2.3-.4.5-.8.7l-1.2.3c-.6 0-1-.2-1.3-.5-.4-.3-.5-.7-.5-1.2s.1-1 .5-1.3c.3-.2.7-.4 1.3-.5l1.5-.2Zm3-3.9h1v1.6h1v.8h-1v3.8c0 .2 0 .3.2.4h.7v.8h-.7c-.5 0-.8 0-1-.3l-.2-.9V69h-.8v-.8h.8v-1.6Zm5 1.5a2.6 2.6 0 0 1 2.1 1l.4 1 .1 1.3h-4.2c0 .6.1 1 .4 1.4.3.4.7.6 1.2.6a1.5 1.5 0 0 0 1.6-1.2h1l-.3.7-.5.6c-.3.3-.7.5-1.1.6l-.8.1c-.7 0-1.3-.3-1.8-.8a3 3 0 0 1-.8-2.2c0-.9.3-1.6.8-2.2.5-.6 1.2-.9 2-.9Zm1.6 2.6c0-.5-.1-.8-.3-1-.2-.5-.7-.7-1.3-.7-.4 0-.8.1-1.1.4-.3.4-.5.8-.5 1.3h3.2Zm5.6 1.8c0 .2 0 .5.3.6.2.2.4.3.7.3a2 2 0 0 0 1-.3c.5-.2.8-.7.8-1.2V71l-.5.2H67l-.6.1c-.4 0-.6.2-.8.3-.3.1-.4.4-.4.8Zm2.3-2c.2 0 .4-.1.4-.3l.1-.3c0-.4-.1-.6-.3-.8l-1-.2c-.6 0-1 .2-1.1.4l-.3.7h-.9c0-.7.3-1.2.7-1.5a3 3 0 0 1 1.6-.4c.6 0 1.2.1 1.6.4.4.3.6.7.6 1.2V73l.1.3h.3a2.3 2.3 0 0 0 .3 0v.7l-.4.1h-.3c-.3 0-.6 0-.7-.3l-.2-.6-.8.7-1.2.3c-.6 0-1-.2-1.4-.5-.3-.3-.5-.7-.5-1.2s.2-1 .5-1.3c.4-.2.8-.4 1.4-.5l1.5-.2Zm5.7-2.3h.9v1c0-.2.3-.4.6-.7a1.4 1.4 0 0 1 1-.4h.3v1a1.4 1.4 0 0 0-.3 0c-.5 0-.9.2-1.2.5a2 2 0 0 0-.3 1V74h-1v-5.8Zm5.8 0a2.6 2.6 0 0 1 2 1c.3.2.4.6.4 1l.1 1.2h-4.2c0 .6.2 1 .4 1.4.3.4.7.6 1.2.6a1.5 1.5 0 0 0 1.6-1.2h1l-.3.7a1 1 0 0 1-.5.6 2 2 0 0 1-1 .6l-.9.1c-.7 0-1.3-.3-1.8-.8a3 3 0 0 1-.7-2.2c0-.9.2-1.6.7-2.2.5-.6 1.2-.9 2-.9Zm1.5 2.5c0-.5 0-.8-.2-1-.3-.5-.7-.7-1.4-.7-.4 0-.8.1-1 .4-.4.4-.5.8-.6 1.3h3.2Zm4.4 2.7c.5 0 .9-.2 1.2-.6.3-.4.4-1 .4-1.7 0-.5 0-.9-.2-1.2-.2-.6-.7-1-1.4-1-.6 0-1.1.4-1.3 1a4 4 0 0 0 0 2.6c.2.6.7.9 1.3.9Zm-2.5-5.1h1v.7l.6-.6a2 2 0 0 1 1.2-.3 2 2 0 0 1 1.6.8c.5.5.7 1.2.7 2.1 0 1.3-.3 2.1-1 2.7-.4.3-.9.5-1.4.5a2 2 0 0 1-1.1-.3l-.6-.5v2.9h-1v-8Zm8.3 5c.6 0 1-.2 1.3-.6.2-.5.4-1 .4-1.7 0-.5-.1-1-.3-1.3-.3-.5-.7-.8-1.4-.8-.6 0-1 .2-1.3.7a3 3 0 0 0-.4 1.6c0 .6.1 1.2.4 1.6.3.4.7.6 1.3.6Zm0-5.2c.8 0 1.4.2 2 .7.4.5.7 1.2.7 2.2a4 4 0 0 1-.7 2.3c-.5.6-1.2 1-2.1 1-.8 0-1.4-.4-1.9-.9s-.7-1.2-.7-2.2c0-1 .3-1.7.7-2.3.5-.5 1.2-.8 2-.8Zm6.7-.7c0-.4 0-.7.2-1 .2-.2.7-.4 1.3-.4a3.5 3.5 0 0 1 .4 0v.9a3.5 3.5 0 0 0-.3 0c-.3 0-.5 0-.6.2v1.2h1v.7h-1v5h-1v-5h-.8v-.7h.8v-1Zm2.6.8h1v1c0-.2.2-.4.5-.7a1.4 1.4 0 0 1 1.1-.4h.2v1a1.4 1.4 0 0 0-.3 0c-.5 0-.9.2-1.1.5-.3.3-.4.7-.4 1V74h-1v-5.8Zm5.7 5.2c.7 0 1.1-.3 1.3-.7.3-.5.4-1 .4-1.7 0-.5 0-1-.3-1.3-.2-.5-.7-.8-1.4-.8-.6 0-1 .2-1.3.7-.2.5-.4 1-.4 1.6 0 .6.2 1.2.4 1.6.3.4.7.6 1.3.6Zm0-5.3c.8 0 1.4.2 2 .7.4.5.7 1.2.7 2.2 0 1-.2 1.7-.7 2.3-.4.6-1.1 1-2 1-.9 0-1.5-.4-2-.9-.4-.5-.7-1.2-.7-2.2 0-1 .3-1.7.8-2.3.5-.5 1.1-.8 2-.8Zm3.6.1h1v.9l.6-.7a2 2 0 0 1 1.1-.3c.5 0 .8.1 1.1.4.2 0 .3.3.4.5l.8-.7a2 2 0 0 1 1-.2c.7 0 1.3.3 1.6.9l.2 1.2V74h-1v-4c0-.4-.1-.6-.3-.8l-.7-.2c-.4 0-.7.1-1 .4-.3.2-.4.7-.4 1.3V74h-1v-3.8l-.1-.8c-.2-.3-.4-.4-.8-.4s-.7.1-1 .4c-.3.3-.5.8-.5 1.5V74h-1v-5.8Zm12-1.6h1v1.6h1v.8h-1v3.8c0 .2 0 .3.2.4h.7v.8h-.7c-.5 0-.8 0-1-.3l-.2-.9V69h-.8v-.8h.8v-1.6Zm2.7-.5h1v3l.5-.7a2 2 0 0 1 1.2-.3c.8 0 1.4.3 1.7.9.2.3.3.7.3 1.3V74h-1v-3.6c0-.4 0-.8-.2-1-.2-.3-.5-.4-1-.4-.4 0-.8.1-1 .4-.4.3-.6.8-.6 1.5V74h-1v-8Zm8.3 2a2.6 2.6 0 0 1 2 1l.4 1 .1 1.3h-4.2c0 .6.1 1 .4 1.4.3.4.7.6 1.2.6a1.5 1.5 0 0 0 1.6-1.2h1l-.3.7-.5.6c-.3.3-.7.5-1.1.6l-.8.1c-.7 0-1.3-.3-1.8-.8a3 3 0 0 1-.8-2.2c0-.9.3-1.6.8-2.2.5-.6 1.2-.9 2-.9Zm1.5 2.6c0-.5-.1-.8-.3-1-.2-.5-.7-.7-1.3-.7-.4 0-.8.1-1.1.4-.3.4-.5.8-.5 1.3h3.2ZM32.4 79.9c1 0 1.8.3 2.3.8.6.5.9 1.1 1 1.8h-1.1a2 2 0 0 0-.7-1.2c-.4-.3-.9-.5-1.5-.5-.8 0-1.4.3-1.9.8-.5.6-.7 1.4-.7 2.6 0 .9.2 1.6.6 2.2.5.6 1.1.9 2 .9a2 2 0 0 0 1.8-1l.5-1.2h1c0 .8-.4 1.5-1 2-.5.8-1.4 1.1-2.5 1.1-.9 0-1.6-.3-2.3-.8-.8-.8-1.2-1.9-1.2-3.4 0-1.2.3-2.1 1-2.9.6-.8 1.5-1.2 2.7-1.2Zm6.5 7.5c.7 0 1.1-.3 1.4-.7.2-.5.3-1 .3-1.7 0-.5 0-1-.2-1.3-.3-.5-.8-.8-1.4-.8-.6 0-1 .2-1.3.7a3 3 0 0 0-.4 1.6c0 .6.1 1.2.4 1.6.2.4.7.6 1.2.6Zm0-5.3c.8 0 1.4.2 2 .7.5.5.7 1.2.7 2.2a4 4 0 0 1-.6 2.3c-.5.6-1.2 1-2.1 1-.8 0-1.5-.4-2-.9-.4-.5-.6-1.2-.6-2.2 0-1 .2-1.7.7-2.3.5-.5 1.2-.8 2-.8Zm3.7.1h1v.9l.5-.7c.4-.2.7-.3 1.1-.3.5 0 .9.1 1.1.4.2 0 .3.3.5.5l.7-.7a2 2 0 0 1 1-.2c.8 0 1.3.3 1.6.9l.2 1.2V88h-1v-4c0-.4-.1-.6-.3-.8l-.7-.2c-.4 0-.7.1-1 .4-.2.2-.4.7-.4 1.3V88h-1v-3.8l-.1-.8c-.1-.3-.4-.4-.8-.4s-.7.1-1 .4c-.3.3-.5.8-.5 1.5V88h-1v-5.8Zm9 0h.9v.9l.6-.7a2 2 0 0 1 1-.3c.5 0 .9.1 1.2.4l.4.5.8-.7a2 2 0 0 1 1-.2c.7 0 1.2.3 1.5.9.2.3.2.7.2 1.2V88h-1v-4c0-.4 0-.6-.2-.8l-.7-.2c-.4 0-.8.1-1 .4-.3.2-.4.7-.4 1.3V88h-1v-3.8c0-.3 0-.6-.2-.8-.1-.3-.4-.4-.8-.4-.3 0-.7.1-1 .4-.3.3-.4.8-.4 1.5V88h-1v-5.8Zm11.2 0a2.6 2.6 0 0 1 2.1 1c.2.2.3.6.4 1v1.2h-4.1c0 .6.1 1 .4 1.4.2.4.6.6 1.2.6a1.5 1.5 0 0 0 1.5-1.2h1l-.3.7c0 .3-.2.5-.4.6-.3.3-.7.5-1.1.6l-.8.1c-.7 0-1.3-.3-1.8-.8a3 3 0 0 1-.8-2.2c0-.9.3-1.6.8-2.2.5-.6 1.1-.9 2-.9Zm1.6 2.5c0-.5-.1-.8-.3-1-.3-.5-.7-.7-1.3-.7-.5 0-.8.1-1.1.4-.3.4-.5.8-.5 1.3h3.2Zm2-2.5h.9v1c0-.2.3-.4.6-.7a1.4 1.4 0 0 1 1-.4h.3v1a1.4 1.4 0 0 0-.3 0c-.5 0-.9.2-1.2.5-.2.3-.4.7-.4 1V88h-1v-5.8Zm5.6-.1c.7 0 1.2.1 1.6.5.4.3.6.8.7 1.6h-1c0-.4-.1-.7-.3-.9-.2-.2-.5-.4-1-.4-.6 0-1 .3-1.3 1-.2.3-.3.8-.3 1.4 0 .6.2 1 .4 1.4.2.4.6.6 1.1.6.5 0 .8 0 1-.3l.5-1h1c-.2.7-.4 1.3-.9 1.6-.4.4-1 .6-1.6.6a2 2 0 0 1-1.8-.9c-.5-.5-.7-1.2-.7-2 0-1 .2-1.8.7-2.4.5-.5 1.2-.8 2-.8Zm5.5 0a2.6 2.6 0 0 1 2 1c.2.3.4.7.4 1l.1 1.3h-4.2c0 .6.1 1 .4 1.4.3.4.7.6 1.2.6a1.5 1.5 0 0 0 1.6-1.2h1l-.3.7-.5.6c-.3.3-.7.5-1 .6l-.9.1c-.7 0-1.3-.3-1.8-.8a3 3 0 0 1-.7-2.2c0-.9.2-1.6.7-2.2.5-.6 1.2-.9 2-.9Zm1.5 2.6c0-.5-.1-.8-.3-1-.2-.5-.7-.7-1.3-.7-.4 0-.8.1-1.1.4-.3.4-.5.8-.5 1.3H79Zm8-1.3 1-.1c.4-.2.6-.6.6-1.1 0-.5-.3-.9-.7-1l-1-.2h-2v2.4h2Zm.3 3.7c.6 0 1.1-.2 1.4-.6.2-.2.2-.5.2-.9 0-.5-.2-1-.7-1.1a3 3 0 0 0-1.1-.2H85v2.8h2.3Zm-3.4-7h3.4c1 0 1.6.3 2 .8.2.4.3.7.3 1.2s-.1.9-.4 1.2a2 2 0 0 1-.6.5c.4.1.7.3.9.5.3.3.5.8.5 1.4 0 .5-.2 1-.5 1.4-.4.6-1.2.9-2.2.9h-3.4v-7.9Zm9.3 7.3c.7 0 1.1-.3 1.3-.7.3-.5.4-1 .4-1.7 0-.5 0-1-.3-1.3-.2-.5-.7-.8-1.4-.8-.6 0-1 .2-1.3.7-.2.5-.4 1-.4 1.6 0 .6.2 1.2.4 1.6.3.4.7.6 1.3.6Zm0-5.3c.8 0 1.4.2 2 .7.4.5.7 1.2.7 2.2 0 1-.2 1.7-.7 2.3-.4.6-1.1 1-2 1-.9 0-1.5-.4-2-.9-.4-.5-.7-1.2-.7-2.2 0-1 .3-1.7.8-2.3.5-.5 1.1-.8 2-.8Zm3.6.2h1V88h-1v-5.7Zm0-2.2h1v1.1h-1v-1Zm2.3 0h1V88h-1v-7.9Zm4.6 2a2.6 2.6 0 0 1 2 1c.3.3.4.7.4 1l.1 1.3H102c0 .6.2 1 .4 1.4.3.4.7.6 1.2.6a1.5 1.5 0 0 0 1.6-1.2h1l-.3.7a1 1 0 0 1-.5.6 2 2 0 0 1-1 .6l-.9.1c-.7 0-1.3-.3-1.8-.8a3 3 0 0 1-.7-2.2c0-.9.2-1.6.7-2.2.5-.6 1.2-.9 2-.9Zm1.5 2.6c0-.5 0-.8-.2-1-.3-.5-.7-.7-1.4-.7-.4 0-.8.1-1 .4-.4.4-.5.8-.6 1.3h3.2Zm2-2.5h1v1c0-.2.2-.4.5-.7a1.4 1.4 0 0 1 1.1-.4h.2v1a1.4 1.4 0 0 0-.3 0c-.5 0-.9.2-1.1.5-.3.3-.4.7-.4 1V88h-1v-5.8Zm5.9 5.2c.4 0 .8-.2 1-.6.4-.4.5-1 .5-1.7 0-.5 0-.9-.2-1.2-.2-.6-.7-1-1.3-1-.7 0-1.2.4-1.4 1a4 4 0 0 0 0 2.6c.2.6.7.9 1.4.9Zm-2.5-5.1h1v.7l.5-.6a2 2 0 0 1 1.2-.3c.6 0 1.2.3 1.7.8.4.5.6 1.2.6 2.1 0 1.3-.3 2.1-1 2.7-.4.3-.8.5-1.4.5a2 2 0 0 1-1-.3l-.7-.5v2.9h-1v-8Zm6-2.2h1V88h-1v-7.9Zm3 6.4c0 .2 0 .5.2.6.2.2.5.3.8.3l1-.3c.5-.2.7-.7.7-1.2V85l-.4.2h-.6l-.5.1c-.4 0-.7.2-.8.3-.3.1-.5.4-.5.8Zm2.3-2c.2 0 .3-.1.4-.3V84c0-.4 0-.6-.3-.8l-1-.2c-.5 0-.9.2-1 .4a1 1 0 0 0-.3.7h-.9c0-.7.3-1.2.7-1.5.4-.3 1-.4 1.5-.4.7 0 1.3.1 1.7.4.4.3.6.7.6 1.2v3.5h.3a2.3 2.3 0 0 0 .4 0v.7l-.4.1h-.3c-.3 0-.6 0-.7-.3l-.2-.6c-.2.3-.5.5-.9.7-.3.2-.7.3-1.2.3s-1-.2-1.3-.5c-.3-.3-.5-.7-.5-1.2s.2-1 .5-1.3l1.3-.5 1.6-.2Zm3-3.9h1v1.6h.9v.8h-1v3.8c0 .2.1.3.3.4h.7v.8h-.8c-.4 0-.7 0-.9-.3l-.2-.9V83h-.8v-.8h.8v-1.6Zm5 1.5a2.6 2.6 0 0 1 2 1c.3.3.4.7.5 1v1.3h-4.2c0 .6.2 1 .5 1.4.2.4.6.6 1.1.6a1.5 1.5 0 0 0 1.6-1.2h1l-.3.7a1 1 0 0 1-.5.6c-.2.3-.6.5-1 .6l-.8.1c-.7 0-1.4-.3-1.9-.8a3 3 0 0 1-.7-2.2c0-.9.3-1.6.8-2.2.5-.6 1.1-.9 2-.9Zm1.6 2.6c0-.5-.2-.8-.3-1-.3-.5-.7-.7-1.3-.7-.5 0-.9.1-1.2.4a2 2 0 0 0-.4 1.3h3.2Zm2.2 2.1h1V88h-1v-1.2Z"/>
  <ellipse cx="81.4" cy="135.3" fill="#fff" rx="22.4" ry="22.9"/>
  <path fill="#161614" fill-rule="evenodd" d="M81.4 112.4A23 23 0 0 0 59 135.9c0 10.4 6.4 19.2 15.3 22.3 1.1.2 1.5-.5 1.5-1.2v-4.3c-6.2 1.4-7.5-2.8-7.5-2.8-1-2.7-2.5-3.4-2.5-3.4-2-1.5.1-1.5.1-1.5 2.3.2 3.5 2.5 3.5 2.5 2 3.5 5.2 2.5 6.5 2 .2-1.6.8-2.7 1.4-3.2-5-.6-10.2-2.6-10.2-11.7 0-2.5.9-4.6 2.3-6.3-.2-.6-1-3 .2-6.2 0 0 2-.6 6.2 2.4a20.5 20.5 0 0 1 11.2 0c4.3-3 6.1-2.4 6.1-2.4 1.3 3.3.5 5.6.3 6.2a9.3 9.3 0 0 1 2.3 6.3c0 9-5.3 11-10.3 11.6a6 6 0 0 1 1.6 4.4v6.4c0 .7.3 1.4 1.5 1.2 8.9-3.1 15.3-12 15.3-22.3a23 23 0 0 0-22.4-23.5Zm-14 33.5s-.2.1-.4 0c-.2 0-.3-.2-.2-.3 0-.2.2-.2.4-.1l.2.4Zm1 1-.4-.1v-.5c0-.1.3 0 .4 0 .2.3.2.5 0 .6Zm.8 1.3c-.1.1-.3 0-.5-.2v-.6c.2 0 .4 0 .5.2.2.3.2.5 0 .6Zm1.3 1.5c-.1.2-.4.1-.6 0a.5.5 0 0 1 0-.7l.5.1c.2.2.2.5.1.6Zm1.7.5c0 .2-.3.3-.6.2-.2 0-.4-.3-.4-.4.1-.2.3-.3.6-.2.3 0 .4.3.4.4Zm1.8.3c0 .2-.2.3-.4.3-.3 0-.5-.1-.5-.3 0-.2.2-.4.5-.4.2 0 .4.2.4.4Zm1.9-.1c0 .2-.2.4-.4.4-.3 0-.5 0-.6-.2 0-.2.2-.4.5-.5.2 0 .5.1.5.3Z" clip-rule="evenodd"/>
  <path fill="#B9B9B9" d="M73.3 136.9h-1.6v2.8h-1.4v-7.2h3.5c.5 0 .9 0 1.1.2.3.1.6.3.7.5l.4.6.1.8c0 .3 0 .6-.2 1-.2.3-.5.5-.9.7.4.1.6.3.7.5.2.3.2.7.2 1.2v1.1l.4.4v.2h-1.7v-.4l-.2-.6v-.7c0-.4 0-.7-.2-.9l-1-.2Zm.9-1.3c.3-.2.4-.4.4-.8 0-.5-.1-.8-.4-1h-2.5v1.9h1.7l.8-.1Zm7.5 2.5c0 .4-.2.7-.5 1-.5.5-1 .8-2 .8-.6 0-1.2-.2-1.7-.7-.5-.4-.8-1.1-.8-2.1s.2-1.6.7-2.1c.5-.5 1-.8 1.8-.8.5 0 .9.1 1.2.3.4.2.7.4 1 .8l.3 1v1.1h-3.6c0 .6.2 1 .5 1.2l.7.2c.3 0 .5-.1.7-.3l.3-.4h1.4Zm-1.4-1.6c0-.4-.1-.6-.3-.8a1 1 0 0 0-.8-.3 1 1 0 0 0-.7.3c-.2.2-.3.5-.3.8h2.1ZM87 135c.4.4.6 1 .6 2s-.2 1.6-.6 2.1a2 2 0 0 1-1.7.8c-.4 0-.7-.1-1-.4a2 2 0 0 1-.5-.5v2.8h-1.3v-7.4h1.3v.8c.1-.3.3-.4.5-.6a2 2 0 0 1 1-.3 2 2 0 0 1 1.7.7Zm-.8 2c0-.4-.1-.7-.3-1-.2-.4-.5-.5-1-.5a1 1 0 0 0-1 .7l-.1 1c0 .6.2 1 .5 1.3l.7.2c.4 0 .7-.2.9-.5.2-.3.3-.7.3-1.2Zm6.7-2c.4.6.6 1.3.6 2 0 .8-.2 1.5-.6 2-.5.6-1.2.9-2 .9-1 0-1.7-.3-2.1-.8a3 3 0 0 1-.7-2c0-.8.2-1.5.7-2 .4-.6 1-.9 2-.9s1.6.3 2 .9Zm-2.1.4c-.4 0-.7.1-1 .4a2 2 0 0 0-.3 1.3c0 .5.1.9.4 1.2.2.3.5.4.9.4s.7-.1 1-.4c.2-.3.3-.7.3-1.2 0-.6-.1-1-.4-1.3-.2-.3-.5-.4-.9-.4Z" opacity=".8"/>
  <circle cx="81.3" cy="23.3" r="8.3" fill="#000"/>
  <path fill="#fff" d="M82.4 27h-1.6v-5.4H79v-1l1-.1c.3 0 .6-.2.8-.4l.3-.6v-.3h1.3V27Z"/>
  <defs>
    <linearGradient id="c" x1="209.5" x2="224.4" y1="124.3" y2="130.6" gradientUnits="userSpaceOnUse">
      <stop stop-color="#2368C4"/>
      <stop offset="1" stop-color="#1248AE"/>
    </linearGradient>
    <linearGradient id="f" x1="228.8" x2="240.6" y1="119.2" y2="131.8" gradientUnits="userSpaceOnUse">
      <stop stop-color="#18874E"/>
      <stop offset="1" stop-color="#0B6832"/>
    </linearGradient>
    <linearGradient id="g" x1="232.8" x2="232.8" y1="130.4" y2="158.5" gradientUnits="userSpaceOnUse">
      <stop stop-color="#73D8FF"/>
      <stop offset="1" stop-color="#59C6F6"/>
    </linearGradient>
    <clipPath id="a">
      <path fill="#fff" d="m207.4 119.3 21.3-7.8 7.8 21.3-21.3 7.8z"/>
    </clipPath>
    <clipPath id="d">
      <path fill="#fff" d="m228.8 113.5 23 1.3-1.2 22.6-23-1.3z"/>
    </clipPath>
    <pattern id="b" width="1" height="1" patternContentUnits="objectBoundingBox">
      <use xlink:href="#h" transform="scale(0)"/>
    </pattern>
    <pattern id="e" width="1" height="1" patternContentUnits="objectBoundingBox">
      <use xlink:href="#i" transform="scale(0)"/>
    </pattern>
  </defs>
</svg>
