<svg xmlns="http://www.w3.org/2000/svg" xmlns:xlink="http://www.w3.org/1999/xlink" width="1340" height="327" fill="none">
  <path fill="#fff" d="M0 0h1340v327H0z"/>
  <rect width="250" height="240" x="21" y="51" fill="#F6F6F6" rx="8"/>
  <path fill="#000" d="M107 94a6 6 0 0 1-4.2 1.4c-2 0-3.7-.7-4.8-2a8 8 0 0 1-1.8-5.5c0-2.5.6-4.4 2-5.8a6 6 0 0 1 4.5-1.8c2.4 0 4.2.8 5.3 2.4.6 1 1 1.8 1 2.7h-3a4 4 0 0 0-.8-1.6c-.5-.6-1.3-.9-2.4-.9a3 3 0 0 0-2.6 1.3c-.6 1-1 2.2-1 3.8a6 6 0 0 0 1 3.6c.7.8 1.6 1.2 2.6 1.2s1.9-.3 2.4-1c.3-.4.6-1 .8-1.7h3a7 7 0 0 1-2 3.8Zm12.5-8.3a6.2 6.2 0 0 1 1.4 4 6 6 0 0 1-1.4 4 5 5 0 0 1-4 1.7c-2 0-3.3-.6-4.2-1.7a6.2 6.2 0 0 1-1.3-4c0-1.5.4-2.9 1.3-4 1-1.1 2.3-1.7 4.1-1.7 1.8 0 3.2.6 4.1 1.7Zm-4 .7c-1 0-1.5.3-2 .8a4 4 0 0 0-.6 2.5c0 1 .2 1.9.6 2.5.5.5 1 .8 2 .8.7 0 1.3-.3 1.8-.8a4 4 0 0 0 .6-2.5 4 4 0 0 0-.6-2.5c-.5-.5-1-.8-1.9-.8Zm15.9-.9c.8 1 1.3 2.3 1.3 4 0 2-.5 3.3-1.3 4.3a4 4 0 0 1-3.3 1.5c-.8 0-1.5-.2-2-.6a4 4 0 0 1-1-1v5.5h-2.7V84.4h2.6v1.5l1-1c.6-.5 1.4-.8 2.2-.8 1.3 0 2.3.5 3.2 1.4Zm-1.6 4.2a4 4 0 0 0-.6-2.2c-.3-.6-1-1-1.8-1-1 0-1.7.5-2 1.5-.3.5-.4 1.1-.4 2 0 1.2.4 2 1 2.5.4.3.9.5 1.4.5a2 2 0 0 0 1.8-1c.4-.5.6-1.3.6-2.3Zm8.8 2.5 2.2-7.8h3L140 94.8c-.7 2-1.2 3.3-1.7 3.8-.4.5-1.2.7-2.4.7a14.4 14.4 0 0 1-1.3 0V97h1.1c.3 0 .5 0 .7-.2.1-.1.3-.3.4-.7l.2-.6-4-11.1h3.2l2.3 7.8Zm22 1.7a6 6 0 0 1-4.2 1.5c-2 0-3.7-.7-4.8-2a8 8 0 0 1-1.8-5.5c0-2.5.7-4.4 2-5.8a6 6 0 0 1 4.5-1.8c2.4 0 4.2.8 5.3 2.4.6 1 1 1.8 1 2.7h-3a4 4 0 0 0-.8-1.6c-.5-.6-1.3-.9-2.4-.9a3 3 0 0 0-2.6 1.3c-.6 1-1 2.2-1 3.8a6 6 0 0 0 1 3.6c.7.8 1.6 1.2 2.6 1.2s1.9-.3 2.4-1c.3-.4.6-1 .8-1.7h3a7 7 0 0 1-2 3.8Zm12.5-8.2a6.2 6.2 0 0 1 1.4 4 6 6 0 0 1-1.4 4 5 5 0 0 1-4 1.7c-2 0-3.3-.6-4.2-1.7a6.2 6.2 0 0 1-1.3-4c0-1.5.4-2.9 1.3-4 1-1.1 2.3-1.7 4.1-1.7 1.8 0 3.2.6 4.1 1.7Zm-4 .7c-.9 0-1.5.3-2 .8a4 4 0 0 0-.6 2.5c0 1 .2 1.9.6 2.5.5.5 1.1.8 2 .8.7 0 1.3-.3 1.8-.8a4 4 0 0 0 .6-2.5 4 4 0 0 0-.6-2.5c-.5-.5-1-.8-1.9-.8Zm16.6-5.8V95H183v-1.5a4 4 0 0 1-1.3 1.4 4 4 0 0 1-2 .4 4 4 0 0 1-3-1.5c-.9-1-1.3-2.3-1.3-3.8 0-1.9.4-3.3 1.2-4.3.9-1 2-1.6 3.4-1.6a3.4 3.4 0 0 1 3 1.6v-5h2.7Zm-7.5 9.1c0 1 .2 1.8.6 2.4.4.6 1 .9 1.8.9a2 2 0 0 0 1.8-.9 4 4 0 0 0 .6-2.3c0-1.3-.3-2.2-1-2.8-.4-.3-.9-.5-1.4-.5-.8 0-1.4.3-1.8 1-.4.6-.6 1.3-.6 2.2ZM197 92c0 .6-.4 1.2-1 1.9a5 5 0 0 1-3.8 1.6c-1.4 0-2.6-.5-3.6-1.4-1-.8-1.6-2.2-1.6-4.2 0-1.9.5-3.3 1.4-4.3 1-1 2.2-1.4 3.7-1.4.9 0 1.7.1 2.4.5.7.3 1.3.8 1.7 1.5.5.7.7 1.4.8 2.2l.1 2.1H190c0 1.1.3 1.9 1 2.3.3.3.8.4 1.3.4.6 0 1-.2 1.4-.5l.6-.7h2.8Zm-2.8-3.3c0-.7-.2-1.3-.6-1.7a2 2 0 0 0-1.5-.5c-.7 0-1.2.2-1.5.6a3 3 0 0 0-.7 1.6h4.3Z"/>
  <path fill="#2B2B2B" d="M49 117.7c1.7 0 3 .5 3.8 1.3 1 .9 1.4 1.9 1.5 3h-1.7c-.2-.9-.5-1.5-1.1-2-.6-.5-1.4-.7-2.4-.7-1.3 0-2.3.4-3.1 1.3-.8.9-1.2 2.3-1.2 4.1a6 6 0 0 0 1 3.7c.8 1 1.8 1.4 3.2 1.4 1.3 0 2.3-.5 3-1.5.3-.5.6-1.2.8-2h1.7a5.8 5.8 0 0 1-1.5 3.4 5.4 5.4 0 0 1-4.2 1.6c-1.5 0-2.7-.4-3.8-1.3-1.3-1.2-2-3-2-5.6 0-1.9.5-3.5 1.5-4.7 1.1-1.3 2.6-2 4.5-2Zm7 3.9h1.6v1.6c.1-.3.4-.7.9-1.1a2.3 2.3 0 0 1 1.8-.7h.4v1.7a2.3 2.3 0 0 0-.6 0c-.8 0-1.4.2-1.8.7-.4.5-.6 1.1-.6 1.8v5.4H56v-9.4Zm9.6-.2A4.3 4.3 0 0 1 69 123c.3.4.5 1 .6 1.6l.1 2.1h-6.9c0 1 .3 1.7.7 2.3.4.6 1 .9 2 .9a2.5 2.5 0 0 0 2.6-2h1.5c0 .4-.2.8-.4 1.2a3.7 3.7 0 0 1-2.6 2l-1.3.1a4 4 0 0 1-3-1.2 5 5 0 0 1-1.2-3.6c0-1.5.5-2.8 1.3-3.7a4 4 0 0 1 3.2-1.4Zm2.5 4.1c0-.6-.2-1.2-.4-1.6-.5-.8-1.2-1.1-2.2-1.1-.7 0-1.3.2-1.8.7a3 3 0 0 0-.8 2H68Zm4.4 3c0 .5.2.8.5 1 .4.3.8.5 1.2.5.6 0 1.1-.2 1.6-.4 1-.4 1.4-1.1 1.4-2.1v-1.3l-.8.3-.9.2-1 .1c-.5 0-1 .2-1.2.4-.5.3-.8.7-.8 1.3Zm3.9-3.2c.3 0 .6-.2.7-.5l.1-.6c0-.5-.2-.9-.6-1.1a3 3 0 0 0-1.6-.4c-.8 0-1.4.2-1.8.7-.2.2-.3.6-.4 1h-1.4c0-1.1.4-2 1.1-2.4.7-.4 1.6-.6 2.5-.6 1.1 0 2 .2 2.7.6.7.4 1 1 1 2v5.4l.1.4.5.1a3.5 3.5 0 0 0 .5 0v1.1l-.6.2h-.5c-.5 0-1-.2-1.2-.6l-.3-.8a4.3 4.3 0 0 1-3.4 1.6 3 3 0 0 1-2-.9c-.6-.5-1-1.2-1-2s.4-1.5 1-2c.5-.5 1.2-.8 2-.9l2.6-.3Zm4.9-6.3h1.6v2.6h1.5v1.3H83v6.1c0 .4.1.6.3.7h1.2v1.3l-.6.1h-.6c-.7 0-1.2-.1-1.5-.5-.3-.4-.4-.9-.4-1.5V123H80v-1.3h1.3V119Zm8.3 2.4a4.3 4.3 0 0 1 3.3 1.7c.3.4.6 1 .7 1.6l.1 2.1h-6.9c0 1 .3 1.7.7 2.3.4.6 1 .9 2 .9a2.5 2.5 0 0 0 2.5-2h1.6c0 .4-.2.8-.4 1.2a3.7 3.7 0 0 1-2.6 2l-1.3.1a4 4 0 0 1-3-1.2 5 5 0 0 1-1.2-3.6c0-1.5.4-2.8 1.2-3.7a4 4 0 0 1 3.3-1.4Zm2.5 4.1c0-.6-.2-1.2-.5-1.6-.4-.8-1.1-1.1-2.1-1.1-.8 0-1.4.2-1.9.7a3 3 0 0 0-.7 2H92Zm8.8 2.5c0 .6.2 1 .4 1.3.4.5 1 .7 2 .7a3 3 0 0 0 1.6-.4c.4-.2.7-.6.7-1.1a1 1 0 0 0-.6-1l-1.3-.4-1.3-.3a6 6 0 0 1-1.7-.7 2 2 0 0 1-1-1.8c0-.9.3-1.6.9-2.1.6-.6 1.5-.9 2.6-.9 1.4 0 2.4.5 3 1.3.4.5.6 1 .6 1.7h-1.5c0-.4-.1-.7-.4-1-.3-.4-1-.6-1.8-.6-.6 0-1 .1-1.4.3a1 1 0 0 0-.5 1c0 .4.2.7.6 1l1 .3 1.1.3c1.2.2 2 .5 2.3.8.6.4 1 1 1 1.9a3 3 0 0 1-1 2.1c-.7.7-1.6 1-3 1a4 4 0 0 1-2.9-1c-.6-.6-.9-1.4-1-2.4h1.6Zm8-9h1.6v2.6h1.5v1.3h-1.5v6.1c0 .4.1.6.3.7h1.2v1.3l-.6.1h-.6c-.7 0-1.2-.1-1.5-.5-.3-.4-.4-.9-.4-1.5V123h-1.3v-1.3h1.3V119Zm8 11c1.1 0 1.8-.4 2.2-1.2a6 6 0 0 0 .6-2.7c0-.8-.1-1.6-.4-2.1-.5-.9-1.2-1.3-2.3-1.3-1 0-1.7.4-2.1 1.1-.5.7-.7 1.6-.7 2.7 0 1 .2 1.8.7 2.5.4.6 1.1 1 2 1Zm.1-8.7c1.2 0 2.3.4 3.1 1.2a5 5 0 0 1 1.3 3.6c0 1.5-.4 2.8-1.1 3.8-.8 1-2 1.4-3.5 1.4-1.3 0-2.3-.4-3-1.3-.8-.8-1.2-2-1.2-3.5 0-1.6.4-2.8 1.2-3.8a4 4 0 0 1 3.2-1.4Zm6 .3h1.4v1.6c.2-.3.5-.7 1-1.1a2.3 2.3 0 0 1 1.8-.7h.3v1.7a2.3 2.3 0 0 0-.5 0c-.8 0-1.4.2-1.8.7-.5.5-.7 1.1-.7 1.8v5.4H123v-9.4Zm9.5-.2a4.3 4.3 0 0 1 3.3 1.7c.3.4.6 1 .7 1.6l.1 2.1h-6.9c0 1 .3 1.7.7 2.3.4.6 1 .9 2 .9a2.5 2.5 0 0 0 2.5-2h1.6c0 .4-.2.8-.4 1.2a3.7 3.7 0 0 1-2.6 2l-1.3.1a4 4 0 0 1-3-1.2 5 5 0 0 1-1.2-3.6c0-1.5.4-2.8 1.2-3.7a4 4 0 0 1 3.3-1.4Zm2.5 4.1c0-.6-.2-1.2-.5-1.6-.4-.8-1.1-1.1-2.1-1.1-.8 0-1.4.2-1.9.7a3 3 0 0 0-.8 2h5.3Zm3.6-5.3c0-.7.1-1.2.3-1.5.4-.5 1.1-.8 2.2-.8a5.4 5.4 0 0 1 .6 0v1.5a5.5 5.5 0 0 0-.5 0c-.5 0-.8 0-.9.3l-.1 2h1.5v1.2h-1.5v8.1h-1.6v-8.1h-1.3v-1.3h1.3v-1.4Zm4.3 1.4h1.5v1.6c.1-.3.4-.7.9-1.1a2.3 2.3 0 0 1 1.8-.7h.4v1.7a2.3 2.3 0 0 0-.6 0c-.8 0-1.4.2-1.8.7-.4.5-.6 1.1-.6 1.8v5.4h-1.6v-9.4Zm9.3 8.4c1 0 1.8-.4 2.2-1.2a6 6 0 0 0 .6-2.7c0-.8-.2-1.6-.5-2.1-.4-.9-1.2-1.3-2.3-1.3-1 0-1.6.4-2 1.1-.5.7-.7 1.6-.7 2.7 0 1 .2 1.8.6 2.5.5.6 1.2 1 2.1 1Zm0-8.7c1.3 0 2.3.4 3.1 1.2.9.8 1.3 2 1.3 3.6 0 1.5-.4 2.8-1.1 3.8-.7 1-1.9 1.4-3.4 1.4-1.3 0-2.4-.4-3.1-1.3-.8-.8-1.2-2-1.2-3.5 0-1.6.4-2.8 1.2-3.8a4 4 0 0 1 3.3-1.4Zm6 .3h1.4v1.3c.5-.5 1-1 1.5-1.2.5-.2 1-.3 1.6-.3 1.3 0 2.3.4 2.7 1.4.3.5.4 1.2.4 2.2v6h-1.6v-6c0-.5 0-1-.3-1.3-.2-.6-.7-.9-1.5-.9l-1 .1c-.3.1-.7.4-1 .8a2 2 0 0 0-.6 1v6.3H158v-9.4Zm10-2.6h1.5v2.6h1.5v1.3h-1.5v6.1c0 .4.1.6.3.7h1.2v1.3l-.6.1h-.6c-.7 0-1.2-.1-1.5-.5-.3-.4-.4-.9-.4-1.5V123h-1.3v-1.3h1.3V119Zm9 2.6h1.4v1.6c.2-.3.5-.7 1-1.1a2.3 2.3 0 0 1 1.8-.7h.3v1.7a2.3 2.3 0 0 0-.5 0c-.8 0-1.4.2-1.8.7-.5.5-.7 1.1-.7 1.8v5.4h-1.6v-9.4Zm9.4-.2a4.3 4.3 0 0 1 3.4 1.7c.3.4.5 1 .7 1.6v2.1H184c0 1 .3 1.7.7 2.3.4.6 1 .9 2 .9a2.5 2.5 0 0 0 2.5-2h1.6c0 .4-.2.8-.4 1.2a3.7 3.7 0 0 1-2.6 2l-1.3.1a4 4 0 0 1-3-1.2 5 5 0 0 1-1.2-3.6c0-1.5.4-2.8 1.2-3.7a4 4 0 0 1 3.2-1.4Zm2.6 4.1a4 4 0 0 0-.5-1.6c-.4-.8-1.1-1.1-2.1-1.1-.8 0-1.4.2-1.9.7a3 3 0 0 0-.8 2h5.3Zm7.2 4.4c.7 0 1.3-.3 1.8-.9.5-.6.7-1.5.7-2.8 0-.7 0-1.4-.3-1.9-.4-1-1.2-1.6-2.2-1.6-1.1 0-1.9.6-2.3 1.7a6.5 6.5 0 0 0 0 4c.4 1 1.2 1.5 2.3 1.5Zm-4.1-8.3h1.5v1.3l1-1c.6-.4 1.2-.5 2-.5 1 0 1.9.4 2.6 1.2.8.8 1.2 2 1.2 3.5 0 2-.6 3.5-1.7 4.4-.6.5-1.4.8-2.3.8-.7 0-1.3-.1-1.8-.4l-1-1v4.9h-1.5v-13.2Zm13.5 8.4c1 0 1.7-.4 2.1-1.2a6 6 0 0 0 .6-2.7c0-.8-.1-1.6-.4-2.1-.4-.9-1.2-1.3-2.3-1.3-1 0-1.7.4-2.1 1.1-.4.7-.7 1.6-.7 2.7 0 1 .3 1.8.7 2.5.4.6 1.1 1 2 1Zm0-8.7c1.3 0 2.3.4 3.1 1.2.9.8 1.3 2 1.3 3.6 0 1.5-.4 2.8-1.1 3.8-.8 1-2 1.4-3.5 1.4-1.3 0-2.3-.4-3-1.3-.8-.8-1.2-2-1.2-3.5 0-1.6.4-2.8 1.2-3.8a4 4 0 0 1 3.2-1.4Zm11-1.1c0-.7 0-1.2.3-1.5.4-.5 1-.8 2.1-.8a5.4 5.4 0 0 1 .7 0v1.5a5.5 5.5 0 0 0-.6 0c-.4 0-.7 0-.8.3l-.2 2h1.6v1.2h-1.6v8.1h-1.5v-8.1h-1.4v-1.3h1.4v-1.4Zm4.2 1.4h1.6v1.6c0-.3.4-.7.9-1.1a2.3 2.3 0 0 1 1.8-.7h.3v1.7a2.3 2.3 0 0 0-.5 0c-.8 0-1.4.2-1.8.7-.5.5-.7 1.1-.7 1.8v5.4H221v-9.4Zm9.4 8.4c1 0 1.7-.4 2.1-1.2a6 6 0 0 0 .6-2.7c0-.8-.1-1.6-.4-2.1-.4-.9-1.2-1.3-2.3-1.3-1 0-1.7.4-2.1 1.1-.5.7-.7 1.6-.7 2.7 0 1 .2 1.8.7 2.5.4.6 1.1 1 2 1Zm0-8.7c1.2 0 2.3.4 3.1 1.2a5 5 0 0 1 1.3 3.6c0 1.5-.4 2.8-1.1 3.8-.8 1-2 1.4-3.5 1.4-1.3 0-2.3-.4-3-1.3-.8-.8-1.2-2-1.2-3.5 0-1.6.4-2.8 1.2-3.8a4 4 0 0 1 3.2-1.4Zm5.9.3h1.6v1.3l1-1a3 3 0 0 1 1.8-.5c.7 0 1.3.2 1.8.5l.7 1c.3-.5.7-1 1.2-1.2.5-.2 1-.3 1.6-.3 1.3 0 2.1.4 2.6 1.3.2.5.4 1.2.4 2v6.3h-1.7v-6.5c0-.7-.1-1.1-.5-1.3-.3-.3-.6-.4-1.1-.4-.6 0-1.2.2-1.6.6-.5.5-.7 1.2-.7 2.1v5.5h-1.6v-6.1c0-.7 0-1.1-.2-1.4-.3-.5-.7-.7-1.4-.7-.6 0-1.1.2-1.6.7-.5.5-.7 1.3-.7 2.5v5h-1.6v-9.4ZM45.2 142h1.6v2.6h1.5v1.3h-1.5v6.1c0 .4 0 .6.3.7h1.2v1.3l-.6.1h-.6c-.8 0-1.3-.1-1.5-.5-.3-.4-.4-.9-.4-1.5V146h-1.3v-1.3h1.3V142Zm4.3-1h1.6v4.9l1-1c.5-.4 1.1-.5 1.9-.5 1.4 0 2.3.4 2.8 1.4.2.5.4 1.2.4 2.2v6h-1.7v-6c0-.6 0-1.1-.2-1.5-.3-.5-.8-.7-1.6-.7-.7 0-1.3.2-1.8.6-.6.5-.8 1.4-.8 2.6v5h-1.6v-13Zm13.6 3.4a4.3 4.3 0 0 1 3.4 1.7c.3.4.5 1 .6 1.6l.1 2.1h-6.9c0 1 .3 1.7.7 2.3.4.6 1 .9 2 .9a2.5 2.5 0 0 0 2.5-2h1.6c0 .4-.2.8-.4 1.2a3.7 3.7 0 0 1-2.6 2l-1.3.1a4 4 0 0 1-3-1.2 5 5 0 0 1-1.2-3.6 5 5 0 0 1 1.3-3.7 4 4 0 0 1 3.2-1.4Zm2.5 4.1c0-.6-.2-1.2-.4-1.6-.5-.8-1.2-1.1-2.2-1.1-.7 0-1.4.2-1.8.7a3 3 0 0 0-.8 2h5.2Zm13.5-7.8c1.7 0 3 .5 3.8 1.3 1 .9 1.4 1.9 1.5 3h-1.7c-.2-.9-.6-1.5-1.1-2-.6-.5-1.4-.7-2.5-.7-1.2 0-2.3.4-3 1.3-.8.9-1.2 2.3-1.2 4.1a6 6 0 0 0 1 3.7c.7 1 1.8 1.4 3.2 1.4 1.3 0 2.3-.5 3-1.5.3-.5.6-1.2.7-2h1.8a5.8 5.8 0 0 1-1.6 3.4 5.4 5.4 0 0 1-4.1 1.6c-1.5 0-2.8-.4-3.8-1.3-1.3-1.2-2-3-2-5.6 0-1.9.5-3.5 1.5-4.7 1.1-1.3 2.6-2 4.5-2ZM90 153c1 0 1.7-.4 2.1-1.2a6 6 0 0 0 .6-2.7c0-.8-.1-1.6-.4-2.1-.5-.9-1.2-1.3-2.3-1.3-1 0-1.7.4-2.1 1.1-.5.7-.7 1.6-.7 2.7 0 1 .2 1.8.7 2.5.4.6 1.1 1 2 1Zm0-8.7a4 4 0 0 1 3 1.2c1 .8 1.3 2 1.3 3.6 0 1.5-.3 2.8-1 3.8-.8 1-2 1.4-3.5 1.4-1.3 0-2.3-.4-3-1.3-.8-.8-1.2-2-1.2-3.5 0-1.6.4-2.8 1.2-3.8a4 4 0 0 1 3.2-1.4Zm5.9.3h1.5v1.3l1-1a3 3 0 0 1 1.8-.5 3 3 0 0 1 1.8.5c.3.2.5.6.8 1 .3-.5.7-1 1.2-1.2.5-.2 1-.3 1.6-.3 1.3 0 2.1.4 2.6 1.3.2.5.3 1.2.3 2v6.3h-1.6v-6.5c0-.7-.2-1.1-.5-1.3-.3-.3-.7-.4-1.1-.4-.6 0-1.2.2-1.6.6-.5.5-.7 1.2-.7 2.1v5.5h-1.6v-6.1c0-.7 0-1.1-.2-1.4-.3-.5-.7-.7-1.4-.7-.6 0-1.1.2-1.6.7-.5.5-.7 1.3-.7 2.5v5h-1.6v-9.4Zm14.6 0h1.6v1.3l1-1a3 3 0 0 1 1.8-.5c.7 0 1.3.2 1.8.5l.7 1c.3-.5.7-1 1.2-1.2.5-.2 1-.3 1.6-.3 1.3 0 2.2.4 2.6 1.3.3.5.4 1.2.4 2v6.3h-1.7v-6.5c0-.7-.1-1.1-.4-1.3-.4-.3-.7-.4-1.2-.4-.6 0-1.1.2-1.6.6-.4.5-.7 1.2-.7 2.1v5.5H116v-6.1c0-.7 0-1.1-.2-1.4-.2-.5-.7-.7-1.3-.7-.6 0-1.2.2-1.7.7-.5.5-.7 1.3-.7 2.5v5h-1.6v-9.4Zm18.6-.2a4.3 4.3 0 0 1 3.3 1.7c.4.4.6 1 .7 1.6l.1 2.1h-6.9c0 1 .3 1.7.7 2.3.4.6 1 .9 2 .9a2.5 2.5 0 0 0 2.5-2h1.6c0 .4-.2.8-.4 1.2a3.7 3.7 0 0 1-2.6 2l-1.3.1a4 4 0 0 1-3-1.2 5 5 0 0 1-1.2-3.6c0-1.5.4-2.8 1.2-3.7a4 4 0 0 1 3.3-1.4Zm2.5 4.1c0-.6-.2-1.2-.5-1.6-.4-.8-1.1-1.1-2.1-1.1-.8 0-1.4.2-1.9.7a3 3 0 0 0-.7 2h5.2Zm3.2-4h1.6v1.7c0-.3.4-.7.9-1.1a2.3 2.3 0 0 1 1.8-.7h.3v1.7a2.3 2.3 0 0 0-.5 0c-.8 0-1.4.2-1.8.7-.5.5-.7 1.1-.7 1.8v5.4h-1.6v-9.4Zm9.3-.2c1 0 1.9.3 2.6.8.6.5 1 1.4 1.2 2.7h-1.6c0-.6-.3-1.1-.6-1.5-.4-.4-.9-.6-1.6-.6-1 0-1.8.5-2.2 1.5-.3.6-.4 1.4-.4 2.4s.2 1.7.6 2.4c.4.6 1 1 1.9 1a2 2 0 0 0 1.5-.7c.4-.4.7-1 .8-1.6h1.6a4.4 4.4 0 0 1-1.4 2.7 4 4 0 0 1-2.7.9c-1.2 0-2.2-.5-2.9-1.4-.7-.9-1.1-2-1.1-3.3 0-1.7.4-3 1.2-4 .8-.8 1.8-1.3 3-1.3Zm8.9 0a4.3 4.3 0 0 1 3.4 1.8c.3.4.5 1 .6 1.6l.1 2.1h-6.9c0 1 .3 1.7.7 2.3.4.6 1.1.9 2 .9a2.5 2.5 0 0 0 2.6-2h1.5c0 .4-.2.8-.4 1.2a3.7 3.7 0 0 1-2.6 2l-1.2.1a4 4 0 0 1-3-1.2 5 5 0 0 1-1.2-3.6c0-1.5.4-2.8 1.2-3.7a4 4 0 0 1 3.2-1.4Zm2.5 4.2c0-.6-.2-1.2-.4-1.6-.5-.8-1.2-1.1-2.2-1.1-.7 0-1.3.2-1.8.7a3 3 0 0 0-.8 2h5.2Zm13-2a4 4 0 0 0 1.7-.3c.6-.3 1-.9 1-1.7 0-.8-.4-1.4-1-1.7-.5-.2-1-.3-1.8-.3h-3.1v4h3.2Zm.5 6c1.1 0 1.9-.3 2.3-1 .3-.3.5-.8.5-1.3 0-1-.5-1.6-1.3-2l-1.8-.2h-3.4v4.5h3.7Zm-5.4-11.4h5.5c1.5 0 2.6.4 3.2 1.3.4.6.6 1.2.6 1.9 0 .8-.2 1.5-.7 2-.2.3-.6.5-1 .7l1.4.9a3 3 0 0 1 1 2.3c0 .9-.3 1.6-.9 2.3-.7 1-2 1.5-3.7 1.5h-5.4v-13Zm15.2 11.9c1 0 1.7-.4 2.1-1.2a6 6 0 0 0 .6-2.7c0-.8-.1-1.6-.4-2.1-.5-.9-1.2-1.3-2.3-1.3-1 0-1.7.4-2.1 1.1-.5.7-.7 1.6-.7 2.7 0 1 .2 1.8.7 2.5.4.6 1.1 1 2 1Zm0-8.7c1.2 0 2.3.4 3.1 1.2a5 5 0 0 1 1.3 3.6c0 1.5-.4 2.8-1.1 3.8-.8 1-2 1.4-3.5 1.4-1.3 0-2.3-.4-3-1.3-.8-.8-1.2-2-1.2-3.5 0-1.6.4-2.8 1.2-3.8a4 4 0 0 1 3.2-1.4Zm5.9.3h1.6v9.4h-1.6v-9.4Zm0-3.5h1.6v1.8h-1.6V141Zm3.7 0h1.6V154h-1.6v-13Zm7.5 3.3a4.3 4.3 0 0 1 3.4 1.7c.3.4.5 1 .6 1.6l.2 2.1h-7c0 1 .3 1.7.7 2.3.5.6 1.1.9 2 .9a2.5 2.5 0 0 0 2.6-2h1.5c0 .4-.2.8-.4 1.2a3.7 3.7 0 0 1-2.6 2l-1.2.1a4 4 0 0 1-3-1.2 5 5 0 0 1-1.2-3.6c0-1.5.4-2.8 1.2-3.7a4 4 0 0 1 3.2-1.4Zm2.5 4.1c0-.6-.2-1.2-.4-1.6-.5-.8-1.2-1.1-2.2-1.1-.7 0-1.3.2-1.8.7a3 3 0 0 0-.8 2h5.2Zm3.3-4h1.5v1.7c.1-.3.4-.7.9-1.1a2.3 2.3 0 0 1 1.8-.7h.4v1.7a2.3 2.3 0 0 0-.5 0c-.8 0-1.5.2-1.9.7-.4.5-.6 1.1-.6 1.8v5.4h-1.6v-9.4Zm9.6 8.4c.7 0 1.3-.3 1.8-.9.5-.6.7-1.5.7-2.8 0-.7 0-1.4-.3-1.9-.4-1-1.2-1.6-2.2-1.6-1.1 0-1.9.6-2.3 1.7a6.5 6.5 0 0 0 0 4c.4 1 1.2 1.5 2.3 1.5Zm-4.1-8.3h1.5v1.3l1-1c.6-.4 1.2-.5 2-.5 1 0 1.9.4 2.6 1.2.8.8 1.1 2 1.1 3.5 0 2-.5 3.5-1.6 4.4-.6.5-1.4.8-2.3.8-.7 0-1.3-.1-1.8-.4l-1-1v4.9h-1.5v-13.2Zm9.8-3.5h1.6V154H217v-13Zm4.8 10.4c0 .5.2.8.5 1 .3.3.7.5 1.2.5s1-.2 1.6-.4c.9-.4 1.3-1.1 1.3-2.1v-1.3l-.7.3-1 .2-.9.1c-.5 0-1 .2-1.3.4-.5.3-.7.7-.7 1.3Zm3.8-3.2c.4 0 .6-.2.8-.5v-.6c0-.5-.1-.9-.5-1.1a3 3 0 0 0-1.7-.4c-.8 0-1.4.2-1.7.7-.2.2-.3.6-.4 1h-1.5c0-1.1.4-2 1.2-2.4.7-.4 1.5-.6 2.5-.6s2 .2 2.7.6c.7.4 1 1 1 2v5.4l.1.4.4.1a3.5 3.5 0 0 0 .6 0v1.1l-.6.2h-.5c-.6 0-1-.2-1.2-.6-.2-.2-.2-.5-.3-.8a4.3 4.3 0 0 1-3.4 1.6 3 3 0 0 1-2.1-.9c-.6-.5-.8-1.2-.8-2s.2-1.5.8-2c.5-.5 1.2-.8 2.1-.9l2.5-.3Zm5-6.3h1.6v2.6h1.5v1.3H232v6.1c0 .4 0 .6.3.7h1.2v1.3l-.6.1h-.6c-.8 0-1.3-.1-1.5-.5-.3-.4-.4-.9-.4-1.5V146h-1.3v-1.3h1.3V142Zm8.2 2.4a4.3 4.3 0 0 1 3.4 1.7c.3.4.5 1 .6 1.6l.2 2.1h-7c.1 1 .3 1.7.7 2.3.5.6 1.1.9 2 .9a2.5 2.5 0 0 0 2.6-2h1.5c0 .4-.1.8-.4 1.2a3.7 3.7 0 0 1-2.6 2l-1.2.1a4 4 0 0 1-3-1.2 5 5 0 0 1-1.2-3.6c0-1.5.4-2.8 1.2-3.7a4 4 0 0 1 3.2-1.4Zm2.5 4.1c0-.6-.2-1.2-.4-1.6-.4-.8-1.2-1.1-2.2-1.1-.7 0-1.3.2-1.8.7a3 3 0 0 0-.8 2h5.2Zm3.6 3.6h1.9v1.9h-1.9v-2Z"/>
  <ellipse cx="146.1" cy="226" fill="#fff" rx="39.1" ry="40"/>
  <path fill="#161614" fill-rule="evenodd" d="M146 186a40 40 0 0 0-39 41 40.9 40.9 0 0 0 26.7 39c2 .3 2.7-1 2.7-2v-7.7c-11 2.5-13.2-4.8-13.2-4.8-1.8-4.8-4.4-6-4.4-6-3.5-2.6.3-2.5.3-2.5 4 .3 6 4.2 6 4.2 3.5 6.3 9.1 4.5 11.4 3.4a8.9 8.9 0 0 1 2.4-5.5c-8.6-1-17.8-4.5-17.8-20.2 0-4.5 1.6-8.2 4-11-.3-1-1.7-5.2.4-10.9 0 0 3.3-1 10.8 4.2a35.7 35.7 0 0 1 19.5 0c7.5-5.3 10.8-4.2 10.8-4.2 2.1 5.7.8 9.8.4 10.9 2.5 2.8 4 6.5 4 11 0 15.7-9.2 19.2-17.9 20.2 1.4 1.3 2.7 3.8 2.7 7.6V264c0 1 .6 2.3 2.6 2a40.9 40.9 0 0 0 26.7-39 40 40 0 0 0-39-41Zm-24.4 58.4c0 .2-.4.3-.6.1-.3 0-.5-.4-.4-.6 0-.2.4-.2.7 0 .3 0 .4.3.3.5Zm2 1.8c-.2.2-.6.1-.8-.2-.3-.3-.4-.6-.2-.8.2-.2.6-.1.8.2.3.3.3.6.1.8Zm1.3 2.3c-.3.2-.7 0-.9-.3-.2-.4-.2-.8 0-1 .2-.2.6 0 .9.3.2.4.2.8 0 1Zm2.2 2.7c-.2.2-.7.2-1-.2-.3-.3-.4-.8-.2-1 .2-.3.6-.2 1 .1.3.4.4.8.2 1Zm2.9.9c-.1.3-.6.5-1 .3-.4-.1-.7-.5-.6-.8 0-.3.5-.5 1-.3.4 0 .7.5.6.8Zm3.3.4c0 .3-.4.6-.9.6-.4 0-.8-.3-.8-.6s.3-.6.8-.6.9.2.9.6Zm3.2-.2c0 .4-.3.7-.8.8-.4 0-.8-.1-.9-.4 0-.4.3-.7.7-.8.5 0 1 .1 1 .4Z" clip-rule="evenodd"/>
  <path fill="#B9B9B9" d="M134.8 226h-2.2v4h-2v-10h4.9c.7 0 1.2 0 1.6.2.4.1.7.4 1 .7l.5.8.2 1c0 .6-.1 1-.4 1.5a2 2 0 0 1-1.2 1c.5.2.8.4 1 .8.2.3.3.9.3 1.6v1.6l.4.5v.3h-2.3l-.1-.5-.1-1v-.8c0-.7-.2-1.1-.4-1.3-.2-.2-.6-.4-1.2-.4Zm1.2-1.8c.4-.2.7-.6.7-1.1 0-.6-.2-1-.6-1.2-.3-.2-.6-.2-1-.2h-2.5v2.7h2.4c.4 0 .8 0 1-.2Zm10.5 3.6c0 .5-.3.9-.7 1.4-.6.7-1.5 1-2.6 1-1 0-1.8-.3-2.5-.9-.8-.6-1.1-1.6-1.1-3 0-1.2.3-2.2 1-3 .6-.6 1.4-1 2.5-1a4 4 0 0 1 1.7.4c.5.2.9.6 1.2 1.1.3.4.5 1 .6 1.5v1.5h-5c0 .8.2 1.3.6 1.6.3.2.6.3 1 .3s.7-.1 1-.4l.3-.5h2Zm-1.9-2.3c0-.5-.2-.9-.5-1.1-.2-.3-.6-.4-1-.4-.5 0-.8.1-1 .4-.3.3-.5.6-.5 1.1h3Zm9.3-2.2c.6.7 1 1.6 1 2.9 0 1.3-.4 2.3-1 3-.6.7-1.3 1-2.3 1-.5 0-1-.1-1.4-.4-.2-.2-.5-.4-.7-.8v4h-1.9v-10.5h1.9v1.1l.6-.7a3 3 0 0 1 3.8.5Zm-1.1 3a3 3 0 0 0-.4-1.6c-.3-.4-.7-.6-1.3-.6-.7 0-1.2.3-1.4 1-.2.3-.2.8-.2 1.3 0 1 .2 1.5.7 1.9.2.2.6.3 1 .3.5 0 .9-.2 1.2-.7.3-.4.4-1 .4-1.6Zm9.4-2.8c.6.8.9 1.7.9 2.8 0 1-.3 2-1 2.8-.6.8-1.5 1.2-2.8 1.2-1.3 0-2.2-.4-2.9-1.2-.6-.8-1-1.7-1-2.8 0-1 .4-2 1-2.8.7-.8 1.6-1.2 2.9-1.2 1.3 0 2.2.4 2.9 1.2Zm-3 .5c-.5 0-1 .2-1.2.6-.3.4-.5 1-.5 1.7s.2 1.3.5 1.7c.3.4.7.6 1.3.6.6 0 1-.2 1.3-.6.3-.4.5-1 .5-1.7 0-.8-.2-1.3-.5-1.7-.3-.4-.7-.6-1.3-.6Z" opacity=".8"/>
  <circle cx="146.5" cy="50.5" r="14.5" fill="#000"/>
  <path fill="#fff" d="M148.2 56h-2.4v-8.3h-2.9v-1.6c.8 0 1.3 0 1.6-.2.5 0 .9-.3 1.2-.6.2-.2.3-.5.4-.9l.1-.4h2v12Z"/>
  <rect width="250" height="240" x="283" y="51" fill="#F6F6F6" rx="8"/>
  <path fill="#000" d="M360.4 92h-5.3l-1 3H351l5.1-14.4h3.4l5.1 14.4h-3.3l-.9-3Zm-.8-2.4-1.8-5.7-1.9 5.7h3.7Zm16-9V95h-2.8v-1.5a4 4 0 0 1-1.4 1.4c-.5.3-1 .4-1.8.4a4 4 0 0 1-3.2-1.5 6 6 0 0 1-1.3-3.8c0-1.9.5-3.3 1.3-4.3s2-1.6 3.3-1.6a3.4 3.4 0 0 1 3 1.6v-5h2.8Zm-7.6 9.1c0 1 .2 1.8.6 2.4.4.6 1 .9 1.8.9a2 2 0 0 0 1.8-.9 4 4 0 0 0 .6-2.3c0-1.3-.4-2.2-1-2.8-.4-.3-.9-.5-1.4-.5-.8 0-1.4.3-1.8 1-.4.6-.6 1.3-.6 2.2Zm19.3-9V95h-2.7v-1.5a4 4 0 0 1-1.3 1.4 4 4 0 0 1-2 .4 4 4 0 0 1-3-1.5c-1-1-1.3-2.3-1.3-3.8 0-1.9.4-3.3 1.2-4.3a4 4 0 0 1 3.4-1.6 3.4 3.4 0 0 1 3 1.6v-5h2.7Zm-7.5 9c0 1 .2 1.8.6 2.4.4.6 1 .9 1.8.9a2 2 0 0 0 1.8-.9 4 4 0 0 0 .6-2.3c0-1.3-.3-2.2-1-2.8-.4-.3-.9-.5-1.4-.5-.8 0-1.4.3-1.8 1-.4.6-.6 1.3-.6 2.2ZM405 94c-1 1-2.4 1.5-4.1 1.5-2 0-3.7-.7-4.9-2a8 8 0 0 1-1.8-5.5c0-2.5.7-4.4 2-5.8a6 6 0 0 1 4.5-1.8c2.5 0 4.2.8 5.3 2.4.7 1 1 1.8 1 2.7h-3a4 4 0 0 0-.7-1.6c-.6-.6-1.4-.9-2.4-.9a3 3 0 0 0-2.6 1.3c-.7 1-1 2.2-1 3.8 0 1.6.3 2.8 1 3.6.7.8 1.5 1.2 2.6 1.2a3 3 0 0 0 2.4-1c.3-.4.5-1 .7-1.7h3c-.2 1.6-1 2.8-2 3.8Zm12.6-8.2a6.2 6.2 0 0 1 1.3 4 6 6 0 0 1-1.3 4 5.2 5.2 0 0 1-4.1 1.7c-1.8 0-3.2-.6-4.1-1.7a6.2 6.2 0 0 1-1.4-4c0-1.5.5-2.9 1.4-4a5 5 0 0 1 4-1.7c2 0 3.3.6 4.2 1.7Zm-4.1.7c-.8 0-1.5.3-2 .8a4 4 0 0 0-.6 2.5c0 1 .3 1.9.7 2.5.4.5 1 .8 1.9.8.8 0 1.4-.3 1.8-.8a4 4 0 0 0 .7-2.5 4 4 0 0 0-.7-2.5c-.4-.5-1-.8-1.8-.8Zm12 0c-1 0-1.6.4-2 1.2l-.2 1.6V95h-2.8V84.4h2.7v1.5c.4-.5.7-1 1-1.2.6-.4 1.3-.6 2.2-.6a4 4 0 0 1 2.7.9c.7.5 1 1.5 1 2.8V95h-2.8v-6.5c0-.5 0-1-.2-1.3-.3-.5-.8-.8-1.6-.8Zm11.7 6.6v2.1H436c-1.3 0-2.2-.1-2.7-.6-.3-.4-.5-.8-.5-1.5v-6.6h-1.4v-2h1.4v-3h2.8v3h1.7v2h-1.7v5.7c0 .4 0 .7.2.8l1 .1h.5Zm10.5-1.1c0 .6-.4 1.2-1 1.9a5 5 0 0 1-3.8 1.6c-1.3 0-2.5-.5-3.6-1.4-1-.8-1.5-2.2-1.5-4.2 0-1.9.4-3.3 1.4-4.3.9-1 2.1-1.4 3.6-1.4.9 0 1.7.1 2.4.5.7.3 1.3.8 1.8 1.5.4.7.6 1.4.8 2.2v2.1h-7.2c0 1.1.3 1.9 1 2.3.4.3.8.4 1.4.4.5 0 1-.2 1.4-.5l.5-.7h2.8Zm-2.7-3.3c0-.7-.3-1.3-.7-1.7a2 2 0 0 0-1.5-.5 2 2 0 0 0-1.5.6 3 3 0 0 0-.7 1.6h4.4Zm9.4-2.2c-1 0-1.6.4-2 1.2-.2.4-.3 1-.3 1.6V95h-2.7V84.4h2.6v1.5c.4-.5.7-1 1-1.2a4 4 0 0 1 2.2-.6 4 4 0 0 1 2.7.9c.7.5 1 1.5 1 2.8V95h-2.8v-6.5c0-.5 0-1-.2-1.3-.3-.5-.8-.8-1.5-.8ZM466 93v2.1h-1.3c-1.3 0-2.2-.1-2.7-.6-.3-.4-.4-.8-.4-1.5v-6.6H460v-2h1.5v-3h2.7v3h1.7v2h-1.7v5.7c0 .4 0 .7.2.8l1 .1h.5Z"/>
  <path fill="#2B2B2B" d="m309.4 125.7-2-5.7-2 5.7h4Zm-2.9-7.6h2l4.7 12.9h-2l-1.2-3.9h-5.2l-1.4 3.9h-1.7l4.8-13Zm8.7 8.3c0 1 .2 1.9.6 2.5.5.7 1.2 1 2.1 1 .7 0 1.3-.3 1.8-.9.5-.6.7-1.5.7-2.7 0-1.2-.2-2-.7-2.6a2.4 2.4 0 0 0-3.7 0c-.6.6-.8 1.5-.8 2.7Zm2.4-5c.7 0 1.3.2 1.8.5l1 .9V118h1.5v13h-1.5v-1.3c-.3.6-.8 1-1.3 1.2a3 3 0 0 1-1.7.4c-1 0-2-.4-2.7-1.3a5 5 0 0 1-1.2-3.5 6 6 0 0 1 1-3.6c.8-1 1.8-1.5 3-1.5Zm7.3 5c0 1 .2 1.9.6 2.5.4.7 1.1 1 2 1 .8 0 1.4-.3 1.9-.9.4-.6.7-1.5.7-2.7 0-1.2-.3-2-.8-2.6-.4-.6-1-.9-1.8-.9s-1.4.3-1.9 1c-.5.5-.7 1.4-.7 2.6Zm2.3-5c.8 0 1.4.2 1.9.5l1 .9V118h1.4v13h-1.4v-1.3a3 3 0 0 1-1.3 1.2 3 3 0 0 1-1.7.4c-1 0-2-.4-2.8-1.3-.7-.9-1.1-2-1.1-3.5a6 6 0 0 1 1-3.6c.7-1 1.7-1.5 3-1.5Zm12 6.6c0 .6 0 1 .3 1.3.4.5 1 .7 2 .7a3 3 0 0 0 1.6-.4c.5-.2.7-.6.7-1.1a1 1 0 0 0-.5-1l-1.4-.4-1.3-.3a6 6 0 0 1-1.7-.7 2 2 0 0 1-1-1.8c0-.9.3-1.6 1-2.1.6-.6 1.4-.9 2.5-.9 1.4 0 2.4.5 3 1.3.5.5.7 1 .6 1.7h-1.5c0-.4-.1-.7-.3-1-.4-.4-1-.6-2-.6-.5 0-1 .1-1.3.3a1 1 0 0 0-.4 1c0 .4.2.7.6 1l1 .3 1 .3c1.2.2 2 .5 2.3.8.6.4 1 1 1 1.9a3 3 0 0 1-1 2.1c-.6.7-1.6 1-2.9 1-1.4 0-2.4-.4-3-1-.6-.6-.9-1.4-1-2.4h1.6Zm8-9h1.5v2.6h1.5v1.3h-1.5v6.1c0 .4.1.6.4.7h1.1v1.3l-.5.1h-.7c-.7 0-1.2-.1-1.5-.5-.2-.4-.4-.9-.4-1.5V123h-1.3v-1.3h1.3V119Zm5.5 9.5c0 .5.1.8.5 1 .3.3.7.5 1.2.5s1-.2 1.6-.4c.9-.4 1.3-1.1 1.3-2.1v-1.3l-.8.3-.9.2-1 .1c-.5 0-1 .2-1.2.4-.5.3-.7.7-.7 1.3Zm3.8-3.2c.4 0 .6-.2.7-.5l.1-.6c0-.5-.2-.9-.5-1.1a3 3 0 0 0-1.7-.4c-.8 0-1.4.2-1.7.7-.2.2-.4.6-.4 1h-1.5c0-1.1.4-2 1.1-2.4.8-.4 1.6-.6 2.5-.6 1.2 0 2 .2 2.7.6.7.4 1 1 1 2v5.4l.2.4.4.1a3.5 3.5 0 0 0 .5 0v1.1l-.5.2h-.6c-.5 0-1-.2-1.2-.6l-.2-.8a4.3 4.3 0 0 1-3.4 1.6 3 3 0 0 1-2.2-.9c-.5-.5-.8-1.2-.8-2s.3-1.5.8-2a4 4 0 0 1 2.2-.9l2.5-.3Zm4.7-3.7h1.5v1.6c0-.3.4-.7.9-1.1a2.3 2.3 0 0 1 1.8-.7h.3v1.7a2.3 2.3 0 0 0-.5 0c-.8 0-1.4.2-1.8.7-.4.5-.7 1.1-.7 1.8v5.4h-1.5v-9.4Zm5.9-2.6h1.6v2.6h1.5v1.3h-1.5v6.1c0 .4 0 .6.3.7h1.2v1.3l-.6.1h-.6c-.8 0-1.3-.1-1.5-.5-.3-.4-.4-.9-.4-1.5V123h-1.3v-1.3h1.3V119Zm8.2 2.4a4.3 4.3 0 0 1 3.4 1.7c.3.4.5 1 .6 1.6l.2 2.1h-7c.1 1 .3 1.7.7 2.3.5.6 1.1.9 2 .9a2.5 2.5 0 0 0 2.6-2h1.5c0 .4-.1.8-.4 1.2a3.7 3.7 0 0 1-2.6 2l-1.2.1a4 4 0 0 1-3-1.2 5 5 0 0 1-1.2-3.6c0-1.5.4-2.8 1.2-3.7a4 4 0 0 1 3.2-1.4Zm2.5 4.1c0-.6-.2-1.2-.4-1.6-.4-.8-1.2-1.1-2.2-1.1-.7 0-1.3.2-1.8.7a3 3 0 0 0-.8 2h5.2Zm3.3-4h1.5v1.7c.1-.3.4-.7 1-1.1a2.3 2.3 0 0 1 1.7-.7h.4v1.7a2.3 2.3 0 0 0-.5 0c-.8 0-1.4.2-1.9.7-.4.5-.6 1.1-.6 1.8v5.4H381v-9.4Zm13.9-.2c1 0 1.9.3 2.6.8.6.5 1 1.4 1.2 2.7h-1.6c0-.6-.3-1.1-.6-1.5-.4-.4-.9-.6-1.6-.6-1 0-1.8.5-2.2 1.5-.3.6-.4 1.4-.4 2.4s.2 1.7.6 2.4c.4.6 1 1 1.9 1a2 2 0 0 0 1.5-.7c.4-.4.7-1 .8-1.6h1.6a4.4 4.4 0 0 1-1.4 2.7 4 4 0 0 1-2.7.9c-1.2 0-2.2-.5-2.9-1.4-.7-.9-1.1-2-1.1-3.3 0-1.7.4-3 1.2-4 .8-.8 1.8-1.3 3-1.3Zm8.7 8.7c1 0 1.8-.4 2.2-1.2a6 6 0 0 0 .6-2.7c0-.8-.2-1.6-.5-2.1-.4-.9-1.2-1.3-2.3-1.3-1 0-1.6.4-2 1.1-.5.7-.7 1.6-.7 2.7 0 1 .2 1.8.6 2.5.5.6 1.2 1 2.1 1Zm0-8.7c1.3 0 2.3.4 3.2 1.2.8.8 1.2 2 1.2 3.6 0 1.5-.4 2.8-1 3.8-.8 1-2 1.4-3.5 1.4-1.3 0-2.4-.4-3.1-1.3-.8-.8-1.2-2-1.2-3.5 0-1.6.4-2.8 1.2-3.8a4 4 0 0 1 3.3-1.4Zm6 .3h1.4v1.3c.5-.5 1-1 1.5-1.2.5-.2 1-.3 1.6-.3 1.4 0 2.3.4 2.7 1.4.3.5.4 1.2.4 2.2v6h-1.6v-6c0-.5 0-1-.2-1.3-.3-.6-.8-.9-1.6-.9l-.9.1c-.4.1-.8.4-1.1.8a2 2 0 0 0-.6 1v6.3h-1.7v-9.4Zm10-2.6h1.5v2.6h1.5v1.3h-1.5v6.1c0 .4.1.6.4.7h1.1v1.3l-.5.1h-.7c-.7 0-1.2-.1-1.5-.5-.2-.4-.4-.9-.4-1.5V123h-1.3v-1.3h1.3V119Zm8.2 2.4a4.3 4.3 0 0 1 3.3 1.7c.4.4.6 1 .7 1.6l.1 2.1h-6.9c0 1 .3 1.7.7 2.3.4.6 1 .9 2 .9a2.5 2.5 0 0 0 2.5-2h1.6c0 .4-.2.8-.4 1.2a3.7 3.7 0 0 1-2.6 2l-1.3.1a4 4 0 0 1-3-1.2 5 5 0 0 1-1.2-3.6 5 5 0 0 1 1.3-3.7 4 4 0 0 1 3.2-1.4Zm2.5 4.1c0-.6-.2-1.2-.5-1.6-.4-.8-1.1-1.1-2.1-1.1-.8 0-1.4.2-1.9.7a3 3 0 0 0-.7 2h5.2Zm3.2-4h1.5v1.4c.5-.5 1-1 1.4-1.2.5-.2 1-.3 1.7-.3 1.3 0 2.2.4 2.7 1.4.3.5.4 1.2.4 2.2v6h-1.6v-6c0-.5-.1-1-.3-1.3-.3-.6-.8-.9-1.5-.9l-1 .1c-.4.1-.7.4-1 .8a2 2 0 0 0-.6 1l-.1 1.4v4.9h-1.6v-9.4Zm10-2.5h1.6v2.6h1.5v1.3h-1.5v6.1c0 .4.1.6.3.7h1.2v1.3l-.6.1h-.6c-.8 0-1.3-.1-1.5-.5-.3-.4-.4-.9-.4-1.5V123h-1.3v-1.3h1.3V119Zm9.4 1.2c0-.7.1-1.2.3-1.5.4-.5 1-.8 2.1-.8a5.4 5.4 0 0 1 .7 0v1.5a5.5 5.5 0 0 0-.5 0c-.5 0-.8 0-1 .3v2h1.5v1.2h-1.6v8.1H453v-8.1h-1.3v-1.3h1.3v-1.4Zm4.3 1.4h1.5v1.6c0-.3.4-.7.9-1.1a2.3 2.3 0 0 1 1.8-.7h.3v1.7a2.2 2.2 0 0 0-.5 0c-.8 0-1.4.2-1.8.7-.4.5-.7 1.1-.7 1.8v5.4h-1.5v-9.4Zm9.3 8.4c1 0 1.8-.4 2.1-1.2a6 6 0 0 0 .6-2.7c0-.8-.1-1.6-.4-2.1-.4-.9-1.2-1.3-2.3-1.3-1 0-1.7.4-2.1 1.1-.4.7-.7 1.6-.7 2.7 0 1 .3 1.8.7 2.5.4.6 1.1 1 2 1Zm0-8.7c1.3 0 2.3.4 3.1 1.2.9.8 1.3 2 1.3 3.6 0 1.5-.4 2.8-1.1 3.8-.8 1-2 1.4-3.5 1.4-1.3 0-2.3-.4-3-1.3-.8-.8-1.2-2-1.2-3.5 0-1.6.4-2.8 1.2-3.8a4 4 0 0 1 3.3-1.4Zm6 .3h1.5v1.3l1-1a3 3 0 0 1 1.8-.5c.7 0 1.3.2 1.8.5l.7 1c.3-.5.8-1 1.2-1.2.5-.2 1-.3 1.6-.3 1.3 0 2.2.4 2.6 1.3.3.5.4 1.2.4 2v6.3h-1.7v-6.5c0-.7-.1-1.1-.4-1.3-.3-.3-.7-.4-1.2-.4-.6 0-1.1.2-1.6.6-.4.5-.7 1.2-.7 2.1v5.5H478v-6.1c0-.7 0-1.1-.2-1.4-.2-.5-.7-.7-1.3-.7-.6 0-1.2.2-1.7.7-.5.5-.7 1.3-.7 2.5v5h-1.6v-9.4ZM492 119h1.6v2.6h1.5v1.3h-1.5v6.1c0 .4.1.6.3.7h1.2v1.3l-.6.1h-.6c-.7 0-1.2-.1-1.5-.5-.3-.4-.4-.9-.4-1.5V123h-1.3v-1.3h1.3V119Zm4.3-1h1.6v4.9l1-1c.6-.4 1.2-.5 2-.5 1.3 0 2.2.4 2.7 1.4.3.5.4 1.2.4 2.2v6h-1.6v-6c0-.6 0-1.1-.3-1.5-.3-.5-.8-.7-1.6-.7-.6 0-1.2.2-1.8.7-.5.4-.8 1.3-.8 2.5v5h-1.6v-13Zm13.6 3.4a4.3 4.3 0 0 1 3.4 1.7c.3.4.5 1 .6 1.6l.2 2.1h-7a4 4 0 0 0 .8 2.3c.4.6 1 .9 2 .9a2.5 2.5 0 0 0 2.5-2h1.5c0 .4-.1.8-.4 1.2a3.7 3.7 0 0 1-2.6 2l-1.2.1a4 4 0 0 1-3-1.2 5 5 0 0 1-1.2-3.6c0-1.5.4-2.8 1.2-3.7a4 4 0 0 1 3.2-1.4Zm2.5 4.1a4 4 0 0 0-.4-1.6c-.4-.8-1.2-1.1-2.2-1.1-.7 0-1.3.2-1.8.7a3 3 0 0 0-.8 2h5.2Zm-185 15.5h1.6v4.7a3.5 3.5 0 0 1 2.8-1.4c1.2 0 2.1.4 2.8 1.3.8.8 1.1 2 1.1 3.5s-.3 2.7-1 3.7c-.8 1-1.8 1.5-3 1.5a3 3 0 0 1-1.9-.5l-.9-1v1.2h-1.5v-13Zm4.2 11.9c.8 0 1.4-.3 1.9-1a5 5 0 0 0 .6-2.7c0-1-.2-1.8-.6-2.5a2 2 0 0 0-1.9-1c-.7 0-1.4.3-1.9.9-.5.5-.8 1.4-.8 2.6 0 .9.1 1.6.3 2.1.4 1 1.2 1.6 2.4 1.6Zm9.4 0c1 0 1.7-.3 2.1-1.1a6 6 0 0 0 .6-2.7c0-.8-.1-1.6-.4-2.1-.5-.9-1.2-1.3-2.3-1.3-1 0-1.7.4-2.1 1.1-.5.7-.7 1.6-.7 2.7 0 1 .2 1.8.7 2.5.4.6 1.1 1 2 1Zm0-8.6c1.2 0 2.3.4 3.1 1.2a5 5 0 0 1 1.3 3.6 6 6 0 0 1-1.2 3.8c-.7 1-1.8 1.4-3.4 1.4-1.3 0-2.3-.4-3-1.3-.8-.8-1.2-2-1.2-3.5 0-1.6.4-2.8 1.2-3.8a4 4 0 0 1 3.2-1.4Zm5.9.3h1.6v9.4H347v-9.4Zm0-3.5h1.6v1.8H347V141Zm3.7 0h1.6V154h-1.6v-13Zm7.5 3.3a4.3 4.3 0 0 1 3.4 1.7c.3.4.5 1 .6 1.6l.1 2.1h-6.9c0 1 .3 1.7.7 2.3.4.6 1.1.9 2 .9a2.5 2.5 0 0 0 2.6-2h1.5c0 .4-.2.8-.4 1.2a3.7 3.7 0 0 1-2.6 2l-1.2.1a4 4 0 0 1-3-1.2 5 5 0 0 1-1.2-3.6c0-1.5.4-2.8 1.2-3.7a4 4 0 0 1 3.2-1.4Zm2.5 4.1c0-.6-.2-1.2-.4-1.6-.5-.8-1.2-1.1-2.2-1.1-.7 0-1.3.2-1.8.7a3 3 0 0 0-.8 2h5.2Zm3.3-4h1.5v1.7c.1-.3.4-.7.9-1.1a2.3 2.3 0 0 1 1.8-.7h.4v1.7a2.2 2.2 0 0 0-.6 0c-.8 0-1.4.2-1.8.7-.4.5-.6 1.1-.6 1.8v5.4H364v-9.4Zm9.5 8.4c.8 0 1.4-.3 1.9-.9.5-.6.7-1.5.7-2.8 0-.7 0-1.4-.3-1.9-.4-1-1.2-1.6-2.3-1.6-1 0-1.8.6-2.2 1.7a6.5 6.5 0 0 0 0 4c.4 1 1.2 1.5 2.2 1.5Zm-4-8.3h1.5v1.3a3.3 3.3 0 0 1 3-1.5c1 0 1.9.4 2.6 1.2.8.8 1.1 2 1.1 3.5 0 2-.5 3.5-1.6 4.4-.7.5-1.4.8-2.3.8-.8 0-1.3-.1-1.8-.4l-1-1v4.9h-1.6v-13.2Zm9.8-3.5h1.6V154h-1.6v-13Zm4.8 10.4c0 .5.2.8.5 1 .3.3.7.5 1.2.5s1-.2 1.6-.4c.9-.4 1.3-1.1 1.3-2.1v-1.3l-.7.3-1 .2-.9.1c-.6 0-1 .2-1.3.4-.5.3-.7.7-.7 1.3Zm3.8-3.2c.4 0 .6-.2.8-.5v-.6c0-.5-.1-.9-.5-1.1a3 3 0 0 0-1.7-.4c-.8 0-1.4.2-1.7.7-.2.2-.3.6-.4 1h-1.5c0-1.1.4-2 1.1-2.4.8-.4 1.6-.6 2.6-.6s2 .2 2.7.6c.7.4 1 1 1 2v5.8l.5.1a3.5 3.5 0 0 0 .5 0v1.1l-.5.2h-.5c-.6 0-1-.2-1.2-.6-.2-.2-.3-.5-.3-.8a4.3 4.3 0 0 1-3.4 1.6 3 3 0 0 1-2.1-.9c-.6-.5-.9-1.2-.9-2s.3-1.5.9-2c.5-.5 1.2-.8 2.1-.9l2.5-.3Zm5-6.3h1.6v2.6h1.5v1.3h-1.5v6.1c0 .4 0 .6.3.7h1.2v1.3l-.6.1h-.6c-.8 0-1.3-.1-1.5-.5-.3-.4-.4-.9-.4-1.5V146h-1.3v-1.3h1.3V142Zm8.2 2.4a4.3 4.3 0 0 1 3.4 1.7c.3.4.5 1 .6 1.6l.2 2.1h-7c0 1 .3 1.7.7 2.3.5.6 1.1.9 2 .9a2.5 2.5 0 0 0 2.6-2h1.5c0 .4-.2.8-.4 1.2a3.7 3.7 0 0 1-2.6 2l-1.2.1a4 4 0 0 1-3-1.2 5 5 0 0 1-1.2-3.6c0-1.5.4-2.8 1.2-3.7a4 4 0 0 1 3.2-1.4Zm2.5 4.1a4 4 0 0 0-.4-1.6c-.4-.8-1.2-1.1-2.2-1.1-.7 0-1.3.2-1.8.7a3 3 0 0 0-.8 2h5.2Zm8-4h1.4v1.7c.2-.3.5-.7 1-1.1a2.3 2.3 0 0 1 1.8-.7h.3v1.7a2.2 2.2 0 0 0-.5 0c-.8 0-1.4.2-1.8.7-.5.5-.7 1.1-.7 1.8v5.4h-1.6v-9.4Zm9.5-.1a4.3 4.3 0 0 1 3.3 1.7c.3.4.6 1 .7 1.6l.1 2.1h-6.9c0 1 .3 1.7.7 2.3.4.6 1 .9 2 .9a2.5 2.5 0 0 0 2.5-2h1.6c0 .4-.2.8-.4 1.2a3.7 3.7 0 0 1-2.6 2l-1.3.1a4 4 0 0 1-3-1.2 5 5 0 0 1-1.2-3.6c0-1.5.4-2.8 1.2-3.7a4 4 0 0 1 3.3-1.4Zm2.5 4.1c0-.6-.2-1.2-.5-1.6-.4-.8-1.1-1.1-2.1-1.1-.8 0-1.4.2-1.9.7a3 3 0 0 0-.8 2h5.3Zm7.2 4.4c.7 0 1.3-.3 1.8-.9.5-.6.7-1.5.7-2.8 0-.7 0-1.4-.3-1.9-.4-1-1.1-1.6-2.2-1.6s-1.9.6-2.3 1.7a6.5 6.5 0 0 0 0 4c.4 1 1.2 1.5 2.3 1.5Zm-4.1-8.3h1.5v1.3l1-1c.6-.4 1.2-.5 2-.5 1 0 1.9.4 2.6 1.2.8.8 1.2 2 1.2 3.5 0 2-.6 3.5-1.7 4.4-.6.5-1.4.8-2.3.8-.7 0-1.3-.1-1.8-.4l-1-1v4.9h-1.5v-13.2Zm13.5 8.4c1 0 1.8-.4 2.1-1.2a6 6 0 0 0 .6-2.7c0-.8-.1-1.6-.4-2.1-.4-.9-1.2-1.3-2.3-1.3-1 0-1.7.4-2.1 1.1-.4.7-.7 1.6-.7 2.7 0 1 .3 1.8.7 2.5.4.6 1.1 1 2 1Zm0-8.7c1.3 0 2.3.4 3.1 1.2.9.8 1.3 2 1.3 3.6 0 1.5-.4 2.8-1.1 3.8-.8 1-2 1.4-3.5 1.4-1.3 0-2.3-.4-3-1.3-.8-.8-1.2-2-1.2-3.5 0-1.6.4-2.8 1.2-3.8a4 4 0 0 1 3.2-1.4Zm6.9 6.7c0 .6.1 1 .3 1.3.4.5 1.1.7 2.1.7a3 3 0 0 0 1.6-.4c.4-.2.6-.6.6-1.1a1 1 0 0 0-.5-1l-1.4-.4-1.2-.3c-.8-.2-1.4-.4-1.8-.7a2 2 0 0 1-1-1.8c0-.9.3-1.6 1-2.1.6-.6 1.5-.9 2.5-.9 1.5 0 2.5.5 3.1 1.3.4.5.6 1 .6 1.7h-1.5c0-.4-.2-.7-.4-1-.4-.4-1-.6-1.9-.6-.6 0-1 .1-1.3.3a1 1 0 0 0-.5 1c0 .4.2.7.6 1l1 .3 1 .3a6 6 0 0 1 2.4.8c.6.4.9 1 .9 1.9 0 .8-.3 1.5-1 2.1-.6.7-1.6 1-2.9 1-1.4 0-2.4-.4-3-1-.5-.6-.8-1.4-.9-2.4h1.6Zm7.7-6.4h1.6v9.4h-1.6v-9.4Zm0-3.5h1.6v1.8h-1.6V141Zm4 .9h1.5v2.6h1.5v1.3h-1.5v6.1c0 .4.1.6.3.7h1.2v1.3l-.6.1h-.6c-.7 0-1.2-.1-1.5-.5-.3-.4-.4-.9-.4-1.5V146h-1.3v-1.3h1.3V142Zm8 11c1 0 1.8-.4 2.1-1.2a6 6 0 0 0 .6-2.7c0-.8-.1-1.6-.4-2.1-.4-.9-1.2-1.3-2.3-1.3-1 0-1.7.4-2.1 1.1-.4.7-.7 1.6-.7 2.7 0 1 .3 1.8.7 2.5.4.6 1.1 1 2 1Zm0-8.7c1.3 0 2.3.4 3.1 1.2.9.8 1.3 2 1.3 3.6 0 1.5-.4 2.8-1.1 3.8-.8 1-2 1.4-3.5 1.4-1.3 0-2.3-.4-3-1.3-.8-.8-1.2-2-1.2-3.5 0-1.6.4-2.8 1.2-3.8a4 4 0 0 1 3.2-1.4Zm6 .3h1.5v1.6c0-.3.4-.7.9-1.1a2.3 2.3 0 0 1 1.8-.7h.3v1.7a2.2 2.2 0 0 0-.5 0c-.8 0-1.4.2-1.8.7-.5.5-.7 1.1-.7 1.8v5.4h-1.5v-9.4Zm11.4 0h1.8a600.6 600.6 0 0 0-3 8c-.9 2.5-1.5 4-1.9 4.5-.4.5-1 .8-2 .8a3.8 3.8 0 0 1-.9-.2v-1.4a5.7 5.7 0 0 0 1 .2c.2 0 .4 0 .6-.2l.3-.3.4-.8.3-1-3.4-9.6h1.8l2.5 7.7 2.5-7.7Zm1.8 7.5h1.9v1.9H486v-2Z"/>
  <g clip-path="url(#a)">
    <path fill="#41A5EE" d="m398.2 183.6-25.3 9.3c-.9.3-1.3 1.3-1 2.3l12.4 33.7c.3 1 1.3 1.5 2.2 1.2l25.3-9.3c.9-.4 1.3-1.4 1-2.3l-12.3-33.8c-.4-1-1.4-1.5-2.3-1.1Z"/>
    <path fill="#103F91" d="M384.3 229c.3.9 1.3 1.4 2.2 1l25.3-9.2c.9-.4 1.3-1.4 1-2.3l-2.8-7.6-28.5 10.4 2.8 7.6Z"/>
    <path fill="#41A5EE" d="M400.5 184.7c-.4-1-1.4-1.5-2.3-1.1l-25.3 9.3c-.9.3-1.3 1.3-1 2.3l2.8 7.5 28.5-10.4-2.7-7.6Z"/>
    <path fill="#2B7CD3" d="m403.2 192.3-28.5 10.4 3.4 9.3 28.5-10.4-3.4-9.3Z"/>
    <path fill="#185ABD" d="M406.6 201.6 378.1 212l3.4 9.3L410 211l-3.4-9.3Z"/>
    <path fill="url(#b)" d="M0 0h13.5v25.4H0z" style="mix-blend-mode:multiply" transform="matrix(1 -.3 .3 1 374.2 201.4)"/>
    <path fill="url(#c)" d="m383.2 198.6-15.9 5.8c-.9.3-1.3 1.3-1 2.3l6.3 17c.3 1 1.3 1.5 2.2 1.2l15.9-5.8c.9-.4 1.3-1.4 1-2.3l-6.3-17.1c-.3-1-1.3-1.5-2.2-1.1Z"/>
    <path fill="#fff" d="M381.5 204.5a1585.3 1585.3 0 0 0 1.8 9.6c-.3-.7-5.2-8.3-5.2-8.3l-2.2.8 1.4 9.7c-.3-.8-2-3.5-2-3.5l-3-5-2 .8 6.5 10.2 2.4-.9-1-7-.5-2.5 1.3 2.1 3.8 6 2.4-.8-1.6-12-2 .8Z"/>
  </g>
  <path fill="#2685FD" fill-rule="evenodd" d="m385.5 187.6 16.4-1.7 10.7 8.8 2.7 27a3 3 0 0 1-2.5 3l-23.3 2.3c-1.6.2-3-1-3-2.4l-3.5-34c-.2-1.5 1-2.8 2.5-3Z" clip-rule="evenodd"/>
  <path fill="#0166DA" fill-rule="evenodd" d="m402.8 195.7 9.8-1-10.7-8.8 1 9.8Z" clip-rule="evenodd"/>
  <path fill="#fff" fill-rule="evenodd" d="m390.4 202.4 16.5-1.7.3 2.2-16.6 1.6-.2-2Zm1 11 12-1.2.3 2-12 1.3-.2-2.1Zm-.5-5.5 16.6-1.7.2 2.1-16.6 1.7-.2-2Z" clip-rule="evenodd"/>
  <g clip-path="url(#d)">
    <path fill="#185C37" d="m440.7 188.7-29-1.6c-1 0-1.8.7-1.9 1.8l-2 37.8c-.2 1.1.6 2 1.6 2l29 1.7a2 2 0 0 0 2-1.8l2-37.9c.1-1-.7-2-1.7-2Z"/>
    <path fill="#21A366" d="m426.7 188-15-1c-1 0-1.8.8-1.9 2l-.5 8.4 16.8 1 .6-10.5Z"/>
    <path fill="#33C481" d="m442 199.2.4-8.5c0-1-.7-2-1.7-2l-14-.8-.6 10.4 15.9 1Z"/>
    <path fill="#107C41" d="m426.1 198.3-16.8-.9-.5 10.4 16.8 1 .5-10.5Z"/>
    <path fill="#21A366" d="m442 199.2-15.9-.9-.6 10.5 15.9.9.6-10.5Z"/>
    <path fill="#107C41" d="m441.4 209.7-15.8-1-.6 10.5 15.8.9.6-10.4Z"/>
    <path fill="url(#e)" d="M0 0h14.5v26.8H0z" style="mix-blend-mode:multiply" transform="translate(409.4 196)"/>
    <path fill="url(#f)" d="m419.5 197-18.2-1.1c-1 0-1.8.7-1.9 1.8l-1 19.2c-.1 1 .7 2 1.7 2l18.1 1a2 2 0 0 0 2-1.8l1-19.2c0-1-.7-2-1.7-2Z"/>
    <path fill="#fff" d="m410 206.5-2-5-2.9-.1 3.2 6.4-4.2 6 2.8.2 2.8-4.9 2.2 5.1 2.7.2-3.3-6.4 4-6-2.6-.2-2.8 4.7Z"/>
  </g>
  <path fill="#01AC46" fill-rule="evenodd" d="m426 188.3 15.8 5 6.4 12.3-8.2 25.8c-.5 1.4-2 2.2-3.5 1.7l-22.4-7c-1.4-.6-2.2-2-1.8-3.5l10.3-32.6c.5-1.4 2-2.2 3.5-1.7Z" clip-rule="evenodd"/>
  <path fill="#00852C" fill-rule="evenodd" d="m438.9 202.6 9.3 3-6.4-12.3-3 9.3Z" clip-rule="evenodd"/>
  <path fill="#fff" fill-rule="evenodd" d="m423.9 203.5 17.6 5.7-4 12.5L420 216l4-12.5Zm-.1 8.3 5.3 1.7-.8 2.6-5.3-1.7.8-2.6Zm1.6-5.2 5.4 1.7-.9 2.6-5.3-1.7.8-2.6Zm6 7.7 5.4 1.7-.9 2.6-5.3-1.7.9-2.6Zm1.7-5.2 5.3 1.7-.8 2.6-5.3-1.7.8-2.6Z" clip-rule="evenodd"/>
  <rect width="78" height="49" x="368" y="216" fill="url(#g)" stroke="#43B8EA" stroke-width=".5" rx="4"/>
  <path fill="#09F" d="M384.5 237.9H382l-.4-1c-.3-.4-.7-.6-1.3-.6-.9 0-1.4.4-1.8 1.3l-.2 1.7c0 .7 0 1.3.3 1.7.2.8.8 1.2 1.6 1.2.6 0 1-.1 1.3-.4.2-.4.4-.8.4-1.3h2.6c0 .8-.3 1.5-.8 2.2-.8 1-2 1.6-3.5 1.6-1.6 0-2.7-.4-3.4-1.3-.8-1-1.1-2.1-1.1-3.6 0-1.6.4-3 1.2-3.8.8-1 1.9-1.4 3.3-1.4a5 5 0 0 1 3 .8c.7.5 1.2 1.5 1.3 2.9Zm9.4-2.3c.8 1 1.2 2.2 1.2 3.6s-.4 2.6-1.2 3.6c-.8 1-2 1.5-3.7 1.5-1.7 0-2.9-.5-3.7-1.5-.8-1-1.2-2.2-1.2-3.6s.4-2.6 1.2-3.6c.8-1 2-1.5 3.7-1.5 1.6 0 2.9.5 3.7 1.5Zm-3.7.6a2 2 0 0 0-1.7.8c-.4.5-.6 1.3-.6 2.2 0 1 .2 1.7.6 2.3.4.5 1 .7 1.7.7a2 2 0 0 0 1.7-.7 4 4 0 0 0 .6-2.3c0-1-.2-1.7-.6-2.2a2 2 0 0 0-1.7-.8Zm10.8 0c-.8 0-1.4.4-1.7 1.2-.2.3-.3.8-.3 1.4v5.2h-2.4v-9.6h2.4v1.4a3.2 3.2 0 0 1 2.9-1.6c1 0 1.7.3 2.4.8.6.5 1 1.3 1 2.5v6.5h-2.7v-5.8c0-.5 0-1-.2-1.2-.2-.5-.7-.7-1.4-.7Zm10.6 6v1.9h-1.2c-1.2 0-2-.1-2.4-.6-.3-.3-.5-.7-.5-1.3v-6h-1.3v-1.7h1.3v-2.7h2.5v2.7h1.6v1.8H410v5c0 .4 0 .7.2.8l.9.1h.5Zm9.4-1c0 .6-.3 1.1-.9 1.7-.8 1-2 1.4-3.4 1.4-1.2 0-2.3-.4-3.2-1.2-1-.7-1.4-2-1.4-3.8 0-1.7.4-3 1.2-3.8.9-.9 2-1.3 3.3-1.3a5 5 0 0 1 2.1.4c.7.3 1.2.8 1.6 1.4.4.6.6 1.3.8 2v1.9h-6.5c0 1 .3 1.6.9 2 .3.3.7.4 1.2.4s1-.2 1.3-.5l.5-.6h2.5Zm-2.5-3a2 2 0 0 0-.6-1.5c-.3-.3-.8-.5-1.3-.5-.6 0-1 .2-1.4.6-.3.3-.5.8-.6 1.5h4Zm8.5-2c-.9 0-1.5.4-1.8 1.2l-.2 1.4v5.2h-2.5v-9.6h2.4v1.4c.3-.5.6-.8 1-1 .4-.4 1-.6 1.9-.6 1 0 1.8.3 2.4.8.6.5 1 1.3 1 2.5v6.5h-2.6v-5.8c0-.5 0-1-.2-1.2-.3-.5-.7-.7-1.4-.7Zm10.5 6v1.9h-1.2c-1.2 0-2-.1-2.4-.6-.3-.3-.4-.7-.4-1.3v-6H432v-1.7h1.4v-2.7h2.4v2.7h1.6v1.8h-1.6v5c0 .4 0 .7.2.8l1 .1h.4Z" opacity=".8"/>
  <circle cx="408.5" cy="50.5" r="14.5" fill="#000"/>
  <path fill="#fff" d="M409.7 46.4c-.3-.3-.7-.5-1.2-.5-.8 0-1.2.3-1.5.8a4 4 0 0 0-.3 1.5h-2.3c0-1 .3-1.9.6-2.5.6-1.2 1.7-1.8 3.4-1.8a5 5 0 0 1 3 1c.7.8 1.1 1.7 1.1 2.9 0 .9-.2 1.6-.8 2.3-.3.5-.9 1-1.7 1.6l-1 .6-1.2 1-.5.6h5.2V56h-8.2c0-.9.2-1.7.6-2.4.3-.8 1-1.6 2.3-2.5l2.2-1.7c.5-.5.7-1 .7-1.7 0-.5-.1-1-.4-1.3Z"/>
  <rect width="250" height="240" x="545" y="51" fill="#F6F6F6" rx="8"/>
  <path fill="#000" d="M574.1 80.6h3v11.8h7.2V95H574V80.6Zm14.5 3.8V95h-2.8V84.4h2.8Zm0-3.9v2.6h-2.8v-2.6h2.8Zm7.3 6c-1 0-1.6.3-2 1.1l-.2 1.6V95h-2.8V84.4h2.7v1.5c.4-.5.7-1 1-1.2.6-.4 1.3-.6 2.2-.6a4 4 0 0 1 2.7.9c.7.5 1 1.5 1 2.8V95h-2.8v-6.5c0-.5 0-1-.2-1.3-.3-.5-.8-.8-1.6-.8Zm16.6 8.5h-3.4l-2.5-4.6-1.2 1.3V95h-2.7V80.7h2.7v7.7l3.5-4h3.5l-3.8 4 3.9 6.6Zm16.5-1c-1 1-2.4 1.4-4.1 1.4-2 0-3.7-.7-4.9-2a8 8 0 0 1-1.8-5.5c0-2.5.7-4.4 2-5.8a6 6 0 0 1 4.5-1.8c2.5 0 4.2.8 5.3 2.4.7 1 1 1.8 1 2.7h-3a4 4 0 0 0-.7-1.6c-.6-.6-1.4-.9-2.5-.9-1 0-2 .4-2.5 1.3-.7 1-1 2.2-1 3.8 0 1.6.3 2.8 1 3.6.7.8 1.5 1.2 2.6 1.2a3 3 0 0 0 2.4-1c.3-.4.5-1 .7-1.7h3a7 7 0 0 1-2 3.8Zm12.6-8.3a6.2 6.2 0 0 1 1.3 4 6 6 0 0 1-1.3 4 5.2 5.2 0 0 1-4.1 1.7c-1.9 0-3.2-.6-4.1-1.7a6.2 6.2 0 0 1-1.4-4c0-1.5.5-2.9 1.4-4 .9-1.1 2.2-1.7 4-1.7 1.9 0 3.3.6 4.2 1.7Zm-4.1.7c-.8 0-1.5.3-2 .8a4 4 0 0 0-.6 2.5c0 1 .2 1.9.7 2.5.4.5 1 .8 1.9.8.8 0 1.4-.3 1.8-.8a4 4 0 0 0 .7-2.5 4 4 0 0 0-.7-2.5c-.4-.5-1-.8-1.8-.8Zm16.7-5.8V95h-2.7v-1.5a4 4 0 0 1-1.4 1.4c-.5.3-1.1.4-1.9.4a4 4 0 0 1-3.1-1.5 6 6 0 0 1-1.3-3.8c0-1.9.4-3.3 1.3-4.3.8-1 2-1.6 3.3-1.6a3.4 3.4 0 0 1 3 1.6v-5h2.8Zm-7.5 9.1c0 1 .2 1.8.6 2.4.4.6 1 .9 1.7.9a2 2 0 0 0 1.8-.9c.5-.6.7-1.3.7-2.3 0-1.3-.4-2.2-1-2.8-.4-.3-.9-.5-1.4-.5-.8 0-1.4.3-1.8 1-.4.6-.6 1.3-.6 2.2Zm18.8 2.2a4 4 0 0 1-1 1.9c-1 1-2.2 1.6-3.9 1.6-1.3 0-2.5-.5-3.5-1.4-1-.8-1.6-2.2-1.6-4.2 0-1.9.5-3.3 1.4-4.3 1-1 2.2-1.4 3.6-1.4 1 0 1.7.1 2.4.5.7.3 1.3.8 1.8 1.5.4.7.7 1.4.8 2.2v2.1h-7.2c0 1.1.4 1.9 1 2.3.4.3.9.4 1.4.4.6 0 1-.2 1.4-.5l.5-.7h2.9Zm-2.8-3.3c0-.7-.3-1.3-.7-1.7a2 2 0 0 0-1.5-.5 2 2 0 0 0-1.5.6 3 3 0 0 0-.6 1.6h4.3Zm14.4 4.4v2.1h-1.3c-1.3 0-2.2-.1-2.7-.6-.3-.4-.5-.8-.5-1.5v-6.6h-1.5v-2h1.5v-3h2.8v3h1.7v2h-1.7v5.7c0 .4 0 .7.2.8l1 .1h.5Zm10.3-7.3a6.2 6.2 0 0 1 1.3 4 6 6 0 0 1-1.3 4 5.2 5.2 0 0 1-4.1 1.7c-1.8 0-3.2-.6-4.1-1.7a6.2 6.2 0 0 1-1.4-4c0-1.5.5-2.9 1.4-4a5 5 0 0 1 4-1.7c2 0 3.3.6 4.2 1.7Zm-4.1.7c-.8 0-1.5.3-2 .8a4 4 0 0 0-.6 2.5c0 1 .3 1.9.7 2.5.4.5 1 .8 1.9.8.8 0 1.4-.3 1.9-.8a4 4 0 0 0 .6-2.5 4 4 0 0 0-.6-2.5c-.5-.5-1.1-.8-2-.8Zm22.6 7.5a6 6 0 0 1-4.1 1.5c-2.1 0-3.7-.7-5-2a8 8 0 0 1-1.7-5.5c0-2.5.7-4.4 2-5.8a6 6 0 0 1 4.5-1.8c2.4 0 4.2.8 5.3 2.4.6 1 1 1.8 1 2.7h-3a4 4 0 0 0-.8-1.6c-.5-.6-1.3-.9-2.4-.9-1 0-2 .4-2.6 1.3-.6 1-1 2.2-1 3.8a6 6 0 0 0 1 3.6c.7.8 1.6 1.2 2.6 1.2s1.9-.3 2.4-1c.3-.4.6-1 .8-1.7h3a7 7 0 0 1-2 3.8Zm12.5-8.2a6.2 6.2 0 0 1 1.4 4 6 6 0 0 1-1.4 4c-.9 1.1-2.2 1.7-4 1.7-1.9 0-3.3-.6-4.2-1.7a6.2 6.2 0 0 1-1.3-4c0-1.5.4-2.9 1.3-4 1-1.1 2.3-1.7 4.1-1.7 1.9 0 3.2.6 4.1 1.7Zm-4 .7c-.9 0-1.5.3-2 .8a4 4 0 0 0-.6 2.5c0 1 .2 1.9.6 2.5.5.5 1.1.8 2 .8.7 0 1.4-.3 1.8-.8a4 4 0 0 0 .7-2.5 4 4 0 0 0-.7-2.5c-.4-.5-1-.8-1.9-.8Zm12 0c-1 0-1.6.4-2 1.2l-.2 1.6V95h-2.8V84.4h2.7v1.5c.3-.5.7-1 1-1.2.6-.4 1.3-.6 2.2-.6a4 4 0 0 1 2.7.9c.7.5 1 1.5 1 2.8V95h-2.8v-6.5c0-.5-.1-1-.3-1.3-.2-.5-.7-.8-1.5-.8ZM738 93v2.1h-1.3c-1.4 0-2.3-.1-2.7-.6-.4-.4-.5-.8-.5-1.5v-6.6H732v-2h1.5v-3h2.7v3h1.8v2h-1.8v5.7l.2.8 1 .1h.6Zm10.5-1.1a4 4 0 0 1-1 1.9c-1 1-2.2 1.6-3.8 1.6-1.4 0-2.6-.5-3.6-1.4-1-.8-1.6-2.2-1.6-4.2 0-1.9.5-3.3 1.4-4.3 1-1 2.2-1.4 3.7-1.4.8 0 1.6.1 2.4.5a4 4 0 0 1 1.7 1.5c.4.7.7 1.4.8 2.2l.1 2.1h-7.3c0 1.1.4 1.9 1 2.3.4.3.9.4 1.4.4.6 0 1-.2 1.4-.5l.5-.7h2.9Zm-2.8-3.3c0-.7-.3-1.3-.7-1.7a2 2 0 0 0-1.4-.5 2 2 0 0 0-1.5.6 3 3 0 0 0-.7 1.6h4.3Zm9.4-2.2c-1 0-1.6.4-2 1.2l-.2 1.6V95h-2.8V84.4h2.7v1.5c.4-.5.7-1 1-1.2.6-.4 1.3-.6 2.2-.6a4 4 0 0 1 2.7.9c.7.5 1 1.5 1 2.8V95H757v-6.5c0-.5 0-1-.2-1.3-.3-.5-.8-.8-1.6-.8Zm11.7 6.6v2.1h-1.3c-1.3 0-2.2-.1-2.7-.6-.3-.4-.5-.8-.5-1.5v-6.6H761v-2h1.5v-3h2.8v3h1.7v2h-1.7v5.7l.1.8 1 .1h.6Z"/>
  <path fill="#2B2B2B" d="m569.4 125.7-2-5.7-2 5.7h4Zm-3-7.6h2l4.8 12.9h-2l-1.3-3.9h-5l-1.5 3.9h-1.8l4.9-13Zm8.8 8.3c0 1 .2 1.9.6 2.5.4.7 1.1 1 2 1 .8 0 1.4-.3 1.9-.9.4-.6.7-1.5.7-2.7 0-1.2-.3-2-.7-2.6a2.4 2.4 0 0 0-3.7 0c-.6.6-.8 1.5-.8 2.7Zm2.4-5c.7 0 1.3.2 1.8.5l1 .9V118h1.4v13h-1.4v-1.3c-.3.6-.8 1-1.3 1.2a3 3 0 0 1-1.7.4c-1 0-2-.4-2.7-1.3a5 5 0 0 1-1.2-3.5 6 6 0 0 1 1-3.6c.8-1 1.8-1.5 3-1.5Zm7.2 5c0 1 .2 1.9.7 2.5.4.7 1 1 2 1a2 2 0 0 0 1.8-.9c.5-.6.7-1.5.7-2.7 0-1.2-.2-2-.7-2.6-.5-.6-1-.9-1.8-.9s-1.4.3-2 1c-.4.5-.7 1.4-.7 2.6Zm2.4-5c.7 0 1.3.2 1.8.5l1 .9V118h1.5v13h-1.4v-1.3a3 3 0 0 1-1.3 1.2c-.5.3-1.1.4-1.8.4-1 0-2-.4-2.7-1.3-.8-.9-1.1-2-1.1-3.5a6 6 0 0 1 1-3.6c.7-1 1.7-1.5 3-1.5Zm16.8.2h1.8a531 531 0 0 0-3 8c-.9 2.5-1.5 4-1.9 4.5-.4.5-1 .8-2 .8a3.8 3.8 0 0 1-.9-.2v-1.4a5.6 5.6 0 0 0 1 .2c.2 0 .4 0 .6-.2l.3-.3.4-.8.3-1-3.4-9.6h1.8l2.5 7.7 2.5-7.7Zm6.5 8.4c1 0 1.8-.4 2.2-1.2a6 6 0 0 0 .6-2.7c0-.8-.2-1.6-.5-2.1-.4-.9-1.2-1.3-2.3-1.3-1 0-1.6.4-2 1.1-.5.7-.7 1.6-.7 2.7 0 1 .2 1.8.6 2.5.5.6 1.2 1 2.1 1Zm0-8.7c1.3 0 2.3.4 3.2 1.2.8.8 1.2 2 1.2 3.6 0 1.5-.4 2.8-1.1 3.8-.7 1-1.9 1.4-3.4 1.4-1.3 0-2.4-.4-3.1-1.3-.8-.8-1.2-2-1.2-3.5 0-1.6.4-2.8 1.2-3.8a4 4 0 0 1 3.3-1.4Zm7.5.3v6.2c0 .5.1 1 .3 1.2.2.6.8.9 1.5.9 1.1 0 1.9-.5 2.3-1.5.2-.5.3-1.3.3-2.2v-4.6h1.6v9.4h-1.5v-1.4l-.8 1c-.6.4-1.3.7-2.2.7-1.3 0-2.2-.5-2.7-1.4a4 4 0 0 1-.4-2v-6.3h1.6Zm8.1 0h1.5v1.6c.2-.3.5-.7 1-1.1a2.3 2.3 0 0 1 1.8-.7h.3v1.7a2.3 2.3 0 0 0-.5 0c-.8 0-1.4.2-1.8.7-.5.5-.7 1.1-.7 1.8v5.4h-1.6v-9.4Zm14-.3c1 0 1.8.3 2.5.8s1 1.4 1.2 2.7h-1.5c-.1-.6-.3-1.1-.7-1.5-.3-.4-.8-.6-1.6-.6-1 0-1.7.5-2.1 1.5-.3.6-.5 1.4-.5 2.4s.2 1.7.6 2.4c.4.6 1 1 2 1a2 2 0 0 0 1.5-.7c.4-.4.6-1 .8-1.6h1.5c-.2 1.2-.6 2.1-1.3 2.7a4 4 0 0 1-2.7.9c-1.2 0-2.2-.5-3-1.4-.7-.9-1-2-1-3.3 0-1.7.3-3 1.1-4 .9-.8 1.9-1.3 3.1-1.3Zm8.7 8.7c1 0 1.7-.4 2.1-1.2a6 6 0 0 0 .6-2.7c0-.8-.1-1.6-.4-2.1-.5-.9-1.2-1.3-2.3-1.3-1 0-1.7.4-2.1 1.1-.5.7-.7 1.6-.7 2.7 0 1 .2 1.8.7 2.5.4.6 1.1 1 2 1Zm0-8.7c1.2 0 2.3.4 3.1 1.2a5 5 0 0 1 1.3 3.6 6 6 0 0 1-1.2 3.8c-.7 1-1.8 1.4-3.4 1.4-1.3 0-2.3-.4-3-1.3-.8-.8-1.2-2-1.2-3.5 0-1.6.4-2.8 1.2-3.8a4 4 0 0 1 3.2-1.4Zm5.9.3h1.5v1.3c.4-.5.9-1 1.4-1.2.5-.2 1-.3 1.7-.3 1.3 0 2.2.4 2.7 1.4.2.5.4 1.2.4 2.2v6h-1.7v-6c0-.5 0-1-.2-1.3-.3-.6-.8-.9-1.5-.9l-1 .1c-.4.1-.8.4-1.1.8a2 2 0 0 0-.5 1l-.1 1.4v4.9h-1.6v-9.4Zm10-2.6h1.6v2.6h1.5v1.3h-1.5v6.1c0 .4 0 .6.3.7h1.2v1.3l-.6.1h-.6c-.8 0-1.3-.1-1.5-.5-.3-.4-.4-.9-.4-1.5V123h-1.3v-1.3h1.3V119Zm8.2 2.4a4.3 4.3 0 0 1 3.4 1.7c.3.4.5 1 .6 1.6l.2 2.1h-7c0 1 .3 1.7.7 2.3.5.6 1.1.9 2 .9a2.5 2.5 0 0 0 2.6-2h1.5c0 .4-.1.8-.4 1.2a3.7 3.7 0 0 1-2.6 2l-1.2.1a4 4 0 0 1-3-1.2 5 5 0 0 1-1.2-3.6c0-1.5.4-2.8 1.2-3.7a4 4 0 0 1 3.2-1.4Zm2.5 4.1c0-.6-.2-1.2-.4-1.6-.4-.8-1.2-1.1-2.2-1.1-.7 0-1.3.2-1.8.7a3 3 0 0 0-.8 2h5.2Zm3.3-4h1.5v1.4c.4-.5.9-1 1.4-1.2.5-.2 1-.3 1.6-.3 1.4 0 2.3.4 2.7 1.4.3.5.4 1.2.4 2.2v6h-1.6v-6c0-.5 0-1-.2-1.3-.3-.6-.8-.9-1.6-.9l-.9.1c-.4.1-.8.4-1.1.8a2 2 0 0 0-.6 1v6.3h-1.6v-9.4Zm10-2.5h1.5v2.6h1.5v1.3h-1.5v6.1c0 .4.1.6.4.7h1.1v1.3l-.5.1h-.7c-.7 0-1.2-.1-1.5-.5-.2-.4-.4-.9-.4-1.5V123h-1.2v-1.3h1.2V119Zm9.3 1.2c0-.7.1-1.2.4-1.5.3-.5 1-.8 2-.8a5.4 5.4 0 0 1 .8 0v1.5a5.5 5.5 0 0 0-.6 0c-.5 0-.8 0-.9.3l-.1 2h1.6v1.2h-1.6v8.1H698v-8.1h-1.3v-1.3h1.3v-1.4Zm8 9.8c1 0 1.8-.4 2.2-1.2a6 6 0 0 0 .5-2.7c0-.8-.1-1.6-.4-2.1-.4-.9-1.2-1.3-2.3-1.3-1 0-1.7.4-2.1 1.1-.4.7-.7 1.6-.7 2.7 0 1 .3 1.8.7 2.5.4.6 1.1 1 2.1 1Zm0-8.7c1.3 0 2.3.4 3.1 1.2.9.8 1.3 2 1.3 3.6 0 1.5-.4 2.8-1.1 3.8-.8 1-1.9 1.4-3.5 1.4-1.2 0-2.3-.4-3-1.3-.8-.8-1.2-2-1.2-3.5 0-1.6.4-2.8 1.2-3.8a4 4 0 0 1 3.3-1.4Zm6-3.2h1.5V131H712v-13Zm4.6 8.3c0 1 .2 1.9.6 2.5.4.7 1.1 1 2 1 .8 0 1.4-.3 1.9-.9.4-.6.7-1.5.7-2.7 0-1.2-.3-2-.7-2.6a2.4 2.4 0 0 0-3.7 0c-.6.6-.8 1.5-.8 2.7Zm2.4-5c.7 0 1.3.2 1.8.5l1 .9V118h1.4v13h-1.4v-1.3a3 3 0 0 1-1.3 1.2 3 3 0 0 1-1.7.4c-1 0-2-.4-2.7-1.3a5 5 0 0 1-1.2-3.5 6 6 0 0 1 1-3.6c.8-1 1.8-1.5 3-1.5Zm10.1 0a4.3 4.3 0 0 1 3.4 1.7c.3.4.6 1 .7 1.6l.1 2.1h-6.9c0 1 .3 1.7.7 2.3.4.6 1 .9 2 .9a2.5 2.5 0 0 0 2.5-2h1.6c0 .4-.2.8-.4 1.2a3.7 3.7 0 0 1-2.6 2l-1.3.1a4 4 0 0 1-3-1.2 5 5 0 0 1-1.2-3.6c0-1.5.4-2.8 1.2-3.7a4 4 0 0 1 3.2-1.4Zm2.6 4.1c0-.6-.2-1.2-.5-1.6-.4-.8-1.1-1.1-2.1-1.1-.8 0-1.4.2-1.9.7a3 3 0 0 0-.8 2h5.3Zm3.2-4h1.5v1.7c.2-.3.5-.7 1-1.1a2.3 2.3 0 0 1 1.8-.7h.3v1.7a2.2 2.2 0 0 0-.5 0c-.8 0-1.4.2-1.8.7-.5.5-.7 1.1-.7 1.8v5.4H735v-9.4Zm12.4-3.4v8c0 1 .2 1.7.5 2.3.5 1 1.4 1.4 2.6 1.4 1.5 0 2.5-.5 3-1.5.4-.6.5-1.3.5-2.2v-8h1.8v7.2c0 1.6-.2 2.8-.7 3.7-.8 1.6-2.2 2.3-4.4 2.3s-3.7-.7-4.5-2.3c-.4-.9-.6-2-.6-3.7v-7.2h1.8ZM764 124c.9 0 1.5-.2 2-.5s.7-1 .7-1.8c0-.9-.3-1.5-1-1.8-.4-.2-.8-.3-1.4-.3H760v4.4h4Zm-5.8-6h6c1 0 1.8.2 2.5.5 1.2.6 1.8 1.6 1.8 3 0 .8-.2 1.5-.5 2s-.8.9-1.3 1.2c.5.2.8.4 1 .8.3.3.5.8.5 1.6v1.7l.2 1.1c.1.4.3.7.6.8v.3h-2.2l-.1-.4-.1-1-.1-2.2c0-.8-.4-1.4-1-1.7-.3-.2-.8-.2-1.5-.2h-4v5.5h-1.8v-13Zm12.5 0h1.7v11.5h6.6v1.5h-8.3v-13Zm-188.5 24h1.6v2.6h1.5v1.3h-1.5v6.1c0 .4 0 .6.3.7h1.2v1.3l-.6.1h-.6c-.8 0-1.3-.1-1.5-.5-.3-.4-.4-.9-.4-1.5V146h-1.3v-1.3h1.3V142Zm8 11c1 0 1.8-.4 2.2-1.2a6 6 0 0 0 .6-2.7 6 6 0 0 0-.4-2.1c-.5-.9-1.3-1.3-2.4-1.3-1 0-1.6.4-2 1.1-.5.7-.7 1.6-.7 2.7 0 1 .2 1.8.6 2.5.5.6 1.2 1 2.1 1Zm0-8.7c1.3 0 2.3.4 3.2 1.2.8.8 1.2 2 1.2 3.6 0 1.5-.3 2.8-1 3.8-.8 1-2 1.4-3.5 1.4-1.3 0-2.3-.4-3.1-1.3-.8-.8-1.1-2-1.1-3.5 0-1.6.4-2.8 1.2-3.8a4 4 0 0 1 3.2-1.4Zm16.5.3h1.7a504.3 504.3 0 0 0-2.9 8c-1 2.5-1.6 4-2 4.5-.3.5-1 .8-1.9.8a3.8 3.8 0 0 1-1-.2v-1.4a5.6 5.6 0 0 0 1 .2c.3 0 .5 0 .6-.2.2 0 .3-.2.4-.3l.3-.8.4-1-3.5-9.6h1.8l2.5 7.7 2.6-7.7Zm6.5 8.4c1 0 1.7-.4 2.1-1.2a6 6 0 0 0 .6-2.7c0-.8-.1-1.6-.4-2.1-.4-.9-1.2-1.3-2.3-1.3-1 0-1.7.4-2.1 1.1-.5.7-.7 1.6-.7 2.7 0 1 .2 1.8.7 2.5.4.6 1.1 1 2 1Zm0-8.7c1.3 0 2.3.4 3.1 1.2.9.8 1.3 2 1.3 3.6 0 1.5-.4 2.8-1.1 3.8-.8 1-2 1.4-3.5 1.4-1.3 0-2.3-.4-3-1.3-.8-.8-1.2-2-1.2-3.5 0-1.6.4-2.8 1.2-3.8a4 4 0 0 1 3.2-1.4Zm7.5.3v6.2c0 .5 0 1 .2 1.2.3.6.8.9 1.6.9 1 0 1.8-.5 2.2-1.5.3-.5.4-1.3.4-2.2v-4.6h1.5v9.4h-1.4v-1.4l-.8 1c-.6.4-1.3.7-2.2.7-1.3 0-2.2-.5-2.7-1.4a4 4 0 0 1-.4-2v-6.3h1.6Zm8.1 0h1.5v1.6c.1-.3.4-.7 1-1.1a2.3 2.3 0 0 1 1.7-.7h.4v1.7a2.3 2.3 0 0 0-.5 0c-.8 0-1.4.2-1.9.7-.4.5-.6 1.1-.6 1.8v5.4h-1.6v-9.4Zm13.9-.3c1 0 1.9.3 2.6.8.6.5 1 1.4 1.2 2.7h-1.6c0-.6-.3-1.1-.6-1.5-.3-.4-.9-.6-1.6-.6-1 0-1.8.5-2.2 1.5-.3.6-.4 1.4-.4 2.4s.2 1.7.6 2.4c.4.6 1 1 1.9 1a2 2 0 0 0 1.5-.7c.4-.4.7-1 .8-1.6h1.6c-.2 1.2-.6 2.1-1.4 2.7a4 4 0 0 1-2.7.9c-1.2 0-2.2-.5-2.9-1.4-.7-.9-1-2-1-3.3 0-1.7.3-3 1.1-4 .8-.8 1.8-1.3 3-1.3Zm8.7 8.7c1 0 1.8-.4 2.2-1.2a6 6 0 0 0 .6-2.7c0-.8-.2-1.6-.5-2.1-.4-.9-1.2-1.3-2.3-1.3-1 0-1.6.4-2 1.1-.5.7-.7 1.6-.7 2.7 0 1 .2 1.8.6 2.5.5.6 1.2 1 2.1 1Zm0-8.7c1.3 0 2.3.4 3.2 1.2.8.8 1.2 2 1.2 3.6 0 1.5-.4 2.8-1 3.8-.8 1-2 1.4-3.5 1.4-1.3 0-2.3-.4-3.1-1.3-.8-.8-1.2-2-1.2-3.5 0-1.6.4-2.8 1.3-3.8a4 4 0 0 1 3.2-1.4Zm7 5.1c0 1 .2 1.9.6 2.5.4.7 1.1 1 2 1 .8 0 1.4-.3 1.9-.9.4-.6.7-1.5.7-2.7 0-1.2-.3-2-.8-2.6-.5-.6-1-.9-1.8-.9s-1.4.3-2 1c-.4.5-.6 1.4-.6 2.6Zm2.3-5a3 3 0 0 1 1.8.5l1 .9V141h1.5v13h-1.4v-1.3a3 3 0 0 1-1.3 1.2 3 3 0 0 1-1.7.4c-1 0-2-.4-2.8-1.3-.7-.9-1.1-2-1.1-3.5a6 6 0 0 1 1-3.6c.7-1 1.7-1.5 3-1.5Zm10.2 0a4.2 4.2 0 0 1 3.4 1.7c.3.4.5 1 .6 1.6l.2 2.1h-7a4 4 0 0 0 .8 2.3c.4.6 1 .9 2 .9a2.5 2.5 0 0 0 2.5-2h1.5c0 .4-.1.8-.4 1.2a3.7 3.7 0 0 1-2.6 2l-1.2.1a4 4 0 0 1-3-1.2 5 5 0 0 1-1.2-3.6c0-1.5.4-2.8 1.2-3.7a4 4 0 0 1 3.2-1.4Zm2.6 4.1-.5-1.6c-.4-.8-1.2-1.1-2.2-1.1-.7 0-1.3.2-1.8.7a3 3 0 0 0-.8 2h5.3Zm7.9-4h1.5v1.7c0-.3.4-.7.9-1.1a2.3 2.3 0 0 1 1.8-.7h.3v1.7a2.2 2.2 0 0 0-.5 0c-.8 0-1.4.2-1.8.7-.4.5-.7 1.1-.7 1.8v5.4h-1.5v-9.4Zm9.5-.1a4.3 4.3 0 0 1 3.3 1.7c.4.4.6 1 .7 1.6l.1 2.1h-6.9c0 1 .3 1.7.7 2.3.4.6 1 .9 2 .9a2.5 2.5 0 0 0 2.5-2h1.6c0 .4-.2.8-.4 1.2a3.7 3.7 0 0 1-2.6 2l-1.3.1a4 4 0 0 1-3-1.2 5 5 0 0 1-1.2-3.6 5 5 0 0 1 1.3-3.7 4 4 0 0 1 3.2-1.4Zm2.5 4.1c0-.6-.2-1.2-.5-1.6-.4-.8-1.1-1.1-2.1-1.1-.8 0-1.4.2-1.9.7a3 3 0 0 0-.7 2h5.2Zm7.2 4.4c.7 0 1.3-.3 1.8-.9.5-.6.8-1.5.8-2.8 0-.7-.2-1.4-.4-1.9-.4-1-1.1-1.6-2.2-1.6s-1.9.6-2.3 1.7a6.5 6.5 0 0 0 0 4c.4 1 1.2 1.5 2.3 1.5Zm-4.1-8.3h1.5v1.3l1-1c.6-.4 1.2-.5 2-.5 1 0 2 .4 2.7 1.2.7.8 1 2 1 3.5 0 2-.5 3.5-1.5 4.4a4 4 0 0 1-2.4.8c-.7 0-1.3-.1-1.8-.4l-1-1v4.9h-1.5v-13.2ZM710 153c1 0 1.8-.4 2.2-1.2a6 6 0 0 0 .5-2.7c0-.8 0-1.6-.4-2.1-.4-.9-1.2-1.3-2.3-1.3-1 0-1.6.4-2 1.1-.5.7-.7 1.6-.7 2.7 0 1 .2 1.8.6 2.5.5.6 1.1 1 2.1 1Zm0-8.7c1.3 0 2.3.4 3.1 1.2.9.8 1.3 2 1.3 3.6 0 1.5-.4 2.8-1.1 3.8-.7 1-1.9 1.4-3.4 1.4-1.3 0-2.4-.4-3.1-1.3-.8-.8-1.2-2-1.2-3.5 0-1.6.4-2.8 1.2-3.8a4 4 0 0 1 3.3-1.4Zm6.9 6.7c0 .6.1 1 .4 1.3.4.5 1 .7 2 .7a3 3 0 0 0 1.6-.4c.4-.2.7-.6.7-1.1a1 1 0 0 0-.6-1l-1.3-.4-1.3-.3c-.8-.2-1.4-.4-1.8-.7a2 2 0 0 1-1-1.8c0-.9.3-1.6 1-2.1.6-.6 1.5-.9 2.6-.9 1.4 0 2.4.5 3 1.3.4.5.6 1 .6 1.7h-1.5c0-.4-.1-.7-.4-1-.3-.4-1-.6-1.9-.6-.6 0-1 .1-1.3.3a1 1 0 0 0-.5 1c0 .4.2.7.6 1l1 .3 1.1.3c1.1.2 2 .5 2.3.8.6.4 1 1 1 1.9a3 3 0 0 1-1 2.1c-.7.7-1.6 1-3 1-1.3 0-2.3-.4-3-1-.5-.6-.8-1.4-.9-2.4h1.6Zm7.7-6.4h1.6v9.4h-1.6v-9.4Zm0-3.5h1.6v1.8h-1.6V141Zm4 .9h1.5v2.6h1.5v1.3h-1.5v6.1c0 .4.1.6.4.7h1.1v1.3l-.5.1h-.7c-.7 0-1.2-.1-1.5-.5-.2-.4-.4-.9-.4-1.5V146h-1.2v-1.3h1.2V142Zm8 11c1 0 1.8-.4 2.2-1.2a6 6 0 0 0 .5-2.7c0-.8-.1-1.6-.4-2.1-.4-.9-1.2-1.3-2.3-1.3-1 0-1.6.4-2 1.1-.5.7-.7 1.6-.7 2.7 0 1 .2 1.8.6 2.5.5.6 1.1 1 2.1 1Zm0-8.7c1.3 0 2.3.4 3.1 1.2.9.8 1.3 2 1.3 3.6 0 1.5-.4 2.8-1.1 3.8-.7 1-1.9 1.4-3.4 1.4-1.3 0-2.4-.4-3.1-1.3-.8-.8-1.2-2-1.2-3.5 0-1.6.4-2.8 1.2-3.8a4 4 0 0 1 3.3-1.4Zm6 .3h1.5v1.6c.1-.3.4-.7.9-1.1a2.3 2.3 0 0 1 1.8-.7h.3v1.7a2.2 2.2 0 0 0-.5 0c-.8 0-1.4.2-1.8.7-.4.5-.6 1.1-.6 1.8v5.4h-1.6v-9.4Zm11.4 0h1.8a600.6 600.6 0 0 0-3 8c-.9 2.5-1.5 4-1.9 4.5-.3.5-1 .8-1.9.8a3.8 3.8 0 0 1-1-.2v-1.4a5.7 5.7 0 0 0 1 .2c.3 0 .5 0 .6-.2l.4-.3s0-.3.3-.8l.4-1-3.5-9.6h1.8l2.5 7.7 2.5-7.7Zm1.8 7.5h1.9v1.9h-1.9v-2Z"/>
  <path fill="#000" fill-rule="evenodd" d="M651.5 241a1 1 0 0 1-1-1v-9.2l-4.7-8.5a1 1 0 0 1 .4-1.5 1 1 0 0 1 1.4.4l4 7.2 4-7.2a1 1 0 0 1 1.3-.4c.5.3.6 1 .4 1.5l-4.7 8.5v9.2c-.2.6-.6 1-1.1 1Zm26 0c-.6 0-1-.4-1-1v-15.7L671 230a1 1 0 0 1-1.4 0l-5.7-5.7V240c0 .5-.4 1-1 1a1 1 0 0 1-1-1v-18.4c0-.4.3-.7.7-.9.4-.2.9 0 1.1.2l6.7 6.9 6.7-6.9c.3-.3.7-.4 1.1-.2.3.2.6.5.6 1V240c-.3.6-.7 1-1.2 1Zm15.5 0h-8.5a1 1 0 0 1-1-1v-18.3c0-.5.5-1 1-1s1 .5 1 1V239h7.5c.5 0 1 .4 1 1 0 .5-.5 1-1 1Zm1.7 24H645a3.5 3.5 0 0 1-3.4-3.6v-15c0-.5.4-1 1-1 .5 0 .9.5.9 1v15c0 .8.6 1.5 1.4 1.5h49.7c.9 0 1.5-.7 1.5-1.5v-15c0-.5.4-1 1-1 .5 0 .9.5.9 1v15c0 2-1.4 3.6-3.3 3.6Zm2.4-48.7a1 1 0 0 1-1-1v-10.4l-12.3-12.8H645c-.8 0-1.4.7-1.4 1.5v21.7c0 .6-.4 1-1 1s-1-.4-1-1v-21.7c0-2 1.6-3.6 3.5-3.6h39.3c.3 0 .5.2.6.3l13 13.5c.2.2.2.4.2.7v10.8c-.1.6-.5 1-1 1Z" clip-rule="evenodd"/>
  <path fill="#000" fill-rule="evenodd" d="M697.1 205.5h-11c-1.5 0-2.8-1.4-2.8-3V191c0-.4.2-.8.6-1 .3 0 .8 0 1.1.3l12.9 13.5c.3.3.3.7.2 1.1-.2.4-.6.6-1 .6Zm-11.9-12v9c0 .5.5.9 1 .9h8.5l-9.5-9.9Zm14 54h-58.7c-2 0-3.5-1.6-3.5-3.5v-26.1c0-2 1.6-3.6 3.5-3.6h58.7c2 0 3.4 1.7 3.4 3.6v26c.1 2-1.5 3.6-3.4 3.6Zm-58.7-31.2c-.9 0-1.5.8-1.5 1.5v26c0 1 .7 1.6 1.5 1.6h58.7c.8 0 1.4-.7 1.4-1.5v-26c0-.8-.7-1.5-1.4-1.5h-58.7Zm34.6-7h-23.5a1 1 0 0 1-1-1v-8.8c0-.6.4-1 1-1h23.5c.6 0 1 .4 1 1v8.7c0 .6-.4 1-1 1Zm-22.5-2.1h21.6v-6.8h-21.6v6.8Zm36.4 45.3h-9c-.5 0-1-.4-1-1s.5-1 1-1h8.9c.5 0 1 .4 1 1s-.5 1-1 1Zm-13.4 0h-6.8c-.6 0-1-.4-1-1s.4-1 1-1h6.8c.6 0 1 .4 1 1s-.4 1-1 1Zm-11.3 0h-13.6c-.6 0-1-.4-1-1s.4-1 1-1h13.6c.5 0 .9.4.9 1s-.4 1-1 1Zm24.7 6.2h-6a1 1 0 0 1-1-1c0-.6.5-1 1-1h5.9c.5 0 1 .4 1 1 0 .5-.5 1-1 1Zm-10.5 0h-11a1 1 0 0 1-1-1c0-.6.5-1 1-1h11c.6 0 1 .4 1 1 0 .5-.4 1-1 1Zm-15.5 0h-12.4c-.5 0-.9-.5-.9-1 0-.6.4-1 1-1H663c.6 0 1 .4 1 1 0 .5-.4 1-1 1Z" clip-rule="evenodd"/>
  <circle cx="670.5" cy="50.5" r="14.5" fill="#000"/>
  <path fill="#fff" d="M669 46.4c-.2.3-.4.8-.4 1.4h-2.2c0-.6.2-1.2.3-1.7.2-.5.5-1 1-1.3l1-.7 1.6-.2c1.2 0 2.1.3 2.8.9a3 3 0 0 1 1 2.4c0 .7-.1 1.3-.6 1.8-.2.3-.5.5-.8.6.2 0 .5.2 1 .6.5.5.8 1.3.8 2.3 0 1-.3 1.9-1 2.6-.7.8-1.8 1.2-3.1 1.2-1.8 0-3-.6-3.6-1.7a5 5 0 0 1-.6-2.3h2.3c0 .5.1.9.3 1.2.3.6.8.9 1.5.9.5 0 1-.2 1.3-.5.3-.3.5-.8.5-1.4 0-.8-.3-1.3-1-1.6l-1.7-.2V49c.8 0 1.3 0 1.6-.2.5-.2.8-.7.8-1.4 0-.5-.1-.8-.4-1.1-.3-.3-.7-.5-1.1-.5-.6 0-1 .2-1.3.6Z"/>
  <rect width="250" height="240" x="807" y="51" fill="#F6F6F6" rx="8"/>
  <path fill="#000" d="M836.1 80.6h3v11.8h7.2V95H836V80.6Zm14.5 3.8V95h-2.8V84.4h2.8Zm0-3.9v2.6h-2.8v-2.6h2.8Zm7.3 6c-1 0-1.6.3-2 1.1l-.2 1.6V95h-2.8V84.4h2.7v1.5c.4-.5.7-1 1-1.2.6-.4 1.3-.6 2.2-.6a4 4 0 0 1 2.7.9c.7.5 1 1.5 1 2.8V95h-2.8v-6.5c0-.5 0-1-.2-1.3-.3-.5-.8-.8-1.6-.8Zm16.6 8.5h-3.4l-2.5-4.6-1.2 1.3V95h-2.7V80.7h2.7v7.7l3.5-4h3.5l-3.8 4 3.9 6.6Zm16.5-1c-1 1-2.4 1.4-4.1 1.4-2 0-3.7-.7-4.9-2a8 8 0 0 1-1.8-5.5c0-2.5.7-4.4 2-5.8a6 6 0 0 1 4.5-1.8c2.5 0 4.2.8 5.3 2.4.7 1 1 1.8 1 2.7h-3a4 4 0 0 0-.7-1.6c-.6-.6-1.4-.9-2.5-.9-1 0-2 .4-2.5 1.3-.7 1-1 2.2-1 3.8 0 1.6.3 2.8 1 3.6.7.8 1.5 1.2 2.6 1.2a3 3 0 0 0 2.4-1c.3-.4.5-1 .7-1.7h3a7 7 0 0 1-2 3.8Zm12.6-8.3a6.2 6.2 0 0 1 1.3 4 6 6 0 0 1-1.3 4 5.2 5.2 0 0 1-4.1 1.7c-1.9 0-3.2-.6-4.1-1.7a6.2 6.2 0 0 1-1.4-4c0-1.5.5-2.9 1.4-4 .9-1.1 2.2-1.7 4-1.7 1.9 0 3.3.6 4.2 1.7Zm-4.1.7c-.8 0-1.5.3-2 .8a4 4 0 0 0-.6 2.5c0 1 .2 1.9.7 2.5.4.5 1 .8 1.9.8.8 0 1.4-.3 1.8-.8a4 4 0 0 0 .7-2.5 4 4 0 0 0-.7-2.5c-.4-.5-1-.8-1.8-.8Zm12 0c-1 0-1.6.4-2 1.2l-.2 1.6V95h-2.8V84.4h2.7v1.5c.4-.5.7-1 1-1.2.6-.4 1.3-.6 2.2-.6a4 4 0 0 1 2.7.9c.7.5 1 1.5 1 2.8V95h-2.8v-6.5c0-.5 0-1-.2-1.3-.3-.5-.8-.8-1.6-.8Zm11.7 6.6v2.1H922c-1.3 0-2.2-.1-2.7-.6-.3-.4-.5-.8-.5-1.5v-6.6h-1.5v-2h1.5v-3h2.8v3h1.7v2h-1.7v5.7c0 .4 0 .7.2.8l1 .1h.5Zm10.5-1.1c0 .6-.4 1.2-1 1.9a5 5 0 0 1-3.8 1.6c-1.4 0-2.5-.5-3.6-1.4-1-.8-1.5-2.2-1.5-4.2 0-1.9.4-3.3 1.4-4.3.9-1 2.1-1.4 3.6-1.4.9 0 1.7.1 2.4.5.7.3 1.3.8 1.8 1.5.4.7.6 1.4.8 2.2v2.1h-7.2c0 1.1.3 1.9 1 2.3.4.3.8.4 1.4.4.5 0 1-.2 1.4-.5l.5-.7h2.8Zm-2.7-3.3c0-.7-.3-1.3-.7-1.7a2 2 0 0 0-1.5-.5 2 2 0 0 0-1.5.6 3 3 0 0 0-.7 1.6h4.4Zm9.3-2.2c-.9 0-1.5.4-1.9 1.2-.2.4-.3 1-.3 1.6V95h-2.7V84.4h2.6v1.5c.4-.5.7-1 1-1.2a4 4 0 0 1 2.2-.6 4 4 0 0 1 2.7.9c.7.5 1 1.5 1 2.8V95h-2.8v-6.5c0-.5 0-1-.2-1.3-.3-.5-.8-.8-1.6-.8ZM952 93v2.1h-1.3c-1.3 0-2.2-.1-2.7-.6-.3-.4-.4-.8-.4-1.5v-6.6H946v-2h1.5v-3h2.7v3h1.7v2h-1.7v5.7c0 .4 0 .7.2.8l1 .1h.5Zm11.5 0v2.1H962c-1.3 0-2.2-.1-2.7-.6-.3-.4-.4-.8-.4-1.5v-6.6h-1.5v-2h1.5v-3h2.7v3h1.8v2h-1.8v5.7c0 .4 0 .7.2.8l1 .1h.6Zm10.2-7.3a6.2 6.2 0 0 1 1.4 4 6 6 0 0 1-1.4 4c-.9 1.1-2.2 1.7-4 1.7-1.9 0-3.3-.6-4.2-1.7a6.2 6.2 0 0 1-1.3-4c0-1.5.4-2.9 1.3-4 1-1.1 2.3-1.7 4.1-1.7 1.9 0 3.2.6 4.1 1.7Zm-4 .7c-.9 0-1.5.3-2 .8a4 4 0 0 0-.6 2.5c0 1 .2 1.9.6 2.5.5.5 1.1.8 2 .8.7 0 1.4-.3 1.8-.8a4 4 0 0 0 .7-2.5 4 4 0 0 0-.7-2.5c-.4-.5-1-.8-1.9-.8Zm22.5 7.5c-1 1-2.4 1.5-4.1 1.5-2 0-3.7-.7-4.9-2a8 8 0 0 1-1.8-5.5c0-2.5.7-4.4 2-5.8a6 6 0 0 1 4.5-1.8c2.5 0 4.2.8 5.3 2.4.7 1 1 1.8 1 2.7h-3a4 4 0 0 0-.7-1.6c-.6-.6-1.4-.9-2.4-.9a3 3 0 0 0-2.6 1.3c-.7 1-1 2.2-1 3.8 0 1.6.3 2.8 1 3.6.7.8 1.5 1.2 2.6 1.2a3 3 0 0 0 2.4-1c.3-.4.5-1 .7-1.7h3c-.2 1.6-1 2.8-2 3.8Zm12.6-8.2a6.2 6.2 0 0 1 1.3 4 6 6 0 0 1-1.3 4 5.2 5.2 0 0 1-4.1 1.7c-1.9 0-3.2-.6-4.1-1.7a6.2 6.2 0 0 1-1.4-4c0-1.5.5-2.9 1.4-4a5 5 0 0 1 4-1.7c2 0 3.3.6 4.2 1.7Zm-4.1.7c-.8 0-1.5.3-2 .8a4 4 0 0 0-.6 2.5c0 1 .2 1.9.7 2.5.4.5 1 .8 1.9.8.8 0 1.4-.3 1.8-.8a4 4 0 0 0 .7-2.5 4 4 0 0 0-.7-2.5c-.4-.5-1-.8-1.8-.8Zm16.7-5.8V95h-2.7v-1.5a4 4 0 0 1-1.4 1.4c-.5.3-1 .4-1.8.4a4 4 0 0 1-3.2-1.5 6 6 0 0 1-1.3-3.8c0-1.9.5-3.3 1.3-4.3a4.3 4.3 0 0 1 5.1-1.2c.5.3.9.7 1.2 1.2v-5h2.8Zm-7.5 9.1c0 1 .2 1.8.6 2.4.4.6 1 .9 1.8.9a2 2 0 0 0 1.8-.9 4 4 0 0 0 .6-2.3c0-1.3-.4-2.2-1-2.8-.4-.3-.9-.5-1.4-.5-.8 0-1.4.3-1.8 1-.4.6-.6 1.3-.6 2.2Zm18.8 2.2a4 4 0 0 1-1 1.9c-1 1-2.2 1.6-3.9 1.6-1.3 0-2.5-.5-3.5-1.4-1-.8-1.6-2.2-1.6-4.2 0-1.9.5-3.3 1.4-4.3 1-1 2.2-1.4 3.6-1.4 1 0 1.7.1 2.4.5.8.3 1.3.8 1.8 1.5.4.7.7 1.4.8 2.2l.1 2.1h-7.3c0 1.1.4 1.9 1 2.3.4.3.9.4 1.4.4.6 0 1-.2 1.4-.5l.5-.7h2.9Zm-2.8-3.3c0-.7-.3-1.3-.7-1.7a2 2 0 0 0-1.5-.5 2 2 0 0 0-1.5.6 3 3 0 0 0-.6 1.6h4.3Z"/>
  <path fill="#2B2B2B" d="m836.8 125.7-2-5.7-2 5.7h4Zm-2.8-7.6h2l4.6 12.9h-1.9l-1.3-3.9h-5.1l-1.4 3.9h-1.8l4.9-13Zm8.7 8.3c0 1 .2 1.9.6 2.5.4.7 1.1 1 2 1 .8 0 1.4-.3 1.9-.9.4-.6.7-1.5.7-2.7 0-1.2-.3-2-.8-2.6-.4-.6-1-.9-1.8-.9s-1.4.3-2 1c-.4.5-.6 1.4-.6 2.6Zm2.3-5a3 3 0 0 1 1.8.5l1 .9V118h1.5v13H848v-1.3a3 3 0 0 1-1.3 1.2 3 3 0 0 1-1.7.4c-1 0-2-.4-2.8-1.3-.7-.9-1.1-2-1.1-3.5a6 6 0 0 1 1-3.6c.7-1 1.7-1.5 3-1.5Zm7.3 5c0 1 .2 1.9.7 2.5.4.7 1 1 2 1 .7 0 1.3-.3 1.8-.9.5-.6.7-1.5.7-2.7 0-1.2-.2-2-.7-2.6-.5-.6-1-.9-1.8-.9s-1.4.3-2 1c-.4.5-.7 1.4-.7 2.6Zm2.4-5c.7 0 1.3.2 1.8.5l1 .9V118h1.5v13h-1.4v-1.3a3 3 0 0 1-1.3 1.2c-.6.3-1.1.4-1.8.4-1 0-2-.4-2.7-1.3a5 5 0 0 1-1.2-3.5 6 6 0 0 1 1-3.6c.8-1 1.8-1.5 3.1-1.5Zm16.8.2h1.8a504.3 504.3 0 0 0-3 8c-.9 2.5-1.5 4-2 4.5-.3.5-1 .8-1.8.8a3.8 3.8 0 0 1-1-.2v-1.4a5.7 5.7 0 0 0 1 .2c.2 0 .4 0 .6-.2l.3-.3.3-.8.4-1-3.5-9.6h1.8l2.6 7.7 2.5-7.7Zm6.5 8.4c1 0 1.8-.4 2.2-1.2a6 6 0 0 0 .5-2.7c0-.8-.1-1.6-.4-2.1-.4-.9-1.2-1.3-2.3-1.3-1 0-1.7.4-2 1.1a4.9 4.9 0 0 0-.1 5.2c.4.6 1.1 1 2.1 1Zm0-8.7c1.3 0 2.3.4 3.1 1.2.9.8 1.3 2 1.3 3.6 0 1.5-.4 2.8-1.1 3.8-.8 1-1.9 1.4-3.5 1.4-1.2 0-2.3-.4-3-1.3-.8-.8-1.2-2-1.2-3.5 0-1.6.4-2.8 1.2-3.8a4 4 0 0 1 3.3-1.4Zm7.5.3v6.2c0 .5 0 1 .2 1.2.3.6.8.9 1.6.9 1.1 0 1.9-.5 2.3-1.5.2-.5.3-1.3.3-2.2v-4.6h1.6v9.4H890v-1.4l-.8 1c-.6.4-1.3.7-2.2.7-1.3 0-2.2-.5-2.7-1.4a4 4 0 0 1-.4-2v-6.3h1.6Zm8.1 0h1.5v1.6c.2-.3.5-.7 1-1.1a2.3 2.3 0 0 1 1.7-.7h.4v1.7a2.2 2.2 0 0 0-.5 0c-.8 0-1.4.2-1.9.7-.4.5-.6 1.1-.6 1.8v5.4h-1.6v-9.4Zm16-3.8c1.3 0 2.3.2 3.2.7 1.3.6 2 1.8 2.4 3.5h-1.8c-.2-1-.6-1.6-1.3-2-.6-.5-1.5-.7-2.5-.7a4 4 0 0 0-3 1.3c-.8 1-1.2 2.3-1.2 4 0 1.6.3 2.8 1 3.8s1.8 1.4 3.3 1.4c1.1 0 2.1-.3 2.9-1 .7-.7 1.1-1.7 1.1-3.3h-4v-1.4h5.7v6.9h-1.2l-.4-1.7c-.6.7-1 1.1-1.5 1.4-.8.4-1.8.6-3 .6-1.5 0-2.8-.5-4-1.4a7 7 0 0 1-1.7-5.2c0-2.1.6-3.8 1.7-5.1a5.6 5.6 0 0 1 4.4-1.8Zm8 3.8h1.5v9.4h-1.6v-9.4Zm0-3.5h1.5v1.8h-1.6V118Zm3.9.9h1.6v2.6h1.5v1.3H923v6.1c0 .4 0 .6.3.7h1.2v1.3l-.6.1h-.6c-.8 0-1.3-.1-1.5-.5-.3-.4-.4-.9-.4-1.5V123h-1.3v-1.3h1.3V119Zm4.6-1h1.7v5.4h6.7v-5.3h1.8V131h-1.8v-6h-6.7v6h-1.7v-13Zm14 3.6v6.2c0 .5 0 1 .2 1.2.3.6.8.9 1.5.9 1.1 0 1.9-.5 2.3-1.5.2-.5.3-1.3.3-2.2v-4.6h1.6v9.4h-1.5v-1.4l-.7 1c-.6.4-1.4.7-2.2.7-1.4 0-2.3-.5-2.8-1.4a4 4 0 0 1-.4-2v-6.3h1.6Zm7.9-3.6h1.5v4.7a3.5 3.5 0 0 1 2.8-1.4c1.2 0 2.2.4 2.9 1.3.7.8 1 2 1 3.5s-.3 2.7-1 3.7-1.7 1.5-3 1.5a3 3 0 0 1-1.8-.5l-1-1v1.2H948v-13Zm4.1 11.9c.9 0 1.5-.3 2-1a5 5 0 0 0 .6-2.7 4 4 0 0 0-.7-2.5 2 2 0 0 0-1.8-1c-.8 0-1.4.3-2 .9-.5.5-.8 1.4-.8 2.6 0 .9.2 1.6.4 2.1.4 1 1.2 1.6 2.3 1.6Zm10.4-8.3h1.5v1.6c.1-.3.4-.7.9-1.1a2.3 2.3 0 0 1 1.8-.7h.4v1.7a2.3 2.3 0 0 0-.6 0c-.8 0-1.4.2-1.8.7-.4.5-.6 1.1-.6 1.8v5.4h-1.6v-9.4Zm9.5-.2a4.3 4.3 0 0 1 3.4 1.7c.3.4.5 1 .6 1.6l.1 2.1h-6.9c0 1 .3 1.7.7 2.3.4.6 1 .9 2 .9a2.5 2.5 0 0 0 2.5-2h1.6c0 .4-.2.8-.4 1.2a3.7 3.7 0 0 1-2.6 2l-1.3.1a4 4 0 0 1-3-1.2 5 5 0 0 1-1.2-3.6 5 5 0 0 1 1.3-3.7 4 4 0 0 1 3.2-1.4Zm2.5 4.1c0-.6-.2-1.2-.4-1.6-.5-.8-1.2-1.1-2.2-1.1-.7 0-1.3.2-1.8.7a3 3 0 0 0-.8 2h5.2Zm7.2 4.4c.7 0 1.3-.3 1.8-.9.5-.6.8-1.5.8-2.8 0-.7-.1-1.4-.4-1.9-.4-1-1.1-1.6-2.2-1.6s-1.9.6-2.3 1.7a6.5 6.5 0 0 0 0 4c.5 1 1.2 1.5 2.3 1.5Zm-4.1-8.3h1.5v1.3l1-1c.6-.4 1.2-.5 2-.5 1 0 2 .4 2.7 1.2.7.8 1 2 1 3.5 0 2-.4 3.5-1.5 4.4a4 4 0 0 1-2.4.8c-.7 0-1.3-.1-1.8-.4l-1-1v4.9h-1.5v-13.2Zm13.5 8.4c1 0 1.8-.4 2.2-1.2a6 6 0 0 0 .6-2.7c0-.8-.2-1.6-.5-2.1-.4-.9-1.2-1.3-2.3-1.3-1 0-1.6.4-2 1.1-.5.7-.7 1.6-.7 2.7 0 1 .2 1.8.6 2.5.5.6 1.2 1 2.1 1Zm0-8.7c1.3 0 2.3.4 3.2 1.2.8.8 1.2 2 1.2 3.6 0 1.5-.4 2.8-1.1 3.8-.7 1-1.9 1.4-3.4 1.4-1.3 0-2.4-.4-3.1-1.3-.8-.8-1.2-2-1.2-3.5 0-1.6.4-2.8 1.2-3.8a4 4 0 0 1 3.3-1.4Zm12.7-3.2v8c0 1 .2 1.7.5 2.3.6 1 1.4 1.4 2.7 1.4 1.5 0 2.5-.5 3-1.5.3-.6.4-1.3.4-2.2v-8h1.8v7.2c0 1.6-.2 2.8-.7 3.7-.7 1.6-2.2 2.3-4.4 2.3s-3.6-.7-4.4-2.3c-.5-.9-.7-2-.7-3.7v-7.2h1.8Zm16.8 5.9c.8 0 1.4-.2 1.9-.5s.7-1 .7-1.8c0-.9-.3-1.5-1-1.8-.3-.2-.8-.3-1.4-.3h-4.3v4.4h4Zm-5.8-6h6c1 0 1.7.2 2.4.5 1.2.6 1.8 1.6 1.8 3 0 .8-.2 1.5-.5 2s-.8.9-1.3 1.2c.5.2.8.4 1.1.8.3.3.4.8.4 1.6l.1 1.7.1 1.1c.1.4.3.7.6.8v.3h-2.2l-.1-.4v-1l-.2-2.2c0-.8-.4-1.4-1-1.7a4 4 0 0 0-1.5-.2h-4v5.5h-1.7v-13Zm12.4 0h1.8v11.5h6.5v1.5h-8.3v-13Zm-176.7 24h1.6v2.6h1.5v1.3h-1.5v6.1c0 .4.1.6.3.7h1.2v1.3l-.6.1h-.6c-.7 0-1.2-.1-1.5-.5-.3-.4-.4-.9-.4-1.5V146h-1.3v-1.3h1.3V142Zm8 11c1.1 0 1.8-.4 2.2-1.2a6 6 0 0 0 .6-2.7c0-.8-.1-1.6-.4-2.1-.5-.9-1.2-1.3-2.3-1.3-1 0-1.7.4-2.1 1.1-.5.7-.7 1.6-.7 2.7 0 1 .2 1.8.7 2.5.4.6 1.1 1 2 1Zm.1-8.7c1.2 0 2.3.4 3.1 1.2a5 5 0 0 1 1.3 3.6c0 1.5-.4 2.8-1.1 3.8-.8 1-2 1.4-3.5 1.4-1.3 0-2.3-.4-3-1.3-.8-.8-1.2-2-1.2-3.5 0-1.6.4-2.8 1.2-3.8a4 4 0 0 1 3.2-1.4Zm16.4.3h1.8a504.3 504.3 0 0 0-3 8c-.9 2.5-1.5 4-1.9 4.5-.4.5-1 .8-2 .8a3.8 3.8 0 0 1-.9-.2v-1.4a5.6 5.6 0 0 0 1 .2c.2 0 .4 0 .6-.2l.3-.3.4-.8.3-1-3.4-9.6h1.8l2.5 7.7 2.5-7.7Zm6.5 8.4c1 0 1.8-.4 2.2-1.2a6 6 0 0 0 .6-2.7c0-.8-.2-1.6-.5-2.1-.4-.9-1.2-1.3-2.3-1.3-1 0-1.6.4-2 1.1-.5.7-.7 1.6-.7 2.7 0 1 .2 1.8.6 2.5.5.6 1.2 1 2.1 1Zm0-8.7c1.3 0 2.3.4 3.2 1.2.8.8 1.2 2 1.2 3.6 0 1.5-.4 2.8-1.1 3.8-.7 1-1.9 1.4-3.4 1.4-1.3 0-2.4-.4-3.1-1.3-.8-.8-1.2-2-1.2-3.5 0-1.6.4-2.8 1.2-3.8a4 4 0 0 1 3.3-1.4Zm7.5.3v6.2c0 .5.1 1 .3 1.2.2.6.8.9 1.5.9 1.1 0 1.9-.5 2.3-1.5.2-.5.3-1.3.3-2.2v-4.6h1.6v9.4h-1.5v-1.4l-.8 1c-.6.4-1.3.7-2.2.7-1.3 0-2.2-.5-2.7-1.4a4 4 0 0 1-.4-2v-6.3h1.6Zm8.1 0h1.5v1.6c.2-.3.5-.7 1-1.1a2.3 2.3 0 0 1 1.8-.7h.3v1.7a2.3 2.3 0 0 0-.5 0c-.8 0-1.4.2-1.8.7-.5.5-.7 1.1-.7 1.8v5.4h-1.6v-9.4Zm11.2 6.4c0 .6.2 1 .4 1.3.4.5 1.1.7 2 .7a3 3 0 0 0 1.6-.4c.5-.2.7-.6.7-1.1a1 1 0 0 0-.5-1l-1.4-.4-1.2-.3c-.8-.2-1.4-.4-1.8-.7a2 2 0 0 1-1-1.8c0-.9.3-1.6 1-2.1.6-.6 1.4-.9 2.5-.9 1.4 0 2.5.5 3 1.3.5.5.7 1 .7 1.7h-1.5c0-.4-.2-.7-.4-1-.4-.4-1-.6-1.9-.6-.6 0-1 .1-1.4.3a1 1 0 0 0-.4 1c0 .4.2.7.6 1l1 .3 1 .3a6 6 0 0 1 2.4.8c.6.4.9 1 .9 1.9 0 .8-.3 1.5-1 2.1-.6.7-1.6 1-2.9 1-1.4 0-2.4-.4-3-1-.5-.6-.9-1.4-.9-2.4h1.5Zm8-9h1.6v2.6h1.5v1.3H918v6.1c0 .4.2.6.4.7h1.1v1.3l-.5.1h-.7c-.7 0-1.2-.1-1.5-.5-.2-.4-.4-.9-.4-1.5V146h-1.2v-1.3h1.2V142Zm8.1 11c1 0 1.8-.4 2.2-1.2a6 6 0 0 0 .6-2.7c0-.8-.2-1.6-.5-2.1-.4-.9-1.2-1.3-2.3-1.3-1 0-1.6.4-2 1.1-.5.7-.7 1.6-.7 2.7 0 1 .2 1.8.6 2.5.5.6 1.2 1 2.1 1Zm0-8.7c1.3 0 2.3.4 3.1 1.2.9.8 1.3 2 1.3 3.6 0 1.5-.4 2.8-1.1 3.8-.7 1-1.9 1.4-3.4 1.4-1.3 0-2.4-.4-3.1-1.3-.8-.8-1.2-2-1.2-3.5 0-1.6.4-2.8 1.2-3.8a4 4 0 0 1 3.3-1.4Zm6 .3h1.5v1.6c.1-.3.4-.7.9-1.1a2.3 2.3 0 0 1 1.8-.7h.4v1.7a2.2 2.2 0 0 0-.6 0c-.8 0-1.4.2-1.8.7-.4.5-.6 1.1-.6 1.8v5.4h-1.6v-9.4Zm9.5-.2a4.3 4.3 0 0 1 3.4 1.7c.3.4.5 1 .6 1.6l.1 2.1h-6.9c0 1 .3 1.7.7 2.3.4.6 1 .9 2 .9a2.5 2.5 0 0 0 2.5-2h1.6c0 .4-.2.8-.4 1.2a3.7 3.7 0 0 1-2.6 2l-1.3.1a4 4 0 0 1-3-1.2 5 5 0 0 1-1.2-3.6c0-1.5.5-2.8 1.3-3.7a4 4 0 0 1 3.2-1.4Zm2.5 4.1c0-.6-.2-1.2-.4-1.6-.5-.8-1.2-1.1-2.2-1.1-.7 0-1.3.2-1.8.7a3 3 0 0 0-.8 2h5.2Zm3.6-5.3c0-.7.2-1.2.4-1.5.3-.5 1-.8 2.1-.8a5.4 5.4 0 0 1 .7 0v1.5a5.5 5.5 0 0 0-.6 0c-.5 0-.8 0-.9.3v2h1.5v1.2h-1.6v8.1H946v-8.1h-1.3v-1.3h1.3v-1.4Zm4.3 1.4h1.5v1.6c.1-.3.4-.7 1-1.1a2.3 2.3 0 0 1 1.7-.7h.4v1.7a2.3 2.3 0 0 0-.5 0c-.8 0-1.4.2-1.9.7-.4.5-.6 1.1-.6 1.8v5.4h-1.6v-9.4Zm9.3 8.4c1.1 0 1.8-.4 2.2-1.2a6 6 0 0 0 .6-2.7 6 6 0 0 0-.4-2.1c-.5-.9-1.2-1.3-2.3-1.3-1 0-1.7.4-2.1 1.1-.5.7-.7 1.6-.7 2.7 0 1 .2 1.8.7 2.5.4.6 1 1 2 1Zm.1-8.7a4 4 0 0 1 3 1.2c1 .8 1.3 2 1.3 3.6 0 1.5-.3 2.8-1 3.8-.8 1-2 1.4-3.5 1.4-1.3 0-2.3-.4-3-1.3-.8-.8-1.2-2-1.2-3.5 0-1.6.4-2.8 1.2-3.8a4 4 0 0 1 3.2-1.4Zm5.9.3h1.5v1.3c.4-.5.9-1 1.4-1.2.5-.2 1-.3 1.7-.3 1.3 0 2.2.4 2.7 1.4.2.5.3 1.2.3 2.2v6h-1.6v-6c0-.5 0-1-.2-1.3-.3-.6-.8-.9-1.5-.9l-1 .1c-.4.1-.8.4-1.1.8a2 2 0 0 0-.5 1l-.1 1.4v4.9h-1.6v-9.4Zm10-2.6h1.5v2.6h1.5v1.3h-1.5v6.1c0 .4.2.6.4.7h1.2v1.3l-.6.1h-.7c-.7 0-1.2-.1-1.5-.5-.2-.4-.4-.9-.4-1.5V146h-1.2v-1.3h1.2V142Zm9.9 9c0 .6.1 1 .4 1.3.4.5 1 .7 2 .7a3 3 0 0 0 1.6-.4c.4-.2.7-.6.7-1.1a1 1 0 0 0-.6-1l-1.3-.4-1.3-.3a6 6 0 0 1-1.8-.7 2 2 0 0 1-1-1.8c0-.9.3-1.6 1-2.1.6-.6 1.5-.9 2.6-.9 1.4 0 2.4.5 3 1.3.4.5.6 1 .6 1.7h-1.5c0-.4-.1-.7-.4-1-.3-.4-1-.6-1.9-.6-.6 0-1 .1-1.3.3a1 1 0 0 0-.5 1c0 .4.2.7.6 1l1 .3 1.1.3c1.1.2 2 .5 2.3.8.6.4 1 1 1 1.9a3 3 0 0 1-1 2.1c-.7.7-1.6 1-3 1-1.3 0-2.3-.4-3-1-.5-.6-.8-1.4-.8-2.4h1.5Zm7.7-6.4h1.6v9.4h-1.6v-9.4Zm0-3.5h1.6v1.8h-1.6V141Zm4 .9h1.5v2.6h1.5v1.3h-1.5v6.1c0 .4.1.6.4.7h1.1v1.3l-.5.1h-.7c-.7 0-1.2-.1-1.5-.5-.2-.4-.4-.9-.4-1.5V146H996v-1.3h1.2V142Zm8.2 2.4a4.2 4.2 0 0 1 3.4 1.7c.3.4.5 1 .6 1.6l.1 2.1h-6.9c0 1 .3 1.7.7 2.3.4.6 1 .9 2 .9a2.5 2.5 0 0 0 2.6-2h1.5c0 .4-.2.8-.4 1.2a3.7 3.7 0 0 1-2.6 2l-1.3.1a4 4 0 0 1-3-1.2 5 5 0 0 1-1.2-3.6c0-1.5.5-2.8 1.3-3.7a4 4 0 0 1 3.2-1.4Zm2.5 4.1a4 4 0 0 0-.4-1.6c-.5-.8-1.2-1.1-2.2-1.1-.7 0-1.3.2-1.8.7a3 3 0 0 0-.8 2h5.2Zm3.6 3.6h1.8v1.9h-1.8v-2Z"/>
  <path fill="#EB1000" d="M932 186h25.8c6 .1 10.4 3 13 8.6.8 1.9 1.2 3.8 1.2 5.9v51c0 8-6.2 14.4-14 14.5h-52c-7.8 0-14-6.5-14-14.6v-50.8c0-8.2 6.3-14.6 14.2-14.6H932Z"/>
  <path fill="#fff" d="M921.9 247.6h-13.5c-1.7 0-2.2-.8-1.6-2.4l17.5-42.5c.7-1.7 1.3-2.1 3-2.1h9.3c1.5 0 2.4.6 3 2l17.6 42.6c.6 1.6.1 2.4-1.6 2.4h-9.4c-1.4 0-2.2-.6-2.8-1.9l-10.8-26-.6-.8c-.3.3-.6.5-.7.8l-6.6 16c-.4 1.2-.3 1.4.9 1.4h6.7c.9 0 1.4.3 1.7 1l3 7.1c.7 1.4 0 2.4-1.4 2.4h-13.7Z"/>
  <circle cx="932.5" cy="50.5" r="14.5" fill="#000"/>
  <path fill="#fff" d="M936.7 51.6v1.8h-1.4V56H933v-2.6h-4.8v-2l4.4-7.4h2.7v7.6h1.4Zm-6.7 0h3v-5.2l-3 5.2Z"/>
  <rect width="250" height="240" x="1069" y="51" fill="#F6F6F6" rx="8"/>
  <path fill="#000" d="M1124.2 93c.7 0 1.3-.2 1.8-.3.8-.3 1.2-.9 1.2-1.7 0-.5-.2-.8-.6-1-.4-.3-1-.6-2-.8l-1.5-.3a9.6 9.6 0 0 1-3.1-1.1c-1-.7-1.5-1.7-1.5-3.1a4 4 0 0 1 1.5-3.2c.9-.9 2.3-1.3 4-1.3 1.6 0 2.9.4 4 1.2 1 .8 1.6 2 1.7 3.5h-3c0-.9-.4-1.5-1-1.9-.5-.2-1.1-.3-1.8-.3-.8 0-1.4.1-1.9.5-.4.3-.7.7-.7 1.3 0 .5.3.9.7 1.1.3.2 1 .4 1.9.6l2.5.6c1 .3 1.9.6 2.4 1 .9.7 1.3 1.7 1.3 3s-.5 2.4-1.5 3.3c-1 .8-2.4 1.3-4.3 1.3a7 7 0 0 1-4.4-1.3c-1-.9-1.6-2-1.6-3.5h2.9c0 .6.3 1.1.5 1.4.5.6 1.3 1 2.5 1Zm12.4 0v2.1h-1.3c-1.3 0-2.2-.1-2.7-.6-.3-.4-.5-.8-.5-1.5v-6.6h-1.5v-2h1.5v-3h2.8v3h1.7v2h-1.7v5.7l.1.8 1 .1h.6Zm1.8-7.5c.7-1 2-1.4 3.8-1.4 1.1 0 2.2.2 3 .7 1 .5 1.4 1.3 1.4 2.6v6.1l.2.8.4.3v.4h-3l-.2-.6v-.7c-.4.5-.9.8-1.4 1.1a4 4 0 0 1-2 .5c-1 0-1.8-.2-2.4-.8a3 3 0 0 1-1-2.3c0-1.3.6-2.3 1.6-2.9.5-.3 1.3-.5 2.4-.7h1l1-.3c.5-.2.7-.5.7-.8 0-.4-.2-.7-.5-1l-1.3-.2c-.7 0-1.1.2-1.4.5-.2.3-.4.6-.4 1h-2.7c0-1 .3-1.7.8-2.3Zm2 7.5c.3.2.6.3 1 .3.6 0 1.1-.2 1.7-.5.5-.4.7-1 .8-2v-1l-.6.3-.7.2-.6.1c-.6.1-1 .2-1.3.4-.4.2-.7.6-.7 1.2 0 .4.2.8.5 1Zm13.7-6c-1.2 0-2 .3-2.3 1-.2.4-.3 1-.3 2v5h-2.8V84.4h2.6v1.8c.5-.7.8-1.2 1.2-1.4a3 3 0 0 1 2.1-.7h.3V87a7 7 0 0 0-.8 0Zm6.9 6v2.1h-1.3c-1.4 0-2.3-.1-2.7-.6-.3-.4-.5-.8-.5-1.5v-6.6h-1.5v-2h1.5v-3h2.8v3h1.7v2h-1.8v5.7l.2.8 1 .1h.6Zm13 2h-6.3V80.6h6.3c.8 0 1.6.1 2.2.3 1 .3 1.8 1 2.4 1.8.5.8.9 1.5 1 2.4l.3 2.4a10 10 0 0 1-1.1 4.8 5.2 5.2 0 0 1-4.8 2.7Zm2.2-10.7c-.5-.8-1.4-1.2-2.8-1.2h-2.7v9.4h2.8c1.4 0 2.4-.7 3-2.1.2-.8.4-1.7.4-2.7 0-1.5-.3-2.6-.7-3.4Zm14.5 7.6c0 .6-.4 1.2-1 1.9a5 5 0 0 1-3.8 1.6c-1.4 0-2.6-.5-3.6-1.4-1-.8-1.6-2.2-1.6-4.2 0-1.9.5-3.3 1.4-4.3 1-1 2.2-1.4 3.7-1.4.9 0 1.7.1 2.4.5.7.3 1.3.8 1.7 1.5.4.7.7 1.4.8 2.2l.1 2.1h-7.3c0 1.1.4 1.9 1 2.3.4.3.9.4 1.4.4a2 2 0 0 0 2-1.2h2.8Zm-2.8-3.3c0-.7-.2-1.3-.6-1.7a2 2 0 0 0-1.5-.5 2 2 0 0 0-1.5.6 3 3 0 0 0-.7 1.6h4.3Zm3.4-4.2h3.1l2.2 7.8 2.3-7.8h3L1198 95h-3l-3.7-10.6Zm20.9 7.5a4 4 0 0 1-1 1.9c-1 1-2.2 1.6-3.9 1.6-1.3 0-2.5-.5-3.5-1.4-1-.8-1.6-2.2-1.6-4.2 0-1.9.5-3.3 1.4-4.3 1-1 2.2-1.4 3.7-1.4.8 0 1.6.1 2.3.5.8.3 1.3.8 1.8 1.5.4.7.7 1.4.8 2.2l.1 2.1h-7.3c0 1.1.4 1.9 1 2.3.4.3.9.4 1.4.4.6 0 1-.2 1.4-.5l.5-.7h2.9Zm-2.8-3.3c0-.7-.3-1.3-.7-1.7a2 2 0 0 0-1.5-.5 2 2 0 0 0-1.5.6 3 3 0 0 0-.6 1.6h4.3Zm4.4-8h2.8V95h-2.8V80.6Zm14 5.1a6.2 6.2 0 0 1 1.4 4 6 6 0 0 1-1.4 4c-.9 1.1-2.2 1.7-4 1.7-1.9 0-3.3-.6-4.2-1.7a6.2 6.2 0 0 1-1.3-4c0-1.5.4-2.9 1.3-4 1-1.1 2.3-1.7 4.1-1.7 1.9 0 3.2.6 4.1 1.7Zm-4 .7c-.9 0-1.5.3-2 .8a4 4 0 0 0-.6 2.5c0 1 .2 1.9.6 2.5.5.5 1.1.8 2 .8.7 0 1.4-.3 1.8-.8a4 4 0 0 0 .7-2.5 4 4 0 0 0-.7-2.5c-.4-.5-1-.8-1.9-.8Zm15.9-.9c.8 1 1.3 2.3 1.3 4 0 2-.4 3.3-1.3 4.3a4 4 0 0 1-3.2 1.5c-.9 0-1.6-.2-2.2-.6a4 4 0 0 1-.8-1v5.5h-2.8V84.4h2.7v1.5c.3-.4.6-.8 1-1a3 3 0 0 1 2.1-.8c1.3 0 2.3.5 3.2 1.4Zm-1.6 4.2a4 4 0 0 0-.6-2.2c-.3-.6-1-1-1.8-1a2 2 0 0 0-2 1.5c-.3.5-.4 1.1-.4 2 0 1.2.4 2 1 2.5.4.3.9.5 1.4.5a2 2 0 0 0 1.8-1c.4-.5.6-1.3.6-2.3Zm7.4-5.3V95h-2.9V84.4h2.9Zm0-3.9v2.6h-2.9v-2.6h2.9Zm7.3 6c-1 0-1.6.3-2 1.1l-.2 1.6V95h-2.8V84.4h2.7v1.5c.3-.5.7-1 1-1.2.6-.4 1.3-.6 2.2-.6a4 4 0 0 1 2.7.9c.7.5 1 1.5 1 2.8V95h-2.8v-6.5c0-.5-.1-1-.3-1.3-.2-.5-.8-.8-1.5-.8Zm9.8 10.4c.3.2.8.3 1.5.3 1 0 1.7-.3 2-1 .3-.4.4-1.1.4-2.1v-.7l-.9 1c-.5.4-1.3.6-2.2.6-1.3 0-2.4-.4-3.2-1.4-.9-1-1.3-2.3-1.3-3.9s.4-2.9 1.2-4a4 4 0 0 1 3.4-1.6c.5 0 1 0 1.4.2.6.3 1.2.8 1.6 1.6v-1.5h2.7v10c0 1.4-.2 2.5-.7 3.2-.8 1.2-2.3 1.8-4.5 1.8-1.4 0-2.5-.3-3.4-.8a3 3 0 0 1-1.4-2.4h3l.4.7Zm-.5-5.5a2 2 0 0 0 2 1.3c.7 0 1.3-.2 1.7-.7.5-.5.7-1.3.7-2.4 0-1-.2-1.7-.7-2.3a2 2 0 0 0-1.7-.8 2 2 0 0 0-2 1.4 5 5 0 0 0 0 3.5Z"/>
  <path fill="#2B2B2B" d="M1094 130.8c0 .8.1 1.4.4 1.8.6.9 1.6 1.3 3 1.3.8 0 1.3 0 1.9-.3 1-.3 1.5-1 1.5-2 0-.6-.2-1.1-.6-1.4a7 7 0 0 0-2.1-.8l-1.8-.4a8 8 0 0 1-2.4-.8 2.7 2.7 0 0 1-1.2-2.5c0-1.1.4-2 1.2-2.8.8-.8 2-1.1 3.4-1.1s2.5.3 3.5 1c.9.6 1.4 1.6 1.4 3h-1.7c0-.6-.2-1.1-.5-1.5-.6-.7-1.5-1-2.8-1-1 0-1.7.2-2.2.6a2 2 0 0 0-.7 1.5c0 .7.3 1.1.8 1.4l2.4.7 1.8.4c.9.2 1.5.5 2 .9a3 3 0 0 1 1.3 2.6c0 1.4-.6 2.4-1.6 3a7 7 0 0 1-3.6 1c-1.6 0-2.9-.4-3.8-1.3-1-.8-1.4-1.9-1.3-3.3h1.6Zm14.1-5.4a4.2 4.2 0 0 1 3.4 1.7c.3.4.5 1 .6 1.6l.2 2.1h-7c.1 1 .3 1.7.7 2.3.5.6 1.1.9 2 .9a2.5 2.5 0 0 0 2.6-2h1.5c0 .4-.1.8-.4 1.2-.2.4-.5.8-.8 1-.4.5-1 .8-1.7 1l-1.3.1a4 4 0 0 1-3-1.2 5 5 0 0 1-1.2-3.6c0-1.5.4-2.8 1.2-3.7a4 4 0 0 1 3.2-1.4Zm2.5 4.1a4 4 0 0 0-.4-1.6c-.4-.8-1.2-1.1-2.2-1.1-.7 0-1.3.2-1.8.7a3 3 0 0 0-.8 2h5.2Zm3.6-6.5h1.6v2.6h1.5v1.3h-1.5v6.1c0 .4 0 .6.3.7h1.2v1.3a3.7 3.7 0 0 1-1.2.1c-.8 0-1.3-.1-1.5-.5-.3-.4-.4-.9-.4-1.5V127h-1.3v-1.3h1.3V123Zm10.5 2.6v6.2c0 .5.1 1 .3 1.2.3.6.8.9 1.5.9 1.1 0 1.9-.5 2.3-1.5.2-.5.3-1.3.3-2.2v-4.6h1.6v9.4h-1.5v-1.4l-.7 1c-.7.4-1.4.7-2.2.7-1.4 0-2.3-.5-2.8-1.4a4 4 0 0 1-.4-2v-6.3h1.6Zm12 8.3c.8 0 1.4-.3 2-.9a5 5 0 0 0 .7-2.8c0-.7-.1-1.4-.4-1.9-.4-1-1.1-1.6-2.2-1.6s-1.9.6-2.3 1.7a6.4 6.4 0 0 0 0 4c.5 1 1.2 1.5 2.3 1.5Zm-4-8.3h1.5v1.3l1-1c.6-.4 1.2-.5 2-.5 1 0 2 .4 2.7 1.2.7.8 1 2 1 3.5 0 2-.5 3.5-1.5 4.4a4 4 0 0 1-2.4.8c-.7 0-1.3-.1-1.8-.4l-1-1v4.9h-1.5v-13.2Zm20.3 0h1.8l-1.5 4.1c-.6 1.6-1 3-1.5 4a19 19 0 0 1-2 4.4c-.3.5-1 .8-1.8.8a3.9 3.9 0 0 1-1-.2v-1.4a6.1 6.1 0 0 0 1 .2c.2 0 .4 0 .6-.2l.3-.3.3-.8.4-1-3.4-9.6h1.7l2.6 7.7 2.5-7.7Zm6.5 8.4c1 0 1.8-.4 2.2-1.2.3-.8.5-1.7.5-2.7 0-.8-.1-1.6-.4-2.1-.4-.9-1.2-1.3-2.3-1.3-1 0-1.7.4-2 1.1a4.9 4.9 0 0 0-.1 5.2c.4.6 1.1 1 2.1 1Zm0-8.7c1.3 0 2.3.4 3.1 1.2.9.8 1.3 2 1.3 3.6 0 1.5-.4 2.8-1.1 3.8-.8 1-1.9 1.4-3.5 1.4-1.2 0-2.3-.4-3-1.3-.8-.8-1.2-2-1.2-3.5 0-1.6.4-2.8 1.2-3.8a4 4 0 0 1 3.3-1.4Zm7.5.3v6.2c0 .5 0 1 .2 1.2.3.6.8.9 1.6.9 1.1 0 1.9-.5 2.3-1.5.2-.5.3-1.3.3-2.2v-4.6h1.6v9.4h-1.5v-1.4l-.8 1c-.6.4-1.3.7-2.2.7-1.3 0-2.2-.5-2.7-1.4a4 4 0 0 1-.4-2v-6.3h1.6Zm8.1 0h1.5v1.6c.2-.3.5-.7 1-1.1a2.3 2.3 0 0 1 1.8-.7h.3v1.7a2.3 2.3 0 0 0-.5 0c-.8 0-1.4.2-1.9.7-.4.5-.6 1.1-.6 1.8v5.4h-1.6v-9.4Zm10.3-3.5h1.6V135h-1.6v-13Zm7.3 11.9c1.1 0 1.8-.4 2.2-1.2a6 6 0 0 0 .2-4.8c-.5-.9-1.2-1.3-2.3-1.3-1 0-1.7.4-2.1 1.1-.5.7-.7 1.6-.7 2.7 0 1 .2 1.8.7 2.5.4.6 1.1 1 2 1Zm.1-8.7a4 4 0 0 1 3 1.2c1 .8 1.4 2 1.4 3.6a6 6 0 0 1-1.2 3.8c-.7 1-1.8 1.4-3.4 1.4-1.3 0-2.3-.4-3-1.3-.8-.8-1.2-2-1.2-3.5 0-1.6.4-2.8 1.2-3.8a4 4 0 0 1 3.2-1.4Zm9.5 0c1 0 2 .3 2.6.8.7.5 1 1.4 1.2 2.7h-1.5c-.1-.6-.3-1.1-.7-1.5-.3-.4-.9-.6-1.6-.6-1 0-1.7.5-2.2 1.5-.2.6-.4 1.4-.4 2.4s.2 1.7.6 2.4c.4.6 1 1 1.9 1a2 2 0 0 0 1.6-.7l.8-1.6h1.5c-.2 1.2-.6 2.1-1.3 2.7a4 4 0 0 1-2.7.9c-1.3 0-2.2-.5-3-1.4-.7-.9-1-2-1-3.3 0-1.7.3-3 1.1-4 .8-.8 1.9-1.3 3.1-1.3Zm6.2 7.2c0 .5.2.8.5 1 .4.3.8.5 1.2.5.6 0 1.1-.2 1.6-.4 1-.4 1.4-1.1 1.4-2.1v-1.3l-.8.3-.9.2-1 .1c-.5 0-1 .2-1.2.4-.5.3-.8.7-.8 1.3Zm3.9-3.2c.3 0 .6-.2.7-.5l.1-.6c0-.5-.2-.9-.6-1.1a3 3 0 0 0-1.6-.4c-.8 0-1.4.2-1.8.7-.2.2-.3.6-.4 1h-1.4c0-1.1.4-2 1-2.4.8-.4 1.6-.6 2.6-.6 1.1 0 2 .2 2.7.6.7.4 1 1 1 2v5.4l.1.4.5.1a3.7 3.7 0 0 0 .5 0v1.1l-.6.2h-.5c-.6 0-1-.2-1.2-.6l-.3-.8a4 4 0 0 1-1.4 1c-.6.4-1.2.5-2 .5a3 3 0 0 1-2.1-.8c-.5-.5-.8-1.2-.8-2s.3-1.5.8-2a4 4 0 0 1 2.1-.9l2.6-.3Zm4.6-7.2h1.6V135h-1.6v-13Zm9.2 10c0 .5.2.9.4 1.2.4.5 1.1.7 2 .7.7 0 1.2-.1 1.6-.4.5-.2.7-.6.7-1.1a1 1 0 0 0-.5-1l-1.4-.4-1.3-.3a6 6 0 0 1-1.7-.7 2 2 0 0 1-1-1.8c0-.9.3-1.6 1-2.1.6-.6 1.4-.9 2.5-.9 1.4 0 2.5.5 3 1.3.5.5.7 1 .7 1.7h-1.5c0-.4-.2-.7-.4-1-.4-.4-1-.6-2-.6-.5 0-1 .1-1.3.3a1 1 0 0 0-.4 1c0 .4.2.7.6 1l1 .3 1 .3c1.2.2 2 .5 2.3.8.7.4 1 1 1 1.9a3 3 0 0 1-1 2.1c-.6.7-1.6 1-2.9 1-1.4 0-2.4-.4-3-1-.6-.6-.9-1.4-1-2.4h1.6Zm8-9.1h1.6v2.6h1.5v1.3h-1.5v6.1c0 .4.1.6.4.7h1.1v1.3l-.5.1a5 5 0 0 1-.7 0c-.7 0-1.2-.1-1.5-.5-.2-.4-.4-.9-.4-1.5V127h-1.3v-1.3h1.3V123Zm8.1 11c1 0 1.8-.4 2.2-1.2a6 6 0 0 0 .5-2.7c0-.8-.1-1.6-.4-2.1-.4-.9-1.2-1.3-2.3-1.3-1 0-1.6.4-2 1.1a4.9 4.9 0 0 0-.1 5.2c.5.6 1.1 1 2.1 1Zm0-8.7c1.3 0 2.3.4 3.1 1.2.9.8 1.3 2 1.3 3.6 0 1.5-.4 2.8-1.1 3.8-.8 1-1.9 1.4-3.4 1.4-1.4 0-2.4-.4-3.1-1.3-.8-.8-1.2-2-1.2-3.5 0-1.6.4-2.8 1.2-3.8a4 4 0 0 1 3.3-1.4Zm6 .3h1.5v1.6c0-.3.4-.7.9-1.1a2.4 2.4 0 0 1 1.8-.7h.3v1.7a2.6 2.6 0 0 0-.5 0c-.8 0-1.4.2-1.8.7-.4.5-.7 1.1-.7 1.8v5.4h-1.5v-9.4Zm9.5-.2a4.3 4.3 0 0 1 3.4 1.7c.3.4.5 1 .6 1.6l.1 2.1h-6.9c0 1 .3 1.7.7 2.3.4.6 1 .9 2 .9a2.5 2.5 0 0 0 2.5-2h1.6a4.2 4.2 0 0 1-1.2 2.2c-.5.5-1 .8-1.8 1l-1.3.1a4 4 0 0 1-3-1.2 5 5 0 0 1-1.2-3.6 5 5 0 0 1 1.3-3.7 4 4 0 0 1 3.2-1.4Zm2.5 4.1c0-.6-.2-1.2-.5-1.6-.4-.8-1.1-1.1-2.1-1.1-.8 0-1.4.2-1.9.7a3 3 0 0 0-.7 2h5.2Zm3.6-5.3c0-.7.1-1.2.3-1.5.4-.5 1.1-.8 2.2-.8a5.6 5.6 0 0 1 .7 0v1.5a6 6 0 0 0-.6 0c-.5 0-.8 0-.9.3l-.1 2h1.6v1.2h-1.6v8.1h-1.6v-8.1h-1.3v-1.3h1.3v-1.4Zm4.3 1.4h1.5v1.6c.1-.3.4-.7 1-1.1a2.3 2.3 0 0 1 1.7-.7h.4v1.7a2.3 2.3 0 0 0-.5 0c-.8 0-1.4.2-1.9.7-.4.5-.6 1.1-.6 1.8v5.4h-1.6v-9.4Zm9.3 8.4c1 0 1.8-.4 2.2-1.2a6 6 0 0 0 .6-2.7 6 6 0 0 0-.4-2.1c-.5-.9-1.3-1.3-2.4-1.3-1 0-1.6.4-2 1.1-.5.7-.7 1.6-.7 2.7 0 1 .2 1.8.6 2.5.5.6 1.2 1 2.1 1Zm.1-8.7a4 4 0 0 1 3 1.2c1 .8 1.3 2 1.3 3.6 0 1.5-.3 2.8-1 3.8-.8 1-2 1.4-3.5 1.4-1.3 0-2.3-.4-3.1-1.3-.8-.8-1.1-2-1.1-3.5 0-1.6.4-2.8 1.2-3.8a4 4 0 0 1 3.2-1.4Zm5.9.3h1.5v1.3c.4-.5.9-1 1.4-1.2.5-.2 1-.3 1.6-.3 1.4 0 2.3.4 2.8 1.4.2.5.3 1.2.3 2.2v6h-1.6v-6c0-.5 0-1-.2-1.3-.3-.6-.8-.9-1.6-.9a3 3 0 0 0-.9.1c-.4.1-.8.4-1.1.8-.3.3-.5.6-.5 1l-.2 1.4v4.9h-1.5v-9.4Zm10-2.6h1.5v2.6h1.5v1.3h-1.5v6.1c0 .4.2.6.4.7h1.1v1.3l-.5.1h-.7c-.7 0-1.2-.1-1.5-.5-.2-.4-.4-.9-.4-1.5V127h-1.2v-1.3h1.2V123Zm-199.3 30.4c0 1 .2 1.9.6 2.5.4.7 1.1 1 2 1 .8 0 1.4-.3 1.9-.9.4-.6.7-1.5.7-2.7 0-1.2-.3-2-.8-2.6-.4-.6-1-.9-1.8-.9s-1.4.3-2 1c-.4.5-.6 1.4-.6 2.6Zm2.3-5a3 3 0 0 1 1.8.5l1 .9V145h1.5v13h-1.4v-1.3a3 3 0 0 1-1.3 1.2 3 3 0 0 1-1.7.4c-1 0-2-.4-2.8-1.3-.7-.9-1.1-2-1.1-3.5 0-1.4.3-2.6 1-3.6s1.7-1.5 3-1.5Zm10.2 0a4.3 4.3 0 0 1 3.4 1.7c.3.4.5 1 .6 1.6l.2 2.1h-7a4 4 0 0 0 .8 2.3c.4.6 1 .9 2 .9a2.5 2.5 0 0 0 2.5-2h1.5c0 .4-.1.8-.4 1.2a4 4 0 0 1-.7 1 4 4 0 0 1-1.8 1l-1.3.1a4 4 0 0 1-3-1.2 5 5 0 0 1-1.2-3.6c0-1.5.4-2.8 1.2-3.7a4 4 0 0 1 3.2-1.4Zm2.6 4.1-.5-1.6c-.4-.8-1.1-1.1-2.2-1.1-.7 0-1.3.2-1.8.7a3 3 0 0 0-.8 2h5.3Zm4-4 2.5 7.8 2.6-7.7h1.7l-3.5 9.4h-1.7l-3.5-9.4h1.8Zm11.7-.1a4.3 4.3 0 0 1 3.4 1.7c.3.4.5 1 .6 1.6l.2 2.1h-7a4 4 0 0 0 .8 2.3c.4.6 1 .9 2 .9a2.5 2.5 0 0 0 2.5-2h1.5c0 .4-.1.8-.4 1.2a4 4 0 0 1-.7 1 4 4 0 0 1-1.8 1l-1.3.1a4 4 0 0 1-3-1.2 5 5 0 0 1-1.2-3.6c0-1.5.4-2.8 1.2-3.7a4 4 0 0 1 3.2-1.4Zm2.6 4.1-.5-1.6c-.4-.8-1.1-1.1-2.2-1.1-.7 0-1.3.2-1.8.7a3 3 0 0 0-.8 2h5.3Zm3.2-7.4h1.6V158h-1.6v-13Zm7.4 11.9c1 0 1.7-.4 2.1-1.2a6 6 0 0 0 .6-2.7c0-.8-.1-1.6-.4-2.1-.5-.9-1.2-1.3-2.3-1.3-1 0-1.7.4-2.1 1.1-.5.7-.7 1.6-.7 2.7 0 1 .2 1.8.7 2.5.4.6 1.1 1 2 1Zm0-8.7a4 4 0 0 1 3 1.2c1 .8 1.3 2 1.3 3.6 0 1.5-.3 2.8-1 3.8-.8 1-2 1.4-3.5 1.4-1.3 0-2.3-.4-3-1.3-.8-.8-1.2-2-1.2-3.5 0-1.6.4-2.8 1.2-3.8a4 4 0 0 1 3.2-1.4Zm9.8 8.6c.8 0 1.4-.3 1.9-.9.5-.6.7-1.5.7-2.8 0-.7 0-1.4-.3-1.9-.4-1-1.2-1.6-2.3-1.6-1 0-1.8.6-2.2 1.7a6.7 6.7 0 0 0 0 4c.4 1 1.2 1.5 2.3 1.5Zm-4-8.3h1.5v1.3l1-1c.6-.4 1.2-.5 2-.5 1 0 1.9.4 2.6 1.2a5 5 0 0 1 1.2 3.5c0 2-.6 3.5-1.7 4.4-.6.5-1.4.8-2.3.8-.7 0-1.3-.1-1.8-.4l-1-1v4.9h-1.5v-13.2Zm9.7 0h1.6v1.3l1-1c.5-.3 1.1-.5 1.8-.5a3 3 0 0 1 1.8.5c.3.2.5.6.7 1 .4-.5.8-1 1.3-1.2.4-.2 1-.3 1.5-.3 1.3 0 2.2.4 2.6 1.3.3.5.4 1.2.4 2v6.3h-1.6v-6.5c0-.7-.2-1.1-.5-1.3-.3-.3-.7-.4-1.2-.4-.6 0-1.1.2-1.6.6-.4.5-.6 1.2-.6 2.1v5.5h-1.6v-6.1c0-.7-.1-1.1-.3-1.4-.2-.5-.7-.7-1.3-.7-.6 0-1.2.2-1.7.7a4 4 0 0 0-.7 2.5v5h-1.6v-9.4Zm18.6-.2a4.3 4.3 0 0 1 3.4 1.7c.3.4.5 1 .6 1.6l.1 2.1h-6.9c0 1 .3 1.7.7 2.3.4.6 1.1.9 2 .9a2.5 2.5 0 0 0 2.6-2h1.5c0 .4-.2.8-.4 1.2a4 4 0 0 1-.8 1c-.5.5-1 .8-1.8 1l-1.3.1a4 4 0 0 1-3-1.2 5 5 0 0 1-1.2-3.6c0-1.5.5-2.8 1.3-3.7a4 4 0 0 1 3.2-1.4Zm2.5 4.1c0-.6-.2-1.2-.4-1.6-.5-.8-1.2-1.1-2.2-1.1-.7 0-1.3.2-1.8.7a3 3 0 0 0-.8 2h5.2Zm3.2-4h1.5v1.4c.5-.5 1-1 1.5-1.2.5-.2 1-.3 1.6-.3 1.4 0 2.3.4 2.7 1.4.3.5.4 1.2.4 2.2v6h-1.6v-6c0-.5 0-1-.3-1.3-.2-.6-.8-.9-1.5-.9l-1 .1c-.3.1-.7.4-1 .8a2 2 0 0 0-.6 1v6.3h-1.7v-9.4Zm10-2.5h1.6v2.6h1.5v1.3h-1.5v6.1c0 .4.1.6.3.7h1.2v1.3l-.6.1a5 5 0 0 1-.6 0c-.7 0-1.2-.1-1.5-.5-.3-.4-.4-.9-.4-1.5V150h-1.3v-1.3h1.3V146Zm13 2.4a4.3 4.3 0 0 1 3.3 1.7c.3.4.5 1 .6 1.6l.2 2.1h-7c0 1 .3 1.7.7 2.3.5.6 1.1.9 2 .9a2.6 2.6 0 0 0 2.6-2h1.5c0 .4-.2.8-.4 1.2a4 4 0 0 1-.8 1c-.4.5-1 .8-1.7 1l-1.3.1a4 4 0 0 1-3-1.2 5 5 0 0 1-1.2-3.6c0-1.5.4-2.8 1.2-3.7a4 4 0 0 1 3.2-1.4Zm2.4 4.1c0-.6-.2-1.2-.4-1.6-.5-.8-1.2-1.1-2.2-1.1-.7 0-1.3.2-1.8.7a3 3 0 0 0-.8 2h5.2Zm3.3-4h1.5v1.4c.4-.5.9-1 1.4-1.2.5-.2 1-.3 1.6-.3 1.4 0 2.3.4 2.7 1.4.3.5.4 1.2.4 2.2v6h-1.6v-6c0-.5 0-1-.2-1.3-.3-.6-.8-.9-1.6-.9l-.9.1c-.4.1-.8.4-1.1.8a2 2 0 0 0-.6 1v6.3h-1.6v-9.4Zm10.4 0 2.5 7.8 2.6-7.7h1.8l-3.6 9.4h-1.7l-3.5-9.4h1.9Zm7.9.1h1.6v9.4h-1.6v-9.4Zm0-3.5h1.6v1.8h-1.6V145Zm3.6 3.5h1.6v1.6c0-.3.4-.7.8-1.1a2.3 2.3 0 0 1 1.9-.7h.3v1.7a2.2 2.2 0 0 0-.5 0c-.8 0-1.4.2-1.8.7-.5.5-.7 1.1-.7 1.8v5.4h-1.6v-9.4Zm9.4 8.4c1 0 1.7-.4 2.1-1.2a6 6 0 0 0 .6-2.7c0-.8-.1-1.6-.4-2.1-.5-.9-1.2-1.3-2.3-1.3-1 0-1.7.4-2.1 1.1-.5.7-.7 1.6-.7 2.7 0 1 .2 1.8.7 2.5.4.6 1.1 1 2 1Zm0-8.7c1.2 0 2.3.4 3.1 1.2a5 5 0 0 1 1.3 3.6c0 1.5-.4 2.8-1.1 3.8-.8 1-2 1.4-3.5 1.4-1.3 0-2.3-.4-3-1.3-.8-.8-1.2-2-1.2-3.5 0-1.6.4-2.8 1.2-3.8a4 4 0 0 1 3.2-1.4Zm5.9.3h1.5v1.3c.4-.5 1-1 1.4-1.2.5-.2 1-.3 1.7-.3 1.3 0 2.2.4 2.7 1.4.2.5.4 1.2.4 2.2v6h-1.6v-6c0-.5-.1-1-.3-1.3-.3-.6-.8-.9-1.5-.9l-1 .1c-.4.1-.8.4-1 .8-.4.3-.5.6-.6 1l-.1 1.4v4.9h-1.6v-9.4Zm9.6 0h1.6v1.3a5 5 0 0 1 1-1 3 3 0 0 1 1.8-.5 3 3 0 0 1 1.8.5c.3.2.5.6.7 1a3.3 3.3 0 0 1 2.9-1.5c1.2 0 2 .4 2.5 1.3.3.5.4 1.2.4 2v6.3h-1.6v-6.5c0-.7-.2-1.1-.5-1.3-.3-.3-.7-.4-1.1-.4-.7 0-1.2.2-1.7.6-.4.5-.6 1.2-.6 2.1v5.5h-1.6v-6.1a3 3 0 0 0-.3-1.4c-.2-.5-.6-.7-1.3-.7-.6 0-1.1.2-1.6.7-.5.5-.8 1.3-.8 2.5v5h-1.5v-9.4Zm18.6-.2a4.3 4.3 0 0 1 3.4 1.7c.3.4.5 1 .6 1.6l.2 2.1h-7c0 1 .3 1.7.7 2.3.5.6 1.1.9 2 .9a2.5 2.5 0 0 0 2.6-2h1.5a4.2 4.2 0 0 1-1.2 2.2c-.4.5-1 .8-1.8 1l-1.2.1a4 4 0 0 1-3-1.2 5 5 0 0 1-1.2-3.6c0-1.5.4-2.8 1.2-3.7a4 4 0 0 1 3.2-1.4Zm2.5 4.1a4 4 0 0 0-.4-1.6c-.5-.8-1.2-1.1-2.2-1.1-.7 0-1.3.2-1.8.7a3 3 0 0 0-.8 2h5.2Zm3.3-4h1.4v1.4c.5-.5 1-1 1.5-1.2.5-.2 1-.3 1.6-.3 1.4 0 2.3.4 2.7 1.4.3.5.4 1.2.4 2.2v6h-1.6v-6c0-.5 0-1-.2-1.3-.3-.6-.8-.9-1.6-.9l-.9.1c-.4.1-.8.4-1.1.8a2 2 0 0 0-.6 1v6.3h-1.7v-9.4Zm10-2.5h1.5v2.6h1.5v1.3h-1.5v6.1c0 .4.1.6.4.7h1.1v1.3a3.7 3.7 0 0 1-1.2.1c-.7 0-1.2-.1-1.5-.5-.3-.4-.4-.9-.4-1.5V150h-1.3v-1.3h1.3V146Zm4.6 10h1.9v2h-1.9v-2Z"/>
  <mask id="h" width="69" height="75" x="1159" y="190" maskUnits="userSpaceOnUse" style="mask-type:alpha">
    <path fill="#fff" d="M1207.9 264.6a4 4 0 0 0 3.4-.2l14.2-7.4a4.8 4.8 0 0 0 2.5-4.3v-50.5a5 5 0 0 0-2.5-4.3l-14.2-7.4a4 4 0 0 0-4.9.9l-27.2 27-11.8-9.8c-1.1-.9-2.6-.8-3.7.2l-3.8 3.8a3.3 3.3 0 0 0 0 4.6l10.3 10.3-10.3 10.2a3.3 3.3 0 0 0 0 4.6l3.8 3.8c1 1 2.6 1 3.7.2l11.8-9.8 27.2 27c.4.5 1 .9 1.5 1Zm2.8-54.2-20.6 17 20.6 17.1v-34.1Z"/>
  </mask>
  <g mask="url(#h)">
    <path fill="#0065A9" d="m1225.6 198-14.3-7.5a4 4 0 0 0-4.8.9l-46.6 46.3a3.3 3.3 0 0 0 0 4.6l3.8 3.8c1 1 2.6 1 3.7.2l56-46.4c1.9-1.6 4.6-.1 4.6 2.5v-.2a5 5 0 0 0-2.4-4.3Z"/>
    <path fill="#007ACC" d="m1225.6 257-14.3 7.4a4 4 0 0 1-4.8-.9l-46.6-46.3a3.3 3.3 0 0 1 0-4.6l3.8-3.8c1-1 2.6-1 3.7-.2l56 46.4c1.9 1.6 4.6.1 4.6-2.4v.1a5 5 0 0 1-2.4 4.3Z"/>
    <path fill="#1F9CF0" d="M1211.3 264.4a4 4 0 0 1-4.9-.9c1.6 1.8 4.3.5 4.3-2v-68.2c0-2.4-2.7-3.7-4.3-2a4 4 0 0 1 5-.8l14.1 7.4a5 5 0 0 1 2.5 4.3v50.5c0 1.9-1 3.5-2.5 4.3l-14.2 7.4Z"/>
    <path fill="url(#i)" fill-opacity=".3" d="M1207.9 264.6a4 4 0 0 0 3.4-.2l14.2-7.4a4.8 4.8 0 0 0 2.5-4.3v-50.5a5 5 0 0 0-2.5-4.3l-14.2-7.4a4 4 0 0 0-4.9.9l-27.2 27-11.8-9.8c-1.1-.9-2.6-.8-3.7.2l-3.8 3.8a3.3 3.3 0 0 0 0 4.6l10.3 10.3-10.3 10.2a3.3 3.3 0 0 0 0 4.6l3.8 3.8c1 1 2.6 1 3.7.2l11.8-9.8 27.2 27c.4.5 1 .9 1.5 1Zm2.8-54.2-20.6 17 20.6 17.1v-34.1Z"/>
  </g>
  <circle cx="1194.5" cy="50.5" r="14.5" fill="#000"/>
  <path fill="#fff" d="m1194.3 50-.8.1c-.3.2-.6.4-.8.8l-2.1-.1.8-6.7h6.7v2h-5l-.4 2.7.9-.5 1.2-.2c1 0 1.9.3 2.6 1 .8.7 1.1 1.6 1.1 3 0 1-.3 2-1 2.9-.7.9-1.8 1.3-3.2 1.3-1.2 0-2.1-.3-2.8-1a3.6 3.6 0 0 1-1.3-2.5h2.4c0 .5.3.9.5 1.2.3.3.7.4 1.2.4.6 0 1-.2 1.3-.6.3-.4.5-1 .5-1.6 0-.6-.2-1.1-.4-1.5-.3-.5-.8-.7-1.4-.7Z"/>
  <defs>
    <linearGradient id="c" x1="366.4" x2="392.4" y1="205.3" y2="216.3" gradientUnits="userSpaceOnUse">
      <stop stop-color="#2368C4"/>
      <stop offset="1" stop-color="#1248AE"/>
    </linearGradient>
    <linearGradient id="f" x1="400" x2="420.7" y1="196.4" y2="218.3" gradientUnits="userSpaceOnUse">
      <stop stop-color="#18874E"/>
      <stop offset="1" stop-color="#0B6832"/>
    </linearGradient>
    <linearGradient id="g" x1="407" x2="407" y1="216" y2="265" gradientUnits="userSpaceOnUse">
      <stop stop-color="#73D8FF"/>
      <stop offset="1" stop-color="#59C6F6"/>
    </linearGradient>
    <linearGradient id="i" x1="1193.5" x2="1193.5" y1="190" y2="264.9" gradientUnits="userSpaceOnUse">
      <stop stop-color="#fff"/>
      <stop offset="1" stop-color="#fff" stop-opacity="0"/>
    </linearGradient>
    <clipPath id="a">
      <path fill="#fff" d="m362.7 196.6 37.2-13.6 13.5 37.2-37.1 13.6z"/>
    </clipPath>
    <clipPath id="d">
      <path fill="#fff" d="m400 186.4 40.4 2.3-2.2 39.5-40.4-2.2z"/>
    </clipPath>
    <pattern id="b" width="1" height="1" patternContentUnits="objectBoundingBox">
      <use xlink:href="#j" transform="scale(0)"/>
    </pattern>
    <pattern id="e" width="1" height="1" patternContentUnits="objectBoundingBox">
      <use xlink:href="#k" transform="scale(0)"/>
    </pattern>
  </defs>
</svg>
