<svg xmlns="http://www.w3.org/2000/svg" xmlns:xlink="http://www.w3.org/1999/xlink" fill="none" viewBox="0 0 768 432">
  <defs>
    <path id="b" fill="#fff" d="M0 0h768v432H0z"/>
  </defs>
  <g clip-path="url(#a)">
    <use xlink:href="#b"/>
    <rect width="173" height="38" x="66" y="92" fill="#fff" stroke="#CB361D" stroke-width="2" rx="7"/>
    <path fill="#000" d="M88.2 114.1h2v1.9h-2v-1.9Zm9.6-.1c0 .4-.3.8-.6 1.2-.6.7-1.5 1-2.5 1s-1.7-.3-2.4-.8c-.6-.6-1-1.5-1-2.8 0-1.2.3-2.1 1-2.7.5-.7 1.3-1 2.3-1 .6 0 1.1.1 1.6.3.4.2.8.6 1.1 1 .3.5.4 1 .5 1.5v1.3h-4.7c0 .7.3 1.2.7 1.5l.9.3c.4 0 .7-.1 1-.4l.2-.4h1.9Zm-1.8-2.2c0-.4-.2-.8-.4-1-.3-.3-.6-.4-1-.4s-.7.1-1 .4a2 2 0 0 0-.4 1H96Zm3.1-5.2h1.9v9.4h-2v-9.4Zm8.4 2.8c.5.3.8 1 1 1.8h-1.9c0-.2 0-.4-.2-.6-.2-.2-.5-.3-1-.3-.4 0-.7 0-.8.2-.2 0-.3.2-.3.4s.1.3.3.4l1.9.5c.7.2 1.2.5 1.6.8.3.4.5.8.5 1.3 0 .7-.2 1.3-.7 1.7a4 4 0 0 1-2.4.6c-1.1 0-1.9-.2-2.4-.7-.5-.4-.8-1-.8-1.7h1.8c0 .3.2.5.3.7.2.2.6.3 1.2.3l.9-.1c.2-.1.3-.3.3-.5s0-.4-.3-.5l-1.8-.5a4 4 0 0 1-1.7-.7c-.3-.3-.5-.7-.5-1.3 0-.6.3-1.2.8-1.6a3 3 0 0 1 2-.7 4 4 0 0 1 2.2.5Zm4.3-.3v6.9H110v-7h1.8Zm0-2.5v1.7H110v-1.7h1.8Zm7.7 7.4c0 .4-.3.8-.6 1.2-.6.7-1.5 1-2.5 1s-1.7-.3-2.4-.8c-.6-.6-1-1.5-1-2.8 0-1.2.3-2.1 1-2.7.6-.7 1.3-1 2.3-1 .6 0 1.1.1 1.6.3a3 3 0 0 1 1.6 2.5v1.3H115c0 .7.2 1.2.6 1.5.3.2.6.3 1 .3.3 0 .6-.1.8-.4l.4-.4h1.8Zm-1.8-2.2c0-.4-.2-.8-.4-1-.3-.3-.6-.4-1-.4s-.7.1-1 .4a2 2 0 0 0-.4 1h2.8Zm2.6-.3h3.6v1.7h-3.6v-1.7Zm8.6 4.7c-.6 0-1-.1-1.4-.4-.2 0-.4-.3-.6-.7v.9H125v-9.3h1.8v3.3l.7-.8c.4-.2.8-.3 1.3-.3.9 0 1.6.4 2.1 1 .5.7.8 1.5.8 2.6 0 1-.3 2-.8 2.6-.5.7-1.2 1-2 1Zm1-3.6c0-.4 0-.9-.2-1.2-.2-.6-.7-.9-1.3-.9-.7 0-1.1.3-1.4.9l-.2 1.2c0 .6.2 1.1.4 1.5.3.4.7.6 1.2.6s.9-.2 1.1-.6c.3-.3.4-.8.4-1.5Zm3.5-2.8c.4-.6 1.3-.9 2.4-.9.8 0 1.4.2 2 .5.6.3 1 .8 1 1.7v3.1a28.3 28.3 0 0 0 0 1.3l.3.2v.3h-2v-.4l-.1-.4-.9.7c-.4.2-.8.3-1.3.3-.6 0-1.2-.2-1.6-.5a2 2 0 0 1-.6-1.5c0-.9.4-1.5 1-1.9l1.6-.4.6-.1.7-.2c.3 0 .4-.2.4-.5s0-.5-.3-.6l-.8-.1c-.5 0-.8 0-1 .3l-.2.6h-1.8c0-.6.3-1 .6-1.5Zm1.3 4.9.6.2a2 2 0 0 0 1.1-.3c.3-.3.5-.7.5-1.3v-.7a2 2 0 0 1-.8.3l-.4.1c-.4 0-.7.2-.8.3-.3.1-.5.4-.5.7 0 .3.1.6.3.7Zm10.4-5.3c.5.3.9 1 1 1.8h-1.9c0-.2 0-.4-.2-.6-.2-.2-.5-.3-1-.3-.4 0-.7 0-.8.2-.2 0-.3.2-.3.4s.1.3.3.4l1.9.5c.7.2 1.2.5 1.6.8.3.4.5.8.5 1.3 0 .7-.2 1.3-.7 1.7a4 4 0 0 1-2.4.6c-1 0-1.9-.2-2.4-.7-.5-.4-.8-1-.8-1.7h1.8c0 .3.2.5.3.7.2.2.6.3 1.2.3l.9-.1c.2-.1.3-.3.3-.5s0-.4-.3-.5l-1.8-.5a4 4 0 0 1-1.7-.7c-.3-.3-.5-.7-.5-1.3 0-.6.3-1.2.8-1.6a3 3 0 0 1 2-.7 4 4 0 0 1 2.2.5Zm8.4 4.6c0 .4-.3.8-.7 1.2-.5.7-1.4 1-2.4 1s-1.7-.3-2.4-.8c-.6-.6-1-1.5-1-2.8 0-1.2.3-2.1 1-2.7.5-.7 1.3-1 2.3-1 .6 0 1 .1 1.6.3.4.2.8.6 1 1 .4.5.5 1 .6 1.5v1.3h-4.7c0 .7.3 1.2.7 1.5.2.2.5.3.9.3s.7-.1 1-.4l.2-.4h1.9Zm-1.8-2.2c0-.4-.2-.8-.4-1-.3-.3-.6-.4-1-.4s-.7.1-1 .4a2 2 0 0 0-.4 1h2.8Zm2.6-.3h3.6v1.7h-3.6v-1.7Zm11.1-4.8v9.3h-1.7v-1c-.3.5-.6.8-1 1l-1.1.2c-.8 0-1.5-.3-2-1-.6-.6-1-1.5-1-2.5 0-1.2.4-2 .9-2.8.5-.6 1.3-1 2.2-1a2.2 2.2 0 0 1 1.9 1v-3.2h1.8Zm-4.8 5.9c0 .6 0 1.1.3 1.5.3.4.7.6 1.2.6s.9-.2 1.1-.6c.3-.4.4-.9.4-1.5 0-.8-.2-1.4-.6-1.8-.3-.2-.6-.3-1-.3s-.8.2-1 .6c-.3.4-.4.9-.4 1.5ZM173 114c0 .4-.3.8-.6 1.2-.6.7-1.5 1-2.5 1s-1.7-.3-2.4-.8c-.6-.6-1-1.5-1-2.8 0-1.2.3-2.1 1-2.7.6-.7 1.3-1 2.3-1 .6 0 1.1.1 1.6.3a3 3 0 0 1 1.6 2.5v1.3h-4.6c0 .7.2 1.2.6 1.5.3.2.6.3 1 .3.3 0 .6-.1.8-.4l.4-.4h1.8Zm-1.8-2.2c0-.4-.2-.8-.4-1-.3-.3-.6-.4-1-.4s-.7.1-1 .4a2 2 0 0 0-.4 1h2.8Zm7.9-2.4c.5.3.8 1 1 1.8h-1.9c0-.2 0-.4-.2-.6-.2-.2-.5-.3-1-.3-.4 0-.7 0-.8.2-.2 0-.3.2-.3.4s0 .3.3.4l1.9.5c.7.2 1.2.5 1.6.8.3.4.5.8.5 1.3 0 .7-.2 1.3-.8 1.7-.5.4-1.3.6-2.3.6-1.1 0-2-.2-2.4-.7-.5-.4-.8-1-.8-1.7h1.8c0 .3.1.5.3.7.2.2.6.3 1.2.3l.9-.1c.2-.1.3-.3.3-.5s-.1-.4-.3-.5l-1.9-.5a4 4 0 0 1-1.6-.7c-.3-.3-.5-.7-.5-1.3 0-.6.3-1.2.8-1.6a3 3 0 0 1 2-.7 4 4 0 0 1 2.2.5Zm4.3-.3v6.9h-1.8v-7h1.8Zm0-2.5v1.7h-1.8v-1.7h1.8Zm3.7 10.6c.2.2.5.3 1 .3.7 0 1.1-.3 1.3-.7.2-.3.2-.7.2-1.4v-.4l-.5.6c-.4.3-.9.4-1.4.4-1 0-1.6-.3-2.2-.9-.5-.6-.8-1.5-.8-2.5s.3-2 .8-2.6c.5-.7 1.3-1 2.2-1h.9c.4.3.8.6 1 1v-1h1.8v6.6c0 1-.1 1.6-.4 2-.5.8-1.5 1.2-3 1.2a4 4 0 0 1-2.2-.5 2 2 0 0 1-.9-1.5h2l.2.4Zm-.3-3.6c.3.6.7 1 1.3 1 .5 0 .8-.2 1.1-.6.3-.3.5-.8.5-1.5 0-.6-.2-1.1-.5-1.5-.2-.3-.6-.5-1-.5-.7 0-1.1.3-1.4.9l-.2 1.2c0 .4 0 .7.2 1Zm9.6-3.2c-.6 0-1 .3-1.3.8l-.2 1v3.8h-1.8v-7h1.8v1.1l.6-.8c.4-.2.9-.4 1.5-.4.7 0 1.3.2 1.7.6.5.4.7 1 .7 1.8v4.7h-1.9v-4.2l-.1-.8c-.2-.4-.5-.6-1-.6Zm9.4 7.7a2 2 0 0 1-.6-1.5v-2c0-.6-.2-1-.5-1.3l-.9-.4v-.7l1-.5c.2-.3.4-.7.4-1.3V108c.2-.4.4-.8.7-1 .3-.2.6-.4 1-.4l1-.1v1c-.4 0-.6.2-.7.3-.2.2-.3.5-.3 1v1.5c0 .5 0 .9-.2 1.1-.2.5-.7.9-1.3 1.2.6.2 1 .5 1.2.8.2.3.3.7.3 1.3v1.6c0 .4 0 .8.3 1l.7.3v1h-.5a3 3 0 0 1-1.6-.5Zm8-9.3c0-.4 0-.8-.2-1l-.8-.3v-1h1l1 .5c.3.2.5.5.6.8l.1.9v1.7c0 .6.2 1 .4 1.3l1 .5v.7l-.9.4c-.3.3-.5.7-.5 1.3v2a2 2 0 0 1-.6 1.5 3 3 0 0 1-1.6.5h-.5v-1c.3 0 .5-.2.7-.3.2-.2.3-.6.3-1v-1.6c0-.6.1-1 .4-1.4.2-.3.6-.5 1-.7-.5-.3-.9-.6-1-1-.3-.3-.4-.7-.4-1.3v-1.5Zm-106-29.2c.6 0 1 0 1.3-.2.4-.2.7-.7.7-1.3 0-.6-.3-1-.8-1.2l-1.2-.2h-2.3v3h2.3Zm.5 4.3c.7 0 1.3-.2 1.6-.7.2-.2.3-.6.3-1 0-.7-.3-1.1-.9-1.4l-1.3-.2h-2.5V84h2.8Zm-4-8.2h4c1 0 1.9.3 2.3 1 .3.3.4.8.4 1.3 0 .6-.1 1-.5 1.4l-.7.6 1 .6c.5.4.7 1 .7 1.7 0 .6-.2 1.1-.6 1.6-.5.7-1.4 1.1-2.7 1.1h-4v-9.3Zm9.4 7.5c0 .3.1.6.4.8.2.2.5.3.8.3l1.2-.3c.6-.3 1-.8 1-1.5v-1a2 2 0 0 1-.6.3h-.6l-.7.2-1 .2c-.3.2-.5.6-.5 1Zm2.8-2.3c.2 0 .4-.2.5-.3V80c0-.4 0-.7-.3-.8-.3-.2-.7-.3-1.2-.3-.6 0-1 .2-1.3.5l-.3.8h-1c0-.9.3-1.4.8-1.8.5-.3 1.1-.5 1.8-.5.8 0 1.5.2 2 .5s.7.8.7 1.4V84l.4.1a2.6 2.6 0 0 0 .4 0v.8l-.5.1h-.3c-.4 0-.7 0-.9-.4l-.2-.6a3.1 3.1 0 0 1-2.4 1.1c-.7 0-1.2-.2-1.6-.5a2 2 0 0 1-.6-1.5c0-.6.2-1.1.6-1.5.4-.3 1-.5 1.6-.6l1.8-.2Zm4.3 2c0 .3 0 .6.2.8.3.4.8.6 1.5.6.5 0 .8-.1 1.2-.3.3-.2.4-.4.4-.8 0-.3 0-.5-.3-.7l-1-.3-1-.3-1.2-.4c-.5-.3-.8-.8-.8-1.3 0-.7.3-1.2.7-1.6a3 3 0 0 1 2-.6c1 0 1.7.3 2.1 1 .3.3.4.7.4 1.2h-1c0-.3-.2-.5-.3-.7-.3-.3-.7-.5-1.4-.5-.4 0-.7 0-1 .2a1 1 0 0 0-.3.7c0 .3.2.5.4.7l.8.3.8.2 1.6.6c.4.2.7.7.7 1.3 0 .6-.3 1.2-.7 1.6-.5.4-1.2.7-2.1.7-1 0-1.7-.3-2.2-.7-.4-.5-.6-1-.6-1.7h1Zm8.6-4.9a3 3 0 0 1 2.4 1.3c.3.3.4.7.5 1.2l.1 1.5h-5c0 .7.2 1.2.5 1.6.3.4.8.7 1.4.7a1.8 1.8 0 0 0 1.9-1.4h1.1l-.3.8a2.7 2.7 0 0 1-1.8 1.4 4 4 0 0 1-1 .1c-.8 0-1.5-.3-2.1-.9-.6-.6-1-1.5-1-2.6 0-1 .4-2 1-2.6a3 3 0 0 1 2.3-1Zm1.8 3a3 3 0 0 0-.3-1.1c-.3-.6-.8-.9-1.6-.9-.5 0-1 .2-1.3.6-.3.4-.5.9-.5 1.5h3.7Zm6.5-4.7h1.1v1.9h1.1v1h-1v4.4c0 .2 0 .4.2.4l.4.1h.4v.9h-.4l-.5.1c-.5 0-.9-.1-1-.4-.2-.3-.3-.6-.3-1V79h-1v-.9h1v-1.9Zm6 8c.8 0 1.3-.3 1.6-.9.3-.6.4-1.2.4-2 0-.5 0-1-.3-1.5-.3-.6-.9-.9-1.6-.9a2 2 0 0 0-1.6.8 4 4 0 0 0-.4 2c0 .7.1 1.3.4 1.7.4.5.9.8 1.5.8Zm0-6.3a3 3 0 0 1 2.3.9c.6.6 1 1.4 1 2.6 0 1-.3 2-.9 2.7-.5.7-1.3 1-2.5 1a3 3 0 0 1-2.2-.9 4 4 0 0 1-.8-2.5c0-1.2.3-2.1.9-2.8a3 3 0 0 1 2.3-1Zm4.6-2.3h1V81l3-2.9h1.4l-2.6 2.5L154 85h-1.5l-2-3.4-1 .8V85h-1.1v-9.3Zm9.3 2.3a3 3 0 0 1 2.5 1.3l.4 1.2.1 1.5h-5c0 .7.2 1.2.5 1.6.3.4.8.7 1.4.7a1.8 1.8 0 0 0 1.9-1.4h1.1l-.3.8a2.7 2.7 0 0 1-1.8 1.4 4 4 0 0 1-1 .1c-.8 0-1.5-.3-2.1-.9-.6-.6-.9-1.5-.9-2.6 0-1 .3-2 .9-2.6a3 3 0 0 1 2.3-1Zm1.8 3a3 3 0 0 0-.3-1.1c-.3-.6-.8-.9-1.6-.9-.5 0-1 .2-1.3.6-.3.4-.5.9-.5 1.5h3.7Zm2.6-2.8h1.1v1a3 3 0 0 1 1-.9l1.2-.3c1 0 1.6.4 2 1 .2.4.3 1 .3 1.6V85h-1.2v-4.3c0-.4 0-.7-.2-1-.2-.4-.6-.6-1-.6h-.8l-.8.6-.4.7V85H162v-6.8Zm13.5-.2a3 3 0 0 1 1.9.6c.4.3.7 1 .8 1.9h-1a2 2 0 0 0-.5-1c-.3-.3-.7-.5-1.2-.5-.7 0-1.3.4-1.6 1-.2.6-.3 1.1-.3 1.8s.2 1.3.5 1.7c.3.5.7.7 1.3.7.5 0 .9-.1 1.1-.4.3-.3.5-.7.6-1.2h1.1c0 .9-.4 1.6-1 2a3 3 0 0 1-1.9.6c-.9 0-1.6-.3-2-1-.6-.6-.9-1.4-.9-2.4 0-1.2.3-2.1.9-2.8.6-.7 1.3-1 2.2-1Zm4-2.3h1V85h-1v-9.3Zm3.6 7.5c0 .3.2.6.4.8.3.2.5.3.9.3s.8-.1 1.1-.3c.7-.3 1-.8 1-1.5v-1a2 2 0 0 1-.6.3h-.6l-.7.2-1 .2c-.3.2-.5.6-.5 1Zm2.8-2.3c.3 0 .5-.2.5-.3l.1-.5c0-.4-.1-.7-.4-.8-.3-.2-.7-.3-1.2-.3-.6 0-1 .2-1.3.5l-.2.8h-1.1c0-.9.3-1.4.8-1.8.5-.3 1.1-.5 1.8-.5.8 0 1.5.2 2 .5s.7.8.7 1.4v4l.1.2.3.1a2.5 2.5 0 0 0 .4 0v.8l-.4.1h-.4c-.4 0-.7 0-.9-.4l-.2-.6a2 2 0 0 1-1 .8c-.4.2-.9.3-1.4.3-.6 0-1.1-.2-1.5-.5a2 2 0 0 1-.6-1.5c0-.6.2-1.1.5-1.5.4-.3 1-.5 1.6-.6l1.8-.2Zm4.3 2c0 .3.1.6.3.8.3.4.8.6 1.5.6.4 0 .8-.1 1-.3.4-.2.6-.4.6-.8 0-.3-.2-.5-.4-.7l-1-.3-.9-.3-1.3-.4c-.5-.3-.7-.8-.7-1.3 0-.7.2-1.2.7-1.6.4-.4 1-.6 1.8-.6 1 0 1.8.3 2.3 1 .2.3.4.7.4 1.2h-1.1a1 1 0 0 0-.3-.7c-.2-.3-.7-.5-1.3-.5-.5 0-.8 0-1 .2-.3.2-.4.4-.4.7 0 .3.2.5.5.7l.7.3.8.2c.8.2 1.4.4 1.6.6.5.2.7.7.7 1.3a2 2 0 0 1-.7 1.6c-.4.4-1.1.7-2 .7-1.1 0-1.8-.3-2.2-.7-.5-.5-.7-1-.7-1.7h1Zm6.5 0c0 .3.1.6.3.8.3.4.8.6 1.5.6.4 0 .8-.1 1-.3.4-.2.6-.4.6-.8 0-.3-.2-.5-.4-.7l-1-.3-.9-.3-1.3-.4c-.5-.3-.7-.8-.7-1.3 0-.7.2-1.2.7-1.6.4-.4 1-.6 1.8-.6 1 0 1.8.3 2.3 1 .2.3.4.7.4 1.2h-1.1a1 1 0 0 0-.3-.7c-.2-.3-.7-.5-1.3-.5-.5 0-.8 0-1 .2-.3.2-.4.4-.4.7 0 .3.2.5.5.7l.7.3.8.2c.8.2 1.4.4 1.6.6.5.2.7.7.7 1.3a2 2 0 0 1-.7 1.6c-.4.4-1.1.7-2 .7-1.1 0-1.8-.3-2.2-.7-.5-.5-.7-1-.7-1.7h1ZM83.5 52h-5.2V40.5h5.6c1.4 0 2.4.4 3 1.2.3.5.5 1 .5 1.8 0 .7-.2 1.2-.5 1.7l-1 .6c.7.2 1.1.6 1.4 1a3.4 3.4 0 0 1-2.2 5 8 8 0 0 1-1.6.2Zm0-5h-3v3h2.9c.5 0 .9 0 1.2-.2.5-.3.7-.7.7-1.4 0-.6-.2-1-.7-1.3a3 3 0 0 0-1.2-.2Zm1.1-2.3c.3-.2.5-.5.5-1s-.2-.9-.6-1c-.4-.2-.9-.2-1.4-.2h-2.5V45h2.8c.5 0 .9 0 1.2-.3Zm5.3-.3c.6-.7 1.6-1.1 3-1.1 1 0 1.8.2 2.5.5.8.4 1.1 1.1 1.1 2.1v4a37 37 0 0 0 .2 1.5l.3.3v.3h-2.4l-.2-.5V51l-1 .9c-.6.2-1.1.4-1.7.4-.8 0-1.4-.3-2-.7-.4-.4-.7-1-.7-1.9 0-1 .4-1.8 1.2-2.2.5-.3 1.1-.5 2-.6h.7l1-.3c.2-.1.4-.3.4-.6 0-.4-.1-.6-.4-.7-.2-.2-.6-.2-1-.2-.6 0-1 .1-1.1.4l-.4.7h-2.1c0-.7.3-1.3.6-1.8Zm1.7 6c.2.2.4.2.7.2.5 0 1 0 1.4-.4.4-.3.6-.8.6-1.5v-.8a2.6 2.6 0 0 1-1 .3l-.5.1-1 .3a1 1 0 0 0-.5 1c0 .4 0 .6.3.8Zm12.8-6.5c.6.4 1 1.1 1.1 2.2h-2.2l-.2-.7c-.3-.3-.7-.5-1.3-.5-.5 0-.8.1-1 .3-.2.1-.3.3-.3.5 0 .3 0 .4.3.6l2.3.6c.9.2 1.6.5 2 1 .4.3.7.9.7 1.5 0 .9-.4 1.6-1 2-.6.6-1.6.9-2.9.9-1.3 0-2.3-.3-3-.9-.6-.5-1-1.2-1-2.1h2.3c0 .4.2.7.3.8.3.3.8.5 1.6.5.4 0 .8 0 1-.2.3-.2.4-.4.4-.6 0-.3-.1-.5-.3-.6l-2.3-.7c-1-.2-1.7-.5-2-.9-.5-.3-.7-.8-.7-1.5 0-.8.3-1.4 1-2 .6-.6 1.5-.9 2.6-.9 1 0 1.9.3 2.6.7Zm10.3 5.6c0 .5-.3 1-.8 1.5-.7.9-1.7 1.3-3 1.3-1.1 0-2-.4-3-1a5 5 0 0 1-1.2-3.5c0-1.4.4-2.6 1.2-3.4a4 4 0 0 1 2.9-1.1c.7 0 1.3 0 1.9.4.6.2 1 .6 1.4 1.2.3.5.5 1.1.6 1.8l.1 1.7H109c0 .8.3 1.4.8 1.8.3.2.7.3 1.1.3.5 0 .8-.2 1.1-.4l.4-.6h2.3Zm-2.2-2.6c0-.6-.2-1-.5-1.3-.4-.4-.8-.5-1.2-.5-.5 0-1 .2-1.2.5-.3.3-.5.7-.6 1.3h3.5Zm16-6.4V52h-2.1v-1.2c-.4.5-.7.9-1.1 1.1a3 3 0 0 1-1.5.4c-1 0-1.9-.4-2.6-1.2-.6-.8-1-1.9-1-3.1a6 6 0 0 1 1-3.5c.7-.8 1.6-1.2 2.7-1.2a2.7 2.7 0 0 1 2.4 1.3v-4.1h2.2Zm-6 7.3c0 .8.2 1.4.5 1.9s.8.7 1.4.7c.6 0 1.1-.2 1.4-.7.4-.5.5-1 .5-1.8 0-1-.2-1.8-.8-2.3-.3-.2-.7-.4-1-.4-.7 0-1.2.3-1.5.8-.3.5-.5 1-.5 1.8Zm15.3 1.7c0 .5-.3 1-.7 1.5-.8.9-1.8 1.3-3.1 1.3-1 0-2-.4-2.9-1-.8-.8-1.2-1.9-1.2-3.5 0-1.4.4-2.6 1.1-3.4.8-.7 1.7-1.1 3-1.1.6 0 1.3 0 1.8.4.6.2 1 .6 1.4 1.2.4.5.6 1.1.7 1.8v1.7h-5.8c0 .8.3 1.4.8 1.8.3.2.7.3 1.1.3.5 0 .9-.2 1.2-.4l.4-.6h2.2Zm-2.2-2.6c0-.6-.2-1-.5-1.3-.3-.4-.7-.5-1.2-.5s-.9.2-1.2.5c-.3.3-.4.7-.5 1.3h3.4Zm9.7-3c.7.4 1 1.1 1.2 2.2h-2.3c0-.3 0-.5-.2-.7-.2-.3-.7-.5-1.2-.5s-.9.1-1 .3c-.3.1-.4.3-.4.5 0 .3.1.4.3.6l2.4.6c.8.2 1.5.5 2 1 .4.3.6.9.6 1.5 0 .9-.3 1.6-1 2-.6.6-1.5.9-2.8.9-1.4 0-2.4-.3-3-.9-.6-.5-1-1.2-1-2.1h2.3c0 .4.1.7.3.8.3.3.8.5 1.5.5.5 0 .8 0 1-.2.3-.2.5-.4.5-.6 0-.3-.1-.5-.4-.6l-2.3-.7c-1-.2-1.6-.5-2-.9-.4-.3-.6-.8-.6-1.5 0-.8.3-1.4 1-2 .5-.6 1.4-.9 2.5-.9 1 0 2 .3 2.6.7Zm5.4-.4V52h-2.3v-8.5h2.3Zm0-3v2h-2.3v-2h2.3Zm4.5 13c.3.2.7.3 1.2.3.8 0 1.4-.3 1.6-.8.2-.4.3-1 .3-1.7v-.6c-.2.4-.4.6-.7.8-.4.4-1 .5-1.7.5-1 0-2-.3-2.6-1.1-.7-.8-1-1.8-1-3.1s.3-2.4 1-3.2a3 3 0 0 1 2.6-1.3c.4 0 .8 0 1.1.2.6.2 1 .6 1.4 1.2v-1.2h2.1v8a5 5 0 0 1-.5 2.5c-.7 1-1.9 1.5-3.7 1.5-1 0-2-.2-2.7-.7-.6-.4-1-1-1.1-1.9h2.4c0 .3.2.5.3.6ZM155 49c.3.7.8 1 1.6 1 .5 0 1-.1 1.3-.5.4-.4.5-1 .5-1.9 0-.8-.1-1.4-.5-1.8-.3-.5-.8-.7-1.3-.7-.8 0-1.4.4-1.7 1.1a4 4 0 0 0-.2 1.5c0 .5 0 1 .3 1.3Zm11.7-4c-.7 0-1.3.4-1.5 1-.2.3-.3.8-.3 1.3V52h-2.2v-8.5h2.2v1.2l.8-.9c.4-.3 1-.5 1.7-.5.9 0 1.6.2 2.2.7.5.4.8 1.2.8 2.3V52H168v-5.2l-.1-1c-.3-.4-.7-.7-1.3-.7Zm14.1 5.3V52h-1c-1 0-1.8-.1-2.2-.5-.2-.3-.4-.7-.4-1.2V45H176v-1.5h1.1v-2.4h2.3v2.4h1.3V45h-1.3v5.2l.9.1h.4Zm8.6-5.8c.7.9 1 2 1 3.2a5 5 0 0 1-1 3.2c-.8.9-1.8 1.3-3.3 1.3-1.5 0-2.6-.4-3.3-1.3a5 5 0 0 1-1-3.2 5 5 0 0 1 1-3.2c.7-1 1.8-1.4 3.3-1.4a4 4 0 0 1 3.3 1.4Zm-3.3.5c-.7 0-1.2.2-1.5.7-.4.4-.5 1.1-.5 2 0 .8.1 1.5.5 2 .3.4.8.6 1.5.6.6 0 1.1-.2 1.5-.7.3-.4.5-1 .5-2a4 4 0 0 0-.5-2 2 2 0 0 0-1.5-.6Zm13.8 6.9H197l-2-3.6-1 1V52h-2V40.5h2.2v6.2l2.8-3.2h2.7l-3 3.3 3.2 5.2Zm8.3-2.5c0 .5-.3 1-.7 1.5-.8.9-1.8 1.3-3.1 1.3-1 0-2-.4-2.9-1-.8-.8-1.2-1.9-1.2-3.5 0-1.4.4-2.6 1.1-3.4a4 4 0 0 1 3-1.1c.6 0 1.3 0 1.8.4.6.2 1 .6 1.4 1.2.4.5.6 1.1.7 1.8v1.7h-5.8c0 .8.3 1.4.8 1.8.3.2.7.3 1.1.3.5 0 .9-.2 1.2-.4l.4-.6h2.2Zm-2.2-2.6a1.6 1.6 0 0 0-1.7-1.8c-.5 0-1 .2-1.2.5-.3.3-.5.7-.5 1.3h3.4Zm7.9-1.8c-.8 0-1.3.4-1.6 1l-.2 1.3V52h-2.2v-8.5h2.1v1.2l.8-.9c.5-.3 1-.5 1.8-.5.9 0 1.6.2 2.1.7.6.4.9 1.2.9 2.3V52h-2.3v-5.2c0-.4 0-.8-.2-1-.2-.4-.6-.7-1.2-.7Zm11.6-1.2c.7.4 1 1.1 1.2 2.2h-2.3c0-.3 0-.5-.2-.7-.3-.3-.7-.5-1.3-.5-.4 0-.8.1-1 .3-.2.1-.3.3-.3.5 0 .3.1.4.3.6l2.3.6c1 .2 1.6.5 2 1 .5.3.7.9.7 1.5 0 .9-.3 1.6-1 2-.6.6-1.6.9-2.9.9-1.3 0-2.3-.3-3-.9-.6-.5-.9-1.2-.9-2.1h2.3c0 .4.1.7.3.8.3.3.8.5 1.5.5.4 0 .8 0 1-.2.3-.2.4-.4.4-.6 0-.3 0-.5-.3-.6l-2.3-.7c-1-.2-1.6-.5-2-.9-.4-.3-.6-.8-.6-1.5 0-.8.3-1.4.9-2 .6-.6 1.5-.9 2.6-.9 1 0 2 .3 2.6.7Z"/>
    <rect width="188" height="32" x="58" y="193" fill="#fff" stroke="#CB361D" stroke-width="2" rx="16"/>
    <path fill="#000" d="M76.8 209.5h3.6v1.7h-3.6v-1.7Zm4.3 0h3.6v1.7h-3.6v-1.7Zm9.6-2.1c.6.3.9 1 1 1.8h-1.8l-.2-.6c-.2-.2-.6-.3-1-.3s-.7 0-.9.2c-.2 0-.2.2-.2.4s0 .3.2.4l1.9.5a4 4 0 0 1 1.6.8c.4.4.6.8.6 1.3 0 .7-.3 1.3-.8 1.7-.5.4-1.3.6-2.4.6-1 0-1.9-.2-2.4-.7-.5-.4-.8-1-.8-1.7h1.9l.2.7c.2.2.7.3 1.3.3l.8-.1c.2-.1.3-.3.3-.5s0-.4-.2-.5l-2-.5a4 4 0 0 1-1.6-.7c-.3-.3-.5-.7-.5-1.3 0-.6.3-1.2.8-1.6a3 3 0 0 1 2.1-.7 4 4 0 0 1 2.1.5Zm8.8 2.5v4.1h-1.9v-4.2c0-.4 0-.7-.2-1-.1-.2-.5-.4-1-.4-.4 0-.8.2-1 .5-.3.3-.4.8-.4 1.4v3.7h-1.8v-9.3H95v3.3c.3-.4.6-.7 1-.9l1-.2c.4 0 .8 0 1.2.2a2 2 0 0 1 1.2 1.5v1.3Zm2-2c.4-.7 1.2-1 2.4-1 .7 0 1.4.2 2 .5.6.3.9.8.9 1.7v3.1a28.3 28.3 0 0 0 0 1.3l.4.2v.3h-2l-.1-.4v-.4l-1 .7c-.3.2-.8.3-1.3.3-.6 0-1.1-.2-1.5-.5a2 2 0 0 1-.6-1.5c0-.9.3-1.5 1-1.9.3-.2.9-.3 1.5-.4l.7-.1.7-.2c.2 0 .4-.2.4-.5s-.1-.5-.3-.6l-.9-.1c-.4 0-.7 0-.9.3l-.3.6H101c0-.6.2-1 .5-1.5Zm1.3 4.8.6.2c.4 0 .7-.1 1-.3.4-.3.6-.7.6-1.3v-.7a2 2 0 0 1-.9.3l-.4.1c-.3 0-.6.2-.8.3-.3.1-.4.4-.4.7 0 .3 0 .6.3.7Zm11.4-4.9c.5.6.8 1.5.8 2.7 0 1.2-.3 2.1-.8 2.7-.6.7-1.3 1-2.1 1-.6 0-1-.1-1.4-.4l-.6-.7v3.6h-1.8v-9.6h1.8v1l.6-.7a2.4 2.4 0 0 1 3.4.5Zm-1 2.7c0-.5-.2-1-.4-1.4-.3-.4-.7-.6-1.2-.6-.7 0-1.1.3-1.3 1-.2.3-.2.7-.2 1.2 0 .8.2 1.4.6 1.7l.9.3c.5 0 .9-.2 1.2-.6.2-.4.4-1 .4-1.6Zm9 1.5c0 .4-.2.8-.6 1.2-.6.7-1.4 1-2.5 1-.9 0-1.6-.3-2.3-.8-.7-.6-1-1.5-1-2.8 0-1.2.3-2.1.9-2.7a3 3 0 0 1 2.4-1l1.5.3c.5.2.9.6 1.2 1l.5 1.5v1.3h-4.7c0 .7.3 1.2.7 1.5.2.2.5.3.9.3.3 0 .6-.1.9-.4l.3-.4h1.9Zm-1.7-2.2c0-.4-.2-.8-.5-1-.2-.3-.6-.4-1-.4s-.7.1-1 .4a2 2 0 0 0-.3 1h2.8Zm2.5-.3h3.7v1.7H123v-1.7Zm8.7 4.7c-.6 0-1-.1-1.4-.4-.2 0-.5-.3-.7-.7v.9h-1.8v-9.3h1.8v3.3l.8-.8c.3-.2.7-.3 1.2-.3 1 0 1.7.4 2.2 1 .5.7.7 1.5.7 2.6 0 1-.2 2-.7 2.6-.5.7-1.2 1-2.1 1Zm1-3.6-.2-1.2c-.3-.6-.7-.9-1.4-.9-.6 0-1 .3-1.3.9-.2.3-.2.7-.2 1.2 0 .6.1 1.1.4 1.5.2.4.6.6 1.2.6.4 0 .8-.2 1-.6.3-.3.4-.8.4-1.5Zm9-2.6c.5.7.8 1.6.8 2.6a4 4 0 0 1-.9 2.6c-.6.7-1.5 1-2.6 1-1.2 0-2.1-.3-2.7-1a4 4 0 0 1-.9-2.6c0-1 .3-2 .9-2.6.6-.8 1.5-1.1 2.7-1.1 1.1 0 2 .3 2.6 1Zm-2.8.4c-.5 0-.9.2-1.2.6-.3.3-.4.9-.4 1.6 0 .6.1 1.2.4 1.6.3.3.7.5 1.2.5.6 0 1-.2 1.3-.5.3-.4.4-1 .4-1.6 0-.7-.1-1.3-.4-1.6-.3-.4-.7-.6-1.3-.6Zm8.4.3c-.8 0-1.2.3-1.5.8l-.2 1.2v3.3h-1.8v-7h1.7v1.3l.7-1a2 2 0 0 1 1.4-.4h.2v1.9a5.3 5.3 0 0 0-.5 0Zm7.9-4v9.3h-1.8v-1a3 3 0 0 1-.9 1l-1.2.2c-.8 0-1.5-.3-2-1-.6-.6-.9-1.5-.9-2.5 0-1.2.3-2 .8-2.8a3 3 0 0 1 2.2-1 2.2 2.2 0 0 1 2 1v-3.2h1.8Zm-5 5.9c0 .6.2 1.1.5 1.5.2.4.6.6 1.1.6.5 0 1-.2 1.2-.6.2-.4.4-.9.4-1.5 0-.8-.2-1.4-.7-1.8-.2-.2-.5-.3-.9-.3-.5 0-.9.2-1.2.6-.2.4-.3.9-.3 1.5Zm12.5 1.4c0 .4-.2.8-.6 1.2-.6.7-1.4 1-2.5 1-.9 0-1.7-.3-2.3-.8-.7-.6-1-1.5-1-2.8 0-1.2.3-2.1.9-2.7.6-.7 1.4-1 2.3-1 .6 0 1.1.1 1.6.3.5.2.8.6 1.1 1l.6 1.5v1.3h-4.7c0 .7.2 1.2.6 1.5.3.2.6.3 1 .3.3 0 .6-.1.8-.4.2 0 .3-.2.4-.4h1.8Zm-1.8-2.2c0-.4-.1-.8-.4-1-.3-.3-.6-.4-1-.4s-.7.1-1 .4a2 2 0 0 0-.4 1h2.8Zm6.6-1c-.7 0-1.2.2-1.4.7-.2.2-.3.6-.3 1.2v3.3H164v-7h1.7v1.3l.8-1a2 2 0 0 1 1.4-.4h.1v1.9a5.3 5.3 0 0 0-.5 0Zm1 .7h3.7v1.7h-3.6v-1.7Zm8.4-.8c-.7 0-1.2.3-1.5.8l-.2 1.2v3.3h-1.8v-7h1.7v1.3l.8-1a2 2 0 0 1 1.4-.4h.1v1.9a5.2 5.2 0 0 0-.5 0Zm1.9-.9c.4-.6 1.3-.9 2.4-.9a4 4 0 0 1 2 .5c.6.3 1 .8 1 1.7v3.1a32.7 32.7 0 0 0 0 1.3l.3.2v.3h-2v-.4l-.1-.4-.9.7c-.4.2-.8.3-1.3.3a3 3 0 0 1-1.6-.5 2 2 0 0 1-.6-1.5c0-.9.4-1.5 1-1.9l1.6-.4.6-.1c.4 0 .6-.1.7-.2.3 0 .4-.2.4-.5s0-.5-.3-.6l-.8-.1c-.5 0-.8 0-1 .3l-.2.6h-1.7c0-.6.2-1 .5-1.5Zm1.3 4.9.6.2a2 2 0 0 0 1.1-.3c.3-.3.5-.7.5-1.3v-.7a2 2 0 0 1-.8.3l-.4.1c-.4 0-.7.2-.8.3-.3.1-.5.4-.5.7 0 .3.1.6.3.7Zm12-8v9.3h-1.8v-1c-.3.5-.6.8-1 1l-1.1.2c-.8 0-1.5-.3-2-1-.6-.6-1-1.5-1-2.5 0-1.2.4-2 1-2.8.5-.6 1.2-1 2-1a2.2 2.2 0 0 1 2 1v-3.2h1.8Zm-5 5.9c0 .6.2 1.1.4 1.5.3.4.7.6 1.2.6s.9-.2 1.2-.6c.2-.4.4-.9.4-1.5 0-.8-.3-1.4-.7-1.8l-.9-.3c-.5 0-1 .2-1.2.6-.2.4-.3.9-.3 1.5Zm8.4-3.5v6.9h-1.8v-7h1.8Zm0-2.5v1.7h-1.8v-1.7h1.8Zm6.2 8.4v.2l-.3.3-.9.5-.9.2c-1 0-1.7-.4-2-1.2a4 4 0 0 1-.3-1.7V207h1.8v4.2l.1.8c.2.4.5.6 1 .6.6 0 1-.3 1.3-.8l.2-1V207h1.8v6.9h-1.8v-1Zm8.3-5.6c.6.3.9 1 1 1.8h-2c0-.2 0-.4-.2-.6-.2-.2-.5-.3-1-.3-.4 0-.6 0-.8.2-.2 0-.3.2-.3.4s.1.3.3.4l1.9.5c.7.2 1.2.5 1.6.8.4.4.5.8.5 1.3 0 .7-.2 1.3-.7 1.7-.5.4-1.3.6-2.4.6-1 0-1.9-.2-2.4-.7-.5-.4-.8-1-.8-1.7h1.9c0 .3 0 .5.2.7.2.2.6.3 1.3.3l.8-.1c.2-.1.3-.3.3-.5s0-.4-.2-.5l-2-.5a4 4 0 0 1-1.6-.7c-.3-.3-.5-.7-.5-1.3 0-.6.3-1.2.8-1.6a3 3 0 0 1 2.1-.7 4 4 0 0 1 2.1.5Zm2 2.1h3.6v1.7h-3.7v-1.7Zm6.5-2.9a2 2 0 0 0-.3 1.1h-1.7c0-.4 0-.9.2-1.3l.7-1c.3-.2.5-.4.9-.5l1.2-.1c.8 0 1.5.2 2 .6.6.5.9 1.1.9 1.9 0 .5-.2 1-.5 1.3-.2.3-.4.4-.6.5l.7.4c.5.5.7 1 .7 1.8a3 3 0 0 1-.8 2c-.6.6-1.4 1-2.4 1-1.3 0-2.2-.5-2.7-1.3-.3-.5-.5-1-.5-1.8h1.8c0 .3 0 .6.2.9.2.4.6.7 1.2.7.3 0 .6-.2.9-.4.3-.3.4-.6.4-1 0-.7-.3-1-.7-1.3l-1.4-.1v-1.3l1.3-.2c.4-.2.6-.5.6-1 0-.4-.1-.7-.3-1-.2-.2-.5-.3-.9-.3s-.7.2-1 .4Zm8.1 5.5v1.9h-2v-1.9h2Zm-2-2.9v-1.8h2v1.8h-2Z"/>
    <rect width="63" height="32" x="121" y="280" fill="#fff" stroke="#CB361D" stroke-width="2" rx="16"/>
    <path fill="#000" d="M105.9 180.6c.5 0 1 0 1.2-.2.5-.2.7-.7.7-1.3 0-.6-.2-1-.7-1.2l-1.3-.2h-2.2v3h2.3Zm.4 4.3c.8 0 1.3-.2 1.7-.7.2-.2.3-.6.3-1 0-.7-.3-1.1-1-1.4l-1.2-.2h-2.5v3.3h2.7Zm-4-8.2h4c1.1 0 2 .3 2.4 1 .2.3.4.8.4 1.3 0 .6-.2 1-.5 1.4l-.8.6 1.1.6c.4.4.6 1 .6 1.7a3 3 0 0 1-.5 1.6c-.6.7-1.5 1.1-2.7 1.1h-4v-9.3Zm9.5 7.5c0 .3 0 .6.3.8l.9.3a2 2 0 0 0 1.1-.3c.7-.3 1-.8 1-1.5v-1a2 2 0 0 1-.5.3h-.7l-.7.2-1 .2c-.3.2-.4.6-.4 1Zm2.7-2.3c.3 0 .5-.2.6-.3v-.5c0-.4-.1-.7-.4-.8-.3-.2-.7-.3-1.2-.3-.6 0-1 .2-1.2.5-.2.2-.3.4-.3.8h-1c0-.9.2-1.4.7-1.8.6-.3 1.2-.5 1.9-.5.8 0 1.4.2 1.9.5s.7.8.7 1.4v4l.1.2.3.1a2.8 2.8 0 0 0 .4 0v.8l-.4.1h-.4c-.4 0-.7 0-.8-.4l-.2-.6a3.1 3.1 0 0 1-2.4 1.1c-.7 0-1.2-.2-1.6-.5a2 2 0 0 1-.6-1.5c0-.6.2-1.1.6-1.4.4-.4.9-.6 1.5-.7l1.8-.2Zm4.3 2c0 .3.1.6.3.8.3.4.8.6 1.5.6a2 2 0 0 0 1.1-.3c.3-.2.5-.4.5-.8 0-.3-.1-.5-.4-.7l-1-.3-.9-.3-1.3-.4c-.5-.3-.7-.8-.7-1.3 0-.7.2-1.2.7-1.6.5-.4 1-.6 1.9-.6 1 0 1.7.3 2.2 1 .3.3.4.7.4 1.2h-1l-.4-.7c-.2-.3-.7-.5-1.3-.5-.5 0-.8 0-1 .2a1 1 0 0 0-.3.7c0 .3.1.5.4.7l.7.3.8.2c.8.2 1.4.4 1.6.6.5.2.7.7.7 1.3a2 2 0 0 1-.7 1.6c-.4.4-1.1.7-2 .7-1 0-1.8-.3-2.2-.7-.4-.5-.7-1-.7-1.7h1.1Zm8.7-4.9a3 3 0 0 1 2.4 1.3c.2.3.4.7.4 1.2l.1 1.5h-5c0 .7.3 1.2.6 1.6.3.4.7.7 1.4.7a1.8 1.8 0 0 0 1.8-1.4h1.2l-.3.8a2.7 2.7 0 0 1-1.8 1.4 4 4 0 0 1-1 .1 3 3 0 0 1-2.2-.9c-.6-.6-.9-1.5-.9-2.6 0-1 .3-2 1-2.6a3 3 0 0 1 2.3-1Zm1.8 3a3 3 0 0 0-.3-1.1c-.4-.6-.9-.9-1.6-.9-.5 0-1 .2-1.3.6a2 2 0 0 0-.6 1.5h3.8Zm6.4-4.7h1.2v1.9h1v1h-1v4.4c0 .2 0 .4.2.4l.4.1h.4v.9h-.4a4 4 0 0 1-.4.1c-.6 0-1-.1-1.1-.4-.2-.3-.3-.6-.3-1V180h-1v-.9h1v-1.9Zm6 8c.9 0 1.4-.3 1.6-.9.3-.6.5-1.2.5-2l-.3-1.5c-.4-.6-1-.9-1.7-.9s-1.2.3-1.5.8a4 4 0 0 0-.5 2c0 .7.2 1.3.5 1.7.3.5.8.8 1.5.8Zm.1-6.3a3 3 0 0 1 2.3.9c.6.6.9 1.4.9 2.6 0 1-.3 2-.8 2.7-.6.7-1.4 1-2.5 1-1 0-1.7-.3-2.2-.9-.6-.6-.9-1.5-.9-2.6 0-1 .3-2 .9-2.7a3 3 0 0 1 2.3-1Zm4.5-2.3h1.1v5.4l3-2.9h1.4l-2.6 2.5 2.7 4.3h-1.4l-2.1-3.4-1 .8v2.6h-1v-9.3Zm9.4 2.3a3 3 0 0 1 2.4 1.3l.5 1.2v1.5h-5c.1.7.3 1.2.6 1.6.3.4.7.7 1.4.7a1.8 1.8 0 0 0 1.8-1.4h1.2l-.3.8a2.7 2.7 0 0 1-1.8 1.4 4 4 0 0 1-1 .1 3 3 0 0 1-2.2-.9c-.6-.6-.8-1.5-.8-2.6 0-1 .2-2 .8-2.6a3 3 0 0 1 2.4-1Zm1.8 3a3 3 0 0 0-.3-1.1c-.4-.6-.9-.9-1.6-.9-.5 0-1 .2-1.3.6a2 2 0 0 0-.6 1.5h3.8Zm2.6-2.8h1v1a3 3 0 0 1 1-.9c.4-.2.8-.3 1.3-.3 1 0 1.6.4 2 1l.2 1.6v4.4h-1.2v-4.3l-.1-1c-.2-.4-.6-.6-1.1-.6h-.7c-.3.2-.6.3-.8.6l-.4.7v4.6H160v-6.8Zm10.8 0h1.1v1a3 3 0 0 1 1-.9l1.2-.3c1 0 1.6.4 2 1 .2.4.3 1 .3 1.6v4.4h-1.2v-4.3c0-.4 0-.7-.2-1-.2-.4-.6-.6-1-.6h-.8l-.8.6-.4.7v4.6h-1.2v-6.8Zm8.1 5c0 .3.2.6.4.8.2.2.5.3.9.3s.7-.1 1.1-.3c.7-.3 1-.8 1-1.5v-1a2 2 0 0 1-.6.3h-.6l-.7.2-1 .2c-.3.2-.5.6-.5 1Zm2.8-2.3c.3 0 .4-.2.5-.3l.1-.5c0-.4-.1-.7-.4-.8-.3-.2-.7-.3-1.2-.3-.6 0-1 .2-1.3.5l-.2.8h-1.1c0-.9.3-1.4.8-1.8.5-.3 1.1-.5 1.8-.5.8 0 1.5.2 2 .5s.7.8.7 1.4v4.2l.4.1a2.8 2.8 0 0 0 .4 0v.8l-.4.1h-.4c-.4 0-.7 0-.9-.4l-.2-.6a3.1 3.1 0 0 1-2.4 1.1c-.6 0-1.2-.2-1.6-.5a2 2 0 0 1-.6-1.5c0-.6.2-1.1.6-1.4a3 3 0 0 1 1.6-.7l1.8-.2Zm3.6-2.7h1.1v1l.8-.8c.3-.2.8-.4 1.2-.4.6 0 1 .2 1.4.4l.5.7a2.4 2.4 0 0 1 2-1c1 0 1.5.3 1.9 1 .2.3.2.8.2 1.4v4.5h-1.1v-4.7c0-.5-.2-.8-.4-1l-.8-.2c-.5 0-.8.1-1.2.4-.3.3-.5.8-.5 1.5v4h-1.1v-4.4c0-.5 0-.8-.2-1-.2-.4-.5-.5-1-.5-.4 0-.8.1-1.1.5-.4.3-.6 1-.6 1.8v3.6h-1.1v-6.8Zm13.7-.2a3 3 0 0 1 2.4 1.3c.2.3.4.7.4 1.2l.2 1.5h-5c0 .7.2 1.2.5 1.6.3.4.7.7 1.4.7a1.8 1.8 0 0 0 1.8-1.4h1.2l-.3.8a2.7 2.7 0 0 1-1.8 1.4 4 4 0 0 1-1 .1 3 3 0 0 1-2.2-.9c-.6-.6-.9-1.5-.9-2.6 0-1 .3-2 1-2.6a3 3 0 0 1 2.3-1Zm1.8 3a3 3 0 0 0-.3-1.1c-.4-.6-.9-.9-1.6-.9-.5 0-1 .2-1.3.6a2 2 0 0 0-.6 1.5h3.8Zm-94.3 84.6c.5 0 1 0 1.2-.2.5-.2.7-.7.7-1.3 0-.6-.2-1-.7-1.2l-1.3-.2h-2.2v3h2.3Zm.4 4.3c.8 0 1.3-.2 1.7-.7.2-.2.3-.6.3-1 0-.7-.3-1.1-1-1.4l-1.2-.2h-2.5v3.3h2.7Zm-4-8.2h4c1.2 0 2 .3 2.4 1 .3.3.4.8.4 1.3 0 .6-.2 1-.5 1.4l-.8.6 1.1.6c.4.4.6 1 .6 1.7 0 .6-.1 1.1-.5 1.6-.6.7-1.5 1.1-2.7 1.1h-4v-9.3Zm9.5 7.5c0 .3.1.6.3.8l.9.3 1.2-.3c.6-.3 1-.8 1-1.5v-1a2 2 0 0 1-.6.3h-.7l-.7.2-.9.2c-.3.2-.5.6-.5 1Zm2.7-2.3c.3 0 .5-.2.6-.3v-.5c0-.4 0-.7-.4-.8-.2-.2-.6-.3-1.2-.3s-1 .2-1.2.5c-.2.2-.3.4-.3.8h-1c0-.9.2-1.4.7-1.8.6-.3 1.2-.5 1.9-.5.8 0 1.4.2 2 .5.4.3.7.8.7 1.4v4.2l.3.1a2.8 2.8 0 0 0 .4 0v.8l-.4.1h-.4c-.4 0-.7 0-.8-.4l-.2-.6a3.1 3.1 0 0 1-2.4 1.1c-.7 0-1.2-.2-1.6-.5a2 2 0 0 1-.6-1.5c0-.6.2-1.1.6-1.4.4-.4.9-.6 1.5-.7l1.8-.2Zm4.3 2c0 .3.1.6.3.8.3.4.8.6 1.5.6a2 2 0 0 0 1.1-.3c.3-.2.5-.4.5-.8 0-.3-.1-.5-.4-.7l-1-.3-.9-.3-1.3-.4c-.4-.3-.7-.8-.7-1.3 0-.7.2-1.2.7-1.6.5-.4 1-.6 1.9-.6 1 0 1.7.3 2.2 1 .3.3.4.7.4 1.2h-1l-.3-.7a2 2 0 0 0-1.4-.5c-.4 0-.8 0-1 .2a1 1 0 0 0-.3.7c0 .3.1.5.4.7l.8.3.7.2 1.7.6c.4.2.6.7.6 1.3a2 2 0 0 1-.7 1.6c-.4.4-1.1.7-2 .7-1 0-1.8-.3-2.2-.7-.4-.5-.6-1-.7-1.7h1.1Zm8.7-4.9a3 3 0 0 1 2.4 1.3l.5 1.2v1.5h-5c.1.7.3 1.2.6 1.6.3.4.7.7 1.4.7a1.8 1.8 0 0 0 1.8-1.4h1.2l-.3.8a2.7 2.7 0 0 1-1.8 1.4 4 4 0 0 1-1 .1 3 3 0 0 1-2.2-.9 4 4 0 0 1-.8-2.6c0-1 .3-2 .8-2.6a3 3 0 0 1 2.4-1Zm1.8 3a3 3 0 0 0-.3-1.1c-.3-.6-.9-.9-1.6-.9-.5 0-1 .2-1.3.6a2 2 0 0 0-.6 1.5h3.8Zm6.4-4.7h1.2v1.9h1v1h-1v4.4c0 .2 0 .4.2.4l.5.1h.4v.9a2.6 2.6 0 0 1-1 .1c-.4 0-.8-.1-1-.4-.2-.3-.3-.6-.3-1V266h-.9v-.9h1v-1.9Zm6.1 8c.8 0 1.3-.3 1.6-.9a6 6 0 0 0 .4-2l-.3-1.5c-.3-.6-.9-.9-1.7-.9-.7 0-1.2.3-1.5.8a4 4 0 0 0-.5 2c0 .7.2 1.3.5 1.7.3.5.8.8 1.5.8Zm0-6.3a3 3 0 0 1 2.3.9c.6.6.9 1.4.9 2.6 0 1-.3 2-.8 2.7-.5.7-1.4 1-2.5 1-1 0-1.7-.3-2.2-.9-.6-.6-.9-1.5-.9-2.6 0-1 .3-2 1-2.7a3 3 0 0 1 2.3-1Zm4.5-2.3h1.1v5.4l3-2.9h1.4l-2.6 2.5 2.8 4.3h-1.5l-2.1-3.4-1 .8v2.6h-1v-9.3Zm9.4 2.3a3 3 0 0 1 2.4 1.3l.5 1.2v1.5h-5c.1.7.3 1.2.6 1.6.3.4.8.7 1.4.7a1.8 1.8 0 0 0 1.9-1.4h1c0 .2 0 .5-.2.8a2.7 2.7 0 0 1-1.8 1.4 4 4 0 0 1-1 .1c-.8 0-1.6-.3-2.1-.9-.6-.6-1-1.5-1-2.6 0-1 .4-2 1-2.6a3 3 0 0 1 2.3-1Zm1.8 3a3 3 0 0 0-.3-1.1c-.3-.6-.9-.9-1.6-.9-.5 0-1 .2-1.3.6a2 2 0 0 0-.6 1.5h3.8Zm2.6-2.8h1v1a3 3 0 0 1 1-.9l1.3-.3c1 0 1.6.4 2 1l.2 1.6v4.4h-1.1v-4.3l-.2-1c-.2-.4-.6-.6-1.1-.6h-.7c-.3.2-.6.3-.8.6l-.4.7v4.6h-1.2v-6.8Zm11.4 0 1.8 5.5 2-5.5h1.2l-2.6 6.8h-1.2l-2.5-6.8h1.3Zm6.8 5c0 .3.1.6.4.8.2.2.5.3.8.3l1.2-.3c.6-.3 1-.8 1-1.5v-1a2 2 0 0 1-.6.3h-.6l-.7.2-1 .2c-.3.2-.5.6-.5 1Zm2.8-2.3c.2 0 .4-.2.5-.3v-.5c0-.4 0-.7-.3-.8-.3-.2-.7-.3-1.2-.3-.6 0-1 .2-1.3.5l-.3.8h-1c0-.9.3-1.4.8-1.8.5-.3 1.1-.5 1.8-.5a4 4 0 0 1 2 .5c.4.3.7.8.7 1.4v4.2l.4.1a2.8 2.8 0 0 0 .4 0v.8l-.5.1h-.3c-.4 0-.7 0-.9-.4l-.2-.6a3.1 3.1 0 0 1-2.4 1.1c-.7 0-1.2-.2-1.6-.5a2 2 0 0 1-.6-1.5c0-.6.2-1.1.6-1.4a3 3 0 0 1 1.6-.7l1.8-.2Zm3.6-5.2h1.2v9.3h-1.2v-9.3Zm4 2.5v4.5c0 .4 0 .6.2.9.2.4.6.6 1.1.6.8 0 1.4-.4 1.6-1 .2-.5.3-1 .3-1.7v-3.3h1.1v6.8h-1v-1l-.6.7c-.4.3-1 .5-1.6.5-1 0-1.6-.3-2-1-.2-.3-.3-.8-.3-1.4v-4.6h1.2Zm9-.2a3 3 0 0 1 2.4 1.3c.2.3.4.7.4 1.2l.1 1.5h-5c0 .7.2 1.2.5 1.6.3.4.8.7 1.5.7a1.8 1.8 0 0 0 1.8-1.4h1.1c0 .2 0 .5-.3.8a2.7 2.7 0 0 1-1.8 1.4 4 4 0 0 1-1 .1c-.8 0-1.5-.3-2-.9-.7-.6-1-1.5-1-2.6 0-1 .3-2 1-2.6a3 3 0 0 1 2.2-1Zm1.8 3a3 3 0 0 0-.4-1.1c-.3-.6-.8-.9-1.5-.9-.6 0-1 .2-1.4.6-.3.4-.5.9-.5 1.5h3.8Z"/>
    <path stroke="#CB361D" stroke-dasharray="3 3" stroke-linejoin="bevel" stroke-miterlimit="0" stroke-width="2" d="M53 209a32 32 0 0 0-32 32v11.5c0 24 19.5 43.5 43.5 43.5H116"/>
    <path fill="#CB361D" d="M61 112a1 1 0 0 0 0-2v2Zm-8 96h-1.4l-.1 2H53v-2Zm-4.3-.2-2.9-.4-.3 2 3 .4.2-2Zm-5.7-1-2.8-.7-.6 2 3 .7.4-2Zm-5.5-1.6-2.7-1.1-.8 1.8 2.8 1.2.7-2Zm-5.2-2.4-2.5-1.4-1 1.7 2.5 1.5 1-1.8Zm-5-3-2.2-1.8-1.3 1.6 2.4 1.8 1.2-1.6ZM23 196l-2-2-1.5 1.3 2.2 2.2L23 196Zm-4-4.2-1.7-2.3-1.6 1.2 1.8 2.4 1.6-1.3Zm-3.3-4.7-1.4-2.5-1.8 1 1.5 2.6 1.7-1Zm-2.7-5c-.4-1-.8-1.8-1-2.7l-2 .7 1.2 2.8 1.8-.8Zm-2-5.4-1-2.7-2 .4.9 3 1.9-.6Zm-1.3-5.6a44 44 0 0 1-.4-2.9l-2 .2.4 3 2-.3Zm-.6-5.8V164H7v1.5h2Zm0-1.4v-1H7v1h2Zm0-3v-1H7v1h2Zm0-1v-1.5H7v1.5h2Zm.2-4.3.3-3-2-.2-.3 3 2 .2Zm.9-5.8.7-2.8-2-.5-.7 2.9 2 .4Zm1.5-5.6 1-2.7-1.8-.7-1 2.8 1.8.6Zm2.2-5.3 1.4-2.6-1.8-1-1.4 2.7 1.8.9Zm2.9-5c.5-.9 1-1.7 1.6-2.4l-1.6-1.2-1.7 2.4 1.7 1.1Zm3.4-4.7 2-2.2-1.5-1.4-2 2.3 1.5 1.3Zm4-4.3 2.2-1.9-1.3-1.5-2.3 2 1.4 1.4Zm4.5-3.7a48 48 0 0 1 2.3-1.6l-1-1.7-2.5 1.7 1.2 1.6Zm4.8-3.1 2.6-1.4-.9-1.8-2.7 1.4 1 1.8Zm5.2-2.6 2.7-1-.6-1.9-2.8 1 .7 2Zm5.5-1.8 2.8-.7-.4-2-3 .7.6 2Zm5.7-1.3 2.9-.3-.2-2c-1 0-2 .2-3 .4l.3 2Zm5.7-.5H57v-2h-1.5v2Zm1.5 0h1v-2h-1v2Zm3 0h1v-2h-1v2Zm90.2 236.8c.4.4 1 .4 1.4 0l6.4-6.4a1 1 0 1 0-1.4-1.4l-5.7 5.7-5.7-5.7a1 1 0 1 0-1.4 1.4l6.4 6.4ZM150 313v1.5h2V313h-2Zm0 4.4v2.9h2v-3h-2Zm0 5.8v3h2v-3h-2Zm0 5.8v3h2v-3h-2Zm0 5.9v2.9h2v-3h-2Zm0 5.8v3h2v-3h-2Zm0 5.8v1.5h2v-1.5h-2Z"/>
    <path fill="#000" d="M142.1 292.7c-.2-.3-.5-.4-1-.4s-.8.2-1 .6a3 3 0 0 0-.2 1.1H138c0-.8.2-1.4.4-1.9.5-.9 1.4-1.3 2.6-1.3 1 0 1.8.2 2.3.8.6.5.9 1.2.9 2.1 0 .7-.2 1.3-.6 1.8a6 6 0 0 1-1.3 1.2l-.8.5-.9.7a2 2 0 0 0-.4.5h4v1.6H138c0-.7.2-1.3.4-1.8.3-.6.9-1.3 1.9-2l1.6-1.2c.4-.4.5-.9.5-1.4 0-.4 0-.7-.3-1Zm9.5 3.9v1.4h-1v2h-1.8v-2h-3.6v-1.6l3.4-5.5h2v5.7h1Zm-5 0h2.2v-4l-2.3 4Zm12.1-2.8c.6.6.9 1.5.9 2.7 0 1.2-.3 2.1-.9 2.7-.5.7-1.2 1-2 1-.6 0-1-.1-1.5-.4l-.5-.7v3.6h-1.8v-9.6h1.7v1l.6-.7c.4-.3.9-.5 1.5-.5.8 0 1.5.3 2 1Zm-1 2.7c0-.5-.1-1-.4-1.4-.2-.4-.6-.6-1.2-.6s-1 .3-1.3 1l-.2 1.2c0 .8.2 1.4.6 1.7.3.2.6.3 1 .3s.8-.2 1-.6c.4-.4.5-1 .5-1.6Zm9.3 3.5h-2.2l-1.2-2-1.2 2h-2.2l2.3-3.5-2.2-3.4h2.2l1.2 2 1-2h2.2l-2.2 3.4 2.3 3.5Z"/>
    <rect width="116" height="42" x="93" y="359" fill="#454545" rx="21"/>
    <path fill="#fff" d="M129.2 379.5a4 4 0 0 0 1.7-.3c.7-.3 1-.9 1-1.7 0-.8-.3-1.4-1-1.7a4 4 0 0 0-1.7-.3H126v4h3.2Zm.6 6c1 0 1.8-.3 2.3-1 .3-.3.4-.8.4-1.4 0-.9-.4-1.5-1.2-1.9l-1.8-.2H126v4.5h3.8Zm-5.5-11.4h5.6c1.5 0 2.6.4 3.2 1.3a3.3 3.3 0 0 1-.1 3.9l-1 .7 1.4.9c.6.6.9 1.3.9 2.3 0 .9-.3 1.6-.8 2.3-.8 1-2 1.5-3.7 1.5h-5.5v-13Zm14.2 3.5v6.2c0 .5 0 1 .2 1.2.3.6.8.9 1.6.9 1 0 1.8-.5 2.2-1.5.2-.5.3-1.3.3-2.2v-4.6h1.6v9.4H143v-1.4l-.7 1c-.6.4-1.3.7-2.2.7-1.4 0-2.3-.5-2.8-1.4a4 4 0 0 1-.3-2v-6.3h1.6Zm9.4-2.6h1.6v2.6h1.5v1.3h-1.5v6.1c0 .4.2.6.4.7h1.1v1.3l-.5.1h-.7c-.7 0-1.2-.1-1.5-.5-.2-.4-.4-.9-.4-1.5V379h-1.2v-1.3h1.2V375Zm5.8 0h1.6v2.6h1.5v1.3h-1.5v6.1c0 .4 0 .6.3.7h1.2v1.3l-.6.1h-.6c-.8 0-1.3-.1-1.5-.5-.3-.4-.4-.9-.4-1.5V379h-1.3v-1.3h1.3V375Zm9.1 11c1 0 1.8-.4 2.2-1.2a6 6 0 0 0 .6-2.7c0-.8-.2-1.6-.5-2.1-.4-.9-1.2-1.3-2.3-1.3-1 0-1.6.4-2 1.1-.5.7-.7 1.6-.7 2.7 0 1 .2 1.8.6 2.5.5.6 1.2 1 2.1 1Zm0-8.7c1.3 0 2.3.4 3.2 1.2.8.8 1.2 2 1.2 3.6 0 1.5-.4 2.8-1 3.8-.8 1-2 1.4-3.5 1.4-1.3 0-2.4-.4-3.1-1.3-.8-.8-1.2-2-1.2-3.5 0-1.6.4-2.8 1.2-3.8a4 4 0 0 1 3.3-1.4Zm7 .3h1.5v1.3c.5-.5 1-1 1.4-1.2.5-.2 1-.3 1.7-.3 1.3 0 2.2.4 2.7 1.4.3.5.4 1.2.4 2.2v6h-1.6v-6c0-.5-.1-1-.3-1.3-.2-.6-.8-.9-1.5-.9l-1 .1c-.4.1-.7.4-1 .8a2 2 0 0 0-.6 1v6.3h-1.7v-9.4Z"/>
    <rect width="116" height="42" x="590" y="359" fill="#454545" rx="4"/>
    <path fill="#fff" d="M626.2 379.5a4 4 0 0 0 1.7-.3c.7-.3 1-.9 1-1.7 0-.8-.3-1.4-1-1.7a4 4 0 0 0-1.7-.3H623v4h3.2Zm.6 6c1 0 1.8-.3 2.3-1 .3-.3.4-.8.4-1.4 0-.9-.4-1.5-1.2-1.9l-1.8-.2H623v4.5h3.8Zm-5.5-11.4h5.6c1.5 0 2.6.4 3.2 1.3a3.3 3.3 0 0 1-.1 3.9l-1 .7 1.4.9c.6.6.9 1.3.9 2.3 0 .9-.3 1.6-.8 2.3-.8 1-2 1.5-3.7 1.5h-5.5v-13Zm14.2 3.5v6.2c0 .5 0 1 .2 1.2.3.6.8.9 1.6.9 1 0 1.8-.5 2.2-1.5.2-.5.3-1.3.3-2.2v-4.6h1.6v9.4H640v-1.4l-.7 1c-.6.4-1.4.7-2.2.7-1.4 0-2.3-.5-2.8-1.4a4 4 0 0 1-.3-2v-6.3h1.6Zm9.4-2.6h1.6v2.6h1.5v1.3h-1.5v6.1c0 .4.2.6.4.7h1.1v1.3l-.5.1h-.7c-.7 0-1.2-.1-1.5-.5-.2-.4-.4-.9-.4-1.5V379h-1.2v-1.3h1.2V375Zm5.8 0h1.6v2.6h1.5v1.3h-1.5v6.1c0 .4 0 .6.3.7h1.2v1.3l-.6.1h-.6c-.8 0-1.3-.1-1.5-.5-.3-.4-.4-.9-.4-1.5V379h-1.3v-1.3h1.3V375Zm9.1 11c1 0 1.8-.4 2.2-1.2a6 6 0 0 0 .6-2.7c0-.8-.2-1.6-.5-2.1-.4-.9-1.2-1.3-2.3-1.3-1 0-1.6.4-2 1.1-.5.7-.7 1.6-.7 2.7 0 1 .2 1.8.6 2.5.5.6 1.2 1 2.1 1Zm0-8.7c1.3 0 2.3.4 3.2 1.2.8.8 1.2 2 1.2 3.6 0 1.5-.4 2.8-1 3.8-.8 1-2 1.4-3.5 1.4-1.3 0-2.4-.4-3.1-1.3-.8-.8-1.2-2-1.2-3.5 0-1.6.4-2.8 1.2-3.8a4 4 0 0 1 3.3-1.4Zm7 .3h1.5v1.3c.5-.5 1-1 1.4-1.2.5-.2 1-.3 1.7-.3 1.3 0 2.2.4 2.7 1.4.3.5.4 1.2.4 2.2v6h-1.6v-6c0-.5-.1-1-.3-1.3-.2-.6-.8-.9-1.5-.9l-1 .1c-.4.1-.7.4-1 .8a2 2 0 0 0-.6 1v6.3h-1.7v-9.4Z"/>
    <path fill="#000" d="M114.8 413.2c.6 0 1 0 1.4-.2.5-.3.7-.7.7-1.4 0-.6-.2-1-.8-1.3l-1.3-.2h-2.4v3.1h2.4Zm.5 4.6c.8 0 1.4-.2 1.8-.7.2-.3.3-.7.3-1 0-.8-.3-1.3-1-1.6l-1.3-.2h-2.7v3.5h2.9ZM111 409h4.3c1.2 0 2 .3 2.6 1 .2.4.4.9.4 1.4 0 .7-.2 1.2-.5 1.6l-.9.6c.6.2 1 .4 1.2.7.5.4.7 1 .7 1.8 0 .6-.2 1.2-.6 1.7-.6.8-1.6 1.2-3 1.2H111v-10Zm10.2 8c0 .4.1.7.4.9.2.2.5.3.9.3l1.3-.3c.6-.3 1-.9 1-1.6v-1l-.6.2a5 5 0 0 1-.7.1l-.7.1-1 .3c-.4.2-.6.6-.6 1Zm3-2.4c.2 0 .4-.2.5-.4l.1-.5c0-.4-.1-.7-.4-.9-.3-.2-.8-.3-1.3-.3-.7 0-1.1.2-1.4.6l-.3.8h-1.1c0-.9.3-1.5.8-1.9.6-.3 1.3-.5 2-.5a4 4 0 0 1 2.1.5c.5.3.8.8.8 1.5v4.6h.4a2.5 2.5 0 0 0 .4 0v1h-.8c-.4 0-.8 0-1-.4l-.2-.7c-.2.4-.6.6-1 .9-.5.2-1 .3-1.6.3-.7 0-1.2-.2-1.7-.6a2 2 0 0 1-.6-1.5c0-.7.2-1.2.6-1.6a3 3 0 0 1 1.7-.7l2-.2Zm4.6 2.1c0 .4.1.7.3 1 .3.3.8.5 1.6.5.4 0 .8 0 1.2-.3.3-.2.5-.5.5-.9 0-.3-.1-.5-.4-.7l-1-.3-1-.3c-.7-.1-1.1-.3-1.4-.5-.5-.3-.8-.8-.8-1.4 0-.7.2-1.2.7-1.7a3 3 0 0 1 2-.6c1.2 0 2 .3 2.4 1 .3.4.5.8.5 1.3h-1.2c0-.3-.1-.5-.3-.8a2 2 0 0 0-1.4-.5c-.5 0-.9.1-1.1.3-.2.2-.4.4-.4.7 0 .3.2.6.5.8l.8.3.8.2c1 .2 1.5.4 1.8.6.5.3.7.8.7 1.5 0 .6-.2 1.2-.7 1.7-.5.4-1.3.7-2.3.7-1 0-1.8-.3-2.3-.8-.4-.5-.7-1-.7-1.8h1.2Zm9.3-5.2a3.3 3.3 0 0 1 2.6 1.3c.3.4.4.8.5 1.3l.1 1.6H136c0 .8.2 1.4.6 1.8.3.5.8.7 1.5.7a2 2 0 0 0 2-1.5h1.2l-.3 1-.6.7c-.4.4-.9.6-1.4.8h-1a3 3 0 0 1-2.3-1c-.7-.6-1-1.5-1-2.7 0-1.2.3-2.2 1-2.9.6-.7 1.5-1 2.5-1Zm2 3.3c-.1-.6-.2-1-.4-1.3a2 2 0 0 0-1.7-1c-.6 0-1 .3-1.4.7-.4.4-.6 1-.6 1.6h4Zm10.6-1.6c.5 0 1 0 1.3-.2.5-.3.8-.7.8-1.4 0-.6-.3-1-.8-1.3l-1.4-.2h-2.4v3.1h2.5Zm.4 4.6c.9 0 1.4-.2 1.8-.7.2-.3.3-.7.3-1 0-.8-.3-1.3-1-1.6l-1.3-.2h-2.7v3.5h3ZM147 409h4.3c1.1 0 2 .3 2.5 1 .3.4.4.9.4 1.4 0 .7-.2 1.2-.5 1.6l-.8.6c.5.2.9.4 1.1.7.5.4.7 1 .7 1.8 0 .6-.2 1.2-.6 1.7-.6.8-1.6 1.2-2.9 1.2H147v-10Zm10.4 2.7v4.8c0 .4 0 .7.2 1 .2.4.6.6 1.2.6.8 0 1.4-.4 1.7-1.1.2-.4.3-1 .3-1.7v-3.6h1.2v7.3h-1.1v-1l-.6.6c-.5.4-1 .6-1.7.6-1 0-1.8-.3-2.2-1-.2-.4-.3-1-.3-1.5v-5h1.3Zm6.8-2h1.2v2h1.2v1h-1.2v4.8c0 .2.1.4.3.5h.8v1h-.4l-.5.1c-.6 0-1-.1-1.2-.4a2 2 0 0 1-.3-1.2v-4.8h-1v-1h1v-2Zm3.9 0h1.2v2h1.2v1h-1.2v4.8c0 .2.1.4.3.5h.8v1h-.4l-.5.1c-.6 0-1-.1-1.2-.4a2 2 0 0 1-.3-1.2v-4.8h-1v-1h1v-2Zm6.6 8.5c.8 0 1.3-.3 1.6-1a4 4 0 0 0 .5-2c0-.7-.1-1.2-.3-1.6-.4-.7-1-1-1.8-1s-1.3.2-1.7.8a4 4 0 0 0-.5 2c0 .9.2 1.5.5 2 .4.5 1 .8 1.7.8Zm0-6.7c1 0 1.7.3 2.4 1 .6.5 1 1.5 1 2.7a5 5 0 0 1-.9 3c-.6.7-1.5 1-2.7 1a3 3 0 0 1-2.4-1 4 4 0 0 1-.9-2.7 5 5 0 0 1 1-3c.6-.7 1.4-1 2.5-1Zm4.8.2h1.2v1l1.1-.9a3 3 0 0 1 1.3-.3c1 0 1.7.4 2.1 1.1.2.4.3 1 .3 1.7v4.7h-1.2v-4.6l-.2-1c-.3-.5-.7-.8-1.2-.8l-.7.1a2 2 0 0 0-1 .6c-.1.3-.3.5-.3.8l-.1 1v3.9h-1.3v-7.3ZM597 409h2l2.9 8.4 2.8-8.4h2v10h-1.3v-6a62.6 62.6 0 0 1 0-2.5l-2.9 8.5h-1.3l-2.9-8.5v.3a60.8 60.8 0 0 0 0 2.3v5.9H597v-10Zm14.6 2.5a3.3 3.3 0 0 1 2.6 1.3c.3.4.4.8.5 1.3l.1 1.6h-5.3c0 .8.2 1.4.5 1.8.3.5.8.7 1.5.7a2 2 0 0 0 2-1.5h1.2l-.3 1-.6.7c-.4.4-.8.6-1.4.8h-1a3 3 0 0 1-2.3-1c-.6-.6-1-1.5-1-2.7 0-1.2.4-2.2 1-2.9.6-.7 1.5-1 2.5-1Zm2 3.3c0-.6-.2-1-.4-1.3-.3-.6-.9-1-1.7-1-.5 0-1 .3-1.4.7-.4.4-.6 1-.6 1.6h4Zm2.8-3.1h1.2v1.2c0-.2.3-.5.7-.9a1.8 1.8 0 0 1 1.4-.5h.3v1.3a1.9 1.9 0 0 0-.5 0c-.6 0-1 .2-1.4.6a2 2 0 0 0-.5 1.4v4.2h-1.2v-7.3Zm7.4-.2a3 3 0 0 1 2 .6c.6.4.9 1 1 2h-1.2c0-.4-.2-.8-.5-1-.3-.4-.7-.5-1.3-.5-.7 0-1.3.3-1.6 1.1-.3.5-.4 1.1-.4 1.9 0 .7.2 1.3.5 1.8s.8.8 1.5.8c.5 0 .9-.2 1.2-.5.3-.3.5-.7.6-1.3h1.2a3 3 0 0 1-1 2.1c-.6.5-1.3.7-2.1.7-1 0-1.8-.3-2.3-1a4 4 0 0 1-.9-2.7c0-1.2.3-2.2 1-3a3 3 0 0 1 2.3-1Zm4.2-2.6h1.3v3.8c.2-.4.5-.7.7-.8.4-.3 1-.4 1.5-.4 1 0 1.8.4 2.2 1.1.2.4.3 1 .3 1.7v4.7h-1.3v-4.6c0-.6 0-1-.2-1.2-.2-.4-.6-.6-1.2-.6a2 2 0 0 0-1.4.5c-.4.4-.6 1-.6 2v3.9H628v-10Zm8.8 8.2c0 .3 0 .6.3.8.3.2.6.3 1 .3l1.2-.3c.7-.3 1-.9 1-1.6v-1l-.5.2a5 5 0 0 1-.7.1l-.8.1-1 .3c-.4.2-.5.6-.5 1Zm3-2.5c.2 0 .4-.2.5-.4v-.5c0-.4 0-.7-.4-.9-.3-.2-.7-.3-1.2-.3-.7 0-1.1.2-1.4.6-.2.2-.3.4-.3.8h-1.2c0-.9.4-1.5 1-1.9.5-.3 1.1-.5 1.9-.5a4 4 0 0 1 2 .5c.6.3.9.8.9 1.5v4.6h.4a2.5 2.5 0 0 0 .4 0v1h-.9c-.4 0-.7 0-.9-.4l-.2-.7c-.2.4-.6.6-1 .9-.5.2-1 .3-1.6.3-.7 0-1.3-.2-1.7-.6a2 2 0 0 1-.6-1.5c0-.7.2-1.2.6-1.6a3 3 0 0 1 1.7-.7l2-.2Zm3.8-3h1.2v1.1l1-.9a3 3 0 0 1 1.4-.3c1 0 1.7.4 2 1.1.3.4.4 1 .4 1.7v4.7h-1.3v-4.6c0-.5 0-.8-.2-1-.2-.5-.6-.8-1.2-.8l-.7.1-.9.6-.4.8v4.9h-1.3v-7.3Zm8-2h1.3v2h1.2v1h-1.2v4.9c0 .2 0 .4.2.5h1v1h-.5l-.5.1c-.6 0-1-.1-1.1-.4a2 2 0 0 1-.4-1.2v-4.8h-1v-1h1v-2Zm11.5 3.6c.6 0 1 0 1.4-.2.5-.3.7-.7.7-1.4 0-.6-.2-1-.8-1.3l-1.3-.2h-2.4v3.1h2.4Zm.5 4.6c.8 0 1.4-.2 1.8-.7.2-.3.3-.7.3-1 0-.8-.3-1.3-1-1.6l-1.3-.2h-2.7v3.5h2.9Zm-4.3-8.8h4.3c1.2 0 2 .3 2.5 1 .3.4.5.9.5 1.4 0 .7-.2 1.2-.6 1.6-.1.2-.4.4-.8.6.5.2 1 .4 1.2.7.4.4.7 1 .7 1.8 0 .6-.2 1.2-.6 1.7-.6.8-1.6 1.2-3 1.2h-4.2v-10Zm10.5 2.7v4.8l.1 1c.3.4.7.6 1.3.6.8 0 1.4-.4 1.7-1.1.2-.4.3-1 .3-1.7v-3.6h1.2v7.3h-1.2v-1l-.5.6c-.5.4-1 .6-1.8.6-1 0-1.7-.3-2-1-.3-.4-.4-1-.4-1.5v-5h1.3Zm6.8-2h1.2v2h1.2v1h-1.2v4.8c0 .2.1.4.3.5h.9v1h-.5l-.5.1c-.5 0-1-.1-1.1-.4a2 2 0 0 1-.3-1.2v-4.8h-1v-1h1v-2Zm3.9 0h1.2v2h1.2v1h-1.2v4.8c0 .2.1.4.3.5h.9v1h-.5l-.5.1c-.5 0-1-.1-1.1-.4a2 2 0 0 1-.3-1.2v-4.8h-1v-1h1v-2Zm6.5 8.5c.8 0 1.4-.3 1.7-1a4 4 0 0 0 .5-2c0-.7-.2-1.2-.4-1.6-.3-.7-1-1-1.8-1-.7 0-1.3.2-1.6.8a4 4 0 0 0-.5 2c0 .9.2 1.5.5 2s.9.8 1.6.8Zm0-6.7c1 0 1.8.3 2.5 1 .6.5 1 1.5 1 2.7 0 1.2-.3 2.1-1 3-.5.7-1.4 1-2.6 1a3 3 0 0 1-2.4-1 4 4 0 0 1-.9-2.7c0-1.2.3-2.2 1-3 .6-.7 1.4-1 2.5-1Zm5 .2h1v1l1.2-.9a3 3 0 0 1 1.3-.3c1 0 1.7.4 2 1.1.3.4.4 1 .4 1.7v4.7h-1.3v-4.6c0-.5 0-.8-.2-1-.2-.5-.6-.8-1.2-.8l-.7.1-.9.6-.4.8v4.9h-1.3v-7.3Z"/>
    <path fill="url(#c)" d="M570.7 381.7c.4-.4.4-1 0-1.4l-6.4-6.4a1 1 0 1 0-1.4 1.4l5.7 5.7-5.7 5.7a1 1 0 1 0 1.4 1.4l6.4-6.4ZM230 382h340v-2H230v2Z"/>
    <rect width="151" height="50" x="338" y="94" fill="#fff" stroke="#3F80DE" stroke-width="2" rx="7"/>
    <path fill="#000" d="M358.4 114.1h2v1.9h-2v-1.9Zm9.6-.1c0 .4-.3.8-.7 1.2-.6.7-1.4 1-2.4 1s-1.7-.3-2.4-.8c-.7-.6-1-1.5-1-2.8 0-1.2.3-2.1 1-2.7.5-.7 1.3-1 2.3-1 .6 0 1 .1 1.5.3.5.2.9.6 1.2 1 .3.5.4 1 .5 1.5v1.3h-4.7c0 .7.3 1.2.7 1.5.2.2.5.3.9.3s.7-.1.9-.4l.3-.4h1.9Zm-1.8-2.2c0-.4-.2-.8-.4-1-.3-.3-.6-.4-1-.4s-.8.1-1 .4a2 2 0 0 0-.4 1h2.8Zm3.1-5.2h1.8v9.4h-1.8v-9.4Zm8.4 2.8c.5.3.8 1 1 1.8h-1.9c0-.2 0-.4-.2-.6-.2-.2-.5-.3-1-.3-.4 0-.7 0-.9.2l-.2.4c0 .2 0 .3.3.4l1.8.5c.8.2 1.3.5 1.7.8.3.4.5.8.5 1.3 0 .7-.3 1.3-.8 1.7-.5.4-1.3.6-2.3.6-1.1 0-2-.2-2.4-.7-.6-.4-.8-1-.8-1.7h1.8c0 .3.1.5.3.7.2.2.6.3 1.2.3l.9-.1c.2-.1.3-.3.3-.5s-.1-.4-.3-.5l-1.9-.5a4 4 0 0 1-1.6-.7c-.3-.3-.5-.7-.5-1.3 0-.6.2-1.2.7-1.6a3 3 0 0 1 2.2-.7 4 4 0 0 1 2 .5Zm4.3-.3v6.9h-1.8v-7h1.8Zm0-2.5v1.7h-1.8v-1.7h1.8Zm7.7 7.4c0 .4-.3.8-.7 1.2-.5.7-1.4 1-2.4 1s-1.7-.3-2.4-.8c-.6-.6-1-1.5-1-2.8 0-1.2.3-2.1 1-2.7.5-.7 1.3-1 2.3-1 .6 0 1 .1 1.6.3.4.2.8.6 1 1 .4.5.5 1 .6 1.5v1.3H385c0 .7.3 1.2.7 1.5.2.2.5.3.9.3s.7-.1.9-.4l.3-.4h1.9Zm-1.8-2.2c0-.4-.2-.8-.4-1-.3-.3-.6-.4-1-.4s-.7.1-1 .4a2 2 0 0 0-.4 1h2.8Zm2.6-.3h3.6v1.7h-3.6v-1.7Zm8.6 4.7c-.6 0-1-.1-1.4-.4-.2 0-.4-.3-.7-.7v.9h-1.7v-9.3h1.8v3.3l.7-.8c.4-.2.8-.3 1.3-.3.9 0 1.6.4 2.1 1 .5.7.8 1.5.8 2.6 0 1-.3 2-.8 2.6-.5.7-1.2 1-2.1 1Zm1-3.6c0-.4 0-.9-.2-1.2-.3-.6-.7-.9-1.3-.9-.7 0-1.2.3-1.4.9l-.2 1.2c0 .6.1 1.1.4 1.5.3.4.7.6 1.2.6s.8-.2 1-.6c.4-.3.5-.8.5-1.5Zm3.4-2.8c.5-.6 1.3-.9 2.5-.9.8 0 1.4.2 2 .5.6.3.9.8.9 1.7v3.1a28.3 28.3 0 0 0 .1 1.3l.3.2v.3h-2v-.4l-.1-.4-1 .7c-.3.2-.7.3-1.2.3-.7 0-1.2-.2-1.6-.5a2 2 0 0 1-.6-1.5c0-.9.3-1.5 1-1.9l1.6-.4.6-.1.7-.2c.3 0 .4-.2.4-.5s-.1-.5-.3-.6l-.9-.1c-.4 0-.7 0-.9.3l-.2.6H403c0-.6.2-1 .5-1.5Zm1.4 4.9.6.2c.4 0 .8-.1 1-.3.4-.3.6-.7.6-1.3v-.7a2 2 0 0 1-.8.3l-.4.1c-.4 0-.7.2-.9.3-.2.1-.4.4-.4.7 0 .3.1.6.3.7Zm10.4-5.3c.5.3.8 1 1 1.8h-1.9c0-.2 0-.4-.2-.6-.2-.2-.5-.3-1-.3-.4 0-.7 0-.8.2-.2 0-.3.2-.3.4s0 .3.3.4l1.9.5c.7.2 1.2.5 1.6.8.3.4.5.8.5 1.3 0 .7-.3 1.3-.8 1.7-.5.4-1.3.6-2.3.6-1.1 0-2-.2-2.4-.7-.6-.4-.8-1-.8-1.7h1.8c0 .3.1.5.3.7.2.2.6.3 1.2.3l.9-.1c.2-.1.3-.3.3-.5s-.1-.4-.3-.5l-1.9-.5a4 4 0 0 1-1.6-.7c-.3-.3-.5-.7-.5-1.3 0-.6.2-1.2.7-1.6a3 3 0 0 1 2.2-.7 4 4 0 0 1 2 .5Zm8.4 4.6c0 .4-.3.8-.7 1.2-.6.7-1.4 1-2.5 1a4 4 0 0 1-2.3-.8c-.7-.6-1-1.5-1-2.8 0-1.2.3-2.1 1-2.7.5-.7 1.3-1 2.3-1 .6 0 1 .1 1.5.3.5.2.9.6 1.2 1 .3.5.4 1 .5 1.5v1.3H419c0 .7.3 1.2.7 1.5.2.2.5.3.9.3s.7-.1.9-.4l.3-.4h1.9Zm-1.8-2.2c0-.4-.2-.8-.5-1-.2-.3-.5-.4-1-.4-.3 0-.7.1-.9.4a2 2 0 0 0-.4 1h2.8Zm2.5-.3h3.7v1.7h-3.7v-1.7Zm11.2-4.8v9.3H434v-1c-.3.5-.6.8-1 1l-1.2.2c-.8 0-1.4-.3-2-1-.6-.6-.8-1.5-.8-2.5 0-1.2.2-2 .8-2.8.5-.6 1.3-1 2.2-1a2.2 2.2 0 0 1 1.9 1v-3.2h1.8Zm-4.9 5.9c0 .6.2 1.1.4 1.5.3.4.6.6 1.2.6.5 0 .9-.2 1.1-.6.3-.4.4-.9.4-1.5 0-.8-.2-1.4-.6-1.8-.3-.2-.6-.3-1-.3-.5 0-.8.2-1 .6-.3.4-.5.9-.5 1.5Zm12.5 1.4c0 .4-.3.8-.7 1.2-.5.7-1.4 1-2.4 1s-1.7-.3-2.4-.8c-.6-.6-1-1.5-1-2.8 0-1.2.3-2.1 1-2.7.5-.7 1.3-1 2.3-1 .6 0 1 .1 1.5.3.5.2.9.6 1.2 1 .3.5.4 1 .5 1.5v1.3h-4.7c0 .7.3 1.2.7 1.5.2.2.5.3.9.3s.7-.1.9-.4l.3-.4h1.9Zm-1.8-2.2c0-.4-.2-.8-.4-1-.3-.3-.6-.4-1-.4s-.8.1-1 .4a2 2 0 0 0-.4 1h2.8Zm7.9-2.4c.5.3.8 1 .9 1.8h-1.8l-.2-.6c-.2-.2-.5-.3-1-.3-.4 0-.7 0-.9.2l-.2.4c0 .2 0 .3.3.4l1.8.5c.8.2 1.3.5 1.7.8.3.4.5.8.5 1.3 0 .7-.3 1.3-.8 1.7-.5.4-1.3.6-2.3.6-1.1 0-2-.2-2.4-.7-.6-.4-.8-1-.8-1.7h1.8c0 .3.1.5.3.7.2.2.6.3 1.2.3l.8-.1c.3-.1.4-.3.4-.5s-.1-.4-.3-.5l-1.9-.5a4 4 0 0 1-1.6-.7c-.4-.3-.5-.7-.5-1.3 0-.6.2-1.2.7-1.6a3 3 0 0 1 2.2-.7 4 4 0 0 1 2 .5Zm4.3-.3v6.9h-1.8v-7h1.8Zm0-2.5v1.7h-1.8v-1.7h1.8Zm3.7 10.6c.2.2.5.3 1 .3.6 0 1-.3 1.3-.7l.2-1.4v-.4l-.5.6c-.4.3-.9.4-1.4.4-1 0-1.6-.3-2.2-.9-.5-.6-.8-1.5-.8-2.5s.3-2 .8-2.6c.5-.7 1.2-1 2.2-1h.9c.4.3.8.6 1 1v-1h1.8v6.6c0 1-.1 1.6-.4 2-.6.8-1.6 1.2-3 1.2a4 4 0 0 1-2.2-.5 2 2 0 0 1-.9-1.5h2l.2.4Zm-.3-3.6c.3.6.7 1 1.3 1 .4 0 .8-.2 1.1-.6.3-.3.4-.8.4-1.5 0-.6-.1-1.1-.4-1.5-.3-.3-.6-.5-1-.5-.7 0-1.2.3-1.4.9l-.2 1.2c0 .4 0 .7.2 1Zm9.6-3.2c-.7 0-1 .3-1.3.8l-.2 1v3.8h-1.8v-7h1.8v1.1l.6-.8c.4-.2.9-.4 1.4-.4.8 0 1.3.2 1.8.6.4.4.7 1 .7 1.8v4.7h-1.9v-4.2l-.1-.8c-.2-.4-.5-.6-1-.6Zm-116.9 18.7h2v1.9h-2v-1.9Zm9.6-.1c0 .4-.3.8-.6 1.2-.6.7-1.5 1-2.5 1s-1.7-.3-2.4-.8c-.6-.6-1-1.5-1-2.8 0-1.2.3-2.1 1-2.7.5-.7 1.3-1 2.3-1 .6 0 1.1.1 1.6.3.4.2.8.6 1.1 1 .3.5.4 1 .5 1.5v1.3h-4.7c0 .7.3 1.2.7 1.5l.9.3c.4 0 .7-.1 1-.4l.2-.4h1.9Zm-1.8-2.2c0-.4-.2-.8-.4-1-.3-.3-.6-.4-1-.4s-.7.1-1 .4a2 2 0 0 0-.4 1h2.8Zm3.1-5.2h1.9v9.4h-1.9v-9.4Zm8.4 2.8c.5.3.8 1 1 1.8h-2c0-.2 0-.4-.2-.6-.2-.2-.5-.3-1-.3-.4 0-.7 0-.8.2-.2 0-.3.2-.3.4s.1.3.3.4l1.9.5c.7.2 1.2.5 1.6.8.3.4.5.8.5 1.3 0 .7-.2 1.3-.7 1.7a4 4 0 0 1-2.4.6c-1.1 0-1.9-.2-2.4-.7-.5-.4-.8-1-.8-1.7h1.8c0 .3.2.5.3.7.2.2.6.3 1.2.3l.9-.1c.2-.1.3-.3.3-.5s0-.4-.3-.5l-1.8-.5a4 4 0 0 1-1.7-.7c-.3-.3-.5-.7-.5-1.3 0-.6.3-1.2.8-1.6a3 3 0 0 1 2-.7 4 4 0 0 1 2.2.5Zm4.3-.3v6.9h-1.8v-7h1.8Zm0-2.5v1.7h-1.8v-1.7h1.8Zm7.7 7.4c0 .4-.3.8-.6 1.2-.6.7-1.5 1-2.5 1a4 4 0 0 1-2.4-.8c-.6-.6-1-1.5-1-2.8 0-1.2.3-2.1 1-2.7.6-.7 1.3-1 2.3-1 .6 0 1.1.1 1.6.3a3 3 0 0 1 1.6 2.5v1.3h-4.6c0 .7.2 1.2.6 1.5.3.2.6.3 1 .3.3 0 .6-.1.8-.4l.4-.4h1.8Zm-1.8-2.2c0-.4-.2-.8-.4-1-.3-.3-.6-.4-1-.4s-.7.1-1 .4a2 2 0 0 0-.4 1h2.8Zm2.6-.3h3.6v1.7h-3.6v-1.7Zm8.6 4.7c-.6 0-1-.1-1.4-.4-.2 0-.4-.3-.6-.7v.9h-1.8v-9.3h1.8v3.3l.7-.8c.4-.2.8-.3 1.3-.3.9 0 1.6.4 2.1 1 .5.7.8 1.5.8 2.6 0 1-.3 2-.8 2.6-.5.7-1.2 1-2 1Zm1-3.6c0-.4 0-.9-.2-1.2-.2-.6-.7-.9-1.3-.9-.7 0-1.1.3-1.4.9l-.2 1.2c0 .6.2 1.1.4 1.5.3.4.7.6 1.2.6s.9-.2 1.1-.6c.3-.3.4-.8.4-1.5Zm3.5-2.8c.4-.6 1.3-.9 2.4-.9.8 0 1.4.2 2 .5.6.3 1 .8 1 1.7v3.1a28.3 28.3 0 0 0 0 1.3l.3.2v.3h-2v-.4l-.1-.4-.9.7c-.4.2-.8.3-1.3.3-.6 0-1.2-.2-1.6-.5a2 2 0 0 1-.6-1.5c0-.9.4-1.5 1-1.9l1.6-.4.6-.1.7-.2c.3 0 .4-.2.4-.5s0-.5-.3-.6l-.8-.1c-.5 0-.8 0-1 .3l-.2.6h-1.8c0-.6.3-1 .6-1.5Zm1.3 4.9.6.2a2 2 0 0 0 1.1-.3c.3-.3.5-.7.5-1.3v-.7a2 2 0 0 1-.8.3l-.4.1c-.4 0-.7.2-.8.3-.3.1-.5.4-.5.7 0 .3.1.6.3.7Zm10.4-5.3c.5.3.9 1 1 1.8h-1.9c0-.2 0-.4-.2-.6-.2-.2-.5-.3-1-.3-.4 0-.7 0-.8.2-.2 0-.3.2-.3.4s.1.3.3.4l1.9.5c.7.2 1.2.5 1.6.8.3.4.5.8.5 1.3 0 .7-.2 1.3-.7 1.7a4 4 0 0 1-2.4.6c-1.1 0-1.9-.2-2.4-.7-.5-.4-.8-1-.8-1.7h1.8c0 .3.2.5.3.7.2.2.6.3 1.2.3l.9-.1c.2-.1.3-.3.3-.5s0-.4-.3-.5l-1.8-.5a4 4 0 0 1-1.7-.7c-.3-.3-.5-.7-.5-1.3 0-.6.3-1.2.8-1.6a3 3 0 0 1 2-.7 4 4 0 0 1 2.2.5Zm8.4 4.6c0 .4-.3.8-.7 1.2-.5.7-1.4 1-2.4 1s-1.7-.3-2.4-.8c-.6-.6-1-1.5-1-2.8 0-1.2.3-2.1 1-2.7.5-.7 1.3-1 2.3-1 .6 0 1 .1 1.6.3.4.2.8.6 1.1 1 .3.5.4 1 .5 1.5v1.3h-4.7c0 .7.3 1.2.7 1.5.2.2.5.3.9.3s.7-.1 1-.4l.2-.4h1.9Zm-1.8-2.2c0-.4-.2-.8-.4-1-.3-.3-.6-.4-1-.4s-.7.1-1 .4a2 2 0 0 0-.4 1h2.8Zm2.6-.3h3.6v1.7h-3.6v-1.7Zm11.1-4.8v9.3h-1.7v-1c-.3.5-.6.8-1 1l-1.1.2c-.9 0-1.5-.3-2-1-.6-.6-1-1.5-1-2.5 0-1.2.4-2 .9-2.8.5-.6 1.3-1 2.2-1a2.2 2.2 0 0 1 1.9 1v-3.2h1.8Zm-4.8 5.9c0 .6 0 1.1.3 1.5.3.4.7.6 1.2.6s.9-.2 1.1-.6c.3-.4.4-.9.4-1.5 0-.8-.2-1.4-.6-1.8-.3-.2-.6-.3-1-.3s-.8.2-1 .6c-.3.4-.4.9-.4 1.5Zm12.4 1.4c0 .4-.3.8-.6 1.2-.6.7-1.5 1-2.5 1s-1.7-.3-2.4-.8c-.6-.6-1-1.5-1-2.8 0-1.2.3-2.1 1-2.7.6-.7 1.3-1 2.3-1 .6 0 1.1.1 1.6.3a3 3 0 0 1 1.6 2.5v1.3H430c0 .7.2 1.2.6 1.5.3.2.6.3 1 .3.3 0 .6-.1.8-.4l.4-.4h1.8Zm-1.8-2.2c0-.4-.2-.8-.4-1-.3-.3-.6-.4-1-.4s-.7.1-1 .4a2 2 0 0 0-.4 1h2.8Zm7.9-2.4c.5.3.8 1 1 1.8h-1.9c0-.2 0-.4-.2-.6-.2-.2-.5-.3-1-.3-.4 0-.7 0-.8.2-.2 0-.3.2-.3.4s0 .3.3.4l1.9.5c.7.2 1.2.5 1.6.8.3.4.5.8.5 1.3 0 .7-.2 1.3-.8 1.7-.5.4-1.3.6-2.3.6-1.1 0-2-.2-2.4-.7-.6-.4-.8-1-.8-1.7h1.8c0 .3.1.5.3.7.2.2.6.3 1.2.3l.9-.1c.2-.1.3-.3.3-.5s-.1-.4-.3-.5l-1.9-.5a4 4 0 0 1-1.6-.7c-.3-.3-.5-.7-.5-1.3 0-.6.3-1.2.8-1.6a3 3 0 0 1 2-.7 4 4 0 0 1 2.2.5Zm4.3-.3v6.9h-1.8v-7h1.8Zm0-2.5v1.7h-1.8v-1.7h1.8Zm3.7 10.6c.2.2.5.3 1 .3.7 0 1.1-.3 1.3-.7.2-.3.2-.7.2-1.4v-.4l-.5.6c-.4.3-.9.4-1.4.4-1 0-1.6-.3-2.2-.9-.5-.6-.8-1.5-.8-2.5s.3-2 .8-2.6c.5-.7 1.3-1 2.2-1h.9c.4.3.8.6 1 1v-1h1.8v6.6c0 1-.1 1.6-.4 2-.5.8-1.5 1.2-3 1.2a4 4 0 0 1-2.2-.5 2 2 0 0 1-.9-1.5h2l.2.4Zm-.3-3.6c.3.6.7 1 1.3 1 .5 0 .8-.2 1.1-.6.3-.3.5-.8.5-1.5 0-.6-.2-1.1-.5-1.5-.2-.3-.6-.5-1-.5-.7 0-1.1.3-1.4.9l-.2 1.2c0 .4 0 .7.2 1Zm9.6-3.2c-.6 0-1 .3-1.3.8l-.2 1v3.8h-1.8v-7h1.8v1.1l.6-.8c.4-.2.9-.4 1.5-.4.7 0 1.3.2 1.7.6.5.4.7 1 .7 1.8v4.7H459v-4.2l-.1-.8c-.2-.4-.5-.6-1-.6Zm9.4 7.7a2 2 0 0 1-.6-1.5v-2c0-.6-.2-1-.5-1.3l-.9-.4v-.7l1-.5c.2-.3.4-.7.4-1.3V123c.2-.4.4-.8.7-1 .3-.2.6-.4 1-.4l1-.1v1c-.4 0-.6.2-.7.3-.2.2-.3.5-.3 1v1.5c0 .5 0 .9-.2 1.1-.2.5-.7.9-1.3 1.2.6.2 1 .5 1.2.8.2.3.3.7.3 1.3v1.6c0 .4 0 .8.3 1l.7.3v1h-.5a3 3 0 0 1-1.6-.5Zm8-9.3c0-.4 0-.8-.2-1l-.8-.3v-1h1l1 .5c.3.2.5.5.6.8l.1.9v1.7c0 .6.2 1 .4 1.3l1 .5v.7l-.9.4c-.3.3-.5.7-.5 1.3v2a2 2 0 0 1-.6 1.5 3 3 0 0 1-1.6.5h-.5v-1c.3 0 .5-.2.7-.3.2-.2.3-.6.3-1v-1.6c0-.6.1-1 .4-1.4.2-.3.6-.5 1-.7-.5-.3-.9-.6-1-1-.3-.3-.4-.7-.4-1.3v-1.5ZM318.4 54h-2.2V42.5h3.5l2 9 2.2-9h3.4V54h-2.2v-7.8a82.3 82.3 0 0 1 0-1.9l-2.2 9.7h-2.3l-2.2-9.7a84.2 84.2 0 0 0 0 2V54Zm18.3-2.5a3.8 3.8 0 0 1-3.8 2.8c-1.2 0-2.1-.4-3-1-.8-.8-1.2-1.9-1.2-3.5 0-1.4.4-2.6 1.1-3.4.8-.7 1.7-1.1 3-1.1.6 0 1.3 0 1.8.4.6.2 1 .6 1.4 1.2.4.5.6 1.1.7 1.8v1.7H331c0 .8.3 1.4.8 1.8.3.2.7.3 1.2.3.4 0 .8-.2 1-.4l.5-.6h2.3Zm-2.2-2.6c0-.6-.3-1-.6-1.3-.3-.4-.7-.5-1.2-.5s-.9.2-1.2.5c-.3.3-.4.7-.5 1.3h3.5Zm8-1.4c-.8 0-1.4.3-1.8 1l-.2 1.4V54h-2.3v-8.5h2.2V47c.3-.6.6-1 .9-1.2a2.4 2.4 0 0 1 1.7-.5h.2v2.3a6 6 0 0 0-.6 0Zm9.4 1h-2.3a2 2 0 0 0-.3-.8c-.3-.4-.7-.5-1.2-.5-.7 0-1.3.3-1.5 1-.2.5-.2 1-.2 1.7 0 .6 0 1 .2 1.5.2.7.7 1 1.5 1 .5 0 .9-.1 1-.4.3-.3.4-.6.5-1h2.3c-.1.6-.3 1.2-.8 1.8-.7 1-1.7 1.5-3 1.5-1.5 0-2.5-.4-3.1-1.2a5 5 0 0 1-1-3.2 5 5 0 0 1 1-3.4 4 4 0 0 1 3-1.2c1.1 0 2 .2 2.7.7.6.5 1 1.3 1.2 2.5Zm9.2.5v5h-2.3v-5.2c0-.4 0-.8-.2-1-.2-.5-.6-.7-1.2-.7-.5 0-1 .2-1.3.6-.3.4-.5 1-.5 1.7V54h-2.2V42.5h2.2v4l1.2-1 1.3-.2c.5 0 1 0 1.4.2a2.5 2.5 0 0 1 1.5 1.9l.1 1.6Zm2.4-2.6c.6-.7 1.6-1.1 3-1.1 1 0 1.8.2 2.5.5.8.4 1.1 1.1 1.1 2.1v4a35 35 0 0 0 .2 1.5l.3.3v.3h-2.4l-.2-.5V53l-1 .9c-.6.2-1.1.4-1.7.4-.8 0-1.4-.3-2-.7-.4-.4-.7-1-.7-1.9 0-1 .4-1.8 1.2-2.2.5-.3 1.1-.5 2-.6h.7l1-.3c.2-.1.4-.3.4-.6 0-.4-.1-.6-.4-.7-.2-.2-.6-.2-1-.2-.6 0-1 .1-1.1.4l-.4.7h-2c0-.7.2-1.3.6-1.8Zm1.7 6c.2.2.4.2.7.2.5 0 1 0 1.4-.4.4-.3.6-.8.6-1.5v-.8a2.6 2.6 0 0 1-1 .3l-.5.1-1 .3a1 1 0 0 0-.5 1c0 .4 0 .6.3.8Zm11-5.3c-.8 0-1.4.4-1.6 1-.2.3-.3.8-.3 1.3V54h-2.2v-8.5h2.2v1.2l.8-.9c.4-.3 1-.5 1.7-.5.9 0 1.6.2 2.2.7.5.4.8 1.2.8 2.3V54h-2.3v-5.2l-.1-1c-.3-.4-.7-.7-1.3-.7Zm9.6 5.3v1.7h-1c-1.1 0-1.8-.1-2.2-.5-.3-.3-.4-.7-.4-1.2V47H381v-1.5h1.2v-2.4h2.2v2.4h1.4V47h-1.4v4.5l.1.7.8.1h.5Zm10.5 1.8a3 3 0 0 1-1.7-.4l-.8-.9V54h-2.2V42.5h2.2v4l1-.8c.3-.3.8-.4 1.5-.4 1 0 2 .4 2.6 1.2.6.8 1 1.9 1 3.1 0 1.4-.4 2.5-1 3.3a3 3 0 0 1-2.6 1.3Zm1.2-4.3c0-.6 0-1.1-.2-1.5-.3-.8-.9-1.2-1.7-1.2-.8 0-1.3.4-1.6 1.1-.2.4-.3 1-.3 1.6 0 .7.2 1.3.5 1.8s.8.7 1.5.7c.6 0 1-.2 1.3-.7.3-.5.5-1 .5-1.8Zm8.2-2.4c-.9 0-1.5.3-1.8 1l-.2 1.4V54h-2.3v-8.5h2.1V47c.4-.6.7-1 1-1.2a2.4 2.4 0 0 1 1.7-.5h.2v2.3a6 6 0 0 0-.7 0Zm2.3-1c.6-.8 1.6-1.2 3-1.2 1 0 1.8.2 2.5.5.7.4 1.1 1.1 1.1 2.1v4a38.8 38.8 0 0 0 .1 1.5l.4.3v.3h-2.4l-.2-.5V53l-1.1.9c-.5.2-1 .4-1.6.4-.8 0-1.4-.3-2-.7-.4-.4-.7-1-.7-1.9 0-1 .4-1.8 1.2-2.2.5-.3 1.1-.5 2-.6h.7l1-.3c.2-.1.4-.3.4-.6 0-.4-.1-.6-.4-.7-.2-.2-.6-.2-1-.2-.6 0-1 .1-1.2.4l-.3.7h-2.1c0-.7.2-1.3.6-1.8Zm1.7 5.9c.2.2.4.2.7.2.5 0 1 0 1.3-.4.4-.3.7-.8.7-1.5v-.8a2.6 2.6 0 0 1-1 .3l-.5.1-1 .3a1 1 0 0 0-.6 1c0 .4.1.6.4.8Zm10.9-5.3c-.8 0-1.3.4-1.6 1l-.2 1.3V54h-2.2v-8.5h2.1v1.2l.9-.9c.4-.3 1-.5 1.7-.5.9 0 1.6.2 2.2.7.5.4.8 1.2.8 2.3V54H422v-5.2c0-.4 0-.8-.2-1-.2-.4-.6-.7-1.2-.7Zm13.5-4.6V54H432v-1.2c-.4.5-.7.9-1.1 1.1a3 3 0 0 1-1.5.4c-1 0-1.9-.4-2.6-1.2-.6-.8-1-1.9-1-3.1a6 6 0 0 1 1-3.5c.7-.8 1.6-1.2 2.7-1.2a2.7 2.7 0 0 1 2.4 1.3v-4.1h2.2Zm-6 7.3c0 .8.2 1.4.5 1.9s.8.7 1.4.7c.6 0 1.1-.2 1.4-.7.4-.5.5-1 .5-1.8 0-1-.2-1.8-.8-2.3-.3-.2-.7-.4-1-.4-.7 0-1.2.3-1.5.8-.3.5-.5 1-.5 1.8Zm19.6-3.2c.7.9 1 2 1 3.2a5 5 0 0 1-1 3.2c-.7.9-1.8 1.3-3.3 1.3-1.4 0-2.5-.4-3.2-1.3a5 5 0 0 1-1.1-3.2 5 5 0 0 1 1-3.2c.8-1 1.9-1.4 3.3-1.4 1.5 0 2.6.5 3.3 1.4Zm-3.3.5c-.6 0-1.1.2-1.5.7-.3.4-.5 1.1-.5 2 0 .8.2 1.5.5 2 .4.4.9.6 1.5.6.7 0 1.2-.2 1.5-.7.4-.4.5-1 .5-2 0-.8-.1-1.5-.5-2-.3-.4-.8-.6-1.5-.6Zm5.1-1.6h2.5l1.8 6.3 1.8-6.3h2.4l-3 8.5h-2.4l-3-8.5Zm17 6c0 .5-.2 1-.7 1.5-.7.9-1.8 1.3-3 1.3s-2.1-.4-3-1c-.8-.8-1.2-1.9-1.2-3.5 0-1.4.4-2.6 1.1-3.4.8-.7 1.8-1.1 3-1.1.7 0 1.3 0 1.9.4.5.2 1 .6 1.4 1.2.3.5.5 1.1.6 1.8v1.7H461c0 .8.3 1.4.8 1.8.3.2.6.3 1 .3.5 0 .9-.2 1.2-.4l.4-.6h2.3Zm-2.1-2.6c0-.6-.2-1-.6-1.3-.3-.4-.7-.5-1.2-.5s-.9.2-1.2.5c-.2.3-.4.7-.5 1.3h3.5Zm8-1.4c-.8 0-1.4.3-1.7 1-.2.2-.3.7-.3 1.4V54h-2.2v-8.5h2.1V47c.3-.6.6-1 .9-1.2a2.4 2.4 0 0 1 1.7-.5h.2v2.3a6 6 0 0 0-.6 0Zm6.3 0c-.9 0-1.5.3-1.8 1-.2.2-.3.7-.3 1.4V54h-2.2v-8.5h2.1V47c.4-.6.7-1 1-1.2a2.4 2.4 0 0 1 1.7-.5h.2v2.3a6.1 6.1 0 0 0-.7 0Zm4.3-2V54h-2.3v-8.5h2.3Zm0-3v2h-2.3v-2h2.3Zm9.9 0V54h-2.2v-1.2c-.3.5-.7.9-1 1.1a3 3 0 0 1-1.6.4c-1 0-1.8-.4-2.5-1.2-.7-.8-1-1.9-1-3.1 0-1.5.3-2.6 1-3.5.6-.8 1.5-1.2 2.7-1.2a2.7 2.7 0 0 1 2.3 1.3v-4.1h2.3Zm-6 7.3c0 .8.1 1.4.4 1.9.3.5.8.7 1.4.7.7 0 1.2-.2 1.5-.7.3-.5.5-1 .5-1.8 0-1-.3-1.8-.8-2.3-.3-.2-.7-.4-1.1-.4-.7 0-1.2.3-1.5.8-.3.5-.4 1-.4 1.8Zm15.3 1.7c0 .5-.3 1-.8 1.5-.7.9-1.8 1.3-3 1.3-1.1 0-2.1-.4-3-1-.8-.8-1.2-1.9-1.2-3.5 0-1.4.4-2.6 1.1-3.4.8-.7 1.8-1.1 3-1.1.7 0 1.3 0 1.9.4.5.2 1 .6 1.4 1.2.3.5.5 1.1.6 1.8l.1 1.7h-5.8c0 .8.3 1.4.8 1.8a2 2 0 0 0 2.2-.1l.4-.6h2.3Zm-2.2-2.6c0-.6-.2-1-.6-1.3-.3-.4-.7-.5-1.1-.5-.6 0-1 .2-1.2.5-.3.3-.5.7-.6 1.3h3.5Zm9.7-3c.6.4 1 1.1 1.1 2.2h-2.2l-.2-.7c-.3-.3-.7-.5-1.3-.5-.5 0-.8.1-1 .3-.2.1-.3.3-.3.5 0 .3 0 .4.3.6l2.3.6c.9.2 1.6.5 2 1 .4.3.7.9.7 1.5 0 .9-.4 1.6-1 2-.6.6-1.6.9-2.9.9-1.3 0-2.3-.3-3-.9-.6-.5-1-1.2-1-2.1h2.3c0 .4.2.7.3.8.3.3.8.5 1.6.5.4 0 .8 0 1-.2.3-.2.4-.4.4-.6 0-.3-.1-.5-.3-.6l-2.3-.7c-1-.2-1.7-.5-2-.9-.5-.3-.7-.8-.7-1.5 0-.8.3-1.4 1-2 .6-.6 1.5-.9 2.6-.9 1 0 1.9.3 2.6.7Z"/>
    <rect width="188" height="32" x="319" y="195" fill="#fff" stroke="#3F80DE" stroke-width="2" rx="16"/>
    <path fill="#000" d="M337.8 211.5h3.6v1.7h-3.6v-1.7Zm4.3 0h3.6v1.7h-3.6v-1.7Zm9.6-2.1c.6.3.9 1 1 1.8h-1.8l-.2-.6c-.2-.2-.6-.3-1-.3s-.7 0-.9.2c-.2 0-.2.2-.2.4s0 .3.2.4l1.9.5a4 4 0 0 1 1.6.8c.4.4.6.8.6 1.3 0 .7-.3 1.3-.8 1.7-.5.4-1.3.6-2.4.6-1 0-1.9-.2-2.4-.7-.5-.4-.8-1-.8-1.7h1.9l.2.7c.2.2.7.3 1.3.3l.8-.1c.2-.1.3-.3.3-.5s0-.4-.2-.5l-2-.5a4 4 0 0 1-1.6-.7c-.3-.3-.4-.7-.4-1.3 0-.6.2-1.2.7-1.6a3 3 0 0 1 2.1-.7 4 4 0 0 1 2.1.5Zm8.8 2.5v4.1h-1.9v-4.2c0-.4 0-.7-.2-1-.1-.2-.5-.4-1-.4-.4 0-.8.2-1 .5-.3.3-.4.8-.4 1.4v3.7h-1.8v-9.3h1.8v3.3c.3-.4.6-.7 1-.9l1-.2c.4 0 .8 0 1.2.2a2 2 0 0 1 1.2 1.5v1.3Zm2-2c.4-.7 1.2-1 2.4-1 .7 0 1.4.2 2 .5.6.3.9.8.9 1.7v3.1a28.3 28.3 0 0 0 0 1.3l.4.2v.3h-2l-.1-.4v-.4l-1 .7c-.3.2-.8.3-1.3.3-.6 0-1.1-.2-1.5-.5a2 2 0 0 1-.6-1.5c0-.9.3-1.5 1-1.9.3-.2.9-.3 1.6-.4l.6-.1.7-.2c.2 0 .4-.2.4-.5s-.1-.5-.3-.6l-.9-.1c-.4 0-.7 0-.9.3l-.3.6H362c0-.6.2-1 .5-1.5Zm1.3 4.8.6.2c.4 0 .7-.1 1-.3.4-.3.6-.7.6-1.3v-.7a2 2 0 0 1-.9.3l-.4.1c-.3 0-.6.2-.8.3-.3.1-.4.4-.4.7 0 .3 0 .6.3.7Zm11.4-4.9c.5.6.8 1.5.8 2.7 0 1.2-.3 2.1-.8 2.7-.6.7-1.3 1-2.1 1-.6 0-1-.1-1.4-.4l-.6-.7v3.6h-1.8v-9.6h1.8v1l.6-.7a2.4 2.4 0 0 1 3.4.5Zm-1 2.7c0-.5-.2-1-.4-1.4-.3-.4-.7-.6-1.2-.6-.7 0-1.1.3-1.3 1-.2.3-.2.7-.2 1.2 0 .8.2 1.4.6 1.7l.9.3c.5 0 .9-.2 1.2-.6.2-.4.4-1 .4-1.6Zm9 1.5c0 .4-.2.8-.6 1.2-.6.7-1.4 1-2.5 1-.9 0-1.6-.3-2.3-.8-.7-.6-1-1.5-1-2.8 0-1.2.3-2.1.9-2.7a3 3 0 0 1 2.4-1l1.5.3c.5.2.9.6 1.2 1l.5 1.5v1.3h-4.7c0 .7.3 1.2.7 1.5.2.2.5.3.9.3.3 0 .6-.1.9-.4l.3-.4h1.9Zm-1.7-2.2c0-.4-.2-.8-.5-1-.2-.3-.6-.4-1-.4s-.7.1-1 .4a2 2 0 0 0-.3 1h2.8Zm2.5-.3h3.7v1.7H384v-1.7Zm8.7 4.7c-.6 0-1-.1-1.4-.4-.2 0-.5-.3-.7-.7v.9h-1.8v-9.3h1.8v3.3l.8-.8c.3-.2.7-.3 1.2-.3 1 0 1.7.4 2.2 1 .5.7.7 1.5.7 2.6 0 1-.2 2-.7 2.6-.5.7-1.2 1-2.1 1Zm1-3.6-.2-1.2c-.3-.6-.7-.9-1.4-.9-.6 0-1 .3-1.3.9-.2.3-.2.7-.2 1.2 0 .6.1 1.1.4 1.5.2.4.6.6 1.2.6.4 0 .8-.2 1-.6.3-.3.4-.8.4-1.5Zm9-2.6c.5.7.8 1.6.8 2.6a4 4 0 0 1-.9 2.6c-.6.7-1.5 1-2.6 1-1.2 0-2.1-.3-2.7-1a4 4 0 0 1-.9-2.6c0-1 .3-2 .9-2.6.6-.8 1.5-1.1 2.7-1.1 1.1 0 2 .3 2.6 1Zm-2.8.4c-.5 0-.9.2-1.2.6-.3.3-.4.9-.4 1.6 0 .6.1 1.2.4 1.6.3.3.7.5 1.2.5.6 0 1-.2 1.3-.5.3-.4.4-1 .4-1.6 0-.7-.1-1.3-.4-1.6-.3-.4-.7-.6-1.3-.6Zm8.4.3c-.8 0-1.2.3-1.5.8l-.2 1.2v3.3h-1.8v-7h1.7v1.3l.7-1a2 2 0 0 1 1.4-.4h.2v1.9a5.3 5.3 0 0 0-.5 0Zm7.9-4v9.3h-1.8v-1a3 3 0 0 1-.9 1l-1.2.2c-.8 0-1.5-.3-2-1-.6-.6-.9-1.5-.9-2.5 0-1.2.3-2 .8-2.8a3 3 0 0 1 2.2-1 2.2 2.2 0 0 1 2 1v-3.2h1.8Zm-5 5.9c0 .6.2 1.1.5 1.5.2.4.6.6 1.1.6.5 0 .9-.2 1.2-.6.2-.4.4-.9.4-1.5 0-.8-.2-1.4-.7-1.8-.2-.2-.5-.3-.9-.3-.5 0-.9.2-1.2.6-.2.4-.3.9-.3 1.5Zm12.5 1.4c0 .4-.2.8-.6 1.2-.6.7-1.4 1-2.5 1-.9 0-1.7-.3-2.3-.8-.7-.6-1-1.5-1-2.8 0-1.2.3-2.1.9-2.7.6-.7 1.4-1 2.3-1 .6 0 1.1.1 1.6.3.5.2.8.6 1.1 1l.6 1.5v1.3h-4.7c0 .7.2 1.2.6 1.5.3.2.6.3 1 .3.3 0 .6-.1.8-.4.2 0 .3-.2.4-.4h1.8Zm-1.8-2.2c0-.4-.1-.8-.4-1-.3-.3-.6-.4-1-.4s-.7.1-1 .4a2 2 0 0 0-.4 1h2.8Zm6.6-1c-.7 0-1.2.2-1.4.7-.2.2-.3.6-.3 1.2v3.3H425v-7h1.7v1.3l.8-1a2 2 0 0 1 1.4-.4h.1v1.9a5.3 5.3 0 0 0-.5 0Zm1 .7h3.7v1.7h-3.6v-1.7Zm8.4-.8c-.7 0-1.2.3-1.5.8l-.2 1.2v3.3h-1.8v-7h1.7v1.3l.8-1a2 2 0 0 1 1.4-.4h.1v1.9a5.2 5.2 0 0 0-.5 0Zm1.9-.9c.4-.6 1.3-.9 2.4-.9a4 4 0 0 1 2 .5c.6.3 1 .8 1 1.7v3.1a32.7 32.7 0 0 0 0 1.3l.3.2v.3h-2v-.4l-.1-.4-.9.7c-.4.2-.8.3-1.3.3a3 3 0 0 1-1.6-.5 2 2 0 0 1-.6-1.5c0-.9.4-1.5 1-1.9l1.6-.4.6-.1c.4 0 .6-.1.7-.2.3 0 .4-.2.4-.5s0-.5-.3-.6l-.8-.1c-.5 0-.8 0-1 .3l-.2.6h-1.7c0-.6.2-1 .5-1.5Zm1.3 4.9.6.2a2 2 0 0 0 1.1-.3c.3-.3.5-.7.5-1.3v-.7a2 2 0 0 1-.8.3l-.4.1c-.4 0-.7.2-.8.3-.3.1-.5.4-.5.7 0 .3.1.6.3.7Zm12-8v9.3h-1.8v-1c-.3.5-.6.8-1 1l-1.1.2c-.8 0-1.5-.3-2-1-.6-.6-1-1.5-1-2.5 0-1.2.4-2 1-2.8.5-.6 1.2-1 2-1a2.2 2.2 0 0 1 2 1v-3.2h1.8Zm-5 5.9c0 .6.2 1.1.4 1.5.3.4.7.6 1.2.6s.9-.2 1.2-.6c.2-.4.4-.9.4-1.5 0-.8-.3-1.4-.7-1.8l-.9-.3c-.5 0-1 .2-1.2.6-.2.4-.3.9-.3 1.5Zm8.4-3.5v6.9h-1.8v-7h1.8Zm0-2.5v1.7h-1.8v-1.7h1.8Zm6.2 8.4v.2l-.3.3-.9.5-.9.2c-1 0-1.7-.4-2-1.2a4 4 0 0 1-.3-1.7V209h1.8v4.2l.1.8c.2.4.5.6 1 .6.6 0 1-.3 1.3-.8l.2-1V209h1.8v6.9h-1.8v-1Zm8.3-5.6c.6.3.9 1 1 1.8h-2c0-.2 0-.4-.2-.6-.2-.2-.5-.3-1-.3-.4 0-.6 0-.8.2-.2 0-.3.2-.3.4s.1.3.3.4l1.9.5c.7.2 1.2.5 1.6.8.4.4.5.8.5 1.3 0 .7-.2 1.3-.7 1.7-.5.4-1.3.6-2.4.6-1 0-1.9-.2-2.4-.7-.5-.4-.8-1-.8-1.7h1.9c0 .3 0 .5.2.7.2.2.6.3 1.3.3l.8-.1c.2-.1.3-.3.3-.5s0-.4-.2-.5l-2-.5a4 4 0 0 1-1.6-.7c-.3-.3-.5-.7-.5-1.3 0-.6.3-1.2.8-1.6a3 3 0 0 1 2.1-.7 4 4 0 0 1 2.1.5Zm2 2.1h3.6v1.7h-3.7v-1.7Zm6.5-2.9a2 2 0 0 0-.3 1.1h-1.7c0-.4 0-.9.2-1.3l.7-1c.3-.2.5-.4.9-.5l1.2-.1c.8 0 1.5.2 2 .6.6.5.9 1.1.9 1.9 0 .5-.2 1-.5 1.3-.2.3-.4.4-.6.5l.7.4c.5.5.7 1 .7 1.8a3 3 0 0 1-.8 2c-.6.6-1.4 1-2.4 1-1.3 0-2.2-.5-2.7-1.3-.3-.5-.5-1-.5-1.8h1.8c0 .3 0 .6.2.9.2.4.6.7 1.2.7.3 0 .6-.2.9-.4.3-.3.4-.6.4-1 0-.7-.3-1-.7-1.3l-1.4-.1v-1.3l1.3-.2c.4-.2.6-.5.6-1 0-.4-.1-.7-.3-1-.2-.2-.5-.3-.9-.3s-.7.2-1 .4Zm8.1 5.5v1.9h-2v-1.9h2Zm-2-2.9v-1.8h2v1.8h-2Z"/>
    <rect width="59" height="32" x="384" y="280" fill="#fff" stroke="#3F80DE" stroke-width="2" rx="16"/>
    <path fill="#000" d="M409 296.6v1.4h-1v2h-1.8v-2h-3.6v-1.6l3.3-5.5h2v5.7h1.1Zm-5.1 0h2.3v-4l-2.3 4Zm12.2-2.8c.6.6.8 1.5.8 2.7 0 1.2-.2 2.1-.8 2.7-.5.7-1.2 1-2.1 1-.6 0-1-.1-1.4-.4l-.6-.7v3.6h-1.8v-9.6h1.8v1l.6-.7c.4-.3.9-.5 1.4-.5.8 0 1.5.3 2.1 1Zm-1 2.7c0-.5-.2-1-.4-1.4-.2-.4-.6-.6-1.2-.6s-1 .3-1.3 1c-.2.3-.2.7-.2 1.2 0 .8.2 1.4.6 1.7.3.2.6.3 1 .3s.8-.2 1-.6c.3-.4.5-1 .5-1.6Zm9.3 3.5h-2.2l-1.2-2-1.2 2h-2.2l2.3-3.5-2.2-3.4h2.2l1.1 2 1.2-2h2.1l-2.3 3.4 2.4 3.5Zm-80.2-37.3h1.8l2.7 7.9 2.6-8h1.8v9.4H352v-5.5a59.2 59.2 0 0 1 0-2.4l-2.6 7.9H348l-2.6-7.9v.3a59 59 0 0 0 0 2.1v5.5h-1.2v-9.3Zm13.5 2.3a3 3 0 0 1 2.5 1.3l.4 1.2.1 1.5h-5c0 .7.2 1.2.5 1.6.3.4.8.7 1.4.7a1.8 1.8 0 0 0 1.9-1.4h1.1l-.3.8a2.7 2.7 0 0 1-1.8 1.4 4 4 0 0 1-1 .1c-.8 0-1.5-.3-2.1-.9-.6-.6-.9-1.5-.9-2.6 0-1 .3-2 .9-2.6a3 3 0 0 1 2.3-1Zm1.8 3a3 3 0 0 0-.3-1.1c-.3-.6-.8-.9-1.6-.9-.5 0-1 .2-1.3.6-.3.4-.5.9-.5 1.5h3.7Zm2.7-2.8h1v1.2c.1-.3.3-.5.7-.9a1.7 1.7 0 0 1 1.3-.4h.3v1.2a1.6 1.6 0 0 0-.4 0c-.6 0-1 .1-1.3.5a2 2 0 0 0-.5 1.3v3.9h-1.1v-6.8Zm6.9-.2a3 3 0 0 1 1.8.6c.5.3.8 1 1 1.9h-1.2a2 2 0 0 0-.5-1c-.2-.3-.6-.5-1.1-.5-.8 0-1.3.4-1.6 1-.2.6-.3 1.1-.3 1.8s.2 1.3.4 1.7c.3.5.8.7 1.4.7.5 0 .8-.1 1.1-.4.3-.3.5-.7.6-1.2h1.1c-.1.9-.4 1.6-1 2a3 3 0 0 1-1.9.6c-.9 0-1.6-.3-2.1-1-.5-.6-.8-1.4-.8-2.4 0-1.2.3-2.1.9-2.8.5-.7 1.3-1 2.2-1Zm3.9-2.4h1.1v3.5l.7-.7c.4-.2.9-.4 1.4-.4 1 0 1.7.4 2 1 .2.4.3 1 .3 1.6v4.4h-1.2v-4.3c0-.5 0-.8-.2-1-.2-.5-.6-.6-1.1-.6a2 2 0 0 0-1.3.4c-.4.4-.6 1-.6 1.9v3.6H373v-9.4Zm8 7.6c0 .3.2.6.4.8l.9.3 1.2-.3c.6-.3.9-.8.9-1.5v-1a2 2 0 0 1-.5.3h-.7l-.7.2-1 .2c-.3.2-.4.6-.4 1Zm2.8-2.3c.3 0 .5-.2.6-.3v-.5c0-.4-.1-.7-.4-.8-.3-.2-.7-.3-1.2-.3-.6 0-1 .2-1.2.5-.2.2-.3.4-.3.8h-1c0-.9.2-1.4.7-1.8.6-.3 1.2-.5 1.9-.5.8 0 1.4.2 1.9.5s.7.8.7 1.4v4l.1.2.3.1a2.8 2.8 0 0 0 .4 0v.8l-.4.1h-.4c-.4 0-.7 0-.8-.4l-.2-.6a3.1 3.1 0 0 1-2.4 1.1c-.7 0-1.2-.2-1.6-.5a2 2 0 0 1-.6-1.5c0-.6.2-1.1.6-1.4.4-.4.9-.6 1.5-.7l1.8-.2Zm3.6-2.7h1.1v1a3 3 0 0 1 1-.9l1.2-.3c1 0 1.6.4 2 1 .2.4.3 1 .3 1.6v4.4h-1.2v-4.3c0-.4 0-.7-.2-1-.2-.4-.6-.6-1-.6h-.8l-.8.6-.4.7v4.6h-1.2v-6.8Zm7.5-1.9h1.1v1.9h1.1v1h-1v4.4c0 .2 0 .4.2.4l.4.1h.4v.9h-.4a4 4 0 0 1-.4.1c-.6 0-1-.1-1.1-.4-.2-.3-.3-.6-.3-1V266h-1v-.9h1v-1.9Zm7.6 1.9 1.8 5.5 1.9-5.5h1.2L405 272h-1.3l-2.5-6.8h1.4Zm6.8 5c0 .3 0 .6.3.8l.9.3 1.2-.3c.6-.3 1-.8 1-1.5v-1a2 2 0 0 1-.6.3h-.7l-.7.2-.9.2c-.4.2-.5.6-.5 1Zm2.7-2.3c.3 0 .5-.2.6-.3v-.5c0-.4-.1-.7-.4-.8-.2-.2-.6-.3-1.2-.3s-1 .2-1.2.5c-.2.2-.3.4-.3.8h-1c0-.9.2-1.4.7-1.8.6-.3 1.2-.5 1.9-.5.8 0 1.4.2 2 .5.4.3.7.8.7 1.4v4.2l.3.1a2.8 2.8 0 0 0 .4 0v.8l-.4.1h-.4c-.4 0-.7 0-.8-.4l-.2-.6a3.1 3.1 0 0 1-2.4 1.1c-.7 0-1.2-.2-1.6-.5a2 2 0 0 1-.6-1.5c0-.6.2-1.1.6-1.4.4-.4.9-.6 1.5-.7l1.8-.2Zm3.7-5.2h1.1v9.3h-1.1v-9.3Zm4 2.5v4.5l.1.9c.2.4.6.6 1.2.6.8 0 1.3-.4 1.6-1 .2-.5.2-1 .2-1.7v-3.3h1.2v6.8h-1.1v-1l-.5.7a3 3 0 0 1-1.6.5c-1 0-1.7-.3-2-1-.2-.3-.3-.8-.3-1.4v-4.6h1.2Zm8.9-.2a3 3 0 0 1 2.4 1.3c.3.3.4.7.5 1.2v1.5h-4.9c0 .7.2 1.2.5 1.6.3.4.8.7 1.4.7a1.8 1.8 0 0 0 1.9-1.4h1.1l-.3.8a2.7 2.7 0 0 1-1.8 1.4 4 4 0 0 1-1 .1c-.8 0-1.5-.3-2.1-.9-.6-.6-1-1.5-1-2.6 0-1 .4-2 1-2.6a3 3 0 0 1 2.3-1Zm1.8 3a3 3 0 0 0-.3-1.1c-.3-.6-.8-.9-1.6-.9-.5 0-1 .2-1.3.6-.3.4-.5.9-.6 1.5h3.8Zm9 3.3c.7 0 1.2-.3 1.5-.9.3-.6.4-1.2.4-2l-.3-1.5c-.3-.6-.9-.9-1.7-.9-.7 0-1.2.3-1.5.8a4 4 0 0 0-.5 2c0 .7.2 1.3.5 1.7.3.5.8.8 1.5.8Zm0-6.3a3 3 0 0 1 2.2.9c.6.6.9 1.4.9 2.6 0 1-.3 2-.8 2.7-.5.7-1.4 1-2.5 1-1 0-1.7-.3-2.2-.9-.6-.6-.8-1.5-.8-2.6 0-1 .2-2 .8-2.7a3 3 0 0 1 2.4-1Zm5 .2 1.8 5.5 2-5.5h1.2l-2.6 6.8h-1.2l-2.5-6.8h1.3Zm8.8-.2a3 3 0 0 1 2.4 1.3c.3.3.4.7.5 1.2v1.5h-4.9c0 .7.2 1.2.5 1.6.3.4.8.7 1.4.7a1.8 1.8 0 0 0 1.9-1.4h1c0 .2 0 .5-.2.8a2.7 2.7 0 0 1-1.8 1.4 4 4 0 0 1-1 .1c-.8 0-1.6-.3-2.1-.9-.6-.6-1-1.5-1-2.6 0-1 .4-2 1-2.6a3 3 0 0 1 2.3-1Zm1.8 3a3 3 0 0 0-.3-1.1c-.3-.6-.9-.9-1.6-.9-.5 0-1 .2-1.3.6-.4.4-.5.9-.6 1.5h3.8Zm2.6-2.8h1.1v1.2c.1-.3.3-.5.7-.9a1.7 1.7 0 0 1 1.3-.4h.2v1.2a1.6 1.6 0 0 0-.3 0c-.6 0-1 .1-1.4.5a2 2 0 0 0-.4 1.3v3.9h-1.2v-6.8Zm4.4 0h1v1.2c.1-.3.3-.5.7-.9a1.7 1.7 0 0 1 1.3-.4h.3v1.2a1.6 1.6 0 0 0-.4 0c-.6 0-1 .1-1.3.5a2 2 0 0 0-.5 1.3v3.9H462v-6.8Zm4.3 0h1.1v6.8h-1.1v-6.8Zm0-2.5h1.1v1.3h-1.1v-1.3Zm3.6 6c0 .7.1 1.3.4 1.8.3.5.8.7 1.5.7.5 0 1-.2 1.3-.6.4-.5.5-1.1.5-2 0-.9-.1-1.5-.5-1.9-.3-.4-.8-.6-1.3-.6-.6 0-1 .2-1.4.6-.4.5-.5 1.1-.5 2Zm1.7-3.6c.5 0 1 0 1.3.3l.7.7v-3.5h1v9.4h-1v-1c-.2.5-.5.8-.9 1l-1.2.2c-.8 0-1.5-.3-2-1-.6-.6-.8-1.4-.8-2.5 0-1 .2-1.8.7-2.5.5-.8 1.2-1.1 2.2-1.1Zm7.6 0a3 3 0 0 1 2.4 1.2c.3.3.4.7.5 1.2l.1 1.5h-5c0 .7.2 1.2.5 1.6.3.4.8.7 1.4.7a1.8 1.8 0 0 0 1.9-1.4h1.1l-.3.8a2.7 2.7 0 0 1-1.8 1.4 4 4 0 0 1-1 .1c-.8 0-1.5-.3-2.1-.9-.6-.6-.9-1.5-.9-2.6 0-1 .3-2 .9-2.6a3 3 0 0 1 2.3-1Zm1.8 3a3 3 0 0 0-.3-1.2c-.3-.6-.8-.9-1.6-.9-.5 0-1 .2-1.3.6-.3.4-.5.9-.5 1.5h3.7Zm-114.1-85.5c.5 0 1 0 1.2-.2.5-.2.7-.7.7-1.3 0-.6-.2-1-.7-1.2l-1.3-.2h-2.2v3h2.3Zm.4 4.3c.8 0 1.3-.2 1.7-.7.2-.2.3-.6.3-1 0-.7-.3-1.1-1-1.4l-1.2-.2h-2.5v3.3h2.7Zm-4-8.2h4c1.1 0 2 .3 2.4 1 .2.3.4.8.4 1.3 0 .6-.2 1-.5 1.4l-.8.6 1.1.6c.4.4.6 1 .6 1.7a3 3 0 0 1-.5 1.6c-.6.7-1.5 1.1-2.7 1.1h-4v-9.3Zm9.5 7.5c0 .3 0 .6.3.8l.9.3a2 2 0 0 0 1.1-.3c.7-.3 1-.8 1-1.5v-1a2 2 0 0 1-.5.3h-.7l-.7.2-1 .2c-.3.2-.4.6-.4 1Zm2.7-2.3c.3 0 .5-.2.6-.3v-.5c0-.4-.1-.7-.4-.8-.3-.2-.7-.3-1.2-.3-.6 0-1 .2-1.2.5-.2.2-.3.4-.3.8h-1c0-.9.2-1.4.7-1.8.6-.3 1.2-.5 1.9-.5.8 0 1.4.2 1.9.5s.7.8.7 1.4v4l.1.2.3.1a2.8 2.8 0 0 0 .4 0v.8l-.4.1h-.4c-.4 0-.7 0-.8-.4l-.2-.6a3.1 3.1 0 0 1-2.4 1.1c-.7 0-1.2-.2-1.6-.5a2 2 0 0 1-.6-1.5c0-.6.2-1.1.6-1.4.4-.4.9-.6 1.5-.7l1.8-.2Zm4.3 2c0 .3.1.6.3.8.3.4.8.6 1.5.6a2 2 0 0 0 1.1-.3c.3-.2.5-.4.5-.8 0-.3-.1-.5-.4-.7l-1-.3-.9-.3-1.3-.4c-.5-.3-.7-.8-.7-1.3 0-.7.2-1.2.7-1.6.5-.4 1-.6 1.9-.6 1 0 1.7.3 2.2 1 .3.3.4.7.4 1.2h-1l-.4-.7c-.2-.3-.7-.5-1.3-.5-.5 0-.8 0-1 .2a1 1 0 0 0-.3.7c0 .3.1.5.4.7l.7.3.8.2c.8.2 1.4.4 1.6.6.5.2.7.7.7 1.3a2 2 0 0 1-.7 1.6c-.4.4-1.1.7-2 .7-1 0-1.8-.3-2.2-.7-.4-.5-.7-1-.7-1.7h1.1Zm8.7-4.9a3 3 0 0 1 2.4 1.3c.2.3.4.7.4 1.2l.1 1.5h-5c0 .7.3 1.2.6 1.6.3.4.7.7 1.4.7a1.8 1.8 0 0 0 1.8-1.4h1.2l-.3.8a2.7 2.7 0 0 1-1.8 1.4 4 4 0 0 1-1 .1 3 3 0 0 1-2.2-.9c-.6-.6-.9-1.5-.9-2.6 0-1 .3-2 1-2.6a3 3 0 0 1 2.3-1Zm1.8 3a3 3 0 0 0-.3-1.1c-.4-.6-.9-.9-1.6-.9-.5 0-1 .2-1.3.6a2 2 0 0 0-.6 1.5h3.8Zm6.4-4.7h1.2v1.9h1v1h-1v4.4c0 .2 0 .4.2.4l.4.1h.4v.9h-.4a4 4 0 0 1-.4.1c-.6 0-1-.1-1.1-.4-.2-.3-.3-.6-.3-1V182h-1v-.9h1v-1.9Zm6 8c.9 0 1.4-.3 1.6-.9.3-.6.5-1.2.5-2l-.3-1.5c-.4-.6-1-.9-1.7-.9s-1.2.3-1.5.8a4 4 0 0 0-.5 2c0 .7.2 1.3.5 1.7.3.5.8.8 1.5.8Zm.1-6.3a3 3 0 0 1 2.3.9c.6.6.9 1.4.9 2.6 0 1-.3 2-.8 2.7-.6.7-1.4 1-2.5 1-1 0-1.7-.3-2.2-.9-.6-.6-.9-1.5-.9-2.6 0-1 .3-2 .9-2.7a3 3 0 0 1 2.3-1Zm4.5-2.3h1.1v5.4l3-2.9h1.4l-2.6 2.5 2.7 4.3h-1.4l-2.1-3.4-1 .8v2.6h-1v-9.3Zm9.4 2.3a3 3 0 0 1 2.4 1.3l.5 1.2v1.5h-5c.1.7.3 1.2.6 1.6.3.4.7.7 1.4.7a1.8 1.8 0 0 0 1.8-1.4h1.2l-.3.8a2.7 2.7 0 0 1-1.8 1.4 4 4 0 0 1-1 .1 3 3 0 0 1-2.2-.9c-.6-.6-.8-1.5-.8-2.6 0-1 .2-2 .8-2.6a3 3 0 0 1 2.4-1Zm1.8 3a3 3 0 0 0-.3-1.1c-.4-.6-.9-.9-1.6-.9-.5 0-1 .2-1.3.6a2 2 0 0 0-.6 1.5h3.8Zm2.6-2.8h1v1a3 3 0 0 1 1-.9c.4-.2.8-.3 1.3-.3 1 0 1.6.4 2 1l.2 1.6v4.4h-1.2v-4.3l-.1-1c-.2-.4-.6-.6-1.1-.6h-.7c-.3.2-.6.3-.8.6l-.4.7v4.6H421v-6.8Zm10.8 0h1.1v1a3 3 0 0 1 1-.9l1.2-.3c1 0 1.6.4 2 1 .2.4.3 1 .3 1.6v4.4h-1.2v-4.3c0-.4 0-.7-.2-1-.2-.4-.6-.6-1-.6h-.8l-.8.6-.4.7v4.6h-1.2v-6.8Zm8.1 5c0 .3.2.6.4.8.2.2.5.3.9.3s.7-.1 1.1-.3c.7-.3 1-.8 1-1.5v-1a2 2 0 0 1-.6.3h-.6l-.7.2-1 .2c-.3.2-.5.6-.5 1Zm2.8-2.3c.3 0 .4-.2.5-.3l.1-.5c0-.4-.1-.7-.4-.8-.3-.2-.7-.3-1.2-.3-.6 0-1 .2-1.3.5l-.2.8h-1.1c0-.9.3-1.4.8-1.8.5-.3 1.1-.5 1.8-.5.8 0 1.5.2 2 .5s.7.8.7 1.4v4.2l.4.1a2.8 2.8 0 0 0 .4 0v.8l-.4.1h-.4c-.4 0-.7 0-.9-.4l-.2-.6a3.1 3.1 0 0 1-2.4 1.1c-.6 0-1.2-.2-1.6-.5a2 2 0 0 1-.6-1.5c0-.6.2-1.1.6-1.4a3 3 0 0 1 1.6-.7l1.8-.2Zm3.6-2.7h1.1v1l.8-.8c.3-.2.8-.4 1.2-.4.6 0 1 .2 1.4.4l.5.7a2.4 2.4 0 0 1 2-1c1 0 1.5.3 1.9 1 .2.3.2.8.2 1.4v4.5h-1.1v-4.7c0-.5-.2-.8-.4-1l-.8-.2c-.5 0-.8.1-1.2.4-.3.3-.5.8-.5 1.5v4h-1.1v-4.4c0-.5 0-.8-.2-1-.2-.4-.5-.5-1-.5-.4 0-.8.1-1.1.5-.4.3-.6 1-.6 1.8v3.6h-1.1v-6.8Zm13.7-.2a3 3 0 0 1 2.4 1.3c.2.3.4.7.4 1.2l.2 1.5h-5c0 .7.2 1.2.5 1.6.3.4.7.7 1.4.7a1.8 1.8 0 0 0 1.8-1.4h1.2l-.3.8a2.7 2.7 0 0 1-1.8 1.4 4 4 0 0 1-1 .1 3 3 0 0 1-2.2-.9c-.6-.6-.9-1.5-.9-2.6 0-1 .3-2 1-2.6a3 3 0 0 1 2.3-1Zm1.8 3a3 3 0 0 0-.3-1.1c-.4-.6-.9-.9-1.6-.9-.5 0-1 .2-1.3.6a2 2 0 0 0-.6 1.5h3.8ZM345.4 77.7h1.8l2.7 7.9 2.7-8h1.8V87h-1.2v-5.5a51.5 51.5 0 0 1 0-2.4l-2.7 7.9h-1.2l-2.7-7.9v.3a70.9 70.9 0 0 0 0 2.1V87h-1.2v-9.3ZM359 80a3 3 0 0 1 2.4 1.3c.2.3.4.7.4 1.2l.2 1.5h-5c0 .7.2 1.2.5 1.6.3.4.7.7 1.4.7a1.8 1.8 0 0 0 1.8-1.4h1.2l-.3.8a2.7 2.7 0 0 1-1.8 1.4 4 4 0 0 1-1 .1 3 3 0 0 1-2.2-.9c-.6-.6-.9-1.5-.9-2.6 0-1 .3-2 1-2.6a3 3 0 0 1 2.3-1Zm1.8 3a3 3 0 0 0-.3-1.1c-.4-.6-.9-.9-1.6-.9-.5 0-1 .2-1.3.6a2 2 0 0 0-.6 1.5h3.8Zm2.6-2.8h1v1.2l.7-.9a1.7 1.7 0 0 1 1.3-.4h.3v1.2a1.7 1.7 0 0 0-.4 0c-.6 0-1 .1-1.3.5a2 2 0 0 0-.5 1.3V87h-1.1v-6.8Zm7-.2a3 3 0 0 1 1.8.6c.5.3.7 1 .8 1.9h-1a2 2 0 0 0-.5-1c-.3-.3-.7-.5-1.2-.5-.7 0-1.2.4-1.6 1-.2.6-.3 1.1-.3 1.8s.2 1.3.5 1.7c.3.5.7.7 1.3.7.5 0 .9-.1 1.2-.4l.5-1.2h1.1c0 .9-.4 1.6-1 2a3 3 0 0 1-1.9.6c-.8 0-1.6-.3-2-1-.6-.6-.9-1.4-.9-2.4 0-1.2.3-2.1.9-2.8.6-.7 1.3-1 2.2-1Zm3.8-2.4h1.1v3.5c.3-.3.5-.6.8-.7.3-.2.8-.4 1.3-.4 1 0 1.7.4 2 1 .2.4.3 1 .3 1.6V87h-1.1v-4.3l-.2-1c-.2-.5-.6-.6-1.2-.6a2 2 0 0 0-1.3.4c-.4.4-.6 1-.6 1.9V87h-1.1v-9.4Zm8.1 7.6c0 .3.1.6.4.8.2.2.5.3.8.3l1.2-.3c.6-.3 1-.8 1-1.5v-1a2 2 0 0 1-.6.3h-.6l-.7.2-1 .2c-.3.2-.5.6-.5 1Zm2.8-2.3c.2 0 .4-.2.5-.3V82c0-.4 0-.7-.3-.8-.3-.2-.7-.3-1.2-.3-.6 0-1 .2-1.3.5l-.3.8h-1c0-.9.2-1.4.8-1.8.5-.3 1.1-.5 1.8-.5.8 0 1.4.2 2 .5.4.3.7.8.7 1.4V86l.4.1a2.6 2.6 0 0 0 .3 0v.8l-.4.1h-.3c-.4 0-.7 0-1-.4l-.1-.6c-.2.3-.6.6-1 .8-.4.2-1 .3-1.4.3-.7 0-1.2-.2-1.6-.5a2 2 0 0 1-.6-1.5c0-.6.2-1.1.6-1.5a4 4 0 0 1 1.5-.6l1.9-.2Zm3.6-2.7h1v1a3 3 0 0 1 1-.9c.4-.2.8-.3 1.3-.3 1 0 1.6.4 2 1l.2 1.6V87H393v-4.3l-.1-1c-.2-.4-.6-.6-1.1-.6h-.7c-.3.2-.6.3-.8.6l-.4.7-.1 1V87h-1.1v-6.8Zm7.4-1.9h1.2v1.9h1v1h-1v4.4c0 .2 0 .4.2.4l.5.1h.4v.9h-.4l-.5.1c-.5 0-.9-.1-1-.4-.3-.3-.4-.6-.4-1V81h-.9v-.9h1v-1.9Zm9.7 1.7a3 3 0 0 1 1.8.6c.5.3.8 1 .9 1.9h-1.1a2 2 0 0 0-.5-1c-.2-.3-.6-.5-1.1-.5-.8 0-1.3.4-1.6 1-.2.6-.3 1.1-.3 1.8s.1 1.3.4 1.7c.3.5.8.7 1.4.7.5 0 .8-.1 1.1-.4.3-.3.5-.7.6-1.2h1c0 .9-.4 1.6-.9 2a3 3 0 0 1-2 .6c-.8 0-1.5-.3-2-1-.6-.6-.8-1.4-.8-2.4 0-1.2.3-2.1.8-2.8.6-.7 1.4-1 2.3-1Zm3.9-2.3h1.1V87h-1.1v-9.3Zm3.7 7.5c0 .3.1.6.4.8.2.2.5.3.8.3l1.2-.3c.6-.3 1-.8 1-1.5v-1a2 2 0 0 1-.6.3h-.6l-.7.2-1 .2c-.3.2-.5.6-.5 1Zm2.8-2.3c.2 0 .4-.2.5-.3V82c0-.4 0-.7-.3-.8-.3-.2-.7-.3-1.2-.3-.6 0-1 .2-1.3.5l-.3.8h-1c0-.9.3-1.4.8-1.8.5-.3 1.1-.5 1.8-.5.8 0 1.4.2 2 .5.4.3.7.8.7 1.4V86l.4.1a2.5 2.5 0 0 0 .3 0v.8l-.4.1h-.3c-.4 0-.7 0-.9-.4l-.2-.6a3.1 3.1 0 0 1-2.4 1.1c-.7 0-1.2-.2-1.6-.5a2 2 0 0 1-.6-1.5c0-.6.2-1.1.6-1.5.4-.3 1-.5 1.6-.6l1.8-.2Zm4.2 2c0 .3.2.6.3.8.3.4.8.6 1.5.6.5 0 .8-.1 1.1-.3.4-.2.5-.4.5-.8 0-.3-.1-.5-.4-.7l-1-.3-.8-.3-1.3-.4c-.5-.3-.8-.8-.8-1.3 0-.7.3-1.2.7-1.6.5-.4 1.1-.6 1.9-.6 1 0 1.8.3 2.2 1 .3.3.4.7.4 1.2h-1c0-.3-.2-.5-.3-.7-.3-.3-.7-.5-1.4-.5-.4 0-.7 0-1 .2a1 1 0 0 0-.3.7c0 .3.1.5.4.7l.8.3.7.2c.9.2 1.4.4 1.7.6.4.2.7.7.7 1.3 0 .6-.3 1.2-.7 1.6-.5.4-1.2.7-2.1.7-1 0-1.8-.3-2.2-.7-.4-.5-.6-1-.7-1.7h1.1Zm6.5 0c0 .3.2.6.3.8.3.4.8.6 1.5.6.5 0 .8-.1 1.1-.3.4-.2.5-.4.5-.8 0-.3-.1-.5-.4-.7l-1-.3-.8-.3-1.3-.4c-.5-.3-.8-.8-.8-1.3 0-.7.3-1.2.7-1.6.5-.4 1.1-.6 1.9-.6 1 0 1.8.3 2.2 1 .3.3.4.7.4 1.2h-1c0-.3-.2-.5-.3-.7-.3-.3-.7-.5-1.4-.5-.4 0-.7 0-1 .2a1 1 0 0 0-.3.7c0 .3.1.5.4.7l.8.3.7.2c.9.2 1.4.4 1.7.6.4.2.7.7.7 1.3 0 .6-.3 1.2-.7 1.6-.5.4-1.2.7-2.1.7-1 0-1.8-.3-2.2-.7-.4-.5-.6-1-.7-1.7h1.1Zm12.2 1.4c.7 0 1.3-.3 1.5-.9.3-.6.5-1.2.5-2l-.3-1.5c-.4-.6-1-.9-1.7-.9s-1.2.3-1.5.8a4 4 0 0 0-.5 2c0 .7.2 1.3.5 1.7.3.5.8.8 1.5.8Zm0-6.3a3 3 0 0 1 2.2.9c.7.6 1 1.4 1 2.6 0 1-.3 2-.8 2.7-.6.7-1.4 1-2.5 1a3 3 0 0 1-2.3-.9 4 4 0 0 1-.8-2.5c0-1.2.3-2.1.9-2.8a3 3 0 0 1 2.3-1Zm5 .2 1.9 5.5 1.9-5.5h1.2l-2.5 6.8h-1.2l-2.5-6.8h1.3Zm8.9-.2a3 3 0 0 1 2.4 1.3c.2.3.4.7.4 1.2l.1 1.5h-5c0 .7.2 1.2.6 1.6.3.4.7.7 1.4.7a1.8 1.8 0 0 0 1.8-1.4h1.2l-.3.8a2.7 2.7 0 0 1-1.8 1.4 4 4 0 0 1-1 .1 3 3 0 0 1-2.2-.9c-.6-.6-.9-1.5-.9-2.6 0-1 .3-2 1-2.6a3 3 0 0 1 2.3-1Zm1.8 3a3 3 0 0 0-.4-1.1c-.3-.6-.8-.9-1.5-.9-.5 0-1 .2-1.3.6a2 2 0 0 0-.6 1.5h3.8Zm2.6-2.8h1v1.2l.7-.9a1.7 1.7 0 0 1 1.3-.4h.3v1.2a1.7 1.7 0 0 0-.4 0c-.6 0-1 .1-1.3.5a2 2 0 0 0-.5 1.3V87h-1.1v-6.8Zm4.3 0h1.1v1.2c0-.3.3-.5.7-.9a1.7 1.7 0 0 1 1.3-.4h.2v1.2a1.7 1.7 0 0 0-.4 0c-.5 0-1 .1-1.3.5a2 2 0 0 0-.4 1.3V87h-1.2v-6.8Zm4.3 0h1.2V87H466v-6.8Zm0-2.5h1.2V79H466v-1.3Zm3.6 6c0 .7.2 1.3.5 1.8s.8.7 1.5.7c.5 0 1-.2 1.3-.6.3-.5.5-1.1.5-2a3 3 0 0 0-.5-1.9 1.8 1.8 0 0 0-2.7 0 3 3 0 0 0-.6 2Zm1.8-3.6c.5 0 1 0 1.3.3l.7.7v-3.5h1V87h-1v-1a2 2 0 0 1-1 1l-1.2.2c-.7 0-1.4-.3-2-1-.5-.5-.8-1.4-.8-2.5 0-1 .3-1.8.8-2.5.5-.8 1.2-1.1 2.2-1.1Zm7.6 0a3 3 0 0 1 2.4 1.2l.5 1.2V84h-5c.1.7.3 1.2.6 1.6.3.4.8.7 1.4.7a1.8 1.8 0 0 0 1.9-1.4h1c0 .2 0 .5-.2.8a2.7 2.7 0 0 1-1.8 1.4 4 4 0 0 1-1 .1c-.8 0-1.6-.3-2.2-.9a4 4 0 0 1-.8-2.6c0-1 .3-2 .9-2.6a3 3 0 0 1 2.3-1Zm1.8 3a3 3 0 0 0-.3-1.2c-.3-.6-.9-.9-1.6-.9-.5 0-1 .2-1.3.6a2 2 0 0 0-.6 1.5h3.8Z"/>
    <path stroke="#3F80DE" stroke-dasharray="3 4" stroke-linecap="round" stroke-width="2" d="M414 145v28m0 55v28"/>
    <path fill="#CB361D" d="M189 295a1 1 0 0 0 0 2v-2Zm190.7 1.7c.4-.4.4-1 0-1.4l-6.4-6.4a1 1 0 1 0-1.4 1.4l5.7 5.7-5.7 5.7a1 1 0 1 0 1.4 1.4l6.4-6.4ZM189 297h2v-2h-2v2Zm6 0h3.9v-2h-4v2Zm7.9 0h4v-2h-4v2Zm7.9 0h4v-2h-4v2Zm7.9 0h4v-2h-4v2Zm7.9 0h4v-2h-4v2Zm8 0h3.9v-2h-4v2Zm7.8 0h4v-2h-4v2Zm8 0h4v-2h-4v2Zm7.9 0h4v-2h-4v2Zm7.9 0h4v-2h-4v2Zm7.9 0h4v-2h-4v2Zm8 0h3.9v-2h-4v2Zm7.8 0h4v-2h-4v2Zm8 0h4v-2h-4v2Zm7.9 0h4v-2h-4v2Zm7.9 0h4v-2h-4v2Zm7.9 0h4v-2h-4v2Zm8 0h3.9v-2h-4v2Zm7.8 0h4v-2h-4v2Zm8 0h4v-2h-4v2Zm7.9 0h4v-2h-4v2Zm7.9 0h4v-2h-4v2Zm7.9 0h4v-2h-4v2Zm8 0h1.9v-2h-2v2Z"/>
    <rect width="115" height="38" x="590" y="94" fill="#fff" stroke="#CB361D" stroke-width="2" rx="7"/>
    <path fill="#000" d="M601 116.1h1.9v1.9h-2v-1.9Zm9.5-.1c0 .4-.2.8-.6 1.2-.6.7-1.4 1-2.5 1-.9 0-1.7-.3-2.3-.8-.7-.6-1-1.5-1-2.8 0-1.2.3-2.1.9-2.7.6-.7 1.4-1 2.3-1 .6 0 1.1.1 1.6.3.5.2.8.6 1.1 1l.6 1.5v1.3H606c0 .7.2 1.2.6 1.5.3.2.6.3 1 .3.3 0 .6-.1.8-.4.2 0 .3-.2.4-.4h1.8Zm-1.8-2.2c0-.4-.1-.8-.4-1-.3-.3-.6-.4-1-.4s-.7.1-1 .4a2 2 0 0 0-.4 1h2.8Zm3.2-5.2h1.8v9.4h-1.8v-9.4Zm8.3 2.8c.6.3.9 1 1 1.8h-1.8l-.2-.6c-.2-.2-.6-.3-1-.3-.5 0-.7 0-.9.2-.2 0-.3.2-.3.4s.1.3.3.4l1.9.5a4 4 0 0 1 1.6.8c.4.4.6.8.6 1.3 0 .7-.3 1.3-.8 1.7-.5.4-1.3.6-2.4.6-1 0-1.9-.2-2.4-.7-.5-.4-.8-1-.8-1.7h1.9c0 .3 0 .5.2.7.2.2.7.3 1.3.3l.8-.1c.2-.1.3-.3.3-.5s0-.4-.2-.5l-2-.5a4 4 0 0 1-1.6-.7c-.3-.3-.5-.7-.5-1.3 0-.6.3-1.2.8-1.6a3 3 0 0 1 2.1-.7 4 4 0 0 1 2.1.5Zm4.4-.3v6.9h-1.9v-7h1.9Zm0-2.5v1.7h-1.9v-1.7h1.9Zm7.6 7.4c0 .4-.2.8-.6 1.2-.6.7-1.4 1-2.5 1-.9 0-1.6-.3-2.3-.8-.7-.6-1-1.5-1-2.8 0-1.2.3-2.1.9-2.7.6-.7 1.4-1 2.3-1 .6 0 1.1.1 1.6.3.5.2.8.6 1.1 1l.6 1.5v1.3h-4.7c0 .7.2 1.2.6 1.5.3.2.6.3 1 .3.3 0 .6-.1.9-.4l.3-.4h1.8Zm-1.8-2.2c0-.4-.1-.8-.4-1-.2-.3-.6-.4-1-.4s-.7.1-1 .4a2 2 0 0 0-.4 1h2.9Zm2.6-.3h3.7v1.7H633v-1.7Zm8.6 4.7c-.5 0-1-.1-1.3-.4-.2 0-.5-.3-.7-.7v.9h-1.8v-9.3h1.8v3.3l.8-.8c.3-.2.7-.3 1.2-.3 1 0 1.6.4 2.2 1 .5.7.7 1.5.7 2.6 0 1-.2 2-.7 2.6-.5.7-1.2 1-2.2 1Zm1-3.6c0-.4 0-.9-.2-1.2-.2-.6-.6-.9-1.3-.9-.6 0-1.1.3-1.3.9-.2.3-.2.7-.2 1.2 0 .6.1 1.1.4 1.5.2.4.6.6 1.2.6.4 0 .8-.2 1-.6.3-.3.4-.8.4-1.5Zm7.7 2.4-.2.2-.2.3-.8.5-1 .2c-1 0-1.7-.4-2-1.2a4 4 0 0 1-.3-1.7V111h1.8v4.2c0 .3 0 .6.2.8.1.4.5.6 1 .6.6 0 1-.3 1.2-.8l.2-1V111h1.8v6.9h-1.7v-1Zm6.6-.3v1.4h-.8c-.9 0-1.5-.1-1.8-.4-.2-.3-.3-.6-.3-1v-4.3h-1v-1.3h1v-1.9h1.8v2h1.1v1.2h-1v4.2l.7.1h.3Zm4.4 0v1.4h-.9c-.8 0-1.4-.1-1.7-.4-.2-.3-.3-.6-.3-1v-4.3h-1v-1.3h1v-1.9h1.8v2h1v1.2h-1v4.2l.7.1h.4Zm7-4.7c.5.7.8 1.6.8 2.6a4 4 0 0 1-.9 2.6c-.6.7-1.5 1-2.7 1-1.1 0-2-.3-2.6-1a4 4 0 0 1-.9-2.6c0-1 .3-2 .9-2.6.6-.8 1.5-1.1 2.6-1.1 1.2 0 2.1.3 2.7 1Zm-2.8.4c-.5 0-.9.2-1.2.6-.3.3-.4.9-.4 1.6 0 .6.1 1.2.4 1.6.3.3.7.5 1.2.5.6 0 1-.2 1.3-.5.2-.4.4-1 .4-1.6 0-.7-.2-1.3-.4-1.6-.3-.4-.7-.6-1.3-.6Zm8.1 0c-.6 0-1 .3-1.2.8l-.2 1v3.8h-1.8v-7h1.7v1.1l.7-.8c.4-.2.8-.4 1.4-.4.7 0 1.3.2 1.8.6.4.4.7 1 .7 1.8v4.7h-1.9v-4.2l-.1-.8c-.2-.4-.6-.6-1-.6Zm9.5 7.7c-.4-.4-.7-.9-.7-1.5v-2c0-.6-.1-1-.5-1.3a2 2 0 0 0-.8-.4v-.7l.9-.5c.3-.3.4-.7.4-1.3v-1.7l.1-.7c.2-.4.4-.8.7-1 .3-.2.6-.4 1-.4l1-.1v1c-.4 0-.6.2-.8.3-.2.2-.3.5-.3 1v1.5c0 .5 0 .9-.2 1.1-.2.5-.6.9-1.2 1.2.5.2 1 .5 1.1.8.2.3.3.7.3 1.3v1.6c0 .4.2.8.4 1l.6.3v1h-.4a3 3 0 0 1-1.6-.5Zm8-9.3c0-.4-.1-.8-.3-1l-.7-.3v-1h1l1 .5.5.8.2.9v1.7c0 .6.1 1 .4 1.3l1 .5v.7l-.9.4c-.3.3-.5.7-.5 1.3v2c0 .6-.2 1.1-.7 1.5-.4.3-1 .5-1.6.5h-.4v-1c.3 0 .5-.2.6-.3.3-.2.4-.6.4-1v-1.6c0-.6 0-1 .3-1.4l1.1-.7c-.5-.3-.9-.6-1.1-1-.2-.3-.3-.7-.3-1.3v-1.5ZM588.5 54h-5.2V42.5h5.6c1.4 0 2.4.4 3 1.2.3.5.5 1 .5 1.8 0 .7-.2 1.2-.5 1.7l-1 .6c.7.2 1.1.6 1.4 1a3.4 3.4 0 0 1-2.2 5 8 8 0 0 1-1.6.2Zm0-5h-3v3h2.9c.5 0 .9 0 1.2-.2.5-.3.7-.7.7-1.4 0-.6-.2-1-.7-1.3a3 3 0 0 0-1.2-.2Zm1.1-2.3c.3-.2.5-.5.5-1s-.2-.9-.6-1c-.4-.2-.9-.2-1.4-.2h-2.5V47h2.8c.5 0 .9 0 1.2-.3Zm9.3.8c-1 0-1.5.3-1.8 1-.2.2-.3.7-.3 1.4V54h-2.2v-8.5h2.1V47c.3-.6.6-1 .9-1.2a2.4 2.4 0 0 1 1.7-.5h.2v2.3a6 6 0 0 0-.6 0Zm2.3-1c.5-.8 1.6-1.2 3-1.2 1 0 1.7.2 2.5.5.7.4 1 1.1 1 2.1v4a38.8 38.8 0 0 0 .2 1.5l.3.3v.3h-2.4l-.1-.5V53l-1.2.9c-.4.2-1 .4-1.6.4-.7 0-1.4-.3-1.9-.7-.5-.4-.7-1-.7-1.9 0-1 .4-1.8 1.2-2.2a4 4 0 0 1 2-.6h.7l.9-.3c.3-.1.4-.3.4-.6 0-.4 0-.6-.3-.7-.3-.2-.6-.2-1-.2-.6 0-1 .1-1.2.4a1 1 0 0 0-.3.7h-2.2c0-.7.3-1.3.7-1.8Zm1.6 5.9c.2.2.5.2.8.2.5 0 .9 0 1.3-.4.4-.3.6-.8.6-1.5v-.8a2.6 2.6 0 0 1-1 .3l-.5.1-1 .3a1 1 0 0 0-.5 1c0 .4.1.6.3.8Zm11-5.3c-.8 0-1.3.4-1.6 1-.2.3-.2.8-.2 1.3V54h-2.2v-8.5h2.1v1.2l.8-.9c.5-.3 1-.5 1.8-.5s1.6.2 2.1.7c.6.4.9 1.2.9 2.3V54h-2.3v-5.2c0-.4 0-.8-.2-1-.2-.4-.6-.7-1.3-.7Zm13.5-4.6V54H625v-1.2c-.3.5-.7.9-1 1.1a3 3 0 0 1-1.6.4c-1 0-1.8-.4-2.5-1.2-.7-.8-1-1.9-1-3.1 0-1.5.3-2.6 1-3.5.6-.8 1.5-1.2 2.7-1.2a2.7 2.7 0 0 1 2.3 1.3v-4.1h2.3Zm-6 7.3c0 .8.1 1.4.4 1.9.3.5.8.7 1.4.7.7 0 1.2-.2 1.5-.7.3-.5.5-1 .5-1.8 0-1-.3-1.8-.8-2.3-.3-.2-.7-.4-1.1-.4-.7 0-1.2.3-1.5.8-.3.5-.4 1-.4 1.8Zm10.3-4.3V54h-2.3v-8.5h2.3Zm0-3v2h-2.3v-2h2.3Zm6.2 4.6c-.8 0-1.3.4-1.6 1l-.2 1.3V54h-2.2v-8.5h2.1v1.2l.8-.9c.5-.3 1-.5 1.8-.5.9 0 1.6.2 2.1.7.6.4.9 1.2.9 2.3V54h-2.3v-5.2c0-.4 0-.8-.2-1-.2-.4-.6-.7-1.2-.7Zm8.1 8.4c.3.2.7.3 1.3.3.8 0 1.3-.3 1.6-.8l.2-1.7v-.6c-.2.4-.4.6-.7.8-.4.4-1 .5-1.7.5-1 0-2-.3-2.6-1.1-.7-.8-1-1.8-1-3.1s.3-2.4 1-3.2a3 3 0 0 1 2.6-1.3c.5 0 .8 0 1.2.2.5.2 1 .6 1.3 1.2v-1.2h2.1v8a5 5 0 0 1-.5 2.5c-.7 1-1.9 1.5-3.7 1.5-1 0-2-.2-2.6-.7-.7-.4-1.1-1-1.2-1.9h2.4l.3.6Zm-.3-4.4c.3.7.8 1 1.6 1 .5 0 1-.1 1.3-.5.4-.4.6-1 .6-1.9 0-.8-.2-1.4-.6-1.8-.3-.5-.8-.7-1.3-.7-.8 0-1.3.4-1.6 1.1-.2.4-.3.9-.3 1.5 0 .5.1 1 .3 1.3Zm12.5-4.7c.6-.7 1.6-1.1 3-1.1 1 0 1.8.2 2.5.5.7.4 1.1 1.1 1.1 2.1v4a39.4 39.4 0 0 0 .1 1.5l.4.3v.3h-2.5v-.5l-.2-.5-1 .9c-.5.2-1 .4-1.6.4-.8 0-1.4-.3-2-.7-.5-.4-.7-1-.7-1.9 0-1 .4-1.8 1.2-2.2.4-.3 1.1-.5 2-.6h.7l.9-.3c.3-.1.5-.3.5-.6 0-.4-.1-.6-.4-.7-.2-.2-.6-.2-1-.2-.6 0-1 .1-1.2.4l-.3.7h-2.1c0-.7.2-1.3.6-1.8Zm1.6 6c.3.2.5.2.8.2.5 0 1 0 1.3-.4.4-.3.7-.8.7-1.5v-.8a2.6 2.6 0 0 1-1 .3l-.5.1-1 .3a1 1 0 0 0-.6 1c0 .4.1.6.4.8Zm14.1-6c.7.7 1 1.8 1 3.2 0 1.5-.3 2.7-1 3.5-.6.7-1.5 1.1-2.6 1.1-.7 0-1.2-.1-1.7-.5l-.7-.8v4.5h-2.2v-12h2.1v1.3l.8-.8c.5-.4 1.1-.6 1.8-.6 1 0 1.8.4 2.5 1.1Zm-1.3 3.3c0-.6-.1-1.2-.4-1.7-.3-.5-.8-.8-1.5-.8-.8 0-1.3.4-1.6 1.2-.2.4-.3 1-.3 1.5 0 1 .3 1.7.8 2.1.3.3.7.4 1.1.4.7 0 1.1-.3 1.5-.7a4 4 0 0 0 .4-2Zm11-3.3c.8.7 1.1 1.8 1.1 3.2 0 1.5-.3 2.7-1 3.5-.7.7-1.5 1.1-2.6 1.1-.7 0-1.2-.1-1.7-.5-.2-.2-.5-.4-.7-.8v4.5h-2.2v-12h2.1v1.3l.8-.8c.5-.4 1-.6 1.8-.6 1 0 1.8.4 2.5 1.1Zm-1.2 3.3c0-.6-.1-1.2-.4-1.7-.3-.5-.8-.8-1.5-.8-.8 0-1.3.4-1.6 1.2-.2.4-.3 1-.3 1.5 0 1 .3 1.7.8 2.1.3.3.7.4 1.1.4.6 0 1.1-.3 1.4-.7.4-.5.5-1.2.5-2Zm4-7.2h2.2V54h-2.2V42.5Zm6.7 3V54h-2.3v-8.5h2.3Zm0-3v2h-2.3v-2h2.3Zm9.4 9c0 .5-.3 1-.8 1.5-.7.9-1.7 1.3-3 1.3a5 5 0 0 1-2.9-1c-.8-.8-1.2-1.9-1.2-3.5 0-1.4.3-2.6 1-3.4.8-.7 1.8-1.1 3-1.1.7 0 1.4 0 2 .4.5.2 1 .6 1.3 1.2.4.5.6 1.1.7 1.8v1.7h-5.8c0 .8.3 1.4.8 1.8.3.2.7.3 1.1.3.5 0 .9-.2 1.1-.4l.5-.6h2.2Zm-2.2-2.6a1.6 1.6 0 0 0-1.7-1.8c-.5 0-1 .2-1.2.5-.3.3-.5.7-.5 1.3h3.4Zm11.6-6.4V54h-2.2v-1.2c-.3.5-.6.9-1 1.1a3 3 0 0 1-1.6.4c-1 0-1.8-.4-2.5-1.2-.7-.8-1-1.9-1-3.1 0-1.5.3-2.6 1-3.5.7-.8 1.6-1.2 2.7-1.2a2.7 2.7 0 0 1 2.3 1.3v-4.1h2.3Zm-6 7.3c0 .8.2 1.4.5 1.9s.7.7 1.4.7c.6 0 1-.2 1.4-.7.3-.5.5-1 .5-1.8 0-1-.3-1.8-.8-2.3-.3-.2-.7-.4-1.1-.4-.7 0-1.1.3-1.4.8-.3.5-.5 1-.5 1.8Z"/>
    <rect width="121" height="32" x="587" y="194" fill="#fff" stroke="#CB361D" stroke-width="2" rx="16"/>
    <path fill="#000" d="M609.6 215.2c-.6 0-1-.1-1.4-.4-.2 0-.4-.3-.6-.7v.9h-1.8v-9.3h1.8v3.3l.7-.8c.4-.2.8-.3 1.3-.3.9 0 1.6.4 2.1 1 .5.7.8 1.5.8 2.6 0 1-.3 2-.8 2.6-.5.7-1.2 1-2.1 1Zm1-3.6c0-.4 0-.9-.2-1.2-.2-.6-.7-.9-1.3-.9-.7 0-1.1.3-1.4.9l-.2 1.2c0 .6.2 1.1.4 1.5.3.4.7.6 1.2.6s.8-.2 1.1-.6c.3-.3.4-.8.4-1.5Zm9-2.6c.5.7.8 1.6.8 2.6a4 4 0 0 1-.8 2.6c-.6.7-1.5 1-2.7 1-1.2 0-2-.3-2.7-1a4 4 0 0 1-.8-2.6c0-1 .3-2 .8-2.6.6-.8 1.5-1.1 2.7-1.1 1.2 0 2 .3 2.7 1Zm-2.7.4c-.5 0-1 .2-1.2.6-.3.3-.5.9-.5 1.6 0 .6.2 1.2.5 1.6.3.3.7.5 1.2.5s1-.2 1.2-.5c.3-.4.4-1 .4-1.6 0-.7-.1-1.3-.4-1.6-.3-.4-.7-.6-1.2-.6Zm8.3.3c-.7 0-1.2.3-1.4.8-.2.2-.3.6-.3 1.2v3.3h-1.8v-7h1.7v1.3l.8-1a2 2 0 0 1 1.4-.4h.1v1.9a5.2 5.2 0 0 0-.5 0Zm7.9-4v9.3h-1.8v-1a2 2 0 0 1-.8 1l-1.3.2c-.8 0-1.5-.3-2-1-.6-.6-.8-1.5-.8-2.5 0-1.2.2-2 .8-2.8.5-.6 1.2-1 2.2-1a2.2 2.2 0 0 1 1.9 1v-3.2h1.8Zm-4.9 5.9c0 .6.2 1.1.4 1.5.3.4.6.6 1.1.6.6 0 1-.2 1.2-.6.3-.4.4-.9.4-1.5 0-.8-.2-1.4-.6-1.8-.3-.2-.6-.3-1-.3-.5 0-.9.2-1.1.6-.3.4-.4.9-.4 1.5Zm12.5 1.4c0 .4-.3.8-.7 1.2-.6.7-1.4 1-2.5 1a4 4 0 0 1-2.3-.8c-.7-.6-1-1.5-1-2.8 0-1.2.3-2.1 1-2.7.5-.7 1.3-1 2.3-1 .6 0 1 .1 1.5.3.5.2.9.6 1.2 1 .3.5.4 1 .5 1.5v1.3H636c0 .7.3 1.2.7 1.5.2.2.5.3.9.3s.7-.1.9-.4l.3-.4h1.9Zm-1.8-2.2c0-.4-.2-.8-.5-1-.2-.3-.5-.4-1-.4-.3 0-.7.1-.9.4a2 2 0 0 0-.4 1h2.8Zm6.6-1c-.8 0-1.3.2-1.5.7l-.2 1.2v3.3H642v-7h1.7v1.3l.7-1a2 2 0 0 1 1.4-.4h.2v1.9a5.2 5.2 0 0 0-.5 0Zm1 .7h3.7v1.7h-3.7v-1.7Zm8.4-.8c-.8 0-1.3.3-1.5.8l-.2 1.2v3.3h-1.8v-7h1.7v1.3l.7-1a2 2 0 0 1 1.4-.4h.2v1.9a5.2 5.2 0 0 0-.5 0Zm1.8-.9c.5-.6 1.3-.9 2.5-.9.7 0 1.4.2 2 .5.6.3.9.8.9 1.7v3.1a32.1 32.1 0 0 0 0 1.3l.4.2v.3h-2l-.1-.4v-.4l-1 .7c-.3.2-.8.3-1.3.3-.6 0-1.1-.2-1.5-.5a2 2 0 0 1-.6-1.5c0-.9.3-1.5 1-1.9.3-.2.9-.3 1.5-.4l.7-.1.7-.2c.2 0 .4-.2.4-.5s-.1-.5-.3-.6l-.9-.1c-.4 0-.7 0-.9.3l-.3.6h-1.7c0-.6.2-1 .5-1.5Zm1.4 4.9.6.2c.4 0 .7-.1 1-.3.4-.3.5-.7.6-1.3v-.7a2 2 0 0 1-.9.3l-.4.1c-.4 0-.6.2-.8.3-.3.1-.4.4-.4.7 0 .3 0 .6.3.7Zm11.9-8v9.3h-1.8v-1c-.2.5-.5.8-.9 1l-1.2.2c-.8 0-1.5-.3-2-1-.6-.6-.9-1.5-.9-2.5 0-1.2.3-2 .9-2.8.5-.6 1.2-1 2.1-1a2.2 2.2 0 0 1 2 1v-3.2h1.8Zm-4.9 5.9c0 .6.1 1.1.4 1.5.2.4.6.6 1.1.6.5 0 1-.2 1.2-.6.3-.4.4-.9.4-1.5 0-.8-.2-1.4-.6-1.8-.3-.2-.6-.3-1-.3-.5 0-.9.2-1.1.6-.3.4-.4.9-.4 1.5Zm8.4-3.5v6.9h-1.8v-7h1.8Zm0-2.5v1.7h-1.8v-1.7h1.8Zm6.2 8.4-.1.2-.3.3-.8.5-1 .2c-1 0-1.6-.4-2-1.2a4 4 0 0 1-.3-1.7V208h1.9v5c.3.4.6.6 1 .6.7 0 1.1-.3 1.3-.8.2-.3.2-.6.2-1V208h1.8v6.9h-1.7v-1Zm8.3-5.6c.5.3.8 1 .9 1.8h-1.8l-.2-.6c-.2-.2-.5-.3-1-.3-.4 0-.7 0-.9.2l-.2.4c0 .2 0 .3.3.4l1.8.5c.8.2 1.3.5 1.7.8.3.4.5.8.5 1.3 0 .7-.3 1.3-.8 1.7-.5.4-1.3.6-2.3.6-1.1 0-2-.2-2.5-.7-.5-.4-.7-1-.7-1.7h1.8c0 .3.1.5.3.7.2.2.6.3 1.2.3l.8-.1c.3-.1.4-.3.4-.5s-.1-.4-.3-.5l-1.9-.5a4 4 0 0 1-1.6-.7c-.4-.3-.5-.7-.5-1.3 0-.6.2-1.2.7-1.6a3 3 0 0 1 2.1-.7 4 4 0 0 1 2.2.5Zm5 4.7v1.9h-2v-1.9h2Zm-2-2.9v-1.8h2v1.8h-2Z"/>
    <rect width="211" height="32" x="542" y="280" fill="#fff" stroke="#3F80DE" stroke-width="2" rx="16"/>
    <path fill="#000" d="M560.2 294h2l1.5 5.2 1.4-5.1h2l-2.5 6.9h-2l-2.4-7Zm8.2.8c.4-.6 1.3-.9 2.4-.9a4 4 0 0 1 2 .5c.6.3 1 .8 1 1.7v3.1a28.3 28.3 0 0 0 0 1.3l.3.2v.3h-2v-.4l-.1-.4-.9.7c-.4.2-.8.3-1.3.3-.6 0-1.1-.2-1.5-.5a2 2 0 0 1-.7-1.5c0-.9.4-1.5 1-1.9l1.6-.4.6-.1c.4 0 .6-.1.7-.2.3 0 .4-.2.4-.5s0-.5-.3-.6l-.8-.1c-.5 0-.8 0-1 .3l-.2.6H568c0-.6.2-1 .5-1.5Zm1.3 4.9.6.2a2 2 0 0 0 1.1-.3c.3-.3.5-.7.5-1.3v-.7a2 2 0 0 1-.8.3l-.4.1c-.4 0-.7.2-.8.3-.3.1-.4.4-.4.7 0 .3 0 .6.2.7Zm9.1-4c-.7 0-1.2.3-1.4.8-.2.2-.3.6-.3 1.2v3.3h-1.8v-7h1.8v1.3c.2-.5.5-.8.7-1a2 2 0 0 1 1.4-.4h.1v1.9a5.3 5.3 0 0 0-.5 0Zm3.6 8-.5-.7-.9-1.7a8.6 8.6 0 0 1-.1-7.3c.3-.8.8-1.6 1.4-2.5h1.4l-.4.7a10.6 10.6 0 0 0-1.3 5.4 10.9 10.9 0 0 0 1.7 6h-1.3Zm1.8-7.2h3.6v1.7h-3.6v-1.7Zm4.3 0h3.7v1.7h-3.7v-1.7Zm9.7-2.1c.5.3.8 1 .9 1.8h-1.8l-.2-.6c-.2-.2-.5-.3-1-.3-.4 0-.7 0-.9.2l-.2.4c0 .2 0 .3.3.4l1.8.5c.8.2 1.3.5 1.7.8.3.4.5.8.5 1.3 0 .7-.3 1.3-.8 1.7-.5.4-1.3.6-2.3.6-1.1 0-2-.2-2.5-.7-.5-.4-.7-1-.7-1.7h1.8c0 .3.1.5.3.7.2.2.6.3 1.2.3l.8-.1c.3-.1.4-.3.4-.5s-.1-.4-.3-.5l-1.9-.5a4 4 0 0 1-1.6-.7c-.4-.3-.5-.7-.5-1.3 0-.6.2-1.2.7-1.6a3 3 0 0 1 2.2-.7 4 4 0 0 1 2 .5Zm8.7 2.5v4.1H605v-4.2l-.1-1c-.2-.2-.5-.4-1-.4s-.8.2-1 .5c-.3.3-.4.8-.4 1.4v3.7h-1.9v-9.3h1.9v3.3c.2-.4.5-.7.9-.9l1-.2c.5 0 .9 0 1.2.2a2 2 0 0 1 1.2 1.5v1.3Zm2-2c.4-.7 1.2-1 2.4-1 .8 0 1.4.2 2 .5.6.3 1 .8 1 1.7v3.1a32.1 32.1 0 0 0 0 1.3l.3.2v.3h-2v-.4l-.1-.4-.9.7c-.4.2-.8.3-1.3.3-.6 0-1.2-.2-1.6-.5a2 2 0 0 1-.6-1.5c0-.9.3-1.5 1-1.9l1.6-.4.6-.1.7-.2c.3 0 .4-.2.4-.5s-.1-.5-.3-.6l-.9-.1c-.4 0-.7 0-.9.3l-.2.6h-1.8c0-.6.2-1 .5-1.5Zm1.3 4.8.6.2c.4 0 .8-.1 1-.3.4-.3.6-.7.6-1.3v-.7a2 2 0 0 1-.8.3l-.4.1c-.4 0-.7.2-.9.3-.2.1-.4.4-.4.7 0 .3.1.6.3.7Zm11.4-4.9c.6.6.9 1.5.9 2.7 0 1.2-.3 2.1-.9 2.7-.5.7-1.2 1-2 1-.6 0-1-.1-1.5-.4l-.5-.7v3.6h-1.8v-9.6h1.7v1l.6-.7c.4-.3.9-.5 1.5-.5.8 0 1.5.3 2 1Zm-1 2.7c0-.5-.1-1-.4-1.4-.2-.4-.6-.6-1.2-.6s-1 .3-1.3 1l-.2 1.2c0 .8.2 1.4.6 1.7.3.2.6.3 1 .3s.8-.2 1-.6c.4-.4.5-1 .5-1.6Zm9 1.5c0 .4-.2.8-.6 1.2-.5.7-1.4 1-2.4 1s-1.7-.3-2.4-.8c-.6-.6-1-1.5-1-2.8 0-1.2.3-2.1 1-2.7.5-.7 1.3-1 2.3-1 .6 0 1 .1 1.6.3.4.2.8.6 1 1 .4.5.5 1 .6 1.5v1.3H625c0 .7.3 1.2.7 1.5.2.2.5.3.9.3s.7-.1.9-.4l.3-.4h1.9Zm-1.7-2.2c0-.4-.2-.8-.4-1-.3-.3-.6-.4-1-.4s-.7.1-1 .4a2 2 0 0 0-.4 1h2.8Zm2.6-.3h3.6v1.7h-3.6v-1.7Zm8.6 4.7c-.6 0-1-.1-1.4-.4-.2 0-.4-.3-.7-.7v.9h-1.7v-9.3h1.8v3.3l.7-.8c.4-.2.8-.3 1.3-.3.9 0 1.6.4 2.1 1 .5.7.8 1.5.8 2.6 0 1-.3 2-.8 2.6-.5.7-1.2 1-2.1 1Zm1-3.6c0-.4 0-.9-.2-1.2-.3-.6-.7-.9-1.3-.9-.7 0-1.1.3-1.4.9l-.2 1.2c0 .6.1 1.1.4 1.5.3.4.7.6 1.2.6s.8-.2 1-.6c.4-.3.5-.8.5-1.5Zm9-2.6c.5.7.8 1.6.8 2.6a4 4 0 0 1-.9 2.6c-.5.7-1.4 1-2.6 1-1.2 0-2-.3-2.7-1a4 4 0 0 1-.8-2.6c0-1 .2-2 .8-2.6.6-.8 1.5-1.1 2.7-1.1 1.2 0 2 .3 2.6 1Zm-2.7.4c-.5 0-1 .2-1.2.6-.3.3-.5.9-.5 1.6 0 .6.2 1.2.5 1.6.2.3.7.5 1.2.5s1-.2 1.2-.5c.3-.4.4-1 .4-1.6 0-.7-.1-1.3-.4-1.6-.3-.4-.7-.6-1.2-.6Zm8.3.4c-.7 0-1.2.2-1.5.7l-.2 1.2v3.3h-1.8v-7h1.7v1.3l.8-1a2 2 0 0 1 1.4-.4h.1v1.9a5.2 5.2 0 0 0-.5 0Zm7.9-4.1v9.3h-1.8v-1c-.2.5-.5.8-.9 1l-1.2.2c-.8 0-1.5-.3-2-1-.6-.6-.9-1.5-.9-2.5 0-1.2.3-2 .9-2.8.5-.6 1.2-1 2.1-1a2.2 2.2 0 0 1 2 1v-3.2h1.8Zm-4.9 5.9c0 .6.1 1.1.4 1.5.2.4.6.6 1.1.6.5 0 1-.2 1.2-.6.3-.4.4-.9.4-1.5 0-.8-.2-1.4-.6-1.8-.3-.2-.6-.3-1-.3-.5 0-.9.2-1.1.6-.3.4-.4.9-.4 1.5Zm12.5 1.4c0 .4-.3.8-.7 1.2-.6.7-1.4 1-2.5 1a4 4 0 0 1-2.3-.8c-.7-.6-1-1.5-1-2.8 0-1.2.3-2.1.9-2.7a3 3 0 0 1 2.4-1l1.5.3c.5.2.9.6 1.2 1l.5 1.5v1.3h-4.7c0 .7.3 1.2.7 1.5.2.2.5.3.9.3.3 0 .6-.1.9-.4l.3-.4h1.9Zm-1.8-2.2c0-.4-.2-.8-.5-1-.2-.3-.5-.4-1-.4-.4 0-.7.1-1 .4a2 2 0 0 0-.3 1h2.8Zm6.6-1c-.8 0-1.3.2-1.5.7-.2.2-.2.6-.2 1.2v3.3h-1.8v-7h1.7v1.3l.7-1a2 2 0 0 1 1.4-.4h.2v1.9a5.2 5.2 0 0 0-.5 0Zm1 .7h3.6v1.7H676v-1.7Zm8.3-.8c-.7 0-1.2.3-1.4.8-.2.2-.2.6-.2 1.2v3.3h-1.8v-7h1.7v1.3l.7-1a2 2 0 0 1 1.4-.4h.2v1.9a5.3 5.3 0 0 0-.6 0Zm1.9-.9c.5-.6 1.3-.9 2.5-.9.7 0 1.4.2 2 .5.6.3.9.8.9 1.7v3.1a28.3 28.3 0 0 0 0 1.3l.3.2v.3h-2v-.8l-1 .7c-.3.2-.8.3-1.3.3-.6 0-1.1-.2-1.5-.5a2 2 0 0 1-.6-1.5c0-.9.3-1.5 1-1.9a4 4 0 0 1 1.5-.4l.7-.1.7-.2c.2 0 .4-.2.4-.5s-.1-.5-.3-.6l-.9-.1c-.4 0-.7 0-1 .3l-.2.6h-1.7c0-.6.2-1 .5-1.5Zm1.3 4.9.7.2c.4 0 .7-.1 1-.3.4-.3.5-.7.5-1.3v-.7a2 2 0 0 1-.8.3l-.4.1c-.4 0-.6.2-.8.3-.3.1-.4.4-.4.7 0 .3 0 .6.2.7Zm12-8v9.3h-1.8v-1c-.2.5-.5.8-.9 1l-1.2.2c-.8 0-1.5-.3-2-1-.6-.6-.9-1.5-.9-2.5 0-1.2.3-2 .8-2.8a3 3 0 0 1 2.2-1 2.2 2.2 0 0 1 2 1v-3.2h1.8Zm-5 5.9c0 .6.2 1.1.5 1.5.2.4.6.6 1.1.6.5 0 1-.2 1.2-.6.3-.4.4-.9.4-1.5 0-.8-.2-1.4-.7-1.8-.2-.2-.5-.3-.9-.3-.5 0-.9.2-1.1.6-.3.4-.4.9-.4 1.5Zm8.5-3.5v6.9h-2v-7h1.9Zm0-2.5v1.7h-2v-1.7h1.9Zm6.2 8.4-.2.2-.2.3-.8.5-1 .2c-1 0-1.7-.4-2-1.2a4 4 0 0 1-.3-1.7V294h1.8v4.2c0 .3 0 .6.2.8.1.4.5.6 1 .6.6 0 1-.3 1.2-.8l.2-1V294h1.8v6.9h-1.7v-1Zm8.3-5.6c.5.3.8 1 .9 1.8h-1.8l-.2-.6c-.2-.2-.6-.3-1-.3s-.7 0-.9.2l-.2.4c0 .2 0 .3.2.4l2 .5c.6.2 1.2.5 1.5.8.4.4.6.8.6 1.3 0 .7-.3 1.3-.8 1.7-.5.4-1.3.6-2.4.6-1 0-1.8-.2-2.4-.7-.5-.4-.7-1-.7-1.7h1.8l.2.7c.3.2.7.3 1.3.3l.8-.1c.2-.1.3-.3.3-.5s0-.4-.2-.5l-1.9-.5a4 4 0 0 1-1.6-.7c-.4-.3-.5-.7-.5-1.3 0-.6.2-1.2.7-1.6a3 3 0 0 1 2.1-.7 4 4 0 0 1 2.2.5Zm1.9 2.1h3.6v1.7h-3.6v-1.7Zm6.5-2.9a2 2 0 0 0-.3 1.1h-1.7l.2-1.3.7-1 .9-.5 1.2-.1c.9 0 1.6.2 2.1.6.6.5.8 1.1.8 1.9 0 .5-.1 1-.5 1.3-.2.3-.4.4-.6.5l.7.4c.5.5.7 1 .7 1.8a3 3 0 0 1-.8 2 3 3 0 0 1-2.4 1c-1.3 0-2.2-.5-2.7-1.3-.3-.5-.4-1-.5-1.8h1.8c0 .3 0 .6.2.9.2.4.6.7 1.2.7.4 0 .7-.2 1-.4.2-.3.3-.6.3-1 0-.7-.2-1-.7-1.3l-1.3-.1v-1.3l1.2-.2c.4-.2.6-.5.6-1 0-.4-.1-.7-.3-1-.2-.2-.5-.3-.9-.3s-.7.2-1 .4Zm6.7 9.4-.5.6h-1.3c.5-1 1-1.8 1.1-2.5a12.2 12.2 0 0 0 .4-5.9c-.2-1-.6-2-1.1-3l-.4-.7h1.4c.6.9 1.1 1.7 1.4 2.5a8.6 8.6 0 0 1-.1 7.3c-.3.8-.6 1.3-1 1.7ZM600 81.6c.5 0 .9 0 1.2-.2.4-.2.7-.7.7-1.3 0-.6-.3-1-.8-1.2l-1.2-.2h-2.3v3h2.3Zm.4 4.3c.7 0 1.3-.2 1.6-.7.2-.2.3-.6.3-1 0-.7-.3-1.1-.9-1.4l-1.3-.2h-2.5V86h2.8Zm-4-8.2h4c1 0 1.9.3 2.3 1 .3.3.4.8.4 1.3 0 .6-.1 1-.5 1.4l-.7.6 1 .6c.5.4.7 1 .7 1.7 0 .6-.2 1.1-.6 1.6-.5.7-1.4 1.1-2.7 1.1h-3.9v-9.3Zm9.4 7.5c0 .3.1.6.4.8.2.2.5.3.8.3l1.2-.3c.6-.3 1-.8 1-1.5v-1a2 2 0 0 1-.6.3h-.6l-.7.2-1 .2c-.3.2-.5.6-.5 1Zm2.8-2.3c.3 0 .4-.2.5-.3V82c0-.4 0-.7-.3-.8-.3-.2-.7-.3-1.2-.3-.6 0-1 .2-1.3.5l-.3.8h-1c0-.9.3-1.4.8-1.8.5-.3 1.1-.5 1.8-.5.8 0 1.5.2 2 .5s.7.8.7 1.4V86l.4.1a2.6 2.6 0 0 0 .4 0v.8l-.4.1h-.4c-.4 0-.7 0-.9-.4l-.2-.6c-.2.3-.6.6-1 .8-.4.2-.9.3-1.4.3-.7 0-1.2-.2-1.6-.5a2 2 0 0 1-.6-1.5c0-.6.2-1.1.6-1.5.4-.3 1-.5 1.6-.6l1.8-.2Zm4.3 2c0 .3 0 .6.2.8.3.4.8.6 1.5.6.5 0 .8-.1 1.2-.3.3-.2.4-.4.4-.8 0-.3 0-.5-.3-.7l-1-.3-1-.3-1.2-.4c-.5-.3-.7-.8-.7-1.3 0-.7.2-1.2.6-1.6a3 3 0 0 1 2-.6c1 0 1.7.3 2.1 1 .3.3.5.7.4 1.2h-1a1 1 0 0 0-.3-.7c-.3-.3-.7-.5-1.4-.5-.4 0-.7 0-1 .2a1 1 0 0 0-.3.7c0 .3.2.5.5.7l.7.3.8.2 1.6.6c.5.2.7.7.7 1.3 0 .6-.3 1.2-.7 1.6-.5.4-1.2.7-2.1.7-1 0-1.7-.3-2.2-.7-.4-.5-.6-1-.6-1.7h1Zm8.6-4.9a3 3 0 0 1 2.5 1.3l.4 1.2.1 1.5h-5c0 .7.2 1.2.5 1.6.3.4.8.7 1.4.7a1.8 1.8 0 0 0 1.9-1.4h1.1l-.3.8a2.7 2.7 0 0 1-1.8 1.4 4 4 0 0 1-1 .1c-.8 0-1.5-.3-2.1-.9-.6-.6-.9-1.5-.9-2.6 0-1 .3-2 .9-2.6a3 3 0 0 1 2.3-1Zm1.8 3a3 3 0 0 0-.3-1.1c-.3-.6-.8-.9-1.6-.9-.5 0-1 .2-1.3.6-.3.4-.5.9-.5 1.5h3.7Zm9.9-1.4c.5 0 1 0 1.2-.2.5-.2.7-.7.7-1.3 0-.6-.2-1-.7-1.2l-1.3-.2H631v3h2.3Zm.4 4.3c.8 0 1.3-.2 1.7-.7.2-.2.3-.6.3-1 0-.7-.3-1.1-1-1.4l-1.2-.2h-2.5V86h2.7Zm-4-8.2h4c1.2 0 2 .3 2.4 1 .3.3.4.8.4 1.3 0 .6-.2 1-.5 1.4l-.8.6 1.1.6c.4.4.6 1 .6 1.7 0 .6-.1 1.1-.5 1.6-.6.7-1.5 1.1-2.7 1.1h-4v-9.3Zm9.8 2.5v4.5l.1.9c.2.4.6.6 1.2.6.7 0 1.3-.4 1.6-1l.2-1.7v-3.3h1.2V87h-1.1v-1l-.6.7c-.4.3-1 .5-1.6.5-1 0-1.6-.3-2-1l-.2-1.4v-4.6h1.1Zm6.3-1.9h1.1v1.9h1.1v1h-1v4.4c0 .2 0 .4.2.4l.4.1h.4v.9h-.4l-.5.1c-.5 0-.9-.1-1-.4-.2-.3-.3-.6-.3-1V81h-1v-.9h1v-1.9Zm3.6 0h1.1v1.9h1.1v1h-1v4.4c0 .2 0 .4.2.4l.4.1h.4v.9h-.4l-.4.1c-.6 0-1-.1-1.1-.4-.2-.3-.3-.6-.3-1V81h-1v-.9h1v-1.9Zm6 8c.8 0 1.4-.3 1.6-.9.3-.6.5-1.2.5-2L657 82c-.4-.6-1-.9-1.7-.9s-1.2.3-1.5.8c-.4.5-.5 1.2-.5 2 0 .7.1 1.3.5 1.7.3.5.8.8 1.5.8Zm.1-6.3a3 3 0 0 1 2.2.9c.6.6 1 1.4 1 2.6 0 1-.3 2-.8 2.7-.6.7-1.4 1-2.5 1a3 3 0 0 1-2.3-.9 4 4 0 0 1-.8-2.5c0-1.2.3-2.1.9-2.8a3 3 0 0 1 2.3-1Zm4.5.2h1.1v1a3 3 0 0 1 1-.9l1.2-.3c1 0 1.6.4 2 1 .2.4.3 1 .3 1.6V87h-1.2v-4.3c0-.4 0-.7-.2-1-.2-.4-.6-.6-1-.6h-.8l-.8.6-.4.7V87h-1.2v-6.8Zm13.5-.2a3 3 0 0 1 1.9.6c.4.3.7 1 .8 1.9h-1a2 2 0 0 0-.5-1c-.3-.3-.7-.5-1.2-.5-.7 0-1.3.4-1.6 1-.2.6-.3 1.1-.3 1.8s.2 1.3.5 1.7c.2.5.7.7 1.3.7.5 0 .9-.1 1.1-.4.3-.3.5-.7.6-1.2h1.1c-.1.9-.4 1.6-1 2a3 3 0 0 1-1.9.6c-.9 0-1.6-.3-2.1-1-.5-.6-.8-1.4-.8-2.4 0-1.2.3-2.1.9-2.8.6-.7 1.3-1 2.2-1Zm3.9-2.3h1.1V87h-1.1v-9.3Zm3.7 7.5c0 .3.2.6.4.8.2.2.5.3.9.3s.8-.1 1.1-.3c.7-.3 1-.8 1-1.5v-1a2 2 0 0 1-.6.3h-.6l-.7.2-1 .2c-.3.2-.5.6-.5 1Zm2.8-2.3c.3 0 .4-.2.5-.3l.1-.5c0-.4-.1-.7-.4-.8-.3-.2-.7-.3-1.2-.3-.6 0-1 .2-1.3.5l-.2.8h-1.1c0-.9.3-1.4.8-1.8.5-.3 1.1-.5 1.8-.5.8 0 1.5.2 2 .5s.7.8.7 1.4v4.2l.4.1a2.6 2.6 0 0 0 .4 0v.8l-.4.1h-.4c-.4 0-.7 0-.9-.4l-.2-.6a3.1 3.1 0 0 1-2.4 1.1c-.6 0-1.2-.2-1.6-.5a2 2 0 0 1-.6-1.5c0-.6.2-1.1.6-1.5.4-.3 1-.5 1.6-.6l1.8-.2Zm4.3 2c0 .3.1.6.3.8.3.4.8.6 1.5.6.4 0 .8-.1 1-.3.4-.2.6-.4.6-.8 0-.3-.2-.5-.4-.7l-1-.3-1-.3-1.2-.4c-.5-.3-.7-.8-.7-1.3 0-.7.2-1.2.7-1.6.4-.4 1-.6 1.8-.6 1 0 1.8.3 2.3 1 .2.3.4.7.4 1.2h-1.1a1 1 0 0 0-.3-.7c-.2-.3-.7-.5-1.4-.5-.4 0-.7 0-1 .2a1 1 0 0 0-.3.7c0 .3.2.5.5.7l.7.3.8.2 1.6.6c.5.2.7.7.7 1.3a2 2 0 0 1-.7 1.6c-.5.4-1.2.7-2 .7-1.1 0-1.8-.3-2.2-.7-.5-.5-.7-1-.7-1.7h1Zm6.5 0c0 .3.1.6.3.8.3.4.8.6 1.5.6.4 0 .8-.1 1-.3.4-.2.6-.4.6-.8 0-.3-.2-.5-.4-.7l-1-.3-1-.3-1.2-.4c-.5-.3-.7-.8-.7-1.3 0-.7.2-1.2.7-1.6.4-.4 1-.6 1.8-.6 1 0 1.8.3 2.3 1 .2.3.4.7.4 1.2h-1.1a1 1 0 0 0-.3-.7c-.2-.3-.7-.5-1.4-.5-.4 0-.7 0-1 .2a1 1 0 0 0-.3.7c0 .3.2.5.5.7l.7.3.8.2 1.6.6c.5.2.7.7.7 1.3a2 2 0 0 1-.7 1.6c-.5.4-1.2.7-2 .7-1.1 0-1.8-.3-2.2-.7-.5-.5-.7-1-.7-1.7h1Zm-84.3 92.5c1.2 0 2 .3 2.7 1 .7.6 1 1.3 1.1 2h-1.2a3 3 0 0 0-.9-1.4c-.4-.3-1-.5-1.7-.5-1 0-1.7.3-2.2 1-.6.6-.9 1.6-.9 3 0 1 .3 2 .8 2.6.5.7 1.2 1 2.3 1 .9 0 1.6-.3 2-1 .3-.4.5-1 .7-1.5h1.2c-.1 1-.5 1.8-1.1 2.4-.7.8-1.7 1.2-3 1.2-1 0-2-.3-2.7-1-1-.8-1.5-2.1-1.5-4a5 5 0 0 1 1.1-3.3 4 4 0 0 1 3.3-1.5Zm6.3 6.6c0 .5.1 1 .3 1.3.5.6 1.2 1 2.3 1l1.2-.3c.8-.3 1.2-.7 1.2-1.4 0-.5-.2-.9-.5-1-.3-.3-.8-.5-1.5-.6l-1.3-.3-1.7-.6a2 2 0 0 1-1-1.8c0-.8.4-1.5 1-2 .5-.6 1.4-.9 2.4-.9s1.8.3 2.5.8c.7.4 1 1.2 1 2.2h-1.2c0-.5-.2-.9-.4-1.1-.3-.5-1-.8-2-.8-.7 0-1.2.2-1.5.5-.4.3-.5.7-.5 1 0 .6.2.9.6 1.1l1.6.5 1.4.3a4 4 0 0 1 1.4.6c.6.4 1 1 1 1.9 0 1-.5 1.8-1.2 2.2a5 5 0 0 1-2.6.7 4 4 0 0 1-2.8-1 3 3 0 0 1-1-2.3h1.3Zm8.6 0c0 .5.2 1 .4 1.3.4.6 1.2 1 2.2 1 .5 0 1-.2 1.3-.3.8-.3 1.1-.7 1.1-1.4 0-.5-.1-.9-.4-1-.4-.3-.9-.5-1.5-.6l-1.3-.3-1.8-.6a2 2 0 0 1-.8-1.8c0-.8.2-1.5.8-2 .6-.6 1.4-.9 2.5-.9 1 0 1.8.3 2.5.8.7.4 1 1.2 1 2.2H630c0-.5-.2-.9-.4-1.1-.4-.5-1-.8-2-.8-.7 0-1.2.2-1.6.5-.3.3-.4.7-.4 1 0 .6.1.9.5 1.1l1.7.5 1.3.3a4 4 0 0 1 1.5.6c.6.4.9 1 .9 1.9 0 1-.4 1.8-1.2 2.2a5 5 0 0 1-2.6.7 4 4 0 0 1-2.7-1 3 3 0 0 1-1-2.3h1.2Zm14-4a3 3 0 0 1 1.8.6c.5.3.8 1 .9 1.9h-1.1a2 2 0 0 0-.5-1c-.2-.3-.6-.5-1.1-.5-.8 0-1.3.4-1.6 1-.2.6-.3 1.1-.3 1.8s.1 1.3.4 1.7c.3.5.8.7 1.4.7.5 0 .8-.1 1.1-.4.3-.3.5-.7.6-1.2h1.1c-.1.9-.4 1.6-1 2a3 3 0 0 1-1.9.6c-.9 0-1.6-.3-2.1-1-.6-.6-.8-1.4-.8-2.4 0-1.2.3-2.1.8-2.8.6-.7 1.4-1 2.3-1Zm3.9-2.3h1.1v9.3h-1.1v-9.3Zm3.7 7.5c0 .3.1.6.4.8.2.2.5.3.8.3l1.2-.3c.6-.3 1-.8 1-1.5v-1a2 2 0 0 1-.6.3h-.6l-.7.2-1 .2c-.3.2-.5.6-.5 1Zm2.8-2.3c.2 0 .4-.2.5-.3v-.5c0-.4 0-.7-.3-.8-.3-.2-.7-.3-1.2-.3-.6 0-1 .2-1.3.5l-.3.8h-1c0-.9.3-1.4.8-1.8.5-.3 1.1-.5 1.8-.5a4 4 0 0 1 2 .5c.4.3.7.8.7 1.4v4.2l.4.1a2.8 2.8 0 0 0 .3 0v.8l-.4.1h-.3c-.4 0-.7 0-.9-.4l-.2-.6a3.1 3.1 0 0 1-2.4 1.1c-.7 0-1.2-.2-1.6-.5a2 2 0 0 1-.6-1.5c0-.6.2-1.1.6-1.4a3 3 0 0 1 1.6-.7l1.8-.2Zm4.3 2c0 .3 0 .6.2.8.3.4.8.6 1.5.6.5 0 .8-.1 1.2-.3.3-.2.4-.4.4-.8 0-.3 0-.5-.4-.7l-1-.3-.8-.3-1.3-.4c-.5-.3-.8-.8-.8-1.3 0-.7.3-1.2.7-1.6a3 3 0 0 1 2-.6c1 0 1.7.3 2.1 1 .3.3.4.7.4 1.2h-1c0-.3-.2-.5-.3-.7-.3-.3-.7-.5-1.4-.5-.4 0-.7 0-1 .2a1 1 0 0 0-.3.7c0 .3.2.5.4.7l.8.3.7.2c.9.2 1.4.4 1.7.6.4.2.7.7.7 1.3 0 .6-.3 1.2-.7 1.6-.5.4-1.2.7-2.1.7-1 0-1.8-.3-2.2-.7-.4-.5-.6-1-.6-1.7h1Zm6.5 0c0 .3 0 .6.2.8.3.4.8.6 1.5.6.5 0 .8-.1 1.2-.3.3-.2.4-.4.4-.8 0-.3 0-.5-.4-.7l-1-.3-.8-.3-1.3-.4c-.5-.3-.8-.8-.8-1.3 0-.7.3-1.2.7-1.6a3 3 0 0 1 2-.6c1 0 1.7.3 2.1 1 .3.3.4.7.4 1.2h-1c0-.3-.2-.5-.3-.7-.3-.3-.7-.5-1.4-.5-.4 0-.7 0-1 .2a1 1 0 0 0-.3.7c0 .3.2.5.4.7l.8.3.7.2c.9.2 1.4.4 1.7.6.4.2.7.7.7 1.3 0 .6-.3 1.2-.7 1.6-.5.4-1.2.7-2.1.7-1 0-1.8-.3-2.2-.7-.4-.5-.6-1-.6-1.7h1Zm9.4-4.7h1.1v1.2c.1-.3.3-.5.7-.9a1.7 1.7 0 0 1 1.3-.4h.2v1.2a1.6 1.6 0 0 0-.3 0c-.6 0-1 .1-1.4.5a2 2 0 0 0-.4 1.3v3.9h-1.2v-6.8Zm5.5 0v4.5l.1.9c.2.4.6.6 1.2.6.8 0 1.3-.4 1.6-1l.2-1.7v-3.3h1.2v6.8h-1.1v-1c-.1.3-.3.5-.6.7-.4.3-1 .5-1.5.5-1 0-1.7-.3-2-1-.2-.3-.3-.8-.3-1.4v-4.6h1.2Zm6-2.5h1.2v9.3h-1.1v-9.3Zm5.8 2.3a3 3 0 0 1 2.4 1.3l.5 1.2v1.5h-4.9c0 .7.2 1.2.5 1.6.3.4.8.7 1.4.7a1.8 1.8 0 0 0 1.9-1.4h1c0 .2 0 .5-.2.8a2.7 2.7 0 0 1-1.8 1.4 4 4 0 0 1-1 .1c-.8 0-1.6-.3-2.1-.9-.6-.6-1-1.5-1-2.6 0-1 .4-2 1-2.6a3 3 0 0 1 2.3-1Zm1.8 3a3 3 0 0 0-.3-1.1c-.3-.6-.9-.9-1.6-.9-.5 0-1 .2-1.3.6a2 2 0 0 0-.6 1.5h3.8Zm-110.4 83.6c.5 0 1 0 1.2-.2.5-.2.7-.7.7-1.3 0-.6-.2-1-.7-1.2l-1.3-.2h-2.2v3h2.3Zm.4 4.3c.8 0 1.3-.2 1.7-.7.2-.2.3-.6.3-1 0-.7-.3-1.1-1-1.4l-1.2-.2h-2.5v3.3h2.7Zm-4-8.2h4c1.2 0 2 .3 2.4 1 .3.3.4.8.4 1.3 0 .6-.2 1-.5 1.4l-.8.6 1.1.6c.4.4.6 1 .6 1.7 0 .6-.1 1.1-.5 1.6-.6.7-1.5 1.1-2.7 1.1h-4v-9.3Zm9.5 7.5c0 .3.1.6.3.8l.9.3 1.2-.3c.6-.3 1-.8 1-1.5v-1a2 2 0 0 1-.6.3h-.7l-.7.2-.9.2c-.3.2-.5.6-.5 1Zm2.8-2.3c.2 0 .4-.2.5-.3v-.5c0-.4 0-.7-.4-.8-.2-.2-.6-.3-1.2-.3-.5 0-1 .2-1.2.5-.2.2-.3.4-.3.8h-1c0-.9.2-1.4.8-1.8.5-.3 1-.5 1.8-.5s1.4.2 2 .5c.4.3.7.8.7 1.4v4.2l.3.1a2.8 2.8 0 0 0 .4 0v.8l-.4.1h-.4c-.4 0-.6 0-.8-.4l-.2-.6a3.1 3.1 0 0 1-2.4 1.1c-.7 0-1.2-.2-1.6-.5a2 2 0 0 1-.6-1.5c0-.6.2-1.1.6-1.4.4-.4.9-.6 1.5-.7l1.9-.2Zm4.2 2c0 .3.2.6.3.8.3.4.8.6 1.5.6a2 2 0 0 0 1.1-.3c.3-.2.5-.4.5-.8 0-.3-.1-.5-.4-.7l-1-.3-.9-.3-1.2-.4c-.5-.3-.8-.8-.8-1.3 0-.7.2-1.2.7-1.6.5-.4 1.1-.6 1.9-.6 1 0 1.7.3 2.2 1 .3.3.4.7.4 1.2h-1c0-.3-.2-.5-.3-.7a2 2 0 0 0-1.4-.5c-.4 0-.8 0-1 .2a1 1 0 0 0-.3.7c0 .3.1.5.4.7l.8.3.7.2 1.7.6c.4.2.6.7.6 1.3a2 2 0 0 1-.7 1.6c-.4.4-1.1.7-2 .7-1 0-1.8-.3-2.2-.7-.4-.5-.6-1-.7-1.7h1.1Zm8.7-4.9a3 3 0 0 1 2.4 1.3l.5 1.2v1.5h-5c.1.7.3 1.2.6 1.6.3.4.8.7 1.4.7a1.8 1.8 0 0 0 1.9-1.4h1c0 .2 0 .5-.2.8a2.7 2.7 0 0 1-1.8 1.4 4 4 0 0 1-1 .1c-.8 0-1.6-.3-2.2-.9a4 4 0 0 1-.8-2.6c0-1 .3-2 .9-2.6a3 3 0 0 1 2.3-1Zm1.8 3a3 3 0 0 0-.3-1.1c-.3-.6-.9-.9-1.6-.9-.5 0-1 .2-1.3.6a2 2 0 0 0-.6 1.5h3.8Zm7 .7c0 .7 0 1.3.4 1.8.3.5.8.7 1.5.7.5 0 1-.2 1.3-.6.3-.5.5-1.1.5-2a3 3 0 0 0-.5-1.9 1.8 1.8 0 0 0-2.7 0 3 3 0 0 0-.6 2Zm1.6-3.6c.6 0 1 0 1.4.3l.6.7v-3.5h1.1v9.4h-1v-1c-.3.5-.6.8-1 1l-1.2.2c-.7 0-1.4-.3-2-1-.5-.6-.8-1.4-.8-2.5 0-1 .3-1.8.8-2.5.5-.8 1.2-1.1 2.1-1.1Zm7.7 0a3 3 0 0 1 2.4 1.2l.5 1.2v1.5h-5c.1.7.3 1.2.6 1.6.3.4.7.7 1.4.7a1.8 1.8 0 0 0 1.8-1.4h1.2l-.3.8a2.7 2.7 0 0 1-1.8 1.4 4 4 0 0 1-1 .1 3 3 0 0 1-2.2-.9c-.6-.6-.8-1.5-.8-2.6 0-1 .3-2 .8-2.6a3 3 0 0 1 2.4-1Zm1.8 3a3 3 0 0 0-.3-1.2c-.3-.6-.9-.9-1.6-.9-.5 0-1 .2-1.3.6a2 2 0 0 0-.6 1.5h3.8Zm3.3 1.8c0 .3 0 .6.2.8.3.4.8.6 1.5.6.5 0 .8-.1 1.2-.3.3-.2.4-.4.4-.8 0-.3 0-.5-.4-.7l-1-.3-.8-.3-1.3-.4c-.5-.3-.8-.8-.8-1.3 0-.7.3-1.2.7-1.6a3 3 0 0 1 2-.6c1 0 1.7.3 2.1 1 .3.3.4.7.4 1.2h-1c0-.3-.2-.5-.3-.7-.3-.3-.7-.5-1.4-.5-.4 0-.7 0-1 .2a1 1 0 0 0-.3.7c0 .3.2.5.4.7l.8.3.7.2c.9.2 1.4.4 1.7.6.4.2.7.7.7 1.3 0 .6-.3 1.2-.7 1.6-.5.4-1.2.7-2.1.7-1 0-1.8-.3-2.2-.7-.4-.5-.6-1-.6-1.7h1Zm5.8-4.7h1.1v6.8h-1.1v-6.8Zm0-2.5h1.1v1.3h-1.1v-1.3Zm5.3 2.4c.5 0 1 .1 1.4.4l.6.6v-.8h1v6.1c0 1 0 1.6-.3 2-.5 1-1.4 1.5-2.7 1.5-.7 0-1.3-.2-1.8-.5s-.8-.9-.9-1.6h1.2c0 .3.2.6.3.7.3.3.7.4 1.2.4 1 0 1.5-.3 1.8-.9l.2-2c-.3.4-.5.7-.8.8a3 3 0 0 1-3.3-.5c-.5-.5-.8-1.4-.8-2.6 0-1.1.3-2 .8-2.7.6-.6 1.3-1 2-1Zm2 3.5a3 3 0 0 0-.5-1.9c-.3-.4-.8-.6-1.3-.6-.8 0-1.4.4-1.7 1.1l-.2 1.6c0 .8.1 1.4.5 1.8.3.4.7.5 1.2.5.8 0 1.4-.3 1.7-1l.3-1.5Zm2.8-3.4h1v1a3 3 0 0 1 1.1-.9l1.2-.3c1 0 1.6.4 2 1 .2.4.2 1 .2 1.6v4.4h-1.1v-4.3c0-.4 0-.7-.2-1-.2-.4-.6-.6-1.1-.6h-.7c-.3.2-.6.3-.8.6l-.4.7v4.6h-1.2v-6.8Zm11-1.9h1.2v1.9h1.1v1h-1v4.4c0 .2 0 .4.2.4l.4.1h.4v.9h-.4a4 4 0 0 1-.4.1c-.6 0-1-.1-1.1-.4-.2-.3-.3-.6-.3-1V266h-1v-.9h1v-1.9Zm6.2 8c.7 0 1.2-.3 1.5-.9.3-.6.5-1.2.5-2 0-.5-.1-1-.4-1.5-.3-.6-.8-.9-1.6-.9-.7 0-1.2.3-1.5.8-.4.5-.5 1.2-.5 2 0 .7.1 1.3.5 1.7.3.5.8.8 1.5.8Zm0-6.3a3 3 0 0 1 2.2.9c.6.6 1 1.4 1 2.6 0 1-.3 2-.9 2.7-.5.7-1.3 1-2.4 1a3 3 0 0 1-2.3-.9 4 4 0 0 1-.8-2.6c0-1 .3-2 .9-2.7a3 3 0 0 1 2.3-1Zm4.5-2.3h1v5.4l3-2.9h1.5l-2.6 2.5 2.7 4.3h-1.4l-2.2-3.4-1 .8v2.6h-1v-9.3Zm9.3 2.3a3 3 0 0 1 2.5 1.3c.2.3.4.7.4 1.2l.1 1.5h-5c0 .7.2 1.2.5 1.6.3.4.8.7 1.5.7a1.8 1.8 0 0 0 1.8-1.4h1.1c0 .2 0 .5-.3.8a2.7 2.7 0 0 1-1.8 1.4 4 4 0 0 1-1 .1c-.8 0-1.5-.3-2-.9-.7-.6-1-1.5-1-2.6 0-1 .3-2 1-2.6a3 3 0 0 1 2.2-1Zm1.9 3a3 3 0 0 0-.4-1.1c-.3-.6-.8-.9-1.5-.9-.6 0-1 .2-1.3.6a2 2 0 0 0-.6 1.5h3.8Zm2.5-2.8h1.1v1a3 3 0 0 1 1-.9c.4-.2.8-.3 1.3-.3 1 0 1.6.4 2 1l.2 1.6v4.4H679v-4.3c0-.4 0-.7-.2-1-.2-.4-.5-.6-1-.6h-.7l-.9.6-.3.7-.1 1v3.6h-1.2v-6.8Zm12 0v4.5l.2.9c.2.4.6.6 1.1.6.8 0 1.4-.4 1.7-1l.2-1.7v-3.3h1.1v6.8h-1v-1l-.6.7c-.4.3-1 .5-1.6.5-1 0-1.6-.3-2-1l-.2-1.4v-4.6h1.1Zm6.8 4.7c0 .3.1.6.3.8.3.4.8.6 1.5.6a2 2 0 0 0 1.1-.3c.3-.2.5-.4.5-.8 0-.3-.1-.5-.4-.7l-1-.3-.9-.3-1.3-.4c-.4-.3-.7-.8-.7-1.3 0-.7.2-1.2.7-1.6.5-.4 1-.6 1.9-.6 1 0 1.7.3 2.2 1 .3.3.4.7.4 1.2h-1l-.3-.7a2 2 0 0 0-1.4-.5c-.4 0-.8 0-1 .2a1 1 0 0 0-.3.7c0 .3.1.5.4.7l.8.3.7.2 1.7.6c.4.2.6.7.6 1.3a2 2 0 0 1-.7 1.6c-.4.4-1.1.7-2 .7-1 0-1.8-.3-2.2-.7-.4-.5-.6-1-.7-1.7h1.1Zm6.7.3c0 .3.1.6.4.8.2.2.5.3.8.3l1.2-.3c.6-.3 1-.8 1-1.5v-1a2 2 0 0 1-.6.3h-.6l-.7.2-1 .2c-.3.2-.5.6-.5 1Zm2.8-2.3c.2 0 .4-.2.5-.3v-.5c0-.4 0-.7-.3-.8-.3-.2-.7-.3-1.2-.3-.6 0-1 .2-1.3.5l-.3.8h-1c0-.9.3-1.4.8-1.8.5-.3 1.1-.5 1.8-.5a4 4 0 0 1 2 .5c.4.3.7.8.7 1.4v4.2l.4.1a2.8 2.8 0 0 0 .4 0v.8l-.5.1h-.3c-.4 0-.7 0-.9-.4l-.2-.6a3.1 3.1 0 0 1-2.4 1.1c-.7 0-1.2-.2-1.6-.5a2 2 0 0 1-.6-1.5c0-.6.2-1.1.6-1.4a3 3 0 0 1 1.6-.7l1.8-.2Zm6-2.8c.5 0 1 .1 1.4.4l.6.6v-.8h1v6.1c0 1 0 1.6-.3 2-.5 1-1.4 1.5-2.7 1.5-.7 0-1.3-.2-1.8-.5s-.8-.9-.9-1.6h1.2c0 .3.2.6.3.7.3.3.7.4 1.2.4 1 0 1.5-.3 1.8-.9l.2-2c-.2.4-.5.7-.8.8a3 3 0 0 1-3.3-.5c-.5-.5-.8-1.4-.8-2.6 0-1.1.3-2 .9-2.7.5-.6 1.2-1 2-1Zm2 3.5c0-.9-.1-1.5-.5-1.9-.3-.4-.8-.6-1.3-.6-.8 0-1.4.4-1.7 1.1l-.2 1.6c0 .8.2 1.4.5 1.8.3.4.7.5 1.2.5.8 0 1.4-.3 1.8-1l.2-1.5Zm5.6-3.6a3 3 0 0 1 2.5 1.3c.2.3.4.7.4 1.2l.1 1.5h-5c0 .7.2 1.2.5 1.6.4.4.8.7 1.5.7a1.8 1.8 0 0 0 1.8-1.4h1.1c0 .2 0 .5-.3.8a2.7 2.7 0 0 1-1.8 1.4 4 4 0 0 1-1 .1c-.8 0-1.5-.3-2-.9-.7-.6-1-1.5-1-2.6 0-1 .3-2 1-2.6a3 3 0 0 1 2.2-1Zm1.9 3a3 3 0 0 0-.4-1.1c-.3-.6-.8-.9-1.5-.9-.6 0-1 .2-1.3.6a2 2 0 0 0-.6 1.5h3.8Z"/>
    <path fill="#3F80DE" d="M537.7 296.7c.4-.4.4-1 0-1.4l-6.4-6.4a1 1 0 1 0-1.4 1.4l5.7 5.7-5.7 5.7a1 1 0 1 0 1.4 1.4l6.4-6.4Zm-89.7.3h2v-2h-2v2Zm4.9 0h3.9v-2h-4v2Zm6.8 0h4v-2h-4v2Zm6.9 0h3.9v-2h-4v2Zm6.8 0h4v-2h-4v2Zm6.9 0h3.9v-2h-4v2Zm6.8 0h4v-2h-4v2Zm6.9 0h3.9v-2h-4v2Zm6.8 0h4v-2h-4v2Zm6.9 0h3.9v-2h-4v2Zm6.8 0h4v-2h-4v2Zm6.9 0h3.9v-2h-4v2Zm6.8 0h4v-2h-4v2Zm6.8 0h2v-2h-2v2Z"/>
    <path stroke="#CB361D" stroke-dasharray="4 4" stroke-linejoin="bevel" stroke-miterlimit="0" stroke-width="2" d="M710 113c26 0 47 21 47 47v6a44 44 0 0 1-44 44"/>
    <path stroke="#CB361D" stroke-dasharray="4 4" stroke-linejoin="round" stroke-width="2" d="M709 214s27.5-1 38 20-6 43-6 43"/>
    <path fill="#3F80DE" d="M649.3 348.7c.4.4 1 .4 1.4 0l6.4-6.4a1 1 0 1 0-1.4-1.4l-5.7 5.7-5.7-5.7a1 1 0 1 0-1.4 1.4l6.4 6.4ZM649 313v2.2h2V313h-2Zm0 6.6v4.3h2v-4.3h-2Zm0 8.7v4.4h2v-4.4h-2Zm0 8.8v4.3h2v-4.3h-2Zm0 8.7v2.2h2v-2.2h-2Z"/>
    <circle cx="152" cy="20" r="12" fill="#CB361D"/>
    <path fill="#fff" d="M153.4 25.1h-2v-6.8h-2.3v-1.4h1.3c.4-.2.7-.3 1-.6l.3-.7v-.4h1.7v10Z"/>
    <circle cx="413" cy="20" r="12" fill="#CB361D"/>
    <path fill="#fff" d="M414 17.2c-.3-.3-.6-.4-1-.4-.6 0-1 .2-1.2.7-.2.2-.2.6-.3 1.2h-1.9c0-.9.2-1.5.5-2 .5-1 1.5-1.5 2.8-1.5 1 0 1.9.2 2.5.8a3 3 0 0 1 1 2.3c0 .8-.3 1.4-.7 2-.3.4-.8.8-1.5 1.2l-.7.6-1 .8-.5.5h4.3v1.7h-6.8c0-.7.2-1.3.5-2 .3-.6 1-1.3 2-2l1.7-1.4c.4-.4.6-1 .6-1.4 0-.5-.1-.8-.3-1Z"/>
    <circle cx="648" cy="20" r="12" fill="#CB361D"/>
    <path fill="#fff" d="M646.8 17.2a2 2 0 0 0-.3 1.1h-1.9l.3-1.4c.2-.3.4-.7.8-1 .2-.3.5-.4.9-.6a4 4 0 0 1 1.3-.1c.9 0 1.7.2 2.2.7.6.5 1 1.1 1 2 0 .5-.3 1-.6 1.4-.2.3-.4.5-.7.5.2 0 .5.2.8.5.5.5.7 1 .7 1.9 0 .8-.3 1.6-.8 2.2-.6.6-1.5 1-2.6 1-1.4 0-2.4-.5-3-1.4a4 4 0 0 1-.4-2h1.9c0 .5 0 .8.2 1 .2.5.6.8 1.3.8.4 0 .7-.2 1-.4.3-.3.4-.7.4-1.2 0-.6-.3-1-.8-1.3a4 4 0 0 0-1.4-.1v-1.4l1.3-.2c.4-.2.7-.6.7-1.2 0-.4-.2-.7-.4-1-.2-.1-.5-.3-1-.3-.4 0-.7.2-1 .5Z"/>
  </g>
  <defs>
    <linearGradient id="c" x1="349.1" x2="448.8" y1="363.5" y2="396.1" gradientUnits="userSpaceOnUse">
      <stop stop-color="#CB361D"/>
      <stop offset="1" stop-color="#3F80DE"/>
    </linearGradient>
    <clipPath id="a">
      <use xlink:href="#b"/>
    </clipPath>
  </defs>
</svg>
