<svg xmlns="http://www.w3.org/2000/svg" fill="none" viewBox="0 0 768 432">
  <path fill="#fff" d="M0 0h768v432H0z"/>
  <path stroke="#EEE" stroke-width="2" d="M281 0v432M549 0v432"/>
  <rect width="173" height="38" x="66" y="92" fill="#fff" stroke="#CB361D" stroke-width="2" rx="7"/>
  <text xml:space="preserve" fill="#000" font-family="Helvetica" font-size="13" font-weight="bold" letter-spacing="0em" style="white-space:pre"><tspan x="98.1" y="116">.dropin-design { }</tspan></text>
  <text xml:space="preserve" fill="#000" font-family="Helvetica" font-size="13" letter-spacing="0em" style="white-space:pre"><tspan x="100.1" y="85">dropin token class</tspan></text>
  <text xml:space="preserve" fill="#000" font-family="Helvetica" font-size="16" font-weight="bold" letter-spacing="0em" style="white-space:pre"><tspan x="77" y="51.5">Drop-in design tokens</tspan></text>
  <rect width="188" height="32" x="58" y="193" fill="#fff" stroke="#CB361D" stroke-width="2" rx="16"/>
  <text xml:space="preserve" fill="#000" font-family="Helvetica" font-size="13" font-weight="bold" letter-spacing="0em" style="white-space:pre"><tspan x="76.5" y="214">--shape-border-radius-3:</tspan></text>
  <rect width="63" height="32" x="121" y="280" fill="#fff" stroke="#CB361D" stroke-width="2" rx="16"/>
  <text xml:space="preserve" fill="#000" font-family="Helvetica" font-size="13" letter-spacing="0em" style="white-space:pre"><tspan x="98.1" y="186">dropin token name</tspan></text>
  <text xml:space="preserve" fill="#000" font-family="Helvetica" font-size="13" letter-spacing="0em" style="white-space:pre"><tspan x="99.3" y="272">dropin token value</tspan></text>
  <path stroke="#CB361D" stroke-dasharray="3 3" stroke-linejoin="bevel" stroke-miterlimit="0" stroke-width="2" d="M53 209a32 32 0 0 0-32 32v11.5c0 24 19.5 43.5 43.5 43.5H116"/>
  <path fill="#CB361D" d="M61 112a1 1 0 0 0 0-2v2Zm-8 96h-1.4l-.1 2H53v-2Zm-4.3-.2-2.9-.4-.3 2 3 .4.2-2Zm-5.7-1-2.8-.7-.6 2 3 .7.4-2Zm-5.5-1.6-2.7-1.1-.8 1.8 2.8 1.2.7-2Zm-5.2-2.4-2.5-1.4-1 1.7 2.5 1.5 1-1.8Zm-5-3-2.2-1.8-1.3 1.6 2.4 1.8 1.2-1.6ZM23 196l-2-2-1.5 1.3 2.2 2.2L23 196Zm-4-4.2-1.7-2.3-1.6 1.2 1.8 2.4 1.6-1.3Zm-3.3-4.7-1.4-2.5-1.8 1 1.5 2.6 1.7-1Zm-2.7-5c-.4-1-.8-1.8-1-2.7l-2 .7 1.2 2.8 1.8-.8Zm-2-5.4-1-2.7-2 .4.9 3 1.9-.6Zm-1.3-5.6a44 44 0 0 1-.4-2.9l-2 .2.4 3 2-.3Zm-.6-5.8V164H7v1.5h2Zm0-1.4v-1H7v1h2Zm0-3v-1H7v1h2Zm0-1v-1.5H7v1.5h2Zm.2-4.3.3-3-2-.2-.3 3 2 .2Zm.9-5.8.7-2.8-2-.5-.7 2.9 2 .4Zm1.5-5.6 1-2.7-1.8-.7-1 2.8 1.8.6Zm2.2-5.3 1.4-2.6-1.8-1-1.4 2.7 1.8.9Zm2.9-5c.5-.9 1-1.7 1.6-2.4l-1.6-1.2-1.7 2.4 1.7 1.1Zm3.4-4.7 2-2.2-1.5-1.4-2 2.3 1.5 1.3Zm4-4.3 2.2-1.9-1.3-1.5-2.3 2 1.4 1.4Zm4.5-3.7a48 48 0 0 1 2.3-1.6l-1-1.7-2.5 1.7 1.2 1.6Zm4.8-3.1 2.6-1.4-.9-1.8-2.7 1.4 1 1.8Zm5.2-2.6 2.7-1-.6-1.9-2.8 1 .7 2Zm5.5-1.8 2.8-.7-.4-2-3 .7.6 2Zm5.7-1.3 2.9-.3-.2-2c-1 0-2 .2-3 .4l.3 2Zm5.7-.5H57v-2h-1.5v2Zm1.5 0h1v-2h-1v2Zm3 0h1v-2h-1v2Zm90.2 236.8c.4.4 1 .4 1.4 0l6.4-6.4a1 1 0 1 0-1.4-1.4l-5.7 5.7-5.7-5.7a1 1 0 1 0-1.4 1.4l6.4 6.4ZM150 313v1.5h2V313h-2Zm0 4.4v2.9h2v-3h-2Zm0 5.8v3h2v-3h-2Zm0 5.8v3h2v-3h-2Zm0 5.9v2.9h2v-3h-2Zm0 5.8v3h2v-3h-2Zm0 5.8v1.5h2v-1.5h-2Z"/>
  <text xml:space="preserve" fill="#000" font-family="Helvetica" font-size="13" font-weight="bold" letter-spacing="0em" style="white-space:pre"><tspan x="137.6" y="300">24px</tspan></text>
  <rect width="116" height="42" x="93" y="359" fill="#454545" rx="21"/>
  <text xml:space="preserve" fill="#fff" font-family="Helvetica" font-size="18" letter-spacing="0em" style="white-space:pre"><tspan x="123" y="386.7">Button</tspan></text>
  <rect width="116" height="42" x="590" y="359" fill="#454545" rx="4"/>
  <text xml:space="preserve" fill="#fff" font-family="Helvetica" font-size="18" letter-spacing="0em" style="white-space:pre"><tspan x="620" y="386.7">Button</tspan></text>
  <text xml:space="preserve" fill="#000" font-family="Helvetica" font-size="14" letter-spacing="0em" style="white-space:pre"><tspan x="85" y="421.8">Default Drop-in Button</tspan></text>
  <text xml:space="preserve" fill="#000" font-family="Helvetica" font-size="14" letter-spacing="0em" style="white-space:pre"><tspan x="574" y="421.8">Merchant-branded Button</tspan></text>
  <path fill="url(#a)" d="M570.7 381.7c.4-.4.4-1 0-1.4l-6.4-6.4a1 1 0 1 0-1.4 1.4l5.7 5.7-5.7 5.7a1 1 0 1 0 1.4 1.4l6.4-6.4ZM230 382h340v-2H230v2Z"/>
  <rect width="151" height="50" x="338" y="94" fill="#fff" stroke="#3F80DE" stroke-width="2" rx="7"/>
  <text xml:space="preserve" fill="#000" font-family="Helvetica" font-size="13" font-weight="bold" letter-spacing="0em" style="white-space:pre"><tspan x="368.8" y="116">.dropin-design
</tspan><tspan x="360.1" y="131">.dropin-design { }</tspan></text>
  <text xml:space="preserve" fill="#000" font-family="Helvetica" font-size="16" font-weight="bold" letter-spacing="0em" style="white-space:pre"><tspan x="315" y="53.5">Merchant brand overrides</tspan></text>
  <rect width="188" height="32" x="319" y="195" fill="#fff" stroke="#3F80DE" stroke-width="2" rx="16"/>
  <text xml:space="preserve" fill="#000" font-family="Helvetica" font-size="13" font-weight="bold" letter-spacing="0em" style="white-space:pre"><tspan x="337.5" y="216">--shape-border-radius-3:</tspan></text>
  <rect width="59" height="32" x="384" y="280" fill="#fff" stroke="#3F80DE" stroke-width="2" rx="16"/>
  <text xml:space="preserve" fill="#000" font-family="Helvetica" font-size="13" font-weight="bold" letter-spacing="0em" style="white-space:pre"><tspan x="402.2" y="300">4px</tspan></text>
  <text xml:space="preserve" fill="#000" font-family="Helvetica" font-size="13" letter-spacing="0em" style="white-space:pre"><tspan x="343.2" y="272">Merchant value override</tspan></text>
  <text xml:space="preserve" fill="#000" font-family="Helvetica" font-size="13" letter-spacing="0em" style="white-space:pre"><tspan x="359.1" y="188">dropin token name</tspan></text>
  <text xml:space="preserve" fill="#000" font-family="Helvetica" font-size="13" letter-spacing="0em" style="white-space:pre"><tspan x="344.5" y="87">Merchant class override</tspan></text>
  <path stroke="#3F80DE" stroke-dasharray="3 3" stroke-linecap="round" stroke-width="2" d="M414 145v28m0 55v28"/>
  <path fill="#CB361D" d="M189 295a1 1 0 0 0 0 2v-2Zm190.7 1.7c.4-.4.4-1 0-1.4l-6.4-6.4a1 1 0 1 0-1.4 1.4l5.7 5.7-5.7 5.7a1 1 0 1 0 1.4 1.4l6.4-6.4ZM189 297h1.5v-2H189v2Zm4.5 0h3v-2h-3v2Zm5.9 0h3v-2h-3v2Zm6 0h2.9v-2h-3v2Zm5.9 0h3v-2h-3v2Zm5.9 0h3v-2h-3v2Zm6 0h3v-2h-3v2Zm5.9 0h3v-2h-3v2Zm6 0h2.9v-2h-3v2Zm5.9 0h3v-2h-3v2Zm5.9 0h3v-2h-3v2Zm6 0h2.9v-2h-3v2Zm5.9 0h3v-2h-3v2Zm5.9 0h3v-2h-3v2Zm6 0h3v-2h-3v2Zm5.9 0h3v-2h-3v2Zm6 0h2.9v-2h-3v2Zm5.9 0h3v-2h-3v2Zm5.9 0h3v-2h-3v2Zm6 0h2.9v-2h-3v2Zm5.9 0h3v-2h-3v2Zm5.9 0h3v-2h-3v2Zm6 0h3v-2h-3v2Zm5.9 0h3v-2h-3v2Zm6 0h2.9v-2h-3v2Zm5.9 0h3v-2h-3v2Zm5.9 0h3v-2h-3v2Zm6 0h2.9v-2h-3v2Zm5.9 0h3v-2h-3v2Zm5.9 0h3v-2h-3v2Zm6 0h3v-2h-3v2Zm5.9 0h3v-2h-3v2Zm6 0h1.4v-2h-1.5v2Z"/>
  <rect width="115" height="38" x="590" y="94" fill="#fff" stroke="#CB361D" stroke-width="2" rx="7"/>
  <text xml:space="preserve" fill="#000" font-family="Helvetica" font-size="13" font-weight="bold" letter-spacing="0em" style="white-space:pre"><tspan x="594.4" y="118">.dropin-button { }</tspan></text>
  <text xml:space="preserve" fill="#000" font-family="Helvetica" font-size="16" font-weight="bold" letter-spacing="0em" style="white-space:pre"><tspan x="582" y="53.5">Branding applied</tspan></text>
  <rect width="121" height="32" x="587" y="194" fill="#fff" stroke="#CB361D" stroke-width="2" rx="16"/>
  <text xml:space="preserve" fill="#000" font-family="Helvetica" font-size="13" font-weight="bold" letter-spacing="0em" style="white-space:pre"><tspan x="605" y="215">border-radius:</tspan></text>
  <rect width="211" height="32" x="542" y="280" fill="#fff" stroke="#3F80DE" stroke-width="2" rx="16"/>
  <text xml:space="preserve" fill="#000" font-family="Helvetica" font-size="13" font-weight="bold" letter-spacing="0em" style="white-space:pre"><tspan x="560" y="301">var(--shape-border-radius-3)</tspan></text>
  <text xml:space="preserve" fill="#000" font-family="Helvetica" font-size="13" letter-spacing="0em" style="white-space:pre"><tspan x="592.2" y="87">dropin Button class</tspan></text>
  <text xml:space="preserve" fill="#000" font-family="Helvetica" font-size="13" letter-spacing="0em" style="white-space:pre"><tspan x="605.4" y="187">CSS class rule</tspan></text>
  <text xml:space="preserve" fill="#000" font-family="Helvetica" font-size="13" letter-spacing="0em" style="white-space:pre"><tspan x="595" y="272">dropin token usage</tspan></text>
  <path fill="#3F80DE" d="M537.7 296.7c.4-.4.4-1 0-1.4l-6.4-6.4a1 1 0 1 0-1.4 1.4l5.7 5.7-5.7 5.7a1 1 0 1 0 1.4 1.4l6.4-6.4Zm-89.7.3h1.5v-2H448v2Zm4.4 0h3v-2h-3v2Zm6 0h3v-2h-3v2Zm6 0h2.9v-2h-3v2Zm5.9 0h3v-2h-3v2Zm5.9 0h3v-2h-3v2Zm6 0h2.9v-2h-3v2Zm5.9 0h3v-2h-3v2Zm5.9 0h3v-2h-3v2Zm6 0h2.9v-2h-3v2Zm5.9 0h3v-2h-3v2Zm5.9 0h3v-2h-3v2Zm6 0h2.9v-2h-3v2Zm5.9 0h3v-2h-3v2Zm5.9 0h3v-2h-3v2Zm6 0h1.4v-2h-1.5v2Z"/>
  <path stroke="#CB361D" stroke-dasharray="3 3" stroke-linejoin="bevel" stroke-miterlimit="0" stroke-width="2" d="M710 113c26 0 47 21 47 47v6a44 44 0 0 1-44 44"/>
  <path stroke="#CB361D" stroke-dasharray="3 3" stroke-linejoin="round" stroke-width="2" d="M709 214s27.5-1 38 20-6 43-6 43"/>
  <path fill="#3F80DE" d="M649.3 348.7c.4.4 1 .4 1.4 0l6.4-6.4a1 1 0 1 0-1.4-1.4l-5.7 5.7-5.7-5.7a1 1 0 1 0-1.4 1.4l6.4 6.4ZM649 313v1.5h2V313h-2Zm0 4.4v2.9h2v-3h-2Zm0 5.8v3h2v-3h-2Zm0 5.8v3h2v-3h-2Zm0 5.9v2.9h2v-3h-2Zm0 5.8v3h2v-3h-2Zm0 5.8v1.5h2v-1.5h-2Z"/>
  <circle cx="152" cy="20" r="12" fill="#CB361D"/>
  <text xml:space="preserve" fill="#fff" font-family="Helvetica" font-size="14" font-weight="bold" letter-spacing="0em" style="white-space:pre"><tspan x="148.1" y="24.9">1</tspan></text>
  <circle cx="413" cy="20" r="12" fill="#CB361D"/>
  <text xml:space="preserve" fill="#fff" font-family="Helvetica" font-size="14" font-weight="bold" letter-spacing="0em" style="white-space:pre"><tspan x="409.1" y="24.9">2</tspan></text>
  <circle cx="648" cy="20" r="12" fill="#CB361D"/>
  <text xml:space="preserve" fill="#fff" font-family="Helvetica" font-size="14" font-weight="bold" letter-spacing="0em" style="white-space:pre"><tspan x="644.1" y="24.9">3</tspan></text>
  <defs>
    <linearGradient id="a" x1="349.1" x2="448.8" y1="363.5" y2="396.1" gradientUnits="userSpaceOnUse">
      <stop stop-color="#CB361D"/>
      <stop offset="1" stop-color="#3F80DE"/>
    </linearGradient>
  </defs>
</svg>
