<svg xmlns="http://www.w3.org/2000/svg" viewBox="0 0 24 24" width="24" height="24">
  <path d="M16.5 16.84c.16-.5.1-.97-.15-1.3-.22-.33-.6-.5-1.06-.53l-8.66-.11a.15.15 0 0 1-.13-.08.21.21 0 0 1-.02-.15.25.25 0 0 1 .2-.15l8.74-.12a3.13 3.13 0 0 0 2.55-1.91l.5-1.3a.25.25 0 0 0 .01-.17 5.68 5.68 0 0 0-10.93-.59 2.58 2.58 0 0 0-3.35.24 2.55 2.55 0 0 0-.67 2.44 3.64 3.64 0 0 0-3.5 4.17.18.18 0 0 0 .17.15h15.98a.22.22 0 0 0 .21-.16l.12-.43Zm2.77-5.56-.24.01c-.06 0-.1.05-.13.1l-.34 1.18c-.15.5-.1.97.16 1.31.22.32.6.5 1.06.52l1.84.12c.06 0 .1.02.14.07.02.04.03.1.02.15a.23.23 0 0 1-.2.15l-1.93.12a3.11 3.11 0 0 0-2.55 1.91l-.14.36c-.03.07.02.14.1.14h6.6a.18.18 0 0 0 .16-.12 4.74 4.74 0 0 0-4.56-6v-.02Z"/>
</svg>
