<svg width="926" height="200" viewBox="0 0 926 200" fill="none" xmlns="http://www.w3.org/2000/svg">
<rect width="926" height="200" fill="white"/>
<rect x="617" y="23.3672" width="145" height="150" rx="8" fill="#F6F6F6"/>
<path d="M645.888 46.1118L644.024 46.1118V49.4985H642.261V40.8618L646.497 40.8618C647.102 40.8735 647.567 40.9478 647.891 41.0845C648.22 41.2212 648.497 41.4224 648.723 41.688C648.911 41.9067 649.059 42.1489 649.169 42.4146C649.278 42.6802 649.333 42.9829 649.333 43.3228C649.333 43.7329 649.229 44.1372 649.022 44.5356C648.815 44.9302 648.473 45.2095 647.997 45.3735C648.395 45.5337 648.677 45.7622 648.841 46.0591C649.009 46.3521 649.093 46.8013 649.093 47.4067V47.9868C649.093 48.3813 649.108 48.6489 649.139 48.7896C649.186 49.0122 649.296 49.1763 649.468 49.2817V49.4985L647.481 49.4985C647.427 49.3071 647.388 49.1528 647.364 49.0356C647.317 48.7935 647.292 48.5454 647.288 48.2915L647.276 47.4888C647.268 46.938 647.167 46.5708 646.972 46.3872C646.78 46.2036 646.419 46.1118 645.888 46.1118ZM646.983 44.5415C647.343 44.3774 647.522 44.0532 647.522 43.5688C647.522 43.0454 647.348 42.6938 647.001 42.5142C646.805 42.4126 646.513 42.3618 646.122 42.3618L644.024 42.3618V44.6821L646.069 44.6821C646.475 44.6821 646.78 44.6353 646.983 44.5415ZM655.983 47.6235C655.94 48.0024 655.743 48.3872 655.392 48.7778C654.845 49.3989 654.079 49.7095 653.095 49.7095C652.282 49.7095 651.565 49.4478 650.944 48.9243C650.323 48.4009 650.013 47.5493 650.013 46.3696C650.013 45.2642 650.292 44.4165 650.851 43.8267C651.413 43.2368 652.142 42.9419 653.036 42.9419C653.567 42.9419 654.046 43.0415 654.472 43.2407C654.898 43.4399 655.249 43.7544 655.526 44.1841C655.776 44.563 655.939 45.0024 656.013 45.5024C656.056 45.7954 656.073 46.2173 656.065 46.7681H651.694C651.718 47.4087 651.919 47.8579 652.298 48.1157C652.528 48.2759 652.806 48.356 653.13 48.356C653.474 48.356 653.753 48.2583 653.968 48.063C654.085 47.9575 654.189 47.811 654.278 47.6235H655.983ZM654.331 45.6665C654.304 45.2251 654.169 44.8911 653.927 44.6646C653.689 44.4341 653.392 44.3188 653.036 44.3188C652.649 44.3188 652.349 44.4399 652.134 44.6821C651.923 44.9243 651.79 45.2524 651.735 45.6665H654.331ZM658.761 50.6177C658.941 50.77 659.243 50.8462 659.669 50.8462C660.271 50.8462 660.673 50.645 660.876 50.2427C661.009 49.9849 661.075 49.5513 661.075 48.9419V48.5317C660.915 48.8052 660.743 49.0103 660.56 49.147C660.228 49.4009 659.796 49.5278 659.265 49.5278C658.445 49.5278 657.788 49.2407 657.296 48.6665C656.808 48.0884 656.564 47.3071 656.564 46.3228C656.564 45.3735 656.8 44.5767 657.273 43.9321C657.745 43.2837 658.415 42.9595 659.283 42.9595C659.603 42.9595 659.882 43.0083 660.12 43.106C660.527 43.2739 660.855 43.5825 661.105 44.0317V43.1118H662.728V49.1704C662.728 49.9946 662.589 50.6157 662.312 51.0337C661.835 51.7524 660.921 52.1118 659.57 52.1118C658.753 52.1118 658.087 51.9517 657.572 51.6313C657.056 51.311 656.771 50.8325 656.716 50.1958H658.533C658.579 50.3911 658.656 50.5317 658.761 50.6177ZM658.48 47.3188C658.706 47.8579 659.113 48.1274 659.699 48.1274C660.089 48.1274 660.419 47.981 660.689 47.688C660.958 47.3911 661.093 46.9204 661.093 46.2759C661.093 45.6704 660.964 45.2095 660.706 44.8931C660.452 44.5767 660.111 44.4185 659.681 44.4185C659.095 44.4185 658.691 44.6938 658.468 45.2446C658.351 45.5376 658.292 45.8989 658.292 46.3286C658.292 46.6997 658.355 47.0298 658.48 47.3188ZM665.769 43.1118V49.4985H664.076V43.1118H665.769ZM665.769 40.8091V42.3501H664.076V40.8091H665.769ZM671.553 43.4048C672.053 43.7251 672.34 44.2759 672.414 45.0571H670.744C670.72 44.8423 670.66 44.6724 670.562 44.5474C670.379 44.3208 670.066 44.2075 669.625 44.2075C669.262 44.2075 669.002 44.2642 668.845 44.3774C668.693 44.4907 668.617 44.6235 668.617 44.7759C668.617 44.9673 668.699 45.106 668.863 45.1919C669.027 45.2817 669.607 45.436 670.603 45.6548C671.267 45.811 671.765 46.0474 672.097 46.3638C672.426 46.6841 672.59 47.0845 672.59 47.5649C672.59 48.1978 672.353 48.7153 671.881 49.1177C671.412 49.5161 670.685 49.7153 669.701 49.7153C668.697 49.7153 667.955 49.5044 667.474 49.0825C666.998 48.6567 666.76 48.1157 666.76 47.4595H668.453C668.488 47.7563 668.564 47.9673 668.681 48.0923C668.888 48.3149 669.271 48.4263 669.83 48.4263C670.158 48.4263 670.418 48.3774 670.609 48.2798C670.804 48.1821 670.902 48.0356 670.902 47.8403C670.902 47.6528 670.824 47.5103 670.668 47.4126C670.512 47.3149 669.931 47.147 668.928 46.9087C668.205 46.729 667.695 46.5044 667.398 46.2349C667.101 45.9692 666.953 45.5864 666.953 45.0864C666.953 44.4966 667.183 43.9907 667.644 43.5688C668.109 43.1431 668.762 42.9302 669.601 42.9302C670.398 42.9302 671.049 43.0884 671.553 43.4048ZM676.516 48.3091V49.5571L675.725 49.5864C674.936 49.6138 674.397 49.4771 674.107 49.1763C673.92 48.9849 673.826 48.6899 673.826 48.2915V44.3599H672.936V43.1704H673.826V41.3892H675.479V43.1704H676.516V44.3599H675.479V47.7349C675.479 47.9966 675.512 48.1606 675.578 48.2271C675.645 48.2896 675.848 48.3208 676.188 48.3208C676.238 48.3208 676.291 48.3208 676.346 48.3208C676.404 48.3169 676.461 48.313 676.516 48.3091ZM682.815 47.6235C682.772 48.0024 682.574 48.3872 682.223 48.7778C681.676 49.3989 680.91 49.7095 679.926 49.7095C679.114 49.7095 678.397 49.4478 677.776 48.9243C677.155 48.4009 676.844 47.5493 676.844 46.3696C676.844 45.2642 677.123 44.4165 677.682 43.8267C678.244 43.2368 678.973 42.9419 679.867 42.9419C680.399 42.9419 680.877 43.0415 681.303 43.2407C681.729 43.4399 682.08 43.7544 682.358 44.1841C682.608 44.563 682.77 45.0024 682.844 45.5024C682.887 45.7954 682.905 46.2173 682.897 46.7681L678.526 46.7681C678.549 47.4087 678.75 47.8579 679.129 48.1157C679.36 48.2759 679.637 48.356 679.961 48.356C680.305 48.356 680.584 48.2583 680.799 48.063C680.916 47.9575 681.02 47.811 681.11 47.6235L682.815 47.6235ZM681.162 45.6665C681.135 45.2251 681 44.8911 680.758 44.6646C680.52 44.4341 680.223 44.3188 679.867 44.3188C679.481 44.3188 679.18 44.4399 678.965 44.6821C678.754 44.9243 678.621 45.2524 678.567 45.6665H681.162ZM686.999 44.6528C686.327 44.6528 685.875 44.8716 685.645 45.3091C685.516 45.5552 685.452 45.9341 685.452 46.4458V49.4985H683.77V43.1118L685.364 43.1118V44.2251C685.622 43.7993 685.846 43.5083 686.038 43.3521C686.35 43.0903 686.756 42.9595 687.256 42.9595C687.288 42.9595 687.313 42.9614 687.333 42.9653C687.356 42.9653 687.405 42.9673 687.479 42.9712V44.6821C687.374 44.6704 687.28 44.6626 687.198 44.6587C687.116 44.6548 687.049 44.6528 686.999 44.6528ZM691.563 43.8032C692.005 43.2407 692.763 42.9595 693.837 42.9595C694.536 42.9595 695.157 43.0981 695.7 43.3755C696.243 43.6528 696.515 44.1763 696.515 44.9458V47.8755C696.515 48.0786 696.519 48.3247 696.526 48.6138C696.538 48.8325 696.571 48.981 696.626 49.0591C696.681 49.1372 696.763 49.2017 696.872 49.2524V49.4985H695.056C695.005 49.3696 694.97 49.2485 694.95 49.1353C694.931 49.022 694.915 48.8931 694.903 48.7485C694.673 48.9985 694.407 49.2114 694.106 49.3872C693.747 49.5942 693.341 49.6978 692.888 49.6978C692.31 49.6978 691.831 49.5337 691.452 49.2056C691.077 48.8735 690.89 48.4048 690.89 47.7993C690.89 47.0142 691.192 46.4458 691.798 46.0942C692.13 45.9028 692.618 45.7661 693.263 45.6841L693.831 45.6138C694.14 45.5747 694.36 45.5259 694.493 45.4673C694.731 45.3657 694.851 45.2075 694.851 44.9927C694.851 44.731 694.759 44.5513 694.575 44.4536C694.395 44.3521 694.13 44.3013 693.778 44.3013C693.384 44.3013 693.104 44.3989 692.94 44.5942C692.823 44.7388 692.745 44.9341 692.706 45.1802H691.095C691.13 44.6216 691.286 44.1626 691.563 43.8032ZM692.806 48.2915C692.962 48.4204 693.153 48.4849 693.38 48.4849C693.739 48.4849 694.069 48.3794 694.37 48.1685C694.675 47.9575 694.833 47.5728 694.845 47.0142V46.3931C694.739 46.4595 694.632 46.5142 694.522 46.5571C694.417 46.5962 694.27 46.6333 694.083 46.6685L693.708 46.7388C693.356 46.8013 693.104 46.8774 692.952 46.9673C692.694 47.1196 692.565 47.356 692.565 47.6763C692.565 47.9614 692.645 48.1665 692.806 48.2915ZM700.769 44.3481C700.202 44.3481 699.814 44.5884 699.603 45.0688C699.493 45.3228 699.439 45.647 699.439 46.0415V49.4985H697.775V43.1235H699.386V44.0552C699.601 43.7271 699.804 43.4907 699.995 43.3462C700.339 43.0884 700.775 42.9595 701.302 42.9595C701.962 42.9595 702.501 43.1333 702.919 43.481C703.341 43.8247 703.552 44.397 703.552 45.1978V49.4985H701.841V45.6138C701.841 45.2778 701.796 45.02 701.706 44.8403C701.542 44.5122 701.23 44.3481 700.769 44.3481ZM710.671 40.8735V49.4985H709.048V48.6138C708.81 48.9927 708.539 49.2681 708.234 49.4399C707.929 49.6118 707.55 49.6978 707.097 49.6978C706.351 49.6978 705.722 49.397 705.21 48.7954C704.703 48.1899 704.449 47.4146 704.449 46.4692C704.449 45.3794 704.699 44.522 705.199 43.897C705.703 43.272 706.374 42.9595 707.214 42.9595C707.601 42.9595 707.945 43.0454 708.246 43.2173C708.546 43.3853 708.79 43.6196 708.978 43.9204V40.8735H710.671ZM706.171 46.3462C706.171 46.936 706.289 47.4067 706.523 47.7583C706.753 48.1138 707.105 48.2915 707.578 48.2915C708.05 48.2915 708.41 48.1157 708.656 47.7642C708.902 47.4126 709.025 46.9575 709.025 46.3989C709.025 45.6177 708.828 45.0591 708.433 44.7231C708.191 44.52 707.91 44.4185 707.589 44.4185C707.101 44.4185 706.742 44.604 706.511 44.9751C706.285 45.3423 706.171 45.7993 706.171 46.3462ZM715.09 40.8618H716.76V49.4985H715.09V40.8618ZM723.481 43.9204C724.02 44.5962 724.289 45.395 724.289 46.3169C724.289 47.2544 724.02 48.0571 723.481 48.7251C722.942 49.3892 722.123 49.7212 721.026 49.7212C719.928 49.7212 719.11 49.3892 718.57 48.7251C718.031 48.0571 717.762 47.2544 717.762 46.3169C717.762 45.395 718.031 44.5962 718.57 43.9204C719.11 43.2446 719.928 42.9067 721.026 42.9067C722.123 42.9067 722.942 43.2446 723.481 43.9204ZM721.02 44.3188C720.531 44.3188 720.154 44.4927 719.889 44.8403C719.627 45.1841 719.496 45.6763 719.496 46.3169C719.496 46.9575 719.627 47.4517 719.889 47.7993C720.154 48.147 720.531 48.3208 721.02 48.3208C721.508 48.3208 721.883 48.147 722.145 47.7993C722.406 47.4517 722.537 46.9575 722.537 46.3169C722.537 45.6763 722.406 45.1841 722.145 44.8403C721.883 44.4927 721.508 44.3188 721.02 44.3188ZM725.491 43.8032C725.932 43.2407 726.69 42.9595 727.764 42.9595C728.463 42.9595 729.084 43.0981 729.627 43.3755C730.17 43.6528 730.442 44.1763 730.442 44.9458V47.8755C730.442 48.0786 730.446 48.3247 730.454 48.6138C730.465 48.8325 730.498 48.981 730.553 49.0591C730.608 49.1372 730.69 49.2017 730.799 49.2524V49.4985H728.983C728.932 49.3696 728.897 49.2485 728.877 49.1353C728.858 49.022 728.842 48.8931 728.83 48.7485C728.6 48.9985 728.334 49.2114 728.034 49.3872C727.674 49.5942 727.268 49.6978 726.815 49.6978C726.237 49.6978 725.758 49.5337 725.379 49.2056C725.004 48.8735 724.817 48.4048 724.817 47.7993C724.817 47.0142 725.12 46.4458 725.725 46.0942C726.057 45.9028 726.545 45.7661 727.19 45.6841L727.758 45.6138C728.067 45.5747 728.288 45.5259 728.42 45.4673C728.659 45.3657 728.778 45.2075 728.778 44.9927C728.778 44.731 728.686 44.5513 728.502 44.4536C728.323 44.3521 728.057 44.3013 727.705 44.3013C727.311 44.3013 727.032 44.3989 726.868 44.5942C726.75 44.7388 726.672 44.9341 726.633 45.1802H725.022C725.057 44.6216 725.213 44.1626 725.491 43.8032ZM726.733 48.2915C726.889 48.4204 727.08 48.4849 727.307 48.4849C727.666 48.4849 727.997 48.3794 728.297 48.1685C728.602 47.9575 728.76 47.5728 728.772 47.0142V46.3931C728.666 46.4595 728.559 46.5142 728.45 46.5571C728.344 46.5962 728.198 46.6333 728.01 46.6685L727.635 46.7388C727.284 46.8013 727.032 46.8774 726.879 46.9673C726.622 47.1196 726.493 47.356 726.493 47.6763C726.493 47.9614 726.573 48.1665 726.733 48.2915ZM737.503 40.8735V49.4985L735.88 49.4985V48.6138C735.641 48.9927 735.37 49.2681 735.065 49.4399C734.76 49.6118 734.382 49.6978 733.928 49.6978C733.182 49.6978 732.553 49.397 732.042 48.7954C731.534 48.1899 731.28 47.4146 731.28 46.4692C731.28 45.3794 731.53 44.522 732.03 43.897C732.534 43.272 733.206 42.9595 734.046 42.9595C734.432 42.9595 734.776 43.0454 735.077 43.2173C735.378 43.3853 735.622 43.6196 735.809 43.9204V40.8735H737.503ZM733.003 46.3462C733.003 46.936 733.12 47.4067 733.354 47.7583C733.585 48.1138 733.936 48.2915 734.409 48.2915C734.882 48.2915 735.241 48.1157 735.487 47.7642C735.733 47.4126 735.856 46.9575 735.856 46.3989C735.856 45.6177 735.659 45.0591 735.264 44.7231C735.022 44.52 734.741 44.4185 734.421 44.4185C733.932 44.4185 733.573 44.604 733.342 44.9751C733.116 45.3423 733.003 45.7993 733.003 46.3462Z" fill="black"/>
<path d="M690 98C688.343 98 687 96.6567 687 95V83C687 81.3433 688.343 80 690 80C691.657 80 693 81.3433 693 83V95C693 96.6567 691.657 98 690 98Z" fill="#1A1C20"/>
<path d="M700.098 98.5093L706.098 88.1173C706.927 86.6827 706.435 84.848 705 84.0193C703.566 83.1907 701.731 83.6827 700.902 85.1173L694.902 95.5093C694.074 96.944 694.566 98.7787 696 99.6073C697.435 100.436 699.27 99.944 700.098 98.5093Z" fill="#ECECEC"/>
<path d="M704.491 105.098L714.883 99.098C716.317 98.2693 716.809 96.4347 715.981 95C715.152 93.5653 713.317 93.0733 711.883 93.902L701.491 99.902C700.056 100.731 699.564 102.565 700.393 104C701.221 105.435 703.056 105.927 704.491 105.098Z" fill="#D9D9DA"/>
<path d="M705 113H717C718.657 113 720 111.657 720 110C720 108.343 718.657 107 717 107H705C703.343 107 702 108.343 702 110C702 111.657 703.343 113 705 113Z" fill="#C6C6C7"/>
<path d="M701.491 120.098L711.883 126.098C713.317 126.927 715.152 126.435 715.981 125C716.809 123.565 716.317 121.731 714.883 120.902L704.491 114.902C703.056 114.073 701.221 114.565 700.393 116C699.564 117.435 700.056 119.269 701.491 120.098Z" fill="#B3B3B5"/>
<path d="M694.902 124.491L700.902 134.883C701.731 136.317 703.566 136.809 705 135.981C706.435 135.152 706.927 133.317 706.098 131.883L700.098 121.491C699.27 120.056 697.435 119.564 696 120.393C694.566 121.221 694.074 123.056 694.902 124.491Z" fill="#A0A0A2"/>
<path d="M687 125V137C687 138.657 688.343 140 690 140C691.657 140 693 138.657 693 137V125C693 123.343 691.657 122 690 122C688.343 122 687 123.343 687 125Z" fill="#8C8D8F"/>
<path d="M679.902 121.491L673.902 131.883C673.073 133.317 673.565 135.152 675 135.981C676.435 136.809 678.269 136.317 679.098 134.883L685.098 124.491C685.927 123.056 685.435 121.221 684 120.393C682.565 119.564 680.731 120.056 679.902 121.491Z" fill="#797B7D"/>
<path d="M675.509 114.902L665.117 120.902C663.683 121.731 663.191 123.565 664.019 125C664.848 126.435 666.683 126.927 668.117 126.098L678.509 120.098C679.944 119.269 680.436 117.435 679.607 116C678.779 114.565 676.944 114.073 675.509 114.902Z" fill="#66686A"/>
<path d="M675 107H663C661.343 107 660 108.343 660 110C660 111.657 661.343 113 663 113H675C676.657 113 678 111.657 678 110C678 108.343 676.657 107 675 107Z" fill="#535558"/>
<path d="M678.509 99.902L668.117 93.902C666.683 93.0733 664.848 93.5653 664.019 95C663.191 96.4347 663.683 98.2693 665.117 99.098L675.509 105.098C676.944 105.927 678.779 105.435 679.607 104C680.436 102.565 679.944 100.731 678.509 99.902Z" fill="#404245"/>
<path d="M685.098 95.5093L679.098 85.1173C678.269 83.6827 676.435 83.1907 675 84.0193C673.565 84.848 673.073 86.6827 673.902 88.1173L679.902 98.5093C680.731 99.944 682.565 100.436 684 99.6073C685.435 98.7787 685.927 96.944 685.098 95.5093Z" fill="#2D2F33"/>
<circle cx="689.31" cy="23.3104" r="8.31045" fill="black"/>
<path d="M689.182 23.1328C688.995 23.1328 688.834 23.1561 688.698 23.2026C688.458 23.2886 688.277 23.4479 688.156 23.6807L686.781 23.6162L687.329 19.314H691.62V20.6138H688.435L688.156 22.3164C688.392 22.1624 688.576 22.0604 688.709 22.0103C688.931 21.9279 689.201 21.8867 689.52 21.8867C690.164 21.8867 690.727 22.1034 691.206 22.5366C691.686 22.9699 691.926 23.6001 691.926 24.4272C691.926 25.147 691.695 25.7897 691.233 26.3555C690.771 26.9212 690.08 27.2041 689.16 27.2041C688.419 27.2041 687.81 27.0054 687.334 26.6079C686.858 26.2104 686.593 25.6465 686.539 24.916H688.064C688.125 25.249 688.242 25.5068 688.413 25.6895C688.585 25.8685 688.836 25.958 689.165 25.958C689.545 25.958 689.833 25.8255 690.03 25.5605C690.231 25.292 690.331 24.9554 690.331 24.5508C690.331 24.1533 690.238 23.8185 690.052 23.5464C689.865 23.2707 689.575 23.1328 689.182 23.1328Z" fill="white"/>
<rect x="465" y="23.3672" width="145" height="150" rx="8" fill="#F6F6F6"/>
<path d="M492.329 48.854C491.684 49.4438 490.86 49.7388 489.856 49.7388C488.614 49.7388 487.638 49.3403 486.927 48.5435C486.216 47.7427 485.86 46.645 485.86 45.2505C485.86 43.7427 486.264 42.5806 487.073 41.7642C487.776 41.0532 488.671 40.6978 489.757 40.6978C491.21 40.6978 492.272 41.1743 492.944 42.1274C493.315 42.6626 493.514 43.1997 493.542 43.7388H491.737C491.62 43.3247 491.47 43.0122 491.286 42.8013C490.958 42.4263 490.472 42.2388 489.827 42.2388C489.171 42.2388 488.653 42.5044 488.274 43.0356C487.895 43.563 487.706 44.311 487.706 45.2798C487.706 46.2485 487.905 46.9751 488.304 47.4595C488.706 47.9399 489.216 48.1802 489.833 48.1802C490.466 48.1802 490.948 47.9731 491.28 47.5591C491.464 47.3364 491.616 47.0024 491.737 46.5571H493.524C493.368 47.4985 492.97 48.2642 492.329 48.854ZM499.858 43.9204C500.398 44.5962 500.667 45.395 500.667 46.3169C500.667 47.2544 500.398 48.0571 499.858 48.7251C499.319 49.3892 498.501 49.7212 497.403 49.7212C496.306 49.7212 495.487 49.3892 494.948 48.7251C494.409 48.0571 494.14 47.2544 494.14 46.3169C494.14 45.395 494.409 44.5962 494.948 43.9204C495.487 43.2446 496.306 42.9067 497.403 42.9067C498.501 42.9067 499.319 43.2446 499.858 43.9204ZM497.398 44.3188C496.909 44.3188 496.532 44.4927 496.267 44.8403C496.005 45.1841 495.874 45.6763 495.874 46.3169C495.874 46.9575 496.005 47.4517 496.267 47.7993C496.532 48.147 496.909 48.3208 497.398 48.3208C497.886 48.3208 498.261 48.147 498.523 47.7993C498.784 47.4517 498.915 46.9575 498.915 46.3169C498.915 45.6763 498.784 45.1841 498.523 44.8403C498.261 44.4927 497.886 44.3188 497.398 44.3188ZM504.634 44.3481C504.068 44.3481 503.679 44.5884 503.468 45.0688C503.359 45.3228 503.304 45.647 503.304 46.0415V49.4985H501.64V43.1235H503.251V44.0552C503.466 43.7271 503.669 43.4907 503.861 43.3462C504.204 43.0884 504.64 42.9595 505.167 42.9595C505.827 42.9595 506.367 43.1333 506.784 43.481C507.206 43.8247 507.417 44.397 507.417 45.1978V49.4985H505.706V45.6138C505.706 45.2778 505.661 45.02 505.572 44.8403C505.408 44.5122 505.095 44.3481 504.634 44.3481ZM511.73 44.3481C511.164 44.3481 510.775 44.5884 510.564 45.0688C510.455 45.3228 510.4 45.647 510.4 46.0415V49.4985H508.736V43.1235H510.347V44.0552C510.562 43.7271 510.765 43.4907 510.957 43.3462C511.3 43.0884 511.736 42.9595 512.263 42.9595C512.923 42.9595 513.462 43.1333 513.88 43.481C514.302 43.8247 514.513 44.397 514.513 45.1978V49.4985H512.802V45.6138C512.802 45.2778 512.757 45.02 512.668 44.8403C512.503 44.5122 512.191 44.3481 511.73 44.3481ZM521.287 47.6235C521.244 48.0024 521.047 48.3872 520.695 48.7778C520.148 49.3989 519.383 49.7095 518.398 49.7095C517.586 49.7095 516.869 49.4478 516.248 48.9243C515.627 48.4009 515.316 47.5493 515.316 46.3696C515.316 45.2642 515.595 44.4165 516.154 43.8267C516.717 43.2368 517.445 42.9419 518.34 42.9419C518.871 42.9419 519.349 43.0415 519.775 43.2407C520.201 43.4399 520.553 43.7544 520.83 44.1841C521.08 44.563 521.242 45.0024 521.316 45.5024C521.359 45.7954 521.377 46.2173 521.369 46.7681H516.998C517.021 47.4087 517.222 47.8579 517.601 48.1157C517.832 48.2759 518.109 48.356 518.433 48.356C518.777 48.356 519.056 48.2583 519.271 48.063C519.388 47.9575 519.492 47.811 519.582 47.6235H521.287ZM519.635 45.6665C519.607 45.2251 519.472 44.8911 519.23 44.6646C518.992 44.4341 518.695 44.3188 518.34 44.3188C517.953 44.3188 517.652 44.4399 517.437 44.6821C517.226 44.9243 517.094 45.2524 517.039 45.6665H519.635ZM527.785 45.4028H526.074C526.043 45.1646 525.963 44.9497 525.834 44.7583C525.647 44.5005 525.355 44.3716 524.961 44.3716C524.398 44.3716 524.014 44.6509 523.807 45.2095C523.697 45.5063 523.643 45.9009 523.643 46.3931C523.643 46.8618 523.697 47.2388 523.807 47.5239C524.006 48.0552 524.381 48.3208 524.932 48.3208C525.322 48.3208 525.6 48.2153 525.764 48.0044C525.928 47.7935 526.027 47.52 526.063 47.1841H527.768C527.729 47.6919 527.545 48.1724 527.217 48.6255C526.693 49.356 525.918 49.7212 524.891 49.7212C523.863 49.7212 523.107 49.4165 522.623 48.8071C522.139 48.1978 521.897 47.4067 521.897 46.4341C521.897 45.3364 522.164 44.4829 522.699 43.8735C523.234 43.2642 523.973 42.9595 524.914 42.9595C525.715 42.9595 526.369 43.1392 526.877 43.4985C527.389 43.8579 527.691 44.4927 527.785 45.4028ZM531.623 48.3091V49.5571L530.832 49.5864C530.043 49.6138 529.504 49.4771 529.215 49.1763C529.028 48.9849 528.934 48.6899 528.934 48.2915V44.3599H528.043V43.1704H528.934V41.3892H530.586V43.1704H531.623V44.3599H530.586V47.7349C530.586 47.9966 530.619 48.1606 530.686 48.2271C530.752 48.2896 530.955 48.3208 531.295 48.3208C531.346 48.3208 531.399 48.3208 531.453 48.3208C531.512 48.3169 531.569 48.313 531.623 48.3091ZM541.022 47.6235C540.979 48.0024 540.782 48.3872 540.43 48.7778C539.884 49.3989 539.118 49.7095 538.134 49.7095C537.321 49.7095 536.604 49.4478 535.983 48.9243C535.362 48.4009 535.052 47.5493 535.052 46.3696C535.052 45.2642 535.331 44.4165 535.889 43.8267C536.452 43.2368 537.18 42.9419 538.075 42.9419C538.606 42.9419 539.085 43.0415 539.51 43.2407C539.936 43.4399 540.288 43.7544 540.565 44.1841C540.815 44.563 540.977 45.0024 541.052 45.5024C541.094 45.7954 541.112 46.2173 541.104 46.7681H536.733C536.757 47.4087 536.958 47.8579 537.337 48.1157C537.567 48.2759 537.844 48.356 538.169 48.356C538.512 48.356 538.792 48.2583 539.007 48.063C539.124 47.9575 539.227 47.811 539.317 47.6235H541.022ZM539.37 45.6665C539.343 45.2251 539.208 44.8911 538.966 44.6646C538.727 44.4341 538.43 44.3188 538.075 44.3188C537.688 44.3188 537.387 44.4399 537.173 44.6821C536.962 44.9243 536.829 45.2524 536.774 45.6665H539.37ZM545.001 44.3481C544.435 44.3481 544.046 44.5884 543.835 45.0688C543.726 45.3228 543.671 45.647 543.671 46.0415V49.4985H542.007V43.1235H543.618V44.0552C543.833 43.7271 544.036 43.4907 544.228 43.3462C544.571 43.0884 545.007 42.9595 545.534 42.9595C546.194 42.9595 546.733 43.1333 547.151 43.481C547.573 43.8247 547.784 44.397 547.784 45.1978V49.4985H546.073V45.6138C546.073 45.2778 546.028 45.02 545.938 44.8403C545.774 44.5122 545.462 44.3481 545.001 44.3481ZM554.904 40.8735V49.4985H553.28V48.6138C553.042 48.9927 552.771 49.2681 552.466 49.4399C552.161 49.6118 551.782 49.6978 551.329 49.6978C550.583 49.6978 549.954 49.397 549.443 48.7954C548.935 48.1899 548.681 47.4146 548.681 46.4692C548.681 45.3794 548.931 44.522 549.431 43.897C549.935 43.272 550.607 42.9595 551.447 42.9595C551.833 42.9595 552.177 43.0454 552.478 43.2173C552.779 43.3853 553.023 43.6196 553.21 43.9204V40.8735H554.904ZM550.404 46.3462C550.404 46.936 550.521 47.4067 550.755 47.7583C550.986 48.1138 551.337 48.2915 551.81 48.2915C552.282 48.2915 552.642 48.1157 552.888 47.7642C553.134 47.4126 553.257 46.9575 553.257 46.3989C553.257 45.6177 553.06 45.0591 552.665 44.7231C552.423 44.52 552.142 44.4185 551.822 44.4185C551.333 44.4185 550.974 44.604 550.743 44.9751C550.517 45.3423 550.404 45.7993 550.404 46.3462ZM561.537 43.7974C562.052 44.3481 562.31 45.1567 562.31 46.2231C562.31 47.3481 562.056 48.2056 561.548 48.7954C561.044 49.3853 560.394 49.6802 559.597 49.6802C559.089 49.6802 558.667 49.5532 558.332 49.2993C558.148 49.1587 557.968 48.9536 557.792 48.6841V52.0122H556.14V43.1118H557.74V44.0552C557.919 43.7778 558.111 43.5591 558.314 43.3989C558.685 43.1138 559.126 42.9712 559.638 42.9712C560.384 42.9712 561.017 43.2466 561.537 43.7974ZM560.587 46.3052C560.587 45.813 560.474 45.3774 560.248 44.9985C560.025 44.6196 559.662 44.4302 559.158 44.4302C558.552 44.4302 558.136 44.7173 557.91 45.2915C557.792 45.5962 557.734 45.9829 557.734 46.4517C557.734 47.1938 557.931 47.7153 558.326 48.0161C558.56 48.1919 558.837 48.2798 559.158 48.2798C559.623 48.2798 559.976 48.1001 560.218 47.7407C560.464 47.3813 560.587 46.9028 560.587 46.3052ZM568.609 43.9204C569.148 44.5962 569.418 45.395 569.418 46.3169C569.418 47.2544 569.148 48.0571 568.609 48.7251C568.07 49.3892 567.252 49.7212 566.154 49.7212C565.056 49.7212 564.238 49.3892 563.699 48.7251C563.16 48.0571 562.89 47.2544 562.89 46.3169C562.89 45.395 563.16 44.5962 563.699 43.9204C564.238 43.2446 565.056 42.9067 566.154 42.9067C567.252 42.9067 568.07 43.2446 568.609 43.9204ZM566.148 44.3188C565.66 44.3188 565.283 44.4927 565.017 44.8403C564.756 45.1841 564.625 45.6763 564.625 46.3169C564.625 46.9575 564.756 47.4517 565.017 47.7993C565.283 48.147 565.66 48.3208 566.148 48.3208C566.636 48.3208 567.011 48.147 567.273 47.7993C567.535 47.4517 567.666 46.9575 567.666 46.3169C567.666 45.6763 567.535 45.1841 567.273 44.8403C567.011 44.4927 566.636 44.3188 566.148 44.3188ZM572.096 43.1118V49.4985H570.402V43.1118H572.096ZM572.096 40.8091V42.3501H570.402V40.8091H572.096ZM576.485 44.3481C575.918 44.3481 575.529 44.5884 575.319 45.0688C575.209 45.3228 575.154 45.647 575.154 46.0415V49.4985H573.49V43.1235H575.102V44.0552C575.317 43.7271 575.52 43.4907 575.711 43.3462C576.055 43.0884 576.49 42.9595 577.018 42.9595C577.678 42.9595 578.217 43.1333 578.635 43.481C579.057 43.8247 579.268 44.397 579.268 45.1978V49.4985H577.557V45.6138C577.557 45.2778 577.512 45.02 577.422 44.8403C577.258 44.5122 576.945 44.3481 576.485 44.3481ZM583.498 48.3091V49.5571L582.707 49.5864C581.918 49.6138 581.379 49.4771 581.09 49.1763C580.903 48.9849 580.809 48.6899 580.809 48.2915V44.3599H579.918V43.1704H580.809V41.3892L582.461 41.3892V43.1704H583.498V44.3599H582.461V47.7349C582.461 47.9966 582.495 48.1606 582.561 48.2271C582.627 48.2896 582.83 48.3208 583.17 48.3208C583.221 48.3208 583.274 48.3208 583.329 48.3208C583.387 48.3169 583.444 48.313 583.498 48.3091ZM588.731 43.4048C589.231 43.7251 589.518 44.2759 589.592 45.0571H587.923C587.899 44.8423 587.839 44.6724 587.741 44.5474C587.557 44.3208 587.245 44.2075 586.803 44.2075C586.44 44.2075 586.18 44.2642 586.024 44.3774C585.872 44.4907 585.796 44.6235 585.796 44.7759C585.796 44.9673 585.878 45.106 586.042 45.1919C586.206 45.2817 586.786 45.436 587.782 45.6548C588.446 45.811 588.944 46.0474 589.276 46.3638C589.604 46.6841 589.768 47.0845 589.768 47.5649C589.768 48.1978 589.532 48.7153 589.059 49.1177C588.59 49.5161 587.864 49.7153 586.88 49.7153C585.876 49.7153 585.133 49.5044 584.653 49.0825C584.176 48.6567 583.938 48.1157 583.938 47.4595L585.632 47.4595C585.667 47.7563 585.743 47.9673 585.86 48.0923C586.067 48.3149 586.45 48.4263 587.008 48.4263C587.337 48.4263 587.596 48.3774 587.788 48.2798C587.983 48.1821 588.081 48.0356 588.081 47.8403C588.081 47.6528 588.003 47.5103 587.846 47.4126C587.69 47.3149 587.11 47.147 586.106 46.9087C585.383 46.729 584.874 46.5044 584.577 46.2349C584.28 45.9692 584.132 45.5864 584.132 45.0864C584.132 44.4966 584.362 43.9907 584.823 43.5688C585.288 43.1431 585.94 42.9302 586.78 42.9302C587.577 42.9302 588.227 43.0884 588.731 43.4048Z" fill="black"/>
<path fill-rule="evenodd" clip-rule="evenodd" d="M543.107 88.8759L555.445 95.9991C555.792 95.6311 556.198 95.3062 556.658 95.0388C559.217 93.5679 562.48 94.4413 563.967 97C565.438 99.5587 564.564 102.822 562.005 104.308C561.549 104.571 561.069 104.759 560.581 104.876V119.128C561.064 119.245 561.538 119.432 561.99 119.692C564.564 121.178 565.438 124.441 563.951 127C562.48 129.559 559.202 130.432 556.643 128.961C556.133 128.668 555.691 128.304 555.32 127.888L543.058 134.967C543.233 135.497 543.328 136.064 543.328 136.653C543.328 139.594 540.938 142 537.981 142C535.024 142 532.634 139.61 532.634 136.653C532.634 136.127 532.709 135.619 532.85 135.14L520.516 128.018C520.172 128.379 519.772 128.698 519.319 128.961C516.745 130.432 513.481 129.559 512.011 127C510.54 124.441 511.413 121.178 513.972 119.692C514.424 119.431 514.899 119.245 515.381 119.128V104.876C514.893 104.759 514.413 104.571 513.956 104.308C511.398 102.838 510.524 99.5587 511.995 97C513.466 94.4413 516.745 93.5679 519.304 95.0388C519.762 95.3047 520.165 95.6276 520.512 95.9931L532.852 88.868C532.71 88.3861 532.634 87.8758 532.634 87.3473C532.634 84.3902 535.024 82 537.981 82C540.938 82 543.328 84.3902 543.328 87.3473C543.328 87.8787 543.251 88.3917 543.107 88.8759ZM541.822 91.0706L554.189 98.2107C553.806 99.5533 553.947 101.042 554.697 102.347C555.45 103.657 556.676 104.525 558.037 104.863V119.133C557.968 119.15 557.899 119.168 557.83 119.188L541.678 91.2132C541.727 91.1666 541.775 91.119 541.822 91.0706ZM534.287 91.2164L518.135 119.191C518.066 119.171 517.995 119.152 517.925 119.134V104.863C519.286 104.525 520.512 103.657 521.265 102.347C522.017 101.039 522.156 99.5474 521.771 98.2028L534.134 91.0646C534.184 91.1162 534.235 91.1669 534.287 91.2164ZM539.475 92.4838L555.623 120.452C555.262 120.797 554.943 121.198 554.682 121.653C554.422 122.105 554.235 122.579 554.118 123.062H521.844C521.727 122.58 521.54 122.105 521.28 121.653C521.018 121.201 520.7 120.802 520.34 120.459L536.491 92.4851C536.964 92.6215 537.464 92.6946 537.981 92.6946C538.5 92.6946 539.001 92.621 539.475 92.4838ZM541.935 133.05L554.222 125.956C554.185 125.841 554.152 125.724 554.123 125.606H521.837C521.82 125.675 521.802 125.744 521.782 125.813L534.129 132.941C535.101 131.932 536.467 131.305 537.981 131.305C539.549 131.305 540.958 131.978 541.935 133.05Z" fill="#E535AB"/>
<circle cx="537.31" cy="23.3104" r="8.31045" fill="black"/>
<path d="M540.001 24.1265V25.3242H539.121V27H537.622V25.3242H534.539V23.9868L537.402 19.2603H539.121V24.1265H540.001ZM535.672 24.1265H537.622V20.7642L535.672 24.1265Z" fill="white"/>
<rect x="313" y="23.3672" width="145" height="150" rx="8" fill="#F6F6F6"/>
<path d="M355.382 40.8618H357.175V49.4985H355.382V40.8618ZM362.074 44.8696C361.933 44.561 361.658 44.4067 361.248 44.4067C360.771 44.4067 360.451 44.561 360.287 44.8696C360.197 45.0454 360.152 45.3071 360.152 45.6548V49.4985H358.459V43.1235H360.082V44.0552C360.289 43.7231 360.484 43.4868 360.668 43.3462C360.992 43.0962 361.412 42.9712 361.928 42.9712C362.416 42.9712 362.81 43.0786 363.111 43.2935C363.353 43.4927 363.537 43.7485 363.662 44.061C363.881 43.686 364.152 43.4106 364.476 43.2349C364.82 43.0591 365.203 42.9712 365.625 42.9712C365.906 42.9712 366.183 43.0259 366.457 43.1353C366.73 43.2446 366.978 43.436 367.201 43.7095C367.381 43.9321 367.502 44.2056 367.564 44.5298C367.603 44.7446 367.623 45.0591 367.623 45.4731L367.611 49.4985H365.9V45.4321C365.9 45.1899 365.861 44.9907 365.783 44.8345C365.635 44.5376 365.361 44.3892 364.963 44.3892C364.502 44.3892 364.183 44.5806 364.008 44.9634C363.918 45.1665 363.873 45.4106 363.873 45.6958V49.4985H362.191V45.6958C362.191 45.3169 362.152 45.0415 362.074 44.8696ZM374.273 43.7974C374.789 44.3481 375.047 45.1567 375.047 46.2231C375.047 47.3481 374.793 48.2056 374.285 48.7954C373.781 49.3853 373.131 49.6802 372.334 49.6802C371.826 49.6802 371.404 49.5532 371.068 49.2993C370.885 49.1587 370.705 48.9536 370.529 48.6841V52.0122H368.877V43.1118H370.477V44.0552C370.656 43.7778 370.848 43.5591 371.051 43.3989C371.422 43.1138 371.863 42.9712 372.375 42.9712C373.121 42.9712 373.754 43.2466 374.273 43.7974ZM373.324 46.3052C373.324 45.813 373.211 45.3774 372.984 44.9985C372.762 44.6196 372.398 44.4302 371.895 44.4302C371.289 44.4302 370.873 44.7173 370.647 45.2915C370.529 45.5962 370.471 45.9829 370.471 46.4517C370.471 47.1938 370.668 47.7153 371.063 48.0161C371.297 48.1919 371.574 48.2798 371.895 48.2798C372.359 48.2798 372.713 48.1001 372.955 47.7407C373.201 47.3813 373.324 46.9028 373.324 46.3052ZM381.346 43.9204C381.885 44.5962 382.155 45.395 382.155 46.3169C382.155 47.2544 381.885 48.0571 381.346 48.7251C380.807 49.3892 379.989 49.7212 378.891 49.7212C377.793 49.7212 376.975 49.3892 376.436 48.7251C375.897 48.0571 375.627 47.2544 375.627 46.3169C375.627 45.395 375.897 44.5962 376.436 43.9204C376.975 43.2446 377.793 42.9067 378.891 42.9067C379.989 42.9067 380.807 43.2446 381.346 43.9204ZM378.885 44.3188C378.397 44.3188 378.02 44.4927 377.754 44.8403C377.492 45.1841 377.362 45.6763 377.362 46.3169C377.362 46.9575 377.492 47.4517 377.754 47.7993C378.02 48.147 378.397 48.3208 378.885 48.3208C379.373 48.3208 379.748 48.147 380.01 47.7993C380.272 47.4517 380.403 46.9575 380.403 46.3169C380.403 45.6763 380.272 45.1841 380.01 44.8403C379.748 44.4927 379.373 44.3188 378.885 44.3188ZM386.327 44.6528C385.655 44.6528 385.204 44.8716 384.973 45.3091C384.844 45.5552 384.78 45.9341 384.78 46.4458V49.4985H383.098V43.1118H384.692V44.2251C384.95 43.7993 385.174 43.5083 385.366 43.3521C385.678 43.0903 386.084 42.9595 386.584 42.9595C386.616 42.9595 386.641 42.9614 386.661 42.9653C386.684 42.9653 386.733 42.9673 386.807 42.9712V44.6821C386.702 44.6704 386.608 44.6626 386.526 44.6587C386.444 44.6548 386.377 44.6528 386.327 44.6528ZM390.475 48.3091V49.5571L389.684 49.5864C388.895 49.6138 388.356 49.4771 388.067 49.1763C387.88 48.9849 387.786 48.6899 387.786 48.2915V44.3599H386.895V43.1704H387.786V41.3892H389.438V43.1704H390.475V44.3599H389.438V47.7349C389.438 47.9966 389.471 48.1606 389.538 48.2271C389.604 48.2896 389.807 48.3208 390.147 48.3208C390.198 48.3208 390.251 48.3208 390.305 48.3208C390.364 48.3169 390.421 48.313 390.475 48.3091ZM396.388 49.4985H394.724V44.3481H393.792V43.1704H394.706V42.7603C394.706 42.0806 394.857 41.5747 395.157 41.2427C395.427 40.9302 395.976 40.7739 396.804 40.7739C396.906 40.7739 397.009 40.7778 397.114 40.7856C397.22 40.7935 397.329 40.8013 397.443 40.8091V42.1685C397.364 42.1646 397.288 42.1626 397.214 42.1626C397.14 42.1587 397.05 42.1567 396.945 42.1567C396.683 42.1567 396.523 42.229 396.464 42.3735C396.406 42.5181 396.38 42.7446 396.388 43.0532V43.1704H397.484V44.3481H396.388V49.4985ZM400.138 43.1411V49.4985H398.474V43.1411H400.138ZM398.474 42.3325V40.8091H400.109V42.3325H398.474ZM401.539 40.8618H403.208V49.4985H401.539V40.8618ZM410.07 47.6235C410.027 48.0024 409.83 48.3872 409.478 48.7778C408.931 49.3989 408.166 49.7095 407.181 49.7095C406.369 49.7095 405.652 49.4478 405.031 48.9243C404.41 48.4009 404.099 47.5493 404.099 46.3696C404.099 45.2642 404.379 44.4165 404.937 43.8267C405.5 43.2368 406.228 42.9419 407.123 42.9419C407.654 42.9419 408.133 43.0415 408.558 43.2407C408.984 43.4399 409.336 43.7544 409.613 44.1841C409.863 44.563 410.025 45.0024 410.099 45.5024C410.142 45.7954 410.16 46.2173 410.152 46.7681H405.781C405.804 47.4087 406.006 47.8579 406.384 48.1157C406.615 48.2759 406.892 48.356 407.217 48.356C407.56 48.356 407.84 48.2583 408.054 48.063C408.172 47.9575 408.275 47.811 408.365 47.6235H410.07ZM408.418 45.6665C408.39 45.2251 408.256 44.8911 408.013 44.6646C407.775 44.4341 407.478 44.3188 407.123 44.3188C406.736 44.3188 406.435 44.4399 406.22 44.6821C406.009 44.9243 405.877 45.2524 405.822 45.6665H408.418ZM415.443 43.4048C415.943 43.7251 416.23 44.2759 416.305 45.0571H414.635C414.611 44.8423 414.551 44.6724 414.453 44.5474C414.269 44.3208 413.957 44.2075 413.516 44.2075C413.152 44.2075 412.893 44.2642 412.736 44.3774C412.584 44.4907 412.508 44.6235 412.508 44.7759C412.508 44.9673 412.59 45.106 412.754 45.1919C412.918 45.2817 413.498 45.436 414.494 45.6548C415.158 45.811 415.656 46.0474 415.988 46.3638C416.316 46.6841 416.48 47.0845 416.48 47.5649C416.48 48.1978 416.244 48.7153 415.771 49.1177C415.303 49.5161 414.576 49.7153 413.592 49.7153C412.588 49.7153 411.846 49.5044 411.365 49.0825C410.889 48.6567 410.65 48.1157 410.65 47.4595H412.344C412.379 47.7563 412.455 47.9673 412.572 48.0923C412.779 48.3149 413.162 48.4263 413.721 48.4263C414.049 48.4263 414.309 48.3774 414.5 48.2798C414.695 48.1821 414.793 48.0356 414.793 47.8403C414.793 47.6528 414.715 47.5103 414.559 47.4126C414.402 47.3149 413.822 47.147 412.818 46.9087C412.096 46.729 411.586 46.5044 411.289 46.2349C410.992 45.9692 410.844 45.5864 410.844 45.0864C410.844 44.4966 411.074 43.9907 411.535 43.5688C412 43.1431 412.652 42.9302 413.492 42.9302C414.289 42.9302 414.939 43.0884 415.443 43.4048Z" fill="black"/>
<g clip-path="url(#clip0_95_332)">
<path d="M365.868 100.567H396.162C396.652 100.567 397.049 100.169 397.049 99.6783C397.049 99.1874 396.652 98.7898 396.162 98.7898H365.868C365.378 98.7898 364.982 99.1874 364.982 99.6783C364.982 100.169 365.378 100.567 365.868 100.567Z" fill="black"/>
<path d="M396.162 105.253H392.945C392.456 105.253 392.059 105.65 392.059 106.141C392.059 106.632 392.456 107.03 392.945 107.03H396.162C396.652 107.03 397.049 106.632 397.049 106.141C397.049 105.65 396.652 105.253 396.162 105.253Z" fill="black"/>
<path d="M365.868 107.03H389.356C389.846 107.03 390.243 106.632 390.243 106.141C390.243 105.65 389.846 105.253 389.356 105.253H365.868C365.378 105.253 364.982 105.65 364.982 106.141C364.982 106.632 365.378 107.03 365.868 107.03Z" fill="black"/>
<path d="M365.868 113.492H396.162C396.652 113.492 397.049 113.095 397.049 112.604C397.049 112.113 396.652 111.715 396.162 111.715H365.868C365.378 111.715 364.982 112.113 364.982 112.604C364.982 113.095 365.378 113.492 365.868 113.492Z" fill="black"/>
<path d="M389.061 118.178H377.947C377.458 118.178 377.061 118.576 377.061 119.067C377.061 119.558 377.458 119.955 377.947 119.955H389.061C389.551 119.955 389.947 119.558 389.947 119.067C389.947 118.576 389.551 118.178 389.061 118.178Z" fill="black"/>
<path d="M371.823 118.178H365.868C365.378 118.178 364.982 118.576 364.982 119.067C364.982 119.558 365.378 119.955 365.868 119.955H371.823C372.313 119.955 372.71 119.558 372.71 119.067C372.71 118.576 372.313 118.178 371.823 118.178Z" fill="black"/>
<path d="M408.481 122.287V82.8885C408.481 82.3978 408.084 82 407.594 82H365.576C365.086 82 364.689 82.3976 364.689 82.8885V87.5968H359.886C359.397 87.5968 359 87.9944 359 88.4853V135.057C359 135.548 359.397 135.946 359.886 135.946H392.417C394.195 139.53 397.887 142 402.144 142C408.13 142 413 137.118 413 131.118C413 127.486 411.216 124.265 408.481 122.287L408.481 122.287ZM366.462 83.777H406.708V121.245C405.574 120.716 404.335 120.378 403.031 120.272V88.4851C403.031 87.9944 402.634 87.5966 402.144 87.5966H366.462V83.777ZM360.773 134.168V89.3736H401.258V120.272C395.685 120.725 391.288 125.416 391.288 131.118C391.288 132.177 391.441 133.2 391.723 134.168H360.773ZM402.144 140.223C397.136 140.223 393.061 136.138 393.061 131.118C393.061 126.097 397.136 122.012 402.144 122.012C407.153 122.012 411.228 126.097 411.228 131.118C411.228 136.139 407.153 140.223 402.144 140.223Z" fill="black"/>
<path d="M407.071 130.876L403.031 133.839V124.53C403.031 124.039 402.634 123.642 402.144 123.642C401.655 123.642 401.258 124.039 401.258 124.53V133.839L397.217 130.876C396.823 130.586 396.267 130.672 395.979 131.068C395.69 131.464 395.776 132.02 396.171 132.31L401.621 136.307C401.777 136.421 401.961 136.479 402.144 136.479C402.328 136.479 402.512 136.421 402.668 136.307L408.118 132.31C408.513 132.02 408.599 131.464 408.31 131.068C408.021 130.672 407.466 130.587 407.071 130.876Z" fill="black"/>
</g>
<circle cx="385.31" cy="23.3104" r="8.31045" fill="black"/>
<path d="M384.354 20.7642C384.183 20.9933 384.1 21.2995 384.107 21.6826H382.679C382.693 21.2959 382.759 20.9289 382.877 20.5815C383.003 20.2772 383.2 19.9961 383.468 19.7383C383.669 19.5557 383.907 19.416 384.183 19.3193C384.458 19.2227 384.797 19.1743 385.198 19.1743C385.942 19.1743 386.542 19.3677 386.997 19.7544C387.455 20.1375 387.684 20.6532 387.684 21.3013C387.684 21.7596 387.548 22.1463 387.276 22.4614C387.104 22.6584 386.925 22.7926 386.739 22.8643C386.879 22.8643 387.079 22.9842 387.341 23.2241C387.731 23.5858 387.926 24.0799 387.926 24.7065C387.926 25.3654 387.697 25.9455 387.239 26.4468C386.784 26.9445 386.109 27.1934 385.214 27.1934C384.111 27.1934 383.345 26.8335 382.915 26.1138C382.689 25.7306 382.564 25.2293 382.539 24.6099H384.043C384.043 24.9214 384.093 25.1792 384.193 25.3833C384.379 25.7593 384.718 25.9473 385.208 25.9473C385.509 25.9473 385.771 25.8452 385.993 25.6411C386.218 25.4334 386.331 25.1362 386.331 24.7495C386.331 24.2375 386.123 23.8955 385.708 23.7236C385.472 23.627 385.099 23.5786 384.591 23.5786V22.4829C385.088 22.4757 385.436 22.4274 385.633 22.3379C385.973 22.1875 386.143 21.8831 386.143 21.4248C386.143 21.1276 386.055 20.8859 385.88 20.6997C385.708 20.5135 385.464 20.4204 385.149 20.4204C384.788 20.4204 384.523 20.535 384.354 20.7642Z" fill="white"/>
<rect x="161" y="23.3672" width="145" height="150" rx="8" fill="#F6F6F6"/>
<path d="M196.336 49.3672H194.654V40.7305H197.279L198.849 47.5215L200.408 40.7305H203.004V49.3672H201.322V43.5254C201.322 43.3574 201.324 43.123 201.328 42.8223C201.332 42.5176 201.334 42.2832 201.334 42.1191L199.699 49.3672H197.947L196.324 42.1191C196.324 42.2832 196.326 42.5176 196.33 42.8223C196.334 43.123 196.336 43.3574 196.336 43.5254V49.3672ZM204.545 43.6719C204.986 43.1094 205.744 42.8281 206.818 42.8281C207.517 42.8281 208.139 42.9668 208.682 43.2441C209.225 43.5215 209.496 44.0449 209.496 44.8145V47.7441C209.496 47.9473 209.5 48.1934 209.508 48.4824C209.519 48.7012 209.553 48.8496 209.607 48.9277C209.662 49.0059 209.744 49.0703 209.853 49.1211V49.3672H208.037C207.986 49.2383 207.951 49.1172 207.932 49.0039C207.912 48.8906 207.896 48.7617 207.885 48.6172C207.654 48.8672 207.389 49.0801 207.088 49.2559C206.728 49.4629 206.322 49.5664 205.869 49.5664C205.291 49.5664 204.812 49.4023 204.434 49.0742C204.059 48.7422 203.871 48.2734 203.871 47.668C203.871 46.8828 204.174 46.3145 204.779 45.9629C205.111 45.7715 205.6 45.6348 206.244 45.5527L206.812 45.4824C207.121 45.4434 207.342 45.3945 207.475 45.3359C207.713 45.2344 207.832 45.0762 207.832 44.8613C207.832 44.5996 207.74 44.4199 207.557 44.3223C207.377 44.2207 207.111 44.1699 206.76 44.1699C206.365 44.1699 206.086 44.2676 205.922 44.4629C205.805 44.6074 205.726 44.8027 205.687 45.0488H204.076C204.111 44.4902 204.267 44.0312 204.545 43.6719ZM205.787 48.1602C205.943 48.2891 206.135 48.3535 206.361 48.3535C206.721 48.3535 207.051 48.248 207.351 48.0371C207.656 47.8262 207.814 47.4414 207.826 46.8828V46.2617C207.721 46.3281 207.613 46.3828 207.504 46.4258C207.398 46.4648 207.252 46.502 207.064 46.5371L206.689 46.6074C206.338 46.6699 206.086 46.7461 205.934 46.8359C205.676 46.9883 205.547 47.2246 205.547 47.5449C205.547 47.8301 205.627 48.0352 205.787 48.1602ZM216.094 43.666C216.61 44.2168 216.867 45.0254 216.867 46.0918C216.867 47.2168 216.613 48.0742 216.106 48.6641C215.602 49.2539 214.951 49.5488 214.154 49.5488C213.647 49.5488 213.225 49.4219 212.889 49.168C212.705 49.0273 212.526 48.8223 212.35 48.5527V51.8809H210.697V42.9805H212.297V43.9238C212.477 43.6465 212.668 43.4277 212.871 43.2676C213.242 42.9824 213.684 42.8398 214.195 42.8398C214.942 42.8398 215.574 43.1152 216.094 43.666ZM215.145 46.1738C215.145 45.6816 215.031 45.2461 214.805 44.8672C214.582 44.4883 214.219 44.2988 213.715 44.2988C213.11 44.2988 212.694 44.5859 212.467 45.1602C212.35 45.4648 212.291 45.8516 212.291 46.3203C212.291 47.0625 212.488 47.584 212.883 47.8848C213.117 48.0605 213.395 48.1484 213.715 48.1484C214.18 48.1484 214.533 47.9688 214.776 47.6094C215.022 47.25 215.145 46.7715 215.145 46.1738ZM226.29 43.666C226.805 44.2168 227.063 45.0254 227.063 46.0918C227.063 47.2168 226.809 48.0742 226.301 48.6641C225.798 49.2539 225.147 49.5488 224.35 49.5488C223.842 49.5488 223.421 49.4219 223.085 49.168C222.901 49.0273 222.721 48.8223 222.546 48.5527V51.8809H220.893V42.9805H222.493V43.9238C222.673 43.6465 222.864 43.4277 223.067 43.2676C223.438 42.9824 223.88 42.8398 224.391 42.8398C225.137 42.8398 225.77 43.1152 226.29 43.666ZM225.34 46.1738C225.34 45.6816 225.227 45.2461 225.001 44.8672C224.778 44.4883 224.415 44.2988 223.911 44.2988C223.305 44.2988 222.889 44.5859 222.663 45.1602C222.546 45.4648 222.487 45.8516 222.487 46.3203C222.487 47.0625 222.684 47.584 223.079 47.8848C223.313 48.0605 223.59 48.1484 223.911 48.1484C224.376 48.1484 224.729 47.9688 224.971 47.6094C225.217 47.25 225.34 46.7715 225.34 46.1738ZM228.276 43.6719C228.718 43.1094 229.475 42.8281 230.55 42.8281C231.249 42.8281 231.87 42.9668 232.413 43.2441C232.956 43.5215 233.227 44.0449 233.227 44.8145V47.7441C233.227 47.9473 233.231 48.1934 233.239 48.4824C233.251 48.7012 233.284 48.8496 233.339 48.9277C233.393 49.0059 233.475 49.0703 233.585 49.1211V49.3672H231.768C231.718 49.2383 231.682 49.1172 231.663 49.0039C231.643 48.8906 231.628 48.7617 231.616 48.6172C231.386 48.8672 231.12 49.0801 230.819 49.2559C230.46 49.4629 230.054 49.5664 229.6 49.5664C229.022 49.5664 228.544 49.4023 228.165 49.0742C227.79 48.7422 227.602 48.2734 227.602 47.668C227.602 46.8828 227.905 46.3145 228.511 45.9629C228.843 45.7715 229.331 45.6348 229.975 45.5527L230.544 45.4824C230.852 45.4434 231.073 45.3945 231.206 45.3359C231.444 45.2344 231.563 45.0762 231.563 44.8613C231.563 44.5996 231.472 44.4199 231.288 44.3223C231.108 44.2207 230.843 44.1699 230.491 44.1699C230.097 44.1699 229.817 44.2676 229.653 44.4629C229.536 44.6074 229.458 44.8027 229.419 45.0488H227.807C227.843 44.4902 227.999 44.0313 228.276 43.6719ZM229.518 48.1602C229.675 48.2891 229.866 48.3535 230.093 48.3535C230.452 48.3535 230.782 48.248 231.083 48.0371C231.388 47.8262 231.546 47.4414 231.557 46.8828V46.2617C231.452 46.3281 231.345 46.3828 231.235 46.4258C231.13 46.4648 230.983 46.502 230.796 46.5371L230.421 46.6074C230.069 46.6699 229.817 46.7461 229.665 46.8359C229.407 46.9883 229.278 47.2246 229.278 47.5449C229.278 47.8301 229.358 48.0352 229.518 48.1602ZM240.001 45.2715H238.29C238.259 45.0332 238.179 44.8184 238.05 44.627C237.862 44.3691 237.571 44.2402 237.177 44.2402C236.614 44.2402 236.23 44.5195 236.023 45.0781C235.913 45.375 235.859 45.7695 235.859 46.2617C235.859 46.7305 235.913 47.1074 236.023 47.3926C236.222 47.9238 236.597 48.1895 237.148 48.1895C237.538 48.1895 237.816 48.084 237.98 47.873C238.144 47.6621 238.243 47.3887 238.278 47.0527H239.984C239.944 47.5605 239.761 48.041 239.433 48.4941C238.909 49.2246 238.134 49.5898 237.107 49.5898C236.079 49.5898 235.323 49.2852 234.839 48.6758C234.355 48.0664 234.112 47.2754 234.112 46.3027C234.112 45.2051 234.38 44.3516 234.915 43.7422C235.45 43.1328 236.189 42.8281 237.13 42.8281C237.931 42.8281 238.585 43.0078 239.093 43.3672C239.605 43.7266 239.907 44.3613 240.001 45.2715ZM246.775 49.3672H244.759L243.23 46.6367L242.538 47.3574V49.3672H240.898V40.7598H242.538V45.4121L244.619 43.0098H246.687L244.454 45.4531L246.775 49.3672ZM247.595 43.6719C248.037 43.1094 248.795 42.8281 249.869 42.8281C250.568 42.8281 251.189 42.9668 251.732 43.2441C252.275 43.5215 252.546 44.0449 252.546 44.8145V47.7441C252.546 47.9473 252.55 48.1934 252.558 48.4824C252.57 48.7012 252.603 48.8496 252.658 48.9277C252.713 49.0059 252.795 49.0703 252.904 49.1211V49.3672L251.088 49.3672C251.037 49.2383 251.002 49.1172 250.982 49.0039C250.963 48.8906 250.947 48.7617 250.935 48.6172C250.705 48.8672 250.439 49.0801 250.138 49.2559C249.779 49.4629 249.373 49.5664 248.92 49.5664C248.341 49.5664 247.863 49.4023 247.484 49.0742C247.109 48.7422 246.921 48.2734 246.921 47.668C246.921 46.8828 247.224 46.3145 247.83 45.9629C248.162 45.7715 248.65 45.6348 249.295 45.5527L249.863 45.4824C250.171 45.4434 250.392 45.3945 250.525 45.3359C250.763 45.2344 250.882 45.0762 250.882 44.8613C250.882 44.5996 250.791 44.4199 250.607 44.3223C250.427 44.2207 250.162 44.1699 249.81 44.1699C249.416 44.1699 249.136 44.2676 248.972 44.4629C248.855 44.6074 248.777 44.8027 248.738 45.0488H247.127C247.162 44.4902 247.318 44.0313 247.595 43.6719ZM248.838 48.1602C248.994 48.2891 249.185 48.3535 249.412 48.3535C249.771 48.3535 250.101 48.248 250.402 48.0371C250.707 47.8262 250.865 47.4414 250.877 46.8828V46.2617C250.771 46.3281 250.664 46.3828 250.554 46.4258C250.449 46.4648 250.302 46.502 250.115 46.5371L249.74 46.6074C249.388 46.6699 249.136 46.7461 248.984 46.8359C248.726 46.9883 248.597 47.2246 248.597 47.5449C248.597 47.8301 248.677 48.0352 248.838 48.1602ZM255.599 50.4863C255.779 50.6387 256.082 50.7148 256.508 50.7148C257.109 50.7148 257.512 50.5137 257.715 50.1113C257.847 49.8535 257.914 49.4199 257.914 48.8105V48.4004C257.754 48.6738 257.582 48.8789 257.398 49.0156C257.066 49.2695 256.635 49.3965 256.103 49.3965C255.283 49.3965 254.627 49.1094 254.135 48.5352C253.646 47.957 253.402 47.1758 253.402 46.1914C253.402 45.2422 253.639 44.4453 254.111 43.8008C254.584 43.1523 255.254 42.8281 256.121 42.8281C256.441 42.8281 256.721 42.877 256.959 42.9746C257.365 43.1426 257.693 43.4512 257.943 43.9004V42.9805H259.566V49.0391C259.566 49.8633 259.428 50.4844 259.15 50.9023C258.674 51.6211 257.76 51.9805 256.408 51.9805C255.592 51.9805 254.926 51.8203 254.41 51.5C253.894 51.1797 253.609 50.7012 253.555 50.0645H255.371C255.418 50.2598 255.494 50.4004 255.599 50.4863ZM255.318 47.1875C255.545 47.7266 255.951 47.9961 256.537 47.9961C256.928 47.9961 257.258 47.8496 257.527 47.5566C257.797 47.2598 257.931 46.7891 257.931 46.1445C257.931 45.5391 257.803 45.0781 257.545 44.7617C257.291 44.4453 256.949 44.2871 256.519 44.2871C255.933 44.2871 255.529 44.5625 255.306 45.1133C255.189 45.4063 255.131 45.7676 255.131 46.1973C255.131 46.5684 255.193 46.8984 255.318 47.1875ZM266.357 47.4922C266.315 47.8711 266.117 48.2559 265.766 48.6465C265.219 49.2676 264.453 49.5781 263.469 49.5781C262.656 49.5781 261.94 49.3164 261.318 48.793C260.697 48.2695 260.387 47.418 260.387 46.2383C260.387 45.1328 260.666 44.2852 261.225 43.6953C261.787 43.1055 262.516 42.8105 263.41 42.8105C263.941 42.8105 264.42 42.9102 264.846 43.1094C265.272 43.3086 265.623 43.623 265.9 44.0527C266.15 44.4316 266.313 44.8711 266.387 45.3711C266.43 45.6641 266.447 46.0859 266.44 46.6367H262.068C262.092 47.2773 262.293 47.7266 262.672 47.9844C262.902 48.1445 263.18 48.2246 263.504 48.2246C263.848 48.2246 264.127 48.127 264.342 47.9316C264.459 47.8262 264.563 47.6797 264.652 47.4922H266.357ZM264.705 45.5352C264.678 45.0938 264.543 44.7598 264.301 44.5332C264.063 44.3027 263.766 44.1875 263.41 44.1875C263.024 44.1875 262.723 44.3086 262.508 44.5508C262.297 44.793 262.164 45.1211 262.109 45.5352H264.705ZM271.731 43.2734C272.231 43.5938 272.518 44.1445 272.592 44.9258H270.922C270.899 44.7109 270.838 44.541 270.741 44.416C270.557 44.1895 270.244 44.0762 269.803 44.0762C269.44 44.0762 269.18 44.1328 269.024 44.2461C268.871 44.3594 268.795 44.4922 268.795 44.6445C268.795 44.8359 268.877 44.9746 269.041 45.0605C269.205 45.1504 269.785 45.3047 270.782 45.5234C271.446 45.6797 271.944 45.916 272.276 46.2324C272.604 46.5527 272.768 46.9531 272.768 47.4336C272.768 48.0664 272.532 48.584 272.059 48.9863C271.59 49.3848 270.864 49.584 269.879 49.584C268.875 49.584 268.133 49.373 267.653 48.9512C267.176 48.5254 266.938 47.9844 266.938 47.3281H268.631C268.666 47.625 268.743 47.8359 268.86 47.9609C269.067 48.1836 269.45 48.2949 270.008 48.2949C270.336 48.2949 270.596 48.2461 270.787 48.1484C270.983 48.0508 271.08 47.9043 271.08 47.709C271.08 47.5215 271.002 47.3789 270.846 47.2813C270.69 47.1836 270.11 47.0156 269.106 46.7773C268.383 46.5977 267.873 46.373 267.576 46.1035C267.28 45.8379 267.131 45.4551 267.131 44.9551C267.131 44.3652 267.362 43.8594 267.823 43.4375C268.287 43.0117 268.94 42.7988 269.78 42.7988C270.576 42.7988 271.227 42.957 271.731 43.2734Z" fill="black"/>
<g clip-path="url(#clip1_95_332)">
<path d="M223.693 132.201L204 140V102.042L223.693 94.4719V132.201Z" fill="#8BC34A"/>
<path d="M260.25 132.201L240.544 140V102.042L260.25 94.4719V132.201Z" fill="#8BC34A"/>
<path d="M223.693 132.201L240.544 140V102.042L223.693 94.4719V132.201Z" fill="#77A646"/>
<path d="M223.624 96.8007L239.58 103.967L240.544 104.383L241.388 104.022L258.004 97.6371V130.781L240.62 137.665L224.683 130.288L223.769 129.867L222.83 130.24L206.246 136.805V103.48L223.624 96.8007ZM260.25 94.4719L240.544 102.042L223.693 94.4719L204 102.042V140L223.693 132.201L240.544 140L260.25 132.201V94.4719Z" fill="#E1E1E1"/>
<path d="M246.089 118.825V102.216L243.311 103.288V119.896L240.538 120.961L223.706 113.403L206.246 120.106V123.837L223.693 117.134L240.544 124.692L258.004 118.054V114.233L246.089 118.825Z" fill="#FFEB3B"/>
<path d="M240.544 120.961H240.538L223.706 113.403L223.693 113.409V117.134L227.874 119.005V131.762L230.66 133.05V120.251L240.544 124.692V120.961Z" fill="#F2C732"/>
<path d="M240.544 137.665L230.66 133.05V120.251L240.544 124.692V137.665Z" fill="#03A9F4"/>
<path d="M240.544 137.665L258.004 130.781V118.054L240.544 124.692V137.665Z" fill="#35BAF6"/>
<path d="M244.338 112.278H244.224L244.25 109.871H244.332C245.506 109.871 246.794 109.672 248.183 109.281L248.906 111.586C247.263 112.049 245.772 112.272 244.345 112.272L244.338 112.278ZM241.452 111.935C239.643 111.489 238.203 110.647 237.15 109.967L238.578 107.981C239.517 108.589 240.665 109.257 242.092 109.606L241.452 111.935ZM221.568 109.034C220.604 109.034 219.519 108.92 218.262 108.679L218.757 106.32C220.388 106.627 221.619 106.705 222.659 106.555L223.04 108.932C222.57 108.998 222.088 109.034 221.568 109.034ZM235.107 108.589C233.933 107.819 232.912 107.277 231.719 107.127L232.049 104.738C233.851 104.96 235.278 105.767 236.56 106.603L235.113 108.583L235.107 108.589ZM225.73 108.126L224.702 105.923L224.873 105.851C225.965 105.388 227.202 104.864 229.296 104.714L229.492 107.115C227.836 107.235 226.904 107.632 225.914 108.053L225.736 108.126H225.73Z" fill="#3F5356"/>
<path d="M214.151 108.751C215.553 108.751 216.689 107.674 216.689 106.344C216.689 105.015 215.553 103.937 214.151 103.937C212.75 103.937 211.613 105.015 211.613 106.344C211.613 107.674 212.75 108.751 214.151 108.751Z" fill="#3F5356"/>
<path d="M252.948 111.158C254.349 111.158 255.486 110.081 255.486 108.751C255.486 107.422 254.349 106.344 252.948 106.344C251.546 106.344 250.41 107.422 250.41 108.751C250.41 110.081 251.546 111.158 252.948 111.158Z" fill="#3F5356"/>
<path d="M252.98 108.276C252.98 108.276 260.136 101.404 262.909 94.9774C263.6 93.6114 264 92.083 264 90.4643C264 90.4222 264 90.3801 263.994 90.3319C263.994 89.8626 264.013 89.8325 263.981 90.1153C263.784 84.501 258.943 80.006 252.986 80.006C247.028 80.006 241.966 84.6876 241.966 90.4643C241.966 90.4824 241.966 90.5004 241.966 90.5185C241.966 90.7712 241.985 91.036 242.01 91.2947C242.118 92.5825 242.473 93.798 243.025 94.9112C245.785 101.344 252.973 108.27 252.973 108.27L252.98 108.276Z" fill="#F44336"/>
<path d="M256.228 90.4583C256.228 92.1553 254.775 93.5333 252.986 93.5333C251.197 93.5333 249.744 92.1553 249.744 90.4583C249.744 88.7614 251.197 87.3834 252.986 87.3834C254.775 87.3834 256.228 88.7614 256.228 90.4583Z" fill="#D03D32"/>
<path d="M221.244 95.4648C221.257 95.3144 221.27 95.1579 221.27 95.0075C221.27 94.9834 221.27 94.9533 221.27 94.9293C221.27 94.6284 221.282 94.6043 221.263 94.7848C221.137 91.1984 218.047 88.3281 214.24 88.3281C210.433 88.3281 207.204 91.3188 207.204 95.0075C207.204 95.0195 207.204 95.0316 207.204 95.0436C207.204 95.2061 207.217 95.3746 207.229 95.543C207.299 96.3674 207.528 97.1437 207.876 97.8537C209.64 101.964 214.227 106.38 214.227 106.38C214.227 106.38 218.802 101.994 220.572 97.8838C220.946 97.1437 221.181 96.3374 221.244 95.4769C221.244 95.4769 221.244 95.4648 221.244 95.4588V95.4648Z" fill="#2196F3"/>
<path d="M216.302 95.0075C216.302 96.0906 215.376 96.9692 214.234 96.9692C213.092 96.9692 212.165 96.0906 212.165 95.0075C212.165 93.9243 213.092 93.0458 214.234 93.0458C215.376 93.0458 216.302 93.9243 216.302 95.0075Z" fill="#207FDC"/>
</g>
<circle cx="233.31" cy="23.3104" r="8.31045" fill="black"/>
<path d="M234.073 20.7964C233.891 20.578 233.629 20.4688 233.289 20.4688C232.823 20.4688 232.507 20.6424 232.338 20.9897C232.242 21.1903 232.184 21.509 232.166 21.9458H230.679C230.704 21.2834 230.824 20.748 231.038 20.3398C231.447 19.5628 232.172 19.1743 233.214 19.1743C234.037 19.1743 234.693 19.4035 235.18 19.8618C235.667 20.3166 235.91 20.9199 235.91 21.6719C235.91 22.2484 235.738 22.7604 235.394 23.208C235.169 23.5052 234.798 23.8364 234.283 24.2017L233.67 24.6367C233.287 24.9089 233.024 25.1058 232.881 25.2275C232.741 25.3493 232.623 25.4907 232.526 25.6519H235.926V27H230.593C230.607 26.4414 230.727 25.9312 230.953 25.4692C231.171 24.95 231.687 24.4004 232.499 23.8203C233.205 23.3154 233.661 22.9538 233.869 22.7354C234.188 22.3952 234.347 22.0228 234.347 21.6182C234.347 21.2887 234.256 21.0148 234.073 20.7964Z" fill="white"/>
<rect x="9" y="23.3672" width="145" height="150" rx="8" fill="#F6F6F6"/>
<path d="M38.173 40.7305H39.966V49.3672H38.173V40.7305ZM44.2846 44.2168C43.7182 44.2168 43.3295 44.457 43.1186 44.9375C43.0092 45.1914 42.9545 45.5156 42.9545 45.9102V49.3672H41.2905V42.9922H42.9018V43.9238C43.1166 43.5957 43.3198 43.3594 43.5112 43.2148C43.8549 42.957 44.2905 42.8281 44.8178 42.8281C45.478 42.8281 46.017 43.002 46.435 43.3496C46.8569 43.6934 47.0678 44.2656 47.0678 45.0664V49.3672H45.3569V45.4824C45.3569 45.1465 45.312 44.8887 45.2221 44.709C45.058 44.3809 44.7455 44.2168 44.2846 44.2168ZM52.7751 43.2734C53.2751 43.5938 53.5622 44.1445 53.6364 44.9258H51.9665C51.943 44.7109 51.8825 44.541 51.7848 44.416C51.6012 44.1895 51.2887 44.0762 50.8473 44.0762C50.4841 44.0762 50.2243 44.1328 50.068 44.2461C49.9157 44.3594 49.8395 44.4922 49.8395 44.6445C49.8395 44.8359 49.9216 44.9746 50.0856 45.0605C50.2497 45.1504 50.8298 45.3047 51.8259 45.5234C52.4899 45.6797 52.988 45.916 53.32 46.2324C53.6481 46.5527 53.8122 46.9531 53.8122 47.4336C53.8122 48.0664 53.5759 48.584 53.1032 48.9863C52.6345 49.3848 51.9079 49.584 50.9235 49.584C49.9196 49.584 49.1774 49.373 48.697 48.9512C48.2204 48.5254 47.9821 47.9844 47.9821 47.3281H49.6755C49.7106 47.625 49.7868 47.8359 49.904 47.9609C50.111 48.1836 50.4938 48.2949 51.0524 48.2949C51.3805 48.2949 51.6403 48.2461 51.8317 48.1484C52.027 48.0508 52.1247 47.9043 52.1247 47.709C52.1247 47.5215 52.0466 47.3789 51.8903 47.2812C51.7341 47.1836 51.154 47.0156 50.1501 46.7773C49.4274 46.5977 48.9177 46.373 48.6208 46.1035C48.3239 45.8379 48.1755 45.4551 48.1755 44.9551C48.1755 44.3652 48.4059 43.8594 48.8669 43.4375C49.3317 43.0117 49.9841 42.7988 50.8239 42.7988C51.6208 42.7988 52.2712 42.957 52.7751 43.2734ZM57.7382 48.1777V49.4258L56.9472 49.4551C56.1581 49.4824 55.6191 49.3457 55.33 49.0449C55.1425 48.8535 55.0487 48.5586 55.0487 48.1602V44.2285H54.1581V43.0391H55.0487V41.2578H56.7011V43.0391H57.7382V44.2285H56.7011V47.6035C56.7011 47.8652 56.7343 48.0293 56.8007 48.0957C56.8671 48.1582 57.0702 48.1895 57.4101 48.1895C57.4609 48.1895 57.5136 48.1895 57.5683 48.1895C57.6269 48.1855 57.6835 48.1816 57.7382 48.1777ZM58.8107 43.6719C59.2521 43.1094 60.0099 42.8281 61.0841 42.8281C61.7834 42.8281 62.4045 42.9668 62.9474 43.2441C63.4904 43.5215 63.7619 44.0449 63.7619 44.8145V47.7441C63.7619 47.9473 63.7658 48.1934 63.7736 48.4824C63.7853 48.7012 63.8185 48.8496 63.8732 48.9277C63.9279 49.0059 64.0099 49.0703 64.1193 49.1211V49.3672H62.3029C62.2521 49.2383 62.217 49.1172 62.1974 49.0039C62.1779 48.8906 62.1623 48.7617 62.1505 48.6172C61.9201 48.8672 61.6545 49.0801 61.3537 49.2559C60.9943 49.4629 60.588 49.5664 60.1349 49.5664C59.5568 49.5664 59.0783 49.4023 58.6994 49.0742C58.3244 48.7422 58.1369 48.2734 58.1369 47.668C58.1369 46.8828 58.4396 46.3145 59.0451 45.9629C59.3771 45.7715 59.8654 45.6348 60.5099 45.5527L61.0783 45.4824C61.3869 45.4434 61.6076 45.3945 61.7404 45.3359C61.9787 45.2344 62.0978 45.0762 62.0978 44.8613C62.0978 44.5996 62.006 44.4199 61.8224 44.3223C61.6427 44.2207 61.3771 44.1699 61.0255 44.1699C60.631 44.1699 60.3517 44.2676 60.1877 44.4629C60.0705 44.6074 59.9923 44.8027 59.9533 45.0488H58.342C58.3771 44.4902 58.5334 44.0312 58.8107 43.6719ZM60.0529 48.1602C60.2091 48.2891 60.4005 48.3535 60.6271 48.3535C60.9865 48.3535 61.3166 48.248 61.6173 48.0371C61.922 47.8262 62.0802 47.4414 62.092 46.8828V46.2617C61.9865 46.3281 61.8791 46.3828 61.7697 46.4258C61.6642 46.4648 61.5177 46.502 61.3302 46.5371L60.9552 46.6074C60.6037 46.6699 60.3517 46.7461 60.1994 46.8359C59.9416 46.9883 59.8127 47.2246 59.8127 47.5449C59.8127 47.8301 59.8927 48.0352 60.0529 48.1602ZM65.0453 40.7305H66.7152V49.3672H65.0453V40.7305ZM68.1452 40.7305H69.8151V49.3672H68.1452V40.7305ZM79.6593 43.666C80.1749 44.2168 80.4327 45.0254 80.4327 46.0918C80.4327 47.2168 80.1788 48.0742 79.671 48.6641C79.1671 49.2539 78.5167 49.5488 77.7198 49.5488C77.212 49.5488 76.7902 49.4219 76.4542 49.168C76.2706 49.0273 76.0909 48.8223 75.9152 48.5527V51.8809H74.2628V42.9805H75.8624V43.9238C76.0421 43.6465 76.2335 43.4277 76.4366 43.2676C76.8077 42.9824 77.2491 42.8398 77.7609 42.8398C78.507 42.8398 79.1398 43.1152 79.6593 43.666ZM78.7101 46.1738C78.7101 45.6816 78.5968 45.2461 78.3702 44.8672C78.1476 44.4883 77.7843 44.2988 77.2804 44.2988C76.6749 44.2988 76.2589 44.5859 76.0323 45.1602C75.9152 45.4648 75.8566 45.8516 75.8566 46.3203C75.8566 47.0625 76.0538 47.584 76.4484 47.8848C76.6827 48.0605 76.9601 48.1484 77.2804 48.1484C77.7452 48.1484 78.0988 47.9688 78.3409 47.6094C78.587 47.25 78.7101 46.7715 78.7101 46.1738ZM81.6459 43.6719C82.0873 43.1094 82.8451 42.8281 83.9193 42.8281C84.6185 42.8281 85.2396 42.9668 85.7826 43.2441C86.3255 43.5215 86.597 44.0449 86.597 44.8145V47.7441C86.597 47.9473 86.6009 48.1934 86.6087 48.4824C86.6205 48.7012 86.6537 48.8496 86.7084 48.9277C86.763 49.0059 86.8451 49.0703 86.9545 49.1211V49.3672H85.138C85.0873 49.2383 85.0521 49.1172 85.0326 49.0039C85.013 48.8906 84.9974 48.7617 84.9857 48.6172C84.7552 48.8672 84.4896 49.0801 84.1888 49.2559C83.8295 49.4629 83.4232 49.5664 82.9701 49.5664C82.392 49.5664 81.9134 49.4023 81.5345 49.0742C81.1595 48.7422 80.972 48.2734 80.972 47.668C80.972 46.8828 81.2748 46.3145 81.8802 45.9629C82.2123 45.7715 82.7005 45.6348 83.3451 45.5527L83.9134 45.4824C84.222 45.4434 84.4427 45.3945 84.5755 45.3359C84.8138 45.2344 84.933 45.0762 84.933 44.8613C84.933 44.5996 84.8412 44.4199 84.6576 44.3223C84.4779 44.2207 84.2123 44.1699 83.8607 44.1699C83.4662 44.1699 83.1869 44.2676 83.0228 44.4629C82.9056 44.6074 82.8275 44.8027 82.7884 45.0488H81.1771C81.2123 44.4902 81.3685 44.0313 81.6459 43.6719ZM82.888 48.1602C83.0443 48.2891 83.2357 48.3535 83.4623 48.3535C83.8216 48.3535 84.1517 48.248 84.4525 48.0371C84.7572 47.8262 84.9154 47.4414 84.9271 46.8828V46.2617C84.8216 46.3281 84.7142 46.3828 84.6048 46.4258C84.4994 46.4648 84.3529 46.502 84.1654 46.5371L83.7904 46.6074C83.4388 46.6699 83.1869 46.7461 83.0345 46.8359C82.7767 46.9883 82.6478 47.2246 82.6478 47.5449C82.6478 47.8301 82.7279 48.0352 82.888 48.1602ZM93.3707 45.2715H91.6598C91.6285 45.0332 91.5484 44.8184 91.4195 44.627C91.232 44.3691 90.941 44.2402 90.5465 44.2402C89.984 44.2402 89.5992 44.5195 89.3922 45.0781C89.2828 45.375 89.2281 45.7695 89.2281 46.2617C89.2281 46.7305 89.2828 47.1074 89.3922 47.3926C89.5914 47.9238 89.9664 48.1895 90.5172 48.1895C90.9078 48.1895 91.1852 48.084 91.3492 47.873C91.5133 47.6621 91.6129 47.3887 91.648 47.0527H93.3531C93.3141 47.5605 93.1305 48.041 92.8023 48.4941C92.2789 49.2246 91.5035 49.5898 90.4762 49.5898C89.4488 49.5898 88.693 49.2852 88.2086 48.6758C87.7242 48.0664 87.482 47.2754 87.482 46.3027C87.482 45.2051 87.7496 44.3516 88.2848 43.7422C88.8199 43.1328 89.5582 42.8281 90.4996 42.8281C91.3004 42.8281 91.9547 43.0078 92.4625 43.3672C92.9742 43.7266 93.277 44.3613 93.3707 45.2715ZM100.144 49.3672H98.1287L96.5995 46.6367L95.908 47.3574V49.3672H94.2674V40.7598H95.908V45.4121L97.9881 43.0098H100.056L97.8241 45.4531L100.144 49.3672ZM100.965 43.6719C101.406 43.1094 102.164 42.8281 103.238 42.8281C103.938 42.8281 104.559 42.9668 105.102 43.2441C105.645 43.5215 105.916 44.0449 105.916 44.8145V47.7441C105.916 47.9473 105.92 48.1934 105.928 48.4824C105.94 48.7012 105.973 48.8496 106.027 48.9277C106.082 49.0059 106.164 49.0703 106.274 49.1211V49.3672H104.457C104.406 49.2383 104.371 49.1172 104.352 49.0039C104.332 48.8906 104.316 48.7617 104.305 48.6172C104.074 48.8672 103.809 49.0801 103.508 49.2559C103.149 49.4629 102.742 49.5664 102.289 49.5664C101.711 49.5664 101.232 49.4023 100.854 49.0742C100.479 48.7422 100.291 48.2734 100.291 47.668C100.291 46.8828 100.594 46.3145 101.199 45.9629C101.531 45.7715 102.02 45.6348 102.664 45.5527L103.232 45.4824C103.541 45.4434 103.762 45.3945 103.895 45.3359C104.133 45.2344 104.252 45.0762 104.252 44.8613C104.252 44.5996 104.16 44.4199 103.977 44.3223C103.797 44.2207 103.531 44.1699 103.18 44.1699C102.785 44.1699 102.506 44.2676 102.342 44.4629C102.225 44.6074 102.147 44.8027 102.107 45.0488L100.496 45.0488C100.531 44.4902 100.688 44.0313 100.965 43.6719ZM102.207 48.1602C102.363 48.2891 102.555 48.3535 102.781 48.3535C103.141 48.3535 103.471 48.248 103.772 48.0371C104.076 47.8262 104.234 47.4414 104.246 46.8828V46.2617C104.141 46.3281 104.033 46.3828 103.924 46.4258C103.818 46.4648 103.672 46.502 103.484 46.5371L103.109 46.6074C102.758 46.6699 102.506 46.7461 102.354 46.8359C102.096 46.9883 101.967 47.2246 101.967 47.5449C101.967 47.8301 102.047 48.0352 102.207 48.1602ZM108.969 50.4863C109.149 50.6387 109.451 50.7148 109.877 50.7148C110.479 50.7148 110.881 50.5137 111.084 50.1113C111.217 49.8535 111.284 49.4199 111.284 48.8105V48.4004C111.123 48.6738 110.951 48.8789 110.768 49.0156C110.436 49.2695 110.004 49.3965 109.473 49.3965C108.653 49.3965 107.996 49.1094 107.504 48.5352C107.016 47.957 106.772 47.1758 106.772 46.1914C106.772 45.2422 107.008 44.4453 107.481 43.8008C107.953 43.1523 108.623 42.8281 109.491 42.8281C109.811 42.8281 110.09 42.877 110.328 42.9746C110.735 43.1426 111.063 43.4512 111.313 43.9004V42.9805H112.936V49.0391C112.936 49.8633 112.797 50.4844 112.52 50.9023C112.043 51.6211 111.129 51.9805 109.778 51.9805C108.961 51.9805 108.295 51.8203 107.78 51.5C107.264 51.1797 106.979 50.7012 106.924 50.0645H108.741C108.787 50.2598 108.864 50.4004 108.969 50.4863ZM108.688 47.1875C108.914 47.7266 109.321 47.9961 109.907 47.9961C110.297 47.9961 110.627 47.8496 110.897 47.5566C111.166 47.2598 111.301 46.7891 111.301 46.1445C111.301 45.5391 111.172 45.0781 110.914 44.7617C110.66 44.4453 110.319 44.2871 109.889 44.2871C109.303 44.2871 108.899 44.5625 108.676 45.1133C108.559 45.4063 108.5 45.7676 108.5 46.1973C108.5 46.5684 108.563 46.8984 108.688 47.1875ZM119.727 47.4922C119.684 47.8711 119.487 48.2559 119.135 48.6465C118.588 49.2676 117.823 49.5781 116.838 49.5781C116.026 49.5781 115.309 49.3164 114.688 48.793C114.067 48.2695 113.756 47.418 113.756 46.2383C113.756 45.1328 114.036 44.2852 114.594 43.6953C115.157 43.1055 115.885 42.8105 116.78 42.8105C117.311 42.8105 117.79 42.9102 118.215 43.1094C118.641 43.3086 118.993 43.623 119.27 44.0527C119.52 44.4316 119.682 44.8711 119.756 45.3711C119.799 45.6641 119.817 46.0859 119.809 46.6367H115.438C115.461 47.2773 115.663 47.7266 116.042 47.9844C116.272 48.1445 116.549 48.2246 116.874 48.2246C117.217 48.2246 117.497 48.127 117.711 47.9316C117.829 47.8262 117.932 47.6797 118.022 47.4922H119.727ZM118.075 45.5352C118.047 45.0938 117.913 44.7598 117.67 44.5332C117.432 44.3027 117.135 44.1875 116.78 44.1875C116.393 44.1875 116.092 44.3086 115.878 44.5508C115.667 44.793 115.534 45.1211 115.479 45.5352H118.075ZM125.1 43.2734C125.6 43.5938 125.887 44.1445 125.962 44.9258H124.292C124.268 44.7109 124.208 44.541 124.11 44.416C123.927 44.1895 123.614 44.0762 123.173 44.0762C122.809 44.0762 122.55 44.1328 122.393 44.2461C122.241 44.3594 122.165 44.4922 122.165 44.6445C122.165 44.8359 122.247 44.9746 122.411 45.0605C122.575 45.1504 123.155 45.3047 124.151 45.5234C124.815 45.6797 125.313 45.916 125.645 46.2324C125.973 46.5527 126.137 46.9531 126.137 47.4336C126.137 48.0664 125.901 48.584 125.429 48.9863C124.96 49.3848 124.233 49.584 123.249 49.584C122.245 49.584 121.503 49.373 121.022 48.9512C120.546 48.5254 120.307 47.9844 120.307 47.3281H122.001C122.036 47.625 122.112 47.8359 122.229 47.9609C122.436 48.1836 122.819 48.2949 123.378 48.2949C123.706 48.2949 123.966 48.2461 124.157 48.1484C124.352 48.0508 124.45 47.9043 124.45 47.709C124.45 47.5215 124.372 47.3789 124.216 47.2813C124.059 47.1836 123.479 47.0156 122.475 46.7773C121.753 46.5977 121.243 46.373 120.946 46.1035C120.649 45.8379 120.501 45.4551 120.501 44.9551C120.501 44.3652 120.731 43.8594 121.192 43.4375C121.657 43.0117 122.309 42.7988 123.149 42.7988C123.946 42.7988 124.596 42.957 125.1 43.2734Z" fill="black"/>
<g clip-path="url(#clip2_95_332)">
<path d="M51 140V80H111V140H51Z" fill="#C12127"/>
<path d="M62.25 91.25H99.75V128.75H92.25V98.75H81V128.75H62.25V91.25Z" fill="white"/>
</g>
<circle cx="81.3104" cy="23.3104" r="8.31045" fill="black"/>
<path d="M82.4115 27H80.8432V21.6289H79.0116V20.5869C79.495 20.5654 79.8334 20.5332 80.0268 20.4902C80.3347 20.4222 80.5854 20.2861 80.7787 20.082C80.9112 19.9424 81.0115 19.7562 81.0795 19.5234C81.1189 19.3838 81.1386 19.2799 81.1386 19.2119H82.4115V27Z" fill="white"/>
<rect x="769" y="23.3672" width="145" height="150" rx="8" fill="#F6F6F6"/>
<path d="M826.269 46.1118H824.405V49.4985H822.642V40.8618H826.878C827.484 40.8735 827.948 40.9478 828.273 41.0845C828.601 41.2212 828.878 41.4224 829.105 41.688C829.292 41.9067 829.441 42.1489 829.55 42.4146C829.659 42.6802 829.714 42.9829 829.714 43.3228C829.714 43.7329 829.61 44.1372 829.403 44.5356C829.196 44.9302 828.855 45.2095 828.378 45.3735C828.777 45.5337 829.058 45.7622 829.222 46.0591C829.39 46.3521 829.474 46.8013 829.474 47.4067V47.9868C829.474 48.3813 829.489 48.6489 829.521 48.7896C829.568 49.0122 829.677 49.1763 829.849 49.2817V49.4985H827.862C827.808 49.3071 827.769 49.1528 827.745 49.0356C827.698 48.7935 827.673 48.5454 827.669 48.2915L827.657 47.4888C827.65 46.938 827.548 46.5708 827.353 46.3872C827.161 46.2036 826.8 46.1118 826.269 46.1118ZM827.364 44.5415C827.724 44.3774 827.903 44.0532 827.903 43.5688C827.903 43.0454 827.73 42.6938 827.382 42.5142C827.187 42.4126 826.894 42.3618 826.503 42.3618H824.405V44.6821H826.45C826.857 44.6821 827.161 44.6353 827.364 44.5415ZM836.365 47.6235C836.322 48.0024 836.124 48.3872 835.773 48.7778C835.226 49.3989 834.46 49.7095 833.476 49.7095C832.663 49.7095 831.947 49.4478 831.326 48.9243C830.704 48.4009 830.394 47.5493 830.394 46.3696C830.394 45.2642 830.673 44.4165 831.232 43.8267C831.794 43.2368 832.523 42.9419 833.417 42.9419C833.949 42.9419 834.427 43.0415 834.853 43.2407C835.279 43.4399 835.63 43.7544 835.908 44.1841C836.158 44.563 836.32 45.0024 836.394 45.5024C836.437 45.7954 836.454 46.2173 836.447 46.7681L832.076 46.7681C832.099 47.4087 832.3 47.8579 832.679 48.1157C832.91 48.2759 833.187 48.356 833.511 48.356C833.855 48.356 834.134 48.2583 834.349 48.063C834.466 47.9575 834.57 47.811 834.66 47.6235H836.365ZM834.712 45.6665C834.685 45.2251 834.55 44.8911 834.308 44.6646C834.07 44.4341 833.773 44.3188 833.417 44.3188C833.031 44.3188 832.73 44.4399 832.515 44.6821C832.304 44.9243 832.171 45.2524 832.117 45.6665H834.712ZM840.343 44.3481C839.777 44.3481 839.388 44.5884 839.177 45.0688C839.068 45.3228 839.013 45.647 839.013 46.0415V49.4985H837.349V43.1235H838.961V44.0552C839.175 43.7271 839.379 43.4907 839.57 43.3462C839.914 43.0884 840.349 42.9595 840.877 42.9595C841.537 42.9595 842.076 43.1333 842.494 43.481C842.916 43.8247 843.127 44.397 843.127 45.1978V49.4985H841.416V45.6138C841.416 45.2778 841.371 45.02 841.281 44.8403C841.117 44.5122 840.804 44.3481 840.343 44.3481ZM850.246 40.8735V49.4985H848.623V48.6138C848.385 48.9927 848.113 49.2681 847.808 49.4399C847.504 49.6118 847.125 49.6978 846.672 49.6978C845.926 49.6978 845.297 49.397 844.785 48.7954C844.277 48.1899 844.023 47.4146 844.023 46.4692C844.023 45.3794 844.273 44.522 844.773 43.897C845.277 43.272 845.949 42.9595 846.789 42.9595C847.176 42.9595 847.519 43.0454 847.82 43.2173C848.121 43.3853 848.365 43.6196 848.553 43.9204V40.8735H850.246ZM845.746 46.3462C845.746 46.936 845.863 47.4067 846.098 47.7583C846.328 48.1138 846.68 48.2915 847.152 48.2915C847.625 48.2915 847.984 48.1157 848.23 47.7642C848.476 47.4126 848.599 46.9575 848.599 46.3989C848.599 45.6177 848.402 45.0591 848.008 44.7231C847.765 44.52 847.484 44.4185 847.164 44.4185C846.676 44.4185 846.316 44.604 846.086 44.9751C845.859 45.3423 845.746 45.7993 845.746 46.3462ZM856.996 47.6235C856.953 48.0024 856.756 48.3872 856.404 48.7778C855.858 49.3989 855.092 49.7095 854.108 49.7095C853.295 49.7095 852.578 49.4478 851.957 48.9243C851.336 48.4009 851.025 47.5493 851.025 46.3696C851.025 45.2642 851.305 44.4165 851.863 43.8267C852.426 43.2368 853.154 42.9419 854.049 42.9419C854.58 42.9419 855.059 43.0415 855.484 43.2407C855.91 43.4399 856.262 43.7544 856.539 44.1841C856.789 44.563 856.951 45.0024 857.025 45.5024C857.068 45.7954 857.086 46.2173 857.078 46.7681H852.707C852.731 47.4087 852.932 47.8579 853.311 48.1157C853.541 48.2759 853.818 48.356 854.143 48.356C854.486 48.356 854.766 48.2583 854.981 48.063C855.098 47.9575 855.201 47.811 855.291 47.6235H856.996ZM855.344 45.6665C855.317 45.2251 855.182 44.8911 854.94 44.6646C854.701 44.4341 854.404 44.3188 854.049 44.3188C853.662 44.3188 853.361 44.4399 853.147 44.6821C852.936 44.9243 852.803 45.2524 852.748 45.6665H855.344ZM861.18 44.6528C860.508 44.6528 860.057 44.8716 859.827 45.3091C859.698 45.5552 859.633 45.9341 859.633 46.4458V49.4985H857.952V43.1118H859.545V44.2251C859.803 43.7993 860.028 43.5083 860.219 43.3521C860.532 43.0903 860.938 42.9595 861.438 42.9595C861.469 42.9595 861.494 42.9614 861.514 42.9653C861.537 42.9653 861.586 42.9673 861.66 42.9712V44.6821C861.555 44.6704 861.461 44.6626 861.379 44.6587C861.297 44.6548 861.231 44.6528 861.18 44.6528Z" fill="black"/>
<rect x="811" y="80.985" width="62" height="62" rx="2" fill="white"/>
<rect x="811" y="80.985" width="62" height="62" rx="2" stroke="black" stroke-width="2" stroke-linejoin="round"/>
<path d="M816.987 85.985C816.408 86.0941 815.991 86.6065 816 87.1996V99.3461C816 100.015 816.546 100.561 817.214 100.561H865.786C866.455 100.561 867 100.015 867 99.3461V87.1996C867 86.5306 866.455 85.985 865.786 85.985H817.214C817.176 85.985 817.139 85.985 817.101 85.985C817.063 85.985 817.025 85.985 816.987 85.985ZM818.429 88.4143H864.572V98.1314H818.429V88.4143ZM816.987 102.99C816.408 103.099 815.991 103.612 816 104.205V135.785C816 136.454 816.546 137 817.214 137H846.357C847.026 137 847.572 136.454 847.572 135.785V104.205C847.572 103.536 847.026 102.99 846.357 102.99H817.214C817.176 102.99 817.139 102.99 817.101 102.99C817.063 102.99 817.025 102.99 816.987 102.99ZM850.987 102.99C850.408 103.099 849.991 103.612 850 104.205V111.492C850 112.161 850.546 112.707 851.215 112.707H865.786C866.455 112.707 867 112.161 867 111.492V104.205C867 103.536 866.455 102.99 865.786 102.99H851.215C851.177 102.99 851.139 102.99 851.101 102.99C851.063 102.99 851.025 102.99 850.987 102.99ZM818.429 105.419H845.143V134.571H818.429V105.419ZM852.429 105.419H864.572V110.278H852.429V105.419ZM850.987 115.136C850.408 115.246 849.991 115.758 850 116.351V123.639C850 124.308 850.546 124.854 851.215 124.854H865.786C866.455 124.854 867 124.308 867 123.639V116.351C867 115.682 866.455 115.136 865.786 115.136H851.215C851.177 115.136 851.139 115.136 851.101 115.136C851.063 115.136 851.025 115.136 850.987 115.136ZM852.429 117.566H864.572V122.424H852.429V117.566ZM850.987 127.283C850.408 127.392 849.991 127.904 850 128.497V135.785C850 136.454 850.546 137 851.215 137H865.786C866.455 137 867 136.454 867 135.785V128.497C867 127.828 866.455 127.283 865.786 127.283H851.215C851.177 127.283 851.139 127.283 851.101 127.283C851.063 127.283 851.025 127.283 850.987 127.283ZM852.429 129.712H864.572V134.571H852.429V129.712Z" fill="black"/>
<circle cx="841.31" cy="23.3104" r="8.31045" fill="black"/>
<path d="M841.611 21.9458C842.302 21.9458 842.868 22.1803 843.308 22.6494C843.753 23.1185 843.975 23.7183 843.975 24.4487C843.975 25.1756 843.758 25.8166 843.325 26.3716C842.891 26.9266 842.218 27.2041 841.305 27.2041C840.324 27.2041 839.601 26.7941 839.135 25.9741C838.774 25.3332 838.593 24.506 838.593 23.4927C838.593 22.8983 838.618 22.4149 838.668 22.0425C838.757 21.38 838.931 20.8286 839.189 20.3882C839.411 20.0122 839.701 19.7096 840.059 19.4805C840.421 19.2513 840.852 19.1367 841.353 19.1367C842.077 19.1367 842.653 19.3229 843.083 19.6953C843.513 20.0641 843.754 20.5565 843.808 21.1724H842.283C842.283 21.047 842.234 20.9092 842.138 20.7588C841.973 20.5153 841.724 20.3936 841.391 20.3936C840.893 20.3936 840.539 20.6729 840.328 21.2314C840.213 21.5394 840.134 21.9941 840.091 22.5957C840.281 22.3701 840.501 22.2054 840.752 22.1016C841.003 21.9977 841.289 21.9458 841.611 21.9458ZM840.58 23.4067C840.279 23.6395 840.129 24.0155 840.129 24.5347C840.129 24.9536 840.242 25.2956 840.467 25.5605C840.693 25.8255 840.979 25.958 841.327 25.958C841.667 25.958 841.933 25.8309 842.127 25.5767C842.324 25.3188 842.422 24.9858 842.422 24.5776C842.422 24.1229 842.311 23.7756 842.089 23.5356C841.867 23.2922 841.595 23.1704 841.273 23.1704C841.011 23.1704 840.78 23.2492 840.58 23.4067Z" fill="white"/>
<defs>
<clipPath id="clip0_95_332">
<rect width="54" height="60" fill="white" transform="translate(359 82)"/>
</clipPath>
<clipPath id="clip1_95_332">
<rect width="60" height="60" fill="white" transform="translate(204 80)"/>
</clipPath>
<clipPath id="clip2_95_332">
<rect width="60" height="60" fill="white" transform="translate(51 80)"/>
</clipPath>
</defs>
</svg>
