<svg viewBox="0 0 1024 1024" xmlns="http://www.w3.org/2000/svg"><path d="m0 0h1024v1024c-341.33 0-682.67 0-1024 0 0-341.33 0-682.67 0-1024zm616.97 433.09c2.74-1.19 4.22-1.84 5.71-2.47 20.19-8.56 40.7-16.45 60.49-25.85 19.45-9.24 32.5-24.62 37.4-46.1 2.69-11.8-.16-23.21-3.01-34.52-6.04-23.96-14.68-46.99-24.46-69.69-17.67-41.05-40.17-79-70.49-111.95-21.05-22.88-44.03-43.63-71.79-58.36-16.48-8.74-33.55-15.03-52.64-10.84-13.13 2.88-25.12 8.59-36.66 15.41-37.52 22.16-66.33 53.4-90.96 88.61-30.55 43.67-52.2 91.66-66.26 143.05-3.21 11.72-6.38 23.57-4.7 35.93 2.5 18.43 12.63 32.58 27.82 41.98 15.2 9.4 31.75 16.69 47.93 24.43 8.33 3.98 17.16 6.93 25.79 10.35-.34.76-.39 1.16-.62 1.34-1.3 1.04-2.57 2.14-3.96 3.03-14.87 9.5-24.79 23.08-31.67 38.99-10.12 23.39-20.3 46.77-29.76 70.43-6.48 16.21-12.24 32.76-17.48 49.42-3.63 11.56-1.05 22.73 7.17 31.71 4.87 5.33 10.81 9.81 16.77 13.96 3.01 2.1 4.73 4.08 5.38 7.7 1.36 7.58 7.48 14.79 13.24 14.4 5.49-.37 8.64 2.38 12.14 5.43 2.76 2.41 5.94 4.41 8.38 7.09 1.41 1.56 2.49 4.16 2.37 6.22-.39 6.96-1.95 13.88-1.89 20.81.03 3.45 1.76 7.84 4.26 10.09 3.32 3 3.21 5.47 2.14 9.06-1.73 5.82-2.17 12.14 2.85 16.25 3.95 3.24 3.72 6.47 3.05 10.46-3.48 20.68-6.9 41.38-10.45 62.05-.73 4.24.5 7.51 4.5 8.85 3.26 1.09 3.34 2.77 2.87 5.61-4.6 27.77-9.13 55.54-13.51 83.34-.55 3.5-2.13 4.97-5.41 6-11.84 3.75-20.25 11.39-23.8 23.47-1.03 3.51-2.54 4.24-5.84 4.23-30.16-.07-60.33.03-90.49.07-1.33 0-2.73-.23-3.98.08-1.08.27-2.01 1.16-3.01 1.78 1.07.73 2.08 1.56 3.22 2.13.53.27 1.31.05 1.98.05 30.66.22 61.33.43 91.99.65 5.57.04 5.81.34 4.83 6.39-23.99 1.29-48.07 2.58-72.14 3.87 5.11 1 10.21 1.56 15.31 1.53 40.49-.25 80.98-.59 121.47-.94 41.32-.35 82.65-1.21 123.97-1.01 56.32.27 112.63 1.37 168.95 2.04 13.21.16 26.42.02 39.63.02 0-.64.02-1.28.03-1.92-21.95-1.02-43.9-2.06-65.85-3.05-2.47-.11-4.66.02-4.55-3.57.1-3.18 1.89-3.3 4.29-3.32 30.5-.22 60.99-.46 91.49-.85 2.26-.03 4.51-1.27 6.77-1.95-2.23-.68-4.45-1.93-6.69-1.94-30.33-.13-60.66-.1-90.99-.1-2.38 0-4.53.2-5.15-3.16-1.62-8.74-7.03-14.98-14.25-19.67-4.76-3.09-11.53-4.61-14.3-8.85-2.99-4.59-2.35-11.54-3.33-17.45-3.77-22.67-7.53-45.35-11.39-68.01-.48-2.83-.17-4.87 2.79-5.98 4.7-1.75 6.28-5.05 4.89-9.91-.5-1.75-.53-3.62-.85-5.43-3.38-18.85-6.83-37.68-10.09-56.54-.37-2.12-.6-5.46.59-6.46 7.49-6.3 7.04-13.68 4.19-21.83-.4-1.14.15-3.3 1.05-4.08 6.03-5.26 7.78-11.81 6.46-19.41-.77-4.43-1.96-8.81-2.39-13.27-.17-1.81.61-4.4 1.92-5.55 4.87-4.28 10.06-8.2 15.29-12.04 1.22-.89 3.04-1.2 4.61-1.33 7.53-.59 13.7-5.03 14.73-12.55.7-5.11 3.36-7.54 7.19-9.81 2.28-1.36 4.43-2.97 6.52-4.62 11.33-8.95 17.53-20.5 16.34-35.11-.5-6.07-1.74-12.31-3.96-17.96-12.37-31.45-25.24-62.72-37.76-94.11-9.1-22.82-20.3-43.96-44.18-56.82zm-204.51 532.45v1.16h197.15c0-.47 0-.94 0-1.41h-95.17c0-.48 0-.96 0-1.43h19.08c0-.21 0-.42-.01-.63-40.35.77-80.7 1.54-121.06 2.31z" fill="#fff"/><path d="m616.97 433.09c23.88 12.86 35.08 34 44.18 56.82 12.53 31.39 25.39 62.66 37.76 94.11 2.22 5.65 3.47 11.89 3.96 17.96 1.19 14.61-5 26.16-16.34 35.11-2.09 1.65-4.24 3.26-6.52 4.62-3.83 2.27-6.49 4.69-7.19 9.81-1.03 7.51-7.2 11.96-14.73 12.55-1.58.12-3.4.43-4.61 1.33-5.23 3.84-10.42 7.76-15.29 12.04-1.3 1.15-2.09 3.74-1.92 5.55.43 4.46 1.62 8.84 2.39 13.27 1.32 7.6-.43 14.16-6.46 19.41-.9.78-1.45 2.95-1.05 4.08 2.85 8.15 3.3 15.53-4.19 21.83-1.19 1-.95 4.34-.59 6.46 3.27 18.86 6.71 37.7 10.09 56.54.32 1.8.35 3.68.85 5.43 1.39 4.86-.19 8.16-4.89 9.91-2.96 1.1-3.27 3.15-2.79 5.98 3.86 22.66 7.62 45.33 11.39 68.01.98 5.91.34 12.86 3.33 17.45 2.77 4.24 9.54 5.76 14.3 8.85 7.21 4.69 12.63 10.93 14.25 19.67.62 3.35 2.78 3.16 5.15 3.16 30.33 0 60.66-.04 90.99.1 2.23 0 4.46 1.27 6.69 1.94-2.26.68-4.5 1.92-6.77 1.95-30.49.39-60.99.62-91.49.85-2.4.02-4.19.14-4.29 3.32-.11 3.59 2.08 3.46 4.55 3.57 21.95.98 43.9 2.02 65.85 3.05 0 .64-.02 1.28-.03 1.92-13.21 0-26.42.13-39.63-.02-56.32-.67-112.63-1.77-168.95-2.04-41.32-.2-82.65.65-123.97 1.01-40.49.35-80.98.69-121.47.94-5.1.03-10.21-.53-15.31-1.53 24.07-1.29 48.15-2.58 72.14-3.87.97-6.06.74-6.35-4.83-6.39-30.66-.22-61.33-.44-91.99-.65-.67 0-1.45.22-1.98-.05-1.14-.58-2.15-1.41-3.22-2.13 1-.62 1.93-1.51 3.01-1.78 1.26-.31 2.65-.08 3.98-.08 30.16-.05 60.33-.14 90.49-.07 3.3 0 4.81-.72 5.84-4.23 3.55-12.08 11.96-19.72 23.8-23.47 3.27-1.04 4.86-2.51 5.41-6 4.38-27.8 8.91-55.58 13.51-83.34.47-2.84.4-4.52-2.87-5.61-3.99-1.34-5.22-4.61-4.5-8.85 3.55-20.67 6.96-41.37 10.45-62.05.67-3.99.91-7.22-3.05-10.46-5.02-4.11-4.57-10.43-2.85-16.25 1.07-3.6 1.18-6.07-2.14-9.06-2.5-2.26-4.23-6.64-4.26-10.09-.06-6.93 1.5-13.86 1.89-20.81.11-2.06-.96-4.66-2.37-6.22-2.43-2.69-5.61-4.69-8.38-7.09-3.5-3.05-6.65-5.8-12.14-5.43-5.76.39-11.88-6.82-13.24-14.4-.65-3.62-2.37-5.6-5.38-7.7-5.95-4.15-11.89-8.63-16.77-13.96-8.21-8.98-10.8-20.16-7.17-31.71 5.24-16.66 10.99-33.21 17.48-49.42 9.46-23.66 19.64-47.04 29.76-70.43 6.88-15.91 16.8-29.49 31.67-38.99 1.4-.89 2.67-1.99 3.96-3.03.23-.18.28-.58.62-1.34-8.63-3.42-17.45-6.37-25.79-10.35-16.18-7.74-32.73-15.03-47.93-24.43-15.19-9.39-25.32-23.55-27.82-41.98-1.68-12.36 1.5-24.21 4.7-35.93 14.06-51.39 35.72-99.38 66.26-143.05 24.63-35.21 53.44-66.45 90.96-88.61 11.54-6.82 23.54-12.53 36.66-15.41 19.09-4.19 36.16 2.1 52.64 10.84 27.76 14.73 50.74 35.48 71.79 58.36 30.32 32.95 52.82 70.9 70.49 111.95 9.78 22.7 18.42 45.73 24.46 69.69 2.85 11.31 5.7 22.72 3.01 34.52-4.9 21.48-17.95 36.86-37.4 46.1-19.79 9.4-40.3 17.29-60.49 25.85-1.49.63-2.97 1.28-5.71 2.47zm-122.09 45.35c.29-.23.59-.46.88-.69-1.03-1.81-1.82-3.81-3.12-5.4-8.74-10.66-16.83-21.99-26.57-31.66-15.95-15.84-36.97-23.3-57.38-31.41-17.31-6.88-35.09-12.67-52.15-20.1-7.92-3.45-15.25-8.98-21.77-14.77-14.46-12.84-16.66-27.09-7.01-43.91 18.2-31.73 42.6-58.32 70.29-81.88 23.81-20.26 49.89-37.15 78.64-49.73 13.81-6.04 27.93-9.56 43.16-7.28 14.93 2.24 28.46 8.32 41.44 15.43 33.53 18.39 63.75 41.24 89.77 69.38 15.97 17.27 31.28 35.11 42.42 56.04 7.74 14.54 5.96 27.83-5.26 39.95-7.5 8.1-16.75 13.74-26.9 17.76-23.02 9.14-46.18 17.94-69.23 27-28.55 11.23-49.72 31.08-65.75 56.82-.94 1.5-1.52 3.23-2.26 4.85.48.32.95.64 1.43.97.52-.86.89-1.86 1.57-2.56 13.85-14.07 28.57-27.3 46.26-36.17 18.43-9.24 37.73-16.74 56.5-25.32 18.75-8.58 37.73-16.79 55.86-26.56 20.4-10.99 29.03-32.45 22.39-54.51-2.88-9.58-7.88-18.66-12.89-27.41-4.99-8.74-11.18-16.79-16.85-25.14.25-.2.51-.39.76-.59 7.1 8.82 14.19 17.65 22.23 27.64-1.01-3.46-1.47-5.68-2.29-7.75-7.24-18.44-13.88-37.15-21.97-55.21-19.13-42.73-45.26-80.73-79.59-112.79-17.56-16.4-36-31.74-57.89-42.27-13.8-6.64-28.17-11.37-43.32-6.02-10.28 3.63-20.33 8.37-29.73 13.89-38.3 22.53-66.92 55.05-91.96 91.04-20.32 29.2-34.86 61.35-47.24 94.54-2.82 7.57-5.37 15.24-8.36 23.73 8.67-10.91 16.72-21.05 24.77-31.19.35.26.7.52 1.05.79-.96 1.46-1.96 2.89-2.89 4.37-8.74 13.96-18.33 27.47-26 42-11.96 22.65-6.25 45.87 14.08 61.32 6.07 4.61 12.58 8.96 19.5 12.06 20.51 9.2 41.39 17.57 61.99 26.56 25.09 10.95 49.85 22.51 69.87 41.97 4.34 4.22 8.97 8.14 13.47 12.19zm-12.52 3.5c-.48.2-.95.4-1.43.59 0 23.31-.08 46.63.07 69.94.03 4.07.92 8.14 1.6 12.19.64 3.79.1 7.14-3.52 9.05-3.66 1.92-7.47 1.8-10.78-.89-3.13-2.54-3.57-5.79-1.92-9.44.67-1.47 1.54-3.07 1.53-4.6-.14-29.16-.37-58.32-.69-87.48-.02-1.53-.47-3.74-1.53-4.48-8.59-6.04-17.36-11.81-26.08-17.66-.23.31-.45.63-.68.94 3.3 5.86 6.59 11.71 9.89 17.57-2.02-.34-3.19-1.36-4.32-2.42-8.24-7.77-16.57-15.45-24.65-23.38-2.67-2.61-4.72-2.38-7.86-.79-19.3 9.79-31.5 25.62-39.54 45.25-12.75 31.14-25.85 62.14-38.35 93.38-2.97 7.42-4.12 15.56-6.1 23.37.28.02.56.04.83.06l10.48-13.98c-1.6 5.79-4.47 10.84-6.3 16.24-1.23 3.64-2.5 8.44-1.12 11.56 3.43 7.8 9.85 13.46 17.05 18.4 1.77-4.93 3.35-9.31 4.93-13.69 2.13 9.75-1.53 19.89 4.48 29.51 6.36-24.28 5.32-29.09 35.6-49.61-14.38-3.09-27.01-.84-40.31 5.11 7.08-7.67 15.39-9.91 24.26-10.91.05-.45.11-.91.16-1.36-5.85-1.4-11.7-2.8-17.55-4.19.01-.27.03-.54.04-.82h24.93c-2.03-1.1-3.56-1.93-5.09-2.76.14-.32.29-.64.43-.96 3.73 1.69 7.46 3.39 11.8 5.36-3.79-12.4-12.44-17.95-23.53-21.21 4.89.48 9.78.95 15.27 1.49-2.56-3.24-4.56-5.75-6.55-8.26.42-.43.84-.86 1.26-1.29 5.93 5.09 11.86 10.17 17.89 15.34.18-.84.49-1.78.58-2.74 1.31-14.56 2.72-29.09-3.71-43.04-1.45-3.15-1.92-6.74-2.84-10.13.5-.19 1-.37 1.51-.56l6.01 13.72c.61-.19 1.23-.38 1.84-.57-2.71-13.58-5.41-27.16-8.12-40.74.36-.1.71-.2 1.07-.3 3.32 7.31 6.64 14.62 10.35 22.79.75-9.59 1.43-18.26 2.11-26.93 1.59 2.65 2.15 5.25 2.49 7.87 3.8 29.75 2.17 59.6.47 89.34-.56 9.9 2.24 17.38 7.69 24.69 2.47 3.32 5.14 6.49 7.72 9.73.34-.19.67-.38 1.01-.57v-14.95c1.17 1.13 1.71 2.3 2.06 3.53 2.02 7.04 4.04 14.08 5.97 21.14 1.44 5.24 5.22 7.8 10.73 9.5 2.56-6.85 5.09-13.62 7.43-19.86 2.84.56 6.02 1.62 9.24 1.73 9.63.34 19.27.34 28.91.41 6.81.05 6.79 0 6.78-6.81-.02-37.49-.03-74.99-.08-112.48 0-1.28-.03-2.88-.74-3.79-4.26-5.47-8.72-10.79-13.11-16.16zm55.73-.38c-2.42 2.65-4.02 4.72-5.93 6.43-7.05 6.32-9.03 13.85-8.84 23.45.7 34.64.37 69.3.26 103.96-.01 4.04.64 5.69 5.33 5.92 11.06.55 22-1.68 33.09-.79 3.01.24 6.3-3.03 9.02-4.45-4.69 9.18 4.13 15.4 6.22 24.13 13.95-7.41 10.96-22.44 16.42-33.14.41.09.81.17 1.22.26v13.54l1.4.48c5.22-7.58 10.47-15.15 15.62-22.78.5-.74.56-1.91.53-2.87-.64-18.31-1.03-36.64-2.07-54.93-1.05-18.49.53-36.75 3.75-55.03.81 9.5 1.61 19 2.48 29.24 1.96-4.19 3.58-7.76 5.3-11.29s3.52-7.02 5.29-10.53c.39.17.79.33 1.18.5-3.83 13.36-7.31 26.76-6.71 42.1 2.64-5.75 4.74-10.31 6.83-14.88.53.14 1.06.27 1.59.41-7.48 18.02-10.43 36.48-6.34 56.16 5.32-5.26 9.22-11.68 16.56-13.56-1.47 2.39-2.89 4.72-4.81 7.85 5.57-.69 10.08-1.25 14.59-1.81.21.39.41.77.62 1.16-11.34 2.22-20.54 6.82-23.14 19.68 1.86-.86 3.14-1.44 4.48-2.06.59 1.23 1.03 2.15 1.46 3.04 8.1-3.07 15.94-4.53 25.09-1.92-5.92 1.71-10.73 3.1-15.53 4.49 11.64 3.5 18.91 7.36 21.48 12.18-21.5-7.18-32.11-8.09-36.97-2.92 20.34 8.78 31.12 24.82 34.48 46.45.54-.13 1.09-.25 1.63-.38v-29.47c.4-.03.79-.06 1.19-.09 1.84 4.87 3.67 9.74 5.82 15.45 4.33-3.7 8.43-6.81 12.07-10.39 7.29-7.19 8.23-13.89 3.48-23.04-2.08-4.01-4.47-7.87-6.71-11.8.28-.22.56-.43.84-.65 3.35 4.04 6.71 8.09 10.06 12.13-.39-6.22-1.16-12.25-3.34-17.72-13.47-33.7-27.01-67.38-41.05-100.85-7.58-18.08-19.11-33.1-37.14-42.3-3-1.53-5.23-1.59-7.6.63-8.85 8.31-17.73 16.61-26.53 24.98-1.23 1.17-2.08 2.73-3.11 4.1-.39-.37-.78-.74-1.17-1.1 3.87-6.82 7.74-13.63 11.61-20.45-9.58 5.32-18.45 11.2-27.1 17.39-1.3.93-2.16 3.33-2.17 5.05-.17 28.65-.2 57.31-.17 85.96 0 1.92.42 4 1.21 5.74 1.75 3.85 1.47 7.25-1.83 9.9-3.32 2.67-7.16 2.61-10.8.64-3.86-2.08-4.2-5.64-3.42-9.53.48-2.41 1.19-4.85 1.18-7.28-.06-23.48-.25-46.97-.42-70.45 0-1.27-.26-2.53-.51-4.93zm-105.17 461.18c1.68.27 2.32.46 2.96.46 48.65-.05 97.31-.16 145.96-.08 5.16 0 5.33-2.49 4.58-6.26-2.12-10.6-4.01-21.25-6.37-31.8-5.01-22.41-10.31-44.75-15.36-67.15-.6-2.66-1.75-3.53-4.41-3.42-4.32.18-8.67.16-12.99-.1-4.75-.29-8.11-2.33-9.05-7.59-2.65-14.91-5.6-29.77-8.19-44.7-.53-3.07-1.59-4.29-4.75-4.24-10 .15-20 .23-29.99.02-4.1-.09-5.46 1.67-6.03 5.46-2.15 14.31-4.51 28.6-6.92 42.87-.93 5.53-3.37 7.66-9.15 8.07-4.48.32-9.01.59-13.48.27-3.49-.25-4.6 1.08-5.27 4.24-5.22 24.59-10.67 49.13-15.88 73.73-2.09 9.89-3.74 19.87-5.66 30.23zm91.2-210.25c1.78.14 3.07.33 4.36.33 19.1.01 37.99-2.36 56.33-7.36 12.12-3.3 23.73-8.58 35.33-13.53 2.71-1.16 6.01-4.42 6.32-7.04.7-5.92-.29-12.04-.65-19.27-6.66 5.26-12.18 9.62-17.6 13.91 1.04 2.07 1.83 3.64 2.61 5.17-4.29 3.28-8.13 6.48-12.27 9.21-1.39.92-4.48 1.54-5.22.78-2.67-2.77-5.2-2.11-8.16-1.06-1.69.6-3.54.73-5.32 1.07-.07-.32-.14-.65-.22-.97 2.74-1.33 5.49-2.67 8.47-4.12-7.02-10.58-13.07-21.08-15.8-33.31 7.01 11.46 13.9 22.72 20.9 34.17 2.92-1.78 4.69-2.86 6.86-4.19-9.15-10.29-14.02-22.31-18.91-34.36-5.7-14.04-11.73-27.94-17.46-41.97-1.26-3.07-3.03-4.28-6.37-4.23-9.83.14-19.65-.03-29.48-.04-1.25 0-2.5.29-3.74.45v106.37zm-129.76-46.58c-.5 4.65-.62 7.95-1.25 11.15-1.72 8.71 2.38 13.6 9.93 17.16 28.15 13.27 58 18.16 88.8 18.84 4.31.1 3.75-2.74 3.76-5.38.14-30.99.28-61.98.42-92.98.01-2.94 0-5.88 0-8.82-11.35 0-22.14.26-32.92-.13-4.42-.16-6.2 1.37-7.95 5.31-11.1 25.01-17.09 52.31-33.72 75.2 1.38 1.08 2.62 2.06 5.02 3.93 7.16-11.21 14.04-21.96 20.91-32.71.44.23.88.45 1.32.68-5.27 10.57-10.54 21.14-15.73 31.56 3.41 1.66 6.58 3.2 9.76 4.75-2.78.38-5.23-.04-7.47-.97-3-1.24-5.47-1.81-7.92 1.28-.71.9-3.58 1.2-4.64.51-5.1-3.31-9.92-7.05-14.97-10.73 1.37-1.76 2.56-3.3 4.07-5.24-5.59-4.31-10.95-8.44-17.41-13.41zm28.07 238.85c2.02-9.25 3.78-17.32 5.54-25.39 4.44-20.34 8.81-40.69 13.38-61 .85-3.76-.31-4.9-3.93-5.54-10.16-1.8-20.28-3.85-30.33-6.17-3.43-.79-4.38.19-4.9 3.36-2.89 17.42-5.98 34.8-8.92 52.21-1.57 9.3-2.97 18.62-4.55 28.57 12.95.24 24.34 3.12 33.71 13.96zm155.4-90.75c6.5 29.9 12.93 59.51 19.71 90.76 8.93-12.26 20.98-13.66 34.09-14.13-5-28.6-9.87-56.47-14.7-84.1-13.15 2.51-25.68 4.91-39.11 7.47zm58.29-167.68c5.3-4.37 10.16-8.28 14.87-12.37.73-.63.96-2.09 1.03-3.19.45-7.44-.56-14.55-4.74-21-6.27-9.69-14.26-17.16-25.84-19.73-2.15-.48-5.52-.25-6.81 1.1-3.72 3.9-6.65 8.55-9.99 13.02 16.38 9.76 26.72 23.43 31.47 42.17zm-251.13-.17c3.57-20.1 15.04-33.02 31.29-42.52-3.44-4.12-6.15-7.98-9.52-11.13-1.67-1.56-4.73-2.86-6.86-2.5-14.6 2.41-33.48 19.16-31.51 40.01.15 1.54.71 3.49 1.79 4.41 4.52 3.87 9.31 7.43 14.82 11.73zm116.23 66.24c4.3 1.44 5.81.23 5.77-3.97-.1-10.98.19-21.97.18-32.95-.04-53.94-.13-107.89-.25-161.83 0-1.75-.17-4.84-.9-5.04-5.67-1.58-3.48-5.99-3.7-9.41-.22-3.26-.05-6.54-.05-9.82l-1.06.05v222.97zm17.93-223.52c-.5-.04-1.01-.08-1.51-.13.27 4.92.71 9.84.69 14.76 0 1.49-1.02 4.02-2.02 4.27-3.46.87-3.32 3.24-3.32 5.78.11 65.12.2 130.23.44 195.35 0 1.41 1.5 3.81 2.64 4.03 3.47.67 2.81-2.3 2.83-4.33.11-9.66.23-19.31.24-28.97.03-49.46.02-98.93.02-148.39 0-14.12 0-28.24 0-42.36zm-98.23 184.03c1.41-3.83 2.16-6.62 3.41-9.16 3.58-7.26 7.69-14.27 11-21.64 5.79-12.87 5.53-12.83-6.29-20.83-3.02-2.04-5.37-1.94-8.02.02-10.73 7.96-17.38 18.51-19.59 31.69-.28 1.66.5 4.21 1.72 5.3 5.3 4.73 10.94 9.08 17.76 14.62zm158.29-43.53c6.85 14.52 11.68 29.37 20.41 42.87 6.34-5.16 12.06-9.69 17.6-14.44.97-.84 1.79-2.67 1.61-3.88-.53-3.5-1.31-7.03-2.52-10.35-3.42-9.36-9.73-16.59-17.76-22.27-1.26-.89-3.88-1.07-5.24-.36-4.69 2.43-9.11 5.39-14.09 8.43zm-105.88-176.01v87.46c3.4-3.09 3.35-83.19 0-87.46zm70.69 86.48c1 .05 2.01.1 3.01.15-.08-28.78.27-57.55-1.53-86.35-1.77 28.72-1.48 57.46-1.48 86.19zm55.47 71.48c.06.63.12 1.27.18 1.9 9.9 6.42 17.36 15.04 23.52 26.69 1.09-2.31 2.6-3.99 2.24-5.01-3.77-10.77-11.22-18.53-20.96-24.12-1.17-.67-3.3.32-4.99.54zm-177.89 1.72c-1.13-3.62-2.93-4.5-5.98-2.61-9.08 5.63-16.26 13.03-20.57 22.87-.64 1.47.34 3.64.58 5.49.51-.04 1.02-.07 1.53-.11 5.57-10.95 12.99-20.16 24.43-25.64zm147.71 120.94c3.31-2.04 6.81-2.98 7.41-4.84.95-2.95.22-6.57-.39-9.79-.19-1.03-2.24-2.38-3.43-2.38-1.2 0-3.34 1.42-3.43 2.37-.38 4.21-.16 8.47-.16 14.64zm12.11-4.31c7.46-.52 8.01-1.11 7.59-7.66-.09-1.48.07-3.13-.53-4.4-.62-1.33-2.29-3.39-3.01-3.21-1.52.38-3.7 1.9-3.87 3.18-.51 3.87-.18 7.84-.18 12.09zm-37.43 5.95c8.2.26 8.53.02 8.14-6.53-.17-2.93-.72-5.83-1.26-9.96-2.33 1.26-5.12 1.89-5.39 3.09-.95 4.26-1.04 8.7-1.49 13.41zm-75.52-14.8c-.29 3.59-.49 6.72-.8 9.85-.38 3.82 1.66 4.84 5.06 4.95 3.95.13 3.13-2.6 3.12-4.77-.01-1.81-.67-3.65-.53-5.44.44-5.44-2.54-5.59-6.85-4.59zm19.16 15.25c0-4.44.18-8.57-.14-12.65-.07-.86-2.03-2.29-2.97-2.18-1.2.14-2.73 1.36-3.25 2.51-.72 1.58-.59 3.54-.91 5.33-1.23 6.78-.26 7.79 7.28 7zm-55.6-21.36c-.36 2.75-.67 5.03-.94 7.31-.76 6.26.67 7.69 7.99 7.45-.13-2.93-.64-5.91-.3-8.78.62-5.29-2.3-6.14-6.75-5.98zm107.9 16.47c-.34-2.63-.48-5.3-1.12-7.85-.24-.95-1.59-2.14-2.54-2.23-.94-.09-2.75.94-2.87 1.69-.58 3.57-.99 7.22-.85 10.82.04 1.08 1.93 2.77 3.18 2.98 4.3.72 4.29-2.38 4.21-5.4zm-76.18 3.33c-.36-5.31-.68-9.95-1.06-15.52-2.38.47-4.45.88-6.51 1.29 1.23 1.37 2.45 2.75 4.06 4.56-4.83-.53-5.84 2.15-5.18 5.82.91 5.06 5.08 2.61 8.69 3.85zm-20.11-12.53c-2.1 9.19-1.59 9.91 7.71 10.37-.21-3.12-.44-6.17-.6-9.22-.3-5.58-.96-6.05-7.09-4.84 1.6 1 3.27 2.03 4.93 3.06l-.82 1.29c-1.26-.21-2.52-.41-4.13-.67zm154.66-10.39c-5.12.61-6.63 5.39-4.63 14.63 7.28-1.06 7.85-2.84 4.63-14.63zm-171.39 15.01c0-3.15-.13-6.25.03-9.35.21-4.13-1.54-5.73-5.52-5.04-2.54 10.46-1.45 13.4 5.49 14.38zm130.04-4.58v12.1c8.98.13 10.46-2.08 7.49-8.92-2.94-1.25-5.18-2.2-7.49-3.19zm-29.97-.14c-3.49-.97-4.87-.09-4.76 3.2.09 2.81-.6 5.67-.3 8.44.14 1.29 1.8 2.42 2.77 3.63.99-1.2 2.77-2.37 2.83-3.62.18-3.78-.29-7.6-.53-11.66zm-29.36 7.31h-.13c0-1.48.23-3.01-.07-4.42-.26-1.22-1.13-2.3-1.73-3.45-.9 1.06-2.34 2.01-2.59 3.2-.5 2.38-.68 4.95-.35 7.35.24 1.75 1.49 3.36 2.29 5.03.86-1.58 1.87-3.11 2.53-4.78.34-.85.06-1.95.06-2.94zm107.26-6.66c5.56-1.61 6.11-4.22 3.27-13.81-4.15.86-5.07 4.58-3.27 13.81zm-199.54-3.79c2.44-9.31 1.49-12.98-3.34-13.73-2.07 7.42-1.41 10.42 3.34 13.73zm7.61-11.11c-4.09 11.97-3.63 14.12 2.72 14.68.03-4.71.74-9.45-2.72-14.68zm205.52-2.85c-4.44 1.7-5.36 7.45-3.02 14.14 6.06-3.69 1.46-9.02 3.02-14.14zm-108.37-201.02c2.32-1.74 4.8-2.65 5.08-4.01.69-3.34-2.36-3.14-4.34-2.8-1.76.3-3.35 1.55-5.02 2.38 1.23 1.27 2.45 2.54 4.28 4.42zm-4.52 218.77c-.73 0-1.45-.01-2.18-.02-.18 4-.41 8.01-.46 12.01 0 .58.88 1.17 1.36 1.75.65-.58 1.88-1.17 1.87-1.74-.05-4.01-.36-8.01-.59-12.02zm5.77-233.52c.5.07 1 .14 1.49.21 1.06-2.52 2.44-4.97 3.03-7.6.23-1-1.35-2.41-2.1-3.63-.81.95-2.18 1.82-2.31 2.85-.33 2.69-.11 5.44-.11 8.16zm5.4 232.88-1.82.05c.15 5.04-1.74 10.16.37 15.11.48-.01.96-.03 1.45-.04zm-82.28 76.97c.09-.42.19-.83.28-1.25-7.43-1.74-14.86-3.48-22.29-5.22-.1.43-.19.86-.29 1.29 7.43 1.73 14.87 3.46 22.3 5.18zm111.21-248.66c2.03-1.71 3.34-2.82 4.66-3.94-1.47-.69-2.92-1.87-4.42-1.93-1.28-.05-2.6 1.19-3.91 1.86 1.03 1.13 2.07 2.26 3.67 4zm-74.02.92c.86-.42 1.72-.85 2.59-1.27 1.32-1.15 2.65-2.3 3.97-3.45-1.11-.66-2.29-1.94-3.32-1.84-1.68.17-3.82.86-4.68 2.09-.54.78.89 2.94 1.44 4.47zm36.06-73.53c-1.52 1.01-3.38 1.9-3.28 2.22.87 3.01 2.07 5.92 3.18 8.86l1.26-.53c-.35-3.21-.7-6.41-1.16-10.56z"/><path d="m412.46 965.54c40.35-.77 80.7-1.54 121.06-2.31 0 .21 0 .42.01.63h-19.08v1.43h95.17v1.41h-197.15c0-.39 0-.78 0-1.16z"/><g fill="#fff"><path d="m494.88 478.44c-4.5-4.06-9.13-7.97-13.47-12.19-20.02-19.46-44.78-31.02-69.87-41.97-20.61-8.99-41.49-17.36-61.99-26.56-6.92-3.11-13.44-7.45-19.5-12.06-20.33-15.45-26.04-38.67-14.08-61.32 7.67-14.53 17.26-28.04 26-42 .93-1.48 1.92-2.91 2.89-4.37-.35-.26-.7-.52-1.05-.79-8.05 10.14-16.1 20.27-24.77 31.19 2.98-8.5 5.54-16.17 8.36-23.73 12.37-33.2 26.92-65.34 47.24-94.54 25.04-35.99 53.66-68.51 91.96-91.04 9.4-5.53 19.46-10.27 29.73-13.89 15.15-5.35 29.52-.62 43.32 6.02 21.89 10.53 40.32 25.87 57.89 42.27 34.33 32.05 60.45 70.06 79.59 112.79 8.09 18.06 14.73 36.77 21.97 55.21.82 2.08 1.28 4.29 2.29 7.75-8.04-9.99-15.14-18.82-22.23-27.64-.25.2-.51.39-.76.59 5.67 8.35 11.86 16.4 16.85 25.14 5 8.76 10 17.84 12.89 27.41 6.64 22.06-2 43.51-22.39 54.51-18.13 9.77-37.11 17.98-55.86 26.56-18.77 8.58-38.07 16.08-56.5 25.32-17.69 8.87-32.42 22.1-46.26 36.17-.68.69-1.06 1.7-1.57 2.56-.48-.32-.95-.64-1.43-.97.75-1.62 1.33-3.35 2.26-4.85 16.03-25.74 37.2-45.59 65.75-56.82 23.05-9.06 46.21-17.86 69.23-27 10.15-4.03 19.4-9.67 26.9-17.76 11.22-12.12 13-25.41 5.26-39.95-11.15-20.93-26.45-38.78-42.42-56.04-26.02-28.13-56.24-50.99-89.77-69.38-12.98-7.12-26.51-13.2-41.44-15.43-15.23-2.28-29.35 1.24-43.16 7.28-28.75 12.58-54.83 29.47-78.64 49.73-27.69 23.56-52.09 50.15-70.29 81.88-9.65 16.82-7.45 31.07 7.01 43.91 6.52 5.79 13.85 11.32 21.77 14.77 17.06 7.44 34.84 13.22 52.15 20.1 20.4 8.11 41.43 15.57 57.38 31.41 9.74 9.67 17.83 21 26.57 31.66 1.3 1.59 2.09 3.59 3.12 5.4-.29.23-.59.46-.88.69zm-61.27-278.83c2.22-1.12 4.48-2.18 6.67-3.37 17.02-9.23 34.7-16.86 53.44-21.89 9.65-2.59 19.58-3.78 29.12-.86 13.48 4.13 26.7 9.18 39.85 14.31 7.16 2.79 13.94 6.55 22.05 10.43-1.19-1.41-1.43-1.88-1.82-2.12-2.83-1.75-5.67-3.5-8.55-5.15-18.15-10.42-37.07-18.88-58.07-21.4-4.05-.49-4.82-1.85-4.81-5.48.04-16.99-.15-33.97-.3-50.96-.03-2.86-.31-5.71-.47-8.57l-1.56.05v64.16c-28.51 3.88-53.31 14.47-75.54 30.85z"/><path d="m482.36 481.94c4.39 5.37 8.85 10.68 13.11 16.16.71.91.74 2.51.74 3.79.05 37.49.06 74.99.08 112.48 0 6.82.03 6.86-6.78 6.81-9.64-.07-19.28-.07-28.91-.41-3.22-.11-6.4-1.18-9.24-1.73-2.33 6.24-4.87 13-7.43 19.86-5.52-1.71-9.3-4.26-10.73-9.5-1.94-7.06-3.95-14.1-5.97-21.14-.35-1.23-.89-2.41-2.06-3.53v14.95c-.34.19-.67.38-1.01.57-2.58-3.24-5.24-6.42-7.72-9.73-5.45-7.31-8.26-14.79-7.69-24.69 1.7-29.74 3.33-59.58-.47-89.34-.34-2.62-.9-5.22-2.49-7.87-.68 8.67-1.36 17.33-2.11 26.93-3.71-8.17-7.03-15.48-10.35-22.79-.36.1-.71.2-1.07.3 2.71 13.58 5.41 27.16 8.12 40.74-.61.19-1.23.38-1.84.57l-6.01-13.72c-.5.19-1 .37-1.51.56.92 3.39 1.39 6.99 2.84 10.13 6.42 13.95 5.02 28.48 3.71 43.04-.09.96-.4 1.89-.58 2.74-6.03-5.17-11.96-10.25-17.89-15.34-.42.43-.84.86-1.26 1.29 1.99 2.51 3.98 5.02 6.55 8.26-5.5-.54-10.38-1.01-15.27-1.49 11.08 3.26 19.73 8.81 23.53 21.21-4.34-1.97-8.07-3.67-11.8-5.36-.14.32-.29.64-.43.96 1.53.83 3.05 1.66 5.09 2.76h-24.93c-.01.27-.03.54-.04.82 5.85 1.4 11.7 2.8 17.55 4.19-.05.45-.11.91-.16 1.36-8.87 1-17.18 3.24-24.26 10.91 13.3-5.95 25.94-8.2 40.31-5.11-30.28 20.52-29.24 25.34-35.6 49.61-6-9.62-2.35-19.77-4.48-29.51-1.58 4.38-3.15 8.76-4.93 13.69-7.2-4.94-13.62-10.6-17.05-18.4-1.38-3.12-.11-7.92 1.12-11.56 1.83-5.4 4.7-10.44 6.3-16.24l-10.48 13.98c-.28-.02-.56-.04-.83-.06 1.99-7.81 3.14-15.95 6.1-23.37 12.5-31.24 25.6-62.24 38.35-93.38 8.03-19.63 20.23-35.45 39.54-45.25 3.14-1.59 5.19-1.82 7.86.79 8.08 7.93 16.41 15.61 24.65 23.38 1.13 1.06 2.29 2.08 4.32 2.42-3.3-5.86-6.59-11.71-9.89-17.57.23-.31.45-.63.68-.94 8.72 5.85 17.5 11.62 26.08 17.66 1.06.74 1.51 2.95 1.53 4.48.32 29.16.55 58.32.69 87.48 0 1.54-.86 3.13-1.53 4.6-1.65 3.65-1.2 6.9 1.92 9.44 3.31 2.69 7.12 2.81 10.78.89 3.62-1.9 4.16-5.26 3.52-9.05-.68-4.04-1.57-8.12-1.6-12.19-.15-23.31-.07-46.63-.07-69.94.48-.2.95-.4 1.43-.59z"/><path d="m538.09 481.56c.26 2.4.5 3.67.51 4.93.18 23.48.36 46.97.42 70.45 0 2.43-.7 4.87-1.18 7.28-.78 3.9-.44 7.45 3.42 9.53 3.64 1.97 7.48 2.02 10.8-.64 3.3-2.65 3.58-6.06 1.83-9.9-.79-1.74-1.21-3.82-1.21-5.74-.03-28.65 0-57.31.17-85.96.01-1.72.88-4.12 2.17-5.05 8.64-6.19 17.51-12.07 27.1-17.39-3.87 6.82-7.74 13.63-11.61 20.45.39.37.78.74 1.17 1.1 1.03-1.38 1.88-2.94 3.11-4.1 8.8-8.37 17.67-16.66 26.53-24.98 2.36-2.22 4.6-2.16 7.6-.63 18.02 9.21 29.55 24.23 37.14 42.3 14.04 33.47 27.58 67.15 41.05 100.85 2.19 5.47 2.95 11.51 3.34 17.72-3.35-4.04-6.71-8.09-10.06-12.13-.28.22-.56.43-.84.65 2.25 3.93 4.63 7.79 6.71 11.8 4.75 9.14 3.81 15.85-3.48 23.04-3.63 3.58-7.73 6.69-12.07 10.39-2.15-5.71-3.99-10.58-5.82-15.45-.4.03-.79.06-1.19.09v29.47c-.54.13-1.09.25-1.63.38-3.35-21.63-14.14-37.67-34.48-46.45 4.86-5.17 15.47-4.25 36.97 2.92-2.57-4.82-9.84-8.68-21.48-12.18 4.8-1.39 9.61-2.78 15.53-4.49-9.15-2.61-16.99-1.15-25.09 1.92-.43-.89-.87-1.81-1.46-3.04-1.34.61-2.61 1.2-4.48 2.06 2.6-12.86 11.8-17.46 23.14-19.68-.21-.39-.41-.77-.62-1.16-4.51.56-9.02 1.12-14.59 1.81 1.92-3.13 3.34-5.46 4.81-7.85-7.33 1.89-11.23 8.31-16.56 13.56-4.09-19.69-1.14-38.14 6.34-56.16-.53-.14-1.06-.27-1.59-.41-2.1 4.56-4.19 9.13-6.83 14.88-.61-15.34 2.87-28.74 6.71-42.1-.39-.17-.79-.33-1.18-.5-1.77 3.51-3.58 7-5.29 10.53s-3.34 7.1-5.3 11.29c-.87-10.24-1.68-19.74-2.48-29.24-3.22 18.28-4.81 36.54-3.75 55.03 1.04 18.29 1.44 36.62 2.07 54.93.03.96-.03 2.13-.53 2.87-5.15 7.63-10.4 15.2-15.62 22.78l-1.4-.48v-13.54c-.41-.09-.81-.17-1.22-.26-5.45 10.7-2.47 25.74-16.42 33.14-2.09-8.73-10.91-14.95-6.22-24.13-2.72 1.43-6.01 4.69-9.02 4.45-11.1-.89-22.03 1.34-33.09.79-4.69-.23-5.34-1.88-5.33-5.92.11-34.65.44-69.32-.26-103.96-.19-9.6 1.79-17.13 8.84-23.45 1.91-1.72 3.51-3.78 5.93-6.43z"/><path d="m432.92 942.74c1.93-10.36 3.57-20.34 5.66-30.23 5.2-24.6 10.66-49.14 15.88-73.73.67-3.16 1.78-4.49 5.27-4.24 4.46.32 8.99.05 13.48-.27 5.77-.41 8.22-2.54 9.15-8.07 2.41-14.27 4.77-28.56 6.92-42.87.57-3.79 1.94-5.55 6.03-5.46 9.99.21 19.99.13 29.99-.02 3.16-.05 4.22 1.17 4.75 4.24 2.59 14.92 5.54 29.78 8.19 44.7.93 5.26 4.29 7.3 9.05 7.59 4.32.26 8.67.28 12.99.1 2.66-.11 3.81.76 4.41 3.42 5.05 22.4 10.35 44.74 15.36 67.15 2.36 10.55 4.25 21.2 6.37 31.8.76 3.77.58 6.27-4.58 6.26-48.65-.08-97.31.04-145.96.08-.64 0-1.28-.19-2.96-.46z"/><path d="m524.12 732.49v-106.37c1.24-.15 2.49-.45 3.74-.45 9.83 0 19.66.18 29.48.04 3.34-.05 5.11 1.16 6.37 4.23 5.73 14.03 11.76 27.93 17.46 41.97 4.89 12.05 9.75 24.07 18.91 34.36-2.17 1.33-3.94 2.41-6.86 4.19-7-11.45-13.89-22.7-20.9-34.17 2.73 12.24 8.78 22.73 15.8 33.31-2.98 1.45-5.73 2.78-8.47 4.12.07.32.14.65.22.97 1.78-.34 3.63-.47 5.32-1.07 2.96-1.05 5.49-1.71 8.16 1.06.73.76 3.82.14 5.22-.78 4.14-2.73 7.97-5.93 12.27-9.21-.77-1.53-1.56-3.1-2.61-5.17 5.43-4.29 10.94-8.65 17.6-13.91.36 7.23 1.36 13.35.65 19.27-.31 2.62-3.61 5.88-6.32 7.04-11.6 4.96-23.22 10.23-35.33 13.53-18.34 5-37.23 7.37-56.33 7.36-1.29 0-2.58-.19-4.36-.33z"/><path d="m394.36 685.91c6.46 4.97 11.81 9.1 17.41 13.41-1.51 1.94-2.7 3.48-4.07 5.24 5.05 3.69 9.87 7.43 14.97 10.73 1.06.69 3.93.38 4.64-.51 2.45-3.08 4.91-2.51 7.92-1.28 2.24.92 4.7 1.35 7.47.97-3.18-1.55-6.35-3.09-9.76-4.75 5.19-10.42 10.46-20.99 15.73-31.56-.44-.23-.88-.45-1.32-.68-6.88 10.75-13.75 21.51-20.91 32.71-2.39-1.88-3.64-2.85-5.02-3.93 16.63-22.88 22.62-50.18 33.72-75.2 1.75-3.94 3.53-5.47 7.95-5.31 10.77.39 21.57.13 32.92.13 0 2.94.01 5.88 0 8.82-.14 30.99-.28 61.98-.42 92.98-.01 2.64.55 5.48-3.76 5.38-30.79-.68-60.65-5.58-88.8-18.84-7.56-3.56-11.65-8.45-9.93-17.16.63-3.2.75-6.51 1.25-11.15zm89.42-55.84c0-.19-.02-.38-.03-.57h-22.8c.03.19.06.38.08.57h22.74z"/><path d="m422.43 924.76c-9.37-10.84-20.76-13.72-33.71-13.96 1.58-9.95 2.98-19.27 4.55-28.57 2.94-17.41 6.03-34.79 8.92-52.21.52-3.17 1.48-4.15 4.9-3.36 10.05 2.32 20.17 4.37 30.33 6.17 3.62.64 4.78 1.78 3.93 5.54-4.57 20.31-8.94 40.66-13.38 61-1.76 8.07-3.52 16.14-5.54 25.39z"/><path d="m577.83 834.01c13.43-2.57 25.96-4.96 39.11-7.47 4.83 27.63 9.7 55.5 14.7 84.1-13.11.47-25.16 1.87-34.09 14.13-6.79-31.25-13.22-60.85-19.71-90.76z"/><path d="m636.12 666.33c-4.76-18.74-15.1-32.41-31.47-42.17 3.34-4.48 6.27-9.12 9.99-13.02 1.29-1.35 4.66-1.58 6.81-1.1 11.58 2.57 19.57 10.04 25.84 19.73 4.17 6.45 5.19 13.56 4.74 21-.07 1.1-.3 2.55-1.03 3.19-4.7 4.09-9.57 8-14.87 12.37z"/><path d="m384.99 666.16c-5.51-4.31-10.3-7.86-14.82-11.73-1.08-.93-1.64-2.87-1.79-4.41-1.96-20.84 16.91-37.6 31.51-40.01 2.14-.35 5.19.94 6.86 2.5 3.37 3.15 6.08 7.01 9.52 11.13-16.24 9.49-27.72 22.42-31.29 42.52z"/><path d="m501.22 732.4v-222.97l1.06-.05c0 3.27-.17 6.56.05 9.82.23 3.43-1.96 7.83 3.7 9.41.72.2.89 3.29.9 5.04.12 53.94.2 107.89.25 161.83 0 10.98-.29 21.97-.18 32.95.04 4.2-1.48 5.4-5.77 3.97z"/><path d="m519.15 508.88v42.36c0 49.46 0 98.93-.02 148.39 0 9.66-.12 19.31-.24 28.97-.02 2.03.63 5-2.83 4.33-1.13-.22-2.63-2.62-2.64-4.03-.24-65.12-.33-130.23-.44-195.35 0-2.54-.14-4.91 3.32-5.78 1-.25 2.02-2.78 2.02-4.27.02-4.92-.42-9.84-.69-14.76.5.04 1.01.08 1.51.13z"/><path d="m420.92 692.91c-6.82-5.54-12.47-9.89-17.76-14.62-1.22-1.09-2-3.64-1.72-5.3 2.21-13.17 8.86-23.73 19.59-31.69 2.64-1.96 5-2.07 8.02-.02 11.82 8.01 12.09 7.96 6.29 20.83-3.32 7.37-7.42 14.38-11 21.64-1.25 2.54-2.01 5.33-3.41 9.16z"/><path d="m579.21 649.38c4.98-3.04 9.39-6 14.09-8.43 1.36-.71 3.98-.53 5.24.36 8.03 5.68 14.34 12.9 17.76 22.27 1.21 3.32 1.99 6.85 2.52 10.35.18 1.21-.63 3.05-1.61 3.88-5.54 4.75-11.26 9.28-17.6 14.44-8.73-13.51-13.56-28.36-20.41-42.87z"/><path d="m473.33 473.37c3.35 4.27 3.4 84.37 0 87.46z"/><path d="m544.02 559.85c0-28.74-.28-57.47 1.48-86.19 1.8 28.79 1.45 57.57 1.53 86.35-1-.05-2.01-.1-3.01-.15z"/><path d="m599.49 631.33c1.69-.22 3.81-1.22 4.99-.54 9.73 5.59 17.19 13.36 20.96 24.12.36 1.02-1.16 2.7-2.24 5.01-6.15-11.65-13.62-20.26-23.52-26.69-.06-.63-.12-1.27-.18-1.9z"/><path d="m421.6 633.05c-11.44 5.48-18.86 14.69-24.43 25.64-.51.04-1.02.07-1.53.11-.23-1.85-1.22-4.02-.58-5.49 4.31-9.85 11.48-17.24 20.57-22.87 3.05-1.89 4.84-1.01 5.98 2.61z"/><path d="m569.31 753.99c0-6.17-.21-10.43.16-14.64.08-.95 2.23-2.37 3.43-2.37 1.19 0 3.24 1.35 3.43 2.38.6 3.23 1.33 6.85.39 9.79-.6 1.87-4.1 2.8-7.41 4.84z"/><path d="m581.42 749.68c0-4.25-.32-8.22.18-12.09.17-1.28 2.35-2.8 3.87-3.18.73-.18 2.39 1.88 3.01 3.21.59 1.27.43 2.91.53 4.4.42 6.54-.14 7.14-7.59 7.66z"/><path d="m543.99 755.63c.45-4.71.54-9.15 1.49-13.41.27-1.19 3.06-1.82 5.39-3.09.54 4.13 1.09 7.04 1.26 9.96.39 6.55.06 6.79-8.14 6.53z"/><path d="m468.47 740.83c4.31-.99 7.29-.84 6.85 4.59-.14 1.78.52 3.62.53 5.44.01 2.17.83 4.9-3.12 4.77-3.4-.11-5.44-1.13-5.06-4.95.31-3.13.51-6.26.8-9.85z"/><path d="m487.63 756.08c-7.54.8-8.51-.21-7.28-7 .32-1.78.19-3.74.91-5.33.52-1.15 2.05-2.37 3.25-2.51.94-.11 2.9 1.32 2.97 2.18.32 4.08.14 8.2.14 12.65z"/><path d="m432.03 734.72c4.45-.16 7.36.69 6.75 5.98-.34 2.88.17 5.85.3 8.78-7.32.25-8.75-1.19-7.99-7.45.28-2.28.59-4.57.94-7.31z"/><path d="m539.93 751.19c.08 3.02.1 6.12-4.21 5.4-1.25-.21-3.14-1.91-3.18-2.98-.14-3.6.27-7.25.85-10.82.12-.75 1.94-1.78 2.87-1.69.94.09 2.3 1.29 2.54 2.23.64 2.55.78 5.23 1.12 7.85z"/><path d="m463.75 754.52c-3.61-1.24-7.78 1.21-8.69-3.85-.66-3.68.35-6.35 5.18-5.82-1.61-1.81-2.84-3.18-4.06-4.56 2.07-.41 4.14-.82 6.51-1.29.38 5.56.7 10.21 1.06 15.52z"/><path d="m443.64 741.99c1.61.26 2.87.47 4.13.67l.82-1.29c-1.66-1.03-3.33-2.07-4.93-3.06 6.13-1.21 6.8-.74 7.09 4.84.16 3.05.4 6.09.6 9.22-9.3-.46-9.81-1.18-7.71-10.37z"/><path d="m598.3 731.6c3.22 11.79 2.65 13.57-4.63 14.63-2-9.25-.49-14.02 4.63-14.63z"/><path d="m426.91 746.61c-6.94-.99-8.03-3.92-5.49-14.38 3.98-.69 5.73.9 5.52 5.04-.16 3.09-.03 6.2-.03 9.35z"/><path d="m556.95 742.03c2.31.98 4.55 1.94 7.49 3.19 2.97 6.84 1.49 9.05-7.49 8.92v-12.1z"/><path d="m526.98 741.89c.24 4.06.71 7.87.53 11.66-.06 1.25-1.84 2.41-2.83 3.62-.97-1.2-2.63-2.34-2.77-3.63-.3-2.77.4-5.63.3-8.44-.11-3.29 1.27-4.17 4.76-3.2z"/><path d="m497.62 749.2c0 .99.28 2.08-.06 2.94-.66 1.66-1.66 3.19-2.53 4.78-.8-1.67-2.06-3.28-2.29-5.03-.32-2.4-.15-4.97.35-7.35.25-1.2 1.69-2.14 2.59-3.2.6 1.14 1.47 2.23 1.73 3.45.3 1.42.07 2.94.07 4.42h.13z"/><path d="m604.88 742.54c-1.81-9.24-.89-12.96 3.27-13.81 2.85 9.6 2.29 12.21-3.27 13.81z"/><path d="m405.34 738.75c-4.75-3.31-5.41-6.31-3.34-13.73 4.83.75 5.78 4.41 3.34 13.73z"/><path d="m412.95 727.64c3.46 5.22 2.75 9.96 2.72 14.68-6.35-.56-6.81-2.71-2.72-14.68z"/><path d="m618.47 724.79c-1.55 5.12 3.04 10.45-3.02 14.14-2.34-6.69-1.42-12.44 3.02-14.14z"/><path d="m510.1 523.77c-1.82-1.88-3.05-3.15-4.28-4.42 1.67-.83 3.26-2.08 5.02-2.38 1.98-.34 5.03-.54 4.34 2.8-.28 1.36-2.76 2.27-5.08 4.01z"/><path d="m505.58 742.54c.23 4 .53 8.01.59 12.02 0 .57-1.22 1.16-1.87 1.74-.48-.58-1.37-1.17-1.36-1.75.05-4.01.29-8.01.46-12.01.73 0 1.45.01 2.18.02z"/><path d="m511.35 509.02c0-2.73-.22-5.48.11-8.16.13-1.03 1.5-1.9 2.31-2.85.75 1.22 2.33 2.63 2.1 3.63-.59 2.63-1.97 5.08-3.03 7.6-.5-.07-1-.14-1.49-.21z"/><path d="m516.75 741.9v15.12c-.48.01-.96.03-1.45.04-2.11-4.96-.22-10.08-.37-15.11z"/><path d="m434.47 818.87c-7.43-1.73-14.87-3.46-22.3-5.18.1-.43.19-.86.29-1.29l22.29 5.22c-.09.42-.19.83-.28 1.25z"/><path d="m545.68 570.21c-1.6-1.75-2.63-2.88-3.67-4 1.3-.67 2.63-1.91 3.91-1.86 1.5.06 2.95 1.24 4.42 1.93-1.32 1.11-2.63 2.22-4.66 3.94z"/><path d="m471.66 571.13c-.55-1.54-1.99-3.7-1.44-4.47.86-1.23 3-1.92 4.68-2.09 1.03-.11 2.21 1.18 3.32 1.84-1.32 1.15-2.65 2.3-3.97 3.45-.86.42-1.72.85-2.59 1.27z"/><path d="m507.72 497.6c.45 4.15.8 7.35 1.16 10.56l-1.26.53c-1.11-2.94-2.31-5.85-3.18-8.86-.09-.33 1.76-1.22 3.28-2.22z"/></g><path d="m433.61 199.61c22.23-16.38 47.03-26.97 75.54-30.85v-64.16l1.56-.05c.16 2.86.44 5.71.47 8.57.16 16.99.35 33.97.3 50.96 0 3.63.76 4.99 4.81 5.48 21 2.52 39.93 10.98 58.07 21.4 2.89 1.66 5.72 3.41 8.55 5.15.39.24.63.71 1.82 2.12-8.11-3.88-14.89-7.63-22.05-10.43-13.15-5.13-26.37-10.18-39.85-14.31-9.54-2.92-19.47-1.74-29.12.86-18.74 5.04-36.42 12.66-53.44 21.89-2.19 1.19-4.44 2.25-6.67 3.37z"/><path d="m483.78 630.07h-22.74c-.03-.19-.06-.38-.08-.57h22.8c0 .19.02.38.03.57z"/></svg>