<svg xmlns="http://www.w3.org/2000/svg" xmlns:xlink="http://www.w3.org/1999/xlink" width="1200" height="600" fill="none"><defs><linearGradient id="a"><stop offset="0" stop-color="#2368c4"/><stop offset="1" stop-color="#1248ae"/></linearGradient><linearGradient xlink:href="#a" id="f" x1="568.4" x2="594.4" y1="147.3" y2="158.3" gradientUnits="userSpaceOnUse"/><linearGradient id="b"><stop offset="0" stop-color="#18874e"/><stop offset="1" stop-color="#0b6832"/></linearGradient><linearGradient xlink:href="#b" id="i" x1="602" x2="622.7" y1="138.4" y2="160.3" gradientUnits="userSpaceOnUse"/><linearGradient id="c"><stop offset="0" stop-color="#73d8ff"/><stop offset="1" stop-color="#59c6f6"/></linearGradient><linearGradient xlink:href="#c" id="j" x1="609" x2="609" y1="158" y2="207" gradientUnits="userSpaceOnUse"/><linearGradient xlink:href="#a" id="m" x1="830.5" x2="856.5" y1="426.3" y2="437.3" gradientUnits="userSpaceOnUse"/><linearGradient xlink:href="#b" id="p" x1="864.1" x2="884.8" y1="417.4" y2="439.3" gradientUnits="userSpaceOnUse"/><linearGradient xlink:href="#c" id="q" x1="871.1" x2="871.1" y1="437" y2="486" gradientUnits="userSpaceOnUse"/><linearGradient id="s" x1="1118.3" x2="1118.3" y1="409" y2="478.9" gradientUnits="userSpaceOnUse"><stop offset="0" stop-color="#fff"/><stop offset="1" stop-color="#fff" stop-opacity="0"/></linearGradient><linearGradient id="u" x1="296" x2="296" y1="465" y2="416" gradientUnits="userSpaceOnUse"><stop offset="0" stop-color="#73d8ff"/><stop offset="1" stop-color="#00a3eb"/></linearGradient><linearGradient xlink:href="#c" id="v" x1="296" x2="296" y1="429" y2="478" gradientUnits="userSpaceOnUse"/><linearGradient xlink:href="#a" id="y" x1="289.4" x2="315.4" y1="157.3" y2="168.3" gradientUnits="userSpaceOnUse"/><linearGradient xlink:href="#b" id="B" x1="323" x2="343.7" y1="148.4" y2="170.3" gradientUnits="userSpaceOnUse"/><linearGradient xlink:href="#c" id="C" x1="330" x2="330" y1="168" y2="217" gradientUnits="userSpaceOnUse"/><clipPath id="d"><path d="m564.7 138.6 37.1-13.6 13.6 37.2-37.1 13.6z"/></clipPath><clipPath id="g"><path d="m602 128.4 40.3 2.3-2.1 39.5-40.4-2.2z"/></clipPath><clipPath id="k"><path d="M826.8 417.6 864 404l13.5 37.2-37.1 13.6z"/></clipPath><clipPath id="n"><path d="m864.1 407.4 40.4 2.3-2.2 39.5L862 447z"/></clipPath><clipPath id="t"><path d="m140.4 170.5 34.9-2.9 3.3 39.9-34.9 2.9z"/></clipPath><clipPath id="w"><path d="m285.7 148.6 37.1-13.6 13.6 37.2-37.1 13.6z"/></clipPath><clipPath id="z"><path d="m323 138.4 40.3 2.3-2.1 39.5-40.4-2.2z"/></clipPath><pattern id="e" width="1" height="1" patternContentUnits="objectBoundingBox"><use xlink:href="#a" transform="scale(0)"/></pattern><pattern id="h" width="1" height="1" patternContentUnits="objectBoundingBox"><use xlink:href="#b" transform="scale(0)"/></pattern><pattern id="l" width="1" height="1" patternContentUnits="objectBoundingBox"><use xlink:href="#a" transform="scale(0)"/></pattern><pattern id="o" width="1" height="1" patternContentUnits="objectBoundingBox"><use xlink:href="#b" transform="scale(0)"/></pattern><pattern id="x" width="1" height="1" patternContentUnits="objectBoundingBox"><use xlink:href="#a" transform="scale(0)"/></pattern><pattern id="A" width="1" height="1" patternContentUnits="objectBoundingBox"><use xlink:href="#b" transform="scale(0)"/></pattern><mask id="r" width="65" height="70" x="1086" y="409" maskUnits="userSpaceOnUse"><path fill="#fff" d="M1131.8 478.6a4 4 0 0 0 3.2-.1l13.2-7a4.4 4.4 0 0 0 2.3-4v-47.1c0-1.7-.9-3.3-2.3-4l-13.3-7a3.7 3.7 0 0 0-4.5.9l-25.4 25.3-11-9.2c-1-.9-2.5-.8-3.5.2l-3.5 3.5a3.1 3.1 0 0 0 0 4.3l9.6 9.6-9.6 9.5a3.1 3.1 0 0 0 0 4.3l3.5 3.6c1 .9 2.4 1 3.5.1l11-9.1 25.4 25.2c.4.5.9.8 1.4 1zm2.6-50.6-19.3 16 19.3 16z"/></mask></defs><path fill="#fff" d="M0 0h1200v600H0z"/><rect width="233" height="557" x="454" y="31" fill="#f6f6f6" rx="8"/><path fill="#eb1000" d="m553 373.1 1-.1zm39.7-.3 1 .1zm21-152.4a1 1 0 0 0-1.3-.2l-7.2 5.5a1 1 0 1 0 1.3 1.6l6.3-4.9 4.9 6.4a1 1 0 1 0 1.6-1.3zm-85.7.8.2 1.4 2-.3-.2-1.5zm.7 4.3.5 3 2-.3-.5-3zm1 5.9.4 3 2-.4-.5-3zm.9 5.8.4 3 2-.3-.5-3zm.9 5.9.4 3 2-.4-.4-3zm.9 5.9.5 2.9 2-.3-.5-3zm1 5.8.4 3 2-.4-.5-3zm.8 5.9.5 2.9 2-.3-.5-3zm1 5.8.4 3 2-.4-.5-3zm.9 5.9.5 2.9 2-.3-.5-3zm1 5.8.4 3 2-.4-.5-3zm.8 5.9.5 2.9 2-.3-.5-3zm1 5.8.4 3 2-.4-.5-2.9zm.9 5.9.5 2.9 2-.3-.5-3zm1 5.8.4 3 2-.4-.5-2.9zm.8 5.9.5 2.9 2-.3-.5-3zm1 5.8.4 3 2-.4-.5-2.9zm.9 5.9.5 2.9 2-.3-.5-3zm1 5.8.4 3 2-.4-.5-2.9zm.8 5.9.5 2.9 2-.3-.5-3zm1 5.8.4 3 2-.4-.5-2.9zm.9 5.9.4 2.9 2-.3-.4-3zm1 5.8.4 3 2-.4-.5-2.9zm.8 5.9.5 2.9 2-.3-.5-3zm1 5.8.4 3 2-.4-.5-2.9zm.9 5.9.4 2.9 2-.3-.4-3zm1 5.8.1 1.5 2-.3-.2-1.5zm.1 1.5.4 1.6 1.9-.5-.3-1.4zm1.4 4.6c.5 1 1 2 1.6 2.8l1.6-1.2-1.4-2.4zm3.7 5.2c.7.8 1.6 1.4 2.5 2l1-1.6-2.1-1.8zm5.2 3.6 3 1.2.6-2c-1-.2-1.9-.6-2.7-1zm6 2 3.2.3v-2c-1 0-1.9-.2-2.8-.4zm6.3.2c1 0 2.1-.2 3.1-.4l-.4-2a9 9 0 0 1-2.8.4zm6.2-1.2 3-1.2-1-1.7-2.6 1zm5.6-2.8c1-.6 1.7-1.3 2.5-2l-1.4-1.5-2.2 1.9zm4.5-4.5 1.6-2.8-1.9-.8-1.3 2.5zm2.5-5.9.3-1.6-2-.2-.2 1.4zm.3-1.6.2-1.4-2-.3-.2 1.5zm.6-4.4.4-2.9-2-.2-.4 2.9zm.8-5.8.4-3-2-.2-.4 3zm.8-5.8.3-3-2-.2-.3 2.9zm.7-5.9.4-2.9-2-.3-.4 3zm.8-5.8.4-3-2-.2-.4 3zm.8-5.9.4-2.9-2-.2-.4 2.9zm.8-5.8.4-3-2-.2-.4 3zm.8-5.8.3-3-2-.2-.3 3zm.7-5.9.4-2.9-2-.2-.3 2.9zm.8-5.8.4-3-2-.2-.4 3zm.8-5.8.4-3-2-.2-.4 2.9zm.8-5.9.4-2.9-2-.3-.4 3zm.8-5.8.3-3-2-.2-.3 3zm.7-5.9.4-2.9-2-.2-.3 2.9zm.8-5.8.4-3-2-.2-.4 3zm.8-5.8.4-3-2-.2-.4 3zm.8-5.9.4-2.9-2-.3-.4 3zm.8-5.8.3-3-2-.2-.3 3zm.7-5.8.4-3-2-.2-.3 2.9zm.8-5.9.4-2.9-2-.3-.4 3zm.8-5.8.4-3-2-.2-.4 3zm.8-5.9.4-2.9-2-.2-.4 2.9zm.8-5.8.3-3-2-.2-.3 3zm.7-5.8.4-3-2-.2-.3 2.9zm.8-5.9.4-2.9-2-.3-.4 3zm.8-5.8.2-1.5-2-.2-.2 1.4zM553 373l1-.1zm39.7-.3 1 .1zm21-152.4a1 1 0 0 0-1.3-.2l-7.2 5.5a1 1 0 1 0 1.3 1.6l6.3-4.9 4.9 6.4a1 1 0 1 0 1.6-1.3zm-85.7.8.2 1.4 2-.3-.2-1.5zm.7 4.3.5 3 2-.3-.5-3zm1 5.9.4 3 2-.4-.5-3zm.9 5.8.4 3 2-.3-.5-3zm.9 5.9.4 3 2-.4-.4-3zm.9 5.8.5 3 2-.3-.5-3zm1 5.9.4 3 2-.4-.5-3zm.8 5.9.5 2.9 2-.3-.5-3zm1 5.8.4 3 2-.4-.5-3zm.9 5.9.5 2.9 2-.3-.5-3zm1 5.8.4 3 2-.4-.5-3zm.8 5.9.5 2.9 2-.3-.5-3zm1 5.8.4 3 2-.4-.5-2.9zm.9 5.9.5 2.9 2-.3-.5-3zm1 5.8.4 3 2-.4-.5-2.9zm.8 5.9.5 2.9 2-.3-.5-3zm1 5.8.4 3 2-.4-.5-2.9zm.9 5.9.5 2.9 2-.3-.5-3zm1 5.8.4 3 2-.4-.5-2.9zm.8 5.9.5 2.9 2-.3-.5-3zm1 5.8.4 3 2-.4-.5-2.9zm.9 5.9.4 2.9 2-.3-.4-3zm1 5.8.4 3 2-.4-.5-2.9zm.8 5.9.5 2.9 2-.3-.5-3zm1 5.8.4 3 2-.4-.5-2.9zm.9 5.9.4 2.9 2-.3-.4-3zm1 5.8.1 1.5 2-.3-.2-1.5zm.1 1.5.4 1.6 1.9-.5-.3-1.4zm1.4 4.6c.5 1 1 2 1.6 2.8l1.6-1.2-1.4-2.4zm3.7 5.2c.7.8 1.6 1.4 2.5 2l1-1.6-2.1-1.8zm5.2 3.6 3 1.2.6-2c-1-.2-1.9-.6-2.7-1zm6 2 3.2.3v-2c-1 0-1.9-.2-2.8-.4zm6.3.2c1 0 2.1-.2 3.1-.4l-.4-2a9 9 0 0 1-2.8.4zm6.2-1.2 3-1.2-1-1.7-2.6 1zm5.6-2.8c1-.6 1.7-1.3 2.5-2l-1.4-1.5-2.2 1.9zm4.5-4.5 1.6-2.8-1.9-.8-1.3 2.5zm2.5-5.9.3-1.6-2-.2-.2 1.4zm.3-1.6.2-1.4-2-.3-.2 1.5zm.6-4.4.4-2.9-2-.2-.4 2.9zm.8-5.8.4-3-2-.2-.4 3zm.8-5.8.3-3-2-.2-.3 2.9zm.7-5.9.4-2.9-2-.3-.4 3zm.8-5.8.4-3-2-.2-.4 3zm.8-5.9.4-2.9-2-.2-.4 2.9zm.8-5.8.4-3-2-.2-.4 3zm.8-5.8.3-3-2-.2-.3 3zm.7-5.9.4-2.9-2-.2-.3 2.9zm.8-5.8.4-3-2-.2-.4 3zm.8-5.8.4-3-2-.2-.4 2.9zm.8-5.9.4-2.9-2-.3-.4 3zm.8-5.8.3-3-2-.2-.3 3zm.7-5.9.4-2.9-2-.2-.3 2.9zm.8-5.8.4-3-2-.2-.4 3zm.8-5.8.4-3-2-.2-.4 3zm.8-5.9.4-2.9-2-.3-.4 3zm.8-5.8.3-3-2-.2-.3 3zm.7-5.8.4-3-2-.2-.3 2.9zm.8-5.9.4-2.9-2-.3-.4 3zm.8-5.8.4-3-2-.2-.4 3zm.8-5.9.4-2.9-2-.2-.4 2.9zm.8-5.8.3-3-2-.2-.3 3zm.7-5.8.4-3-2-.2-.3 2.9zm.8-5.9.4-2.9-2-.3-.4 3zm.8-5.8.2-1.5-2-.2-.2 1.4z"/><text fill="#000" font-family="Helvetica" font-size="16" font-weight="bold" letter-spacing="0em" transform="translate(532 507)"><tspan x=".3" y="14.5">fstab.yaml</tspan></text><text xml:space="preserve" fill="#2b2b2b" font-family="Helvetica" font-size="14" letter-spacing="0em" transform="translate(486 530)"><tspan x=".1" y="13.8">Replace existing mountpoint </tspan><tspan x="9.4" y="31.8">URL with new folder URL </tspan></text><text fill="#000" font-family="Helvetica" font-size="17" font-weight="bold" letter-spacing="0em" transform="translate(510 54)"><tspan x="61.1" y="38.9">content</tspan></text><text xml:space="preserve" fill="#000" font-family="Helvetica" font-size="17" font-weight="bold" letter-spacing="0em" transform="translate(510 54)"><tspan x=".5" y="38.9">code </tspan></text><text xml:space="preserve" fill="#000" font-family="Helvetica" font-size="17" letter-spacing="0em" transform="translate(510 54)"><tspan x="29.8" y="16.9">Connect </tspan><tspan x="43.2" y="38.9">to </tspan></text><path fill="#f6f6f6" d="M499 278h143v44H499z"/><text xml:space="preserve" fill="#ec1000" font-family="Helvetica" font-size="14" font-weight="bold" letter-spacing="0em" transform="translate(499 282)"><tspan x="79.3" y="13.8">URL + ID </tspan></text><text xml:space="preserve" fill="#ec1000" font-family="Helvetica" font-size="14" letter-spacing="0em" transform="translate(499 282)"><tspan x="7.1" y="13.8">Copy folder </tspan><tspan x=".1" y="31.8">to repo mountpoint URL</tspan></text><circle cx="570.5" cy="27.5" r="14.5" fill="#000"/><text fill="#fff" font-family="Helvetica" font-size="17" font-weight="bold" letter-spacing="0em"><tspan x="565.8" y="33.4">5</tspan></text><ellipse cx="525.1" cy="165" fill="#fff" rx="39.1" ry="40"/><path fill="#161614" fill-rule="evenodd" d="M525 125a40 40 0 0 0-39 41 40.9 40.9 0 0 0 26.7 39c2 .3 2.7-1 2.7-2v-7.7c-11 2.5-13.2-4.8-13.2-4.8-1.8-4.8-4.4-6-4.4-6-3.5-2.6.3-2.5.3-2.5 4 .3 6 4.2 6 4.2 3.5 6.3 9.1 4.5 11.4 3.4a8.9 8.9 0 0 1 2.4-5.5c-8.6-1-17.8-4.5-17.8-20.2 0-4.5 1.6-8.2 4-11-.3-1-1.7-5.2.4-10.9 0 0 3.3-1 10.8 4.2a35.7 35.7 0 0 1 19.5 0c7.5-5.3 10.8-4.2 10.8-4.2 2.1 5.7.8 9.8.4 10.9 2.5 2.8 4 6.5 4 11 0 15.7-9.2 19.2-17.9 20.2 1.4 1.3 2.7 3.8 2.7 7.6V203c0 1 .6 2.3 2.6 2a40.9 40.9 0 0 0 26.7-39 40 40 0 0 0-39-41zm-24.4 58.4c0 .2-.4.3-.6.1-.3 0-.5-.4-.4-.6 0-.2.4-.2.7-.1.3.1.4.4.3.6zm2 1.8c-.2.2-.6.1-.8-.2-.3-.3-.4-.6-.2-.8.2-.2.6-.1.8.2.3.3.3.6.1.8zm1.3 2.3c-.3.2-.7 0-.9-.3-.2-.4-.2-.8 0-1 .2-.2.6 0 .9.3.2.4.2.8 0 1zm2.2 2.7c-.2.2-.7.2-1-.2-.3-.3-.4-.8-.2-1 .2-.3.6-.2 1 .1.3.4.4.8.2 1zm2.9.9c-.1.3-.6.5-1 .3-.4-.1-.7-.5-.6-.8 0-.3.5-.5 1-.3.4 0 .7.5.6.8zm3.3.4c0 .3-.4.6-.9.6-.4 0-.8-.3-.8-.6s.3-.6.8-.6.9.2.9.6zm3.2-.2c0 .4-.3.7-.8.8-.4 0-.8-.1-.9-.4 0-.4.3-.7.7-.8.5 0 1 .1 1 .4z" clip-rule="evenodd"/><text style="opacity:.8;fill:#b9b9b9;font-family:Helvetica;font-size:14;font-weight:700;letter-spacing:-.02em" transform="translate(508 157)"><tspan x=".4" y="12.3">Repo</tspan></text><g clip-path="url(#d)"><path fill="#41a5ee" d="m600.2 125.6-25.3 9.3c-.9.3-1.3 1.3-1 2.3l12.4 33.7c.3 1 1.3 1.5 2.2 1.2l25.3-9.3c.9-.4 1.3-1.4 1-2.3l-12.3-33.8c-.4-1-1.4-1.5-2.3-1.1z"/><path fill="#103f91" d="M586.3 171c.3.9 1.3 1.4 2.2 1l25.3-9.2c.9-.4 1.3-1.4 1-2.3l-2.8-7.6-28.5 10.4z"/><path fill="#41a5ee" d="M602.5 126.7c-.4-1-1.4-1.5-2.3-1.1l-25.3 9.3c-.9.3-1.3 1.3-1 2.3l2.8 7.5 28.5-10.4-2.7-7.6z"/><path fill="#2b7cd3" d="m605.2 134.3-28.5 10.4 3.4 9.3 28.5-10.4z"/><path fill="#185abd" d="M608.6 143.6 580.1 154l3.4 9.3L612 153z"/><path fill="url(#e)" d="M0 0h13.5v25.4H0z" transform="matrix(1 -.3 .3 1 576.2 143.4)"/><path fill="url(#f)" d="m585.2 140.6-15.9 5.8c-.9.3-1.3 1.3-1 2.3l6.3 17c.3 1 1.3 1.5 2.2 1.2l15.9-5.8c.9-.4 1.3-1.4 1-2.3l-6.3-17.1c-.3-1-1.3-1.5-2.2-1.1z"/><path fill="#fff" d="m583.5 146.5 1 5.6s.5 3.2.8 4c-.3-.7-5.2-8.3-5.2-8.3l-2.2.8 1.4 9.7c-.3-.8-2-3.5-2-3.5l-3-5-2 .8 6.5 10.2 2.4-.9-1-7-.5-2.5 1.3 2.1 3.8 6 2.4-.8-1.6-12-2 .8z"/></g><path fill="#2685fd" fill-rule="evenodd" d="m587.5 129.6 16.4-1.7 10.7 8.8 2.7 27a3 3 0 0 1-2.5 3l-23.3 2.3c-1.6.2-3-1-3-2.4l-3.5-34c-.2-1.5 1-2.8 2.5-3z" clip-rule="evenodd"/><path fill="#0166da" fill-rule="evenodd" d="m604.8 137.7 9.8-1-10.7-8.8z" clip-rule="evenodd"/><path fill="#fff" fill-rule="evenodd" d="m592.4 144.4 16.5-1.7.3 2.2-16.6 1.6zm1 11 12-1.2.3 2-12 1.3zm-.5-5.5 16.6-1.7.2 2.1-16.6 1.7z" clip-rule="evenodd"/><g clip-path="url(#g)"><path fill="#185c37" d="m642.7 130.7-29-1.6c-1 0-1.8.7-1.9 1.8l-2 37.8c-.2 1.1.6 2 1.6 2l29 1.7a2 2 0 0 0 2-1.8l2-37.9c.1-1-.7-2-1.7-2z"/><path fill="#21a366" d="m628.7 130-15-1c-1 0-1.8.8-1.9 2l-.5 8.4 16.8 1z"/><path fill="#33c481" d="m644 141.2.4-8.5c0-1-.7-2-1.7-2l-14-.8-.6 10.4z"/><path fill="#107c41" d="m628.1 140.3-16.8-.9-.5 10.4 16.8 1z"/><path fill="#21a366" d="m644 141.2-15.9-.9-.6 10.5 15.9.9z"/><path fill="#107c41" d="m643.4 151.7-15.8-1-.6 10.5 15.8.9z"/><path fill="url(#h)" d="M0 0h14.5v26.8H0z" transform="translate(611.4 138)"/><path fill="url(#i)" d="m621.5 139-18.2-1.1c-1 0-1.8.7-1.9 1.8l-1 19.2c-.1 1 .6 2 1.7 2l18.1 1a2 2 0 0 0 2-1.8l1-19.2c0-1-.7-2-1.7-2z"/><path fill="#fff" d="m612 148.5-2-5-2.9-.1 3.2 6.4-4.2 6 2.8.2 2.8-4.9 2.2 5.1 2.7.2-3.3-6.4 4-6-2.6-.2z"/></g><path fill="#01ac46" fill-rule="evenodd" d="m628 130.3 15.8 5 6.4 12.3-8.2 25.8c-.5 1.4-2 2.2-3.5 1.7l-22.4-7c-1.4-.6-2.2-2.1-1.8-3.5l10.3-32.6c.5-1.4 2-2.2 3.5-1.7z" clip-rule="evenodd"/><path fill="#00852c" fill-rule="evenodd" d="m640.9 144.6 9.3 3-6.4-12.3z" clip-rule="evenodd"/><path fill="#fff" fill-rule="evenodd" d="m625.9 145.5 17.6 5.7-4 12.5L622 158zm-.1 8.3 5.3 1.7-.8 2.6-5.3-1.7zm1.6-5.2 5.4 1.7-.9 2.6-5.3-1.7zm6 7.7 5.4 1.7-.9 2.6-5.2-1.7zm1.7-5.2 5.3 1.7-.8 2.6-5.3-1.7z" clip-rule="evenodd"/><rect width="78" height="49" x="570" y="158" fill="url(#j)" stroke="#43b8ea" stroke-width=".5" rx="4"/><text style="opacity:.8;fill:#09f;font-family:Adobe Clean;font-size:20;font-weight:800;letter-spacing:-.02em" transform="translate(579 170)"><tspan x=".1" y="18.7">url + id</tspan></text><path fill="#000" fill-rule="evenodd" d="M552.5 461a1 1 0 0 1-1-1v-9.2l-4.7-8.5a1 1 0 0 1 .4-1.5 1 1 0 0 1 1.4.4l4 7.2 4-7.2a1 1 0 0 1 1.3-.4c.5.3.6 1 .4 1.5l-4.7 8.5v9.2c-.2.6-.6 1-1.1 1zm26 0c-.6 0-1-.4-1-1v-15.7L572 450a1 1 0 0 1-1.4 0l-5.7-5.7V460c0 .5-.4 1-1 1s-1-.5-1-1v-18.4c0-.4.3-.7.7-.9.4-.2.9 0 1.1.2l6.7 6.9 6.7-6.9c.3-.3.7-.4 1.1-.2.3.2.6.5.6 1V460c-.3.6-.7 1-1.2 1zm15.5 0h-8.5a1 1 0 0 1-1-1v-18.3c0-.5.5-1 1-1s1 .5 1 1V459h7.5c.5 0 1 .4 1 1 0 .5-.5 1-1 1zm1.7 24H546a3.5 3.5 0 0 1-3.4-3.6v-15c0-.5.4-1 1-1s.9.5.9 1v15c0 .8.6 1.5 1.4 1.5h49.7c.9 0 1.5-.7 1.5-1.5v-15c0-.5.4-1 1-1s.9.5.9 1v15c0 2-1.4 3.6-3.3 3.6zm2.4-48.7a1 1 0 0 1-1-1v-10.4l-12.3-12.8H546c-.8 0-1.4.7-1.4 1.5v21.7c0 .6-.4 1-1 1s-1-.4-1-1v-21.7c0-2 1.6-3.6 3.5-3.6h39.3c.3 0 .4.2.6.3l13 13.5c.2.2.2.4.2.7v10.8c-.1.6-.5 1-1 1z" clip-rule="evenodd"/><path fill="#000" fill-rule="evenodd" d="M598.1 425.5h-11c-1.5 0-2.8-1.4-2.8-3V411c0-.4.2-.8.6-1 .3 0 .8 0 1.1.3l12.9 13.5c.3.3.3.7.2 1.1-.2.4-.6.6-1 .6zm-11.9-12v9c0 .5.5.9 1 .9h8.5zm14 54h-58.7c-2 0-3.5-1.6-3.5-3.5v-26.1c0-2 1.6-3.6 3.5-3.6h58.7c2 0 3.4 1.7 3.4 3.6v26c.1 2-1.5 3.6-3.4 3.6zm-58.7-31.2c-.9 0-1.5.8-1.5 1.5v26c0 1 .7 1.6 1.5 1.6h58.7c.8 0 1.4-.7 1.4-1.5v-26c0-.8-.7-1.5-1.4-1.5h-58.7zm34.6-7h-23.5a1 1 0 0 1-1-1v-8.8c0-.6.4-1 1-1h23.5c.6 0 1 .4 1 1v8.7c0 .6-.4 1-1 1zm-22.5-2.1h21.6v-6.8h-21.6zm36.4 45.3h-9c-.5 0-1-.4-1-1s.5-1 1-1h8.9c.5 0 1 .4 1 1s-.5 1-1 1zm-13.4 0h-6.8c-.6 0-1-.4-1-1s.4-1 1-1h6.8c.6 0 1 .4 1 1s-.4 1-1 1zm-11.3 0h-13.6c-.6 0-1-.4-1-1s.4-1 1-1h13.6c.5 0 .9.4.9 1s-.4 1-1 1zm24.7 6.2h-6a1 1 0 0 1-1-1c0-.6.5-1 1-1h5.9c.5 0 1 .4 1 1 0 .5-.5 1-1 1zm-10.5 0h-11a1 1 0 0 1-1-1c0-.6.5-1 1-1h11c.6 0 1 .4 1 1 0 .5-.4 1-1 1zm-15.5 0h-12.3a1 1 0 0 1-1-1c0-.6.4-1 1-1H564c.6 0 1 .4 1 1 0 .5-.4 1-1 1z" clip-rule="evenodd"/><rect width="233" height="557" x="710" y="31" fill="#f6f6f6" rx="8"/><path fill="#eb1000" d="M790.2 388.6c.4.5 1 .5 1.4.2l7.1-5.6a1 1 0 0 0-1.2-1.5l-6.3 4.9-5-6.3a1 1 0 0 0-1.5 1.2zm21.1-165.5 1 .1zm33.6.4-1 .1zm16.5 165.3c.4.3 1 .3 1.4-.2l5.6-7a1 1 0 0 0-1.5-1.2l-5 6.2-6.3-5a1 1 0 0 0-1.2 1.5zM792 388l.2-1.4-2-.3-.2 1.5zm.5-4.4.4-3-2-.2-.3 3zm.8-5.9.3-3-2-.2-.3 3zm.7-5.9.3-3-2-.2-.3 3zm.7-5.9.4-2.9-2-.2-.4 2.9zm.7-5.8.4-3-2-.2-.3 3zm.8-6 .3-2.9-2-.2-.3 3zm.7-5.8.4-3-2-.2-.4 3zm.7-6 .4-2.9-2-.2-.4 3zm.7-5.8.4-3-2-.2-.3 3zm.8-5.9.3-3-2-.2-.3 3zm.7-5.9.4-3-2-.2-.4 3zm.7-5.9.4-3-2-.2-.4 3zm.7-5.9.4-3-2-.2-.3 3zm.8-5.8.3-3-2-.2-.3 3zm.7-6 .4-2.9-2-.2-.4 3zm.7-5.8.4-3-2-.2-.4 3zm.7-6 .4-2.9-2-.2-.3 3zm.8-5.8.3-3-2-.2-.3 3zm.7-5.9.4-3-2-.2-.4 3zm.7-5.9.4-3-2-.2-.4 3zm.7-5.9.4-3-2-.2-.3 3zm.8-5.9.3-3-2-.1-.3 2.9zm.7-5.8.4-3-2-.2-.4 3zm.7-6 .4-2.9-2-.2-.4 3zm.7-5.8.4-3-2-.2-.3 3zm.8-6 .3-2.9-2-.2-.3 3zm.7-5.8.4-3-2-.2-.4 3zm.7-5.9.2-1.5-2-.2-.2 1.5zm.2-1.5.2-1.3-2-.4-.2 1.5zm.9-4 1-2.5-1.8-.9-1.1 2.8zm2.4-4.8c.5-.7 1-1.4 1.7-2l-1.4-1.5-2 2.3zm3.8-3.7c.7-.6 1.5-1 2.3-1.4l-.8-1.8c-1 .4-1.8 1-2.7 1.5zm4.8-2.2c1-.3 1.8-.4 2.7-.5l-.2-2-3 .5zm5.4-.4c.9 0 1.8.2 2.6.5l.6-2-3-.5zm5.1 1.4c.8.4 1.6.8 2.3 1.4l1.2-1.7c-.8-.6-1.7-1-2.6-1.5zm4.4 3.1 1.7 2.1 1.6-1.1c-.6-.9-1.2-1.7-1.9-2.4zm3 4.4 1 2.6 1.9-.6-1-2.8zm1.6 5.2.2 1.4 2-.2-.2-1.5zm.2 1.4.1 1.5 2-.2-.1-1.5zm.4 4.4.3 3 2-.3-.3-3zm.6 5.9.3 3 2-.3-.3-3zm.6 5.9.4 2.9 2-.2-.4-3zm.7 5.8.3 3 2-.2-.4-3zm.6 5.9.3 3 2-.3-.3-2.9zm.6 5.9.3 3 2-.3-.3-3zm.6 5.9.3 2.9 2-.2-.3-3zm.6 5.8.3 3 2-.2-.3-3zm.6 5.9.3 3 2-.3-.3-2.9zm.6 5.9.3 3 2-.3-.3-3zm.6 5.9.3 2.9 2-.2-.3-3zm.7 5.8.3 3 2-.2-.4-3zm.6 5.9.3 3 2-.3-.3-2.9zm.6 5.9.3 3 2-.3-.3-3zm.6 5.9.3 2.9 2-.2-.3-3zm.6 5.8.3 3 2-.2-.3-3zm.6 6 .3 2.8 2-.2-.3-2.9zm.6 5.8.3 3 2-.3-.3-3zm.6 5.9.3 2.9 2-.2-.3-3zm.7 5.8.3 3 2-.2-.4-3zm.6 6 .3 2.8 2-.2-.3-2.9zm.6 5.8.3 3 2-.3-.3-3zm.6 5.9.3 2.9 2-.2-.3-3zm.6 5.8.3 3 2-.2-.3-3zm.6 6 .3 2.8 2-.2-.3-2.9zm.6 5.8.3 3 2-.3-.3-3zm.6 5.9.3 2.9 2-.2-.3-3zm.7 5.8.1 1.5 2-.2-.2-1.5zm-70.7 2c.4.5 1 .5 1.4.2l7.1-5.6a1 1 0 0 0-1.2-1.5l-6.3 4.9-5-6.3a1 1 0 0 0-1.5 1.2zM811.3 223l1 .1zm33.6.4h-1zm16.5 165.3c.4.3 1 .3 1.4-.2l5.6-7a1 1 0 0 0-1.5-1.2l-5 6.2-6.3-5a1 1 0 0 0-1.2 1.5zM792 388l.2-1.5-2-.2-.2 1.5zm.5-4.4.4-3-2-.2-.3 3zm.8-5.9.3-3-2-.2-.3 3zm.7-5.9.4-3-2-.2-.4 3zm.7-5.9.4-3-2-.2-.4 3zm.7-5.9.4-2.9-2-.2-.3 3zm.8-5.8.3-3-2-.2-.3 3zm.7-6 .4-2.9-2-.2-.4 3zm.7-5.8.4-3-2-.2-.4 3zm.7-6 .4-2.9-2-.2-.3 3zm.8-5.8.3-3-2-.2-.3 3zm.7-5.9.4-3-2-.2-.4 3zm.7-5.9.4-3-2-.2-.4 3zm.7-5.9.4-3-2-.2-.3 3zm.8-5.8.3-3-2-.2-.3 3zm.7-6 .4-2.9-2-.2-.4 3zm.7-5.8.4-3-2-.2-.4 3zm.7-6 .4-2.9-2-.2-.3 3zm.8-5.8.3-3-2-.2-.3 3zm.7-5.9.4-3-2-.2-.4 3zm.7-5.9.4-3-2-.2-.4 3zm.7-5.9.4-3-2-.2-.3 3zm.8-5.9.3-3-2-.1-.3 2.9zm.7-5.8.4-3-2-.2-.4 3zm.7-6 .4-2.9-2-.2-.4 3zm.7-5.8.4-3-2-.2-.3 3zm.8-6 .3-2.9-2-.2-.3 3zm.7-5.8.4-3-2-.2-.4 3zm.7-5.9.2-1.5-2-.2-.2 1.5zm.2-1.5.2-1.3-2-.4-.2 1.5zm.9-4 1-2.5-1.8-.9-1.1 2.8zm2.4-4.8c.5-.7 1-1.4 1.7-2l-1.4-1.5-2 2.3zm3.8-3.7c.7-.6 1.5-1 2.3-1.4l-.8-1.8c-1 .4-1.8 1-2.7 1.5zm4.8-2.2c1-.3 1.8-.4 2.7-.5l-.2-2-3 .5zm5.4-.4c.9 0 1.8.2 2.6.5l.6-2-3-.5zm5.1 1.4c.8.4 1.6.8 2.3 1.4l1.2-1.7c-.8-.6-1.7-1-2.6-1.5zm4.4 3.1 1.7 2.1 1.6-1.1c-.6-.9-1.2-1.7-1.9-2.4zm3 4.4 1 2.6 1.9-.6-1-2.8zm1.6 5.2.2 1.4 2-.2-.2-1.5zm.2 1.4.1 1.5 2-.2-.1-1.5zm.4 4.4.3 3 2-.3-.3-3zm.6 5.9.3 3 2-.3-.3-3zm.6 5.9.4 2.9 2-.2-.4-3zm.7 5.8.3 3 2-.2-.4-3zm.6 5.9.3 3 2-.3-.3-2.9zm.6 5.9.3 3 2-.3-.3-3zm.6 5.9.3 2.9 2-.2-.3-3zm.6 5.8.3 3 2-.2-.3-3zm.6 5.9.3 3 2-.3-.3-2.9zm.6 5.9.3 3 2-.3-.3-3zm.6 5.9.3 2.9 2-.2-.3-3zm.7 5.8.3 3 2-.2-.4-3zm.6 5.9.3 3 2-.3-.3-2.9zm.6 5.9.3 3 2-.3-.3-3zm.6 5.9.3 2.9 2-.2-.3-3zm.6 5.8.3 3 2-.2-.3-3zm.6 6 .3 2.8 2-.2-.3-2.9zm.6 5.8.3 3 2-.3-.3-3zm.6 5.9.3 2.9 2-.2-.3-3zm.7 5.8.3 3 2-.2-.4-3zm.6 6 .3 2.8 2-.2-.3-2.9zm.6 5.8.3 3 2-.3-.3-3zm.6 5.9.3 2.9 2-.2-.3-3zm.6 5.8.3 3 2-.2-.3-3zm.6 6 .3 2.8 2-.2-.3-2.9zm.6 5.8.3 3 2-.3-.3-3zm.6 5.9.3 2.9 2-.2-.3-3zm.7 5.8.1 1.5 2-.2-.2-1.5z"/><text fill="#000" font-family="Helvetica" font-size="16" font-weight="bold" letter-spacing="0em" transform="translate(747 507)"><tspan x=".3" y="14.5">Sidekick Configurator</tspan></text><text xml:space="preserve" fill="#2b2b2b" font-family="Helvetica" font-size="14" letter-spacing="0em" transform="translate(738 530)"><tspan x=".1" y="13.8">Use the Sidekick Configurator </tspan><tspan x="1.9" y="31.8">to add your GitHub repo URL</tspan></text><text fill="#000" font-family="Helvetica" font-size="17" font-weight="bold" letter-spacing="0em" transform="translate(793 54)"><tspan x=".2" y="38.9">Sidekick</tspan></text><text fill="#000" font-family="Helvetica" font-size="17" letter-spacing="0em" transform="translate(793 54)"><tspan x="7.6" y="16.9">Set up</tspan></text><path fill="#eb1000" d="M826 123h25.8c6 .1 10.4 3 13 8.6.8 1.9 1.2 3.8 1.2 5.9v51c0 8-6.2 14.4-14 14.5h-52c-7.8 0-14-6.5-14-14.6v-50.8c0-8.2 6.3-14.6 14.2-14.6H826z"/><path fill="#fff" d="M815.9 184.6h-13.5c-1.7 0-2.2-.8-1.6-2.4l17.5-42.5c.7-1.7 1.3-2.1 3-2.1h9.3c1.5 0 2.4.6 3 2l17.6 42.6c.6 1.6.1 2.4-1.6 2.4h-9.4c-1.4 0-2.2-.6-2.8-1.9l-10.8-26-.6-.8c-.3.3-.6.5-.7.8l-6.6 16c-.4 1.2-.3 1.4.9 1.4h6.7c.9 0 1.4.3 1.7 1l3 7.1c.7 1.4 0 2.4-1.4 2.4h-13.7z"/><path fill="#f6f6f6" d="M754 278h146v44H754z"/><text fill="#ec1000" font-family="Helvetica" font-size="14" font-weight="bold" letter-spacing="0em" transform="translate(754 282)"><tspan x="54" y="13.8">Sidekick</tspan></text><text xml:space="preserve" fill="#ec1000" font-family="Helvetica" font-size="14" letter-spacing="0em" transform="translate(754 282)"><tspan x=".1" y="13.8">Connect </tspan><tspan x="108.6" y="13.8"> to the </tspan><tspan x="4" y="31.8">repo and content folder</tspan></text><circle cx="826.5" cy="27.5" r="14.5" fill="#000"/><text fill="#fff" font-family="Helvetica" font-size="17" font-weight="bold" letter-spacing="0em"><tspan x="821.8" y="33.4">6</tspan></text><ellipse cx="775.1" cy="444" fill="#fff" rx="39.1" ry="40"/><path fill="#161614" fill-rule="evenodd" d="M775 404a40 40 0 0 0-39 41 40.9 40.9 0 0 0 26.7 39c2 .3 2.7-1 2.7-2v-7.7c-11 2.5-13.2-4.8-13.2-4.8-1.8-4.8-4.4-6-4.4-6-3.5-2.6.3-2.5.3-2.5 4 .3 6 4.2 6 4.2 3.5 6.3 9.1 4.5 11.4 3.4a8.9 8.9 0 0 1 2.4-5.5c-8.6-1-17.8-4.5-17.8-20.2 0-4.5 1.6-8.2 4-11-.3-1-1.7-5.2.4-10.9 0 0 3.3-1 10.8 4.2a35.7 35.7 0 0 1 19.5 0c7.5-5.3 10.8-4.2 10.8-4.2 2.1 5.7.8 9.8.4 10.9 2.5 2.8 4 6.5 4 11 0 15.7-9.2 19.2-17.9 20.2 1.4 1.3 2.7 3.8 2.7 7.6V482c0 1 .6 2.3 2.6 2a40.9 40.9 0 0 0 26.7-39 40 40 0 0 0-39-41zm-24.4 58.4c0 .2-.4.3-.6.1-.3 0-.5-.4-.4-.6 0-.2.4-.2.7 0 .3 0 .4.3.3.5zm2 1.8c-.2.2-.6.1-.8-.2-.3-.3-.4-.6-.2-.8.2-.2.6-.1.8.2.3.3.3.6.2.8zm1.3 2.3c-.3.2-.7 0-.9-.3-.2-.4-.2-.8 0-1 .2-.2.6 0 .9.3.2.4.2.8 0 1zm2.2 2.7c-.2.2-.7.2-1-.2-.3-.3-.4-.8-.2-1 .2-.3.6-.2 1 .1.3.4.4.8.2 1zm2.9.9c-.1.3-.6.5-1 .3-.4-.1-.7-.5-.6-.8 0-.3.5-.5 1-.3.4 0 .7.5.6.8zm3.3.4c0 .3-.4.6-.9.6-.4 0-.8-.3-.8-.6s.3-.6.8-.6.9.2.9.6zm3.2-.2c0 .4-.3.7-.7.8-.5 0-1-.1-1-.4 0-.4.3-.7.7-.8.5 0 1 .1 1 .4z" clip-rule="evenodd"/><text style="opacity:.8;fill:#b9b9b9;font-family:Helvetica;font-size:14;font-weight:700;letter-spacing:-.02em" transform="translate(758 436)"><tspan x=".4" y="12.3">Repo</tspan></text><g clip-path="url(#k)"><path fill="#41a5ee" d="m862.4 404.6-25.4 9.3c-.9.3-1.3 1.3-1 2.3l12.4 33.7c.3 1 1.3 1.5 2.2 1.2l25.3-9.3c1-.4 1.4-1.4 1-2.3l-12.3-33.8c-.4-1-1.4-1.5-2.2-1.1z"/><path fill="#103f91" d="M848.4 450c.3.9 1.3 1.4 2.2 1l25.3-9.2c1-.4 1.4-1.4 1-2.3l-2.8-7.6-28.5 10.4z"/><path fill="#41a5ee" d="M864.6 405.7c-.4-1-1.4-1.5-2.3-1.1l-25.3 9.3c-.9.3-1.3 1.3-1 2.3l2.8 7.5 28.5-10.4-2.7-7.6z"/><path fill="#2b7cd3" d="m867.4 413.3-28.6 10.4 3.4 9.3 28.5-10.4z"/><path fill="#185abd" d="M870.7 422.6 842.2 433l3.4 9.3 28.5-10.4z"/><path fill="url(#l)" d="M0 0h13.5v25.4H0z" transform="matrix(1 -.3 .3 1 838.3 422.4)"/><path fill="url(#m)" d="m847.3 419.6-15.9 5.8c-.8.3-1.3 1.3-1 2.3l6.3 17c.3 1 1.3 1.5 2.2 1.2l15.9-5.8c.9-.4 1.3-1.4 1-2.3l-6.3-17.1c-.3-1-1.3-1.5-2.2-1.1z"/><path fill="#fff" d="m845.7 425.5 1 5.6s.4 3.2.8 4l-5.3-8.3-2.2.8 1.4 9.7c-.3-.8-2-3.5-2-3.5l-3-5-2 .8 6.6 10.2 2.3-.9-1-7-.5-2.5 1.3 2.1 3.8 6 2.4-.8-1.6-12-2 .8z"/></g><path fill="#2685fd" fill-rule="evenodd" d="M849.6 408.6 866 407l10.7 8.8 2.7 27c.2 1.4-1 2.8-2.5 3l-23.3 2.3c-1.6.2-3-1-3-2.4l-3.5-34c-.2-1.5 1-2.8 2.5-3z" clip-rule="evenodd"/><path fill="#0166da" fill-rule="evenodd" d="m867 416.7 9.7-1-10.7-8.8z" clip-rule="evenodd"/><path fill="#fff" fill-rule="evenodd" d="m854.5 423.4 16.6-1.7.2 2.2-16.6 1.6zm1.1 11 12-1.2.2 2-12 1.3zm-.6-5.5 16.6-1.7.2 2.1-16.5 1.7z" clip-rule="evenodd"/><g clip-path="url(#n)"><path fill="#185c37" d="m904.8 409.7-29-1.6c-1 0-1.8.7-1.9 1.8l-2 37.8c-.1 1.1.6 2 1.7 2l29 1.7a2 2 0 0 0 1.9-1.8l2-37.9c.1-1-.7-2-1.7-2z"/><path fill="#21a366" d="m890.8 409-15-1c-1 0-1.8.8-1.9 2l-.5 8.4 16.8 1z"/><path fill="#33c481" d="m906 420.2.6-8.5c0-1-.8-2-1.8-2l-14-.8-.6 10.4z"/><path fill="#107c41" d="m890.2 419.3-16.8-.9-.5 10.4 16.8 1z"/><path fill="#21a366" d="m906 420.2-15.8-.9-.5 10.5 15.8.9z"/><path fill="#107c41" d="m905.5 430.7-15.8-1-.6 10.5 15.8.9z"/><path fill="url(#o)" d="M0 0h14.5v26.8H0z" transform="translate(873.5 417)"/><path fill="url(#p)" d="m883.6 418-18.2-1.1c-1 0-1.8.7-1.9 1.8l-1 19.2c-.1 1 .7 2 1.7 2l18.1 1c1 0 2-.8 2-1.8l1-19.2c0-1-.7-2-1.7-2z"/><path fill="#fff" d="m874 427.5-2-5-2.8-.1 3.2 6.4-4.2 6 2.8.2 2.8-4.9 2.2 5.1 2.8.2-3.4-6.4 4-6-2.6-.2z"/></g><path fill="#01ac46" fill-rule="evenodd" d="m890.2 409.3 15.7 5 6.4 12.3-8.2 25.8c-.5 1.4-2 2.2-3.5 1.7l-22.3-7c-1.5-.6-2.3-2-1.9-3.5l10.3-32.6c.5-1.4 2-2.2 3.5-1.7z" clip-rule="evenodd"/><path fill="#00852c" fill-rule="evenodd" d="m903 423.6 9.3 3-6.4-12.3z" clip-rule="evenodd"/><path fill="#fff" fill-rule="evenodd" d="m888 424.5 17.6 5.7-4 12.5L884 437zm0 8.3 5.2 1.7-.8 2.6-5.3-1.7zm1.6-5.2 5.3 1.7-.8 2.6-5.4-1.7zm6 7.7 5.3 1.7-.8 2.6-5.3-1.7zm1.6-5.2 5.3 1.7-.8 2.6-5.3-1.7z" clip-rule="evenodd"/><rect width="78" height="49" x="832.1" y="437" fill="url(#q)" stroke="#43b8ea" stroke-width=".5" rx="4"/><text style="opacity:.8;fill:#09f;font-family:Adobe Clean;font-size:20;font-weight:800;letter-spacing:-.02em" transform="translate(839.1 449)"><tspan x="0" y="18.7">content</tspan></text><rect width="215" height="557" x="966" y="31" fill="#f6f6f6" rx="8"/><path fill="#eb1000" d="M1037.2 388.6c.3.5 1 .5 1.4.2l7.1-5.6c.4-.3.5-1 .2-1.4a1 1 0 0 0-1.4-.1l-6.3 4.9-5-6.3a1 1 0 0 0-1.4-.2 1 1 0 0 0-.1 1.4zm21.1-165.5 1 .1zm33.6.4-1 .1zm16.5 165.3c.4.3 1 .3 1.4-.2l5.7-7c.3-.4.2-1-.2-1.4s-1-.2-1.4.2l-5 6.2-6.3-5a1 1 0 0 0-1.4.1 1 1 0 0 0 .2 1.4zm-69.4-.7.2-1.4-2-.3-.2 1.5zm.5-4.4.4-3-2-.2-.4 3zm.8-5.9.3-3-2-.2-.3 3zm.7-5.9.3-3-2-.2-.3 3zm.7-5.9.4-2.9-2-.2-.4 2.9zm.7-5.8.4-3-2-.2-.4 3zm.8-6 .3-2.9-2-.2-.3 3zm.7-5.8.3-3-2-.2-.3 3zm.7-6 .4-2.9-2-.2-.4 3zm.7-5.8.4-3-2-.2-.4 3zm.8-5.9.3-3-2-.2-.3 3zm.7-5.9.4-3-2-.2-.4 3zm.7-5.9.4-3-2-.2-.4 3zm.7-5.9.4-3-2-.2-.3 3zm.8-5.8.3-3-2-.2-.3 3zm.7-6 .4-2.9-2-.2-.4 3zm.7-5.8.4-3-2-.2-.4 3zm.7-6 .4-2.9-2-.2-.3 3zm.8-5.8.3-3-2-.2-.3 3zm.7-5.9.4-3-2-.2-.4 3zm.7-5.9.4-3-2-.2-.4 3zm.7-5.9.4-3-2-.2-.3 3zm.8-5.9.3-3-2-.1-.3 2.9zm.7-5.8.4-3-2-.2-.4 3zm.7-6 .4-2.9-2-.2-.4 3zm.7-5.8.4-3-2-.2-.3 3zm.8-6 .3-2.9-2-.2-.3 3zm.7-5.8.4-3-2-.2-.4 3zm.7-5.9.2-1.5-2-.2-.2 1.5zm.2-1.5.2-1.3-2-.4-.2 1.5zm.9-4 1-2.5-1.8-.9-1.1 2.8zm2.4-4.8c.5-.7 1-1.4 1.7-2l-1.4-1.5-2 2.3zm3.8-3.7c.7-.6 1.5-1 2.3-1.4l-.8-1.8c-1 .4-1.8 1-2.6 1.5zm4.9-2.2c.8-.3 1.7-.4 2.6-.5l-.1-2-3 .5zm5.3-.4c.9 0 1.8.2 2.6.5l.6-2-3-.5zm5.1 1.4c.8.4 1.6.8 2.3 1.4l1.2-1.7c-.8-.6-1.7-1-2.6-1.5zm4.4 3.1 1.7 2.1 1.6-1.1c-.6-.9-1.2-1.7-1.9-2.4zm3 4.4 1 2.6 1.9-.6-1-2.8zm1.6 5.2.2 1.4 2-.2-.2-1.5zm.2 1.4.1 1.5 2-.2-.1-1.5zm.4 4.4.3 3 2-.3-.3-3zm.6 5.9.3 3 2-.3-.3-3zm.6 5.9.3 2.9 2-.2-.3-3zm.7 5.8.3 3 2-.2-.4-3zm.6 5.9.3 3 2-.3-.3-2.9zm.6 5.9.3 3 2-.3-.3-3zm.6 5.9.3 2.9 2-.2-.3-3zm.6 5.8.3 3 2-.2-.3-3zm.6 5.9.3 3 2-.3-.3-2.9zm.6 5.9.3 3 2-.3-.3-3zm.6 5.9.3 2.9 2-.2-.3-3zm.7 5.8.3 3 2-.2-.4-3zm.6 5.9.3 3 2-.3-.3-2.9zm.6 5.9.3 3 2-.3-.3-3zm.6 5.9.3 2.9 2-.2-.3-3zm.6 5.8.3 3 2-.2-.3-3zm.6 6 .3 2.8 2-.2-.3-2.9zm.6 5.8.3 3 2-.3-.3-3zm.6 5.9.3 2.9 2-.2-.3-3zm.6 5.8.4 3 2-.2-.4-3zm.7 6 .3 2.8 2-.2-.3-2.9zm.6 5.8.3 3 2-.3-.3-3zm.6 5.9.3 2.9 2-.2-.3-3zm.6 5.8.3 3 2-.2-.3-3zm.6 6 .3 2.8 2-.2-.3-2.9zm.6 5.8.3 3 2-.3-.3-3zm.6 5.9.3 2.9 2-.2-.3-3zm.6 5.8.2 1.5 2-.2-.2-1.5zm-70.6 2c.3.5 1 .5 1.4.2l7.1-5.6c.4-.3.5-1 .2-1.4a1 1 0 0 0-1.4-.1l-6.3 4.9-5-6.3a1 1 0 0 0-1.4-.2 1 1 0 0 0-.1 1.4zm21.1-165.5 1 .1zm33.6.4h-1zm16.5 165.3c.4.3 1 .3 1.4-.2l5.6-7c.4-.4.3-1-.1-1.4s-1-.2-1.4.2l-5 6.2-6.3-5a1 1 0 0 0-1.4.1 1 1 0 0 0 .2 1.4zm-69.4-.7.2-1.5-2-.2-.2 1.5zm.5-4.4.4-3-2-.2-.4 3zm.8-5.9.3-3-2-.2-.3 3zm.7-5.9.3-3-2-.2-.3 3zm.7-5.9.4-3-2-.2-.4 3zm.7-5.9.4-2.9-2-.2-.4 3zm.8-5.8.3-3-2-.2-.3 3zm.7-6 .3-2.9-2-.2-.3 3zm.7-5.8.4-3-2-.2-.4 3zm.7-6 .4-2.9-2-.2-.4 3zm.8-5.8.3-3-2-.2-.3 3zm.7-5.9.3-3-2-.2-.3 3zm.7-5.9.4-3-2-.2-.4 3zm.7-5.9.4-3-2-.2-.3 3zm.8-5.8.3-3-2-.2-.3 3zm.7-6 .3-2.9-2-.2-.3 3zm.7-5.8.4-3-2-.2-.4 3zm.7-6 .4-2.9-2-.2-.3 3zm.8-5.8.3-3-2-.2-.3 3zm.7-5.9.3-3-2-.2-.3 3zm.7-5.9.4-3-2-.2-.4 3zm.7-5.9.4-3-2-.2-.3 3zm.8-5.9.3-3-2-.1-.3 2.9zm.7-5.8.4-3-2-.2-.4 3zm.7-6 .4-2.9-2-.2-.4 3zm.7-5.8.4-3-2-.2-.3 3zm.8-6 .3-2.9-2-.2-.3 3zm.7-5.8.4-3-2-.2-.4 3zm.7-5.9.2-1.5-2-.2-.2 1.5zm.2-1.5.2-1.3-2-.4-.2 1.5zm.9-4 1-2.5-1.8-.9-1.1 2.8zm2.4-4.8c.5-.7 1-1.4 1.7-2l-1.4-1.5-2 2.3zm3.8-3.7c.7-.6 1.5-1 2.3-1.4l-.8-1.8c-1 .4-1.8 1-2.7 1.5zm4.8-2.2c1-.3 1.8-.4 2.7-.5l-.2-2-3 .5zm5.4-.4a8 8 0 0 1 2.6.5l.5-2-3-.5zm5.1 1.4c.8.4 1.6.8 2.3 1.4l1.2-1.7c-.8-.6-1.7-1-2.6-1.5zm4.4 3.1 1.7 2.1 1.6-1.1c-.6-.9-1.2-1.7-1.9-2.4zm3 4.4 1 2.6 1.9-.6-1-2.8zm1.6 5.2.2 1.4 2-.2-.3-1.5zm.2 1.4.1 1.5 2-.2-.2-1.5zm.4 4.4.3 3 2-.3-.3-3zm.6 5.9.3 3 2-.3-.3-3zm.6 5.9.3 2.9 2-.2-.3-3zm.7 5.8.3 3 2-.2-.4-3zm.6 5.9.3 3 2-.3-.3-2.9zm.6 5.9.3 3 2-.3-.3-3zm.6 5.9.3 2.9 2-.2-.3-3zm.6 5.8.3 3 2-.2-.3-3zm.6 5.9.3 3 2-.3-.3-2.9zm.6 5.9.3 3 2-.3-.3-3zm.6 5.9.3 2.9 2-.2-.3-3zm.7 5.8.3 3 2-.2-.4-3zm.6 5.9.3 3 2-.3-.3-2.9zm.6 5.9.3 3 2-.3-.3-3zm.6 5.9.3 2.9 2-.2-.3-3zm.6 5.8.3 3 2-.2-.3-3zm.6 6 .3 2.8 2-.2-.3-2.9zm.6 5.8.3 3 2-.3-.3-3zm.6 5.9.3 2.9 2-.2-.3-3zm.6 5.8.4 3 2-.2-.4-3zm.7 6 .3 2.8 2-.2-.3-2.9zm.6 5.8.3 3 2-.3-.3-3zm.6 5.9.3 2.9 2-.2-.3-3zm.6 5.8.3 3 2-.2-.3-3zm.6 6 .3 2.8 2-.2-.3-2.9zm.6 5.8.3 3 2-.3-.3-3zm.6 5.9.3 2.9 2-.2-.3-3zm.6 5.8.2 1.5 2-.2-.2-1.5z"/><text xml:space="preserve" fill="#000" font-family="Helvetica" font-size="16" font-weight="bold" letter-spacing="0em" transform="translate(1018 507)"><tspan x=".3" y="14.5">Run site locally </tspan></text><text xml:space="preserve" fill="#2b2b2b" font-family="Helvetica" font-size="14" letter-spacing="0em" transform="translate(1015 530)"><tspan x="1.6" y="13.8">Run your storefront </tspan><tspan x=".4" y="31.8">from localhost:3000</tspan></text><text fill="#000" font-family="Helvetica" font-size="17" font-weight="bold" letter-spacing="0em" transform="translate(1008 54)"><tspan x=".3" y="38.9">dev environment</tspan></text><text xml:space="preserve" fill="#000" font-family="Helvetica" font-size="17" letter-spacing="0em" transform="translate(1008 54)"><tspan x="23.4" y="16.9">Set up local </tspan></text><path fill="#f6f6f6" d="M984 278h179v44H984z"/><text xml:space="preserve" fill="#ec1000" font-family="Helvetica" font-size="14" font-weight="bold" letter-spacing="0em" transform="translate(984 282)"><tspan x="92" y="13.8">storefront </tspan></text><text xml:space="preserve" fill="#ec1000" font-family="Helvetica" font-size="14" letter-spacing="0em" transform="translate(984 282)"><tspan x="23.4" y="13.8">Clone your </tspan><tspan x=".3" y="31.8">repo and install dependencies</tspan></text><circle cx="1073.5" cy="27.5" r="14.5" fill="#000"/><text fill="#fff" font-family="Helvetica" font-size="17" font-weight="bold" letter-spacing="0em"><tspan x="1068.8" y="33.4">7</tspan></text><ellipse cx="1073.1" cy="163" fill="#fff" rx="39.1" ry="40"/><path fill="#161614" fill-rule="evenodd" d="M1073 123a40 40 0 0 0-39 41 40.9 40.9 0 0 0 26.7 39c2 .3 2.7-1 2.7-2v-7.7c-11 2.5-13.2-4.8-13.2-4.8-1.8-4.8-4.4-6-4.4-6-3.5-2.6.3-2.5.3-2.5 4 .3 6 4.2 6 4.2 3.5 6.3 9.1 4.5 11.4 3.4a8.9 8.9 0 0 1 2.4-5.5c-8.6-1-17.8-4.5-17.8-20.2 0-4.5 1.6-8.2 4-11-.3-1-1.7-5.2.4-10.9 0 0 3.3-1 10.8 4.2a35.8 35.8 0 0 1 19.5 0c7.5-5.3 10.8-4.2 10.8-4.2 2.1 5.7.8 9.8.4 10.9 2.5 2.8 4 6.5 4 11 0 15.7-9.2 19.2-17.9 20.2 1.4 1.3 2.7 3.8 2.7 7.6V201c0 1 .7 2.3 2.6 2a40.9 40.9 0 0 0 26.7-39 40 40 0 0 0-39-41zm-24.4 58.4c0 .2-.4.3-.6.1-.3 0-.5-.4-.4-.6 0-.2.4-.2.7-.1.3.1.4.4.3.6zm2 1.8c-.2.2-.6.1-.8-.2-.3-.3-.3-.6-.2-.8.2-.2.6-.1.8.2.3.3.3.6.1.8zm1.3 2.3c-.3.2-.7 0-.9-.3s-.2-.8 0-1c.2-.2.6 0 .9.3.2.4.2.8 0 1zm2.2 2.7c-.2.2-.7.2-1-.2-.3-.3-.4-.8-.2-1 .2-.3.6-.2 1 .1.3.4.4.8.2 1zm2.9.9c-.1.3-.6.5-1 .3-.4-.1-.7-.5-.6-.8s.5-.5 1-.3c.4 0 .7.5.6.8zm3.3.4c0 .3-.4.6-.9.6-.4 0-.8-.3-.8-.6s.4-.6.8-.6c.5 0 .9.2.9.6zm3.2-.2c0 .4-.3.7-.7.8-.5 0-1-.1-1-.4 0-.4.3-.7.7-.8.5 0 1 .1 1 .4z" clip-rule="evenodd"/><text style="opacity:.8;fill:#b9b9b9;font-family:Helvetica;font-size:14;font-weight:700;letter-spacing:-.02em" transform="translate(1050 155)"><tspan x=".4" y="12.3">GitHub</tspan></text><g mask="url(#r)"><path fill="#0065a9" d="m1148.2 416.4-13.2-7a3.8 3.8 0 0 0-4.6.9l-43.4 43.2a3.1 3.1 0 0 0 0 4.3l3.5 3.6c1 .9 2.4 1 3.5.1l52.3-43.3c1.7-1.4 4.2 0 4.2 2.3v-.1c0-1.7-.9-3.3-2.3-4z"/><path fill="#007acc" d="m1148.2 471.5-13.2 7c-1.5.8-3.4.4-4.6-.9l-43.4-43.2a3.1 3.1 0 0 1 0-4.3l3.5-3.5c1-1 2.4-1 3.5-.2l52.3 43.3c1.7 1.5 4.2 0 4.2-2.3v.2c0 1.6-.9 3.2-2.3 4z"/><path fill="#1f9cf0" d="M1135 478.5c-1.6.8-3.4.5-4.6-.9 1.5 1.7 4 .5 4-1.8v-63.7c0-2.3-2.5-3.4-4-1.8 1.2-1.3 3-1.7 4.5-.9l13.3 7c1.4.7 2.3 2.3 2.3 4v47.2c0 1.7-1 3.2-2.3 4z"/><path fill="url(#s)" fill-opacity=".3" d="M1131.8 478.6a4 4 0 0 0 3.2-.1l13.2-7a4.4 4.4 0 0 0 2.3-4v-47.1c0-1.7-.9-3.3-2.3-4l-13.3-7a3.7 3.7 0 0 0-4.5.9l-25.4 25.3-11-9.2c-1-.9-2.5-.8-3.5.2l-3.5 3.5a3.1 3.1 0 0 0 0 4.3l9.6 9.6-9.6 9.5a3.1 3.1 0 0 0 0 4.3l3.5 3.6c1 .9 2.4 1 3.5.1l11-9.1 25.4 25.2c.4.5.9.8 1.4 1zm2.6-50.6-19.3 16 19.3 16z"/></g><ellipse cx="1035.1" cy="444" fill="#fff" rx="39.1" ry="40"/><path fill="#161614" fill-rule="evenodd" d="M1035 404a40 40 0 0 0-39 41 40.9 40.9 0 0 0 26.7 39c2 .3 2.7-1 2.7-2v-7.7c-11 2.5-13.2-4.8-13.2-4.8-1.8-4.8-4.4-6-4.4-6-3.5-2.6.3-2.5.3-2.5 4 .3 6 4.2 6 4.2 3.5 6.3 9.1 4.5 11.4 3.4a8.9 8.9 0 0 1 2.4-5.5c-8.6-1-17.8-4.5-17.8-20.2 0-4.5 1.6-8.2 4-11-.3-1-1.7-5.2.4-10.9 0 0 3.3-1 10.8 4.2a35.8 35.8 0 0 1 19.5 0c7.5-5.3 10.8-4.2 10.8-4.2 2.1 5.7.8 9.8.4 10.9 2.5 2.8 4 6.5 4 11 0 15.7-9.2 19.2-17.9 20.2 1.4 1.3 2.7 3.8 2.7 7.6V482c0 1 .7 2.3 2.6 2a40.9 40.9 0 0 0 26.7-39 40 40 0 0 0-39-41zm-24.4 58.4c0 .2-.4.3-.6.1-.3 0-.5-.4-.4-.6 0-.2.4-.2.7 0 .3 0 .4.3.3.5zm2 1.8c-.2.2-.6.1-.9-.2-.2-.3-.3-.6 0-.8.1-.2.5-.1.7.2.3.3.3.6.1.8zm1.3 2.3c-.3.2-.7 0-.9-.3s-.2-.8 0-1c.2-.2.6 0 .9.3.2.4.2.8 0 1zm2.2 2.7c-.2.2-.7.2-1-.2-.3-.3-.4-.8-.2-1 .2-.3.7-.2 1 .1.3.4.4.8.2 1zm2.9.9c-.1.3-.6.5-1 .3-.4-.1-.7-.5-.6-.8s.5-.5 1-.3c.4 0 .7.5.6.8zm3.3.4c0 .3-.4.6-.9.6-.4 0-.8-.3-.8-.6s.3-.6.8-.6.9.2.9.6zm3.2-.2c0 .4-.3.7-.7.8-.5 0-1-.1-1-.4 0-.4.3-.7.7-.8.5 0 1 .1 1 .4z" clip-rule="evenodd"/><text style="opacity:.8;fill:#b9b9b9;font-family:Helvetica;font-size:14;font-weight:700;letter-spacing:-.02em" transform="translate(1020 436)"><tspan x=".1" y="12.3">local</tspan></text><path fill="#0d0d0d" d="M311.7 314.7c.4-.4.4-1 0-1.4l-6.4-6.4a1 1 0 1 0-1.4 1.4l5.7 5.7-5.7 5.7a1 1 0 1 0 1.4 1.4zM133 315h1.5v-2H133zm4.5 0h3v-2h-3zm5.9 0h3v-2h-3zm6 0h2.9v-2h-3zm5.8 0h3v-2h-3zm6 0h3v-2h-3zm6 0h2.9v-2h-3zm5.8 0h3v-2h-3zm6 0h3v-2h-3zm6 0h2.9v-2h-3zm5.8 0h3v-2h-3zm6 0h3v-2h-3zm6 0h2.9v-2h-3zm5.8 0h3v-2h-3zm6 0h3v-2h-3zm6 0h2.9v-2h-3zm5.8 0h3v-2h-3zm6 0h3v-2h-3zm6 0h2.9v-2h-3zm5.8 0h3v-2h-3zm6 0h3v-2h-3zm6 0h2.9v-2h-3zm5.8 0h3v-2h-3zm6 0h3v-2h-3zm6 0h2.9v-2h-3zm5.8 0h3v-2h-3zm6 0h3v-2h-3zm6 0h2.9v-2h-3zm5.8 0h3v-2h-3zm6 0h3v-2h-3zm6 0h1.4v-2h-1.5zm2.1-.3c.4-.4.4-1 0-1.4l-6.4-6.4a1 1 0 1 0-1.4 1.4l5.7 5.7-5.7 5.7a1 1 0 1 0 1.4 1.4zM133 315h1.5v-2H133zm4.4 0h3v-2h-3zm6 0h3v-2h-3zm6 0h2.9v-2h-3zm5.8 0h3v-2h-3zm6 0h3v-2h-3zm6 0h2.9v-2h-3zm5.8 0h3v-2h-3zm6 0h3v-2h-3zm6 0h2.9v-2h-3zm5.8 0h3v-2h-3zm6 0h3v-2h-3zm6 0h2.9v-2h-3zm5.8 0h3v-2h-3zm6 0h3v-2h-3zm6 0h2.9v-2h-3zm5.8 0h3v-2h-3zm6 0h3v-2h-3zm6 0h2.9v-2h-3zm5.8 0h3v-2h-3zm6 0h3v-2h-3zm6 0h2.9v-2h-3zm5.8 0h3v-2h-3zm6 0h3v-2h-3zm6 0h2.9v-2h-3zm5.8 0h3v-2h-3zm6 0h3v-2h-3zm6 0h2.9v-2h-3zm5.8 0h3v-2h-3zm6 0h3v-2h-3zm6 0h1.4v-2h-1.5z"/><rect width="189" height="260" x="18" y="328" fill="#f6f6f6" rx="8"/><text fill="#000" font-family="Helvetica" font-size="16" font-weight="bold" letter-spacing="0em" transform="translate(57 507)"><tspan x=".1" y="14.5">Code Sync app</tspan></text><text xml:space="preserve" fill="#2b2b2b" font-family="Helvetica" font-size="14" letter-spacing="0em" transform="translate(58 530)"><tspan x="0" y="13.8">Deploys storefront </tspan><tspan x="2.1" y="31.8">on merge to main</tspan></text><text fill="#000" font-family="Helvetica" font-size="17" font-weight="bold" letter-spacing="0em" transform="translate(51 344)"><tspan x="0" y="38.9">Code Sync app</tspan></text><text xml:space="preserve" fill="#000" font-family="Helvetica" font-size="17" letter-spacing="0em" transform="translate(51 344)"><tspan x="32.2" y="16.9">Add the </tspan></text><circle cx="112.5" cy="318.5" r="14.5" fill="#000"/><text fill="#fff" font-family="Helvetica" font-size="17" font-weight="bold" letter-spacing="0em"><tspan x="107.8" y="324.4">2</tspan></text><path fill="#fff" stroke="#aaa" stroke-width=".5" d="M113 407.3c21.4 0 38.7 17.7 38.7 39.7s-17.3 39.8-38.7 39.8c-21.4 0-38.7-17.8-38.7-39.8s17.3-39.8 38.7-39.8z"/><path fill="#eb1000" d="M113.2 422h15.5c3.6 0 6.2 2 7.8 5.3.5 1.2.8 2.4.8 3.7v31.5c0 5-3.8 9-8.5 9H97.5c-4.8 0-8.5-4-8.5-9V431c0-5 3.8-9 8.6-9h15.6z"/><path fill="#fff" d="M107 460.1h-8c-1 0-1.4-.5-1-1.5l10.6-26.3c.4-1 .8-1.3 1.8-1.3h5.6c1 0 1.5.4 1.8 1.3l10.6 26.4c.4 1 .1 1.4-1 1.4h-5.6c-.8 0-1.3-.3-1.7-1.1l-6.5-16.1-.4-.5-.4.5-4 10c-.2.6-.2.7.6.8h4c.5 0 .8.1 1 .6l1.9 4.4c.4.8 0 1.4-1 1.4H107z"/><rect width="189" height="226" x="18" y="28" fill="#f6f6f6" rx="8"/><circle cx="112.5" cy="27.5" r="14.5" fill="#000"/><text fill="#fff" font-family="Helvetica" font-size="17" font-weight="bold" letter-spacing="0em"><tspan x="107.8" y="33.4">1</tspan></text><rect width="52" height="52" x="1" y="-1" fill="#fff" rx="2" transform="matrix(-1 0 0 1 98 163)"/><rect width="52" height="52" x="1" y="-1" stroke="#000" stroke-linejoin="round" stroke-width="2" rx="2" transform="matrix(-1 0 0 1 98 163)"/><path fill="#000" d="M91.2 167c.5 0 .8.5.8 1v10c0 .5-.4 1-1 1H51a1 1 0 0 1-1-1v-10c0-.6.4-1 1-1h40zm-1.2 2H52v8h38zm1.2 12c.5 0 .8.5.8 1v26c0 .5-.4 1-1 1H67a1 1 0 0 1-1-1v-26c0-.6.4-1 1-1h24zm-28 0c.5 0 .8.5.8 1v6c0 .5-.4 1-1 1H51a1 1 0 0 1-1-1v-6c0-.6.4-1 1-1h12zm26.8 2H68v24h22zm-28 0H52v4h10zm1.2 8c.5 0 .8.5.8 1v6c0 .5-.4 1-1 1H51a1 1 0 0 1-1-1v-6c0-.6.4-1 1-1h12zm-1.2 2H52v4h10zm1.2 8c.5 0 .8.5.8 1v6c0 .5-.4 1-1 1H51a1 1 0 0 1-1-1v-6c0-.6.4-1 1-1h12zm-1.2 2H52v4h10z"/><g clip-path="url(#t)"><path fill="#e44d26" d="m161.1 209-14.5-2.9-6.2-35.6 34.9-2.9-.2 36.1z"/><path fill="#f16529" d="m172.2 201.7.1-30.9-14.2 1.2 2.8 33.9z"/><path fill="#fff" d="m158.8 180.8 10.6-.9v-4.4l-11 .9-10.9.9 2.3 13.2 9.8-.8 5.3-.5v5.8l-4.8 1.7-5-.9-.5-3.5-4.4.4 1.2 6.9 9.1 1.7 8.8-3.2v-13.7l-10.1.9-5.8.5-.7-4.5 6.1-.5z"/><path fill="#ebebeb" d="m160.1 196.7-5-.9-.5-3.5-4.4.4 1.2 6.9 9.1 1.7zm-.5-7-.4-4.4-5.8.5-.7-4.5 6.1-.5-.4-4.4-10.9.9 2.3 13.2 9.8-.8z"/></g><g fill-rule="evenodd" clip-rule="evenodd"><path fill="#0071bc" d="m125.8 218.4 13.9-33.4 32.7 17.2-19.8 30.3-15.3-3.5z"/><path fill="#29abe2" d="m138.8 226.3 12.3 2.9 16.9-25.9-13.4-7z"/><path fill="#b3b3b3" d="m138.9 203-1.7 4 11.3 1 2-4z"/><path fill="#e6e6e6" d="m163 205.3-12.5-1.2-2 3.9 12 1zm-19.9 12.9-4-3.6 1.4-3.3-4.2-2.1-2.6 6.4 7.2 6.6z"/><path fill="#fff" d="m148.5 208-2 3.9 5 2.6-3.2 4.9-5.2-1.2-2.1 4 9.5 2.2L158 213z"/><path fill="#e6e6e6" d="m148.5 208-9.6-5-1.7 4 9.2 4.9zm2.2-4.2 2-3.9-10.3-5.4-1.7 4z"/><path fill="#fff" d="m152.7 199.9-2 3.9 9.8 5.2 2.4-3.7z"/><path fill="#f7df1e" d="m122 156.3 31-16.3 16.3 31-31 16.3z"/><path fill="#000" d="m143.8 177.9 1.6-2.7c.9.6 1.6 1 2.6.5s1.4-1.2.6-2.6l-5.2-10 3-1.5 5.2 10c1.6 3 .5 5.3-2 6.7a5.1 5.1 0 0 1-5.8-.4m10.1-5.7 1.6-2.6c1.2.6 2.4 1 3.8.2 1.3-.6 1.7-1.6 1.3-2.5-.6-1-1.5-.9-3.2-.8h-.9c-2.5.3-4.5 0-5.8-2.5-1.1-2.1-.3-4.7 2.3-6 1.8-1 3.5-1 5.3.1l-1.5 2.6c-1-.6-1.7-.7-2.5-.2-.8.4-1 1.3-.7 2 .4.8 1.2 1 2.7.8h.9c3-.3 5 0 6.3 2.5 1.3 2.6 0 5.1-2.7 6.6-2.7 1.4-5.2 1-6.9-.2"/></g><ellipse cx="108.1" cy="182" fill="#fff" rx="39.1" ry="40"/><path fill="#161614" fill-rule="evenodd" d="M108 142a40 40 0 0 0-39 41 40.9 40.9 0 0 0 26.7 39c2 .3 2.7-1 2.7-2v-7.7c-11 2.5-13.2-4.8-13.2-4.8-1.8-4.8-4.4-6-4.4-6-3.5-2.6.3-2.5.3-2.5 4 .3 6 4.2 6 4.2 3.5 6.3 9.1 4.5 11.4 3.4a9 9 0 0 1 2.4-5.5c-8.6-1-17.8-4.5-17.8-20.2 0-4.5 1.6-8.2 4-11-.3-1-1.7-5.3.4-11 0 0 3.3-1 10.8 4.3a35.7 35.7 0 0 1 19.5 0c7.5-5.3 10.8-4.2 10.8-4.2 2.1 5.6.8 9.8.4 10.8 2.5 3 4 6.6 4 11 0 15.8-9.2 19.3-17.9 20.3 1.4 1.3 2.7 3.8 2.7 7.6v11.2c0 1.1.6 2.4 2.6 2a40.9 40.9 0 0 0 26.7-38.9 40 40 0 0 0-39-41zm-24.4 58.4c0 .2-.4.3-.6.1-.3-.1-.5-.4-.4-.6 0-.2.4-.3.7-.1.3.1.4.4.3.6zm2 1.8c-.2.2-.6.1-.8-.2-.3-.3-.4-.6-.2-.8.2-.2.6-.1.8.2.3.2.3.6.2.8zm1.3 2.3c-.3.2-.7 0-.9-.3-.2-.4-.2-.8 0-1 .2-.2.6 0 .9.3.2.4.2.8 0 1zm2.2 2.7c-.2.2-.7.2-1-.2-.3-.3-.4-.8-.2-1 .2-.3.6-.2 1 .1.3.4.4.8.2 1zm2.9.9c-.1.3-.6.4-1 .3-.4-.1-.7-.5-.6-.8 0-.4.5-.5 1-.4.4.2.7.6.6.9zm3.3.4c0 .3-.4.6-.9.6-.4 0-.8-.3-.8-.6 0-.4.3-.6.8-.6s.9.2.9.6zm3.2-.2c0 .4-.3.7-.8.8-.4 0-.8-.1-.9-.5 0-.3.3-.6.7-.7.5-.1 1 .1 1 .4z" clip-rule="evenodd"/><text style="opacity:.8;fill:#b9b9b9;font-family:Helvetica;font-size:14;font-weight:700;letter-spacing:-.02em" transform="translate(91 174)"><tspan x=".4" y="12.3">Repo</tspan></text><path fill="#0d0d0d" d="M111.3 133.7c.4.4 1 .4 1.4 0l6.4-6.4a1 1 0 1 0-1.4-1.4l-5.7 5.7-5.7-5.7a1 1 0 1 0-1.4 1.4zM111 45v1.5h2V45zm0 4.4v3h2v-3zm0 5.9v2.9h2v-3zm0 5.8v3h2v-3zm0 5.9v3h2v-3zm0 5.9v2.9h2v-3zm0 5.8v3h2v-3zm0 5.9v3h2v-3zm0 5.9v2.9h2v-3zm0 5.8v3h2v-3zm0 5.9v3h2v-3zm0 5.9v2.9h2v-3zm0 5.8v3h2v-3zm0 5.9v3h2v-3zm0 5.9v2.9h2v-3zm0 5.8v1.5h2v-1.5zm.3 2.2c.4.4 1 .4 1.4 0l6.4-6.4a1 1 0 1 0-1.4-1.4l-5.7 5.7-5.7-5.7a1 1 0 1 0-1.4 1.4zM111 45v1.5h2V45zm0 4.4v3h2v-3zm0 5.9v2.9h2v-3zm0 5.8v3h2v-3zm0 5.9v3h2v-3zm0 5.9v2.9h2v-3zm0 5.8v3h2v-3zm0 5.9v3h2v-3zm0 5.9v2.9h2v-3zm0 5.8v3h2v-3zm0 5.9v3h2v-3zm0 5.9v2.9h2v-3zm0 5.8v3h2v-3zm0 5.9v3h2v-3zm0 5.9v2.9h2v-3zm0 5.8v1.5h2v-1.5z"/><path fill="#f6f6f6" d="M36 64h154v48H36z"/><text xml:space="preserve" fill="#000" font-family="Helvetica" font-size="17" font-weight="bold" letter-spacing="0em" transform="translate(36 66)"><tspan x="93.6" y="16.9">repo </tspan><tspan x="67.5" y="38.9">boilerplate</tspan></text><text xml:space="preserve" fill="#000" font-family="Helvetica" font-size="17" letter-spacing="0em" transform="translate(36 66)"><tspan x="23.6" y="16.9">Create a </tspan><tspan x=".4" y="38.9">from the </tspan></text><path fill="#0d0d0d" d="M111.3 297.7c.4.4 1 .4 1.4 0l6.4-6.4a1 1 0 1 0-1.4-1.4l-5.7 5.7-5.7-5.7a1 1 0 1 0-1.4 1.4zM111 225v1.5h2V225zm0 4.5v3h2v-3zm0 6v3h2v-3zm0 6v3h2v-3zm0 6v3h2v-3zm0 6v3h2v-3zm0 6v3h2v-3zm0 6v3h2v-3zm0 6v3h2v-3zm0 6v3h2v-3zm0 6v3h2v-3zm0 6v3h2v-3zm0 6v1.5h2v-1.5zm.3 2.2c.4.4 1 .4 1.4 0l6.4-6.4a1 1 0 1 0-1.4-1.4l-5.7 5.7-5.7-5.7a1 1 0 1 0-1.4 1.4zM111 225v1.5h2V225zm0 4.5v3h2v-3zm0 6v3h2v-3zm0 6v3h2v-3zm0 6v3h2v-3zm0 6v3h2v-3zm0 6v3h2v-3zm0 6v3h2v-3zm0 6v3h2v-3zm0 6v3h2v-3zm0 6v3h2v-3zm0 6v3h2v-3zm0 6v1.5h2v-1.5z"/><rect width="201" height="260" x="230" y="328" fill="#f6f6f6" rx="8"/><text fill="#000" font-family="Helvetica" font-size="16" font-weight="bold" letter-spacing="0em" transform="translate(287 507)"><tspan x=".4" y="14.5">Adobe user</tspan></text><text fill="#2b2b2b" font-family="Helvetica" font-size="14" font-weight="bold" letter-spacing="0em" transform="translate(255 530)"><tspan x="31.4" y="31.8">helix@adobe.com</tspan></text><text xml:space="preserve" fill="#2b2b2b" font-family="Helvetica" font-size="14" letter-spacing="0em" transform="translate(255 530)"><tspan x=".2" y="13.8">Share your content folder </tspan><tspan x="4" y="31.8">with </tspan></text><text xml:space="preserve" fill="#000" font-family="Helvetica" font-size="17" font-weight="bold" letter-spacing="0em" transform="translate(254 344)"><tspan x="106.3" y="16.9">folder </tspan><tspan x="40.1" y="38.9">share access</tspan></text><text xml:space="preserve" fill="#000" font-family="Helvetica" font-size="17" letter-spacing="0em" transform="translate(254 344)"><tspan x=".4" y="16.9">Create a new </tspan><tspan x="7" y="38.9">and </tspan></text><circle cx="330.5" cy="318.5" r="14.5" fill="#000"/><text fill="#fff" font-family="Helvetica" font-size="17" font-weight="bold" letter-spacing="0em"><tspan x="325.8" y="324.4">3</tspan></text><path fill="url(#u)" d="M257 461a4 4 0 0 0 4 4h70a4 4 0 0 0 4-4v-34a4 4 0 0 0-4-4h-45.6a4 4 0 0 1-4-3l-.1-1a4 4 0 0 0-4-3H261a4 4 0 0 0-4 4z"/><rect width="78" height="49" x="257" y="429" fill="url(#v)" stroke="#43b8ea" stroke-width=".5" rx="4"/><text style="opacity:.8;fill:#09f;font-family:Adobe Clean;font-size:20;font-weight:800;letter-spacing:-.02em" transform="translate(272 439)"><tspan x=".2" y="18.7">share</tspan></text><path fill="#fff" stroke="#aaa" stroke-width=".5" d="M365 407.3c21.4 0 38.7 17.7 38.7 39.7s-17.3 39.8-38.7 39.8c-21.4 0-38.8-17.8-38.8-39.8s17.4-39.8 38.8-39.8z"/><path fill="#eb1000" d="M365.2 422h15.5c3.6 0 6.2 2 7.8 5.3.5 1.2.8 2.4.8 3.7v31.5c0 5-3.8 9-8.5 9h-31.3c-4.8 0-8.5-4-8.5-9V431c0-5 3.8-9 8.6-9h15.6z"/><path fill="#fff" d="M359 460.1h-8c-1 0-1.4-.5-1-1.5l10.6-26.3c.4-1 .8-1.3 1.8-1.3h5.6c1 0 1.5.4 1.8 1.3l10.6 26.4c.4 1 .1 1.4-1 1.4h-5.6c-.8 0-1.3-.3-1.7-1.1l-6.5-16.1-.4-.5-.4.5-4 10c-.2.6-.2.7.6.8h4c.5 0 .8.1 1 .6l1.9 4.4c.4.8 0 1.4-1 1.4H359z"/><rect width="201" height="226" x="230" y="28" fill="#f6f6f6" rx="8"/><circle cx="330.5" cy="27.5" r="14.5" fill="#000"/><text fill="#fff" font-family="Helvetica" font-size="17" font-weight="bold" letter-spacing="0em"><tspan x="325.8" y="33.4">4</tspan></text><g clip-path="url(#w)"><path fill="#41a5ee" d="m321.2 135.6-25.3 9.3c-.9.3-1.3 1.3-1 2.3l12.4 33.7c.3 1 1.3 1.5 2.2 1.2l25.3-9.3c.9-.4 1.3-1.4 1-2.3l-12.3-33.8c-.4-1-1.4-1.5-2.3-1.1z"/><path fill="#103f91" d="M307.3 181c.3.9 1.3 1.4 2.2 1l25.3-9.2c.9-.4 1.3-1.4 1-2.3l-2.8-7.6-28.5 10.4z"/><path fill="#41a5ee" d="M323.5 136.7c-.4-1-1.4-1.5-2.3-1.1l-25.3 9.3c-.9.3-1.3 1.3-1 2.3l2.8 7.5 28.5-10.4-2.7-7.6z"/><path fill="#2b7cd3" d="m326.2 144.3-28.5 10.4 3.4 9.3 28.5-10.4z"/><path fill="#185abd" d="M329.6 153.6 301.1 164l3.4 9.3L333 163z"/><path fill="url(#x)" d="M0 0h13.5v25.4H0z" transform="matrix(1 -.3 .3 1 297.2 153.4)"/><path fill="url(#y)" d="m306.2 150.6-15.9 5.8c-.9.3-1.3 1.3-1 2.3l6.3 17c.3 1 1.3 1.5 2.2 1.2l15.9-5.8c.9-.4 1.3-1.4 1-2.3l-6.3-17.1c-.3-1-1.3-1.5-2.2-1.1z"/><path fill="#fff" d="m304.5 156.5 1 5.6s.5 3.2.8 4c-.3-.7-5.2-8.3-5.2-8.3l-2.2.8 1.4 9.7c-.3-.8-2-3.5-2-3.5l-3-5-2 .8 6.5 10.2 2.4-.9-1-7-.5-2.5 1.3 2.1 3.8 6 2.4-.8-1.6-12-2 .8z"/></g><path fill="#2685fd" fill-rule="evenodd" d="m308.5 139.6 16.4-1.7 10.7 8.8 2.7 27a3 3 0 0 1-2.5 3l-23.3 2.3c-1.6.2-3-1-3-2.4l-3.5-34c-.2-1.5 1-2.8 2.5-3z" clip-rule="evenodd"/><path fill="#0166da" fill-rule="evenodd" d="m325.8 147.7 9.8-1-10.7-8.8z" clip-rule="evenodd"/><path fill="#fff" fill-rule="evenodd" d="m313.4 154.4 16.5-1.7.3 2.2-16.6 1.6zm1 11 12-1.2.3 2-12 1.3zm-.5-5.5 16.6-1.7.2 2.1-16.6 1.7z" clip-rule="evenodd"/><g clip-path="url(#z)"><path fill="#185c37" d="m363.7 140.7-29-1.6c-1 0-1.8.7-1.9 1.8l-2 37.8c-.2 1.1.6 2 1.6 2l29 1.7a2 2 0 0 0 2-1.8l2-37.9c.1-1-.7-2-1.7-2z"/><path fill="#21a366" d="m349.7 140-15-1c-1 0-1.8.8-1.9 2l-.5 8.4 16.8 1z"/><path fill="#33c481" d="m365 151.2.4-8.5c0-1-.7-2-1.7-2l-14-.8-.6 10.4z"/><path fill="#107c41" d="m349.1 150.3-16.8-.9-.5 10.4 16.8 1z"/><path fill="#21a366" d="m365 151.2-15.9-.9-.6 10.5 15.9.9z"/><path fill="#107c41" d="m364.4 161.7-15.8-1-.6 10.5 15.8.9z"/><path fill="url(#A)" d="M0 0h14.5v26.8H0z" transform="translate(332.4 148)"/><path fill="url(#B)" d="m342.5 149-18.2-1.1c-1 0-1.8.7-1.9 1.8l-1 19.2c-.1 1 .7 2 1.7 2l18.1 1a2 2 0 0 0 2-1.8l1-19.2c0-1-.7-2-1.7-2z"/><path fill="#fff" d="m333 158.5-2-5-2.9-.1 3.2 6.4-4.2 6 2.8.2 2.8-4.9 2.2 5.1 2.7.2-3.3-6.4 4-6-2.6-.2z"/></g><path fill="#01ac46" fill-rule="evenodd" d="m349 140.3 15.8 5 6.4 12.3-8.2 25.8c-.5 1.4-2 2.2-3.5 1.7l-22.4-7c-1.4-.6-2.2-2.1-1.8-3.5l10.3-32.6c.5-1.4 2-2.2 3.5-1.7z" clip-rule="evenodd"/><path fill="#00852c" fill-rule="evenodd" d="m361.9 154.6 9.3 3-6.4-12.3z" clip-rule="evenodd"/><path fill="#fff" fill-rule="evenodd" d="m346.9 155.5 17.6 5.7-4 12.5L343 168zm-.1 8.3 5.3 1.7-.8 2.6-5.3-1.7zm1.6-5.2 5.4 1.7-.9 2.6-5.3-1.7zm6 7.7 5.4 1.7-.9 2.6-5.2-1.7zm1.7-5.2 5.3 1.7-.8 2.6-5.3-1.7z" clip-rule="evenodd"/><rect width="78" height="49" x="291" y="168" fill="url(#C)" stroke="#43b8ea" stroke-width=".5" rx="4"/><text style="opacity:.8;fill:#09f;font-family:Adobe Clean;font-size:20;font-weight:800;letter-spacing:-.02em" transform="translate(298 180)"><tspan x="0" y="18.7">content</tspan></text><path fill="#0d0d0d" d="M330.7 45.3a1 1 0 0 0-1.4 0l-6.4 6.4a1 1 0 1 0 1.4 1.4l5.7-5.7 5.7 5.7a1 1 0 1 0 1.4-1.4zm-1.7.7v1.5h2V46zm0 4.5v3h2v-3zm0 5.9v3h2v-3zm0 6v2.9h2v-3zm0 5.9v3h2v-3zm0 5.9v3h2v-3zm0 6V83h2v-3zm0 5.9v3h2v-3zm0 5.9v3h2v-3zm0 6v2.9h2v-3zm0 5.9v3h2v-3zm0 5.9v3h2v-3zm0 6v2.9h2v-3zm0 5.9v3h2v-3zm0 5.9v3h2v-3zm0 6v1.4h2v-1.5zm1.7-88.3a1 1 0 0 0-1.4 0l-6.4 6.4a1 1 0 1 0 1.4 1.4l5.7-5.7 5.7 5.7a1 1 0 1 0 1.4-1.4zm-1.7.7v1.5h2V46zm0 4.4v3h2v-3zm0 6v3h2v-3zm0 6v2.9h2v-3zm0 5.8v3h2v-3zm0 6v3h2v-3zm0 6V83h2v-3zm0 5.8v3h2v-3zm0 6v3h2v-3zm0 6v2.9h2v-3zm0 5.9v3h2v-3zm0 5.9v3h2v-3zm0 6v2.9h2v-3zm0 5.9v3h2v-3zm0 5.9v3h2v-3zm0 6v1.4h2v-1.5z"/><path fill="#f6f6f6" d="M251 63h160v48H251z"/><text xml:space="preserve" fill="#000" font-family="Helvetica" font-size="17" font-weight="bold" letter-spacing="0em" transform="translate(251 65)"><tspan x="35.1" y="16.9">sample content </tspan></text><text xml:space="preserve" fill="#000" font-family="Helvetica" font-size="17" letter-spacing="0em" transform="translate(251 65)"><tspan x=".1" y="16.9">Add </tspan><tspan x="7.2" y="38.9">from the boilerplate</tspan></text><path fill="#0d0d0d" d="M331.7 226.3a1 1 0 0 0-1.4 0l-6.4 6.4a1 1 0 1 0 1.4 1.4l5.7-5.7 5.7 5.7a1 1 0 1 0 1.4-1.4zm-1.7.7v1.5h2V227zm0 4.4v3h2v-3zm0 6v3h2v-3zm0 5.9v3h2v-3zm0 6v2.9h2v-3zm0 5.8v3h2v-3zm0 6v3h2v-3zm0 5.9v3h2v-3zm0 5.9v3h2v-3zm0 6v2.9h2v-3zm0 5.9v3h2v-3zm0 5.9v3h2v-3zm0 5.9v3h2v-3zm0 6v1.4h2v-1.5zm1.7-76.3a1 1 0 0 0-1.4 0l-6.4 6.4a1 1 0 1 0 1.4 1.4l5.7-5.7 5.7 5.7a1 1 0 1 0 1.4-1.4zm-1.7.7v1.5h2V227zm0 4.4v3h2v-3zm0 6v3h2v-3zm0 5.9v3h2v-3zm0 6v2.9h2v-3zm0 5.8v3h2v-3zm0 6v3h2v-3zm0 5.9v3h2v-3zm0 5.9v3h2v-3zm0 6v2.9h2v-3zm0 5.9v3h2v-3zm0 5.9v3h2v-3zm0 5.9v3h2v-3zm0 6v1.4h2v-1.5z"/></svg>