<svg fill="none" height="20" viewBox="0 0 20 20" width="20" xmlns="http://www.w3.org/2000/svg"><g fill="#06c"><path d="m10 18.7793c-4.8252 0-8.75-3.9248-8.75-8.75s3.9248-8.75 8.75-8.75 8.75 3.9248 8.75 8.75-3.9248 8.75-8.75 8.75zm0-16c-3.99805 0-7.25 3.25195-7.25 7.25 0 3.998 3.25195 7.25 7.25 7.25 3.998 0 7.25-3.252 7.25-7.25 0-3.99805-3.252-7.25-7.25-7.25z"/><path d="m12.75 9.25h-2v-2c0-.41406-.3359-.75-.75-.75-.41406 0-.75.33594-.75.75v2h-2c-.41406 0-.75.33594-.75.75 0 .4141.33594.75.75.75h2v2c0 .4141.33594.75.75.75.4141 0 .75-.3359.75-.75v-2h2c.4141 0 .75-.3359.75-.75 0-.41406-.3359-.75-.75-.75z"/></g></svg>