<svg width="16" height="16" viewBox="0 0 16 16" fill="none" xmlns="http://www.w3.org/2000/svg">
<path d="M1.68138 3.5H14.313C14.6603 3.5 14.9446 3.78421 14.9446 4.13158V5.07895C14.9446 5.07895 1.05612 5.12316 1.0498 5.10421V4.13158C1.0498 3.78421 1.33402 3.5 1.68138 3.5Z" stroke="#3D3D3D"/>
<path d="M14.9446 6.5V11.8684C14.9446 12.2158 14.6603 12.5 14.313 12.5H1.68138C1.33402 12.5 1.0498 12.2158 1.0498 11.8684V6.5H14.9446Z" stroke="#3D3D3D"/>
<path d="M2.31348 10.3779H5.69243" stroke="#3D3D3D" stroke-linecap="round"/>
<path d="M11.4718 11.3947C11.995 11.3947 12.4192 10.9706 12.4192 10.4474C12.4192 9.92415 11.995 9.5 11.4718 9.5C10.9486 9.5 10.5244 9.92415 10.5244 10.4474C10.5244 10.9706 10.9486 11.3947 11.4718 11.3947Z" stroke="#3D3D3D"/>
<path d="M12.8917 11.3947C13.4149 11.3947 13.8391 10.9706 13.8391 10.4474C13.8391 9.92415 13.4149 9.5 12.8917 9.5C12.3685 9.5 11.9443 9.92415 11.9443 10.4474C11.9443 10.9706 12.3685 11.3947 12.8917 11.3947Z" stroke="#3D3D3D"/>
</svg>
