
    <svg
      width="22"
      height="22"
      viewBox="0 0 22 22"
      fill="none"
      xmlns="http://www.w3.org/2000/svg"
    >
      <path
        d="M5.05029 20.55C5.87872 20.55 6.55029 19.8784 6.55029 19.05C6.55029 18.2216 5.87872 17.55 5.05029 17.55C4.22187 17.55 3.55029 18.2216 3.55029 19.05C3.55029 19.8784 4.22187 20.55 5.05029 20.55Z"
        stroke="currentColor"
      />
      <path
        d="M18.0503 20.55C18.8787 20.55 19.5503 19.8784 19.5503 19.05C19.5503 18.2216 18.8787 17.55 18.0503 17.55C17.2219 17.55 16.5503 18.2216 16.5503 19.05C16.5503 19.8784 17.2219 20.55 18.0503 20.55Z"
        stroke="currentColor"
      />
      <path
        d="M17.4002 17.54H5.63016L3.84016 1.44H1.16016"
        stroke="currentColor"
      />
      <path
        d="M4.24023 5.02002L20.8402 6.81002L20.0402 13.97H5.24023"
        stroke="currentColor"
      />
    </svg>
