<svg width="16" height="16" viewBox="0 0 16 16" fill="none" xmlns="http://www.w3.org/2000/svg">
<path d="M1.9375 3.5H10.0272V7.3592H13.8864L15.0003 8.47313V11.5897H13.1377" stroke="#3D3D3D" stroke-linecap="round" stroke-linejoin="round"/>
<path d="M10.0205 4.12091H12.4553L13.7519 7.2314" stroke="#3D3D3D" stroke-linecap="round" stroke-linejoin="round"/>
<path d="M6.57586 11.0662C6.57586 11.8697 5.91846 12.5211 5.11497 12.5211C4.31147 12.5211 3.66016 11.8636 3.66016 11.0602C3.66016 10.2567 4.31147 9.60535 5.11497 9.60535C5.91846 9.60535 6.56977 10.2567 6.57586 11.0602C6.57586 11.0602 6.57586 11.0602 6.57586 11.0662Z" stroke="#3D3D3D" stroke-linecap="round" stroke-linejoin="round"/>
<path d="M13.0097 11.0662C13.0097 11.8758 12.3584 12.5271 11.5488 12.5271C10.7392 12.5271 10.0879 11.8758 10.0879 11.0662C10.0879 10.2567 10.7392 9.60535 11.5488 9.60535C12.3584 9.60535 13.0097 10.2567 13.0097 11.0662Z" stroke="#3D3D3D" stroke-linecap="round" stroke-linejoin="round"/>
<path d="M5.5105 5.24091H1.44434" stroke="#3D3D3D" stroke-linecap="round" stroke-linejoin="round"/>
<path d="M4.88964 6.97571H1" stroke="#3D3D3D" stroke-linecap="round" stroke-linejoin="round"/>
<path d="M3.64825 8.68011H1.59082" stroke="#3D3D3D" stroke-linecap="round" stroke-linejoin="round"/>
<path d="M6.5752 11.048H10.0874" stroke="#3D3D3D" stroke-linecap="round" stroke-linejoin="round"/>
<path d="M1.88281 11.048H3.65415" stroke="#3D3D3D" stroke-linecap="round" stroke-linejoin="round"/>
</svg>
