<svg xmlns="http://www.w3.org/2000/svg" width="768" height="432" fill="none" viewBox="0 0 768 432"><path fill="#fff" d="M0 0h768v432H0z"/><path stroke="#eee" stroke-width="2" d="M281 0v432M549 0v432"/><rect width="188" height="38" x="58" y="92" fill="#fff" stroke="#cb361d" stroke-width="2" rx="7"/><text xml:space="preserve" fill="#000" font-family="Helvetica" font-size="13" font-weight="bold" letter-spacing="0em" style="white-space:pre"><tspan x="97.597" y="115.985">.dropin-design { }</tspan></text><text xml:space="preserve" fill="#000" font-family="Helvetica" font-size="13" letter-spacing="0em" style="white-space:pre"><tspan x="62.333" y="84.985">CSS class for all design tokens</tspan></text><text xml:space="preserve" fill="#000" font-family="Helvetica" font-size="16" font-weight="bold" letter-spacing="0em" style="white-space:pre"><tspan x="77" y="51.52">Drop-in design tokens</tspan></text><rect width="188" height="32" x="58" y="193" fill="#fff" stroke="#cb361d" stroke-width="2" rx="16"/><text xml:space="preserve" fill="#000" font-family="Helvetica" font-size="13" font-weight="bold" letter-spacing="0em" style="white-space:pre"><tspan x="76.463" y="213.985">--shape-border-radius-3:</tspan></text><rect width="63" height="32" x="121" y="280" fill="#fff" stroke="#cb361d" stroke-width="2" rx="16"/><text xml:space="preserve" fill="#000" font-family="Helvetica" font-size="13" letter-spacing="0em" style="white-space:pre"><tspan x="74.254" y="185.985">One of many shape tokens</tspan></text><text xml:space="preserve" fill="#000" font-family="Helvetica" font-size="13" letter-spacing="0em" style="white-space:pre"><tspan x="96.299" y="271.985">Default token value</tspan></text><path stroke="#cb361d" stroke-dasharray="3 3" stroke-linejoin="bevel" stroke-width="2" d="M53 209c-17.673 0-32 14.327-32 32v11.5c0 24.024 19.476 43.5 43.5 43.5H116"/><path fill="#cb361d" d="M53 110q-.757 0-1.508.024l.065 1.999Q52.276 112 53 112zm-4.51.218q-1.507.147-2.985.39l.323 1.973a44 44 0 0 1 2.856-.372zm-5.94.974a46 46 0 0 0-2.907.778l.58 1.914a44 44 0 0 1 2.78-.744zm-5.758 1.745q-1.414.533-2.782 1.154l.827 1.821a43 43 0 0 1 2.66-1.103zm-5.48 2.487q-1.33.713-2.607 1.508l1.058 1.697a44 44 0 0 1 2.492-1.442zm-5.108 3.183a46 46 0 0 0-2.387 1.834l1.27 1.545a45 45 0 0 1 2.283-1.755zm-4.65 3.819a46 46 0 0 0-2.128 2.129l1.46 1.367a44 44 0 0 1 2.036-2.036zm-4.113 4.391a46 46 0 0 0-1.834 2.387l1.624 1.166a44 44 0 0 1 1.755-2.283zm-3.51 4.888a46 46 0 0 0-1.507 2.606l1.763.945a44 44 0 0 1 1.442-2.493zm-2.84 5.305a46 46 0 0 0-1.154 2.782l1.872.704q.51-1.352 1.103-2.66zm-2.121 5.633q-.435 1.434-.778 2.908l1.948.452q.327-1.409.744-2.78zm-1.362 5.862a46 46 0 0 0-.39 2.986l1.99.193q.141-1.442.373-2.856zm-.584 5.987A47 47 0 0 0 7 156h2q0-.724.023-1.443zM7 156v2h2v-2zm0 6v2h2v-2zm0 2q0 .756.024 1.508l2-.065Q9 164.724 9 164zm.218 4.509q.147 1.508.39 2.986l1.973-.323a44 44 0 0 1-.372-2.856zm.974 5.94q.342 1.474.778 2.908l1.914-.58a44 44 0 0 1-.744-2.78zm1.745 5.759q.533 1.414 1.154 2.782l1.82-.826a44 44 0 0 1-1.102-2.66zm2.487 5.481a46 46 0 0 0 1.508 2.606l1.697-1.058a44 44 0 0 1-1.442-2.493zm3.183 5.107a46 46 0 0 0 1.834 2.387l1.545-1.27a44 44 0 0 1-1.755-2.283zm3.82 4.649a46 46 0 0 0 2.128 2.129l1.367-1.46q-1.051-.984-2.036-2.036zm4.39 4.114a46 46 0 0 0 2.387 1.834l1.166-1.624a45 45 0 0 1-2.283-1.755zm4.888 3.509q1.276.795 2.606 1.508l.944-1.763a44 44 0 0 1-2.492-1.442zm5.305 2.841q1.369.621 2.782 1.154l.704-1.872a43 43 0 0 1-2.66-1.103zm5.633 2.121q1.435.436 2.908.778l.452-1.948a44 44 0 0 1-2.78-.744zm5.862 1.362q1.477.243 2.986.39l.193-1.991a44 44 0 0 1-2.856-.372zm5.987.584Q52.243 210 53 210v-2q-.724 0-1.443-.023zm98.801 138.731a1 1 0 0 0 1.414 0l6.364-6.364a.999.999 0 1 0-1.414-1.414L151 346.586l-5.657-5.657a.999.999 0 1 0-1.414 1.414zM150 313v1.458h2V313zm0 4.375v2.917h2v-2.917zm0 5.833v2.917h2v-2.917zm0 5.834v2.916h2v-2.916zm0 5.833v2.917h2v-2.917zm0 5.833v2.917h2v-2.917zm0 5.834V348h2v-1.458z"/><text xml:space="preserve" fill="#000" font-family="Helvetica" font-size="13" font-weight="bold" letter-spacing="0em" style="white-space:pre"><tspan x="137.602" y="299.985">24px</tspan></text><rect width="116" height="42" x="93" y="359" fill="#454545" rx="21"/><text xml:space="preserve" fill="#fff" font-family="Helvetica" font-size="18" letter-spacing=".04em" style="white-space:pre"><tspan x="123" y="386.709">Button</tspan></text><rect width="116" height="42" x="590" y="359" fill="#454545" rx="4"/><text xml:space="preserve" fill="#fff" font-family="Helvetica" font-size="18" letter-spacing=".04em" style="white-space:pre"><tspan x="620" y="386.709">Button</tspan></text><text xml:space="preserve" fill="#000" font-family="Helvetica" font-size="14" letter-spacing="0em" style="white-space:pre"><tspan x="73" y="421.83">Button library component</tspan></text><text xml:space="preserve" fill="#000" font-family="Helvetica" font-size="14" letter-spacing="0em" style="white-space:pre"><tspan x="567" y="420.83">Merchant branding applied</tspan></text><path fill="url(#a)" d="M570.707 381.707a1 1 0 0 0 0-1.414l-6.364-6.364a.999.999 0 1 0-1.414 1.414l5.657 5.657-5.657 5.657a.999.999 0 1 0 1.414 1.414zM230 382h340v-2H230z"/><rect width="151" height="38" x="338" y="92" fill="#fff" stroke="#3f80de" stroke-width="2" rx="7"/><text xml:space="preserve" fill="#000" font-family="Helvetica" font-size="13" font-weight="bold" letter-spacing="0em" style="white-space:pre"><tspan x="360.14" y="115.985">.dropin-design { }</tspan></text><text xml:space="preserve" fill="#000" font-family="Helvetica" font-size="16" font-weight="bold" letter-spacing="0em" style="white-space:pre"><tspan x="326" y="53.52">Branding default values</tspan></text><rect width="188" height="32" x="319" y="195" fill="#fff" stroke="#3f80de" stroke-width="2" rx="16"/><text xml:space="preserve" fill="#000" font-family="Helvetica" font-size="13" font-weight="bold" letter-spacing="0em" style="white-space:pre"><tspan x="337.463" y="215.985">--shape-border-radius-3:</tspan></text><rect width="59" height="32" x="384" y="280" fill="#fff" stroke="#3f80de" stroke-width="2" rx="16"/><text xml:space="preserve" fill="#000" font-family="Helvetica" font-size="13" font-weight="bold" letter-spacing="0em" style="white-space:pre"><tspan x="402.22" y="299.985">4px</tspan></text><text xml:space="preserve" fill="#000" font-family="Helvetica" font-size="13" letter-spacing="0em" style="white-space:pre"><tspan x="352.004" y="271.985">Change default value</tspan></text><text xml:space="preserve" fill="#000" font-family="Helvetica" font-size="13" letter-spacing="0em" style="white-space:pre"><tspan x="345.155" y="187.985">Select token to override</tspan></text><text xml:space="preserve" fill="#000" font-family="Helvetica" font-size="13" letter-spacing="0em" style="white-space:pre"><tspan x="335.286" y="84.985">Override tokens CSS class</tspan></text><path stroke="#3f80de" stroke-dasharray="3 3" stroke-linecap="round" stroke-width="2" d="M414 135v38m0 55v28"/><path fill="#cb361d" d="M189 295a1 1 0 0 0 0 2zm190.707 1.707a1 1 0 0 0 0-1.414l-6.364-6.364a.999.999 0 1 0-1.414 1.414l5.657 5.657-5.657 5.657a.999.999 0 1 0 1.414 1.414zM189 297h1.484v-2H189zm4.453 0h2.969v-2h-2.969zm5.938 0h2.968v-2h-2.968zm5.937 0h2.969v-2h-2.969zm5.938 0h2.968v-2h-2.968zm5.937 0h2.969v-2h-2.969zm5.938 0h2.968v-2h-2.968zm5.937 0h2.969v-2h-2.969zm5.938 0h2.968v-2h-2.968zm5.937 0h2.969v-2h-2.969zm5.938 0h2.968v-2h-2.968zm5.937 0h2.969v-2h-2.969zm5.938 0h2.968v-2h-2.968zm5.937 0h2.969v-2h-2.969zm5.938 0h2.968v-2h-2.968zm5.937 0h2.969v-2h-2.969zm5.938 0h2.968v-2h-2.968zm5.937 0h2.969v-2h-2.969zm5.938 0h2.968v-2h-2.968zm5.937 0h2.969v-2h-2.969zm5.938 0h2.968v-2h-2.968zm5.937 0h2.969v-2h-2.969zm5.938 0h2.968v-2h-2.968zm5.937 0h2.969v-2h-2.969zm5.938 0h2.968v-2h-2.968zm5.937 0h2.969v-2h-2.969zm5.938 0h2.968v-2h-2.968zm5.937 0h2.969v-2h-2.969zm5.938 0h2.968v-2h-2.968zm5.937 0h2.969v-2h-2.969zm5.938 0h2.968v-2h-2.968zm5.937 0h2.969v-2h-2.969zm5.938 0H379v-2h-1.484z"/><rect width="115" height="38" x="590" y="94" fill="#fff" stroke="#cb361d" stroke-width="2" rx="7"/><text xml:space="preserve" fill="#000" font-family="Helvetica" font-size="13" font-weight="bold" letter-spacing="0em" style="white-space:pre"><tspan x="594.383" y="117.985">.dropin-button { }</tspan></text><text xml:space="preserve" fill="#000" font-family="Helvetica" font-size="16" font-weight="bold" letter-spacing="0em" style="white-space:pre"><tspan x="582" y="51.52">Branding applied</tspan></text><rect width="121" height="32" x="587" y="194" fill="#fff" stroke="#cb361d" stroke-width="2" rx="16"/><text xml:space="preserve" fill="#000" font-family="Helvetica" font-size="13" font-weight="bold" letter-spacing="0em" style="white-space:pre"><tspan x="605" y="214.985">border-radius:</tspan></text><rect width="211" height="32" x="542" y="280" fill="#fff" stroke="#3f80de" stroke-width="2" rx="16"/><text xml:space="preserve" fill="#000" font-family="Helvetica" font-size="13" font-weight="bold" letter-spacing="0em" style="white-space:pre"><tspan x="560.029" y="300.985">var(--shape-border-radius-3)</tspan></text><text xml:space="preserve" fill="#000" font-family="Helvetica" font-size="13" letter-spacing="0em" style="white-space:pre"><tspan x="567.24" y="84.985">Main class for library Button</tspan></text><text xml:space="preserve" fill="#000" font-family="Helvetica" font-size="13" letter-spacing="0em" style="white-space:pre"><tspan x="605.35" y="186.985">CSS class rule</tspan></text><text xml:space="preserve" fill="#000" font-family="Helvetica" font-size="13" letter-spacing="0em" style="white-space:pre"><tspan x="580" y="271.985">Embedded dropin token</tspan></text><path fill="#3f80de" d="M537.707 296.707a1 1 0 0 0 0-1.414l-6.364-6.364a.999.999 0 1 0-1.414 1.414l5.657 5.657-5.657 5.657a.999.999 0 1 0 1.414 1.414zM448 297h1.483v-2H448zm4.45 0h2.967v-2h-2.967zm5.933 0h2.967v-2h-2.967zm5.934 0h2.966v-2h-2.966zm5.933 0h2.967v-2h-2.967zm5.933 0h2.967v-2h-2.967zm5.934 0h2.966v-2h-2.966zm5.933 0h2.967v-2h-2.967zm5.933 0h2.967v-2h-2.967zm5.934 0h2.966v-2h-2.966zm5.933 0h2.967v-2h-2.967zm5.933 0h2.967v-2h-2.967zm5.934 0h2.966v-2h-2.966zm5.933 0h2.967v-2h-2.967zm5.933 0h2.967v-2h-2.967zm5.934 0H537v-2h-1.483z"/><path stroke="#cb361d" stroke-dasharray="3 3" stroke-linejoin="bevel" stroke-width="2" d="M710 113c25.957 0 47 21.043 47 47v6c0 24.301-19.699 44-44 44"/><path stroke="#cb361d" stroke-dasharray="3 3" stroke-linejoin="round" stroke-width="2" d="M709 214s27.5-1 38 20-6 43-6 43"/><path fill="#3f80de" d="M649.293 348.707a1 1 0 0 0 1.414 0l6.364-6.364a.999.999 0 1 0-1.414-1.414L650 346.586l-5.657-5.657a.999.999 0 1 0-1.414 1.414zM649 313v1.458h2V313zm0 4.375v2.917h2v-2.917zm0 5.833v2.917h2v-2.917zm0 5.834v2.916h2v-2.916zm0 5.833v2.917h2v-2.917zm0 5.833v2.917h2v-2.917zm0 5.834V348h2v-1.458z"/><circle cx="152" cy="20" r="12" fill="#cb361d"/><text xml:space="preserve" fill="#fff" font-family="Helvetica" font-size="14" font-weight="bold" letter-spacing="0em" style="white-space:pre"><tspan x="148.104" y="24.941">1</tspan></text><circle cx="413" cy="20" r="12" fill="#cb361d"/><text xml:space="preserve" fill="#fff" font-family="Helvetica" font-size="14" font-weight="bold" letter-spacing="0em" style="white-space:pre"><tspan x="409.104" y="24.941">2</tspan></text><circle cx="648" cy="20" r="12" fill="#cb361d"/><text xml:space="preserve" fill="#fff" font-family="Helvetica" font-size="14" font-weight="bold" letter-spacing="0em" style="white-space:pre"><tspan x="644.104" y="24.941">3</tspan></text><defs><linearGradient id="a" x1="349.096" x2="448.822" y1="363.501" y2="396.05" gradientUnits="userSpaceOnUse"><stop stop-color="#cb361d"/><stop offset=".964" stop-color="#3f80de"/></linearGradient></defs></svg>