<svg xmlns="http://www.w3.org/2000/svg" fill="none" viewBox="0 0 24 24">
  <path fill="#0071BC" fill-rule="evenodd" d="M3.3 21.6 1.4 0h21.2l-2 21.6L12 24l-8.7-2.4Z" clip-rule="evenodd"/>
  <path fill="#29ABE2" fill-rule="evenodd" d="m12 22.2 7-2 1.6-18.4H12v20.4Z" clip-rule="evenodd"/>
  <path fill="#B3B3B3" fill-rule="evenodd" d="m5.8 9.7.2 2.7 6-2.7V7.1L5.8 9.7Z" clip-rule="evenodd"/>
  <path fill="#E6E6E6" fill-rule="evenodd" d="M18.6 4.3 12 7v2.6L18.4 7l.2-2.6ZM12 16.7l-3-.8-.2-2.1H6.2l.3 4.1 5.5 1.5v-2.7Z" clip-rule="evenodd"/>
  <path fill="#fff" fill-rule="evenodd" d="M12 9.7v2.7h3.2l-.3 3.4-2.9.9v2.7l5.4-1.5.7-8.2h-6Z" clip-rule="evenodd"/>
  <path fill="#E6E6E6" fill-rule="evenodd" d="M12 9.7H5.8l.2 2.7h6V9.7Zm0-2.8V4.3H5.3l.3 2.6H12Z" clip-rule="evenodd"/>
  <path fill="#fff" fill-rule="evenodd" d="M12 4.3v2.6h6.4l.2-2.6H12Z" clip-rule="evenodd"/>
</svg>
