<svg xmlns="http://www.w3.org/2000/svg" fill="none" viewBox="0 0 24 24">
  <path fill="#0071BC" fill-rule="evenodd" d="M3.82 20.8 2 1h20l-1.82 19.8-8.2 2.2-8.16-2.2Z" clip-rule="evenodd"/>
  <path fill="#29ABE2" fill-rule="evenodd" d="m12.02 21.32 6.6-1.77 1.56-16.9h-8.16v18.67Z" clip-rule="evenodd"/>
  <path fill="#B3B3B3" fill-rule="evenodd" d="m6.17 9.92.22 2.43 5.63-2.43V7.5L6.17 9.92Z" clip-rule="evenodd"/>
  <path fill="#E6E6E6" fill-rule="evenodd" d="m18.25 4.9-6.23 2.6v2.42l6.02-2.6.21-2.42Zm-6.23 11.37H12l-2.8-.73-.18-1.93H6.51l.35 3.81L12 18.8h.02v-2.53Z" clip-rule="evenodd"/>
  <path fill="#fff" fill-rule="evenodd" d="M12.02 9.92v2.43h3.05l-.27 3.17-2.78.75v2.53l5.12-1.38.67-7.5h-5.8Z" clip-rule="evenodd"/>
  <path fill="#E6E6E6" fill-rule="evenodd" d="M12.02 9.92H6.17l.22 2.43h5.63V9.92Zm0-2.59V4.9h-6.3l.22 2.43h6.08Z" clip-rule="evenodd"/>
  <path fill="#fff" fill-rule="evenodd" d="M12.02 4.9v2.43h6.02l.21-2.43h-6.23Z" clip-rule="evenodd"/>
</svg>
