<svg width="24" height="24" viewBox="0 0 24 24" fill="none" xmlns="http://www.w3.org/2000/svg">
<path fill-rule="evenodd" clip-rule="evenodd" d="M23.5487 10.9306L13.0699 0.452667C12.4669 -0.150889 11.4881 -0.150889 10.8843 0.452667L8.70835 2.62858L11.4686 5.38882C12.1101 5.1721 12.8456 5.31746 13.3569 5.82885C13.8707 6.3434 14.015 7.08521 13.793 7.72879L16.4532 10.389C17.0968 10.1672 17.8394 10.3108 18.3534 10.8256C19.0718 11.5437 19.0718 12.7076 18.3534 13.4262C17.6348 14.1449 16.4708 14.1449 15.7519 13.4262C15.2116 12.8854 15.0781 12.0917 15.3517 11.426L12.8708 8.94512L12.8706 15.4736C13.0457 15.5605 13.2111 15.6761 13.3569 15.8215C14.0753 16.5396 14.0753 17.7035 13.3569 18.4227C12.6383 19.1411 11.4739 19.1411 10.7563 18.4227C10.0379 17.7035 10.0379 16.5396 10.7563 15.8215C10.9338 15.6443 11.1392 15.5102 11.3583 15.4202V8.83083C11.1392 8.7413 10.934 8.60806 10.7563 8.42952C10.212 7.886 10.0811 7.08731 10.36 6.41898L7.63922 3.69771L0.454208 10.8822C-0.149612 11.4863 -0.149612 12.4651 0.454208 13.0686L10.933 23.5469C11.5363 24.1504 12.5148 24.1504 13.1189 23.5469L23.5487 13.1174C24.1522 12.5135 24.1522 11.5342 23.5487 10.9306" fill="#DE4C36"/>
</svg>
