<svg xmlns="http://www.w3.org/2000/svg" fill="none" viewBox="0 0 24 24">
  <path fill="#161614" fill-rule="evenodd" d="M12 1C5.93 1 1 6.05 1 12.28c0 4.98 3.15 9.2 7.52 10.7.55.1.75-.24.75-.54l-.01-2.1C6.2 21.02 5.56 19 5.56 19c-.5-1.3-1.23-1.65-1.23-1.65-1-.7.08-.69.08-.69 1.1.08 1.68 1.16 1.68 1.16.98 1.73 2.58 1.23 3.2.94.1-.73.39-1.23.7-1.5-2.44-.3-5-1.26-5-5.58 0-1.23.42-2.24 1.12-3.03a4.15 4.15 0 0 1 .11-2.98s.92-.3 3.03 1.15a10.3 10.3 0 0 1 5.5 0c2.1-1.46 3.03-1.15 3.03-1.15.6 1.55.22 2.7.1 2.98.71.8 1.14 1.8 1.14 3.03 0 4.33-2.58 5.29-5.03 5.56.4.35.75 1.04.75 2.1l-.01 3.09c0 .3.2.65.75.54A11.26 11.26 0 0 0 23 12.28C23 6.05 18.07 1 12 1ZM5.12 17.07c-.02.05-.11.07-.19.03-.08-.04-.12-.11-.1-.17.03-.06.11-.07.2-.03.07.03.12.11.09.17Zm.54.5c-.05.04-.15.02-.22-.06-.08-.08-.09-.18-.04-.24.06-.04.16-.02.23.06s.09.18.03.23Zm.37.62c-.07.05-.18 0-.24-.1-.07-.1-.07-.21 0-.26.07-.05.17 0 .24.1.07.1.07.22 0 .26Zm.63.74c-.06.07-.19.05-.28-.04-.1-.1-.13-.22-.07-.3.07-.06.2-.04.29.05.1.1.12.22.06.29Zm.81.25c-.03.08-.15.12-.27.09-.13-.04-.2-.15-.18-.23.02-.1.15-.14.27-.1.13.04.2.15.18.24Zm.92.1c0 .1-.1.17-.23.17s-.24-.07-.24-.16c0-.1.1-.17.24-.17.13 0 .23.07.23.16Zm.91-.03c.02.09-.07.18-.2.2-.13.03-.25-.03-.27-.12-.01-.1.08-.18.2-.2.14-.03.26.02.27.12Z" clip-rule="evenodd"/>
</svg>
