<svg xmlns="http://www.w3.org/2000/svg" viewBox="0 0 24 24">
  <g fill="none" fill-rule="evenodd">
    <circle cx="12" cy="12" r="12" fill="#FFF"/>
    <path fill="#161614" d="M12 1a11 11 0 0 0-3.5 21.5c.6 0 .8-.3.8-.5v-2.1c-3.1.7-3.7-1.3-3.7-1.3C5 17.3 4.3 17 4.3 17c-1-.7.1-.7.1-.7 1.1 0 1.7 1.1 1.7 1.1 1 1.7 2.6 1.2 3.2 1 0-.8.4-1.2.7-1.5-2.5-.3-5-1.2-5-5.5 0-1.2.4-2.2 1.1-3a4 4 0 0 1 .1-2.8s1-.3 3 1c1.8-.4 3.8-.4 5.5 0 2.1-1.3 3-1 3-1 .7 1.5.3 2.6.2 2.9.7.8 1.1 1.7 1.1 3 0 4.2-2.6 5.1-5 5.4.4.3.7 1 .7 2v3c0 .3.2.7.8.6A11 11 0 0 0 12 1Z"/>
  </g>
</svg>
