<svg xmlns="http://www.w3.org/2000/svg" fill="none" viewBox="0 0 24 24">
  <path fill="#E535AB" fill-rule="evenodd" d="m13.87 3.52 4.53 2.61a1.97 1.97 0 1 1 1.88 3.25v5.23a1.97 1.97 0 1 1-1.93 3.22l-4.5 2.6a1.96 1.96 0 1 1-3.74.05l-4.52-2.6a1.96 1.96 0 1 1-1.88-3.26V9.38a1.97 1.97 0 1 1 1.88-3.26l4.52-2.61a1.96 1.96 0 1 1 3.76 0Zm-.47.8 4.54 2.62a1.96 1.96 0 0 0 1.4 2.44v5.24a.1.1 0 0 0-.07.02L13.35 4.38l.05-.05Zm-2.76.06L4.72 14.64l-.08-.02V9.38a1.95 1.95 0 0 0 1.4-2.44l4.54-2.62.06.06Zm1.9.46 5.92 10.26a1.95 1.95 0 0 0-.55.96H6.08a1.97 1.97 0 0 0-.56-.96l5.93-10.26a1.97 1.97 0 0 0 1.1 0Zm.9 14.88 4.5-2.6a2 2 0 0 1-.03-.13H6.07c0 .02 0 .05-.02.07l4.53 2.62a1.95 1.95 0 0 1 2.86.04Z" clip-rule="evenodd"/>
</svg>
