<svg xmlns="http://www.w3.org/2000/svg" fill="none" viewBox="0 0 24 24">
  <g clip-path="url(#a)">
    <path fill="#E44D26" d="m11.99 23-8.17-2.2L2 1h20l-1.82 19.8-8.2 2.2Z"/>
    <path fill="#F16529" d="m18.62 19.54 1.56-16.92H12v18.7l6.62-1.78Z"/>
    <path fill="#fff" d="M12 7.48h6.05l.22-2.43H5.73l.67 7.34h8.68l-.29 3.15-2.8.73-2.78-.73-.18-1.93H6.52l.35 3.8L12 18.8l5.13-1.38.69-7.46H8.7l-.23-2.48H12Z"/>
    <path fill="#EBEBEB" d="m12 16.27-2.8-.73-.17-1.93H6.52l.35 3.8L12 18.8v-2.53Zm0-3.87V9.95H8.7l-.23-2.48H12V5.05H5.73l.67 7.34H12Z"/>
  </g>
  <defs>
    <clipPath id="a">
      <path fill="#fff" d="M2 1h20v22H2z"/>
    </clipPath>
  </defs>
</svg>
