<svg xmlns="http://www.w3.org/2000/svg" fill="none" viewBox="0 0 24 24">
  <path fill="#E44D26" fill-rule="evenodd" d="M3.3 21.6 1.4 0h21.2l-2 21.6L12 24l-8.7-2.4Z" clip-rule="evenodd"/>
  <path fill="#F16529" fill-rule="evenodd" d="m12 22.2 7-2 1.6-18.4H12v20.4Z" clip-rule="evenodd"/>
  <path fill="#EBEBEB" d="M8.5 9.8H12v2.6H6l-.7-8H12v2.7H8.2l.3 2.7Zm3.5 6.9v2.7L6.5 18l-.3-4.1h2.6l.2 2 3 .9Z"/>
  <path fill="#fff" d="M12 4.4h6.6l-.2 2.7H12V4.4Zm0 8V9.8h6v.7l-.7 7.4-5.4 1.5v-2.7l3-.8.2-3.5H12Z"/>
</svg>
