<svg width="24" height="24" viewBox="0 0 24 24" fill="none" xmlns="http://www.w3.org/2000/svg">
<path fill-rule="evenodd" clip-rule="evenodd" d="M1 1H23V23H1V1V1Z" fill="#F7DF1E"/>
<path fill-rule="evenodd" clip-rule="evenodd" d="M6.78461 19.3848L8.4682 18.3659C8.793 18.9418 9.08847 19.429 9.79718 19.429C10.4765 19.429 10.9048 19.1633 10.9048 18.1297V11.1001H12.9723V18.1589C12.9723 20.3002 11.7171 21.2749 9.88581 21.2749C8.23193 21.2749 7.27189 20.4183 6.78458 19.3846" fill="black"/>
<path fill-rule="evenodd" clip-rule="evenodd" d="M14.0952 19.1633L15.7786 18.1886C16.2218 18.9123 16.7977 19.4439 17.8166 19.4439C18.6733 19.4439 19.2195 19.0156 19.2195 18.4249C19.2195 17.716 18.6584 17.4649 17.7132 17.0516L17.1965 16.8299C15.7049 16.195 14.7154 15.3976 14.7154 13.714C14.7154 12.1634 15.8968 10.9819 17.7428 10.9819C19.0572 10.9819 20.0023 11.4398 20.6816 12.636L19.0719 13.6697C18.7174 13.0347 18.3336 12.7837 17.7429 12.7837C17.1374 12.7837 16.7534 13.1677 16.7534 13.6697C16.7534 14.2899 17.1374 14.541 18.0234 14.925L18.5402 15.1465C20.2976 15.8997 21.287 16.6676 21.287 18.3953C21.287 20.2562 19.8251 21.2751 17.861 21.2751C15.9412 21.2751 14.7007 20.3595 14.0953 19.1633" fill="black"/>
</svg>
