<svg xmlns="http://www.w3.org/2000/svg" xml:space="preserve" baseProfile="tiny" overflow="visible" version="1.2" viewBox="0 0 24 24">
  <g fill-rule="evenodd">
    <path fill="#F7DF1E" d="M0 0h24v24H0V0z"/>
    <path d="m6.3 20 1.8-1.1c.4.6.7 1.1 1.4 1.1s1.2-.3 1.2-1.4V11H13v7.7c0 2.3-1.4 3.4-3.4 3.4-1.4.1-2.7-.8-3.3-2.1m7.9-.2 1.8-1c.4.9 1.3 1.4 2.2 1.3.9 0 1.5-.4 1.5-1.1 0-.8-.6-1-1.6-1.5l-.5-.2c-1.6-.7-2.6-1.6-2.6-3.4 0-1.7 1.3-3 3.3-3 1.4 0 2.5.5 3.2 1.8l-1.7 1.1c-.4-.7-.8-1-1.4-1-.7 0-1 .4-1 1 0 .7.5 1 1.4 1.3l.6.2c2 .8 3 1.7 3 3.5 0 2-1.6 3.1-3.8 3.1-2.3.2-3.7-.7-4.4-2.1"/>
  </g>
</svg>
