<svg xmlns="http://www.w3.org/2000/svg" viewBox="0 0 24 24">
  <path fill="#EB1" d="M12.5 5.98a5.9 5.9 0 0 0-4.14 1.56 5.35 5.35 0 0 0 .11 7.96 4.42 4.42 0 0 1 1.15 2.3v3.84l.12.33 1.5 1.42.34.11h1.84l.34-.11 1.5-1.42.1-.33v-3.4c0-.65.12-1.1.47-1.64.46-.88 1.15-1.53 1.72-2.3.58-.88.8-1.75.8-2.74a5.34 5.34 0 0 0-1.67-3.98 5.9 5.9 0 0 0-4.18-1.6Zm2.75 8.54a7.65 7.65 0 0 0-1.38 1.97l-.22 1.53h-2.3v-.98l-.58-1.1-1.15-1.42a4.4 4.4 0 0 1-1.38-2.96 3.73 3.73 0 0 1 1.17-2.93A4.14 4.14 0 0 1 12.5 7.5a4.14 4.14 0 0 1 3.08 1.12 3.73 3.73 0 0 1 1.17 2.93 4.3 4.3 0 0 1-1.5 2.96ZM12.15.5h.7c.22 0 .45.22.45.55v2.74c0 .32-.23.54-.46.54h-.69a.55.55 0 0 1-.46-.54V1.05c0-.33.23-.55.46-.55ZM24 11.23v.44c0 .33-.23.66-.57.66h-2.88a.59.59 0 0 1-.45-.2.53.53 0 0 1-.12-.46v-.44c0-.33.23-.65.57-.65h2.88c.34 0 .57.32.57.65Zm-18.97 0v.44c0 .33-.23.66-.57.66H1.58a.59.59 0 0 1-.46-.2.53.53 0 0 1-.12-.46v-.44c0-.33.23-.65.58-.65h2.87c.34 0 .57.32.57.65Zm2.3-5.03-.34.43a.57.57 0 0 1-.8 0L4.21 4.66a.53.53 0 0 1 0-.76l.34-.33a.57.57 0 0 1 .8 0l2.08 1.86c.23.22.23.55 0 .77h-.12Zm10.7.43-.47-.43a.53.53 0 0 1 0-.77l2.07-1.86a.57.57 0 0 1 .8 0l.35.33a.5.5 0 0 1 0 .76l-1.95 1.97a.57.57 0 0 1-.8 0Z"/>
</svg>
