<svg xmlns="http://www.w3.org/2000/svg" fill="none" viewBox="0 0 20 20">
  <path fill="#292929" d="M10 2.24a.75.75 0 0 1-.75-.75V.8a.75.75 0 0 1 1.5 0v.7c0 .42-.34.75-.75.75Zm8.45 7.78h-.7a.75.75 0 0 1 0-1.5h.7a.75.75 0 0 1 0 1.5Zm-16.22 0h-.7a.75.75 0 0 1 0-1.5h.7a.75.75 0 0 1 0 1.5Zm2.28-5.48a.75.75 0 0 1-.53-.22l-.5-.5a.75.75 0 1 1 1.07-1.06l.5.5a.75.75 0 0 1-.54 1.28Zm10.97 0a.75.75 0 0 1-.53-1.28l.5-.5a.75.75 0 1 1 1.05 1.06l-.5.5a.75.75 0 0 1-.52.22ZM16 9.5a6 6 0 1 0-9 5.19v1.81a3 3 0 0 0 6 0v-1.81a6 6 0 0 0 3-5.19Zm-4.5 7a1.5 1.5 0 0 1-3 0v-1.2a5.97 5.97 0 0 0 3 0v1.2ZM10 14a4.5 4.5 0 1 1 .01-9.01A4.5 4.5 0 0 1 10 14Z"/>
</svg>
