<svg xmlns="http://www.w3.org/2000/svg" fill="none" viewBox="0 0 24 24">
  <path fill="#539E43" fill-rule="evenodd" d="M12 23c-.31 0-.6-.08-.87-.22l-2.75-1.6c-.42-.22-.21-.3-.09-.34.56-.18.67-.22 1.25-.55.06-.04.14-.02.2.02l2.12 1.23c.08.05.18.05.24 0l8.26-4.66c.09-.04.13-.13.13-.23V7.34c0-.1-.04-.19-.13-.23L12.1 2.47c-.08-.05-.18-.05-.24 0L3.59 7.1c-.08.04-.12.15-.12.23v9.31c0 .08.04.19.12.23l2.26 1.27c1.22.6 1.99-.1 1.99-.8v-9.2c0-.13.1-.25.25-.25h1.05c.13 0 .25.1.25.24v9.2c0 1.6-.89 2.53-2.44 2.53-.48 0-.85 0-1.9-.5l-2.18-1.22A1.7 1.7 0 0 1 2 16.67V7.36c0-.61.33-1.18.87-1.48l8.26-4.67a1.89 1.89 0 0 1 1.74 0l8.26 4.67c.54.3.87.87.87 1.48v9.31a1.7 1.7 0 0 1-.87 1.48l-8.26 4.67c-.27.12-.58.18-.87.18Zm2.55-6.4c-3.63 0-4.37-1.62-4.37-3 0-.12.1-.24.25-.24h1.07c.13 0 .23.08.23.2.17 1.07.64 1.6 2.84 1.6 1.74 0 2.48-.39 2.48-1.3 0-.52-.2-.9-2.92-1.17-2.25-.22-3.66-.7-3.66-2.46 0-1.64 1.4-2.61 3.77-2.61 2.65 0 3.95.89 4.12 2.83 0 .06-.02.12-.07.18-.04.04-.1.08-.16.08h-1.08c-.1 0-.2-.08-.23-.18-.24-1.11-.89-1.48-2.58-1.48-1.9 0-2.14.65-2.14 1.14 0 .58.27.76 2.84 1.09 2.55.32 3.75.79 3.75 2.52-.02 1.78-1.51 2.8-4.14 2.8Z" clip-rule="evenodd"/>
</svg>
