<svg xmlns="http://www.w3.org/2000/svg" fill="none" viewBox="0 0 24 24">
  <g clip-path="url(#a)">
    <path fill="#036C70" d="M11.31 14.06a6.53 6.53 0 1 0 0-13.06 6.53 6.53 0 0 0 0 13.06Z"/>
    <path fill="#1A9BA1" d="M17.41 18.88a5.59 5.59 0 1 0 0-11.18 5.59 5.59 0 0 0 0 11.18Z"/>
    <path fill="#37C6D0" d="M15.16 21.7a4.47 4.47 0 1 0-6.32-6.33 4.47 4.47 0 0 0 6.32 6.32Z"/>
    <path fill="#000" d="M4.9 6.36a6.5 6.5 0 0 0 5.19 7.59c.4.07.81.11 1.22.1.2 0 .38 0 .56-.02v.03a4.46 4.46 0 0 0-3.97 2.65l2.66-.31c.38 0 1.4-.33 1.4-.7V7.04a.7.7 0 0 0-.7-.7H4.9Z" opacity=".15"/> 
    <path fill="#03787C" d="M1.92 6.5h9.16c.5 0 .92.4.92.9v9.19c0 .5-.4.92-.91.92H1.91A.92.92 0 0 1 1 16.6V7.41c0-.5.41-.92.92-.92Z"/>
    <path fill="#fff" d="M5.24 11.94a1.83 1.83 0 0 1-.55-.56c-.13-.25-.2-.52-.2-.8 0-.37.12-.74.36-1.03.26-.29.59-.5.96-.62a5.02 5.02 0 0 1 3 .04v1.2a2.5 2.5 0 0 0-.78-.3c-.3-.08-.6-.12-.9-.12-.32-.01-.63.06-.92.2a.62.62 0 0 0-.37.55c0 .15.06.29.16.4.12.12.26.22.4.3l.8.34.11.05c.35.13.68.29 1 .48.52.3.83.87.8 1.48 0 .39-.11.76-.34 1.07-.23.28-.54.5-.9.6-.4.13-.83.2-1.27.19a6.6 6.6 0 0 1-2.1-.37v-1.27a3.68 3.68 0 0 0 2 .62c.33.02.66-.05.95-.2.2-.12.33-.33.33-.56a.6.6 0 0 0-.19-.44c-.14-.14-.3-.25-.47-.34a18 18 0 0 0-.93-.42c-.34-.13-.65-.3-.95-.5Z"/>
  </g>
  <defs>
    <clipPath id="a">
      <path fill="#fff" d="M1 1h22v22H1z"/>
    </clipPath>
  </defs>
</svg>
