<svg xmlns="http://www.w3.org/2000/svg" fill="none" viewBox="0 0 24 24">
  <path fill="#EB1000" d="M12.01 1c2.37 0 4.73-.02 7.1.02 1.64.02 2.84.83 3.55 2.35.24.5.34 1.05.34 1.6v14.04a3.9 3.9 0 0 1-3.85 3.98H4.87a3.91 3.91 0 0 1-3.86-4V5a3.93 3.93 0 0 1 3.9-4h7.1Z"/>
  <path fill="#fff" d="M9.22 17.94H5.5c-.47 0-.6-.22-.42-.66l4.8-11.7c.18-.46.35-.58.85-.58h2.54c.4 0 .66.17.82.56l4.83 11.72c.19.45.05.66-.42.66h-2.6c-.37 0-.6-.15-.75-.51l-2.99-7.15c-.03-.08-.11-.15-.17-.23-.06.08-.15.14-.18.22L10 14.7c-.13.3-.1.37.23.37h1.86c.23 0 .37.08.46.3l.84 1.93c.17.39.01.65-.4.65H9.21Z"/>
</svg>
