<svg xmlns="http://www.w3.org/2000/svg" fill="none" viewBox="0 0 24 24" style="marginBottom: -0.15rem;">
  <ellipse cx="12" cy="14" fill="#fff" rx="9" ry="9"/>
  <path fill="#0D0D0D" d="m21.97 5.9-1.24-1.13-1.18-1.06a.1.1 0 0 0-.07-.03.1.1 0 0 0-.06.02L17.9 4.78a.1.1 0 0 0-.05.08c0 .03.01.06.04.08l1.52 1.38 1.5 1.36a.1.1 0 0 0 .08.02.1.1 0 0 0 .07-.05L22 6.02a.1.1 0 0 0-.02-.13Z"/>
  <path fill="#EC0000" d="M11.86 14.14h.03l5.56-3.3a6.46 6.46 0 0 0-5.55-3.13h-.04v6.43Z"/>
  <path fill="#0D0D0D" d="m12.9 4.31-.27-.02V3.2h1.35c.3 0 .47-.05.6-.18.33-.37.4-.67.4-.95 0-.28-.06-.57-.4-.9-.11-.12-.26-.17-.51-.17l-4.38.02h-.02c-.2 0-.33.04-.44.14-.33.37-.4.67-.4.95 0 .28.07.57.4.9.11.12.26.19.6.19h1.35v1.1l-.26.03A9.85 9.85 0 0 0 2 14.13a9.9 9.9 0 0 0 19.81 0 9.85 9.85 0 0 0-8.91-9.82Zm5.05 15.33a8.1 8.1 0 0 1-5.26 2.61l-.18.02h-1.22l-.17-.02a8.17 8.17 0 0 1-7.37-7.34l-.02-.18v-.01l.01-1.2.02-.18A8.17 8.17 0 0 1 17.7 8.36a8.08 8.08 0 0 1 2.39 5.77c0 2.05-.76 4-2.14 5.5v.01Z"/>
  <path fill="#0D0D0D" d="M12.31 6.86a.44.44 0 0 1-.88 0 .44.44 0 0 1 .88 0Zm0 14.57a.44.44 0 0 1-.88 0 .44.44 0 0 1 .88 0ZM8.6 7.62c.12.2.04.47-.16.6A.44.44 0 1 1 8 7.45c.2-.12.47-.05.6.16Zm7.3 12.62c.13.2.06.47-.15.6a.44.44 0 1 1-.44-.76.44.44 0 0 1 .6.16ZM5.76 10.12c.2.12.28.4.16.6a.44.44 0 1 1-.16-.6Zm12.67 7.28c.2.13.28.4.16.6a.44.44 0 1 1-.16-.6ZM4.56 13.7a.44.44 0 1 1-.44.44c0-.24.2-.43.44-.43Zm14.63 0a.44.44 0 1 1-.44.44c0-.24.2-.43.44-.43ZM5.32 17.4a.44.44 0 1 1 .44.76.44.44 0 1 1-.44-.76Zm12.88-6.46a.44.44 0 1 0 0-.88.44.44 0 0 0 0 .88Zm-10.37 9.3a.44.44 0 1 1 .76.43.44.44 0 0 1-.76-.43Zm7.32-12.62a.44.44 0 1 1 .76.43.44.44 0 0 1-.76-.43Zm-2.39 7-.91-1.57 5.3-2.12.1.18-4.5 3.5Z"/>
  <path fill="#0D0D0D" d="M11.2 12.93a1.34 1.34 0 0 1 1.82.5c.37.63.15 1.44-.49 1.81a1.33 1.33 0 1 1-1.34-2.3Z"/>
</svg>
